<svg width="252" height="51" viewBox="0 0 252 51" fill="none" xmlns="http://www.w3.org/2000/svg">
<g filter="url(#filter0_d_1587_9408)">
<path d="M0 2.74889C43.61 -0.418985 69.318 -1.08533 120 2.74889C168.327 8.49944 194.889 8.04998 240 2.74889L223.714 24.1432L240 43.8917C195.245 47.2309 165.136 48.9747 120 45.0761C72.4455 38.2053 50.0998 39.4619 0 43.8917L15.4286 24.1432L0 2.74889Z" fill="#C62222"/>
</g>
<path d="M21.9498 23.1862L10.0835 7.13298C51.2434 4.14558 74.6217 4.36391 118.995 8.2126L119.003 8.21331L119.011 8.21395C165.334 11.7818 189.086 13.1119 227.444 10.2472L216.483 23.0925L215.51 24.2332L216.511 25.3496L229.511 39.8493C189.944 42.3838 161.856 42.9469 120.182 39.6262C76.9675 33.8452 58.1676 33.5231 13.0768 37.0659L21.9431 25.2332L22.7081 24.2122L21.9498 23.1862Z" stroke="#FFEF60" stroke-width="3.42857"/>
<path d="M58.5703 25.6055C58.5703 25.0039 58.5547 24.4023 58.5234 23.8008C58.5 23.1992 58.4727 22.5977 58.4414 21.9961C58.4102 21.3867 58.3789 20.7773 58.3477 20.168C58.3242 19.5508 58.3125 18.9258 58.3125 18.293C58.3125 17.6289 58.332 16.957 58.3711 16.2773C58.418 15.5898 58.5039 14.9297 58.6289 14.2969C58.7539 13.6562 58.9258 13.0586 59.1445 12.5039C59.3633 11.9414 59.6484 11.4531 60 11.0391C60.3516 10.625 60.7812 10.2969 61.2891 10.0547C61.7969 9.8125 62.3945 9.69141 63.082 9.69141C63.7383 9.69141 64.3086 9.79688 64.793 10.0078C65.2773 10.2109 65.6875 10.4922 66.0234 10.8516C66.3672 11.2109 66.6445 11.6328 66.8555 12.1172C67.0742 12.6016 67.2422 13.125 67.3594 13.6875C67.4844 14.25 67.5703 14.8359 67.6172 15.4453C67.6641 16.0547 67.6875 16.6602 67.6875 17.2617C67.6875 17.418 67.6836 17.5547 67.6758 17.6719C67.6758 17.7891 67.6719 17.918 67.6641 18.0586C67.6641 18.1914 67.6562 18.3516 67.6406 18.5391C67.6328 18.7266 67.6211 18.9727 67.6055 19.2773C67.5898 19.5742 67.5703 19.9414 67.5469 20.3789C67.5312 20.8164 67.5117 21.3555 67.4883 21.9961C67.4648 22.6367 67.4375 23.3945 67.4062 24.2695C67.375 25.1367 67.3438 26.1523 67.3125 27.3164L63.8086 27.1875C63.9414 26.2969 64.0586 25.4062 64.1602 24.5156C64.2695 23.6172 64.3594 22.7812 64.4297 22.0078C63.8281 21.9609 63.2695 21.9375 62.7539 21.9375C62.4883 21.9375 62.2383 21.9414 62.0039 21.9492C61.7695 21.957 61.5625 21.9688 61.3828 21.9844C61.4062 22.3906 61.4336 22.8203 61.4648 23.2734C61.4961 23.7266 61.5312 24.1836 61.5703 24.6445C61.6094 25.1055 61.6523 25.5625 61.6992 26.0156C61.7461 26.4609 61.8008 26.8867 61.8633 27.293L58.5469 27.3867C58.5625 27.0977 58.5703 26.8047 58.5703 26.5078C58.5703 26.2031 58.5703 25.9023 58.5703 25.6055ZM61.2422 19.5117C61.4766 19.5273 61.707 19.5352 61.9336 19.5352C62.1602 19.5352 62.3828 19.5352 62.6016 19.5352C63.4375 19.5352 64.1094 19.5117 64.6172 19.4648C64.6641 18.9102 64.7109 18.3516 64.7578 17.7891C64.8125 17.2266 64.8398 16.625 64.8398 15.9844C64.8398 14.6328 64.6992 13.6055 64.418 12.9023C64.1445 12.1914 63.7383 11.8359 63.1992 11.8359C62.9023 11.8359 62.6289 11.9414 62.3789 12.1523C62.1289 12.3633 61.9102 12.6914 61.7227 13.1367C61.543 13.5742 61.3984 14.1289 61.2891 14.8008C61.1875 15.4727 61.1367 16.2656 61.1367 17.1797C61.1367 17.5 61.1445 17.8438 61.1602 18.2109C61.1836 18.5703 61.2109 19.0039 61.2422 19.5117Z" fill="white"/>
<path d="M73.5264 9.21094C73.4482 10.3828 73.3818 11.4492 73.3271 12.4102C73.2725 13.3633 73.2256 14.2578 73.1865 15.0938C73.1553 15.9297 73.1318 16.7305 73.1162 17.4961C73.1006 18.2617 73.0928 19.0391 73.0928 19.8281C73.4678 19.4141 73.8154 18.9727 74.1357 18.5039C74.4561 18.0273 74.7451 17.5391 75.0029 17.0391C75.2686 16.5312 75.499 16.0156 75.6943 15.4922C75.8975 14.9688 76.0693 14.4531 76.21 13.9453L79.3857 14.2266C79.0264 14.9844 78.6709 15.6562 78.3193 16.2422C77.9678 16.8281 77.6279 17.3438 77.2998 17.7891C76.9795 18.2266 76.6787 18.5977 76.3975 18.9023C76.124 19.207 75.8779 19.457 75.6592 19.6523C75.9873 19.7617 76.2725 19.8906 76.5146 20.0391C76.7568 20.1875 76.9561 20.3281 77.1123 20.4609C77.2998 20.6172 77.4561 20.7812 77.5811 20.9531C77.7295 21.1953 77.8467 21.4727 77.9326 21.7852C78.0264 22.0898 78.1045 22.4141 78.167 22.7578C78.2373 23.1016 78.3037 23.4609 78.3662 23.8359C78.4365 24.2031 78.5225 24.5742 78.624 24.9492C78.7256 25.3242 78.8584 25.6953 79.0225 26.0625C79.1865 26.4219 79.4014 26.7656 79.667 27.0938H76.5498C76.3936 26.6953 76.2646 26.293 76.1631 25.8867C76.0693 25.4805 75.9912 25.1133 75.9287 24.7852C75.8584 24.4023 75.8076 24.0273 75.7764 23.6602C75.7061 23.1836 75.5693 22.7578 75.3662 22.3828C75.2803 22.2188 75.1709 22.0625 75.0381 21.9141C74.9131 21.7578 74.7607 21.6211 74.5811 21.5039C74.4092 21.3789 74.21 21.2812 73.9834 21.2109C73.7568 21.1328 73.499 21.0938 73.21 21.0938H73.0928C73.0928 21.9766 73.0967 22.918 73.1045 23.918C73.1201 24.918 73.1475 26.043 73.1865 27.293L70.2803 27.2344C70.3506 26.1328 70.4131 25.1289 70.4678 24.2227C70.5225 23.3164 70.5654 22.4688 70.5967 21.6797C70.6357 20.8828 70.6631 20.125 70.6787 19.4062C70.7021 18.6875 70.7139 17.9609 70.7139 17.2266C70.7139 16.6719 70.71 16.1016 70.7021 15.5156C70.6943 14.9219 70.6787 14.3008 70.6553 13.6523C70.6396 12.9961 70.6162 12.3008 70.585 11.5664C70.5537 10.8242 70.5186 10.0234 70.4795 9.16406L73.5264 9.21094Z" fill="white"/>
<path d="M85.2439 9.1875C85.1814 9.99219 85.1306 10.7852 85.0916 11.5664C85.0525 12.3398 85.0134 13.1172 84.9744 13.8984C85.3181 13.8828 85.658 13.8711 85.9939 13.8633C86.3298 13.8477 86.6736 13.8281 87.0251 13.8047L87.072 16.8047C86.697 16.7422 86.3259 16.6914 85.9587 16.6523C85.5916 16.6133 85.2322 16.582 84.8806 16.5586C84.8572 17.2227 84.8416 17.8789 84.8337 18.5273C84.8337 19.1758 84.8337 19.832 84.8337 20.4961C84.8337 21.6836 84.8455 22.8633 84.8689 24.0352C84.9001 25.207 84.947 26.3867 85.0095 27.5742L81.9509 27.5273C82.0525 25.6914 82.1345 23.8594 82.197 22.0312C82.2673 20.1953 82.3142 18.3477 82.3376 16.4883C82.0095 16.5039 81.6814 16.5234 81.3533 16.5469C81.0251 16.5625 80.6892 16.582 80.3455 16.6055L80.4392 13.8281C80.7595 13.8516 81.0759 13.8711 81.3884 13.8867C81.7087 13.8945 82.0251 13.9062 82.3376 13.9219C82.3376 13.1406 82.3298 12.3633 82.3142 11.5898C82.2986 10.8086 82.283 10.0234 82.2673 9.23438L85.2439 9.1875Z" fill="white"/>
<path d="M92.3828 12.1465C92.3828 12.3965 92.3359 12.6348 92.2422 12.8613C92.1484 13.0801 92.0195 13.2715 91.8555 13.4355C91.6914 13.5996 91.4961 13.7324 91.2695 13.834C91.0508 13.9277 90.8164 13.9746 90.5664 13.9746C90.3164 13.9746 90.0781 13.9277 89.8516 13.834C89.6328 13.7324 89.4414 13.5996 89.2773 13.4355C89.1133 13.2715 88.9805 13.0801 88.8789 12.8613C88.7852 12.6348 88.7383 12.3965 88.7383 12.1465C88.7383 11.8965 88.7852 11.6621 88.8789 11.4434C88.9805 11.2168 89.1133 11.0215 89.2773 10.8574C89.4414 10.6934 89.6328 10.5645 89.8516 10.4707C90.0781 10.3691 90.3164 10.3184 90.5664 10.3184C90.8164 10.3184 91.0508 10.3691 91.2695 10.4707C91.4961 10.5645 91.6914 10.6934 91.8555 10.8574C92.0195 11.0215 92.1484 11.2168 92.2422 11.4434C92.3359 11.6621 92.3828 11.8965 92.3828 12.1465ZM92.3828 15.6973C92.3203 16.3145 92.2656 16.9824 92.2188 17.7012C92.1797 18.4121 92.1445 19.1426 92.1133 19.8926C92.0898 20.6426 92.0703 21.3965 92.0547 22.1543C92.0391 22.9121 92.0273 23.6348 92.0195 24.3223C92.0117 25.0098 92.0039 25.6543 91.9961 26.2559C91.9961 26.8496 91.9961 27.3613 91.9961 27.791V29.1152L89.3359 29.209C89.3516 28.6699 89.3594 28.1465 89.3594 27.6387C89.3594 27.1309 89.3594 26.623 89.3594 26.1152C89.3594 25.2324 89.3516 24.373 89.3359 23.5371C89.3203 22.6934 89.293 21.8496 89.2539 21.0059C89.2227 20.1621 89.1797 19.3066 89.125 18.4395C89.0703 17.5723 89.0039 16.6738 88.9258 15.7441L92.3828 15.6973Z" fill="white"/>
<path d="M98.342 29.2559C97.5686 29.2559 96.9006 29.0879 96.3381 28.752C95.7834 28.416 95.3225 27.9473 94.9553 27.3457C94.5959 26.7441 94.3303 26.0293 94.1584 25.2012C93.9866 24.373 93.9006 23.4707 93.9006 22.4941C93.9006 21.3613 94.0022 20.3223 94.2053 19.377C94.4084 18.4316 94.7053 17.6191 95.0959 16.9395C95.4944 16.2598 95.9827 15.7324 96.5608 15.3574C97.1467 14.9746 97.8186 14.7832 98.5764 14.7832C99.342 14.7832 100.002 14.9434 100.557 15.2637C101.112 15.584 101.569 16.0332 101.928 16.6113C102.295 17.1895 102.565 17.8809 102.737 18.6855C102.908 19.4902 102.994 20.377 102.994 21.3457C102.994 21.8457 102.963 22.3887 102.901 22.9746C102.846 23.5605 102.748 24.1465 102.608 24.7324C102.475 25.3184 102.295 25.8848 102.069 26.4316C101.842 26.9707 101.557 27.4512 101.213 27.873C100.869 28.2949 100.459 28.6309 99.9827 28.8809C99.5139 29.1309 98.967 29.2559 98.342 29.2559ZM100.17 20.4785C100.17 19.8848 100.143 19.3535 100.088 18.8848C100.033 18.4082 99.9436 18.0059 99.8186 17.6777C99.7014 17.3496 99.5491 17.0996 99.3616 16.9277C99.1819 16.748 98.9631 16.6582 98.7053 16.6582C98.4241 16.6582 98.1624 16.8066 97.9202 17.1035C97.678 17.4004 97.4631 17.8301 97.2756 18.3926C97.0959 18.9551 96.9514 19.6426 96.842 20.4551C96.7405 21.2598 96.6897 22.1699 96.6897 23.1855C96.6897 23.8418 96.7209 24.4316 96.7834 24.9551C96.8459 25.4707 96.9397 25.9121 97.0647 26.2793C97.1897 26.6387 97.342 26.916 97.5217 27.1113C97.7092 27.2988 97.928 27.3926 98.178 27.3926C98.428 27.3926 98.6506 27.291 98.8459 27.0879C99.0413 26.877 99.2092 26.5957 99.3499 26.2441C99.4983 25.8926 99.6233 25.4863 99.7249 25.0254C99.8342 24.5566 99.9202 24.0684 99.9827 23.5605C100.045 23.0449 100.092 22.5215 100.123 21.9902C100.155 21.459 100.17 20.9551 100.17 20.4785Z" fill="white"/>
<path d="M106.64 15.6035L106.569 16.5645C106.827 16.1348 107.101 15.8066 107.39 15.5801C107.687 15.3535 107.96 15.1934 108.21 15.0996C108.46 15.0059 108.667 14.9551 108.831 14.9473C109.003 14.9395 109.097 14.9355 109.112 14.9355C109.69 14.9355 110.194 15.0684 110.624 15.334C111.054 15.5996 111.409 15.9863 111.69 16.4941C111.972 16.9941 112.179 17.6074 112.312 18.334C112.452 19.0527 112.522 19.8691 112.522 20.7832C112.522 21.4551 112.511 22.1426 112.487 22.8457C112.472 23.541 112.433 24.2363 112.37 24.9316C112.315 25.6191 112.237 26.291 112.136 26.9473C112.042 27.6035 111.913 28.2285 111.749 28.8223L109.019 28.4941C109.198 27.5645 109.339 26.6973 109.44 25.8926C109.542 25.0879 109.616 24.3848 109.663 23.7832C109.718 23.0801 109.749 22.4355 109.757 21.8496C109.757 21.1074 109.733 20.4629 109.687 19.916C109.64 19.3613 109.554 18.9043 109.429 18.5449C109.312 18.1777 109.147 17.9043 108.937 17.7246C108.726 17.5449 108.456 17.4551 108.128 17.4551C107.909 17.502 107.69 17.6582 107.472 17.9238C107.284 18.1504 107.085 18.5137 106.874 19.0137C106.663 19.5059 106.479 20.2012 106.323 21.0996C106.3 21.709 106.284 22.3145 106.276 22.916C106.276 23.5098 106.276 24.1426 106.276 24.8145C106.276 25.3848 106.276 25.998 106.276 26.6543C106.276 27.3105 106.284 28.0527 106.3 28.8809L103.64 28.8223C103.663 28.0254 103.679 27.1816 103.687 26.291C103.702 25.3926 103.71 24.3965 103.71 23.3027C103.71 22.2168 103.702 21.041 103.687 19.7754C103.671 18.5098 103.64 17.1035 103.593 15.5566L106.64 15.6035Z" fill="white"/>
<path d="M122.845 19.6169C122.845 19.9763 122.779 20.281 122.646 20.531C122.513 20.781 122.353 20.9841 122.166 21.1404C121.978 21.2966 121.783 21.4099 121.58 21.4802C121.377 21.5505 121.205 21.5857 121.064 21.5857C120.924 21.5857 120.756 21.5623 120.56 21.5154C120.365 21.4607 120.177 21.3669 119.998 21.2341C119.826 21.1013 119.677 20.9255 119.552 20.7068C119.427 20.4802 119.365 20.1951 119.365 19.8513C119.373 19.6638 119.408 19.4802 119.47 19.3005C119.525 19.1443 119.607 18.9841 119.717 18.8201C119.834 18.6482 119.998 18.4958 120.209 18.363C120.068 18.1599 119.927 18.0037 119.787 17.8943C119.646 17.7849 119.521 17.7029 119.412 17.6482C119.279 17.5857 119.158 17.5466 119.049 17.531C118.806 17.531 118.588 17.5818 118.392 17.6833C118.197 17.7771 118.029 17.906 117.888 18.0701C117.756 18.2263 117.65 18.4099 117.572 18.6208C117.502 18.8318 117.467 19.0505 117.467 19.2771C117.467 19.5662 117.486 19.8279 117.525 20.0623C117.564 20.2966 117.654 20.5349 117.795 20.7771C117.935 21.0193 118.146 21.281 118.427 21.5623C118.709 21.8435 119.092 22.1716 119.576 22.5466C120.06 22.9216 120.482 23.2888 120.842 23.6482C121.201 23.9998 121.498 24.3474 121.732 24.6912C121.967 25.0349 122.142 25.3826 122.26 25.7341C122.377 26.0779 122.435 26.4373 122.435 26.8123C122.435 27.0623 122.408 27.3357 122.353 27.6326C122.306 27.9216 122.22 28.2185 122.095 28.5232C121.978 28.8201 121.818 29.1091 121.615 29.3904C121.42 29.6638 121.174 29.9099 120.877 30.1287C120.588 30.3474 120.244 30.5193 119.845 30.6443C119.455 30.7771 119.006 30.8435 118.498 30.8435C117.732 30.8435 117.08 30.7302 116.541 30.5037C116.002 30.2771 115.556 30.0037 115.205 29.6833C114.861 29.3552 114.607 29.0115 114.443 28.6521C114.287 28.2927 114.209 27.9763 114.209 27.7029C114.209 27.4138 114.244 27.1443 114.314 26.8943C114.385 26.6443 114.494 26.4255 114.642 26.238C114.799 26.0505 114.994 25.906 115.228 25.8044C115.47 25.6951 115.76 25.6404 116.095 25.6404C116.377 25.6404 116.631 25.6833 116.857 25.7693C117.092 25.8552 117.291 25.9841 117.455 26.156C117.627 26.3201 117.76 26.5232 117.853 26.7654C117.947 27.0076 117.994 27.281 117.994 27.5857C117.986 27.7185 117.959 27.8552 117.912 27.9958C117.873 28.113 117.806 28.2419 117.713 28.3826C117.619 28.5232 117.49 28.656 117.326 28.781C117.435 28.8669 117.541 28.9333 117.642 28.9802C117.752 29.0193 117.849 29.0466 117.935 29.0623C118.029 29.0857 118.123 29.0974 118.217 29.0974C118.318 29.0974 118.435 29.0701 118.568 29.0154C118.709 28.9529 118.842 28.8591 118.967 28.7341C119.092 28.6091 119.197 28.4568 119.283 28.2771C119.369 28.0974 119.412 27.8826 119.412 27.6326C119.412 27.3826 119.388 27.156 119.342 26.9529C119.302 26.7419 119.213 26.5271 119.072 26.3083C118.939 26.0818 118.744 25.8357 118.486 25.5701C118.228 25.3044 117.888 24.9841 117.467 24.6091C117.045 24.2341 116.67 23.8708 116.342 23.5193C116.013 23.1599 115.736 22.7888 115.51 22.406C115.291 22.0232 115.123 21.6208 115.006 21.199C114.888 20.7771 114.83 20.3123 114.83 19.8044C114.83 19.3044 114.927 18.8201 115.123 18.3513C115.326 17.8826 115.611 17.4685 115.978 17.1091C116.345 16.7419 116.791 16.4529 117.314 16.2419C117.838 16.0232 118.424 15.9138 119.072 15.9138C119.728 15.9138 120.295 16.0154 120.771 16.2185C121.248 16.4216 121.638 16.6951 121.943 17.0388C122.248 17.3748 122.474 17.7654 122.623 18.2107C122.771 18.656 122.845 19.1248 122.845 19.6169Z" fill="white"/>
<path d="M127.518 12.3865C127.44 13.5583 127.373 14.6248 127.319 15.5857C127.264 16.5388 127.217 17.4333 127.178 18.2693C127.147 19.1052 127.123 19.906 127.108 20.6716C127.092 21.4373 127.084 22.2146 127.084 23.0037C127.459 22.5896 127.807 22.1482 128.127 21.6794C128.448 21.2029 128.737 20.7146 128.994 20.2146C129.26 19.7068 129.49 19.1912 129.686 18.6677C129.889 18.1443 130.061 17.6287 130.201 17.1208L133.377 17.4021C133.018 18.1599 132.662 18.8318 132.311 19.4177C131.959 20.0037 131.619 20.5193 131.291 20.9646C130.971 21.4021 130.67 21.7732 130.389 22.0779C130.115 22.3826 129.869 22.6326 129.651 22.8279C129.979 22.9373 130.264 23.0662 130.506 23.2146C130.748 23.363 130.948 23.5037 131.104 23.6365C131.291 23.7927 131.448 23.9568 131.573 24.1287C131.721 24.3708 131.838 24.6482 131.924 24.9607C132.018 25.2654 132.096 25.5896 132.158 25.9333C132.229 26.2771 132.295 26.6365 132.358 27.0115C132.428 27.3787 132.514 27.7498 132.615 28.1248C132.717 28.4998 132.85 28.8708 133.014 29.238C133.178 29.5974 133.393 29.9412 133.658 30.2693H130.541C130.385 29.8708 130.256 29.4685 130.155 29.0623C130.061 28.656 129.983 28.2888 129.92 27.9607C129.85 27.5779 129.799 27.2029 129.768 26.8357C129.698 26.3591 129.561 25.9333 129.358 25.5583C129.272 25.3943 129.162 25.238 129.03 25.0896C128.905 24.9333 128.752 24.7966 128.573 24.6794C128.401 24.5544 128.201 24.4568 127.975 24.3865C127.748 24.3083 127.49 24.2693 127.201 24.2693H127.084C127.084 25.1521 127.088 26.0935 127.096 27.0935C127.112 28.0935 127.139 29.2185 127.178 30.4685L124.272 30.4099C124.342 29.3083 124.405 28.3044 124.459 27.3982C124.514 26.4919 124.557 25.6443 124.588 24.8552C124.627 24.0583 124.655 23.3005 124.67 22.5818C124.694 21.863 124.705 21.1365 124.705 20.4021C124.705 19.8474 124.701 19.2771 124.694 18.6912C124.686 18.0974 124.67 17.4763 124.647 16.8279C124.631 16.1716 124.608 15.4763 124.576 14.7419C124.545 13.9998 124.51 13.199 124.471 12.3396L127.518 12.3865Z" fill="white"/>
<path d="M140.748 32.2441C140.701 32.002 140.658 31.7559 140.619 31.5059C140.58 31.2559 140.548 30.998 140.525 30.7324C140.166 31.2637 139.736 31.6699 139.236 31.9512C138.736 32.2402 138.189 32.3848 137.595 32.3848C137.291 32.3848 136.978 32.334 136.658 32.2324C136.337 32.1387 136.044 31.9707 135.779 31.7285C135.521 31.4863 135.306 31.1582 135.134 30.7441C134.97 30.3223 134.888 29.791 134.888 29.1504C134.888 28.6191 134.966 28.1582 135.123 27.7676C135.279 27.3691 135.482 27.0215 135.732 26.7246C135.982 26.4277 136.263 26.1699 136.576 25.9512C136.888 25.7324 137.197 25.5371 137.501 25.3652C137.814 25.1934 138.111 25.0332 138.392 24.8848C138.673 24.7363 138.904 24.5879 139.083 24.4395C139.427 24.166 139.724 23.877 139.974 23.5723C140.232 23.2598 140.439 22.9355 140.595 22.5996C140.564 22.0605 140.505 21.6191 140.419 21.2754C140.341 20.9238 140.236 20.6465 140.103 20.4434C139.97 20.2324 139.806 20.0879 139.611 20.0098C139.423 19.9238 139.208 19.8809 138.966 19.8809C138.607 19.8809 138.302 19.959 138.052 20.1152C137.81 20.2715 137.611 20.459 137.455 20.6777C137.65 20.8027 137.798 20.9355 137.9 21.0762C138.009 21.2168 138.091 21.3535 138.146 21.4863C138.208 21.6348 138.244 21.7871 138.251 21.9434C138.251 22.4746 138.099 22.8809 137.794 23.1621C137.498 23.4434 137.115 23.584 136.646 23.584C136.404 23.584 136.181 23.5293 135.978 23.4199C135.775 23.3027 135.595 23.1426 135.439 22.9395C135.291 22.7363 135.173 22.4941 135.087 22.2129C135.001 21.9316 134.958 21.627 134.958 21.2988C134.958 20.9707 135.033 20.623 135.181 20.2559C135.33 19.8887 135.568 19.5488 135.896 19.2363C136.224 18.916 136.646 18.6543 137.162 18.4512C137.677 18.2402 138.302 18.1348 139.037 18.1348C139.771 18.1348 140.4 18.2793 140.923 18.5684C141.447 18.8496 141.876 19.2285 142.212 19.7051C142.548 20.1738 142.791 20.7168 142.939 21.334C143.095 21.9512 143.173 22.5879 143.173 23.2441C143.173 23.7363 143.169 24.2715 143.162 24.8496C143.154 25.4277 143.15 26.0215 143.15 26.6309C143.15 27.1387 143.154 27.6465 143.162 28.1543C143.169 28.6621 143.185 29.1543 143.208 29.6309C143.232 30.0996 143.263 30.5449 143.302 30.9668C143.341 31.3809 143.392 31.752 143.455 32.0801L140.748 32.2441ZM140.572 25.377C140.298 25.7051 140.005 25.9863 139.693 26.2207C139.458 26.3848 139.205 26.5684 138.931 26.7715C138.666 26.9746 138.416 27.1895 138.181 27.416C137.955 27.6426 137.763 27.8809 137.607 28.1309C137.458 28.373 137.384 28.623 137.384 28.8809C137.384 29.2324 137.47 29.5332 137.642 29.7832C137.814 30.0332 138.056 30.1582 138.369 30.1582C138.658 30.1582 138.916 30.0801 139.142 29.9238C139.369 29.7676 139.568 29.5762 139.74 29.3496C139.919 29.1152 140.068 28.8652 140.185 28.5996C140.31 28.334 140.408 28.0918 140.478 27.873L140.572 25.377Z" fill="white"/>
<path d="M149.391 32.2441L146.262 32.4785C146.387 31.0801 146.477 29.7324 146.531 28.4355C146.594 27.1309 146.625 25.8262 146.625 24.5215C146.625 23.5996 146.609 22.6777 146.578 21.7559C146.555 20.8262 146.508 19.873 146.438 18.8965L149.074 18.7559C149.059 18.9277 149.047 19.0957 149.039 19.2598C149.031 19.4238 149.027 19.584 149.027 19.7402C149.301 19.3184 149.598 18.9902 149.918 18.7559C150.246 18.5137 150.551 18.3379 150.832 18.2285C151.152 18.0957 151.477 18.0137 151.805 17.9824C152.375 17.9824 152.863 18.0723 153.27 18.252C153.676 18.4238 154.008 18.6504 154.266 18.9316C154.523 19.2051 154.711 19.5137 154.828 19.8574C154.945 20.1934 155.004 20.5215 155.004 20.8418C155.004 21.1699 154.969 21.502 154.898 21.8379C154.828 22.1738 154.707 22.4785 154.535 22.752C154.371 23.0176 154.148 23.2363 153.867 23.4082C153.594 23.5723 153.254 23.6543 152.848 23.6543C152.441 23.6543 152.121 23.5801 151.887 23.4316C151.652 23.2832 151.473 23.1074 151.348 22.9043C151.23 22.6934 151.152 22.4785 151.113 22.2598C151.082 22.0332 151.066 21.8418 151.066 21.6855C151.066 21.5762 151.086 21.4551 151.125 21.3223C151.164 21.1816 151.223 21.041 151.301 20.9004C151.379 20.7598 151.477 20.623 151.594 20.4902C151.711 20.3496 151.848 20.2207 152.004 20.1035C151.957 20.0879 151.906 20.0762 151.852 20.0684C151.805 20.0605 151.758 20.0566 151.711 20.0566C151.32 20.0566 150.973 20.1816 150.668 20.4316C150.363 20.6738 150.098 21.0137 149.871 21.4512C149.652 21.8887 149.469 22.4043 149.32 22.998C149.18 23.5918 149.074 24.2402 149.004 24.9434C149.043 26.1543 149.098 27.3535 149.168 28.541C149.238 29.7285 149.312 30.9629 149.391 32.2441Z" fill="white"/>
<path d="M159.879 13.9512C159.817 14.7559 159.766 15.5488 159.727 16.3301C159.688 17.1035 159.649 17.8809 159.61 18.6621C159.954 18.6465 160.293 18.6348 160.629 18.627C160.965 18.6113 161.309 18.5918 161.661 18.5684L161.708 21.5684C161.333 21.5059 160.961 21.4551 160.594 21.416C160.227 21.377 159.868 21.3457 159.516 21.3223C159.493 21.9863 159.477 22.6426 159.469 23.291C159.469 23.9395 159.469 24.5957 159.469 25.2598C159.469 26.4473 159.481 27.627 159.504 28.7988C159.536 29.9707 159.583 31.1504 159.645 32.3379L156.586 32.291C156.688 30.4551 156.77 28.623 156.833 26.7949C156.903 24.959 156.95 23.1113 156.973 21.252C156.645 21.2676 156.317 21.2871 155.989 21.3105C155.661 21.3262 155.325 21.3457 154.981 21.3691L155.075 18.5918C155.395 18.6152 155.711 18.6348 156.024 18.6504C156.344 18.6582 156.661 18.6699 156.973 18.6855C156.973 17.9043 156.965 17.127 156.95 16.3535C156.934 15.5723 156.918 14.7871 156.903 13.998L159.879 13.9512Z" fill="white"/>
<path d="M170.591 29.2441C170.591 29.7051 170.486 30.1387 170.275 30.5449C170.064 30.9512 169.779 31.3027 169.419 31.5996C169.06 31.8965 168.638 32.1309 168.154 32.3027C167.669 32.4746 167.154 32.5605 166.607 32.5605C166.24 32.5605 165.868 32.5098 165.493 32.4082C165.118 32.3066 164.759 32.1387 164.415 31.9043C164.072 31.6699 163.747 31.3613 163.443 30.9785C163.138 30.5957 162.872 30.127 162.646 29.5723C162.427 29.0176 162.251 28.3691 162.118 27.627C161.993 26.877 161.931 26.0176 161.931 25.0488C161.931 24.1348 161.993 23.3262 162.118 22.623C162.251 21.9199 162.427 21.3066 162.646 20.7832C162.872 20.2598 163.134 19.8223 163.431 19.4707C163.728 19.1113 164.044 18.8223 164.38 18.6035C164.724 18.377 165.075 18.2168 165.435 18.123C165.802 18.0293 166.161 17.9824 166.513 17.9824C167.036 17.9824 167.532 18.0684 168.001 18.2402C168.47 18.4043 168.88 18.6504 169.232 18.9785C169.583 19.3066 169.861 19.7129 170.064 20.1973C170.275 20.6738 170.38 21.2246 170.38 21.8496C170.38 22.4121 170.263 22.9824 170.029 23.5605C169.802 24.1309 169.462 24.6738 169.009 25.1895C168.556 25.6973 167.993 26.1621 167.322 26.584C166.657 26.998 165.892 27.3262 165.025 27.5684C165.072 28.0527 165.138 28.4941 165.224 28.8926C165.318 29.291 165.431 29.6309 165.564 29.9121C165.704 30.1934 165.865 30.4121 166.044 30.5684C166.232 30.7246 166.447 30.8027 166.689 30.8027C166.845 30.7949 166.993 30.7676 167.134 30.7207C167.259 30.6816 167.384 30.6191 167.509 30.5332C167.642 30.4473 167.751 30.3223 167.837 30.1582C167.634 30.0645 167.478 29.9434 167.368 29.7949C167.259 29.6465 167.177 29.5059 167.122 29.373C167.06 29.2168 167.025 29.0527 167.017 28.8809C167.017 28.5059 167.091 28.2012 167.24 27.9668C167.388 27.7324 167.564 27.5488 167.767 27.416C167.97 27.2832 168.177 27.1934 168.388 27.1465C168.599 27.0918 168.767 27.0645 168.892 27.0645C169.025 27.0645 169.185 27.0918 169.372 27.1465C169.568 27.2012 169.755 27.3066 169.935 27.4629C170.115 27.6191 170.267 27.8418 170.392 28.1309C170.525 28.4121 170.591 28.7832 170.591 29.2441ZM167.697 21.873C167.697 21.5918 167.669 21.3262 167.615 21.0762C167.568 20.8184 167.493 20.5957 167.392 20.4082C167.298 20.2207 167.177 20.0723 167.029 19.9629C166.888 19.8457 166.724 19.7871 166.536 19.7871C166.216 19.7871 165.954 19.9355 165.751 20.2324C165.548 20.5215 165.384 20.9082 165.259 21.3926C165.134 21.877 165.048 22.4355 165.001 23.0684C164.954 23.7012 164.931 24.3613 164.931 25.0488V25.9043C165.329 25.6934 165.697 25.4434 166.032 25.1543C166.376 24.8652 166.669 24.5488 166.911 24.2051C167.161 23.8535 167.353 23.4824 167.486 23.0918C167.626 22.7012 167.697 22.2949 167.697 21.873Z" fill="white"/>
<path d="M176.512 18.7793L176.441 19.7402C176.699 19.3105 176.973 18.9824 177.262 18.7559C177.559 18.5293 177.832 18.3691 178.082 18.2754C178.332 18.1816 178.539 18.1309 178.703 18.123C178.875 18.1152 178.969 18.1113 178.984 18.1113C179.562 18.1113 180.066 18.2441 180.496 18.5098C180.926 18.7754 181.281 19.1621 181.562 19.6699C181.844 20.1699 182.051 20.7832 182.184 21.5098C182.324 22.2285 182.395 23.0449 182.395 23.959C182.395 24.6309 182.383 25.3184 182.359 26.0215C182.344 26.7168 182.305 27.4121 182.242 28.1074C182.188 28.7949 182.109 29.4668 182.008 30.123C181.914 30.7793 181.785 31.4043 181.621 31.998L178.891 31.6699C179.07 30.7402 179.211 29.873 179.312 29.0684C179.414 28.2637 179.488 27.5605 179.535 26.959C179.59 26.2559 179.621 25.6113 179.629 25.0254C179.629 24.2832 179.605 23.6387 179.559 23.0918C179.512 22.5371 179.426 22.0801 179.301 21.7207C179.184 21.3535 179.02 21.0801 178.809 20.9004C178.598 20.7207 178.328 20.6309 178 20.6309C177.781 20.6777 177.562 20.834 177.344 21.0996C177.156 21.3262 176.957 21.6895 176.746 22.1895C176.535 22.6816 176.352 23.377 176.195 24.2754C176.172 24.8848 176.156 25.4902 176.148 26.0918C176.148 26.6855 176.148 27.3184 176.148 27.9902C176.148 28.5605 176.148 29.1738 176.148 29.8301C176.148 30.4863 176.156 31.2285 176.172 32.0566L173.512 31.998C173.535 31.2012 173.551 30.3574 173.559 29.4668C173.574 28.5684 173.582 27.5723 173.582 26.4785C173.582 25.3926 173.574 24.2168 173.559 22.9512C173.543 21.6855 173.512 20.2793 173.465 18.7324L176.512 18.7793Z" fill="white"/>
<defs>
<filter id="filter0_d_1587_9408" x="0" y="0.117188" width="252" height="50.6166" filterUnits="userSpaceOnUse" color-interpolation-filters="sRGB">
<feFlood flood-opacity="0" result="BackgroundImageFix"/>
<feColorMatrix in="SourceAlpha" type="matrix" values="0 0 0 0 0 0 0 0 0 0 0 0 0 0 0 0 0 0 127 0" result="hardAlpha"/>
<feOffset dx="12" dy="3.42857"/>
<feColorMatrix type="matrix" values="0 0 0 0 0 0 0 0 0 0 0 0 0 0 0 0 0 0 0.18 0"/>
<feBlend mode="normal" in2="BackgroundImageFix" result="effect1_dropShadow_1587_9408"/>
<feBlend mode="normal" in="SourceGraphic" in2="effect1_dropShadow_1587_9408" result="shape"/>
</filter>
</defs>
</svg>
