<svg width="252" height="51" fill="none" xmlns="http://www.w3.org/2000/svg"><g filter="url(#a)"><path d="M0 2.75c43.61-3.17 69.32-3.84 120 0 48.33 5.75 74.89 5.3 120 0l-16.29 21.4L240 43.88c-44.75 3.34-74.86 5.08-120 1.19-47.55-6.87-69.9-5.62-120-1.19l15.43-19.75L0 2.74Z" fill="#C62222"/></g><path d="M21.95 23.19 10.08 7.13C51.24 4.15 74.62 4.36 119 8.21h.01c46.32 3.57 70.08 4.9 108.43 2.04l-10.96 12.84-.97 1.14 1 1.12 13 14.5c-39.57 2.53-67.65 3.1-109.33-.22-43.21-5.78-62.01-6.1-107.1-2.56l8.86-11.84.77-1.02-.76-1.02Z" stroke="#FFEF60" stroke-width="3.43"/><path d="M58.57 25.6a137.85 137.85 0 0 0-.13-3.6l-.1-1.83a49.28 49.28 0 0 1 .03-3.9c.05-.68.13-1.34.26-1.97.12-.64.3-1.24.51-1.8.22-.56.5-1.05.86-1.46a3.83 3.83 0 0 1 3.08-1.35c.66 0 1.23.1 1.71.32.49.2.9.48 1.23.84.35.36.62.78.84 1.27.21.48.38 1 .5 1.57.12.56.21 1.15.26 1.76a23.66 23.66 0 0 1-.01 3.83l-.06 1.1a2542 2542 0 0 1-.24 6.94l-3.5-.13a78.27 78.27 0 0 0 .62-5.18 21.65 21.65 0 0 0-3.05-.03 115.6 115.6 0 0 0 .32 4.04l.16 1.27-3.31.1.02-.88v-.9Zm2.67-6.09.7.03h.66c.84 0 1.5-.03 2.02-.08l.14-1.67c.05-.56.08-1.16.08-1.8 0-1.36-.14-2.38-.42-3.09-.28-.7-.68-1.06-1.22-1.06-.3 0-.57.1-.82.31s-.47.54-.66.99c-.18.43-.32.99-.43 1.66a16.14 16.14 0 0 0-.13 3.41l.08 1.3ZM73.53 9.21a330.29 330.29 0 0 0-.34 5.88 142.16 142.16 0 0 0-.1 4.74 12.33 12.33 0 0 0 1.91-2.8 16.31 16.31 0 0 0 1.2-3.1l3.19.3a23.52 23.52 0 0 1-2.09 3.56 12.8 12.8 0 0 1-1.64 1.86 4.14 4.14 0 0 1 1.92 1.3c.15.25.27.52.35.84a30.03 30.03 0 0 1 .43 2.05c.08.36.16.73.26 1.1.1.38.24.76.4 1.12.17.36.38.7.65 1.03h-3.12a9.84 9.84 0 0 1-.62-2.3c-.07-.39-.12-.76-.15-1.13-.07-.48-.21-.9-.41-1.28-.09-.16-.2-.32-.33-.47-.13-.15-.28-.29-.46-.4a2.37 2.37 0 0 0-1.37-.41h-.12l.01 2.82.09 3.37-2.91-.06a883.22 883.22 0 0 0 .32-5.55 83.82 83.82 0 0 0 .11-4.45 126.98 126.98 0 0 0-.23-8.07l3.05.05ZM85.24 9.19l-.15 2.38-.12 2.33 1.02-.04 1.04-.06.04 3a19.03 19.03 0 0 0-2.19-.24l-.05 1.97v1.97c0 1.18.02 2.36.04 3.54.03 1.17.08 2.35.14 3.53l-3.06-.04a260.6 260.6 0 0 0 .39-11.04l-.99.06-1 .06.09-2.78a40.72 40.72 0 0 0 1.9.1c0-.79-.01-1.57-.03-2.34l-.04-2.36 2.97-.04ZM92.38 12.15a1.85 1.85 0 0 1-.52 1.29c-.17.16-.36.3-.6.4-.2.09-.44.13-.7.13-.24 0-.48-.04-.7-.14a1.99 1.99 0 0 1-.98-.97 1.85 1.85 0 0 1 .4-2 1.82 1.82 0 0 1 3.1 1.29Zm0 3.55a56.22 56.22 0 0 0-.27 4.2 210.66 210.66 0 0 0-.11 6.36V29.12l-2.66.09.02-1.57v-1.52a137.37 137.37 0 0 0-.23-7.68l-.2-2.7 3.45-.04ZM98.34 29.26c-.77 0-1.44-.17-2-.5a4.11 4.11 0 0 1-1.38-1.41 6.88 6.88 0 0 1-.8-2.15 14.85 14.85 0 0 1 .05-5.82c.2-.95.5-1.76.89-2.44.4-.68.88-1.2 1.46-1.58a3.6 3.6 0 0 1 2.02-.58c.76 0 1.42.16 1.98.48a3.9 3.9 0 0 1 1.37 1.35c.36.58.63 1.27.8 2.08a12.82 12.82 0 0 1 .17 4.28 12.64 12.64 0 0 1-.83 3.46 5.87 5.87 0 0 1-.86 1.44c-.34.42-.75.76-1.23 1.01-.47.25-1.01.38-1.64.38Zm1.83-8.78c0-.6-.03-1.13-.08-1.6a5.05 5.05 0 0 0-.27-1.2 1.83 1.83 0 0 0-.46-.75.9.9 0 0 0-.65-.27c-.29 0-.55.15-.79.44-.24.3-.46.73-.64 1.3-.18.56-.33 1.24-.44 2.06a22 22 0 0 0-.06 4.5c.07.51.16.95.28 1.32.13.36.28.64.46.83a.9.9 0 0 0 1.32-.02c.2-.21.37-.5.51-.85.15-.35.27-.75.37-1.21.11-.47.2-.96.26-1.47a25.44 25.44 0 0 0 .19-3.08ZM106.64 15.6l-.07.96a3.3 3.3 0 0 1 1.64-1.46 2.15 2.15 0 0 1 .9-.16c.58 0 1.08.13 1.51.4.43.26.79.65 1.07 1.15.28.5.49 1.12.62 1.84.14.72.21 1.54.21 2.45a60.44 60.44 0 0 1-.15 4.15c-.06.69-.13 1.36-.23 2.02-.1.65-.23 1.28-.4 1.87l-2.72-.33a40.53 40.53 0 0 0 .74-6.64c0-.74-.03-1.39-.07-1.93a5.72 5.72 0 0 0-.26-1.38 1.75 1.75 0 0 0-.5-.82 1.2 1.2 0 0 0-.8-.26c-.22.04-.44.2-.66.46-.19.23-.39.6-.6 1.1-.2.49-.4 1.18-.55 2.08-.02.6-.04 1.21-.04 1.82v3.73c0 .66 0 1.4.02 2.23l-2.66-.06.05-2.53a179.95 179.95 0 0 0 0-6.51c-.02-1.27-.05-2.68-.1-4.22l3.05.04ZM122.84 19.62a1.93 1.93 0 0 1-1.26 1.86c-.2.07-.38.1-.52.1s-.3-.02-.5-.06a1.75 1.75 0 0 1-1-.8 1.76 1.76 0 0 1-.09-1.42c.06-.16.14-.32.25-.48.11-.17.28-.32.49-.46a2.14 2.14 0 0 0-.8-.71 1.3 1.3 0 0 0-.36-.12 1.53 1.53 0 0 0-1.16.54 1.83 1.83 0 0 0-.42 1.2c0 .3.02.56.06.8.03.23.12.46.27.7.14.25.35.51.63.8.28.27.66.6 1.15.98.48.37.9.74 1.26 1.1.36.35.66.7.9 1.04.23.34.4.7.52 1.04.12.35.17.7.17 1.08a4.52 4.52 0 0 1-.82 2.58 3.3 3.3 0 0 1-1.77 1.25c-.39.14-.83.2-1.34.2a4.62 4.62 0 0 1-3.3-1.16c-.34-.32-.6-.67-.76-1.03a2.44 2.44 0 0 1-.13-1.76 1.56 1.56 0 0 1 .91-1.09c.25-.1.54-.16.88-.16.28 0 .53.04.76.13.23.09.43.21.6.39.17.16.3.36.4.6.09.25.13.52.13.83a1.6 1.6 0 0 1-.66 1.2c.1.08.21.14.31.19a1.92 1.92 0 0 0 .58.12c.1 0 .22-.03.35-.08.14-.07.27-.16.4-.29a1.48 1.48 0 0 0 .45-1.1c0-.25-.03-.47-.08-.68a1.82 1.82 0 0 0-.27-.64 4 4 0 0 0-.58-.74c-.26-.27-.6-.59-1.02-.96-.42-.38-.8-.74-1.13-1.1a5.25 5.25 0 0 1-1.51-3.71 3.73 3.73 0 0 1 1.15-2.7c.36-.36.81-.65 1.33-.86a4.52 4.52 0 0 1 1.76-.33c.66 0 1.23.1 1.7.3a3.23 3.23 0 0 1 1.85 2c.15.45.22.91.22 1.4ZM127.52 12.39a314.58 314.58 0 0 0-.34 5.88 138 138 0 0 0-.1 4.73 12.3 12.3 0 0 0 1.91-2.79 16.15 16.15 0 0 0 1.2-3.1l3.19.3a23.6 23.6 0 0 1-2.09 3.55 12.8 12.8 0 0 1-1.64 1.87 4.14 4.14 0 0 1 1.92 1.3c.15.24.27.52.35.83a29.56 29.56 0 0 1 .43 2.05c.08.37.16.74.27 1.11.1.38.23.75.4 1.12.16.36.37.7.64 1.03h-3.12c-.16-.4-.28-.8-.38-1.2a11.75 11.75 0 0 1-.39-2.23c-.07-.48-.2-.9-.41-1.28-.09-.17-.2-.32-.33-.47-.13-.16-.28-.3-.46-.41a2.37 2.37 0 0 0-1.37-.41h-.12a223.83 223.83 0 0 0 .1 6.2l-2.9-.06a784.44 784.44 0 0 0 .3-5.55 81.45 81.45 0 0 0 .13-4.46 143.48 143.48 0 0 0-.24-8.06l3.05.05ZM140.75 32.24a20.26 20.26 0 0 1-.22-1.5c-.36.52-.8.93-1.3 1.21a3.22 3.22 0 0 1-2.57.28c-.32-.1-.62-.26-.88-.5a2.8 2.8 0 0 1-.65-.99 4.44 4.44 0 0 1-.24-1.59 3.7 3.7 0 0 1 1.69-3.2 11.31 11.31 0 0 1 1.81-1.07c.28-.14.51-.3.7-.44.34-.27.63-.56.88-.87.26-.31.47-.63.63-.97a7.34 7.34 0 0 0-.18-1.32 2.53 2.53 0 0 0-.32-.84c-.13-.2-.3-.35-.49-.43-.19-.09-.4-.13-.64-.13-.36 0-.67.08-.92.24-.24.15-.44.34-.6.56a1.8 1.8 0 0 1 .7.8c.06.15.1.3.1.46 0 .53-.15.94-.46 1.22-.3.28-.67.42-1.14.42-.25 0-.47-.05-.67-.16-.2-.12-.38-.28-.54-.48-.15-.2-.27-.45-.35-.73a2.8 2.8 0 0 1 .1-1.96c.14-.36.38-.7.7-1.01.33-.32.76-.59 1.27-.79a4.95 4.95 0 0 1 1.88-.32 3.69 3.69 0 0 1 3.17 1.57c.34.47.58 1.02.73 1.63.16.62.23 1.26.23 1.91a133.8 133.8 0 0 1-.02 3.4 96.7 96.7 0 0 0 .06 3c.02.46.05.9.1 1.33.03.41.08.78.15 1.11l-2.71.16Zm-.18-6.86c-.27.33-.56.6-.88.84l-.76.55c-.26.2-.51.42-.75.65-.22.22-.42.46-.57.71-.15.24-.23.5-.23.75 0 .35.09.65.26.9s.42.38.73.38c.29 0 .55-.08.77-.24.23-.15.43-.34.6-.57a6.09 6.09 0 0 0 .74-1.48l.1-2.5ZM149.4 32.24l-3.14.24a85.35 85.35 0 0 0 .32-10.72c-.03-.93-.07-1.89-.14-2.86l2.63-.14a13.19 13.19 0 0 0-.04.98 3.69 3.69 0 0 1 1.8-1.51c.32-.13.65-.22.97-.25.57 0 1.06.1 1.47.27.4.17.74.4 1 .68a2.98 2.98 0 0 1 .74 1.91c0 .33-.04.66-.11 1-.07.33-.2.64-.37.91a2 2 0 0 1-.66.66c-.28.16-.62.24-1.02.24s-.73-.07-.96-.22a1.65 1.65 0 0 1-.54-.53c-.12-.2-.2-.42-.24-.64a4.36 4.36 0 0 1-.04-.57 1.94 1.94 0 0 1 .23-.79c.08-.14.18-.28.3-.41.11-.14.25-.27.4-.39a.89.89 0 0 0-.29-.04c-.39 0-.74.12-1.04.37-.3.24-.57.58-.8 1.02-.22.44-.4.95-.55 1.55-.14.6-.25 1.24-.32 1.94.04 1.21.1 2.41.17 3.6l.22 3.7Z" fill="#fff"/><path d="m159.88 13.95-.15 2.38-.12 2.33 1.02-.03 1.03-.06.05 3a19.07 19.07 0 0 0-2.2-.25 88.4 88.4 0 0 0-.04 1.97v1.97a142.46 142.46 0 0 0 .18 7.08l-3.06-.05a261.32 261.32 0 0 0 .38-11.04l-.98.06-1 .06.08-2.78a40.98 40.98 0 0 0 1.9.1 120.26 120.26 0 0 0-.07-4.7l2.98-.04ZM170.6 29.24c0 .47-.11.9-.32 1.3-.22.41-.5.76-.86 1.06a4.6 4.6 0 0 1-3.93.8c-.37-.1-.73-.26-1.08-.5a4.49 4.49 0 0 1-.97-.92c-.3-.38-.57-.85-.8-1.4-.21-.56-.39-1.21-.52-1.95a15.82 15.82 0 0 1 0-5c.13-.71.3-1.32.53-1.85.22-.52.48-.96.78-1.3.3-.37.61-.66.95-.88.34-.22.7-.38 1.06-.48a4.35 4.35 0 0 1 2.56.12 3.46 3.46 0 0 1 2.06 1.96c.22.47.32 1.02.32 1.65 0 .56-.12 1.13-.35 1.71A5.62 5.62 0 0 1 169 25.2c-.45.5-1.02.97-1.69 1.4a8.8 8.8 0 0 1-2.3.98c.05.48.12.92.2 1.32.1.4.21.74.34 1.02.14.28.3.5.48.66.2.15.4.23.65.23a1.67 1.67 0 0 0 .82-.27.97.97 0 0 0 .33-.37c-.2-.1-.36-.22-.47-.37a1.52 1.52 0 0 1-.35-.91c0-.37.07-.68.22-.91a1.78 1.78 0 0 1 1.15-.82c.2-.06.38-.09.5-.09.14 0 .3.03.48.09.2.05.38.16.56.31.19.16.34.38.46.67.14.28.2.65.2 1.11Zm-2.9-7.37a3.77 3.77 0 0 0-.3-1.46c-.1-.19-.22-.34-.37-.45a.75.75 0 0 0-.5-.17.92.92 0 0 0-.78.44c-.2.3-.37.68-.5 1.16a9.6 9.6 0 0 0-.25 1.68c-.05.63-.07 1.3-.07 1.98v.85a5.93 5.93 0 0 0 1.98-1.7 4.32 4.32 0 0 0 .79-2.33ZM176.51 18.78l-.07.96a3.3 3.3 0 0 1 1.64-1.46 2.15 2.15 0 0 1 .9-.17c.58 0 1.09.13 1.52.4.43.27.78.65 1.06 1.16.28.5.5 1.11.62 1.84.14.72.22 1.53.22 2.45a60.48 60.48 0 0 1-.16 4.15 27.3 27.3 0 0 1-.23 2.01c-.1.66-.22 1.28-.39 1.88l-2.73-.33a40.55 40.55 0 0 0 .74-6.64c0-.75-.03-1.4-.07-1.94a5.72 5.72 0 0 0-.26-1.37 1.74 1.74 0 0 0-.5-.82 1.2 1.2 0 0 0-.8-.27c-.22.05-.44.2-.66.47-.18.23-.38.59-.6 1.09a9.8 9.8 0 0 0-.55 2.09l-.04 1.81v3.74c0 .66 0 1.4.02 2.23l-2.66-.06a179.95 179.95 0 0 0 .05-9.05c-.02-1.26-.05-2.67-.1-4.22l3.05.05Z" fill="#fff"/><defs><filter id="a" x="0" y=".12" width="252" height="50.62" filterUnits="userSpaceOnUse" color-interpolation-filters="sRGB"><feFlood flood-opacity="0" result="BackgroundImageFix"/><feColorMatrix in="SourceAlpha" values="0 0 0 0 0 0 0 0 0 0 0 0 0 0 0 0 0 0 127 0" result="hardAlpha"/><feOffset dx="12" dy="3.43"/><feColorMatrix values="0 0 0 0 0 0 0 0 0 0 0 0 0 0 0 0 0 0 0.18 0"/><feBlend in2="BackgroundImageFix" result="effect1_dropShadow_1587_9408"/><feBlend in="SourceGraphic" in2="effect1_dropShadow_1587_9408" result="shape"/></filter></defs></svg>