<svg width="49" height="24" viewBox="0 0 49 24" fill="none" xmlns="http://www.w3.org/2000/svg">
<mask id="path-1-outside-1_1599_9834" maskUnits="userSpaceOnUse" x="-0.0859375" y="-0.636719" width="49" height="24" fill="black">
<rect fill="white" x="-0.0859375" y="-0.636719" width="49" height="24"/>
<path d="M12.9688 15.3711C12.9297 16.1367 12.793 16.8008 12.5586 17.3633C12.3242 17.918 12.0234 18.3945 11.6562 18.793C11.2969 19.1836 10.8867 19.5039 10.4258 19.7539C9.97266 19.9961 9.51172 20.1875 9.04297 20.3281C8.58203 20.4688 8.125 20.5625 7.67188 20.6094C7.22656 20.6641 6.83203 20.6914 6.48828 20.6914C5.82422 20.6914 5.19922 20.6719 4.61328 20.6328C4.03516 20.5938 3.46875 20.5273 2.91406 20.4336C2.96094 19.9414 3 19.4023 3.03125 18.8164C3.0625 18.2227 3.08984 17.6211 3.11328 17.0117C3.13672 16.3945 3.15234 15.7891 3.16016 15.1953C3.16797 14.6016 3.17578 14.0547 3.18359 13.5547C3.19141 13.0469 3.19531 12.6094 3.19531 12.2422C3.19531 11.8672 3.19531 11.5977 3.19531 11.4336C3.1875 10.3164 3.17188 9.23828 3.14844 8.19922C3.14062 7.75391 3.12891 7.30078 3.11328 6.83984C3.10547 6.37109 3.09375 5.91797 3.07812 5.48047C3.07031 5.03516 3.05859 4.61719 3.04297 4.22656C3.02734 3.82812 3.00781 3.47656 2.98438 3.17188C3.20312 3.14062 3.44141 3.11719 3.69922 3.10156C3.96484 3.08594 4.22656 3.07422 4.48438 3.06641C4.75 3.05078 5.00781 3.04297 5.25781 3.04297C5.51562 3.03516 5.75 3.03125 5.96094 3.03125C6.90625 3.03125 7.79688 3.10156 8.63281 3.24219C9.47656 3.38281 10.2109 3.625 10.8359 3.96875C11.4688 4.30469 11.9648 4.75391 12.3242 5.31641C12.6914 5.87109 12.875 6.56641 12.875 7.40234C12.8359 7.91016 12.7109 8.38672 12.5 8.83203C12.4062 9.02734 12.2891 9.22656 12.1484 9.42969C12.0156 9.625 11.8477 9.8125 11.6445 9.99219C11.4414 10.1719 11.2031 10.3398 10.9297 10.4961C10.6562 10.6523 10.3438 10.7812 9.99219 10.8828C10.5 11.0156 10.9258 11.2148 11.2695 11.4805C11.6133 11.7461 11.8945 12.043 12.1133 12.3711C12.3398 12.6914 12.5078 13.0234 12.6172 13.3672C12.7344 13.7109 12.8164 14.0273 12.8633 14.3164C12.918 14.6055 12.9492 14.8477 12.957 15.043C12.9648 15.2383 12.9688 15.3477 12.9688 15.3711ZM9.67578 15.4883C9.65234 14.832 9.54297 14.2422 9.34766 13.7188C9.26172 13.5 9.15234 13.2852 9.01953 13.0742C8.89453 12.8555 8.73828 12.6641 8.55078 12.5C8.36328 12.3281 8.14062 12.1914 7.88281 12.0898C7.625 11.9883 7.32812 11.9375 6.99219 11.9375C6.90625 11.9375 6.81641 11.9414 6.72266 11.9492C6.62891 11.957 6.52734 11.9688 6.41797 11.9844L6.32422 18.6055C6.55859 18.6523 6.78906 18.6758 7.01562 18.6758C7.34375 18.6758 7.62891 18.6328 7.87109 18.5469C8.12109 18.4531 8.33984 18.332 8.52734 18.1836C8.71484 18.0273 8.87109 17.8555 8.99609 17.668C9.12891 17.4805 9.23828 17.2852 9.32422 17.082C9.52734 16.6133 9.64453 16.082 9.67578 15.4883ZM9.62891 7.33203C9.59766 6.89453 9.48828 6.50391 9.30078 6.16016C9.22266 6.01172 9.12109 5.86719 8.99609 5.72656C8.87891 5.58594 8.73047 5.46094 8.55078 5.35156C8.37891 5.24219 8.17188 5.15234 7.92969 5.08203C7.69531 5.01172 7.42188 4.97656 7.10938 4.97656C6.85938 4.97656 6.58203 5 6.27734 5.04688L6.41797 10.0156H6.67578C7.16016 10.0156 7.57031 9.95312 7.90625 9.82812C8.24219 9.69531 8.51953 9.53516 8.73828 9.34766C8.95703 9.15234 9.125 8.94141 9.24219 8.71484C9.36719 8.48828 9.45703 8.27734 9.51172 8.08203C9.56641 7.87891 9.59766 7.71094 9.60547 7.57812C9.62109 7.4375 9.62891 7.35547 9.62891 7.33203Z"/>
<path d="M21.0186 20.1172C21.0342 19.8047 21.0498 19.5078 21.0655 19.2266C21.0889 18.9375 21.1123 18.6602 21.1358 18.3945C20.8702 18.8633 20.585 19.2227 20.2803 19.4727C19.9834 19.7227 19.7061 19.9102 19.4483 20.0352C19.1436 20.1758 18.8428 20.2617 18.5459 20.293C17.9678 20.293 17.4639 20.1484 17.0342 19.8594C16.6045 19.5703 16.2491 19.1602 15.9678 18.6289C15.6866 18.0977 15.4756 17.4609 15.335 16.7188C15.2022 15.9688 15.1358 15.1328 15.1358 14.2109C15.1358 12.9219 15.1748 11.6719 15.253 10.4609C15.3389 9.25 15.4756 8.0625 15.6631 6.89844L18.6397 7.22656C18.4522 8.15625 18.3077 8.98828 18.2061 9.72266C18.1123 10.4492 18.042 11.0703 17.9952 11.5859C17.9405 12.1875 17.9092 12.7109 17.9014 13.1562C17.9014 13.8984 17.9248 14.5469 17.9717 15.1016C18.0186 15.6484 18.1006 16.1055 18.2178 16.4727C18.3428 16.832 18.5108 17.1016 18.7217 17.2812C18.9327 17.4609 19.2022 17.5508 19.5303 17.5508C19.7569 17.5117 19.9795 17.3555 20.1983 17.082C20.292 16.9648 20.3897 16.8164 20.4912 16.6367C20.5928 16.4492 20.6944 16.2227 20.7959 15.957C20.8975 15.6914 20.9952 15.3789 21.0889 15.0195C21.1827 14.6602 21.2725 14.2422 21.3584 13.7656C21.3741 13.3047 21.3819 12.8477 21.3819 12.3945C21.3819 11.9336 21.3819 11.4375 21.3819 10.9062C21.3819 10.3438 21.3819 9.73047 21.3819 9.06641C21.3819 8.40234 21.3741 7.65625 21.3584 6.82812L24.0186 6.875C23.9795 7.46875 23.9483 8.01953 23.9248 8.52734C23.9014 9.02734 23.8819 9.5 23.8662 9.94531C23.8584 10.3828 23.8506 10.7969 23.8428 11.1875C23.835 11.5781 23.8311 11.957 23.8311 12.3242C23.8311 12.8867 23.835 13.4375 23.8428 13.9766C23.8584 14.5156 23.878 15.0898 23.9014 15.6992C23.9248 16.3008 23.9483 16.9648 23.9717 17.6914C24.003 18.4102 24.0342 19.2344 24.0655 20.1641L21.0186 20.1172Z"/>
<path d="M29.9825 2.36328C29.8888 3.38672 29.8067 4.40234 29.7364 5.41016C29.6661 6.41016 29.6036 7.41797 29.5489 8.43359C29.8145 7.95703 30.0997 7.58984 30.4044 7.33203C30.7091 7.06641 30.9942 6.87109 31.2598 6.74609C31.5723 6.60547 31.877 6.51953 32.1739 6.48828C32.7364 6.48828 33.2364 6.60547 33.6739 6.83984C34.1114 7.07422 34.4786 7.47656 34.7755 8.04688C35.0802 8.60938 35.3106 9.36328 35.4669 10.3086C35.6231 11.2461 35.7012 12.4219 35.7012 13.8359C35.7012 15.1406 35.5762 16.2383 35.3262 17.1289C35.0841 18.0117 34.7677 18.7266 34.377 19.2734C33.9942 19.8125 33.5645 20.1992 33.088 20.4336C32.6192 20.6758 32.1544 20.7969 31.6934 20.7969C31.6466 20.7969 31.5411 20.7852 31.377 20.7617C31.2208 20.7461 31.0294 20.6875 30.8028 20.5859C30.5763 20.4922 30.3341 20.3477 30.0763 20.1523C29.8184 19.957 29.5723 19.6836 29.338 19.332V20.6211L26.7013 20.5742C26.7716 19.4336 26.8184 18.2969 26.8419 17.1641C26.8731 16.0312 26.8888 14.8984 26.8888 13.7656C26.8888 11.8594 26.8575 9.96875 26.795 8.09375C26.7325 6.21094 26.6583 4.31641 26.5723 2.41016L29.9825 2.36328ZM30.8263 18.6289C30.8653 18.6445 30.9044 18.6523 30.9434 18.6523C30.9903 18.6523 31.0372 18.6523 31.0841 18.6523C31.295 18.6523 31.5138 18.582 31.7403 18.4414C31.9747 18.293 32.1856 18.0352 32.3731 17.668C32.5606 17.3008 32.7169 16.8047 32.8419 16.1797C32.9669 15.5469 33.0294 14.7422 33.0294 13.7656C33.0294 12.8906 32.9864 12.1641 32.9005 11.5859C32.8223 11 32.713 10.5312 32.5723 10.1797C32.4317 9.82812 32.2677 9.58203 32.0802 9.44141C31.8927 9.29297 31.6973 9.21875 31.4942 9.21875C31.2833 9.21875 31.088 9.27734 30.9083 9.39453C30.7364 9.50391 30.5802 9.65234 30.4395 9.83984C30.2989 10.0195 30.17 10.2266 30.0528 10.4609C29.9434 10.6953 29.8458 10.9297 29.7598 11.1641C29.6739 11.3906 29.5997 11.6133 29.5372 11.832C29.4825 12.043 29.4395 12.2227 29.4083 12.3711C29.3614 13.9102 29.338 15.4375 29.338 16.9531C29.5177 17.3281 29.6973 17.625 29.877 17.8438C30.0567 18.0625 30.2169 18.2305 30.3575 18.3477C30.5216 18.4883 30.6778 18.582 30.8263 18.6289Z"/>
<path d="M46.4347 17.4805C46.4347 17.9414 46.3292 18.375 46.1183 18.7812C45.9073 19.1875 45.6222 19.5391 45.2628 19.8359C44.9034 20.1328 44.4816 20.3672 43.9972 20.5391C43.5128 20.7109 42.9972 20.7969 42.4503 20.7969C42.0831 20.7969 41.712 20.7461 41.337 20.6445C40.962 20.543 40.6027 20.375 40.2589 20.1406C39.9152 19.9062 39.5909 19.5977 39.2863 19.2148C38.9816 18.832 38.7159 18.3633 38.4894 17.8086C38.2706 17.2539 38.0948 16.6055 37.962 15.8633C37.837 15.1133 37.7745 14.2539 37.7745 13.2852C37.7745 12.3711 37.837 11.5625 37.962 10.8594C38.0948 10.1562 38.2706 9.54297 38.4894 9.01953C38.7159 8.49609 38.9777 8.05859 39.2745 7.70703C39.5714 7.34766 39.8878 7.05859 40.2238 6.83984C40.5675 6.61328 40.9191 6.45312 41.2784 6.35938C41.6456 6.26562 42.005 6.21875 42.3566 6.21875C42.88 6.21875 43.3761 6.30469 43.8448 6.47656C44.3136 6.64062 44.7238 6.88672 45.0753 7.21484C45.4269 7.54297 45.7042 7.94922 45.9073 8.43359C46.1183 8.91016 46.2238 9.46094 46.2238 10.0859C46.2238 10.6484 46.1066 11.2188 45.8722 11.7969C45.6456 12.3672 45.3058 12.9102 44.8527 13.4258C44.3995 13.9336 43.837 14.3984 43.1652 14.8203C42.5011 15.2344 41.7355 15.5625 40.8683 15.8047C40.9152 16.2891 40.9816 16.7305 41.0675 17.1289C41.1613 17.5273 41.2745 17.8672 41.4073 18.1484C41.548 18.4297 41.7081 18.6484 41.8878 18.8047C42.0753 18.9609 42.2902 19.0391 42.5323 19.0391C42.6886 19.0312 42.837 19.0039 42.9777 18.957C43.1027 18.918 43.2277 18.8555 43.3527 18.7695C43.4855 18.6836 43.5948 18.5586 43.6808 18.3945C43.4777 18.3008 43.3214 18.1797 43.212 18.0312C43.1027 17.8828 43.0206 17.7422 42.9659 17.6094C42.9034 17.4531 42.8683 17.2891 42.8605 17.1172C42.8605 16.7422 42.9347 16.4375 43.0831 16.2031C43.2316 15.9688 43.4073 15.7852 43.6105 15.6523C43.8136 15.5195 44.0206 15.4297 44.2316 15.3828C44.4425 15.3281 44.6105 15.3008 44.7355 15.3008C44.8683 15.3008 45.0284 15.3281 45.2159 15.3828C45.4113 15.4375 45.5988 15.543 45.7784 15.6992C45.9581 15.8555 46.1105 16.0781 46.2355 16.3672C46.3683 16.6484 46.4347 17.0195 46.4347 17.4805ZM43.5402 10.1094C43.5402 9.82812 43.5128 9.5625 43.4581 9.3125C43.4113 9.05469 43.337 8.83203 43.2355 8.64453C43.1417 8.45703 43.0206 8.30859 42.8722 8.19922C42.7316 8.08203 42.5675 8.02344 42.38 8.02344C42.0597 8.02344 41.798 8.17188 41.5948 8.46875C41.3917 8.75781 41.2277 9.14453 41.1027 9.62891C40.9777 10.1133 40.8917 10.6719 40.8448 11.3047C40.798 11.9375 40.7745 12.5977 40.7745 13.2852V14.1406C41.173 13.9297 41.5402 13.6797 41.8761 13.3906C42.2198 13.1016 42.5128 12.7852 42.755 12.4414C43.005 12.0898 43.1964 11.7188 43.3292 11.3281C43.4698 10.9375 43.5402 10.5312 43.5402 10.1094Z"/>
</mask>
<path d="M12.9688 15.3711C12.9297 16.1367 12.793 16.8008 12.5586 17.3633C12.3242 17.918 12.0234 18.3945 11.6562 18.793C11.2969 19.1836 10.8867 19.5039 10.4258 19.7539C9.97266 19.9961 9.51172 20.1875 9.04297 20.3281C8.58203 20.4688 8.125 20.5625 7.67188 20.6094C7.22656 20.6641 6.83203 20.6914 6.48828 20.6914C5.82422 20.6914 5.19922 20.6719 4.61328 20.6328C4.03516 20.5938 3.46875 20.5273 2.91406 20.4336C2.96094 19.9414 3 19.4023 3.03125 18.8164C3.0625 18.2227 3.08984 17.6211 3.11328 17.0117C3.13672 16.3945 3.15234 15.7891 3.16016 15.1953C3.16797 14.6016 3.17578 14.0547 3.18359 13.5547C3.19141 13.0469 3.19531 12.6094 3.19531 12.2422C3.19531 11.8672 3.19531 11.5977 3.19531 11.4336C3.1875 10.3164 3.17188 9.23828 3.14844 8.19922C3.14062 7.75391 3.12891 7.30078 3.11328 6.83984C3.10547 6.37109 3.09375 5.91797 3.07812 5.48047C3.07031 5.03516 3.05859 4.61719 3.04297 4.22656C3.02734 3.82812 3.00781 3.47656 2.98438 3.17188C3.20312 3.14062 3.44141 3.11719 3.69922 3.10156C3.96484 3.08594 4.22656 3.07422 4.48438 3.06641C4.75 3.05078 5.00781 3.04297 5.25781 3.04297C5.51562 3.03516 5.75 3.03125 5.96094 3.03125C6.90625 3.03125 7.79688 3.10156 8.63281 3.24219C9.47656 3.38281 10.2109 3.625 10.8359 3.96875C11.4688 4.30469 11.9648 4.75391 12.3242 5.31641C12.6914 5.87109 12.875 6.56641 12.875 7.40234C12.8359 7.91016 12.7109 8.38672 12.5 8.83203C12.4062 9.02734 12.2891 9.22656 12.1484 9.42969C12.0156 9.625 11.8477 9.8125 11.6445 9.99219C11.4414 10.1719 11.2031 10.3398 10.9297 10.4961C10.6562 10.6523 10.3438 10.7812 9.99219 10.8828C10.5 11.0156 10.9258 11.2148 11.2695 11.4805C11.6133 11.7461 11.8945 12.043 12.1133 12.3711C12.3398 12.6914 12.5078 13.0234 12.6172 13.3672C12.7344 13.7109 12.8164 14.0273 12.8633 14.3164C12.918 14.6055 12.9492 14.8477 12.957 15.043C12.9648 15.2383 12.9688 15.3477 12.9688 15.3711ZM9.67578 15.4883C9.65234 14.832 9.54297 14.2422 9.34766 13.7188C9.26172 13.5 9.15234 13.2852 9.01953 13.0742C8.89453 12.8555 8.73828 12.6641 8.55078 12.5C8.36328 12.3281 8.14062 12.1914 7.88281 12.0898C7.625 11.9883 7.32812 11.9375 6.99219 11.9375C6.90625 11.9375 6.81641 11.9414 6.72266 11.9492C6.62891 11.957 6.52734 11.9688 6.41797 11.9844L6.32422 18.6055C6.55859 18.6523 6.78906 18.6758 7.01562 18.6758C7.34375 18.6758 7.62891 18.6328 7.87109 18.5469C8.12109 18.4531 8.33984 18.332 8.52734 18.1836C8.71484 18.0273 8.87109 17.8555 8.99609 17.668C9.12891 17.4805 9.23828 17.2852 9.32422 17.082C9.52734 16.6133 9.64453 16.082 9.67578 15.4883ZM9.62891 7.33203C9.59766 6.89453 9.48828 6.50391 9.30078 6.16016C9.22266 6.01172 9.12109 5.86719 8.99609 5.72656C8.87891 5.58594 8.73047 5.46094 8.55078 5.35156C8.37891 5.24219 8.17188 5.15234 7.92969 5.08203C7.69531 5.01172 7.42188 4.97656 7.10938 4.97656C6.85938 4.97656 6.58203 5 6.27734 5.04688L6.41797 10.0156H6.67578C7.16016 10.0156 7.57031 9.95312 7.90625 9.82812C8.24219 9.69531 8.51953 9.53516 8.73828 9.34766C8.95703 9.15234 9.125 8.94141 9.24219 8.71484C9.36719 8.48828 9.45703 8.27734 9.51172 8.08203C9.56641 7.87891 9.59766 7.71094 9.60547 7.57812C9.62109 7.4375 9.62891 7.35547 9.62891 7.33203Z" fill="white"/>
<path d="M21.0186 20.1172C21.0342 19.8047 21.0498 19.5078 21.0655 19.2266C21.0889 18.9375 21.1123 18.6602 21.1358 18.3945C20.8702 18.8633 20.585 19.2227 20.2803 19.4727C19.9834 19.7227 19.7061 19.9102 19.4483 20.0352C19.1436 20.1758 18.8428 20.2617 18.5459 20.293C17.9678 20.293 17.4639 20.1484 17.0342 19.8594C16.6045 19.5703 16.2491 19.1602 15.9678 18.6289C15.6866 18.0977 15.4756 17.4609 15.335 16.7188C15.2022 15.9688 15.1358 15.1328 15.1358 14.2109C15.1358 12.9219 15.1748 11.6719 15.253 10.4609C15.3389 9.25 15.4756 8.0625 15.6631 6.89844L18.6397 7.22656C18.4522 8.15625 18.3077 8.98828 18.2061 9.72266C18.1123 10.4492 18.042 11.0703 17.9952 11.5859C17.9405 12.1875 17.9092 12.7109 17.9014 13.1562C17.9014 13.8984 17.9248 14.5469 17.9717 15.1016C18.0186 15.6484 18.1006 16.1055 18.2178 16.4727C18.3428 16.832 18.5108 17.1016 18.7217 17.2812C18.9327 17.4609 19.2022 17.5508 19.5303 17.5508C19.7569 17.5117 19.9795 17.3555 20.1983 17.082C20.292 16.9648 20.3897 16.8164 20.4912 16.6367C20.5928 16.4492 20.6944 16.2227 20.7959 15.957C20.8975 15.6914 20.9952 15.3789 21.0889 15.0195C21.1827 14.6602 21.2725 14.2422 21.3584 13.7656C21.3741 13.3047 21.3819 12.8477 21.3819 12.3945C21.3819 11.9336 21.3819 11.4375 21.3819 10.9062C21.3819 10.3438 21.3819 9.73047 21.3819 9.06641C21.3819 8.40234 21.3741 7.65625 21.3584 6.82812L24.0186 6.875C23.9795 7.46875 23.9483 8.01953 23.9248 8.52734C23.9014 9.02734 23.8819 9.5 23.8662 9.94531C23.8584 10.3828 23.8506 10.7969 23.8428 11.1875C23.835 11.5781 23.8311 11.957 23.8311 12.3242C23.8311 12.8867 23.835 13.4375 23.8428 13.9766C23.8584 14.5156 23.878 15.0898 23.9014 15.6992C23.9248 16.3008 23.9483 16.9648 23.9717 17.6914C24.003 18.4102 24.0342 19.2344 24.0655 20.1641L21.0186 20.1172Z" fill="white"/>
<path d="M29.9825 2.36328C29.8888 3.38672 29.8067 4.40234 29.7364 5.41016C29.6661 6.41016 29.6036 7.41797 29.5489 8.43359C29.8145 7.95703 30.0997 7.58984 30.4044 7.33203C30.7091 7.06641 30.9942 6.87109 31.2598 6.74609C31.5723 6.60547 31.877 6.51953 32.1739 6.48828C32.7364 6.48828 33.2364 6.60547 33.6739 6.83984C34.1114 7.07422 34.4786 7.47656 34.7755 8.04688C35.0802 8.60938 35.3106 9.36328 35.4669 10.3086C35.6231 11.2461 35.7012 12.4219 35.7012 13.8359C35.7012 15.1406 35.5762 16.2383 35.3262 17.1289C35.0841 18.0117 34.7677 18.7266 34.377 19.2734C33.9942 19.8125 33.5645 20.1992 33.088 20.4336C32.6192 20.6758 32.1544 20.7969 31.6934 20.7969C31.6466 20.7969 31.5411 20.7852 31.377 20.7617C31.2208 20.7461 31.0294 20.6875 30.8028 20.5859C30.5763 20.4922 30.3341 20.3477 30.0763 20.1523C29.8184 19.957 29.5723 19.6836 29.338 19.332V20.6211L26.7013 20.5742C26.7716 19.4336 26.8184 18.2969 26.8419 17.1641C26.8731 16.0312 26.8888 14.8984 26.8888 13.7656C26.8888 11.8594 26.8575 9.96875 26.795 8.09375C26.7325 6.21094 26.6583 4.31641 26.5723 2.41016L29.9825 2.36328ZM30.8263 18.6289C30.8653 18.6445 30.9044 18.6523 30.9434 18.6523C30.9903 18.6523 31.0372 18.6523 31.0841 18.6523C31.295 18.6523 31.5138 18.582 31.7403 18.4414C31.9747 18.293 32.1856 18.0352 32.3731 17.668C32.5606 17.3008 32.7169 16.8047 32.8419 16.1797C32.9669 15.5469 33.0294 14.7422 33.0294 13.7656C33.0294 12.8906 32.9864 12.1641 32.9005 11.5859C32.8223 11 32.713 10.5312 32.5723 10.1797C32.4317 9.82812 32.2677 9.58203 32.0802 9.44141C31.8927 9.29297 31.6973 9.21875 31.4942 9.21875C31.2833 9.21875 31.088 9.27734 30.9083 9.39453C30.7364 9.50391 30.5802 9.65234 30.4395 9.83984C30.2989 10.0195 30.17 10.2266 30.0528 10.4609C29.9434 10.6953 29.8458 10.9297 29.7598 11.1641C29.6739 11.3906 29.5997 11.6133 29.5372 11.832C29.4825 12.043 29.4395 12.2227 29.4083 12.3711C29.3614 13.9102 29.338 15.4375 29.338 16.9531C29.5177 17.3281 29.6973 17.625 29.877 17.8438C30.0567 18.0625 30.2169 18.2305 30.3575 18.3477C30.5216 18.4883 30.6778 18.582 30.8263 18.6289Z" fill="white"/>
<path d="M46.4347 17.4805C46.4347 17.9414 46.3292 18.375 46.1183 18.7812C45.9073 19.1875 45.6222 19.5391 45.2628 19.8359C44.9034 20.1328 44.4816 20.3672 43.9972 20.5391C43.5128 20.7109 42.9972 20.7969 42.4503 20.7969C42.0831 20.7969 41.712 20.7461 41.337 20.6445C40.962 20.543 40.6027 20.375 40.2589 20.1406C39.9152 19.9062 39.5909 19.5977 39.2863 19.2148C38.9816 18.832 38.7159 18.3633 38.4894 17.8086C38.2706 17.2539 38.0948 16.6055 37.962 15.8633C37.837 15.1133 37.7745 14.2539 37.7745 13.2852C37.7745 12.3711 37.837 11.5625 37.962 10.8594C38.0948 10.1562 38.2706 9.54297 38.4894 9.01953C38.7159 8.49609 38.9777 8.05859 39.2745 7.70703C39.5714 7.34766 39.8878 7.05859 40.2238 6.83984C40.5675 6.61328 40.9191 6.45312 41.2784 6.35938C41.6456 6.26562 42.005 6.21875 42.3566 6.21875C42.88 6.21875 43.3761 6.30469 43.8448 6.47656C44.3136 6.64062 44.7238 6.88672 45.0753 7.21484C45.4269 7.54297 45.7042 7.94922 45.9073 8.43359C46.1183 8.91016 46.2238 9.46094 46.2238 10.0859C46.2238 10.6484 46.1066 11.2188 45.8722 11.7969C45.6456 12.3672 45.3058 12.9102 44.8527 13.4258C44.3995 13.9336 43.837 14.3984 43.1652 14.8203C42.5011 15.2344 41.7355 15.5625 40.8683 15.8047C40.9152 16.2891 40.9816 16.7305 41.0675 17.1289C41.1613 17.5273 41.2745 17.8672 41.4073 18.1484C41.548 18.4297 41.7081 18.6484 41.8878 18.8047C42.0753 18.9609 42.2902 19.0391 42.5323 19.0391C42.6886 19.0312 42.837 19.0039 42.9777 18.957C43.1027 18.918 43.2277 18.8555 43.3527 18.7695C43.4855 18.6836 43.5948 18.5586 43.6808 18.3945C43.4777 18.3008 43.3214 18.1797 43.212 18.0312C43.1027 17.8828 43.0206 17.7422 42.9659 17.6094C42.9034 17.4531 42.8683 17.2891 42.8605 17.1172C42.8605 16.7422 42.9347 16.4375 43.0831 16.2031C43.2316 15.9688 43.4073 15.7852 43.6105 15.6523C43.8136 15.5195 44.0206 15.4297 44.2316 15.3828C44.4425 15.3281 44.6105 15.3008 44.7355 15.3008C44.8683 15.3008 45.0284 15.3281 45.2159 15.3828C45.4113 15.4375 45.5988 15.543 45.7784 15.6992C45.9581 15.8555 46.1105 16.0781 46.2355 16.3672C46.3683 16.6484 46.4347 17.0195 46.4347 17.4805ZM43.5402 10.1094C43.5402 9.82812 43.5128 9.5625 43.4581 9.3125C43.4113 9.05469 43.337 8.83203 43.2355 8.64453C43.1417 8.45703 43.0206 8.30859 42.8722 8.19922C42.7316 8.08203 42.5675 8.02344 42.38 8.02344C42.0597 8.02344 41.798 8.17188 41.5948 8.46875C41.3917 8.75781 41.2277 9.14453 41.1027 9.62891C40.9777 10.1133 40.8917 10.6719 40.8448 11.3047C40.798 11.9375 40.7745 12.5977 40.7745 13.2852V14.1406C41.173 13.9297 41.5402 13.6797 41.8761 13.3906C42.2198 13.1016 42.5128 12.7852 42.755 12.4414C43.005 12.0898 43.1964 11.7188 43.3292 11.3281C43.4698 10.9375 43.5402 10.5312 43.5402 10.1094Z" fill="white"/>
<path d="M12.9688 15.3711C12.9297 16.1367 12.793 16.8008 12.5586 17.3633C12.3242 17.918 12.0234 18.3945 11.6562 18.793C11.2969 19.1836 10.8867 19.5039 10.4258 19.7539C9.97266 19.9961 9.51172 20.1875 9.04297 20.3281C8.58203 20.4688 8.125 20.5625 7.67188 20.6094C7.22656 20.6641 6.83203 20.6914 6.48828 20.6914C5.82422 20.6914 5.19922 20.6719 4.61328 20.6328C4.03516 20.5938 3.46875 20.5273 2.91406 20.4336C2.96094 19.9414 3 19.4023 3.03125 18.8164C3.0625 18.2227 3.08984 17.6211 3.11328 17.0117C3.13672 16.3945 3.15234 15.7891 3.16016 15.1953C3.16797 14.6016 3.17578 14.0547 3.18359 13.5547C3.19141 13.0469 3.19531 12.6094 3.19531 12.2422C3.19531 11.8672 3.19531 11.5977 3.19531 11.4336C3.1875 10.3164 3.17188 9.23828 3.14844 8.19922C3.14062 7.75391 3.12891 7.30078 3.11328 6.83984C3.10547 6.37109 3.09375 5.91797 3.07812 5.48047C3.07031 5.03516 3.05859 4.61719 3.04297 4.22656C3.02734 3.82812 3.00781 3.47656 2.98438 3.17188C3.20312 3.14062 3.44141 3.11719 3.69922 3.10156C3.96484 3.08594 4.22656 3.07422 4.48438 3.06641C4.75 3.05078 5.00781 3.04297 5.25781 3.04297C5.51562 3.03516 5.75 3.03125 5.96094 3.03125C6.90625 3.03125 7.79688 3.10156 8.63281 3.24219C9.47656 3.38281 10.2109 3.625 10.8359 3.96875C11.4688 4.30469 11.9648 4.75391 12.3242 5.31641C12.6914 5.87109 12.875 6.56641 12.875 7.40234C12.8359 7.91016 12.7109 8.38672 12.5 8.83203C12.4062 9.02734 12.2891 9.22656 12.1484 9.42969C12.0156 9.625 11.8477 9.8125 11.6445 9.99219C11.4414 10.1719 11.2031 10.3398 10.9297 10.4961C10.6562 10.6523 10.3438 10.7812 9.99219 10.8828C10.5 11.0156 10.9258 11.2148 11.2695 11.4805C11.6133 11.7461 11.8945 12.043 12.1133 12.3711C12.3398 12.6914 12.5078 13.0234 12.6172 13.3672C12.7344 13.7109 12.8164 14.0273 12.8633 14.3164C12.918 14.6055 12.9492 14.8477 12.957 15.043C12.9648 15.2383 12.9688 15.3477 12.9688 15.3711ZM9.67578 15.4883C9.65234 14.832 9.54297 14.2422 9.34766 13.7188C9.26172 13.5 9.15234 13.2852 9.01953 13.0742C8.89453 12.8555 8.73828 12.6641 8.55078 12.5C8.36328 12.3281 8.14062 12.1914 7.88281 12.0898C7.625 11.9883 7.32812 11.9375 6.99219 11.9375C6.90625 11.9375 6.81641 11.9414 6.72266 11.9492C6.62891 11.957 6.52734 11.9688 6.41797 11.9844L6.32422 18.6055C6.55859 18.6523 6.78906 18.6758 7.01562 18.6758C7.34375 18.6758 7.62891 18.6328 7.87109 18.5469C8.12109 18.4531 8.33984 18.332 8.52734 18.1836C8.71484 18.0273 8.87109 17.8555 8.99609 17.668C9.12891 17.4805 9.23828 17.2852 9.32422 17.082C9.52734 16.6133 9.64453 16.082 9.67578 15.4883ZM9.62891 7.33203C9.59766 6.89453 9.48828 6.50391 9.30078 6.16016C9.22266 6.01172 9.12109 5.86719 8.99609 5.72656C8.87891 5.58594 8.73047 5.46094 8.55078 5.35156C8.37891 5.24219 8.17188 5.15234 7.92969 5.08203C7.69531 5.01172 7.42188 4.97656 7.10938 4.97656C6.85938 4.97656 6.58203 5 6.27734 5.04688L6.41797 10.0156H6.67578C7.16016 10.0156 7.57031 9.95312 7.90625 9.82812C8.24219 9.69531 8.51953 9.53516 8.73828 9.34766C8.95703 9.15234 9.125 8.94141 9.24219 8.71484C9.36719 8.48828 9.45703 8.27734 9.51172 8.08203C9.56641 7.87891 9.59766 7.71094 9.60547 7.57812C9.62109 7.4375 9.62891 7.35547 9.62891 7.33203Z" stroke="black" stroke-width="4.6425" mask="url(#path-1-outside-1_1599_9834)"/>
<path d="M21.0186 20.1172C21.0342 19.8047 21.0498 19.5078 21.0655 19.2266C21.0889 18.9375 21.1123 18.6602 21.1358 18.3945C20.8702 18.8633 20.585 19.2227 20.2803 19.4727C19.9834 19.7227 19.7061 19.9102 19.4483 20.0352C19.1436 20.1758 18.8428 20.2617 18.5459 20.293C17.9678 20.293 17.4639 20.1484 17.0342 19.8594C16.6045 19.5703 16.2491 19.1602 15.9678 18.6289C15.6866 18.0977 15.4756 17.4609 15.335 16.7188C15.2022 15.9688 15.1358 15.1328 15.1358 14.2109C15.1358 12.9219 15.1748 11.6719 15.253 10.4609C15.3389 9.25 15.4756 8.0625 15.6631 6.89844L18.6397 7.22656C18.4522 8.15625 18.3077 8.98828 18.2061 9.72266C18.1123 10.4492 18.042 11.0703 17.9952 11.5859C17.9405 12.1875 17.9092 12.7109 17.9014 13.1562C17.9014 13.8984 17.9248 14.5469 17.9717 15.1016C18.0186 15.6484 18.1006 16.1055 18.2178 16.4727C18.3428 16.832 18.5108 17.1016 18.7217 17.2812C18.9327 17.4609 19.2022 17.5508 19.5303 17.5508C19.7569 17.5117 19.9795 17.3555 20.1983 17.082C20.292 16.9648 20.3897 16.8164 20.4912 16.6367C20.5928 16.4492 20.6944 16.2227 20.7959 15.957C20.8975 15.6914 20.9952 15.3789 21.0889 15.0195C21.1827 14.6602 21.2725 14.2422 21.3584 13.7656C21.3741 13.3047 21.3819 12.8477 21.3819 12.3945C21.3819 11.9336 21.3819 11.4375 21.3819 10.9062C21.3819 10.3438 21.3819 9.73047 21.3819 9.06641C21.3819 8.40234 21.3741 7.65625 21.3584 6.82812L24.0186 6.875C23.9795 7.46875 23.9483 8.01953 23.9248 8.52734C23.9014 9.02734 23.8819 9.5 23.8662 9.94531C23.8584 10.3828 23.8506 10.7969 23.8428 11.1875C23.835 11.5781 23.8311 11.957 23.8311 12.3242C23.8311 12.8867 23.835 13.4375 23.8428 13.9766C23.8584 14.5156 23.878 15.0898 23.9014 15.6992C23.9248 16.3008 23.9483 16.9648 23.9717 17.6914C24.003 18.4102 24.0342 19.2344 24.0655 20.1641L21.0186 20.1172Z" stroke="black" stroke-width="4.6425" mask="url(#path-1-outside-1_1599_9834)"/>
<path d="M29.9825 2.36328C29.8888 3.38672 29.8067 4.40234 29.7364 5.41016C29.6661 6.41016 29.6036 7.41797 29.5489 8.43359C29.8145 7.95703 30.0997 7.58984 30.4044 7.33203C30.7091 7.06641 30.9942 6.87109 31.2598 6.74609C31.5723 6.60547 31.877 6.51953 32.1739 6.48828C32.7364 6.48828 33.2364 6.60547 33.6739 6.83984C34.1114 7.07422 34.4786 7.47656 34.7755 8.04688C35.0802 8.60938 35.3106 9.36328 35.4669 10.3086C35.6231 11.2461 35.7012 12.4219 35.7012 13.8359C35.7012 15.1406 35.5762 16.2383 35.3262 17.1289C35.0841 18.0117 34.7677 18.7266 34.377 19.2734C33.9942 19.8125 33.5645 20.1992 33.088 20.4336C32.6192 20.6758 32.1544 20.7969 31.6934 20.7969C31.6466 20.7969 31.5411 20.7852 31.377 20.7617C31.2208 20.7461 31.0294 20.6875 30.8028 20.5859C30.5763 20.4922 30.3341 20.3477 30.0763 20.1523C29.8184 19.957 29.5723 19.6836 29.338 19.332V20.6211L26.7013 20.5742C26.7716 19.4336 26.8184 18.2969 26.8419 17.1641C26.8731 16.0312 26.8888 14.8984 26.8888 13.7656C26.8888 11.8594 26.8575 9.96875 26.795 8.09375C26.7325 6.21094 26.6583 4.31641 26.5723 2.41016L29.9825 2.36328ZM30.8263 18.6289C30.8653 18.6445 30.9044 18.6523 30.9434 18.6523C30.9903 18.6523 31.0372 18.6523 31.0841 18.6523C31.295 18.6523 31.5138 18.582 31.7403 18.4414C31.9747 18.293 32.1856 18.0352 32.3731 17.668C32.5606 17.3008 32.7169 16.8047 32.8419 16.1797C32.9669 15.5469 33.0294 14.7422 33.0294 13.7656C33.0294 12.8906 32.9864 12.1641 32.9005 11.5859C32.8223 11 32.713 10.5312 32.5723 10.1797C32.4317 9.82812 32.2677 9.58203 32.0802 9.44141C31.8927 9.29297 31.6973 9.21875 31.4942 9.21875C31.2833 9.21875 31.088 9.27734 30.9083 9.39453C30.7364 9.50391 30.5802 9.65234 30.4395 9.83984C30.2989 10.0195 30.17 10.2266 30.0528 10.4609C29.9434 10.6953 29.8458 10.9297 29.7598 11.1641C29.6739 11.3906 29.5997 11.6133 29.5372 11.832C29.4825 12.043 29.4395 12.2227 29.4083 12.3711C29.3614 13.9102 29.338 15.4375 29.338 16.9531C29.5177 17.3281 29.6973 17.625 29.877 17.8438C30.0567 18.0625 30.2169 18.2305 30.3575 18.3477C30.5216 18.4883 30.6778 18.582 30.8263 18.6289Z" stroke="black" stroke-width="4.6425" mask="url(#path-1-outside-1_1599_9834)"/>
<path d="M46.4347 17.4805C46.4347 17.9414 46.3292 18.375 46.1183 18.7812C45.9073 19.1875 45.6222 19.5391 45.2628 19.8359C44.9034 20.1328 44.4816 20.3672 43.9972 20.5391C43.5128 20.7109 42.9972 20.7969 42.4503 20.7969C42.0831 20.7969 41.712 20.7461 41.337 20.6445C40.962 20.543 40.6027 20.375 40.2589 20.1406C39.9152 19.9062 39.5909 19.5977 39.2863 19.2148C38.9816 18.832 38.7159 18.3633 38.4894 17.8086C38.2706 17.2539 38.0948 16.6055 37.962 15.8633C37.837 15.1133 37.7745 14.2539 37.7745 13.2852C37.7745 12.3711 37.837 11.5625 37.962 10.8594C38.0948 10.1562 38.2706 9.54297 38.4894 9.01953C38.7159 8.49609 38.9777 8.05859 39.2745 7.70703C39.5714 7.34766 39.8878 7.05859 40.2238 6.83984C40.5675 6.61328 40.9191 6.45312 41.2784 6.35938C41.6456 6.26562 42.005 6.21875 42.3566 6.21875C42.88 6.21875 43.3761 6.30469 43.8448 6.47656C44.3136 6.64062 44.7238 6.88672 45.0753 7.21484C45.4269 7.54297 45.7042 7.94922 45.9073 8.43359C46.1183 8.91016 46.2238 9.46094 46.2238 10.0859C46.2238 10.6484 46.1066 11.2188 45.8722 11.7969C45.6456 12.3672 45.3058 12.9102 44.8527 13.4258C44.3995 13.9336 43.837 14.3984 43.1652 14.8203C42.5011 15.2344 41.7355 15.5625 40.8683 15.8047C40.9152 16.2891 40.9816 16.7305 41.0675 17.1289C41.1613 17.5273 41.2745 17.8672 41.4073 18.1484C41.548 18.4297 41.7081 18.6484 41.8878 18.8047C42.0753 18.9609 42.2902 19.0391 42.5323 19.0391C42.6886 19.0312 42.837 19.0039 42.9777 18.957C43.1027 18.918 43.2277 18.8555 43.3527 18.7695C43.4855 18.6836 43.5948 18.5586 43.6808 18.3945C43.4777 18.3008 43.3214 18.1797 43.212 18.0312C43.1027 17.8828 43.0206 17.7422 42.9659 17.6094C42.9034 17.4531 42.8683 17.2891 42.8605 17.1172C42.8605 16.7422 42.9347 16.4375 43.0831 16.2031C43.2316 15.9688 43.4073 15.7852 43.6105 15.6523C43.8136 15.5195 44.0206 15.4297 44.2316 15.3828C44.4425 15.3281 44.6105 15.3008 44.7355 15.3008C44.8683 15.3008 45.0284 15.3281 45.2159 15.3828C45.4113 15.4375 45.5988 15.543 45.7784 15.6992C45.9581 15.8555 46.1105 16.0781 46.2355 16.3672C46.3683 16.6484 46.4347 17.0195 46.4347 17.4805ZM43.5402 10.1094C43.5402 9.82812 43.5128 9.5625 43.4581 9.3125C43.4113 9.05469 43.337 8.83203 43.2355 8.64453C43.1417 8.45703 43.0206 8.30859 42.8722 8.19922C42.7316 8.08203 42.5675 8.02344 42.38 8.02344C42.0597 8.02344 41.798 8.17188 41.5948 8.46875C41.3917 8.75781 41.2277 9.14453 41.1027 9.62891C40.9777 10.1133 40.8917 10.6719 40.8448 11.3047C40.798 11.9375 40.7745 12.5977 40.7745 13.2852V14.1406C41.173 13.9297 41.5402 13.6797 41.8761 13.3906C42.2198 13.1016 42.5128 12.7852 42.755 12.4414C43.005 12.0898 43.1964 11.7188 43.3292 11.3281C43.4698 10.9375 43.5402 10.5312 43.5402 10.1094Z" stroke="black" stroke-width="4.6425" mask="url(#path-1-outside-1_1599_9834)"/>
</svg>
