<svg width="107" height="83" fill="none" xmlns="http://www.w3.org/2000/svg"><g filter="url(#a)"><rect x="4.7" y="12.21" width="41.58" height="62.37" rx="3.2" transform="rotate(-15.72 4.7 12.21)" fill="#fff"/><mask id="b" style="mask-type:alpha" maskUnits="userSpaceOnUse" x="10" y="3" width="47" height="67"><path d="M12.4 11.71 40.53 3.8a2.8 2.8 0 0 1 3.45 1.93l12 42.62a1.7 1.7 0 0 1-1.18 2.1 2.5 2.5 0 0 0-1.83 2.25l-.3 4.69c-.05.78.4 1.5 1.12 1.81.9.38.82 1.69-.13 1.96L25.01 69.2a2.8 2.8 0 0 1-3.48-2.02L11.1 24.92a2.04 2.04 0 0 1 1.43-2.45c1.51-.42 2.39-2 1.96-3.5l-.95-3.37a2.11 2.11 0 0 0-1.27-1.4 1.31 1.31 0 0 1 .12-2.49Z" fill="#C4C4C4" stroke="#000" stroke-width=".8"/></mask><g mask="url(#b)"><rect x="9.52" y="14.59" width="34.38" height="55.17" rx="2.8" transform="rotate(-15.72 9.52 14.6)" stroke="#000" stroke-width=".8"/></g><path d="m19.25 22.24-3.25.92c1.08-1.13 1.13-1.8.9-3.05l-1.88 1.65c-1.41-.46-1.6-.9-.58-2.07l2.46.42-1.82-2.28c.31-1.53 1-1.67 2.17-.6l-.35 2.88 2.14-1.72c1.18.54 1.1 1.06.59 2.07l-2.73-.35c.53 1.16.98 1.68 2.35 2.13Z" fill="#000"/><path d="M16.9 20.11c.23 1.25.18 1.92-.9 3.05l3.25-.92c-1.37-.45-1.82-.97-2.35-2.13Zm0 0-1.88 1.65c-1.41-.46-1.6-.9-.58-2.07l2.46.42Zm0 0 .35-2.89c-1.18-1.06-1.86-.92-2.17.61l1.82 2.28Zm0 0 2.14-1.72c1.18.54 1.1 1.06.59 2.07l-2.73-.35Z" stroke="#000" stroke-width=".8"/><path d="m42.64 44.73 2.84-.8c-.94.98-1 1.58-.78 2.66l1.64-1.44c1.23.4 1.4.79.5 1.81l-2.15-.37 1.59 2c-.27 1.34-.87 1.46-1.9.53l.31-2.53-1.87 1.5c-1.04-.46-.96-.91-.51-1.8l2.38.3c-.47-1-.86-1.47-2.05-1.86Z" fill="#000"/><path d="M44.7 46.6c-.21-1.1-.16-1.69.78-2.67l-2.84.8c1.19.4 1.58.85 2.05 1.86Zm0 0 1.64-1.45c1.23.4 1.4.79.5 1.81l-2.15-.37Zm0 0-.32 2.52c1.03.93 1.63.81 1.9-.53l-1.59-2Zm0 0-1.88 1.5c-1.04-.47-.96-.92-.51-1.81l2.38.3Z" stroke="#000" stroke-width=".8"/><path d="m30.1 48.26-2.85.8c1.31.35 1.67.83 2.06 1.86l-2.16-.37c-.84.99-.78 1.4.51 1.81l1.65-1.44-.32 2.53c.93 1 1.5.8 1.9-.53l-1.58-2 2.38.3c.64-.93.34-1.28-.5-1.8l-1.88 1.5c-.13-1.1-.03-1.7.78-2.66Z" fill="#000"/><path d="M29.3 50.92c-.38-1.03-.74-1.51-2.05-1.86l2.84-.8c-.81.96-.91 1.56-.78 2.66Zm0 0-2.15-.37c-.84.99-.78 1.4.51 1.81l1.65-1.44Zm0 0 1.6 2c-.4 1.33-.98 1.54-1.9.53l.3-2.53Zm0 0 2.4.3c.63-.93.33-1.28-.51-1.8l-1.88 1.5Z" stroke="#000" stroke-width=".8"/><path d="m39.17 32.42 2.84-.8c-.94.98-.99 1.57-.78 2.66l1.64-1.44c1.23.4 1.4.78.51 1.8l-2.15-.36 1.58 2c-.27 1.34-.86 1.46-1.9.53l.32-2.53-1.88 1.5c-1.03-.47-.96-.92-.51-1.8l2.39.3c-.47-1.01-.87-1.47-2.06-1.86Z" fill="#000"/><path d="M41.23 34.28c-.21-1.09-.16-1.68.78-2.66l-2.84.8c1.2.39 1.59.85 2.06 1.86Zm0 0 1.64-1.44c1.23.4 1.4.78.51 1.8l-2.15-.36Zm0 0-.31 2.53c1.03.93 1.62.8 1.9-.54l-1.6-2Zm0 0-1.88 1.5c-1.03-.47-.96-.92-.51-1.8l2.39.3Z" stroke="#000" stroke-width=".8"/><path d="m34.1 33.01-2.84.8c.95-.98 1-1.57.79-2.66l-1.65 1.44c-1.23-.4-1.4-.78-.5-1.81l2.15.37-1.59-2c.27-1.34.87-1.46 1.9-.53l-.31 2.53 1.88-1.5c1.03.47.95.92.5 1.8l-2.38-.3c.47 1.01.86 1.47 2.06 1.86Z" fill="#000"/><path d="M32.05 31.15c.2 1.09.16 1.68-.79 2.66l2.85-.8c-1.2-.4-1.6-.85-2.06-1.86Zm0 0-1.65 1.44c-1.23-.4-1.4-.78-.5-1.81l2.15.37Zm0 0 .3-2.53c-1.02-.93-1.62-.8-1.89.54l1.59 1.99Zm0 0 1.88-1.5c1.03.47.95.92.5 1.8l-2.38-.3Z" stroke="#000" stroke-width=".8"/><path d="m26.63 35.95-2.85.8c1.32.34 1.67.82 2.06 1.86l-2.15-.37c-.85.99-.79 1.4.5 1.8l1.65-1.43-.31 2.53c.93 1 1.5.8 1.9-.54l-1.6-1.99 2.4.3c.63-.94.34-1.28-.51-1.8l-1.88 1.5c-.13-1.11-.03-1.7.79-2.66Z" fill="#000"/><path d="M25.84 38.61c-.39-1.04-.74-1.52-2.06-1.86l2.85-.8c-.82.96-.92 1.55-.8 2.66Zm0 0-2.15-.37c-.85.99-.79 1.4.5 1.8l1.65-1.43Zm0 0 1.58 2c-.39 1.33-.96 1.53-1.9.53l.32-2.53Zm0 0 2.39.3c.63-.94.34-1.28-.51-1.8l-1.88 1.5Z" stroke="#000" stroke-width=".8"/><path d="m24.68 29.02-2.85.8c.95-.98 1-1.57.79-2.66l-1.65 1.44c-1.23-.4-1.4-.78-.5-1.81l2.15.37-1.59-2c.27-1.34.87-1.46 1.9-.53l-.31 2.53 1.88-1.5c1.03.47.95.91.5 1.8l-2.38-.3c.47 1.01.86 1.47 2.06 1.86Z" fill="#000"/><path d="M22.62 27.16c.2 1.09.15 1.68-.79 2.66l2.85-.8c-1.2-.4-1.6-.85-2.06-1.86Zm0 0-1.65 1.44c-1.23-.4-1.4-.78-.5-1.81l2.15.37Zm0 0 .3-2.53c-1.02-.93-1.62-.8-1.89.53l1.59 2Zm0 0 1.88-1.5c1.03.47.95.91.5 1.8l-2.38-.3Z" stroke="#000" stroke-width=".8"/><path d="m37.22 25.49 2.84-.8c-1.31-.35-1.67-.83-2.05-1.86l2.15.37c.84-.99.78-1.4-.51-1.81L38 22.83l.3-2.53c-.92-1-1.5-.8-1.89.53l1.59 2-2.4-.3c-.63.93-.33 1.28.52 1.8l1.88-1.5c.12 1.1.02 1.7-.8 2.66Z" fill="#000"/><path d="M38 22.83c.4 1.03.75 1.51 2.06 1.86l-2.84.8c.81-.96.91-1.55.79-2.66Zm0 0 2.16.37c.84-.99.78-1.4-.51-1.81L38 22.83Zm0 0-1.58-2c.4-1.33.97-1.54 1.9-.53L38 22.83Zm0 0-2.38-.3c-.64.93-.34 1.28.5 1.8l1.89-1.5Z" stroke="#000" stroke-width=".8"/><path d="m47.08 50.96 3.25-.92c-1.08 1.13-1.14 1.8-.9 3.05l1.88-1.65c1.4.46 1.6.9.58 2.07l-2.46-.42 1.81 2.27c-.3 1.54-.99 1.68-2.17.62l.36-2.9-2.15 1.73c-1.18-.54-1.1-1.06-.58-2.07l2.73.35c-.54-1.16-.99-1.68-2.35-2.13Z" fill="#000"/><path d="M49.43 53.09c-.24-1.25-.18-1.92.9-3.05l-3.25.92c1.36.45 1.81.97 2.35 2.13Zm0 0 1.88-1.65c1.4.46 1.6.9.58 2.07l-2.46-.42Zm0 0-.36 2.89c1.18 1.06 1.86.92 2.17-.62l-1.81-2.27Zm0 0-2.15 1.72c-1.18-.54-1.1-1.06-.58-2.07l2.73.35Z" stroke="#000" stroke-width=".8"/><path d="M7.57 15.03a475.6 475.6 0 0 0 2.58-.79h.09l.01.04.04.11.04.15.06.17.14.45a10.04 10.04 0 0 0-.08 1.73 32.27 32.27 0 0 0 .24 3.66l-1.06.25a12.85 12.85 0 0 1-.13-1.64 26.9 26.9 0 0 1 .05-2.82l.08-.87-1.77.56-.29-1ZM58.75 58.17a499.64 499.64 0 0 0-2.38.73l-.2.05-.08.02-.02-.06a45.8 45.8 0 0 1-.28-.87 10 10 0 0 0 .08-1.73 32.27 32.27 0 0 0-.23-3.66l1.06-.25a12.76 12.76 0 0 1 .13 1.64 26.85 26.85 0 0 1-.06 2.82l-.07.87 1.77-.56.28 1Z" fill="#000"/></g><g filter="url(#c)"><rect x="31.73" y="2.95" width="41.58" height="62.37" rx="3.2" fill="#fff"/><mask id="d" style="mask-type:alpha" maskUnits="userSpaceOnUse" x="32" y="4" width="40" height="60"><path d="M39.27 4.55h29.24a2.8 2.8 0 0 1 2.8 2.8v44.42c0 .86-.7 1.56-1.55 1.56-1.15 0-2.13.82-2.33 1.94l-.78 4.42c-.1.62.18 1.25.72 1.57.62.37.37 1.33-.36 1.34l-31.11.65a2.8 2.8 0 0 1-2.86-2.89l1.41-43.44c.04-1.1.94-1.98 2.04-1.98a2.84 2.84 0 0 0 2.84-2.83V8.6c0-.67-.32-1.3-.85-1.7a1.31 1.31 0 0 1 .8-2.36Z" fill="#C4C4C4" stroke="#000" stroke-width=".8"/></mask><g mask="url(#d)"><rect x="35.73" y="6.55" width="34.38" height="55.17" rx="2.8" stroke="#000" stroke-width=".8"/></g><path d="M54.83 37.33h-3.8c1.5-.98 1.77-1.78 1.9-3.35l-2.54 1.34c-1.39-1.03-1.46-1.62 0-2.69l2.53 1.35-1.26-3.36c.8-1.74 1.58-1.68 2.53 0l-1.27 3.36 2.86-1.35c1.1 1.05.86 1.64 0 2.69l-2.86-1.34c.23 1.57.56 2.35 1.9 3.35Z" fill="#000"/><path d="M52.92 33.98c-.12 1.57-.38 2.37-1.9 3.35h3.8c-1.34-1-1.67-1.78-1.9-3.35Zm0 0-2.53 1.34c-1.39-1.03-1.46-1.62 0-2.69l2.53 1.35Zm0 0 1.27-3.36c-.95-1.68-1.73-1.74-2.53 0l1.26 3.36Zm0 0 2.86-1.35c1.1 1.05.86 1.64 0 2.69l-2.86-1.34Z" stroke="#000" stroke-width=".8"/><path d="M43.02 16.54h-3.38c1.34-.78 1.58-1.42 1.69-2.68l-2.25 1.07c-1.24-.82-1.3-1.29 0-2.15l2.25 1.08-1.13-2.69c.72-1.4 1.41-1.34 2.26 0l-1.13 2.69 2.53-1.08c1 .84.77 1.31 0 2.15l-2.53-1.07c.2 1.26.5 1.88 1.69 2.68Z" fill="#000"/><path d="M41.33 13.86c-.1 1.26-.35 1.9-1.69 2.68h3.38c-1.2-.8-1.49-1.42-1.69-2.68Zm0 0-2.25 1.07c-1.24-.82-1.3-1.29 0-2.15l2.25 1.08Zm0 0 1.13-2.69c-.85-1.34-1.54-1.4-2.26 0l1.13 2.69Zm0 0 2.53-1.08c1 .84.77 1.31 0 2.15l-2.53-1.07Z" stroke="#000" stroke-width=".8"/><path d="M54.4 19.74h-2.95c1.17-.69 1.38-1.25 1.47-2.35l-1.97.94c-1.08-.72-1.13-1.13 0-1.88l1.97.94-.98-2.35c.62-1.22 1.23-1.17 1.97 0l-.99 2.35 2.22-.94c.87.74.67 1.15 0 1.88l-2.22-.94c.18 1.1.44 1.65 1.48 2.35Z" fill="#000"/><path d="M52.92 17.4c-.09 1.1-.3 1.65-1.47 2.34h2.95c-1.04-.7-1.3-1.24-1.48-2.35Zm0 0-1.97.93c-1.08-.72-1.13-1.13 0-1.88l1.97.94Zm0 0 .99-2.36c-.74-1.17-1.35-1.22-1.97 0l.98 2.35Zm0 0 2.22-.95c.87.74.67 1.15 0 1.88l-2.22-.94Z" stroke="#000" stroke-width=".8"/><path d="M46.4 25.34h-2.95c1.18-.69 1.38-1.25 1.48-2.35l-1.97.94c-1.08-.72-1.14-1.13 0-1.88l1.97.94-.99-2.35c.63-1.22 1.23-1.17 1.97 0L44.93 23l2.22-.94c.86.73.67 1.15 0 1.88l-2.22-.94c.18 1.1.43 1.65 1.48 2.35Z" fill="#000"/><path d="M44.93 22.99c-.1 1.1-.3 1.66-1.48 2.35h2.96c-1.05-.7-1.3-1.25-1.48-2.35Zm0 0-1.97.94c-1.08-.72-1.14-1.13 0-1.88l1.97.94Zm0 0 .98-2.35c-.74-1.17-1.34-1.22-1.97 0l.99 2.35Zm0 0 2.22-.94c.86.73.67 1.15 0 1.88l-2.22-.94Z" stroke="#000" stroke-width=".8"/><path d="M59.44 25.34h2.95c-1.17-.69-1.38-1.25-1.48-2.35l1.98.94c1.07-.72 1.13-1.13 0-1.88l-1.98.94.99-2.35c-.62-1.22-1.23-1.17-1.97 0L60.9 23l-2.21-.94c-.87.73-.68 1.15 0 1.88l2.21-.94c-.17 1.1-.43 1.65-1.47 2.35Z" fill="#000"/><path d="M60.91 22.99c.1 1.1.3 1.66 1.48 2.35h-2.95c1.04-.7 1.3-1.25 1.47-2.35Zm0 0 1.98.94c1.07-.72 1.13-1.13 0-1.88l-1.98.94Zm0 0-.98-2.35c.74-1.17 1.35-1.22 1.97 0L60.91 23Zm0 0-2.21-.94c-.87.73-.68 1.15 0 1.88l2.21-.94Z" stroke="#000" stroke-width=".8"/><path d="M46.4 32.54h-2.95c1.18-.7 1.38-1.25 1.48-2.35l-1.97.94c-1.08-.72-1.14-1.14 0-1.88l1.97.94-.99-2.35c.63-1.22 1.23-1.18 1.97 0l-.98 2.35 2.22-.94c.86.73.67 1.14 0 1.88l-2.22-.94c.18 1.1.43 1.64 1.48 2.35Z" fill="#000"/><path d="M44.93 30.19c-.1 1.1-.3 1.66-1.48 2.35h2.96c-1.05-.7-1.3-1.25-1.48-2.35Zm0 0-1.97.94c-1.08-.72-1.14-1.14 0-1.88l1.97.94Zm0 0 .98-2.35c-.74-1.18-1.34-1.22-1.97 0l.99 2.35Zm0 0 2.22-.94c.86.73.67 1.14 0 1.88l-2.22-.94Z" stroke="#000" stroke-width=".8"/><path d="M59.44 32.54h2.95c-1.17-.7-1.38-1.25-1.48-2.35l1.98.94c1.07-.72 1.13-1.14 0-1.88l-1.98.94.99-2.35c-.62-1.22-1.23-1.18-1.97 0l.98 2.35-2.21-.94c-.87.73-.68 1.14 0 1.88l2.21-.94c-.17 1.1-.43 1.64-1.47 2.35Z" fill="#000"/><path d="M60.91 30.19c.1 1.1.3 1.66 1.48 2.35h-2.95c1.04-.7 1.3-1.25 1.47-2.35Zm0 0 1.98.94c1.07-.72 1.13-1.14 0-1.88l-1.98.94Zm0 0-.98-2.35c.74-1.18 1.35-1.22 1.97 0l-.99 2.35Zm0 0-2.21-.94c-.87.73-.68 1.14 0 1.88l2.21-.94Z" stroke="#000" stroke-width=".8"/><path d="M54.4 48.53h-2.95c1.17.69 1.38 1.25 1.47 2.35l-1.97-.94c-1.08.72-1.13 1.13 0 1.88l1.97-.94-.98 2.35c.62 1.22 1.23 1.17 1.97 0l-.99-2.35 2.22.94c.87-.74.67-1.15 0-1.88l-2.22.94c.18-1.1.44-1.65 1.48-2.35Z" fill="#000"/><path d="M52.92 50.88c-.09-1.1-.3-1.66-1.47-2.35h2.95c-1.04.7-1.3 1.25-1.48 2.35Zm0 0-1.97-.94c-1.08.72-1.13 1.13 0 1.88l1.97-.94Zm0 0 .99 2.35c-.74 1.17-1.35 1.22-1.97 0l.98-2.35Zm0 0 2.22.94c.87-.74.67-1.15 0-1.88l-2.22.94Z" stroke="#000" stroke-width=".8"/><path d="M46.4 42.93h-2.95c1.18.69 1.38 1.25 1.48 2.35l-1.97-.94c-1.08.72-1.14 1.13 0 1.88l1.97-.94-.99 2.35c.63 1.22 1.23 1.17 1.97 0l-.98-2.35 2.22.94c.86-.73.67-1.15 0-1.88l-2.22.94c.18-1.1.43-1.65 1.48-2.35Z" fill="#000"/><path d="M44.93 45.28c-.1-1.1-.3-1.66-1.48-2.35h2.96c-1.05.7-1.3 1.25-1.48 2.35Zm0 0-1.97-.94c-1.08.72-1.14 1.13 0 1.88l1.97-.94Zm0 0 .98 2.35c-.74 1.17-1.34 1.22-1.97 0l.99-2.35Zm0 0 2.22.94c.86-.73.67-1.15 0-1.88l-2.22.94Z" stroke="#000" stroke-width=".8"/><path d="M59.44 42.93h2.95c-1.17.69-1.38 1.25-1.48 2.35l1.98-.94c1.07.72 1.13 1.13 0 1.88l-1.98-.94.99 2.35c-.62 1.22-1.23 1.17-1.97 0l.98-2.35-2.21.94c-.87-.73-.68-1.15 0-1.88l2.21.94c-.17-1.1-.43-1.65-1.47-2.35Z" fill="#000"/><path d="M60.91 45.28c.1-1.1.3-1.66 1.48-2.35h-2.95c1.04.7 1.3 1.25 1.47 2.35Zm0 0 1.98-.94c1.07.72 1.13 1.13 0 1.88l-1.98-.94Zm0 0-.98 2.35c.74 1.17 1.35 1.22 1.97 0l-.99-2.35Zm0 0-2.21.94c-.87-.73-.68-1.15 0-1.88l2.21.94Z" stroke="#000" stroke-width=".8"/><path d="M46.4 35.73h-2.95c1.18.7 1.38 1.25 1.48 2.35l-1.97-.94c-1.08.73-1.14 1.14 0 1.88l1.97-.94-.99 2.35c.63 1.22 1.23 1.18 1.97 0l-.98-2.35 2.22.94c.86-.73.67-1.14 0-1.88l-2.22.94c.18-1.1.43-1.64 1.48-2.35Z" fill="#000"/><path d="M44.93 38.08c-.1-1.1-.3-1.66-1.48-2.35h2.96c-1.05.7-1.3 1.25-1.48 2.35Zm0 0-1.97-.94c-1.08.73-1.14 1.14 0 1.88l1.97-.94Zm0 0 .98 2.35c-.74 1.18-1.34 1.22-1.97 0l.99-2.35Zm0 0 2.22.94c.86-.73.67-1.14 0-1.88l-2.22.94Z" stroke="#000" stroke-width=".8"/><path d="M59.44 35.73h2.95c-1.17.7-1.38 1.25-1.48 2.35l1.98-.94c1.07.73 1.13 1.14 0 1.88l-1.98-.94.99 2.35c-.62 1.22-1.23 1.18-1.97 0l.98-2.35-2.21.94c-.87-.73-.68-1.14 0-1.88l2.21.94c-.17-1.1-.43-1.64-1.47-2.35Z" fill="#000"/><path d="M60.91 38.08c.1-1.1.3-1.66 1.48-2.35h-2.95c1.04.7 1.3 1.25 1.47 2.35Zm0 0 1.98-.94c1.07.73 1.13 1.14 0 1.88l-1.98-.94Zm0 0-.98 2.35c.74 1.18 1.35 1.22 1.97 0l-.99-2.35Zm0 0-2.21.94c-.87-.73-.68-1.14 0-1.88l2.21.94Z" stroke="#000" stroke-width=".8"/><path d="M62.02 51.73h3.38c-1.34.78-1.58 1.42-1.69 2.68l2.26-1.07c1.23.82 1.3 1.3 0 2.15L63.7 54.4l1.13 2.69c-.71 1.4-1.4 1.34-2.25 0l1.12-2.69-2.53 1.08c-.99-.84-.77-1.31 0-2.15l2.53 1.07c-.2-1.26-.5-1.88-1.69-2.68Z" fill="#000"/><path d="M63.71 54.41c.11-1.26.35-1.9 1.7-2.68h-3.39c1.2.8 1.49 1.42 1.7 2.68Zm0 0 2.26-1.07c1.23.82 1.3 1.3 0 2.15L63.7 54.4Zm0 0L62.6 57.1c.84 1.34 1.54 1.4 2.25 0l-1.13-2.69Zm0 0-2.53 1.08c-.99-.84-.77-1.31 0-2.15l2.53 1.07Z" stroke="#000" stroke-width=".8"/><path d="m33.96 12.5-1.13.12a37.21 37.21 0 0 0 .03-1.2v-.6a36.99 36.99 0 0 0 .01-1.74l-.01-1.17-.34.59-.75-.64a10.02 10.02 0 0 1 .45-.61 27.33 27.33 0 0 1 .56-.78l1.09-.05a366.57 366.57 0 0 0-.04 1.6v.77a5.65 5.65 0 0 0 .01.44 33.78 33.78 0 0 0 .09 2.69c0 .2.02.4.03.59Zm4.44-3.03c0 .46-.04.88-.12 1.28-.08.39-.2.73-.35 1.02-.16.28-.36.51-.6.68-.24.16-.52.24-.85.24-.33 0-.62-.08-.86-.24-.24-.17-.44-.4-.6-.68a3.66 3.66 0 0 1-.35-1.02 6.85 6.85 0 0 1 0-2.55c.07-.39.19-.73.34-1.01.16-.3.35-.52.6-.68.24-.17.53-.25.87-.25.35 0 .65.08.89.25.24.16.44.39.6.68.14.28.25.62.32 1.01.07.4.1.82.1 1.27Zm-1.13 0c0-.45-.02-.83-.06-1.15a3.74 3.74 0 0 0-.16-.77c-.07-.2-.15-.34-.25-.43a.46.46 0 0 0-.32-.14c-.1 0-.2.06-.3.17-.1.1-.18.26-.26.47-.07.2-.13.47-.17.78a9.85 9.85 0 0 0 0 2.2c.03.32.09.58.16.78.06.2.15.35.24.45a.44.44 0 0 0 .64 0c.1-.08.18-.23.25-.42.08-.2.13-.46.17-.78.04-.31.06-.7.06-1.16ZM71.08 55.76l1.13-.1a37.19 37.19 0 0 0-.02 1.2l-.01.59a37 37 0 0 0-.01 1.74l.02 1.17.33-.58.75.63a9.71 9.71 0 0 1-.45.61 24.21 24.21 0 0 1-.56.78l-1.08.05.01-.55.01-.54.01-.52v-.76a5.48 5.48 0 0 0 0-.44 33.47 33.47 0 0 0-.1-2.69c0-.2-.02-.4-.03-.59Zm-4.43 3.04c0-.46.03-.88.11-1.28.08-.39.2-.73.35-1.02.16-.28.36-.51.6-.68.24-.16.53-.24.85-.24.33 0 .62.08.86.24.25.17.44.4.6.68.16.3.27.63.35 1.02a6.85 6.85 0 0 1 0 2.55c-.07.39-.19.73-.34 1.02-.15.28-.35.51-.6.67-.24.17-.53.25-.87.25-.35 0-.64-.08-.89-.25a1.8 1.8 0 0 1-.59-.67 3.43 3.43 0 0 1-.33-1.02 7.3 7.3 0 0 1-.1-1.27Zm1.12 0c0 .45.02.83.06 1.15.04.31.1.57.16.77.07.2.15.34.25.43.1.1.2.14.32.14.11 0 .21-.06.3-.17.1-.1.19-.26.26-.47.07-.2.13-.47.17-.78a9.85 9.85 0 0 0 0-2.2 3.92 3.92 0 0 0-.15-.78c-.07-.2-.15-.35-.25-.45a.46.46 0 0 0-.33-.14.44.44 0 0 0-.3.13c-.1.1-.19.24-.26.43-.07.2-.13.46-.17.78-.04.31-.06.7-.06 1.16Z" fill="#000"/></g><g filter="url(#e)"><rect x="61.78" y="2.54" width="41.58" height="62.37" rx="3.2" transform="rotate(13.73 61.78 2.54)" fill="#fff"/><mask id="f" style="mask-type:alpha" maskUnits="userSpaceOnUse" x="48" y="5" width="52" height="65"><path d="m68.73 5.89 28.4 6.94a2.8 2.8 0 0 1 2.06 3.38L89.12 57.43c-.15.61-.77 1-1.4.84-.88-.22-1.8.22-2.2 1.04l-3.23 6.62c-.29.58-.17 1.28.3 1.74.5.5.03 1.36-.66 1.2l-30.4-6.76a2.8 2.8 0 0 1-2.1-3.49l11.1-39.53A2.04 2.04 0 0 1 63 17.66a2.84 2.84 0 0 0 3.43-2.09l1.4-5.73c.16-.65 0-1.33-.42-1.84-.8-.98.1-2.41 1.33-2.11Z" fill="#C4C4C4" stroke="#000" stroke-width=".8"/></mask><g mask="url(#f)"><rect x="64.81" y="6.99" width="34.38" height="55.17" rx="2.8" transform="rotate(13.73 64.81 6.99)" stroke="#000" stroke-width=".8"/></g><path d="m76.94 44.93-6.98-1.7c3.2-1.04 4.03-2.32 4.93-5.02l-5.23 1.21c-2.1-2.42-1.98-3.48 1.15-4.69l4.08 3.48-.9-6.43c2.22-2.7 3.63-2.23 4.65 1.13l-3.75 5.3 5.8-1.07c1.6 2.34.89 3.25-1.15 4.7L74.9 38.2c-.25 2.86.02 4.37 2.05 6.72Z" fill="#000"/><path d="M74.89 38.21c-.9 2.7-1.73 3.98-4.93 5.02l6.98 1.7c-2.03-2.35-2.3-3.86-2.05-6.72Zm0 0-5.23 1.21c-2.1-2.42-1.98-3.48 1.15-4.69l4.08 3.48Zm0 0 3.75-5.3c-1.02-3.36-2.43-3.82-4.65-1.13l.9 6.43Zm0 0 5.8-1.07c1.6 2.34.89 3.25-1.15 4.7L74.9 38.2Z" stroke="#000" stroke-width=".8"/><path d="m69.71 17.65-3.28-.8c1.49-.45 1.87-1.01 2.28-2.2l-2.45.5c-1-1.1-.95-1.56.51-2.09l1.94 1.58-.46-2.87c1.02-1.19 1.69-.97 2.19.53l-1.73 2.34 2.71-.44c.76 1.05.44 1.45-.5 2.09l-2.21-1.65c-.1 1.27.03 1.95 1 3.01Z" fill="#000"/><path d="M68.7 14.64c-.4 1.2-.78 1.76-2.27 2.2l3.28.81c-.97-1.06-1.1-1.74-1-3Zm0 0-2.44.51c-1-1.1-.95-1.56.51-2.09l1.94 1.58Zm0 0 1.74-2.34c-.5-1.5-1.17-1.72-2.2-.53l.47 2.87Zm0 0 2.72-.44c.76 1.05.44 1.45-.5 2.09l-2.21-1.65Z" stroke="#000" stroke-width=".8"/><path d="m79.44 57.9 3.29.8c-1.5.44-1.88 1-2.28 2.2l2.44-.5c1 1.09.95 1.56-.51 2.08l-1.93-1.58.45 2.88c-1.02 1.18-1.68.97-2.18-.54l1.73-2.34-2.72.44c-.76-1.05-.44-1.45.51-2.08l2.2 1.64c.1-1.27-.03-1.95-1-3Z" fill="#000"/><path d="M80.45 60.9c.4-1.2.78-1.76 2.28-2.2l-3.29-.8c.97 1.05 1.1 1.73 1 3Zm0 0 2.44-.5c1 1.09.95 1.56-.51 2.08l-1.93-1.58Zm0 0-1.73 2.34c.5 1.5 1.16 1.72 2.18.54l-.45-2.88Zm0 0-2.72.44c-.76-1.05-.44-1.45.51-2.08l2.2 1.64Z" stroke="#000" stroke-width=".8"/><path d="M60.7 12.78a61.94 61.94 0 0 0 .32-1.53l.15-.78a21.34 21.34 0 0 1 .4-1.64 6.81 6.81 0 0 1 .72-1.5c.15-.22.32-.4.51-.54a1.66 1.66 0 0 1 1.44-.25c.27.07.5.17.68.31.19.14.33.3.44.48.1.2.18.4.22.62a5.42 5.42 0 0 1-.02 1.48 10.26 10.26 0 0 1-.4 1.61 638.4 638.4 0 0 1-.33 1.13 1407.42 1407.42 0 0 0-.62 2.22l-1.47-.41a33.74 33.74 0 0 0 .8-2.12 9.37 9.37 0 0 0-1.28-.32 49.72 49.72 0 0 0-.34 2.28l-1.41-.3a7 7 0 0 0 .2-.74Zm1.75-2.3.3.09.27.07c.36.08.64.14.86.17l.23-.69c.08-.23.15-.48.22-.75.14-.57.19-1.01.14-1.34-.04-.32-.18-.52-.4-.57a.54.54 0 0 0-.38.05c-.13.06-.25.18-.38.34-.12.17-.24.39-.35.66a7 7 0 0 0-.4 1.42l-.1.56ZM88.45 62.77l-.17.76-.15.77-.15.78a21.56 21.56 0 0 1-.4 1.63 6.82 6.82 0 0 1-.72 1.51 2.2 2.2 0 0 1-.5.53 1.66 1.66 0 0 1-1.44.25c-.28-.07-.51-.17-.7-.3a1.86 1.86 0 0 1-.65-1.1 5.42 5.42 0 0 1 .02-1.48 10.27 10.27 0 0 1 .4-1.62c.04-.12.1-.27.15-.46a1105.51 1105.51 0 0 1 .8-2.9l1.47.42a33.64 33.64 0 0 0-.8 2.12 9.4 9.4 0 0 0 1.28.32 51.27 51.27 0 0 0 .35-2.28l1.4.3a7.02 7.02 0 0 0-.2.75Zm-1.75 2.29-.29-.08-.28-.07a9.95 9.95 0 0 0-.86-.18l-.23.7c-.08.22-.15.47-.22.74a3.76 3.76 0 0 0-.14 1.34c.05.33.18.52.4.58.13.03.26.01.38-.05.13-.07.26-.18.38-.35.12-.17.24-.38.35-.66a6.98 6.98 0 0 0 .41-1.42l.1-.55Z" fill="#000"/></g><defs><filter id="a" x="-.39" y=".95" width="67.1" height="81.48" filterUnits="userSpaceOnUse" color-interpolation-filters="sRGB"><feFlood flood-opacity="0" result="BackgroundImageFix"/><feColorMatrix in="SourceAlpha" values="0 0 0 0 0 0 0 0 0 0 0 0 0 0 0 0 0 0 127 0" result="hardAlpha"/><feOffset dy="5.09"/><feGaussianBlur stdDeviation="2.54"/><feColorMatrix values="0 0 0 0 0 0 0 0 0 0 0 0 0 0 0 0 0 0 0.25 0"/><feBlend in2="BackgroundImageFix" result="effect1_dropShadow_1504_9290"/><feBlend in="SourceGraphic" in2="effect1_dropShadow_1504_9290" result="shape"/></filter><filter id="c" x="26.65" y="2.95" width="51.75" height="72.54" filterUnits="userSpaceOnUse" color-interpolation-filters="sRGB"><feFlood flood-opacity="0" result="BackgroundImageFix"/><feColorMatrix in="SourceAlpha" values="0 0 0 0 0 0 0 0 0 0 0 0 0 0 0 0 0 0 127 0" result="hardAlpha"/><feOffset dy="5.09"/><feGaussianBlur stdDeviation="2.54"/><feColorMatrix values="0 0 0 0 0 0 0 0 0 0 0 0 0 0 0 0 0 0 0.25 0"/><feBlend in2="BackgroundImageFix" result="effect1_dropShadow_1504_9290"/><feBlend in="SourceGraphic" in2="effect1_dropShadow_1504_9290" result="shape"/></filter><filter id="e" x="41.89" y="2.54" width="65.37" height="80.63" filterUnits="userSpaceOnUse" color-interpolation-filters="sRGB"><feFlood flood-opacity="0" result="BackgroundImageFix"/><feColorMatrix in="SourceAlpha" values="0 0 0 0 0 0 0 0 0 0 0 0 0 0 0 0 0 0 127 0" result="hardAlpha"/><feOffset dy="5.09"/><feGaussianBlur stdDeviation="2.54"/><feColorMatrix values="0 0 0 0 0 0 0 0 0 0 0 0 0 0 0 0 0 0 0.25 0"/><feBlend in2="BackgroundImageFix" result="effect1_dropShadow_1504_9290"/><feBlend in="SourceGraphic" in2="effect1_dropShadow_1504_9290" result="shape"/></filter></defs></svg>