<svg width="128" height="30" viewBox="0 0 128 30" fill="none" xmlns="http://www.w3.org/2000/svg">
<mask id="path-1-outside-1_1598_9504" maskUnits="userSpaceOnUse" x="-0.09375" y="-0.269531" width="128" height="31" fill="black">
<rect fill="white" x="-0.09375" y="-0.269531" width="128" height="31"/>
<path d="M9.88281 20.8828L6.78906 21.1875C6.80469 20.6641 6.81641 20.125 6.82422 19.5703C6.83984 19.0078 6.85156 18.4531 6.85938 17.9062C6.86719 17.3516 6.875 16.8125 6.88281 16.2891C6.89062 15.7578 6.89453 15.2578 6.89453 14.7891C6.90234 13.6797 6.90625 12.5977 6.90625 11.543V8.85938L5.94531 9.9375L3.90625 8.20312C4 8.07031 4.11328 7.91406 4.24609 7.73438C4.37891 7.55469 4.51953 7.36328 4.66797 7.16016C4.81641 6.95703 4.96875 6.75 5.125 6.53906C5.28125 6.32031 5.43359 6.10938 5.58203 5.90625C5.92578 5.42969 6.28516 4.93359 6.66016 4.41797L9.61328 4.27734C9.59766 4.76172 9.58203 5.25781 9.56641 5.76562C9.55859 6.26562 9.55078 6.76172 9.54297 7.25391C9.53516 7.73828 9.52734 8.20703 9.51953 8.66016C9.51953 9.11328 9.51953 9.53125 9.51953 9.91406C9.51953 10.2188 9.51953 10.4961 9.51953 10.7461C9.51953 10.9961 9.52344 11.2109 9.53125 11.3906C9.53125 11.6016 9.53516 11.7891 9.54297 11.9531C9.54297 12.8594 9.55859 13.8125 9.58984 14.8125C9.59766 15.2344 9.60938 15.6914 9.625 16.1836C9.64844 16.668 9.67188 17.1719 9.69531 17.6953C9.71875 18.2109 9.74609 18.7383 9.77734 19.2773C9.80859 19.8164 9.84375 20.3516 9.88281 20.8828Z"/>
<path d="M22.9366 12.5977C22.9366 13.8477 22.8311 15.0078 22.6202 16.0781C22.4092 17.1484 22.0889 18.0781 21.6592 18.8672C21.2295 19.6484 20.6866 20.2656 20.0303 20.7188C19.3741 21.1641 18.6006 21.3867 17.71 21.3867C16.8038 21.3867 16.0186 21.1641 15.3545 20.7188C14.6983 20.2656 14.1553 19.6484 13.7256 18.8672C13.3038 18.0781 12.9873 17.1484 12.7764 16.0781C12.5733 15.0078 12.4717 13.8477 12.4717 12.5977C12.4717 11.3555 12.5694 10.2031 12.7647 9.14062C12.9678 8.07031 13.2803 7.14453 13.7022 6.36328C14.1241 5.57422 14.6631 4.95703 15.3194 4.51172C15.9834 4.06641 16.7803 3.84375 17.71 3.84375C18.6631 3.84375 19.4717 4.06641 20.1358 4.51172C20.7998 4.95703 21.3389 5.57422 21.753 6.36328C22.167 7.14453 22.4678 8.07031 22.6553 9.14062C22.8428 10.2031 22.9366 11.3555 22.9366 12.5977ZM19.8663 12.5977C19.8663 11.3711 19.8116 10.3281 19.7022 9.46875C19.6006 8.60156 19.4561 7.89844 19.2686 7.35938C19.0811 6.82031 18.8545 6.42969 18.5889 6.1875C18.3233 5.9375 18.0303 5.8125 17.71 5.8125C17.4131 5.8125 17.1358 5.96094 16.878 6.25781C16.6202 6.54688 16.3897 6.97656 16.1866 7.54688C15.9913 8.11719 15.835 8.82812 15.7178 9.67969C15.6084 10.5234 15.5538 11.4961 15.5538 12.5977C15.5538 13.8008 15.6045 14.832 15.7061 15.6914C15.8077 16.5508 15.9522 17.2578 16.1397 17.8125C16.3272 18.3594 16.5538 18.7656 16.8194 19.0312C17.085 19.2891 17.3819 19.418 17.71 19.418C18.0147 19.418 18.2959 19.2969 18.5538 19.0547C18.8194 18.8125 19.0498 18.4219 19.2452 17.8828C19.4405 17.3438 19.5928 16.6406 19.7022 15.7734C19.8116 14.9062 19.8663 13.8477 19.8663 12.5977Z"/>
<path d="M28.6778 10.6992C28.6778 10.9102 28.6348 11.1094 28.5489 11.2969C28.4708 11.4844 28.3614 11.6484 28.2208 11.7891C28.088 11.9219 27.9278 12.0312 27.7403 12.1172C27.5528 12.1953 27.3536 12.2344 27.1427 12.2344C26.9239 12.2344 26.7208 12.1953 26.5333 12.1172C26.3458 12.0312 26.1817 11.9219 26.0411 11.7891C25.9005 11.6484 25.7872 11.4844 25.7013 11.2969C25.6231 11.1094 25.5841 10.9102 25.5841 10.6992C25.5841 10.4883 25.6231 10.2891 25.7013 10.1016C25.7872 9.90625 25.9005 9.73828 26.0411 9.59766C26.1817 9.45703 26.3458 9.34766 26.5333 9.26953C26.7208 9.18359 26.9239 9.14062 27.1427 9.14062C27.3536 9.14062 27.5528 9.18359 27.7403 9.26953C27.9278 9.34766 28.088 9.45703 28.2208 9.59766C28.3614 9.73828 28.4708 9.90625 28.5489 10.1016C28.6348 10.2891 28.6778 10.4883 28.6778 10.6992ZM28.6778 19.8984C28.6778 20.1094 28.6348 20.3086 28.5489 20.4961C28.4708 20.6758 28.3614 20.8359 28.2208 20.9766C28.088 21.1172 27.9278 21.2266 27.7403 21.3047C27.5528 21.3906 27.3536 21.4336 27.1427 21.4336C26.9239 21.4336 26.7208 21.3906 26.5333 21.3047C26.3458 21.2266 26.1817 21.1172 26.0411 20.9766C25.9005 20.8359 25.7872 20.6758 25.7013 20.4961C25.6231 20.3086 25.5841 20.1094 25.5841 19.8984C25.5841 19.6797 25.6231 19.4766 25.7013 19.2891C25.7872 19.1016 25.9005 18.9375 26.0411 18.7969C26.1817 18.6562 26.3458 18.5469 26.5333 18.4688C26.7208 18.3828 26.9239 18.3398 27.1427 18.3398C27.3536 18.3398 27.5528 18.3828 27.7403 18.4688C27.9278 18.5469 28.088 18.6562 28.2208 18.7969C28.3614 18.9375 28.4708 19.1016 28.5489 19.2891C28.6348 19.4766 28.6778 19.6797 28.6778 19.8984Z"/>
<path d="M44.6134 21.2109C44.4494 20.9844 44.3244 20.7305 44.2384 20.4492C44.1603 20.168 44.1017 19.9023 44.0627 19.6523C44.0236 19.3945 44.0002 19.1719 43.9923 18.9844C43.9923 18.7969 43.9923 18.6836 43.9923 18.6445C43.9923 18.3945 43.9806 18.0977 43.9572 17.7539C43.9416 17.4023 43.8986 17.043 43.8283 16.6758C43.758 16.3008 43.6564 15.9336 43.5236 15.5742C43.3986 15.207 43.2228 14.8789 42.9963 14.5898C42.7775 14.3008 42.5041 14.0703 42.1759 13.8984C41.8556 13.7188 41.4689 13.6289 41.0158 13.6289C40.9533 13.6289 40.8869 13.6328 40.8166 13.6406C40.7541 13.6484 40.6916 13.6523 40.6291 13.6523V20.9531L37.3947 21.0234C37.4416 20.75 37.4806 20.4297 37.5119 20.0625C37.5509 19.6875 37.5822 19.293 37.6056 18.8789C37.6291 18.457 37.6486 18.0195 37.6642 17.5664C37.6798 17.1133 37.6916 16.668 37.6994 16.2305C37.7072 15.793 37.7111 15.3711 37.7111 14.9648C37.7189 14.5508 37.7228 14.1797 37.7228 13.8516C37.7228 13.6016 37.7189 13.2344 37.7111 12.75C37.7111 12.2656 37.7033 11.7227 37.6877 11.1211C37.6798 10.5117 37.6681 9.875 37.6525 9.21094C37.6447 8.53906 37.633 7.89844 37.6173 7.28906C37.6017 6.67188 37.5822 6.11328 37.5588 5.61328C37.5431 5.10547 37.5275 4.71484 37.5119 4.44141C37.9416 4.35547 38.4025 4.29297 38.8947 4.25391C39.3869 4.20703 39.8439 4.17188 40.2658 4.14844C40.758 4.11719 41.2463 4.10156 41.7306 4.10156C42.5119 4.07031 43.2463 4.13672 43.9338 4.30078C44.6213 4.45703 45.2228 4.72656 45.7384 5.10938C46.2619 5.48438 46.6759 5.97266 46.9806 6.57422C47.2931 7.16797 47.4572 7.87891 47.4728 8.70703C47.3478 9.29297 47.1486 9.83594 46.8752 10.3359C46.758 10.5469 46.6173 10.7656 46.4533 10.9922C46.297 11.2109 46.1095 11.418 45.8908 11.6133C45.6798 11.8086 45.4377 11.9883 45.1642 12.1523C44.8908 12.3086 44.5861 12.4336 44.2502 12.5273C44.7502 12.7227 45.1564 12.9531 45.4689 13.2188C45.7814 13.4766 46.0275 13.7695 46.2072 14.0977C46.3869 14.418 46.5158 14.7656 46.5939 15.1406C46.6798 15.5078 46.7384 15.8984 46.7697 16.3125C46.8088 16.7188 46.84 17.1406 46.8634 17.5781C46.8869 18.0078 46.9298 18.4453 46.9923 18.8906C47.0548 19.2266 47.133 19.5469 47.2267 19.8516C47.3127 20.1172 47.4181 20.3867 47.5431 20.6602C47.6759 20.9258 47.8361 21.1445 48.0236 21.3164L44.6134 21.2109ZM44.4963 8.85938C44.4884 8.35938 44.3791 7.91016 44.1681 7.51172C44.0744 7.34766 43.9533 7.18359 43.8048 7.01953C43.6642 6.85547 43.4845 6.71094 43.2658 6.58594C43.0548 6.46094 42.797 6.35938 42.4923 6.28125C42.1955 6.20312 41.8478 6.16406 41.4494 6.16406C41.1447 6.16406 40.8088 6.20703 40.4416 6.29297L40.4884 11.5898C40.6291 11.6133 40.7697 11.6328 40.9103 11.6484C41.0509 11.6562 41.1798 11.6602 41.297 11.6602C41.672 11.6602 42.0041 11.6211 42.2931 11.543C42.5822 11.4648 42.8361 11.3594 43.0548 11.2266C43.2736 11.0938 43.4611 10.9453 43.6173 10.7812C43.7736 10.6172 43.9064 10.4453 44.0158 10.2656C44.2658 9.85156 44.4259 9.38281 44.4963 8.85938Z"/>
<path d="M58.0891 18.4805C58.0891 18.9414 57.9836 19.375 57.7727 19.7812C57.5617 20.1875 57.2766 20.5391 56.9172 20.8359C56.5578 21.1328 56.1359 21.3672 55.6516 21.5391C55.1672 21.7109 54.6516 21.7969 54.1047 21.7969C53.7375 21.7969 53.3664 21.7461 52.9914 21.6445C52.6164 21.543 52.257 21.375 51.9133 21.1406C51.5695 20.9062 51.2453 20.5977 50.9406 20.2148C50.6359 19.832 50.3703 19.3633 50.1437 18.8086C49.925 18.2539 49.7492 17.6055 49.6164 16.8633C49.4914 16.1133 49.4289 15.2539 49.4289 14.2852C49.4289 13.3711 49.4914 12.5625 49.6164 11.8594C49.7492 11.1562 49.925 10.543 50.1437 10.0195C50.3703 9.49609 50.632 9.05859 50.9289 8.70703C51.2258 8.34766 51.5422 8.05859 51.8781 7.83984C52.2219 7.61328 52.5734 7.45312 52.9328 7.35938C53.3 7.26562 53.6594 7.21875 54.0109 7.21875C54.5344 7.21875 55.0305 7.30469 55.4992 7.47656C55.968 7.64062 56.3781 7.88672 56.7297 8.21484C57.0812 8.54297 57.3586 8.94922 57.5617 9.43359C57.7727 9.91016 57.8781 10.4609 57.8781 11.0859C57.8781 11.6484 57.7609 12.2188 57.5266 12.7969C57.3 13.3672 56.9602 13.9102 56.507 14.4258C56.0539 14.9336 55.4914 15.3984 54.8195 15.8203C54.1555 16.2344 53.3898 16.5625 52.5227 16.8047C52.5695 17.2891 52.6359 17.7305 52.7219 18.1289C52.8156 18.5273 52.9289 18.8672 53.0617 19.1484C53.2023 19.4297 53.3625 19.6484 53.5422 19.8047C53.7297 19.9609 53.9445 20.0391 54.1867 20.0391C54.343 20.0312 54.4914 20.0039 54.632 19.957C54.757 19.918 54.882 19.8555 55.007 19.7695C55.1398 19.6836 55.2492 19.5586 55.3352 19.3945C55.132 19.3008 54.9758 19.1797 54.8664 19.0312C54.757 18.8828 54.675 18.7422 54.6203 18.6094C54.5578 18.4531 54.5227 18.2891 54.5148 18.1172C54.5148 17.7422 54.5891 17.4375 54.7375 17.2031C54.8859 16.9688 55.0617 16.7852 55.2648 16.6523C55.468 16.5195 55.675 16.4297 55.8859 16.3828C56.0969 16.3281 56.2648 16.3008 56.3898 16.3008C56.5227 16.3008 56.6828 16.3281 56.8703 16.3828C57.0656 16.4375 57.2531 16.543 57.4328 16.6992C57.6125 16.8555 57.7648 17.0781 57.8898 17.3672C58.0227 17.6484 58.0891 18.0195 58.0891 18.4805ZM55.1945 11.1094C55.1945 10.8281 55.1672 10.5625 55.1125 10.3125C55.0656 10.0547 54.9914 9.83203 54.8898 9.64453C54.7961 9.45703 54.675 9.30859 54.5266 9.19922C54.3859 9.08203 54.2219 9.02344 54.0344 9.02344C53.7141 9.02344 53.4523 9.17188 53.2492 9.46875C53.0461 9.75781 52.882 10.1445 52.757 10.6289C52.632 11.1133 52.5461 11.6719 52.4992 12.3047C52.4523 12.9375 52.4289 13.5977 52.4289 14.2852V15.1406C52.8273 14.9297 53.1945 14.6797 53.5305 14.3906C53.8742 14.1016 54.1672 13.7852 54.4094 13.4414C54.6594 13.0898 54.8508 12.7188 54.9836 12.3281C55.1242 11.9375 55.1945 11.5312 55.1945 11.1094Z"/>
<path d="M68.9045 11.0391C68.9045 11.5781 68.8303 12.0078 68.6819 12.3281C68.5412 12.6406 68.3694 12.8789 68.1662 13.043C67.9709 13.1992 67.7678 13.3008 67.5569 13.3477C67.3537 13.3945 67.1858 13.418 67.053 13.418C66.9202 13.418 66.76 13.3984 66.5725 13.3594C66.385 13.3125 66.2014 13.2266 66.0217 13.1016C65.8498 12.9688 65.7014 12.7852 65.5764 12.5508C65.4592 12.3086 65.4006 11.9961 65.4006 11.6133C65.4084 11.4023 65.4475 11.1953 65.5178 10.9922C65.5803 10.8203 65.6741 10.6445 65.7991 10.4648C65.9241 10.2852 66.1037 10.1328 66.3381 10.0078C66.2053 9.71094 66.0569 9.48438 65.8928 9.32812C65.7366 9.17188 65.5842 9.05469 65.4358 8.97656C65.2639 8.89062 65.092 8.83594 64.9202 8.8125C64.6311 8.8125 64.3694 8.94531 64.135 9.21094C63.9006 9.47656 63.7014 9.85156 63.5373 10.3359C63.3733 10.8125 63.2444 11.3867 63.1506 12.0586C63.0647 12.7305 63.0217 13.4727 63.0217 14.2852C63.0217 15.0898 63.0491 15.8438 63.1037 16.5469C63.1662 17.2422 63.2639 17.8516 63.3967 18.375C63.5295 18.8906 63.7092 19.2969 63.9358 19.5938C64.1623 19.8906 64.4436 20.0391 64.7795 20.0391C64.9592 20.0312 65.1389 19.9883 65.3186 19.9102C65.4748 19.8477 65.6389 19.7461 65.8108 19.6055C65.9905 19.457 66.1506 19.25 66.2912 18.9844C66.0178 18.8516 65.8069 18.6914 65.6584 18.5039C65.5178 18.3086 65.4162 18.1211 65.3537 17.9414C65.2756 17.7305 65.2327 17.5117 65.2248 17.2852C65.2248 16.9102 65.2991 16.6055 65.4475 16.3711C65.5959 16.1367 65.7717 15.9531 65.9748 15.8203C66.178 15.6797 66.385 15.5859 66.5959 15.5391C66.8069 15.4844 66.9748 15.457 67.0998 15.457C67.2327 15.457 67.3967 15.4844 67.592 15.5391C67.7873 15.5938 67.9748 15.6992 68.1545 15.8555C68.3342 16.0117 68.4866 16.2344 68.6116 16.5234C68.7444 16.8047 68.8108 17.1758 68.8108 17.6367C68.8108 18.0977 68.6975 18.5742 68.4709 19.0664C68.2522 19.5586 67.9514 20.0078 67.5686 20.4141C67.1936 20.8203 66.7561 21.1523 66.2561 21.4102C65.7639 21.668 65.2444 21.7969 64.6975 21.7969C64.3303 21.7969 63.9592 21.7461 63.5842 21.6445C63.2092 21.543 62.8498 21.375 62.5061 21.1406C62.1623 20.9062 61.8381 20.5977 61.5334 20.2148C61.2287 19.832 60.9631 19.3633 60.7366 18.8086C60.5178 18.2539 60.342 17.6055 60.2092 16.8633C60.0842 16.1133 60.0217 15.2539 60.0217 14.2852C60.0217 13.3164 60.092 12.4688 60.2327 11.7422C60.3733 11.0078 60.5647 10.3789 60.8069 9.85547C61.0569 9.33203 61.342 8.89844 61.6623 8.55469C61.9827 8.21094 62.3225 7.9375 62.6819 7.73438C63.0491 7.53125 63.4241 7.39062 63.8069 7.3125C64.1897 7.23438 64.5608 7.19531 64.9202 7.19531C65.4514 7.19531 65.9592 7.29688 66.4436 7.5C66.928 7.69531 67.3498 7.96875 67.7092 8.32031C68.0764 8.66406 68.3655 9.07031 68.5764 9.53906C68.7952 10.0078 68.9045 10.5078 68.9045 11.0391Z"/>
<path d="M80.1184 8.35547C80.0716 8.81641 80.0325 9.28516 80.0013 9.76172C79.97 10.2305 79.9388 10.6992 79.9075 11.168C79.8841 11.6367 79.8606 12.0938 79.8372 12.5391C79.8138 12.9766 79.7942 13.3945 79.7786 13.793C79.7395 14.7227 79.7083 15.6211 79.6848 16.4883C79.638 17.4102 79.6106 18.3242 79.6028 19.2305C79.6028 20.1289 79.5755 20.9844 79.5208 21.7969C79.4661 22.6172 79.3606 23.375 79.2044 24.0703C79.0559 24.7734 78.8098 25.3789 78.4661 25.8867C78.1223 26.4023 77.6575 26.8047 77.0716 27.0938C76.4934 27.3828 75.7473 27.5273 74.8333 27.5273C74.1458 27.5273 73.595 27.4258 73.1809 27.2227C72.7747 27.0273 72.4622 26.7852 72.2434 26.4961C72.0247 26.2148 71.8802 25.9141 71.8098 25.5938C71.7473 25.2734 71.7161 24.9883 71.7161 24.7383C71.7161 24.4727 71.7552 24.2227 71.8333 23.9883C71.9192 23.7617 72.0364 23.5625 72.1848 23.3906C72.3333 23.2188 72.513 23.082 72.7239 22.9805C72.9427 22.8789 73.1888 22.8281 73.4622 22.8281C73.7513 22.8281 74.0091 22.8828 74.2356 22.9922C74.4622 23.1016 74.6497 23.2422 74.7981 23.4141C74.9544 23.5938 75.0716 23.793 75.1497 24.0117C75.2278 24.2305 75.2669 24.4492 75.2669 24.668C75.2591 24.793 75.2317 24.9219 75.1848 25.0547C75.1458 25.1641 75.0755 25.2852 74.9739 25.418C74.8802 25.5586 74.7473 25.6953 74.5755 25.8281C74.6692 25.8672 74.7552 25.8906 74.8333 25.8984C74.9192 25.9141 75.0013 25.9219 75.0794 25.9219C75.2825 25.9219 75.4934 25.8594 75.7122 25.7344C75.9388 25.6172 76.1458 25.4297 76.3333 25.1719C76.5208 24.9141 76.677 24.5898 76.802 24.1992C76.927 23.8086 76.9973 23.3438 77.013 22.8047C77.013 22.2188 77.013 21.6445 77.013 21.082C77.0208 20.5195 77.0325 19.8984 77.0481 19.2188C76.7825 19.7266 76.4973 20.1211 76.1927 20.4023C75.888 20.6758 75.5989 20.8789 75.3255 21.0117C75.013 21.168 74.6966 21.2617 74.3763 21.293C73.7981 21.293 73.2942 21.1484 72.8645 20.8594C72.4348 20.5703 72.0794 20.1602 71.7981 19.6289C71.5169 19.0977 71.3059 18.4609 71.1653 17.7188C71.0325 16.9688 70.9661 16.1328 70.9661 15.2109C70.9661 12.6562 71.1419 10.2188 71.4934 7.89844L74.47 8.22656C74.4075 8.48438 74.345 8.76562 74.2825 9.07031C74.2278 9.375 74.177 9.69141 74.1302 10.0195C74.0833 10.3477 74.0403 10.6797 74.0013 11.0156C73.97 11.3438 73.9388 11.6602 73.9075 11.9648C73.8372 12.6836 73.7786 13.4141 73.7317 14.1562C73.7317 14.8984 73.7552 15.5469 73.802 16.1016C73.8489 16.6484 73.9309 17.1055 74.0481 17.4727C74.1731 17.832 74.3411 18.1016 74.552 18.2812C74.763 18.4609 75.0325 18.5508 75.3606 18.5508C75.595 18.5117 75.8216 18.3477 76.0403 18.0586C76.1341 17.9336 76.2317 17.7773 76.3333 17.5898C76.4348 17.4023 76.5364 17.1719 76.638 16.8984C76.7395 16.625 76.8372 16.3047 76.9309 15.9375C77.0247 15.5625 77.1106 15.1289 77.1888 14.6367C77.2122 14.0273 77.2278 13.4727 77.2356 12.9727C77.2513 12.4648 77.2591 11.9805 77.2591 11.5195C77.2591 10.9648 77.2473 10.4336 77.2239 9.92578C77.2005 9.41016 77.1653 8.87109 77.1184 8.30859L80.1184 8.35547Z"/>
<path d="M91.1683 11.0391C91.1683 11.5781 91.0941 12.0078 90.9456 12.3281C90.805 12.6406 90.6331 12.8789 90.43 13.043C90.2347 13.1992 90.0316 13.3008 89.8206 13.3477C89.6175 13.3945 89.4495 13.418 89.3167 13.418C89.1839 13.418 89.0238 13.3984 88.8363 13.3594C88.6488 13.3125 88.4652 13.2266 88.2855 13.1016C88.1136 12.9688 87.9652 12.7852 87.8402 12.5508C87.723 12.3086 87.6644 11.9961 87.6644 11.6133C87.6722 11.4023 87.7113 11.1953 87.7816 10.9922C87.8441 10.8203 87.9378 10.6445 88.0628 10.4648C88.1878 10.2852 88.3675 10.1328 88.6019 10.0078C88.4691 9.71094 88.3206 9.48438 88.1566 9.32812C88.0003 9.17188 87.848 9.05469 87.6995 8.97656C87.5277 8.89062 87.3558 8.83594 87.1839 8.8125C86.8948 8.8125 86.6331 8.94531 86.3988 9.21094C86.1644 9.47656 85.9652 9.85156 85.8011 10.3359C85.637 10.8125 85.5081 11.3867 85.4144 12.0586C85.3284 12.7305 85.2855 13.4727 85.2855 14.2852C85.2855 15.0898 85.3128 15.8438 85.3675 16.5469C85.43 17.2422 85.5277 17.8516 85.6605 18.375C85.7933 18.8906 85.973 19.2969 86.1995 19.5938C86.4261 19.8906 86.7073 20.0391 87.0433 20.0391C87.223 20.0312 87.4027 19.9883 87.5823 19.9102C87.7386 19.8477 87.9027 19.7461 88.0745 19.6055C88.2542 19.457 88.4144 19.25 88.555 18.9844C88.2816 18.8516 88.0706 18.6914 87.9222 18.5039C87.7816 18.3086 87.68 18.1211 87.6175 17.9414C87.5394 17.7305 87.4964 17.5117 87.4886 17.2852C87.4886 16.9102 87.5628 16.6055 87.7113 16.3711C87.8597 16.1367 88.0355 15.9531 88.2386 15.8203C88.4417 15.6797 88.6488 15.5859 88.8597 15.5391C89.0706 15.4844 89.2386 15.457 89.3636 15.457C89.4964 15.457 89.6605 15.4844 89.8558 15.5391C90.0511 15.5938 90.2386 15.6992 90.4183 15.8555C90.598 16.0117 90.7503 16.2344 90.8753 16.5234C91.0081 16.8047 91.0745 17.1758 91.0745 17.6367C91.0745 18.0977 90.9613 18.5742 90.7347 19.0664C90.5159 19.5586 90.2152 20.0078 89.8323 20.4141C89.4573 20.8203 89.0198 21.1523 88.5198 21.4102C88.0277 21.668 87.5081 21.7969 86.9613 21.7969C86.5941 21.7969 86.223 21.7461 85.848 21.6445C85.473 21.543 85.1136 21.375 84.7698 21.1406C84.4261 20.9062 84.1019 20.5977 83.7972 20.2148C83.4925 19.832 83.2269 19.3633 83.0003 18.8086C82.7816 18.2539 82.6058 17.6055 82.473 16.8633C82.348 16.1133 82.2855 15.2539 82.2855 14.2852C82.2855 13.3164 82.3558 12.4688 82.4964 11.7422C82.637 11.0078 82.8284 10.3789 83.0706 9.85547C83.3206 9.33203 83.6058 8.89844 83.9261 8.55469C84.2464 8.21094 84.5863 7.9375 84.9456 7.73438C85.3128 7.53125 85.6878 7.39062 86.0706 7.3125C86.4534 7.23438 86.8245 7.19531 87.1839 7.19531C87.7152 7.19531 88.223 7.29688 88.7073 7.5C89.1917 7.69531 89.6136 7.96875 89.973 8.32031C90.3402 8.66406 90.6292 9.07031 90.8402 9.53906C91.0589 10.0078 91.1683 10.5078 91.1683 11.0391Z"/>
<path d="M96.4056 2.97656C96.3587 3.92969 96.3158 4.8125 96.2767 5.625C96.2377 6.4375 96.2025 7.20312 96.1712 7.92188C96.1478 8.64062 96.1283 9.32422 96.1127 9.97266C96.097 10.6211 96.0814 11.2617 96.0658 11.8945C96.058 12.5273 96.0502 13.1641 96.0423 13.8047C96.0423 14.4453 96.0423 15.1172 96.0423 15.8203C96.0423 16.6016 96.0423 17.4375 96.0423 18.3281C96.0423 19.2188 96.0502 20.207 96.0658 21.293L93.4056 21.2344C93.4525 20.0547 93.4837 18.8945 93.4994 17.7539C93.515 16.6055 93.5228 15.4297 93.5228 14.2266C93.5228 13.4219 93.5189 12.5977 93.5111 11.7539C93.5033 10.9023 93.4916 10.0156 93.4759 9.09375C93.4603 8.16406 93.4408 7.1875 93.4173 6.16406C93.4017 5.14062 93.3822 4.05469 93.3587 2.90625L96.4056 2.97656Z"/>
<path d="M102.1 4.55859C102.1 4.80859 102.053 5.04688 101.959 5.27344C101.866 5.49219 101.737 5.68359 101.573 5.84766C101.409 6.01172 101.213 6.14453 100.987 6.24609C100.768 6.33984 100.534 6.38672 100.284 6.38672C100.034 6.38672 99.7953 6.33984 99.5687 6.24609C99.35 6.14453 99.1586 6.01172 98.9945 5.84766C98.8305 5.68359 98.6977 5.49219 98.5961 5.27344C98.5023 5.04688 98.4555 4.80859 98.4555 4.55859C98.4555 4.30859 98.5023 4.07422 98.5961 3.85547C98.6977 3.62891 98.8305 3.43359 98.9945 3.26953C99.1586 3.10547 99.35 2.97656 99.5687 2.88281C99.7953 2.78125 100.034 2.73047 100.284 2.73047C100.534 2.73047 100.768 2.78125 100.987 2.88281C101.213 2.97656 101.409 3.10547 101.573 3.26953C101.737 3.43359 101.866 3.62891 101.959 3.85547C102.053 4.07422 102.1 4.30859 102.1 4.55859ZM102.1 8.10938C102.037 8.72656 101.983 9.39453 101.936 10.1133C101.897 10.8242 101.862 11.5547 101.83 12.3047C101.807 13.0547 101.787 13.8086 101.772 14.5664C101.756 15.3242 101.745 16.0469 101.737 16.7344C101.729 17.4219 101.721 18.0664 101.713 18.668C101.713 19.2617 101.713 19.7734 101.713 20.2031V21.5273L99.0531 21.6211C99.0687 21.082 99.0766 20.5586 99.0766 20.0508C99.0766 19.543 99.0766 19.0352 99.0766 18.5273C99.0766 17.6445 99.0687 16.7852 99.0531 15.9492C99.0375 15.1055 99.0102 14.2617 98.9711 13.418C98.9398 12.5742 98.8969 11.7188 98.8422 10.8516C98.7875 9.98438 98.7211 9.08594 98.643 8.15625L102.1 8.10938Z"/>
<path d="M107.654 8.01562L107.583 8.97656C107.841 8.54688 108.115 8.21875 108.404 7.99219C108.701 7.76562 108.974 7.60547 109.224 7.51172C109.474 7.41797 109.681 7.36719 109.845 7.35938C110.017 7.35156 110.111 7.34766 110.126 7.34766C110.705 7.34766 111.208 7.48047 111.638 7.74609C112.068 8.01172 112.423 8.39844 112.705 8.90625C112.986 9.40625 113.193 10.0195 113.326 10.7461C113.466 11.4648 113.537 12.2812 113.537 13.1953C113.537 13.8672 113.525 14.5547 113.501 15.2578C113.486 15.9531 113.447 16.6484 113.384 17.3438C113.33 18.0312 113.251 18.7031 113.15 19.3594C113.056 20.0156 112.927 20.6406 112.763 21.2344L110.033 20.9062C110.212 19.9766 110.353 19.1094 110.455 18.3047C110.556 17.5 110.63 16.7969 110.677 16.1953C110.732 15.4922 110.763 14.8477 110.771 14.2617C110.771 13.5195 110.747 12.875 110.701 12.3281C110.654 11.7734 110.568 11.3164 110.443 10.957C110.326 10.5898 110.162 10.3164 109.951 10.1367C109.74 9.95703 109.47 9.86719 109.142 9.86719C108.923 9.91406 108.705 10.0703 108.486 10.3359C108.298 10.5625 108.099 10.9258 107.888 11.4258C107.677 11.918 107.494 12.6133 107.337 13.5117C107.314 14.1211 107.298 14.7266 107.29 15.3281C107.29 15.9219 107.29 16.5547 107.29 17.2266C107.29 17.7969 107.29 18.4102 107.29 19.0664C107.29 19.7227 107.298 20.4648 107.314 21.293L104.654 21.2344C104.677 20.4375 104.693 19.5938 104.701 18.7031C104.716 17.8047 104.724 16.8086 104.724 15.7148C104.724 14.6289 104.716 13.4531 104.701 12.1875C104.685 10.9219 104.654 9.51562 104.607 7.96875L107.654 8.01562Z"/>
<path d="M124.891 7.875C124.852 8.33594 124.813 8.8125 124.774 9.30469C124.743 9.78906 124.711 10.2773 124.68 10.7695C124.649 11.2539 124.622 11.7344 124.598 12.2109C124.582 12.6797 124.567 13.125 124.551 13.5469C124.512 14.5469 124.485 15.5273 124.469 16.4883C124.422 17.4102 124.395 18.3242 124.387 19.2305C124.387 20.1289 124.36 20.9844 124.305 21.7969C124.25 22.6172 124.145 23.375 123.989 24.0703C123.84 24.7734 123.594 25.3789 123.25 25.8867C122.907 26.4023 122.442 26.8047 121.856 27.0938C121.278 27.3828 120.532 27.5273 119.618 27.5273C118.922 27.5273 118.368 27.4258 117.954 27.2227C117.547 27.0273 117.235 26.7852 117.016 26.4961C116.805 26.2148 116.665 25.9141 116.594 25.5938C116.532 25.2734 116.5 24.9883 116.5 24.7383C116.5 24.4727 116.54 24.2227 116.618 23.9883C116.704 23.7617 116.821 23.5625 116.969 23.3906C117.118 23.2188 117.297 23.082 117.508 22.9805C117.727 22.8789 117.973 22.8281 118.247 22.8281C118.536 22.8281 118.79 22.8828 119.008 22.9922C119.235 23.1016 119.422 23.2422 119.571 23.4141C119.727 23.5938 119.844 23.793 119.922 24.0117C120.008 24.2305 120.051 24.4492 120.051 24.668C120.036 24.793 120.004 24.9219 119.957 25.0547C119.911 25.1641 119.84 25.2852 119.747 25.418C119.661 25.5586 119.528 25.6953 119.348 25.8281C119.528 25.8906 119.696 25.9219 119.852 25.9219C120.055 25.9219 120.27 25.8594 120.497 25.7344C120.723 25.6172 120.93 25.4297 121.118 25.1719C121.305 24.9141 121.461 24.5898 121.586 24.1992C121.711 23.8086 121.782 23.3438 121.797 22.8047L121.844 19.5586C121.54 20.0742 121.227 20.4766 120.907 20.7656C120.594 21.0469 120.309 21.2539 120.051 21.3867C119.747 21.543 119.457 21.6367 119.184 21.668C118.786 21.668 118.383 21.5547 117.977 21.3281C117.571 21.1016 117.204 20.7109 116.875 20.1562C116.547 19.6016 116.278 18.8633 116.067 17.9414C115.856 17.0117 115.75 15.8477 115.75 14.4492C115.75 13.5273 115.805 12.7148 115.915 12.0117C116.024 11.3008 116.172 10.6836 116.36 10.1602C116.547 9.63672 116.766 9.19922 117.016 8.84766C117.274 8.48828 117.547 8.19922 117.836 7.98047C118.133 7.76172 118.442 7.60547 118.762 7.51172C119.082 7.41797 119.399 7.37109 119.711 7.37109C119.954 7.38672 120.204 7.44141 120.461 7.53516C120.688 7.62109 120.942 7.75391 121.223 7.93359C121.504 8.11328 121.786 8.37109 122.067 8.70703L122.137 7.58203L124.891 7.875ZM121.997 10.8516C121.817 10.5469 121.606 10.2812 121.364 10.0547C121.129 9.82812 120.868 9.71484 120.579 9.71484C120.36 9.71484 120.137 9.79297 119.911 9.94922C119.692 10.0977 119.493 10.3594 119.313 10.7344C119.133 11.1016 118.985 11.5938 118.868 12.2109C118.758 12.8281 118.704 13.6055 118.704 14.543C118.704 15.4102 118.743 16.1289 118.821 16.6992C118.899 17.2695 119.004 17.7266 119.137 18.0703C119.27 18.4062 119.422 18.6445 119.594 18.7852C119.766 18.918 119.95 18.9844 120.145 18.9844C120.403 18.9844 120.625 18.9062 120.813 18.75C121.008 18.5938 121.172 18.4062 121.305 18.1875C121.438 17.9609 121.547 17.7266 121.633 17.4844C121.727 17.2422 121.805 17.0312 121.868 16.8516C121.883 15.8281 121.899 14.8203 121.915 13.8281C121.93 12.8359 121.957 11.8438 121.997 10.8516Z"/>
</mask>
<path d="M9.88281 20.8828L6.78906 21.1875C6.80469 20.6641 6.81641 20.125 6.82422 19.5703C6.83984 19.0078 6.85156 18.4531 6.85938 17.9062C6.86719 17.3516 6.875 16.8125 6.88281 16.2891C6.89062 15.7578 6.89453 15.2578 6.89453 14.7891C6.90234 13.6797 6.90625 12.5977 6.90625 11.543V8.85938L5.94531 9.9375L3.90625 8.20312C4 8.07031 4.11328 7.91406 4.24609 7.73438C4.37891 7.55469 4.51953 7.36328 4.66797 7.16016C4.81641 6.95703 4.96875 6.75 5.125 6.53906C5.28125 6.32031 5.43359 6.10938 5.58203 5.90625C5.92578 5.42969 6.28516 4.93359 6.66016 4.41797L9.61328 4.27734C9.59766 4.76172 9.58203 5.25781 9.56641 5.76562C9.55859 6.26562 9.55078 6.76172 9.54297 7.25391C9.53516 7.73828 9.52734 8.20703 9.51953 8.66016C9.51953 9.11328 9.51953 9.53125 9.51953 9.91406C9.51953 10.2188 9.51953 10.4961 9.51953 10.7461C9.51953 10.9961 9.52344 11.2109 9.53125 11.3906C9.53125 11.6016 9.53516 11.7891 9.54297 11.9531C9.54297 12.8594 9.55859 13.8125 9.58984 14.8125C9.59766 15.2344 9.60938 15.6914 9.625 16.1836C9.64844 16.668 9.67188 17.1719 9.69531 17.6953C9.71875 18.2109 9.74609 18.7383 9.77734 19.2773C9.80859 19.8164 9.84375 20.3516 9.88281 20.8828Z" fill="white"/>
<path d="M22.9366 12.5977C22.9366 13.8477 22.8311 15.0078 22.6202 16.0781C22.4092 17.1484 22.0889 18.0781 21.6592 18.8672C21.2295 19.6484 20.6866 20.2656 20.0303 20.7188C19.3741 21.1641 18.6006 21.3867 17.71 21.3867C16.8038 21.3867 16.0186 21.1641 15.3545 20.7188C14.6983 20.2656 14.1553 19.6484 13.7256 18.8672C13.3038 18.0781 12.9873 17.1484 12.7764 16.0781C12.5733 15.0078 12.4717 13.8477 12.4717 12.5977C12.4717 11.3555 12.5694 10.2031 12.7647 9.14062C12.9678 8.07031 13.2803 7.14453 13.7022 6.36328C14.1241 5.57422 14.6631 4.95703 15.3194 4.51172C15.9834 4.06641 16.7803 3.84375 17.71 3.84375C18.6631 3.84375 19.4717 4.06641 20.1358 4.51172C20.7998 4.95703 21.3389 5.57422 21.753 6.36328C22.167 7.14453 22.4678 8.07031 22.6553 9.14062C22.8428 10.2031 22.9366 11.3555 22.9366 12.5977ZM19.8663 12.5977C19.8663 11.3711 19.8116 10.3281 19.7022 9.46875C19.6006 8.60156 19.4561 7.89844 19.2686 7.35938C19.0811 6.82031 18.8545 6.42969 18.5889 6.1875C18.3233 5.9375 18.0303 5.8125 17.71 5.8125C17.4131 5.8125 17.1358 5.96094 16.878 6.25781C16.6202 6.54688 16.3897 6.97656 16.1866 7.54688C15.9913 8.11719 15.835 8.82812 15.7178 9.67969C15.6084 10.5234 15.5538 11.4961 15.5538 12.5977C15.5538 13.8008 15.6045 14.832 15.7061 15.6914C15.8077 16.5508 15.9522 17.2578 16.1397 17.8125C16.3272 18.3594 16.5538 18.7656 16.8194 19.0312C17.085 19.2891 17.3819 19.418 17.71 19.418C18.0147 19.418 18.2959 19.2969 18.5538 19.0547C18.8194 18.8125 19.0498 18.4219 19.2452 17.8828C19.4405 17.3438 19.5928 16.6406 19.7022 15.7734C19.8116 14.9062 19.8663 13.8477 19.8663 12.5977Z" fill="white"/>
<path d="M28.6778 10.6992C28.6778 10.9102 28.6348 11.1094 28.5489 11.2969C28.4708 11.4844 28.3614 11.6484 28.2208 11.7891C28.088 11.9219 27.9278 12.0312 27.7403 12.1172C27.5528 12.1953 27.3536 12.2344 27.1427 12.2344C26.9239 12.2344 26.7208 12.1953 26.5333 12.1172C26.3458 12.0312 26.1817 11.9219 26.0411 11.7891C25.9005 11.6484 25.7872 11.4844 25.7013 11.2969C25.6231 11.1094 25.5841 10.9102 25.5841 10.6992C25.5841 10.4883 25.6231 10.2891 25.7013 10.1016C25.7872 9.90625 25.9005 9.73828 26.0411 9.59766C26.1817 9.45703 26.3458 9.34766 26.5333 9.26953C26.7208 9.18359 26.9239 9.14062 27.1427 9.14062C27.3536 9.14062 27.5528 9.18359 27.7403 9.26953C27.9278 9.34766 28.088 9.45703 28.2208 9.59766C28.3614 9.73828 28.4708 9.90625 28.5489 10.1016C28.6348 10.2891 28.6778 10.4883 28.6778 10.6992ZM28.6778 19.8984C28.6778 20.1094 28.6348 20.3086 28.5489 20.4961C28.4708 20.6758 28.3614 20.8359 28.2208 20.9766C28.088 21.1172 27.9278 21.2266 27.7403 21.3047C27.5528 21.3906 27.3536 21.4336 27.1427 21.4336C26.9239 21.4336 26.7208 21.3906 26.5333 21.3047C26.3458 21.2266 26.1817 21.1172 26.0411 20.9766C25.9005 20.8359 25.7872 20.6758 25.7013 20.4961C25.6231 20.3086 25.5841 20.1094 25.5841 19.8984C25.5841 19.6797 25.6231 19.4766 25.7013 19.2891C25.7872 19.1016 25.9005 18.9375 26.0411 18.7969C26.1817 18.6562 26.3458 18.5469 26.5333 18.4688C26.7208 18.3828 26.9239 18.3398 27.1427 18.3398C27.3536 18.3398 27.5528 18.3828 27.7403 18.4688C27.9278 18.5469 28.088 18.6562 28.2208 18.7969C28.3614 18.9375 28.4708 19.1016 28.5489 19.2891C28.6348 19.4766 28.6778 19.6797 28.6778 19.8984Z" fill="white"/>
<path d="M44.6134 21.2109C44.4494 20.9844 44.3244 20.7305 44.2384 20.4492C44.1603 20.168 44.1017 19.9023 44.0627 19.6523C44.0236 19.3945 44.0002 19.1719 43.9923 18.9844C43.9923 18.7969 43.9923 18.6836 43.9923 18.6445C43.9923 18.3945 43.9806 18.0977 43.9572 17.7539C43.9416 17.4023 43.8986 17.043 43.8283 16.6758C43.758 16.3008 43.6564 15.9336 43.5236 15.5742C43.3986 15.207 43.2228 14.8789 42.9963 14.5898C42.7775 14.3008 42.5041 14.0703 42.1759 13.8984C41.8556 13.7188 41.4689 13.6289 41.0158 13.6289C40.9533 13.6289 40.8869 13.6328 40.8166 13.6406C40.7541 13.6484 40.6916 13.6523 40.6291 13.6523V20.9531L37.3947 21.0234C37.4416 20.75 37.4806 20.4297 37.5119 20.0625C37.5509 19.6875 37.5822 19.293 37.6056 18.8789C37.6291 18.457 37.6486 18.0195 37.6642 17.5664C37.6798 17.1133 37.6916 16.668 37.6994 16.2305C37.7072 15.793 37.7111 15.3711 37.7111 14.9648C37.7189 14.5508 37.7228 14.1797 37.7228 13.8516C37.7228 13.6016 37.7189 13.2344 37.7111 12.75C37.7111 12.2656 37.7033 11.7227 37.6877 11.1211C37.6798 10.5117 37.6681 9.875 37.6525 9.21094C37.6447 8.53906 37.633 7.89844 37.6173 7.28906C37.6017 6.67188 37.5822 6.11328 37.5588 5.61328C37.5431 5.10547 37.5275 4.71484 37.5119 4.44141C37.9416 4.35547 38.4025 4.29297 38.8947 4.25391C39.3869 4.20703 39.8439 4.17188 40.2658 4.14844C40.758 4.11719 41.2463 4.10156 41.7306 4.10156C42.5119 4.07031 43.2463 4.13672 43.9338 4.30078C44.6213 4.45703 45.2228 4.72656 45.7384 5.10938C46.2619 5.48438 46.6759 5.97266 46.9806 6.57422C47.2931 7.16797 47.4572 7.87891 47.4728 8.70703C47.3478 9.29297 47.1486 9.83594 46.8752 10.3359C46.758 10.5469 46.6173 10.7656 46.4533 10.9922C46.297 11.2109 46.1095 11.418 45.8908 11.6133C45.6798 11.8086 45.4377 11.9883 45.1642 12.1523C44.8908 12.3086 44.5861 12.4336 44.2502 12.5273C44.7502 12.7227 45.1564 12.9531 45.4689 13.2188C45.7814 13.4766 46.0275 13.7695 46.2072 14.0977C46.3869 14.418 46.5158 14.7656 46.5939 15.1406C46.6798 15.5078 46.7384 15.8984 46.7697 16.3125C46.8088 16.7188 46.84 17.1406 46.8634 17.5781C46.8869 18.0078 46.9298 18.4453 46.9923 18.8906C47.0548 19.2266 47.133 19.5469 47.2267 19.8516C47.3127 20.1172 47.4181 20.3867 47.5431 20.6602C47.6759 20.9258 47.8361 21.1445 48.0236 21.3164L44.6134 21.2109ZM44.4963 8.85938C44.4884 8.35938 44.3791 7.91016 44.1681 7.51172C44.0744 7.34766 43.9533 7.18359 43.8048 7.01953C43.6642 6.85547 43.4845 6.71094 43.2658 6.58594C43.0548 6.46094 42.797 6.35938 42.4923 6.28125C42.1955 6.20312 41.8478 6.16406 41.4494 6.16406C41.1447 6.16406 40.8088 6.20703 40.4416 6.29297L40.4884 11.5898C40.6291 11.6133 40.7697 11.6328 40.9103 11.6484C41.0509 11.6562 41.1798 11.6602 41.297 11.6602C41.672 11.6602 42.0041 11.6211 42.2931 11.543C42.5822 11.4648 42.8361 11.3594 43.0548 11.2266C43.2736 11.0938 43.4611 10.9453 43.6173 10.7812C43.7736 10.6172 43.9064 10.4453 44.0158 10.2656C44.2658 9.85156 44.4259 9.38281 44.4963 8.85938Z" fill="white"/>
<path d="M58.0891 18.4805C58.0891 18.9414 57.9836 19.375 57.7727 19.7812C57.5617 20.1875 57.2766 20.5391 56.9172 20.8359C56.5578 21.1328 56.1359 21.3672 55.6516 21.5391C55.1672 21.7109 54.6516 21.7969 54.1047 21.7969C53.7375 21.7969 53.3664 21.7461 52.9914 21.6445C52.6164 21.543 52.257 21.375 51.9133 21.1406C51.5695 20.9062 51.2453 20.5977 50.9406 20.2148C50.6359 19.832 50.3703 19.3633 50.1437 18.8086C49.925 18.2539 49.7492 17.6055 49.6164 16.8633C49.4914 16.1133 49.4289 15.2539 49.4289 14.2852C49.4289 13.3711 49.4914 12.5625 49.6164 11.8594C49.7492 11.1562 49.925 10.543 50.1437 10.0195C50.3703 9.49609 50.632 9.05859 50.9289 8.70703C51.2258 8.34766 51.5422 8.05859 51.8781 7.83984C52.2219 7.61328 52.5734 7.45312 52.9328 7.35938C53.3 7.26562 53.6594 7.21875 54.0109 7.21875C54.5344 7.21875 55.0305 7.30469 55.4992 7.47656C55.968 7.64062 56.3781 7.88672 56.7297 8.21484C57.0812 8.54297 57.3586 8.94922 57.5617 9.43359C57.7727 9.91016 57.8781 10.4609 57.8781 11.0859C57.8781 11.6484 57.7609 12.2188 57.5266 12.7969C57.3 13.3672 56.9602 13.9102 56.507 14.4258C56.0539 14.9336 55.4914 15.3984 54.8195 15.8203C54.1555 16.2344 53.3898 16.5625 52.5227 16.8047C52.5695 17.2891 52.6359 17.7305 52.7219 18.1289C52.8156 18.5273 52.9289 18.8672 53.0617 19.1484C53.2023 19.4297 53.3625 19.6484 53.5422 19.8047C53.7297 19.9609 53.9445 20.0391 54.1867 20.0391C54.343 20.0312 54.4914 20.0039 54.632 19.957C54.757 19.918 54.882 19.8555 55.007 19.7695C55.1398 19.6836 55.2492 19.5586 55.3352 19.3945C55.132 19.3008 54.9758 19.1797 54.8664 19.0312C54.757 18.8828 54.675 18.7422 54.6203 18.6094C54.5578 18.4531 54.5227 18.2891 54.5148 18.1172C54.5148 17.7422 54.5891 17.4375 54.7375 17.2031C54.8859 16.9688 55.0617 16.7852 55.2648 16.6523C55.468 16.5195 55.675 16.4297 55.8859 16.3828C56.0969 16.3281 56.2648 16.3008 56.3898 16.3008C56.5227 16.3008 56.6828 16.3281 56.8703 16.3828C57.0656 16.4375 57.2531 16.543 57.4328 16.6992C57.6125 16.8555 57.7648 17.0781 57.8898 17.3672C58.0227 17.6484 58.0891 18.0195 58.0891 18.4805ZM55.1945 11.1094C55.1945 10.8281 55.1672 10.5625 55.1125 10.3125C55.0656 10.0547 54.9914 9.83203 54.8898 9.64453C54.7961 9.45703 54.675 9.30859 54.5266 9.19922C54.3859 9.08203 54.2219 9.02344 54.0344 9.02344C53.7141 9.02344 53.4523 9.17188 53.2492 9.46875C53.0461 9.75781 52.882 10.1445 52.757 10.6289C52.632 11.1133 52.5461 11.6719 52.4992 12.3047C52.4523 12.9375 52.4289 13.5977 52.4289 14.2852V15.1406C52.8273 14.9297 53.1945 14.6797 53.5305 14.3906C53.8742 14.1016 54.1672 13.7852 54.4094 13.4414C54.6594 13.0898 54.8508 12.7188 54.9836 12.3281C55.1242 11.9375 55.1945 11.5312 55.1945 11.1094Z" fill="white"/>
<path d="M68.9045 11.0391C68.9045 11.5781 68.8303 12.0078 68.6819 12.3281C68.5412 12.6406 68.3694 12.8789 68.1662 13.043C67.9709 13.1992 67.7678 13.3008 67.5569 13.3477C67.3537 13.3945 67.1858 13.418 67.053 13.418C66.9202 13.418 66.76 13.3984 66.5725 13.3594C66.385 13.3125 66.2014 13.2266 66.0217 13.1016C65.8498 12.9688 65.7014 12.7852 65.5764 12.5508C65.4592 12.3086 65.4006 11.9961 65.4006 11.6133C65.4084 11.4023 65.4475 11.1953 65.5178 10.9922C65.5803 10.8203 65.6741 10.6445 65.7991 10.4648C65.9241 10.2852 66.1037 10.1328 66.3381 10.0078C66.2053 9.71094 66.0569 9.48438 65.8928 9.32812C65.7366 9.17188 65.5842 9.05469 65.4358 8.97656C65.2639 8.89062 65.092 8.83594 64.9202 8.8125C64.6311 8.8125 64.3694 8.94531 64.135 9.21094C63.9006 9.47656 63.7014 9.85156 63.5373 10.3359C63.3733 10.8125 63.2444 11.3867 63.1506 12.0586C63.0647 12.7305 63.0217 13.4727 63.0217 14.2852C63.0217 15.0898 63.0491 15.8438 63.1037 16.5469C63.1662 17.2422 63.2639 17.8516 63.3967 18.375C63.5295 18.8906 63.7092 19.2969 63.9358 19.5938C64.1623 19.8906 64.4436 20.0391 64.7795 20.0391C64.9592 20.0312 65.1389 19.9883 65.3186 19.9102C65.4748 19.8477 65.6389 19.7461 65.8108 19.6055C65.9905 19.457 66.1506 19.25 66.2912 18.9844C66.0178 18.8516 65.8069 18.6914 65.6584 18.5039C65.5178 18.3086 65.4162 18.1211 65.3537 17.9414C65.2756 17.7305 65.2327 17.5117 65.2248 17.2852C65.2248 16.9102 65.2991 16.6055 65.4475 16.3711C65.5959 16.1367 65.7717 15.9531 65.9748 15.8203C66.178 15.6797 66.385 15.5859 66.5959 15.5391C66.8069 15.4844 66.9748 15.457 67.0998 15.457C67.2327 15.457 67.3967 15.4844 67.592 15.5391C67.7873 15.5938 67.9748 15.6992 68.1545 15.8555C68.3342 16.0117 68.4866 16.2344 68.6116 16.5234C68.7444 16.8047 68.8108 17.1758 68.8108 17.6367C68.8108 18.0977 68.6975 18.5742 68.4709 19.0664C68.2522 19.5586 67.9514 20.0078 67.5686 20.4141C67.1936 20.8203 66.7561 21.1523 66.2561 21.4102C65.7639 21.668 65.2444 21.7969 64.6975 21.7969C64.3303 21.7969 63.9592 21.7461 63.5842 21.6445C63.2092 21.543 62.8498 21.375 62.5061 21.1406C62.1623 20.9062 61.8381 20.5977 61.5334 20.2148C61.2287 19.832 60.9631 19.3633 60.7366 18.8086C60.5178 18.2539 60.342 17.6055 60.2092 16.8633C60.0842 16.1133 60.0217 15.2539 60.0217 14.2852C60.0217 13.3164 60.092 12.4688 60.2327 11.7422C60.3733 11.0078 60.5647 10.3789 60.8069 9.85547C61.0569 9.33203 61.342 8.89844 61.6623 8.55469C61.9827 8.21094 62.3225 7.9375 62.6819 7.73438C63.0491 7.53125 63.4241 7.39062 63.8069 7.3125C64.1897 7.23438 64.5608 7.19531 64.9202 7.19531C65.4514 7.19531 65.9592 7.29688 66.4436 7.5C66.928 7.69531 67.3498 7.96875 67.7092 8.32031C68.0764 8.66406 68.3655 9.07031 68.5764 9.53906C68.7952 10.0078 68.9045 10.5078 68.9045 11.0391Z" fill="white"/>
<path d="M80.1184 8.35547C80.0716 8.81641 80.0325 9.28516 80.0013 9.76172C79.97 10.2305 79.9388 10.6992 79.9075 11.168C79.8841 11.6367 79.8606 12.0938 79.8372 12.5391C79.8138 12.9766 79.7942 13.3945 79.7786 13.793C79.7395 14.7227 79.7083 15.6211 79.6848 16.4883C79.638 17.4102 79.6106 18.3242 79.6028 19.2305C79.6028 20.1289 79.5755 20.9844 79.5208 21.7969C79.4661 22.6172 79.3606 23.375 79.2044 24.0703C79.0559 24.7734 78.8098 25.3789 78.4661 25.8867C78.1223 26.4023 77.6575 26.8047 77.0716 27.0938C76.4934 27.3828 75.7473 27.5273 74.8333 27.5273C74.1458 27.5273 73.595 27.4258 73.1809 27.2227C72.7747 27.0273 72.4622 26.7852 72.2434 26.4961C72.0247 26.2148 71.8802 25.9141 71.8098 25.5938C71.7473 25.2734 71.7161 24.9883 71.7161 24.7383C71.7161 24.4727 71.7552 24.2227 71.8333 23.9883C71.9192 23.7617 72.0364 23.5625 72.1848 23.3906C72.3333 23.2188 72.513 23.082 72.7239 22.9805C72.9427 22.8789 73.1888 22.8281 73.4622 22.8281C73.7513 22.8281 74.0091 22.8828 74.2356 22.9922C74.4622 23.1016 74.6497 23.2422 74.7981 23.4141C74.9544 23.5938 75.0716 23.793 75.1497 24.0117C75.2278 24.2305 75.2669 24.4492 75.2669 24.668C75.2591 24.793 75.2317 24.9219 75.1848 25.0547C75.1458 25.1641 75.0755 25.2852 74.9739 25.418C74.8802 25.5586 74.7473 25.6953 74.5755 25.8281C74.6692 25.8672 74.7552 25.8906 74.8333 25.8984C74.9192 25.9141 75.0013 25.9219 75.0794 25.9219C75.2825 25.9219 75.4934 25.8594 75.7122 25.7344C75.9388 25.6172 76.1458 25.4297 76.3333 25.1719C76.5208 24.9141 76.677 24.5898 76.802 24.1992C76.927 23.8086 76.9973 23.3438 77.013 22.8047C77.013 22.2188 77.013 21.6445 77.013 21.082C77.0208 20.5195 77.0325 19.8984 77.0481 19.2188C76.7825 19.7266 76.4973 20.1211 76.1927 20.4023C75.888 20.6758 75.5989 20.8789 75.3255 21.0117C75.013 21.168 74.6966 21.2617 74.3763 21.293C73.7981 21.293 73.2942 21.1484 72.8645 20.8594C72.4348 20.5703 72.0794 20.1602 71.7981 19.6289C71.5169 19.0977 71.3059 18.4609 71.1653 17.7188C71.0325 16.9688 70.9661 16.1328 70.9661 15.2109C70.9661 12.6562 71.1419 10.2188 71.4934 7.89844L74.47 8.22656C74.4075 8.48438 74.345 8.76562 74.2825 9.07031C74.2278 9.375 74.177 9.69141 74.1302 10.0195C74.0833 10.3477 74.0403 10.6797 74.0013 11.0156C73.97 11.3438 73.9388 11.6602 73.9075 11.9648C73.8372 12.6836 73.7786 13.4141 73.7317 14.1562C73.7317 14.8984 73.7552 15.5469 73.802 16.1016C73.8489 16.6484 73.9309 17.1055 74.0481 17.4727C74.1731 17.832 74.3411 18.1016 74.552 18.2812C74.763 18.4609 75.0325 18.5508 75.3606 18.5508C75.595 18.5117 75.8216 18.3477 76.0403 18.0586C76.1341 17.9336 76.2317 17.7773 76.3333 17.5898C76.4348 17.4023 76.5364 17.1719 76.638 16.8984C76.7395 16.625 76.8372 16.3047 76.9309 15.9375C77.0247 15.5625 77.1106 15.1289 77.1888 14.6367C77.2122 14.0273 77.2278 13.4727 77.2356 12.9727C77.2513 12.4648 77.2591 11.9805 77.2591 11.5195C77.2591 10.9648 77.2473 10.4336 77.2239 9.92578C77.2005 9.41016 77.1653 8.87109 77.1184 8.30859L80.1184 8.35547Z" fill="white"/>
<path d="M91.1683 11.0391C91.1683 11.5781 91.0941 12.0078 90.9456 12.3281C90.805 12.6406 90.6331 12.8789 90.43 13.043C90.2347 13.1992 90.0316 13.3008 89.8206 13.3477C89.6175 13.3945 89.4495 13.418 89.3167 13.418C89.1839 13.418 89.0238 13.3984 88.8363 13.3594C88.6488 13.3125 88.4652 13.2266 88.2855 13.1016C88.1136 12.9688 87.9652 12.7852 87.8402 12.5508C87.723 12.3086 87.6644 11.9961 87.6644 11.6133C87.6722 11.4023 87.7113 11.1953 87.7816 10.9922C87.8441 10.8203 87.9378 10.6445 88.0628 10.4648C88.1878 10.2852 88.3675 10.1328 88.6019 10.0078C88.4691 9.71094 88.3206 9.48438 88.1566 9.32812C88.0003 9.17188 87.848 9.05469 87.6995 8.97656C87.5277 8.89062 87.3558 8.83594 87.1839 8.8125C86.8948 8.8125 86.6331 8.94531 86.3988 9.21094C86.1644 9.47656 85.9652 9.85156 85.8011 10.3359C85.637 10.8125 85.5081 11.3867 85.4144 12.0586C85.3284 12.7305 85.2855 13.4727 85.2855 14.2852C85.2855 15.0898 85.3128 15.8438 85.3675 16.5469C85.43 17.2422 85.5277 17.8516 85.6605 18.375C85.7933 18.8906 85.973 19.2969 86.1995 19.5938C86.4261 19.8906 86.7073 20.0391 87.0433 20.0391C87.223 20.0312 87.4027 19.9883 87.5823 19.9102C87.7386 19.8477 87.9027 19.7461 88.0745 19.6055C88.2542 19.457 88.4144 19.25 88.555 18.9844C88.2816 18.8516 88.0706 18.6914 87.9222 18.5039C87.7816 18.3086 87.68 18.1211 87.6175 17.9414C87.5394 17.7305 87.4964 17.5117 87.4886 17.2852C87.4886 16.9102 87.5628 16.6055 87.7113 16.3711C87.8597 16.1367 88.0355 15.9531 88.2386 15.8203C88.4417 15.6797 88.6488 15.5859 88.8597 15.5391C89.0706 15.4844 89.2386 15.457 89.3636 15.457C89.4964 15.457 89.6605 15.4844 89.8558 15.5391C90.0511 15.5938 90.2386 15.6992 90.4183 15.8555C90.598 16.0117 90.7503 16.2344 90.8753 16.5234C91.0081 16.8047 91.0745 17.1758 91.0745 17.6367C91.0745 18.0977 90.9613 18.5742 90.7347 19.0664C90.5159 19.5586 90.2152 20.0078 89.8323 20.4141C89.4573 20.8203 89.0198 21.1523 88.5198 21.4102C88.0277 21.668 87.5081 21.7969 86.9613 21.7969C86.5941 21.7969 86.223 21.7461 85.848 21.6445C85.473 21.543 85.1136 21.375 84.7698 21.1406C84.4261 20.9062 84.1019 20.5977 83.7972 20.2148C83.4925 19.832 83.2269 19.3633 83.0003 18.8086C82.7816 18.2539 82.6058 17.6055 82.473 16.8633C82.348 16.1133 82.2855 15.2539 82.2855 14.2852C82.2855 13.3164 82.3558 12.4688 82.4964 11.7422C82.637 11.0078 82.8284 10.3789 83.0706 9.85547C83.3206 9.33203 83.6058 8.89844 83.9261 8.55469C84.2464 8.21094 84.5863 7.9375 84.9456 7.73438C85.3128 7.53125 85.6878 7.39062 86.0706 7.3125C86.4534 7.23438 86.8245 7.19531 87.1839 7.19531C87.7152 7.19531 88.223 7.29688 88.7073 7.5C89.1917 7.69531 89.6136 7.96875 89.973 8.32031C90.3402 8.66406 90.6292 9.07031 90.8402 9.53906C91.0589 10.0078 91.1683 10.5078 91.1683 11.0391Z" fill="white"/>
<path d="M96.4056 2.97656C96.3587 3.92969 96.3158 4.8125 96.2767 5.625C96.2377 6.4375 96.2025 7.20312 96.1712 7.92188C96.1478 8.64062 96.1283 9.32422 96.1127 9.97266C96.097 10.6211 96.0814 11.2617 96.0658 11.8945C96.058 12.5273 96.0502 13.1641 96.0423 13.8047C96.0423 14.4453 96.0423 15.1172 96.0423 15.8203C96.0423 16.6016 96.0423 17.4375 96.0423 18.3281C96.0423 19.2188 96.0502 20.207 96.0658 21.293L93.4056 21.2344C93.4525 20.0547 93.4837 18.8945 93.4994 17.7539C93.515 16.6055 93.5228 15.4297 93.5228 14.2266C93.5228 13.4219 93.5189 12.5977 93.5111 11.7539C93.5033 10.9023 93.4916 10.0156 93.4759 9.09375C93.4603 8.16406 93.4408 7.1875 93.4173 6.16406C93.4017 5.14062 93.3822 4.05469 93.3587 2.90625L96.4056 2.97656Z" fill="white"/>
<path d="M102.1 4.55859C102.1 4.80859 102.053 5.04688 101.959 5.27344C101.866 5.49219 101.737 5.68359 101.573 5.84766C101.409 6.01172 101.213 6.14453 100.987 6.24609C100.768 6.33984 100.534 6.38672 100.284 6.38672C100.034 6.38672 99.7953 6.33984 99.5687 6.24609C99.35 6.14453 99.1586 6.01172 98.9945 5.84766C98.8305 5.68359 98.6977 5.49219 98.5961 5.27344C98.5023 5.04688 98.4555 4.80859 98.4555 4.55859C98.4555 4.30859 98.5023 4.07422 98.5961 3.85547C98.6977 3.62891 98.8305 3.43359 98.9945 3.26953C99.1586 3.10547 99.35 2.97656 99.5687 2.88281C99.7953 2.78125 100.034 2.73047 100.284 2.73047C100.534 2.73047 100.768 2.78125 100.987 2.88281C101.213 2.97656 101.409 3.10547 101.573 3.26953C101.737 3.43359 101.866 3.62891 101.959 3.85547C102.053 4.07422 102.1 4.30859 102.1 4.55859ZM102.1 8.10938C102.037 8.72656 101.983 9.39453 101.936 10.1133C101.897 10.8242 101.862 11.5547 101.83 12.3047C101.807 13.0547 101.787 13.8086 101.772 14.5664C101.756 15.3242 101.745 16.0469 101.737 16.7344C101.729 17.4219 101.721 18.0664 101.713 18.668C101.713 19.2617 101.713 19.7734 101.713 20.2031V21.5273L99.0531 21.6211C99.0687 21.082 99.0766 20.5586 99.0766 20.0508C99.0766 19.543 99.0766 19.0352 99.0766 18.5273C99.0766 17.6445 99.0687 16.7852 99.0531 15.9492C99.0375 15.1055 99.0102 14.2617 98.9711 13.418C98.9398 12.5742 98.8969 11.7188 98.8422 10.8516C98.7875 9.98438 98.7211 9.08594 98.643 8.15625L102.1 8.10938Z" fill="white"/>
<path d="M107.654 8.01562L107.583 8.97656C107.841 8.54688 108.115 8.21875 108.404 7.99219C108.701 7.76562 108.974 7.60547 109.224 7.51172C109.474 7.41797 109.681 7.36719 109.845 7.35938C110.017 7.35156 110.111 7.34766 110.126 7.34766C110.705 7.34766 111.208 7.48047 111.638 7.74609C112.068 8.01172 112.423 8.39844 112.705 8.90625C112.986 9.40625 113.193 10.0195 113.326 10.7461C113.466 11.4648 113.537 12.2812 113.537 13.1953C113.537 13.8672 113.525 14.5547 113.501 15.2578C113.486 15.9531 113.447 16.6484 113.384 17.3438C113.33 18.0312 113.251 18.7031 113.15 19.3594C113.056 20.0156 112.927 20.6406 112.763 21.2344L110.033 20.9062C110.212 19.9766 110.353 19.1094 110.455 18.3047C110.556 17.5 110.63 16.7969 110.677 16.1953C110.732 15.4922 110.763 14.8477 110.771 14.2617C110.771 13.5195 110.747 12.875 110.701 12.3281C110.654 11.7734 110.568 11.3164 110.443 10.957C110.326 10.5898 110.162 10.3164 109.951 10.1367C109.74 9.95703 109.47 9.86719 109.142 9.86719C108.923 9.91406 108.705 10.0703 108.486 10.3359C108.298 10.5625 108.099 10.9258 107.888 11.4258C107.677 11.918 107.494 12.6133 107.337 13.5117C107.314 14.1211 107.298 14.7266 107.29 15.3281C107.29 15.9219 107.29 16.5547 107.29 17.2266C107.29 17.7969 107.29 18.4102 107.29 19.0664C107.29 19.7227 107.298 20.4648 107.314 21.293L104.654 21.2344C104.677 20.4375 104.693 19.5938 104.701 18.7031C104.716 17.8047 104.724 16.8086 104.724 15.7148C104.724 14.6289 104.716 13.4531 104.701 12.1875C104.685 10.9219 104.654 9.51562 104.607 7.96875L107.654 8.01562Z" fill="white"/>
<path d="M124.891 7.875C124.852 8.33594 124.813 8.8125 124.774 9.30469C124.743 9.78906 124.711 10.2773 124.68 10.7695C124.649 11.2539 124.622 11.7344 124.598 12.2109C124.582 12.6797 124.567 13.125 124.551 13.5469C124.512 14.5469 124.485 15.5273 124.469 16.4883C124.422 17.4102 124.395 18.3242 124.387 19.2305C124.387 20.1289 124.36 20.9844 124.305 21.7969C124.25 22.6172 124.145 23.375 123.989 24.0703C123.84 24.7734 123.594 25.3789 123.25 25.8867C122.907 26.4023 122.442 26.8047 121.856 27.0938C121.278 27.3828 120.532 27.5273 119.618 27.5273C118.922 27.5273 118.368 27.4258 117.954 27.2227C117.547 27.0273 117.235 26.7852 117.016 26.4961C116.805 26.2148 116.665 25.9141 116.594 25.5938C116.532 25.2734 116.5 24.9883 116.5 24.7383C116.5 24.4727 116.54 24.2227 116.618 23.9883C116.704 23.7617 116.821 23.5625 116.969 23.3906C117.118 23.2188 117.297 23.082 117.508 22.9805C117.727 22.8789 117.973 22.8281 118.247 22.8281C118.536 22.8281 118.79 22.8828 119.008 22.9922C119.235 23.1016 119.422 23.2422 119.571 23.4141C119.727 23.5938 119.844 23.793 119.922 24.0117C120.008 24.2305 120.051 24.4492 120.051 24.668C120.036 24.793 120.004 24.9219 119.957 25.0547C119.911 25.1641 119.84 25.2852 119.747 25.418C119.661 25.5586 119.528 25.6953 119.348 25.8281C119.528 25.8906 119.696 25.9219 119.852 25.9219C120.055 25.9219 120.27 25.8594 120.497 25.7344C120.723 25.6172 120.93 25.4297 121.118 25.1719C121.305 24.9141 121.461 24.5898 121.586 24.1992C121.711 23.8086 121.782 23.3438 121.797 22.8047L121.844 19.5586C121.54 20.0742 121.227 20.4766 120.907 20.7656C120.594 21.0469 120.309 21.2539 120.051 21.3867C119.747 21.543 119.457 21.6367 119.184 21.668C118.786 21.668 118.383 21.5547 117.977 21.3281C117.571 21.1016 117.204 20.7109 116.875 20.1562C116.547 19.6016 116.278 18.8633 116.067 17.9414C115.856 17.0117 115.75 15.8477 115.75 14.4492C115.75 13.5273 115.805 12.7148 115.915 12.0117C116.024 11.3008 116.172 10.6836 116.36 10.1602C116.547 9.63672 116.766 9.19922 117.016 8.84766C117.274 8.48828 117.547 8.19922 117.836 7.98047C118.133 7.76172 118.442 7.60547 118.762 7.51172C119.082 7.41797 119.399 7.37109 119.711 7.37109C119.954 7.38672 120.204 7.44141 120.461 7.53516C120.688 7.62109 120.942 7.75391 121.223 7.93359C121.504 8.11328 121.786 8.37109 122.067 8.70703L122.137 7.58203L124.891 7.875ZM121.997 10.8516C121.817 10.5469 121.606 10.2812 121.364 10.0547C121.129 9.82812 120.868 9.71484 120.579 9.71484C120.36 9.71484 120.137 9.79297 119.911 9.94922C119.692 10.0977 119.493 10.3594 119.313 10.7344C119.133 11.1016 118.985 11.5938 118.868 12.2109C118.758 12.8281 118.704 13.6055 118.704 14.543C118.704 15.4102 118.743 16.1289 118.821 16.6992C118.899 17.2695 119.004 17.7266 119.137 18.0703C119.27 18.4062 119.422 18.6445 119.594 18.7852C119.766 18.918 119.95 18.9844 120.145 18.9844C120.403 18.9844 120.625 18.9062 120.813 18.75C121.008 18.5938 121.172 18.4062 121.305 18.1875C121.438 17.9609 121.547 17.7266 121.633 17.4844C121.727 17.2422 121.805 17.0312 121.868 16.8516C121.883 15.8281 121.899 14.8203 121.915 13.8281C121.93 12.8359 121.957 11.8438 121.997 10.8516Z" fill="white"/>
<path d="M9.88281 20.8828L6.78906 21.1875C6.80469 20.6641 6.81641 20.125 6.82422 19.5703C6.83984 19.0078 6.85156 18.4531 6.85938 17.9062C6.86719 17.3516 6.875 16.8125 6.88281 16.2891C6.89062 15.7578 6.89453 15.2578 6.89453 14.7891C6.90234 13.6797 6.90625 12.5977 6.90625 11.543V8.85938L5.94531 9.9375L3.90625 8.20312C4 8.07031 4.11328 7.91406 4.24609 7.73438C4.37891 7.55469 4.51953 7.36328 4.66797 7.16016C4.81641 6.95703 4.96875 6.75 5.125 6.53906C5.28125 6.32031 5.43359 6.10938 5.58203 5.90625C5.92578 5.42969 6.28516 4.93359 6.66016 4.41797L9.61328 4.27734C9.59766 4.76172 9.58203 5.25781 9.56641 5.76562C9.55859 6.26562 9.55078 6.76172 9.54297 7.25391C9.53516 7.73828 9.52734 8.20703 9.51953 8.66016C9.51953 9.11328 9.51953 9.53125 9.51953 9.91406C9.51953 10.2188 9.51953 10.4961 9.51953 10.7461C9.51953 10.9961 9.52344 11.2109 9.53125 11.3906C9.53125 11.6016 9.53516 11.7891 9.54297 11.9531C9.54297 12.8594 9.55859 13.8125 9.58984 14.8125C9.59766 15.2344 9.60938 15.6914 9.625 16.1836C9.64844 16.668 9.67188 17.1719 9.69531 17.6953C9.71875 18.2109 9.74609 18.7383 9.77734 19.2773C9.80859 19.8164 9.84375 20.3516 9.88281 20.8828Z" stroke="black" stroke-width="4.6425" mask="url(#path-1-outside-1_1598_9504)"/>
<path d="M22.9366 12.5977C22.9366 13.8477 22.8311 15.0078 22.6202 16.0781C22.4092 17.1484 22.0889 18.0781 21.6592 18.8672C21.2295 19.6484 20.6866 20.2656 20.0303 20.7188C19.3741 21.1641 18.6006 21.3867 17.71 21.3867C16.8038 21.3867 16.0186 21.1641 15.3545 20.7188C14.6983 20.2656 14.1553 19.6484 13.7256 18.8672C13.3038 18.0781 12.9873 17.1484 12.7764 16.0781C12.5733 15.0078 12.4717 13.8477 12.4717 12.5977C12.4717 11.3555 12.5694 10.2031 12.7647 9.14062C12.9678 8.07031 13.2803 7.14453 13.7022 6.36328C14.1241 5.57422 14.6631 4.95703 15.3194 4.51172C15.9834 4.06641 16.7803 3.84375 17.71 3.84375C18.6631 3.84375 19.4717 4.06641 20.1358 4.51172C20.7998 4.95703 21.3389 5.57422 21.753 6.36328C22.167 7.14453 22.4678 8.07031 22.6553 9.14062C22.8428 10.2031 22.9366 11.3555 22.9366 12.5977ZM19.8663 12.5977C19.8663 11.3711 19.8116 10.3281 19.7022 9.46875C19.6006 8.60156 19.4561 7.89844 19.2686 7.35938C19.0811 6.82031 18.8545 6.42969 18.5889 6.1875C18.3233 5.9375 18.0303 5.8125 17.71 5.8125C17.4131 5.8125 17.1358 5.96094 16.878 6.25781C16.6202 6.54688 16.3897 6.97656 16.1866 7.54688C15.9913 8.11719 15.835 8.82812 15.7178 9.67969C15.6084 10.5234 15.5538 11.4961 15.5538 12.5977C15.5538 13.8008 15.6045 14.832 15.7061 15.6914C15.8077 16.5508 15.9522 17.2578 16.1397 17.8125C16.3272 18.3594 16.5538 18.7656 16.8194 19.0312C17.085 19.2891 17.3819 19.418 17.71 19.418C18.0147 19.418 18.2959 19.2969 18.5538 19.0547C18.8194 18.8125 19.0498 18.4219 19.2452 17.8828C19.4405 17.3438 19.5928 16.6406 19.7022 15.7734C19.8116 14.9062 19.8663 13.8477 19.8663 12.5977Z" stroke="black" stroke-width="4.6425" mask="url(#path-1-outside-1_1598_9504)"/>
<path d="M28.6778 10.6992C28.6778 10.9102 28.6348 11.1094 28.5489 11.2969C28.4708 11.4844 28.3614 11.6484 28.2208 11.7891C28.088 11.9219 27.9278 12.0312 27.7403 12.1172C27.5528 12.1953 27.3536 12.2344 27.1427 12.2344C26.9239 12.2344 26.7208 12.1953 26.5333 12.1172C26.3458 12.0312 26.1817 11.9219 26.0411 11.7891C25.9005 11.6484 25.7872 11.4844 25.7013 11.2969C25.6231 11.1094 25.5841 10.9102 25.5841 10.6992C25.5841 10.4883 25.6231 10.2891 25.7013 10.1016C25.7872 9.90625 25.9005 9.73828 26.0411 9.59766C26.1817 9.45703 26.3458 9.34766 26.5333 9.26953C26.7208 9.18359 26.9239 9.14062 27.1427 9.14062C27.3536 9.14062 27.5528 9.18359 27.7403 9.26953C27.9278 9.34766 28.088 9.45703 28.2208 9.59766C28.3614 9.73828 28.4708 9.90625 28.5489 10.1016C28.6348 10.2891 28.6778 10.4883 28.6778 10.6992ZM28.6778 19.8984C28.6778 20.1094 28.6348 20.3086 28.5489 20.4961C28.4708 20.6758 28.3614 20.8359 28.2208 20.9766C28.088 21.1172 27.9278 21.2266 27.7403 21.3047C27.5528 21.3906 27.3536 21.4336 27.1427 21.4336C26.9239 21.4336 26.7208 21.3906 26.5333 21.3047C26.3458 21.2266 26.1817 21.1172 26.0411 20.9766C25.9005 20.8359 25.7872 20.6758 25.7013 20.4961C25.6231 20.3086 25.5841 20.1094 25.5841 19.8984C25.5841 19.6797 25.6231 19.4766 25.7013 19.2891C25.7872 19.1016 25.9005 18.9375 26.0411 18.7969C26.1817 18.6562 26.3458 18.5469 26.5333 18.4688C26.7208 18.3828 26.9239 18.3398 27.1427 18.3398C27.3536 18.3398 27.5528 18.3828 27.7403 18.4688C27.9278 18.5469 28.088 18.6562 28.2208 18.7969C28.3614 18.9375 28.4708 19.1016 28.5489 19.2891C28.6348 19.4766 28.6778 19.6797 28.6778 19.8984Z" stroke="black" stroke-width="4.6425" mask="url(#path-1-outside-1_1598_9504)"/>
<path d="M44.6134 21.2109C44.4494 20.9844 44.3244 20.7305 44.2384 20.4492C44.1603 20.168 44.1017 19.9023 44.0627 19.6523C44.0236 19.3945 44.0002 19.1719 43.9923 18.9844C43.9923 18.7969 43.9923 18.6836 43.9923 18.6445C43.9923 18.3945 43.9806 18.0977 43.9572 17.7539C43.9416 17.4023 43.8986 17.043 43.8283 16.6758C43.758 16.3008 43.6564 15.9336 43.5236 15.5742C43.3986 15.207 43.2228 14.8789 42.9963 14.5898C42.7775 14.3008 42.5041 14.0703 42.1759 13.8984C41.8556 13.7188 41.4689 13.6289 41.0158 13.6289C40.9533 13.6289 40.8869 13.6328 40.8166 13.6406C40.7541 13.6484 40.6916 13.6523 40.6291 13.6523V20.9531L37.3947 21.0234C37.4416 20.75 37.4806 20.4297 37.5119 20.0625C37.5509 19.6875 37.5822 19.293 37.6056 18.8789C37.6291 18.457 37.6486 18.0195 37.6642 17.5664C37.6798 17.1133 37.6916 16.668 37.6994 16.2305C37.7072 15.793 37.7111 15.3711 37.7111 14.9648C37.7189 14.5508 37.7228 14.1797 37.7228 13.8516C37.7228 13.6016 37.7189 13.2344 37.7111 12.75C37.7111 12.2656 37.7033 11.7227 37.6877 11.1211C37.6798 10.5117 37.6681 9.875 37.6525 9.21094C37.6447 8.53906 37.633 7.89844 37.6173 7.28906C37.6017 6.67188 37.5822 6.11328 37.5588 5.61328C37.5431 5.10547 37.5275 4.71484 37.5119 4.44141C37.9416 4.35547 38.4025 4.29297 38.8947 4.25391C39.3869 4.20703 39.8439 4.17188 40.2658 4.14844C40.758 4.11719 41.2463 4.10156 41.7306 4.10156C42.5119 4.07031 43.2463 4.13672 43.9338 4.30078C44.6213 4.45703 45.2228 4.72656 45.7384 5.10938C46.2619 5.48438 46.6759 5.97266 46.9806 6.57422C47.2931 7.16797 47.4572 7.87891 47.4728 8.70703C47.3478 9.29297 47.1486 9.83594 46.8752 10.3359C46.758 10.5469 46.6173 10.7656 46.4533 10.9922C46.297 11.2109 46.1095 11.418 45.8908 11.6133C45.6798 11.8086 45.4377 11.9883 45.1642 12.1523C44.8908 12.3086 44.5861 12.4336 44.2502 12.5273C44.7502 12.7227 45.1564 12.9531 45.4689 13.2188C45.7814 13.4766 46.0275 13.7695 46.2072 14.0977C46.3869 14.418 46.5158 14.7656 46.5939 15.1406C46.6798 15.5078 46.7384 15.8984 46.7697 16.3125C46.8088 16.7188 46.84 17.1406 46.8634 17.5781C46.8869 18.0078 46.9298 18.4453 46.9923 18.8906C47.0548 19.2266 47.133 19.5469 47.2267 19.8516C47.3127 20.1172 47.4181 20.3867 47.5431 20.6602C47.6759 20.9258 47.8361 21.1445 48.0236 21.3164L44.6134 21.2109ZM44.4963 8.85938C44.4884 8.35938 44.3791 7.91016 44.1681 7.51172C44.0744 7.34766 43.9533 7.18359 43.8048 7.01953C43.6642 6.85547 43.4845 6.71094 43.2658 6.58594C43.0548 6.46094 42.797 6.35938 42.4923 6.28125C42.1955 6.20312 41.8478 6.16406 41.4494 6.16406C41.1447 6.16406 40.8088 6.20703 40.4416 6.29297L40.4884 11.5898C40.6291 11.6133 40.7697 11.6328 40.9103 11.6484C41.0509 11.6562 41.1798 11.6602 41.297 11.6602C41.672 11.6602 42.0041 11.6211 42.2931 11.543C42.5822 11.4648 42.8361 11.3594 43.0548 11.2266C43.2736 11.0938 43.4611 10.9453 43.6173 10.7812C43.7736 10.6172 43.9064 10.4453 44.0158 10.2656C44.2658 9.85156 44.4259 9.38281 44.4963 8.85938Z" stroke="black" stroke-width="4.6425" mask="url(#path-1-outside-1_1598_9504)"/>
<path d="M58.0891 18.4805C58.0891 18.9414 57.9836 19.375 57.7727 19.7812C57.5617 20.1875 57.2766 20.5391 56.9172 20.8359C56.5578 21.1328 56.1359 21.3672 55.6516 21.5391C55.1672 21.7109 54.6516 21.7969 54.1047 21.7969C53.7375 21.7969 53.3664 21.7461 52.9914 21.6445C52.6164 21.543 52.257 21.375 51.9133 21.1406C51.5695 20.9062 51.2453 20.5977 50.9406 20.2148C50.6359 19.832 50.3703 19.3633 50.1437 18.8086C49.925 18.2539 49.7492 17.6055 49.6164 16.8633C49.4914 16.1133 49.4289 15.2539 49.4289 14.2852C49.4289 13.3711 49.4914 12.5625 49.6164 11.8594C49.7492 11.1562 49.925 10.543 50.1437 10.0195C50.3703 9.49609 50.632 9.05859 50.9289 8.70703C51.2258 8.34766 51.5422 8.05859 51.8781 7.83984C52.2219 7.61328 52.5734 7.45312 52.9328 7.35938C53.3 7.26562 53.6594 7.21875 54.0109 7.21875C54.5344 7.21875 55.0305 7.30469 55.4992 7.47656C55.968 7.64062 56.3781 7.88672 56.7297 8.21484C57.0812 8.54297 57.3586 8.94922 57.5617 9.43359C57.7727 9.91016 57.8781 10.4609 57.8781 11.0859C57.8781 11.6484 57.7609 12.2188 57.5266 12.7969C57.3 13.3672 56.9602 13.9102 56.507 14.4258C56.0539 14.9336 55.4914 15.3984 54.8195 15.8203C54.1555 16.2344 53.3898 16.5625 52.5227 16.8047C52.5695 17.2891 52.6359 17.7305 52.7219 18.1289C52.8156 18.5273 52.9289 18.8672 53.0617 19.1484C53.2023 19.4297 53.3625 19.6484 53.5422 19.8047C53.7297 19.9609 53.9445 20.0391 54.1867 20.0391C54.343 20.0312 54.4914 20.0039 54.632 19.957C54.757 19.918 54.882 19.8555 55.007 19.7695C55.1398 19.6836 55.2492 19.5586 55.3352 19.3945C55.132 19.3008 54.9758 19.1797 54.8664 19.0312C54.757 18.8828 54.675 18.7422 54.6203 18.6094C54.5578 18.4531 54.5227 18.2891 54.5148 18.1172C54.5148 17.7422 54.5891 17.4375 54.7375 17.2031C54.8859 16.9688 55.0617 16.7852 55.2648 16.6523C55.468 16.5195 55.675 16.4297 55.8859 16.3828C56.0969 16.3281 56.2648 16.3008 56.3898 16.3008C56.5227 16.3008 56.6828 16.3281 56.8703 16.3828C57.0656 16.4375 57.2531 16.543 57.4328 16.6992C57.6125 16.8555 57.7648 17.0781 57.8898 17.3672C58.0227 17.6484 58.0891 18.0195 58.0891 18.4805ZM55.1945 11.1094C55.1945 10.8281 55.1672 10.5625 55.1125 10.3125C55.0656 10.0547 54.9914 9.83203 54.8898 9.64453C54.7961 9.45703 54.675 9.30859 54.5266 9.19922C54.3859 9.08203 54.2219 9.02344 54.0344 9.02344C53.7141 9.02344 53.4523 9.17188 53.2492 9.46875C53.0461 9.75781 52.882 10.1445 52.757 10.6289C52.632 11.1133 52.5461 11.6719 52.4992 12.3047C52.4523 12.9375 52.4289 13.5977 52.4289 14.2852V15.1406C52.8273 14.9297 53.1945 14.6797 53.5305 14.3906C53.8742 14.1016 54.1672 13.7852 54.4094 13.4414C54.6594 13.0898 54.8508 12.7188 54.9836 12.3281C55.1242 11.9375 55.1945 11.5312 55.1945 11.1094Z" stroke="black" stroke-width="4.6425" mask="url(#path-1-outside-1_1598_9504)"/>
<path d="M68.9045 11.0391C68.9045 11.5781 68.8303 12.0078 68.6819 12.3281C68.5412 12.6406 68.3694 12.8789 68.1662 13.043C67.9709 13.1992 67.7678 13.3008 67.5569 13.3477C67.3537 13.3945 67.1858 13.418 67.053 13.418C66.9202 13.418 66.76 13.3984 66.5725 13.3594C66.385 13.3125 66.2014 13.2266 66.0217 13.1016C65.8498 12.9688 65.7014 12.7852 65.5764 12.5508C65.4592 12.3086 65.4006 11.9961 65.4006 11.6133C65.4084 11.4023 65.4475 11.1953 65.5178 10.9922C65.5803 10.8203 65.6741 10.6445 65.7991 10.4648C65.9241 10.2852 66.1037 10.1328 66.3381 10.0078C66.2053 9.71094 66.0569 9.48438 65.8928 9.32812C65.7366 9.17188 65.5842 9.05469 65.4358 8.97656C65.2639 8.89062 65.092 8.83594 64.9202 8.8125C64.6311 8.8125 64.3694 8.94531 64.135 9.21094C63.9006 9.47656 63.7014 9.85156 63.5373 10.3359C63.3733 10.8125 63.2444 11.3867 63.1506 12.0586C63.0647 12.7305 63.0217 13.4727 63.0217 14.2852C63.0217 15.0898 63.0491 15.8438 63.1037 16.5469C63.1662 17.2422 63.2639 17.8516 63.3967 18.375C63.5295 18.8906 63.7092 19.2969 63.9358 19.5938C64.1623 19.8906 64.4436 20.0391 64.7795 20.0391C64.9592 20.0312 65.1389 19.9883 65.3186 19.9102C65.4748 19.8477 65.6389 19.7461 65.8108 19.6055C65.9905 19.457 66.1506 19.25 66.2912 18.9844C66.0178 18.8516 65.8069 18.6914 65.6584 18.5039C65.5178 18.3086 65.4162 18.1211 65.3537 17.9414C65.2756 17.7305 65.2327 17.5117 65.2248 17.2852C65.2248 16.9102 65.2991 16.6055 65.4475 16.3711C65.5959 16.1367 65.7717 15.9531 65.9748 15.8203C66.178 15.6797 66.385 15.5859 66.5959 15.5391C66.8069 15.4844 66.9748 15.457 67.0998 15.457C67.2327 15.457 67.3967 15.4844 67.592 15.5391C67.7873 15.5938 67.9748 15.6992 68.1545 15.8555C68.3342 16.0117 68.4866 16.2344 68.6116 16.5234C68.7444 16.8047 68.8108 17.1758 68.8108 17.6367C68.8108 18.0977 68.6975 18.5742 68.4709 19.0664C68.2522 19.5586 67.9514 20.0078 67.5686 20.4141C67.1936 20.8203 66.7561 21.1523 66.2561 21.4102C65.7639 21.668 65.2444 21.7969 64.6975 21.7969C64.3303 21.7969 63.9592 21.7461 63.5842 21.6445C63.2092 21.543 62.8498 21.375 62.5061 21.1406C62.1623 20.9062 61.8381 20.5977 61.5334 20.2148C61.2287 19.832 60.9631 19.3633 60.7366 18.8086C60.5178 18.2539 60.342 17.6055 60.2092 16.8633C60.0842 16.1133 60.0217 15.2539 60.0217 14.2852C60.0217 13.3164 60.092 12.4688 60.2327 11.7422C60.3733 11.0078 60.5647 10.3789 60.8069 9.85547C61.0569 9.33203 61.342 8.89844 61.6623 8.55469C61.9827 8.21094 62.3225 7.9375 62.6819 7.73438C63.0491 7.53125 63.4241 7.39062 63.8069 7.3125C64.1897 7.23438 64.5608 7.19531 64.9202 7.19531C65.4514 7.19531 65.9592 7.29688 66.4436 7.5C66.928 7.69531 67.3498 7.96875 67.7092 8.32031C68.0764 8.66406 68.3655 9.07031 68.5764 9.53906C68.7952 10.0078 68.9045 10.5078 68.9045 11.0391Z" stroke="black" stroke-width="4.6425" mask="url(#path-1-outside-1_1598_9504)"/>
<path d="M80.1184 8.35547C80.0716 8.81641 80.0325 9.28516 80.0013 9.76172C79.97 10.2305 79.9388 10.6992 79.9075 11.168C79.8841 11.6367 79.8606 12.0938 79.8372 12.5391C79.8138 12.9766 79.7942 13.3945 79.7786 13.793C79.7395 14.7227 79.7083 15.6211 79.6848 16.4883C79.638 17.4102 79.6106 18.3242 79.6028 19.2305C79.6028 20.1289 79.5755 20.9844 79.5208 21.7969C79.4661 22.6172 79.3606 23.375 79.2044 24.0703C79.0559 24.7734 78.8098 25.3789 78.4661 25.8867C78.1223 26.4023 77.6575 26.8047 77.0716 27.0938C76.4934 27.3828 75.7473 27.5273 74.8333 27.5273C74.1458 27.5273 73.595 27.4258 73.1809 27.2227C72.7747 27.0273 72.4622 26.7852 72.2434 26.4961C72.0247 26.2148 71.8802 25.9141 71.8098 25.5938C71.7473 25.2734 71.7161 24.9883 71.7161 24.7383C71.7161 24.4727 71.7552 24.2227 71.8333 23.9883C71.9192 23.7617 72.0364 23.5625 72.1848 23.3906C72.3333 23.2188 72.513 23.082 72.7239 22.9805C72.9427 22.8789 73.1888 22.8281 73.4622 22.8281C73.7513 22.8281 74.0091 22.8828 74.2356 22.9922C74.4622 23.1016 74.6497 23.2422 74.7981 23.4141C74.9544 23.5938 75.0716 23.793 75.1497 24.0117C75.2278 24.2305 75.2669 24.4492 75.2669 24.668C75.2591 24.793 75.2317 24.9219 75.1848 25.0547C75.1458 25.1641 75.0755 25.2852 74.9739 25.418C74.8802 25.5586 74.7473 25.6953 74.5755 25.8281C74.6692 25.8672 74.7552 25.8906 74.8333 25.8984C74.9192 25.9141 75.0013 25.9219 75.0794 25.9219C75.2825 25.9219 75.4934 25.8594 75.7122 25.7344C75.9388 25.6172 76.1458 25.4297 76.3333 25.1719C76.5208 24.9141 76.677 24.5898 76.802 24.1992C76.927 23.8086 76.9973 23.3438 77.013 22.8047C77.013 22.2188 77.013 21.6445 77.013 21.082C77.0208 20.5195 77.0325 19.8984 77.0481 19.2188C76.7825 19.7266 76.4973 20.1211 76.1927 20.4023C75.888 20.6758 75.5989 20.8789 75.3255 21.0117C75.013 21.168 74.6966 21.2617 74.3763 21.293C73.7981 21.293 73.2942 21.1484 72.8645 20.8594C72.4348 20.5703 72.0794 20.1602 71.7981 19.6289C71.5169 19.0977 71.3059 18.4609 71.1653 17.7188C71.0325 16.9688 70.9661 16.1328 70.9661 15.2109C70.9661 12.6562 71.1419 10.2188 71.4934 7.89844L74.47 8.22656C74.4075 8.48438 74.345 8.76562 74.2825 9.07031C74.2278 9.375 74.177 9.69141 74.1302 10.0195C74.0833 10.3477 74.0403 10.6797 74.0013 11.0156C73.97 11.3438 73.9388 11.6602 73.9075 11.9648C73.8372 12.6836 73.7786 13.4141 73.7317 14.1562C73.7317 14.8984 73.7552 15.5469 73.802 16.1016C73.8489 16.6484 73.9309 17.1055 74.0481 17.4727C74.1731 17.832 74.3411 18.1016 74.552 18.2812C74.763 18.4609 75.0325 18.5508 75.3606 18.5508C75.595 18.5117 75.8216 18.3477 76.0403 18.0586C76.1341 17.9336 76.2317 17.7773 76.3333 17.5898C76.4348 17.4023 76.5364 17.1719 76.638 16.8984C76.7395 16.625 76.8372 16.3047 76.9309 15.9375C77.0247 15.5625 77.1106 15.1289 77.1888 14.6367C77.2122 14.0273 77.2278 13.4727 77.2356 12.9727C77.2513 12.4648 77.2591 11.9805 77.2591 11.5195C77.2591 10.9648 77.2473 10.4336 77.2239 9.92578C77.2005 9.41016 77.1653 8.87109 77.1184 8.30859L80.1184 8.35547Z" stroke="black" stroke-width="4.6425" mask="url(#path-1-outside-1_1598_9504)"/>
<path d="M91.1683 11.0391C91.1683 11.5781 91.0941 12.0078 90.9456 12.3281C90.805 12.6406 90.6331 12.8789 90.43 13.043C90.2347 13.1992 90.0316 13.3008 89.8206 13.3477C89.6175 13.3945 89.4495 13.418 89.3167 13.418C89.1839 13.418 89.0238 13.3984 88.8363 13.3594C88.6488 13.3125 88.4652 13.2266 88.2855 13.1016C88.1136 12.9688 87.9652 12.7852 87.8402 12.5508C87.723 12.3086 87.6644 11.9961 87.6644 11.6133C87.6722 11.4023 87.7113 11.1953 87.7816 10.9922C87.8441 10.8203 87.9378 10.6445 88.0628 10.4648C88.1878 10.2852 88.3675 10.1328 88.6019 10.0078C88.4691 9.71094 88.3206 9.48438 88.1566 9.32812C88.0003 9.17188 87.848 9.05469 87.6995 8.97656C87.5277 8.89062 87.3558 8.83594 87.1839 8.8125C86.8948 8.8125 86.6331 8.94531 86.3988 9.21094C86.1644 9.47656 85.9652 9.85156 85.8011 10.3359C85.637 10.8125 85.5081 11.3867 85.4144 12.0586C85.3284 12.7305 85.2855 13.4727 85.2855 14.2852C85.2855 15.0898 85.3128 15.8438 85.3675 16.5469C85.43 17.2422 85.5277 17.8516 85.6605 18.375C85.7933 18.8906 85.973 19.2969 86.1995 19.5938C86.4261 19.8906 86.7073 20.0391 87.0433 20.0391C87.223 20.0312 87.4027 19.9883 87.5823 19.9102C87.7386 19.8477 87.9027 19.7461 88.0745 19.6055C88.2542 19.457 88.4144 19.25 88.555 18.9844C88.2816 18.8516 88.0706 18.6914 87.9222 18.5039C87.7816 18.3086 87.68 18.1211 87.6175 17.9414C87.5394 17.7305 87.4964 17.5117 87.4886 17.2852C87.4886 16.9102 87.5628 16.6055 87.7113 16.3711C87.8597 16.1367 88.0355 15.9531 88.2386 15.8203C88.4417 15.6797 88.6488 15.5859 88.8597 15.5391C89.0706 15.4844 89.2386 15.457 89.3636 15.457C89.4964 15.457 89.6605 15.4844 89.8558 15.5391C90.0511 15.5938 90.2386 15.6992 90.4183 15.8555C90.598 16.0117 90.7503 16.2344 90.8753 16.5234C91.0081 16.8047 91.0745 17.1758 91.0745 17.6367C91.0745 18.0977 90.9613 18.5742 90.7347 19.0664C90.5159 19.5586 90.2152 20.0078 89.8323 20.4141C89.4573 20.8203 89.0198 21.1523 88.5198 21.4102C88.0277 21.668 87.5081 21.7969 86.9613 21.7969C86.5941 21.7969 86.223 21.7461 85.848 21.6445C85.473 21.543 85.1136 21.375 84.7698 21.1406C84.4261 20.9062 84.1019 20.5977 83.7972 20.2148C83.4925 19.832 83.2269 19.3633 83.0003 18.8086C82.7816 18.2539 82.6058 17.6055 82.473 16.8633C82.348 16.1133 82.2855 15.2539 82.2855 14.2852C82.2855 13.3164 82.3558 12.4688 82.4964 11.7422C82.637 11.0078 82.8284 10.3789 83.0706 9.85547C83.3206 9.33203 83.6058 8.89844 83.9261 8.55469C84.2464 8.21094 84.5863 7.9375 84.9456 7.73438C85.3128 7.53125 85.6878 7.39062 86.0706 7.3125C86.4534 7.23438 86.8245 7.19531 87.1839 7.19531C87.7152 7.19531 88.223 7.29688 88.7073 7.5C89.1917 7.69531 89.6136 7.96875 89.973 8.32031C90.3402 8.66406 90.6292 9.07031 90.8402 9.53906C91.0589 10.0078 91.1683 10.5078 91.1683 11.0391Z" stroke="black" stroke-width="4.6425" mask="url(#path-1-outside-1_1598_9504)"/>
<path d="M96.4056 2.97656C96.3587 3.92969 96.3158 4.8125 96.2767 5.625C96.2377 6.4375 96.2025 7.20312 96.1712 7.92188C96.1478 8.64062 96.1283 9.32422 96.1127 9.97266C96.097 10.6211 96.0814 11.2617 96.0658 11.8945C96.058 12.5273 96.0502 13.1641 96.0423 13.8047C96.0423 14.4453 96.0423 15.1172 96.0423 15.8203C96.0423 16.6016 96.0423 17.4375 96.0423 18.3281C96.0423 19.2188 96.0502 20.207 96.0658 21.293L93.4056 21.2344C93.4525 20.0547 93.4837 18.8945 93.4994 17.7539C93.515 16.6055 93.5228 15.4297 93.5228 14.2266C93.5228 13.4219 93.5189 12.5977 93.5111 11.7539C93.5033 10.9023 93.4916 10.0156 93.4759 9.09375C93.4603 8.16406 93.4408 7.1875 93.4173 6.16406C93.4017 5.14062 93.3822 4.05469 93.3587 2.90625L96.4056 2.97656Z" stroke="black" stroke-width="4.6425" mask="url(#path-1-outside-1_1598_9504)"/>
<path d="M102.1 4.55859C102.1 4.80859 102.053 5.04688 101.959 5.27344C101.866 5.49219 101.737 5.68359 101.573 5.84766C101.409 6.01172 101.213 6.14453 100.987 6.24609C100.768 6.33984 100.534 6.38672 100.284 6.38672C100.034 6.38672 99.7953 6.33984 99.5687 6.24609C99.35 6.14453 99.1586 6.01172 98.9945 5.84766C98.8305 5.68359 98.6977 5.49219 98.5961 5.27344C98.5023 5.04688 98.4555 4.80859 98.4555 4.55859C98.4555 4.30859 98.5023 4.07422 98.5961 3.85547C98.6977 3.62891 98.8305 3.43359 98.9945 3.26953C99.1586 3.10547 99.35 2.97656 99.5687 2.88281C99.7953 2.78125 100.034 2.73047 100.284 2.73047C100.534 2.73047 100.768 2.78125 100.987 2.88281C101.213 2.97656 101.409 3.10547 101.573 3.26953C101.737 3.43359 101.866 3.62891 101.959 3.85547C102.053 4.07422 102.1 4.30859 102.1 4.55859ZM102.1 8.10938C102.037 8.72656 101.983 9.39453 101.936 10.1133C101.897 10.8242 101.862 11.5547 101.83 12.3047C101.807 13.0547 101.787 13.8086 101.772 14.5664C101.756 15.3242 101.745 16.0469 101.737 16.7344C101.729 17.4219 101.721 18.0664 101.713 18.668C101.713 19.2617 101.713 19.7734 101.713 20.2031V21.5273L99.0531 21.6211C99.0687 21.082 99.0766 20.5586 99.0766 20.0508C99.0766 19.543 99.0766 19.0352 99.0766 18.5273C99.0766 17.6445 99.0687 16.7852 99.0531 15.9492C99.0375 15.1055 99.0102 14.2617 98.9711 13.418C98.9398 12.5742 98.8969 11.7188 98.8422 10.8516C98.7875 9.98438 98.7211 9.08594 98.643 8.15625L102.1 8.10938Z" stroke="black" stroke-width="4.6425" mask="url(#path-1-outside-1_1598_9504)"/>
<path d="M107.654 8.01562L107.583 8.97656C107.841 8.54688 108.115 8.21875 108.404 7.99219C108.701 7.76562 108.974 7.60547 109.224 7.51172C109.474 7.41797 109.681 7.36719 109.845 7.35938C110.017 7.35156 110.111 7.34766 110.126 7.34766C110.705 7.34766 111.208 7.48047 111.638 7.74609C112.068 8.01172 112.423 8.39844 112.705 8.90625C112.986 9.40625 113.193 10.0195 113.326 10.7461C113.466 11.4648 113.537 12.2812 113.537 13.1953C113.537 13.8672 113.525 14.5547 113.501 15.2578C113.486 15.9531 113.447 16.6484 113.384 17.3438C113.33 18.0312 113.251 18.7031 113.15 19.3594C113.056 20.0156 112.927 20.6406 112.763 21.2344L110.033 20.9062C110.212 19.9766 110.353 19.1094 110.455 18.3047C110.556 17.5 110.63 16.7969 110.677 16.1953C110.732 15.4922 110.763 14.8477 110.771 14.2617C110.771 13.5195 110.747 12.875 110.701 12.3281C110.654 11.7734 110.568 11.3164 110.443 10.957C110.326 10.5898 110.162 10.3164 109.951 10.1367C109.74 9.95703 109.47 9.86719 109.142 9.86719C108.923 9.91406 108.705 10.0703 108.486 10.3359C108.298 10.5625 108.099 10.9258 107.888 11.4258C107.677 11.918 107.494 12.6133 107.337 13.5117C107.314 14.1211 107.298 14.7266 107.29 15.3281C107.29 15.9219 107.29 16.5547 107.29 17.2266C107.29 17.7969 107.29 18.4102 107.29 19.0664C107.29 19.7227 107.298 20.4648 107.314 21.293L104.654 21.2344C104.677 20.4375 104.693 19.5938 104.701 18.7031C104.716 17.8047 104.724 16.8086 104.724 15.7148C104.724 14.6289 104.716 13.4531 104.701 12.1875C104.685 10.9219 104.654 9.51562 104.607 7.96875L107.654 8.01562Z" stroke="black" stroke-width="4.6425" mask="url(#path-1-outside-1_1598_9504)"/>
<path d="M124.891 7.875C124.852 8.33594 124.813 8.8125 124.774 9.30469C124.743 9.78906 124.711 10.2773 124.68 10.7695C124.649 11.2539 124.622 11.7344 124.598 12.2109C124.582 12.6797 124.567 13.125 124.551 13.5469C124.512 14.5469 124.485 15.5273 124.469 16.4883C124.422 17.4102 124.395 18.3242 124.387 19.2305C124.387 20.1289 124.36 20.9844 124.305 21.7969C124.25 22.6172 124.145 23.375 123.989 24.0703C123.84 24.7734 123.594 25.3789 123.25 25.8867C122.907 26.4023 122.442 26.8047 121.856 27.0938C121.278 27.3828 120.532 27.5273 119.618 27.5273C118.922 27.5273 118.368 27.4258 117.954 27.2227C117.547 27.0273 117.235 26.7852 117.016 26.4961C116.805 26.2148 116.665 25.9141 116.594 25.5938C116.532 25.2734 116.5 24.9883 116.5 24.7383C116.5 24.4727 116.54 24.2227 116.618 23.9883C116.704 23.7617 116.821 23.5625 116.969 23.3906C117.118 23.2188 117.297 23.082 117.508 22.9805C117.727 22.8789 117.973 22.8281 118.247 22.8281C118.536 22.8281 118.79 22.8828 119.008 22.9922C119.235 23.1016 119.422 23.2422 119.571 23.4141C119.727 23.5938 119.844 23.793 119.922 24.0117C120.008 24.2305 120.051 24.4492 120.051 24.668C120.036 24.793 120.004 24.9219 119.957 25.0547C119.911 25.1641 119.84 25.2852 119.747 25.418C119.661 25.5586 119.528 25.6953 119.348 25.8281C119.528 25.8906 119.696 25.9219 119.852 25.9219C120.055 25.9219 120.27 25.8594 120.497 25.7344C120.723 25.6172 120.93 25.4297 121.118 25.1719C121.305 24.9141 121.461 24.5898 121.586 24.1992C121.711 23.8086 121.782 23.3438 121.797 22.8047L121.844 19.5586C121.54 20.0742 121.227 20.4766 120.907 20.7656C120.594 21.0469 120.309 21.2539 120.051 21.3867C119.747 21.543 119.457 21.6367 119.184 21.668C118.786 21.668 118.383 21.5547 117.977 21.3281C117.571 21.1016 117.204 20.7109 116.875 20.1562C116.547 19.6016 116.278 18.8633 116.067 17.9414C115.856 17.0117 115.75 15.8477 115.75 14.4492C115.75 13.5273 115.805 12.7148 115.915 12.0117C116.024 11.3008 116.172 10.6836 116.36 10.1602C116.547 9.63672 116.766 9.19922 117.016 8.84766C117.274 8.48828 117.547 8.19922 117.836 7.98047C118.133 7.76172 118.442 7.60547 118.762 7.51172C119.082 7.41797 119.399 7.37109 119.711 7.37109C119.954 7.38672 120.204 7.44141 120.461 7.53516C120.688 7.62109 120.942 7.75391 121.223 7.93359C121.504 8.11328 121.786 8.37109 122.067 8.70703L122.137 7.58203L124.891 7.875ZM121.997 10.8516C121.817 10.5469 121.606 10.2812 121.364 10.0547C121.129 9.82812 120.868 9.71484 120.579 9.71484C120.36 9.71484 120.137 9.79297 119.911 9.94922C119.692 10.0977 119.493 10.3594 119.313 10.7344C119.133 11.1016 118.985 11.5938 118.868 12.2109C118.758 12.8281 118.704 13.6055 118.704 14.543C118.704 15.4102 118.743 16.1289 118.821 16.6992C118.899 17.2695 119.004 17.7266 119.137 18.0703C119.27 18.4062 119.422 18.6445 119.594 18.7852C119.766 18.918 119.95 18.9844 120.145 18.9844C120.403 18.9844 120.625 18.9062 120.813 18.75C121.008 18.5938 121.172 18.4062 121.305 18.1875C121.438 17.9609 121.547 17.7266 121.633 17.4844C121.727 17.2422 121.805 17.0312 121.868 16.8516C121.883 15.8281 121.899 14.8203 121.915 13.8281C121.93 12.8359 121.957 11.8438 121.997 10.8516Z" stroke="black" stroke-width="4.6425" mask="url(#path-1-outside-1_1598_9504)"/>
</svg>
