<svg width="61" height="91" fill="none" xmlns="http://www.w3.org/2000/svg"><rect x=".39" y=".05" width="60.06" height="90.09" rx="4.62" fill="#fff"/><mask id="a" style="mask-type:alpha" maskUnits="userSpaceOnUse" x="1" y="1" width="58" height="87"><path d="M11.28 2.36h42.24a4.04 4.04 0 0 1 4.04 4.04v64.16c0 1.24-1 2.25-2.25 2.25a3.4 3.4 0 0 0-3.35 2.81l-1.12 6.39c-.16.9.25 1.8 1.03 2.26.9.54.53 1.92-.52 1.94l-44.94.94a4.04 4.04 0 0 1-4.13-4.18l2.04-62.75a2.94 2.94 0 0 1 2.95-2.85 4.1 4.1 0 0 0 4.1-4.1V8.23c0-.96-.46-1.87-1.23-2.44a1.9 1.9 0 0 1 1.14-3.42Z" fill="#C4C4C4" stroke="#000" stroke-width="1.15"/></mask><g mask="url(#a)"><rect x="6.17" y="5.25" width="49.66" height="79.69" rx="4.04" stroke="#000" stroke-width="1.15"/></g><path d="M16.7 19.68h-4.88c1.94-1.13 2.28-2.06 2.44-3.87L11 17.36c-1.78-1.2-1.87-1.87 0-3.1l3.26 1.55-1.63-3.88c1.03-2.02 2.03-1.94 3.25 0l-1.62 3.88 3.66-1.56c1.42 1.22 1.1 1.9 0 3.1l-3.66-1.54c.3 1.81.71 2.72 2.44 3.87Z" fill="#000"/><path d="M14.26 15.8c-.16 1.82-.5 2.75-2.44 3.88h4.88c-1.73-1.15-2.15-2.06-2.44-3.87Zm0 0L11 17.37c-1.78-1.2-1.87-1.87 0-3.1l3.26 1.55Zm0 0 1.62-3.87c-1.22-1.94-2.22-2.02-3.25 0l1.63 3.88Zm0 0 3.66-1.55c1.42 1.22 1.1 1.9 0 3.1l-3.66-1.54Z" stroke="#000" stroke-width="1.15"/><path d="M21.59 30.08h-4.27c1.7-1 2-1.8 2.13-3.4l-2.84 1.36c-1.56-1.04-1.64-1.63 0-2.71l2.84 1.35-1.42-3.39c.9-1.76 1.78-1.7 2.85 0l-1.43 3.4 3.2-1.36c1.25 1.06.98 1.65 0 2.71l-3.2-1.36c.26 1.6.63 2.38 2.14 3.4Z" fill="#000"/><path d="M19.45 26.68c-.13 1.6-.43 2.4-2.13 3.4h4.27c-1.5-1.02-1.88-1.8-2.14-3.4Zm0 0-2.84 1.36c-1.56-1.04-1.64-1.63 0-2.71l2.84 1.35Zm0 0 1.43-3.39c-1.07-1.7-1.95-1.76-2.85 0l1.42 3.4Zm0 0 3.2-1.35c1.25 1.06.98 1.65 0 2.71l-3.2-1.36Z" stroke="#000" stroke-width="1.15"/><path d="M40.4 30.08h4.28c-1.7-1-2-1.8-2.14-3.4l2.85 1.36c1.56-1.04 1.64-1.63 0-2.71l-2.85 1.35 1.43-3.39c-.9-1.76-1.78-1.7-2.85 0l1.42 3.4-3.2-1.36c-1.25 1.06-.97 1.65 0 2.71l3.2-1.36c-.25 1.6-.62 2.38-2.13 3.4Z" fill="#000"/><path d="M42.54 26.68c.14 1.6.44 2.4 2.14 3.4h-4.27c1.5-1.02 1.88-1.8 2.13-3.4Zm0 0 2.85 1.36c1.56-1.04 1.64-1.63 0-2.71l-2.85 1.35Zm0 0-1.42-3.39c1.07-1.7 1.95-1.76 2.85 0l-1.43 3.4Zm0 0-3.2-1.35c-1.25 1.06-.97 1.65 0 2.71l3.2-1.36Z" stroke="#000" stroke-width="1.15"/><path d="M40.4 60.1h4.28c-1.7 1-2 1.8-2.14 3.4l2.85-1.36c1.56 1.04 1.64 1.64 0 2.72l-2.85-1.36 1.43 3.4c-.9 1.76-1.78 1.7-2.85 0l1.42-3.4-3.2 1.36c-1.25-1.06-.97-1.66 0-2.72l3.2 1.36c-.25-1.6-.62-2.38-2.13-3.4Z" fill="#000"/><path d="M42.54 63.5c.14-1.6.44-2.4 2.14-3.4h-4.27c1.5 1.02 1.88 1.8 2.13 3.4Zm0 0 2.85-1.36c1.56 1.04 1.64 1.64 0 2.72l-2.85-1.36Zm0 0-1.42 3.4c1.07 1.7 1.95 1.76 2.85 0l-1.43-3.4Zm0 0-3.2 1.36c-1.25-1.06-.97-1.66 0-2.72l3.2 1.36Z" stroke="#000" stroke-width="1.15"/><path d="M21.59 60.1h-4.27c1.7 1 2 1.8 2.13 3.4l-2.84-1.36c-1.56 1.04-1.64 1.64 0 2.72l2.84-1.36-1.42 3.4c.9 1.76 1.78 1.7 2.85 0l-1.43-3.4 3.2 1.36c1.25-1.06.98-1.66 0-2.72l-3.2 1.36c.26-1.6.63-2.38 2.14-3.4Z" fill="#000"/><path d="M19.45 63.5c-.13-1.6-.43-2.4-2.13-3.4h4.27c-1.5 1.02-1.88 1.8-2.14 3.4Zm0 0-2.84-1.36c-1.56 1.04-1.64 1.64 0 2.72l2.84-1.36Zm0 0 1.43 3.4c-1.07 1.7-1.95 1.76-2.85 0l1.42-3.4Zm0 0 3.2 1.36c1.25-1.06.98-1.66 0-2.72l-3.2 1.36Z" stroke="#000" stroke-width="1.15"/><path d="M44.15 70.5h4.88c-1.94 1.14-2.29 2.06-2.44 3.88l3.25-1.55c1.78 1.19 1.87 1.87 0 3.1l-3.25-1.55 1.62 3.88c-1.03 2.01-2.03 1.94-3.25 0l1.63-3.88-3.66 1.55c-1.43-1.21-1.12-1.89 0-3.1l3.66 1.55c-.3-1.82-.72-2.72-2.44-3.88Z" fill="#000"/><path d="M46.59 74.38c.15-1.82.5-2.74 2.44-3.88h-4.88c1.72 1.16 2.14 2.06 2.44 3.88Zm0 0 3.25-1.55c1.78 1.19 1.87 1.87 0 3.1l-3.25-1.55Zm0 0-1.63 3.88c1.22 1.94 2.22 2.01 3.25 0l-1.62-3.88Zm0 0-3.66 1.55c-1.43-1.21-1.12-1.89 0-3.1l3.66 1.55Z" stroke="#000" stroke-width="1.15"/><path d="M5.73 14.63c-.31 0-.61-.05-.9-.13-.28-.09-.54-.21-.76-.38a1.9 1.9 0 0 1-.53-.64c-.12-.26-.19-.56-.19-.9 0-.27.04-.49.12-.66.08-.18.18-.32.3-.43a1.2 1.2 0 0 1 1.14-.24.94.94 0 0 1 .61.54 1.14 1.14 0 0 1 .02.9.76.76 0 0 1-.56.48c.13.14.27.25.42.32.16.07.29.1.4.1.11 0 .24-.03.37-.1.14-.06.27-.17.4-.33.11-.15.21-.35.3-.59.08-.24.12-.53.12-.88 0-.22-.02-.43-.07-.61a1.5 1.5 0 0 0-.6-.95 2.84 2.84 0 0 0-1.61-.6 12.97 12.97 0 0 0-1.17-.07l.27-3.72.4-.07a12.85 12.85 0 0 1 1.26-.12l.73-.05 1.83-.1-.06 1.47H7.7a11.24 11.24 0 0 0-.88-.02h-.51L5 6.8l-.1 1.43.5.04a3.5 3.5 0 0 1 1.42.44c.54.33.94.71 1.2 1.14.25.43.38.93.38 1.5a3.76 3.76 0 0 1-.74 2.24c-.23.3-.51.55-.84.74-.34.2-.7.29-1.1.29ZM55.12 75.56c.3 0 .6.04.89.13.28.08.54.2.76.38.22.17.4.38.53.64.13.25.2.55.2.9 0 .26-.05.48-.13.66a1.3 1.3 0 0 1-.3.43 1.2 1.2 0 0 1-1.14.24.94.94 0 0 1-.61-.55 1.14 1.14 0 0 1-.02-.9c.04-.1.1-.2.19-.29.08-.09.2-.15.36-.2a1.34 1.34 0 0 0-.4-.3c-.16-.08-.3-.11-.4-.11a.87.87 0 0 0-.38.1c-.14.07-.27.18-.4.33-.11.16-.21.35-.29.6-.08.23-.12.53-.12.87 0 .23.02.43.06.62a1.51 1.51 0 0 0 .6.95 2.85 2.85 0 0 0 1.61.6l.35.03c.26.03.54.04.82.04l-.27 3.71a12.88 12.88 0 0 1-1.66.2l-.73.04-1.83.1.07-1.46h.26a11.1 11.1 0 0 0 .88.01l.5.01 1.31.03.1-1.42-.5-.05a3.5 3.5 0 0 1-1.42-.44 3.44 3.44 0 0 1-1.19-1.14 2.88 2.88 0 0 1-.38-1.5 3.76 3.76 0 0 1 .73-2.23c.24-.3.52-.56.85-.75.33-.19.7-.28 1.1-.28ZM32.6 50.87h-5.5c2.19-1.42 2.57-2.58 2.75-4.85l-3.66 1.94c-2-1.49-2.11-2.34 0-3.88l3.66 1.94-1.83-4.85c1.16-2.52 2.29-2.42 3.66 0l-1.83 4.85 4.12-1.94c1.6 1.51 1.25 2.36 0 3.88l-4.12-1.94c.33 2.27.8 3.4 2.74 4.85Z" fill="#000"/><path d="M29.85 46.02c-.18 2.27-.56 3.43-2.75 4.85h5.5c-1.94-1.45-2.42-2.58-2.75-4.85Zm0 0-3.66 1.94c-2-1.49-2.11-2.34 0-3.88l3.66 1.94Zm0 0 1.83-4.85c-1.37-2.42-2.5-2.52-3.66 0l1.83 4.85Zm0 0 4.12-1.94c1.6 1.51 1.25 2.36 0 3.88l-4.12-1.94Z" stroke="#000" stroke-width="1.15"/></svg>