<svg width="61" height="91" viewBox="0 0 61 91" fill="none" xmlns="http://www.w3.org/2000/svg">
<rect x="0.392578" y="0.0498047" width="60.057" height="90.0855" rx="4.61977" fill="white"/>
<mask id="mask0_1592_9465" style="mask-type:alpha" maskUnits="userSpaceOnUse" x="1" y="1" width="58" height="87">
<path d="M11.2824 2.3597H53.5203C55.7528 2.3597 57.5626 4.1695 57.5626 6.402L57.5625 70.5625C57.5625 71.8044 56.5557 72.8112 55.3138 72.8112C53.6623 72.8112 52.249 73.9969 51.962 75.6233L50.8353 82.008C50.6771 82.9045 51.0881 83.8058 51.8687 84.2741C52.7655 84.8122 52.3997 86.1884 51.3541 86.2102L6.4077 87.1466C4.09103 87.1949 2.20803 85.2897 2.28334 82.9738L4.3241 20.222C4.37573 18.6343 5.67773 17.374 7.26623 17.374C9.52984 17.374 11.3649 15.5389 11.3649 13.2753L11.3649 8.21691C11.3649 7.25616 10.9125 6.35148 10.1439 5.77503C8.68518 4.68097 9.45894 2.3597 11.2824 2.3597Z" fill="#C4C4C4" stroke="black" stroke-width="1.15494"/>
</mask>
<g mask="url(#mask0_1592_9465)">
<rect x="6.1678" y="5.24715" width="49.6625" height="79.691" rx="4.0423" stroke="black" stroke-width="1.15494"/>
</g>
<path d="M33.7483 49.7123H28.2576C30.4417 48.2902 30.8287 47.1381 31.0029 44.8641L27.3425 46.8034C25.3404 45.3163 25.2353 44.4685 27.3425 42.9249L31.0029 44.8641L29.1726 40.0161C30.3319 37.4985 31.4602 37.5921 32.833 40.0161L31.0029 44.8641L35.1209 42.9249C36.7262 44.4397 36.3709 45.2886 35.1209 46.8034L31.0029 44.8641C31.3358 47.1385 31.8107 48.2643 33.7483 49.7123Z" fill="black"/>
<path d="M31.0029 44.8641C30.8287 47.1381 30.4417 48.2902 28.2576 49.7123H33.7483C31.8107 48.2643 31.3358 47.1385 31.0029 44.8641ZM31.0029 44.8641L27.3425 46.8034C25.3404 45.3163 25.2353 44.4685 27.3425 42.9249L31.0029 44.8641ZM31.0029 44.8641L32.833 40.0161C31.4602 37.5921 30.3319 37.4985 29.1726 40.0161L31.0029 44.8641ZM31.0029 44.8641L35.1209 42.9249C36.7262 44.4397 36.3709 45.2886 35.1209 46.8034L31.0029 44.8641Z" stroke="black" stroke-width="1.15494"/>
<path d="M16.6963 19.6839H11.8157C13.7571 18.5462 14.1011 17.6245 14.256 15.8054L11.0023 17.3568C9.22266 16.1671 9.12927 15.4889 11.0023 14.254L14.256 15.8054L12.629 11.9269C13.6595 9.91289 14.6625 9.98775 15.8828 11.9269L14.256 15.8054L17.9165 14.254C19.3434 15.4658 19.0275 16.145 17.9165 17.3568L14.256 15.8054C14.5519 17.6248 14.9741 18.5255 16.6963 19.6839Z" fill="black"/>
<path d="M14.256 15.8054C14.1011 17.6245 13.7571 18.5462 11.8157 19.6839H16.6963C14.9741 18.5255 14.5519 17.6248 14.256 15.8054ZM14.256 15.8054L11.0023 17.3568C9.22266 16.1671 9.12927 15.4889 11.0023 14.254L14.256 15.8054ZM14.256 15.8054L15.8828 11.9269C14.6625 9.98775 13.6595 9.91289 12.629 11.9269L14.256 15.8054ZM14.256 15.8054L17.9165 14.254C19.3434 15.4658 19.0275 16.145 17.9165 17.3568L14.256 15.8054Z" stroke="black" stroke-width="1.15494"/>
<path d="M21.5877 32.3881H17.3172C19.0159 31.3926 19.3169 30.5861 19.4525 28.9944L16.6055 30.3518C15.0483 29.3109 14.9666 28.7174 16.6055 27.6369L19.4525 28.9944L18.0289 25.6008C18.9305 23.8385 19.8081 23.904 20.8759 25.6008L19.4525 28.9944L22.6554 27.6369C23.9039 28.6972 23.6275 29.2915 22.6554 30.3518L19.4525 28.9944C19.7114 30.5864 20.0808 31.3745 21.5877 32.3881Z" fill="black"/>
<path d="M19.4525 28.9944C19.3169 30.5861 19.0159 31.3926 17.3172 32.3881H21.5877C20.0808 31.3745 19.7114 30.5864 19.4525 28.9944ZM19.4525 28.9944L16.6055 30.3518C15.0483 29.3109 14.9666 28.7174 16.6055 27.6369L19.4525 28.9944ZM19.4525 28.9944L20.8759 25.6008C19.8081 23.904 18.9305 23.8385 18.0289 25.6008L19.4525 28.9944ZM19.4525 28.9944L22.6554 27.6369C23.9039 28.6972 23.6275 29.2915 22.6554 30.3518L19.4525 28.9944Z" stroke="black" stroke-width="1.15494"/>
<path d="M40.4093 32.3881H44.6799C42.9811 31.3926 42.6801 30.5861 42.5446 28.9944L45.3916 30.3518C46.9488 29.3109 47.0305 28.7174 45.3916 27.6369L42.5446 28.9944L43.9682 25.6008C43.0665 23.8385 42.1889 23.904 41.1212 25.6008L42.5446 28.9944L39.3417 27.6369C38.0932 28.6972 38.3695 29.2915 39.3417 30.3518L42.5446 28.9944C42.2857 30.5864 41.9163 31.3745 40.4093 32.3881Z" fill="black"/>
<path d="M42.5446 28.9944C42.6801 30.5861 42.9811 31.3926 44.6799 32.3881H40.4093C41.9163 31.3745 42.2857 30.5864 42.5446 28.9944ZM42.5446 28.9944L45.3916 30.3518C46.9488 29.3109 47.0305 28.7174 45.3916 27.6369L42.5446 28.9944ZM42.5446 28.9944L41.1212 25.6008C42.1889 23.904 43.0665 23.8385 43.9682 25.6008L42.5446 28.9944ZM42.5446 28.9944L39.3417 27.6369C38.0932 28.6972 38.3695 29.2915 39.3417 30.3518L42.5446 28.9944Z" stroke="black" stroke-width="1.15494"/>
<path d="M21.5877 42.7826H17.3172C19.0159 41.7872 19.3169 40.9807 19.4525 39.3889L16.6055 40.7464C15.0483 39.7054 14.9666 39.112 16.6055 38.0314L19.4525 39.3889L18.0289 35.9953C18.9305 34.233 19.8081 34.2985 20.8759 35.9953L19.4525 39.3889L22.6554 38.0314C23.9039 39.0918 23.6275 39.686 22.6554 40.7464L19.4525 39.3889C19.7114 40.9809 20.0808 41.7691 21.5877 42.7826Z" fill="black"/>
<path d="M19.4525 39.3889C19.3169 40.9807 19.0159 41.7872 17.3172 42.7826H21.5877C20.0808 41.7691 19.7114 40.9809 19.4525 39.3889ZM19.4525 39.3889L16.6055 40.7464C15.0483 39.7054 14.9666 39.112 16.6055 38.0314L19.4525 39.3889ZM19.4525 39.3889L20.8759 35.9953C19.8081 34.2985 18.9305 34.233 18.0289 35.9953L19.4525 39.3889ZM19.4525 39.3889L22.6554 38.0314C23.9039 39.0918 23.6275 39.686 22.6554 40.7464L19.4525 39.3889Z" stroke="black" stroke-width="1.15494"/>
<path d="M40.4093 42.7826H44.6799C42.9811 41.7872 42.6801 40.9807 42.5446 39.3889L45.3916 40.7464C46.9488 39.7054 47.0305 39.112 45.3916 38.0314L42.5446 39.3889L43.9682 35.9953C43.0665 34.233 42.1889 34.2985 41.1212 35.9953L42.5446 39.3889L39.3417 38.0314C38.0932 39.0918 38.3695 39.686 39.3417 40.7464L42.5446 39.3889C42.2857 40.9809 41.9163 41.7691 40.4093 42.7826Z" fill="black"/>
<path d="M42.5446 39.3889C42.6801 40.9807 42.9811 41.7872 44.6799 42.7826H40.4093C41.9163 41.7691 42.2857 40.9809 42.5446 39.3889ZM42.5446 39.3889L45.3916 40.7464C46.9488 39.7054 47.0305 39.112 45.3916 38.0314L42.5446 39.3889ZM42.5446 39.3889L41.1212 35.9953C42.1889 34.2985 43.0665 34.233 43.9682 35.9953L42.5446 39.3889ZM42.5446 39.3889L39.3417 38.0314C38.0932 39.0918 38.3695 39.686 39.3417 40.7464L42.5446 39.3889Z" stroke="black" stroke-width="1.15494"/>
<path d="M21.5877 57.797H17.3172C19.0159 58.7924 19.3169 59.5989 19.4525 61.1907L16.6055 59.8332C15.0483 60.8742 14.9666 61.4676 16.6055 62.5482L19.4525 61.1907L18.0289 64.5843C18.9305 66.3466 19.8081 66.2811 20.8759 64.5843L19.4525 61.1907L22.6554 62.5482C23.9039 61.4878 23.6276 60.8935 22.6554 59.8332L19.4525 61.1907C19.7114 59.5987 20.0808 58.8105 21.5877 57.797Z" fill="black"/>
<path d="M19.4525 61.1907C19.3169 59.5989 19.0159 58.7924 17.3172 57.797H21.5877C20.0808 58.8105 19.7114 59.5987 19.4525 61.1907ZM19.4525 61.1907L16.6055 59.8332C15.0483 60.8742 14.9666 61.4676 16.6055 62.5482L19.4525 61.1907ZM19.4525 61.1907L20.8759 64.5843C19.8081 66.2811 18.9305 66.3466 18.0289 64.5843L19.4525 61.1907ZM19.4525 61.1907L22.6554 62.5482C23.9039 61.4878 23.6276 60.8935 22.6554 59.8332L19.4525 61.1907Z" stroke="black" stroke-width="1.15494"/>
<path d="M40.4093 57.797H44.6799C42.9811 58.7924 42.6801 59.5989 42.5446 61.1907L45.3916 59.8332C46.9488 60.8742 47.0305 61.4676 45.3916 62.5482L42.5446 61.1907L43.9682 64.5843C43.0665 66.3466 42.1889 66.2811 41.1212 64.5843L42.5446 61.1907L39.3417 62.5482C38.0932 61.4878 38.3695 60.8935 39.3417 59.8332L42.5446 61.1907C42.2857 59.5987 41.9163 58.8105 40.4093 57.797Z" fill="black"/>
<path d="M42.5446 61.1907C42.6801 59.5989 42.9811 58.7924 44.6799 57.797H40.4093C41.9163 58.8105 42.2857 59.5987 42.5446 61.1907ZM42.5446 61.1907L45.3916 59.8332C46.9488 60.8742 47.0305 61.4676 45.3916 62.5482L42.5446 61.1907ZM42.5446 61.1907L41.1212 64.5843C42.1889 66.2811 43.0665 66.3466 43.9682 64.5843L42.5446 61.1907ZM42.5446 61.1907L39.3417 62.5482C38.0932 61.4878 38.3695 60.8935 39.3417 59.8332L42.5446 61.1907Z" stroke="black" stroke-width="1.15494"/>
<path d="M21.5877 47.4025H17.3172C19.0159 48.3979 19.3169 49.2044 19.4525 50.7962L16.6055 49.4387C15.0483 50.4797 14.9666 51.0731 16.6055 52.1536L19.4525 50.7962L18.0289 54.1898C18.9305 55.9521 19.8081 55.8866 20.8759 54.1898L19.4525 50.7962L22.6554 52.1536C23.9039 51.0933 23.6276 50.499 22.6554 49.4387L19.4525 50.7962C19.7114 49.2041 20.0808 48.416 21.5877 47.4025Z" fill="black"/>
<path d="M19.4525 50.7962C19.3169 49.2044 19.0159 48.3979 17.3172 47.4025H21.5877C20.0808 48.416 19.7114 49.2041 19.4525 50.7962ZM19.4525 50.7962L16.6055 49.4387C15.0483 50.4797 14.9666 51.0731 16.6055 52.1536L19.4525 50.7962ZM19.4525 50.7962L20.8759 54.1898C19.8081 55.8866 18.9305 55.9521 18.0289 54.1898L19.4525 50.7962ZM19.4525 50.7962L22.6554 52.1536C23.9039 51.0933 23.6276 50.499 22.6554 49.4387L19.4525 50.7962Z" stroke="black" stroke-width="1.15494"/>
<path d="M40.4093 47.4025H44.6799C42.9811 48.3979 42.6801 49.2044 42.5446 50.7962L45.3916 49.4387C46.9488 50.4797 47.0305 51.0731 45.3916 52.1536L42.5446 50.7962L43.9682 54.1898C43.0665 55.9521 42.1889 55.8866 41.1212 54.1898L42.5446 50.7962L39.3417 52.1536C38.0932 51.0933 38.3695 50.499 39.3417 49.4387L42.5446 50.7962C42.2857 49.2041 41.9163 48.416 40.4093 47.4025Z" fill="black"/>
<path d="M42.5446 50.7962C42.6801 49.2044 42.9811 48.3979 44.6799 47.4025H40.4093C41.9163 48.416 42.2857 49.2041 42.5446 50.7962ZM42.5446 50.7962L45.3916 49.4387C46.9488 50.4797 47.0305 51.0731 45.3916 52.1536L42.5446 50.7962ZM42.5446 50.7962L41.1212 54.1898C42.1889 55.8866 43.0665 55.9521 43.9682 54.1898L42.5446 50.7962ZM42.5446 50.7962L39.3417 52.1536C38.0932 51.0933 38.3695 50.499 39.3417 49.4387L42.5446 50.7962Z" stroke="black" stroke-width="1.15494"/>
<path d="M44.146 70.5012L49.0266 70.5012C47.0852 71.6388 46.7412 72.5605 46.5863 74.3797L49.84 72.8283C51.6196 74.018 51.713 74.6962 49.84 75.9311L46.5863 74.3797L48.2133 78.2581C47.1828 80.2722 46.1798 80.1973 44.9595 78.2581L46.5863 74.3797L42.9258 75.9311C41.4989 74.7193 41.8148 74.0401 42.9258 72.8283L46.5863 74.3797C46.2903 72.5602 45.8682 71.6595 44.146 70.5012Z" fill="black"/>
<path d="M46.5863 74.3797C46.7412 72.5605 47.0852 71.6388 49.0266 70.5012L44.146 70.5012C45.8682 71.6595 46.2903 72.5602 46.5863 74.3797ZM46.5863 74.3797L49.84 72.8283C51.6196 74.018 51.713 74.6962 49.84 75.9311L46.5863 74.3797ZM46.5863 74.3797L44.9595 78.2581C46.1798 80.1973 47.1828 80.2722 48.2133 78.2581L46.5863 74.3797ZM46.5863 74.3797L42.9258 75.9311C41.4989 74.7193 41.8148 74.0401 42.9258 72.8283L46.5863 74.3797Z" stroke="black" stroke-width="1.15494"/>
<path d="M3.48558 8.08187C3.48559 7.62697 3.53935 7.22375 3.64687 6.87223C3.7544 6.52071 3.91155 6.22502 4.11832 5.98516C4.3251 5.74116 4.5815 5.55713 4.88753 5.43306C5.1977 5.30486 5.55336 5.24076 5.9545 5.24076C6.40114 5.24076 6.80436 5.34208 7.16415 5.54472C7.52394 5.74736 7.82997 6.05339 8.08224 6.46281C8.33864 6.87223 8.53508 7.38504 8.67155 8.00123C8.80802 8.61329 8.87626 9.33081 8.87626 10.1538C8.87625 10.9768 8.78734 11.6798 8.60951 12.2629C8.43582 12.846 8.20423 13.3237 7.91474 13.6959C7.62525 14.0681 7.29441 14.3389 6.92221 14.5085C6.55415 14.6822 6.17575 14.769 5.78701 14.769C5.39827 14.769 5.06742 14.7111 4.79448 14.5953C4.52567 14.4837 4.30648 14.341 4.13693 14.1673C3.96737 13.9895 3.8433 13.7972 3.76473 13.5904C3.69029 13.3795 3.65307 13.1789 3.65307 12.9887C3.65307 12.7985 3.67995 12.633 3.73371 12.4924C3.79161 12.3477 3.86605 12.2298 3.95703 12.1388C4.04801 12.0437 4.14934 11.9734 4.261 11.9279C4.37679 11.8824 4.49052 11.8597 4.60218 11.8597C4.71797 11.8597 4.82963 11.8742 4.93716 11.9031C5.04468 11.9321 5.1398 11.9817 5.22251 12.052C5.30935 12.1223 5.37759 12.2174 5.42722 12.3373C5.48098 12.4531 5.50786 12.5979 5.50786 12.7716C5.50372 12.8584 5.49338 12.9453 5.47684 13.0321C5.4603 13.1066 5.43342 13.1851 5.3962 13.2678C5.35898 13.3505 5.30728 13.4271 5.24112 13.4974C5.29901 13.5718 5.36518 13.6276 5.43962 13.6648C5.5182 13.7021 5.59264 13.731 5.66294 13.7517C5.74152 13.7724 5.82009 13.7848 5.89867 13.7889C6.05995 13.7889 6.22124 13.7207 6.38252 13.5842C6.54795 13.4436 6.69683 13.2285 6.82916 12.9391C6.96564 12.6496 7.0773 12.2815 7.16414 11.8349C7.25512 11.3841 7.30475 10.8485 7.31302 10.2282C7.08143 10.526 6.82296 10.7472 6.53761 10.892C6.25639 11.0367 5.9669 11.1091 5.66915 11.1091C5.39207 11.1091 5.12326 11.045 4.86272 10.9168C4.60218 10.7886 4.36852 10.5983 4.16174 10.3461C3.9591 10.0897 3.79575 9.77331 3.67168 9.39698C3.54762 9.02064 3.48558 8.58227 3.48558 8.08187ZM5.91108 6.2519C5.60505 6.2519 5.36519 6.41319 5.19149 6.73576C5.02194 7.05419 4.93716 7.5029 4.93716 8.08187C4.93716 8.35068 4.96197 8.59675 5.0116 8.82007C5.06536 9.04339 5.13773 9.23362 5.22871 9.39077C5.32383 9.54792 5.43549 9.66992 5.56369 9.75677C5.69603 9.84361 5.8387 9.88704 5.99172 9.88704C6.18195 9.88704 6.38666 9.81053 6.60585 9.65751C6.82503 9.5045 7.04215 9.25843 7.25719 8.91932C7.21997 8.46855 7.16001 8.07774 7.0773 7.7469C6.99459 7.41192 6.89327 7.13484 6.77334 6.91565C6.65754 6.69233 6.52521 6.52691 6.37633 6.41939C6.23158 6.30773 6.0765 6.2519 5.91108 6.2519Z" fill="black"/>
<path d="M57.3567 82.1032C57.3567 82.5581 57.3029 82.9613 57.1954 83.3128C57.0879 83.6643 56.9307 83.96 56.724 84.1999C56.5172 84.4439 56.2608 84.6279 55.9548 84.752C55.6446 84.8802 55.2889 84.9443 54.8878 84.9443C54.4411 84.9443 54.0379 84.843 53.6781 84.6403C53.3183 84.4377 53.0123 84.1317 52.7601 83.7222C52.5036 83.3128 52.3072 82.8 52.1707 82.1838C52.0343 81.5718 51.966 80.8543 51.966 80.0313C51.966 79.2083 52.0549 78.5053 52.2328 77.9222C52.4065 77.339 52.6381 76.8614 52.9275 76.4892C53.217 76.117 53.5479 75.8461 53.9201 75.6766C54.2881 75.5029 54.6665 75.416 55.0553 75.416C55.444 75.416 55.7749 75.4739 56.0478 75.5897C56.3166 75.7014 56.5358 75.844 56.7054 76.0177C56.8749 76.1956 56.999 76.3879 57.0776 76.5946C57.152 76.8056 57.1892 77.0061 57.1892 77.1964C57.1892 77.3866 57.1623 77.552 57.1086 77.6926C57.0507 77.8374 56.9762 77.9552 56.8853 78.0462C56.7943 78.1413 56.693 78.2116 56.5813 78.2571C56.4655 78.3026 56.3518 78.3254 56.2401 78.3254C56.1243 78.3254 56.0127 78.3109 55.9051 78.2819C55.7976 78.253 55.7025 78.2034 55.6198 78.1331C55.5329 78.0628 55.4647 77.9676 55.4151 77.8477C55.3613 77.7319 55.3344 77.5872 55.3344 77.4135C55.3386 77.3266 55.3489 77.2398 55.3654 77.1529C55.382 77.0785 55.4089 76.9999 55.4461 76.9172C55.4833 76.8345 55.535 76.758 55.6012 76.6877C55.5433 76.6133 55.4771 76.5574 55.4027 76.5202C55.3241 76.483 55.2496 76.454 55.1793 76.4334C55.1008 76.4127 55.0222 76.4003 54.9436 76.3961C54.7823 76.3961 54.621 76.4644 54.4598 76.6009C54.2943 76.7415 54.1455 76.9565 54.0131 77.246C53.8767 77.5355 53.765 77.9035 53.6781 78.3502C53.5872 78.801 53.5375 79.3365 53.5293 79.9568C53.7609 79.6591 54.0193 79.4378 54.3047 79.2931C54.5859 79.1483 54.8754 79.076 55.1731 79.076C55.4502 79.076 55.719 79.1401 55.9796 79.2683C56.2401 79.3965 56.4738 79.5867 56.6805 79.839C56.8832 80.0954 57.0465 80.4117 57.1706 80.7881C57.2947 81.1644 57.3567 81.6028 57.3567 82.1032ZM54.9312 83.9332C55.2372 83.9332 55.4771 83.7719 55.6508 83.4493C55.8203 83.1309 55.9051 82.6822 55.9051 82.1032C55.9051 81.8344 55.8803 81.5883 55.8307 81.365C55.7769 81.1417 55.7046 80.9514 55.6136 80.7943C55.5185 80.6371 55.4068 80.5151 55.2786 80.4283C55.1463 80.3414 55.0036 80.298 54.8506 80.298C54.6603 80.298 54.4556 80.3745 54.2364 80.5275C54.0173 80.6806 53.8001 80.9266 53.5851 81.2657C53.6223 81.7165 53.6823 82.1073 53.765 82.4382C53.8477 82.7731 53.949 83.0502 54.0689 83.2694C54.1847 83.4927 54.3171 83.6581 54.466 83.7657C54.6107 83.8773 54.7658 83.9332 54.9312 83.9332Z" fill="black"/>
</svg>
