<svg width="61" height="91" viewBox="0 0 61 91" fill="none" xmlns="http://www.w3.org/2000/svg">
<rect x="0.392578" y="0.0498047" width="60.057" height="90.0855" rx="4.61977" fill="white"/>
<mask id="mask0_1592_9465" style="mask-type:alpha" maskUnits="userSpaceOnUse" x="1" y="1" width="58" height="87">
<path d="M11.2824 2.3597H53.5203C55.7528 2.3597 57.5626 4.1695 57.5626 6.402L57.5625 70.5625C57.5625 71.8044 56.5557 72.8112 55.3138 72.8112C53.6623 72.8112 52.249 73.9969 51.962 75.6233L50.8353 82.008C50.6771 82.9045 51.0881 83.8058 51.8687 84.2741C52.7655 84.8122 52.3997 86.1884 51.3541 86.2102L6.4077 87.1466C4.09103 87.1949 2.20803 85.2897 2.28334 82.9738L4.3241 20.222C4.37573 18.6343 5.67773 17.374 7.26623 17.374C9.52984 17.374 11.3649 15.5389 11.3649 13.2753L11.3649 8.21691C11.3649 7.25616 10.9125 6.35148 10.1439 5.77503C8.68518 4.68097 9.45894 2.3597 11.2824 2.3597Z" fill="#C4C4C4" stroke="black" stroke-width="1.15494"/>
</mask>
<g mask="url(#mask0_1592_9465)">
<rect x="6.1678" y="5.24715" width="49.6625" height="79.691" rx="4.0423" stroke="black" stroke-width="1.15494"/>
</g>
<path d="M16.6963 19.6839H11.8157C13.7571 18.5462 14.1011 17.6245 14.256 15.8054L11.0023 17.3568C9.22266 16.1671 9.12927 15.4889 11.0023 14.254L14.256 15.8054L12.629 11.9269C13.6595 9.91289 14.6625 9.98775 15.8828 11.9269L14.256 15.8054L17.9165 14.254C19.3434 15.4658 19.0275 16.145 17.9165 17.3568L14.256 15.8054C14.5519 17.6248 14.9741 18.5255 16.6963 19.6839Z" fill="black"/>
<path d="M14.256 15.8054C14.1011 17.6245 13.7571 18.5462 11.8157 19.6839H16.6963C14.9741 18.5255 14.5519 17.6248 14.256 15.8054ZM14.256 15.8054L11.0023 17.3568C9.22266 16.1671 9.12927 15.4889 11.0023 14.254L14.256 15.8054ZM14.256 15.8054L15.8828 11.9269C14.6625 9.98775 13.6595 9.91289 12.629 11.9269L14.256 15.8054ZM14.256 15.8054L17.9165 14.254C19.3434 15.4658 19.0275 16.145 17.9165 17.3568L14.256 15.8054Z" stroke="black" stroke-width="1.15494"/>
<path d="M21.5877 30.0783H17.3172C19.0159 29.0828 19.3169 28.2763 19.4525 26.6846L16.6055 28.042C15.0483 27.001 14.9666 26.4076 16.6055 25.3271L19.4525 26.6846L18.0289 23.2909C18.9305 21.5286 19.8081 21.5941 20.8759 23.2909L19.4525 26.6846L22.6554 25.3271C23.9039 26.3874 23.6275 26.9817 22.6554 28.042L19.4525 26.6846C19.7114 28.2766 20.0808 29.0647 21.5877 30.0783Z" fill="black"/>
<path d="M19.4525 26.6846C19.3169 28.2763 19.0159 29.0828 17.3172 30.0783H21.5877C20.0808 29.0647 19.7114 28.2766 19.4525 26.6846ZM19.4525 26.6846L16.6055 28.042C15.0483 27.001 14.9666 26.4076 16.6055 25.3271L19.4525 26.6846ZM19.4525 26.6846L20.8759 23.2909C19.8081 21.5941 18.9305 21.5286 18.0289 23.2909L19.4525 26.6846ZM19.4525 26.6846L22.6554 25.3271C23.9039 26.3874 23.6275 26.9817 22.6554 28.042L19.4525 26.6846Z" stroke="black" stroke-width="1.15494"/>
<path d="M40.4093 30.0783H44.6799C42.9811 29.0828 42.6801 28.2763 42.5446 26.6846L45.3916 28.042C46.9488 27.001 47.0305 26.4076 45.3916 25.3271L42.5446 26.6846L43.9682 23.2909C43.0665 21.5286 42.1889 21.5941 41.1212 23.2909L42.5446 26.6846L39.3417 25.3271C38.0932 26.3874 38.3695 26.9817 39.3417 28.042L42.5446 26.6846C42.2857 28.2766 41.9163 29.0647 40.4093 30.0783Z" fill="black"/>
<path d="M42.5446 26.6846C42.6801 28.2763 42.9811 29.0828 44.6799 30.0783H40.4093C41.9163 29.0647 42.2857 28.2766 42.5446 26.6846ZM42.5446 26.6846L45.3916 28.042C46.9488 27.001 47.0305 26.4076 45.3916 25.3271L42.5446 26.6846ZM42.5446 26.6846L41.1212 23.2909C42.1889 21.5941 43.0665 21.5286 43.9682 23.2909L42.5446 26.6846ZM42.5446 26.6846L39.3417 25.3271C38.0932 26.3874 38.3695 26.9817 39.3417 28.042L42.5446 26.6846Z" stroke="black" stroke-width="1.15494"/>
<path d="M28.86 40.4728H33.1305C31.4318 39.4774 31.1308 38.6709 30.9953 37.0791L33.8423 38.4366C35.3995 37.3956 35.4812 36.8021 33.8423 35.7216L30.9953 37.0791L32.4189 33.6855C31.5172 31.9232 30.6396 31.9887 29.5719 33.6855L30.9953 37.0791L27.7924 35.7216C26.5438 36.782 26.8202 37.3762 27.7924 38.4366L30.9953 37.0791C30.7363 38.6711 30.367 39.4592 28.86 40.4728Z" fill="black"/>
<path d="M30.9953 37.0791C31.1308 38.6709 31.4318 39.4774 33.1305 40.4728H28.86C30.367 39.4592 30.7363 38.6711 30.9953 37.0791ZM30.9953 37.0791L33.8423 38.4366C35.3995 37.3956 35.4812 36.8021 33.8423 35.7216L30.9953 37.0791ZM30.9953 37.0791L29.5719 33.6855C30.6396 31.9887 31.5172 31.9232 32.4189 33.6855L30.9953 37.0791ZM30.9953 37.0791L27.7924 35.7216C26.5438 36.782 26.8202 37.3762 27.7924 38.4366L30.9953 37.0791Z" stroke="black" stroke-width="1.15494"/>
<path d="M21.5877 47.4025H17.3172C19.0159 46.407 19.3169 45.6005 19.4525 44.0088L16.6055 45.3663C15.0483 44.3253 14.9666 43.7318 16.6055 42.6513L19.4525 44.0088L18.0289 40.6152C18.9305 38.8529 19.8081 38.9184 20.8759 40.6152L19.4525 44.0088L22.6554 42.6513C23.9039 43.7117 23.6275 44.3059 22.6554 45.3663L19.4525 44.0088C19.7114 45.6008 20.0808 46.3889 21.5877 47.4025Z" fill="black"/>
<path d="M19.4525 44.0088C19.3169 45.6005 19.0159 46.407 17.3172 47.4025H21.5877C20.0808 46.3889 19.7114 45.6008 19.4525 44.0088ZM19.4525 44.0088L16.6055 45.3663C15.0483 44.3253 14.9666 43.7318 16.6055 42.6513L19.4525 44.0088ZM19.4525 44.0088L20.8759 40.6152C19.8081 38.9184 18.9305 38.8529 18.0289 40.6152L19.4525 44.0088ZM19.4525 44.0088L22.6554 42.6513C23.9039 43.7117 23.6275 44.3059 22.6554 45.3663L19.4525 44.0088Z" stroke="black" stroke-width="1.15494"/>
<path d="M40.4093 47.4025H44.6799C42.9811 46.407 42.6801 45.6005 42.5446 44.0088L45.3916 45.3663C46.9488 44.3253 47.0305 43.7318 45.3916 42.6513L42.5446 44.0088L43.9682 40.6152C43.0665 38.8529 42.1889 38.9184 41.1212 40.6152L42.5446 44.0088L39.3417 42.6513C38.0932 43.7117 38.3695 44.3059 39.3417 45.3663L42.5446 44.0088C42.2857 45.6008 41.9163 46.3889 40.4093 47.4025Z" fill="black"/>
<path d="M42.5446 44.0088C42.6801 45.6005 42.9811 46.407 44.6799 47.4025H40.4093C41.9163 46.3889 42.2857 45.6008 42.5446 44.0088ZM42.5446 44.0088L45.3916 45.3663C46.9488 44.3253 47.0305 43.7318 45.3916 42.6513L42.5446 44.0088ZM42.5446 44.0088L41.1212 40.6152C42.1889 38.9184 43.0665 38.8529 43.9682 40.6152L42.5446 44.0088ZM42.5446 44.0088L39.3417 42.6513C38.0932 43.7117 38.3695 44.3059 39.3417 45.3663L42.5446 44.0088Z" stroke="black" stroke-width="1.15494"/>
<path d="M33.1371 49.7123L28.8665 49.7123C30.5653 50.7077 30.8663 51.5142 31.0018 53.106L28.1548 51.7485C26.5976 52.7895 26.5159 53.3829 28.1548 54.4635L31.0018 53.106L29.5782 56.4996C30.4799 58.2619 31.3574 58.1964 32.4252 56.4996L31.0018 53.106L34.2047 54.4635C35.4532 53.4031 35.1769 52.8088 34.2047 51.7485L31.0018 53.106C31.2607 51.5139 31.6301 50.7258 33.1371 49.7123Z" fill="black"/>
<path d="M31.0018 53.106C30.8663 51.5142 30.5653 50.7077 28.8665 49.7123L33.1371 49.7123C31.6301 50.7258 31.2607 51.5139 31.0018 53.106ZM31.0018 53.106L28.1548 51.7485C26.5976 52.7895 26.5159 53.3829 28.1548 54.4635L31.0018 53.106ZM31.0018 53.106L32.4252 56.4996C31.3574 58.1964 30.4799 58.2619 29.5782 56.4996L31.0018 53.106ZM31.0018 53.106L34.2047 54.4635C35.4532 53.4031 35.1769 52.8088 34.2047 51.7485L31.0018 53.106Z" stroke="black" stroke-width="1.15494"/>
<path d="M40.4093 60.1068L44.6799 60.1068C42.9811 61.1022 42.6801 61.9087 42.5446 63.5005L45.3916 62.143C46.9488 63.184 47.0305 63.7775 45.3916 64.858L42.5446 63.5005L43.9682 66.8941C43.0665 68.6564 42.1889 68.5909 41.1212 66.8941L42.5446 63.5005L39.3417 64.858C38.0932 63.7976 38.3695 63.2034 39.3417 62.143L42.5446 63.5005C42.2857 61.9085 41.9163 61.1204 40.4093 60.1068Z" fill="black"/>
<path d="M42.5446 63.5005C42.6801 61.9087 42.9811 61.1022 44.6799 60.1068L40.4093 60.1068C41.9163 61.1204 42.2857 61.9085 42.5446 63.5005ZM42.5446 63.5005L45.3916 62.143C46.9488 63.184 47.0305 63.7775 45.3916 64.858L42.5446 63.5005ZM42.5446 63.5005L41.1212 66.8941C42.1889 68.5909 43.0665 68.6564 43.9682 66.8941L42.5446 63.5005ZM42.5446 63.5005L39.3417 64.858C38.0932 63.7976 38.3695 63.2034 39.3417 62.143L42.5446 63.5005Z" stroke="black" stroke-width="1.15494"/>
<path d="M21.5877 60.1068L17.3172 60.1068C19.0159 61.1022 19.3169 61.9087 19.4525 63.5005L16.6055 62.143C15.0483 63.184 14.9666 63.7775 16.6055 64.858L19.4525 63.5005L18.0289 66.8941C18.9305 68.6564 19.8081 68.5909 20.8759 66.8941L19.4525 63.5005L22.6554 64.858C23.9039 63.7976 23.6276 63.2034 22.6554 62.143L19.4525 63.5005C19.7114 61.9085 20.0808 61.1204 21.5877 60.1068Z" fill="black"/>
<path d="M19.4525 63.5005C19.3169 61.9087 19.0159 61.1022 17.3172 60.1068L21.5877 60.1068C20.0808 61.1204 19.7114 61.9085 19.4525 63.5005ZM19.4525 63.5005L16.6055 62.143C15.0483 63.184 14.9666 63.7775 16.6055 64.858L19.4525 63.5005ZM19.4525 63.5005L20.8759 66.8941C19.8081 68.5909 18.9305 68.6564 18.0289 66.8941L19.4525 63.5005ZM19.4525 63.5005L22.6554 64.858C23.9039 63.7976 23.6276 63.2034 22.6554 62.143L19.4525 63.5005Z" stroke="black" stroke-width="1.15494"/>
<path d="M44.146 70.5012L49.0266 70.5012C47.0852 71.6388 46.7412 72.5605 46.5863 74.3797L49.84 72.8283C51.6196 74.018 51.713 74.6962 49.84 75.9311L46.5863 74.3797L48.2133 78.2581C47.1828 80.2722 46.1798 80.1973 44.9595 78.2581L46.5863 74.3797L42.9258 75.9311C41.4989 74.7193 41.8148 74.0401 42.9258 72.8283L46.5863 74.3797C46.2903 72.5602 45.8682 71.6595 44.146 70.5012Z" fill="black"/>
<path d="M46.5863 74.3797C46.7412 72.5605 47.0852 71.6388 49.0266 70.5012L44.146 70.5012C45.8682 71.6595 46.2903 72.5602 46.5863 74.3797ZM46.5863 74.3797L49.84 72.8283C51.6196 74.018 51.713 74.6962 49.84 75.9311L46.5863 74.3797ZM46.5863 74.3797L44.9595 78.2581C46.1798 80.1973 47.1828 80.2722 48.2133 78.2581L46.5863 74.3797ZM46.5863 74.3797L42.9258 75.9311C41.4989 74.7193 41.8148 74.0401 42.9258 72.8283L46.5863 74.3797Z" stroke="black" stroke-width="1.15494"/>
<path d="M5.70263 14.5767C5.39246 14.5767 5.08643 14.523 4.78454 14.4154C4.48264 14.3079 4.21177 14.1466 3.97191 13.9316C3.73618 13.7165 3.54388 13.4498 3.395 13.1314C3.24612 12.8088 3.17168 12.4345 3.17168 12.0086C3.17168 11.7232 3.21097 11.4689 3.28954 11.2456C3.37226 11.0222 3.47771 10.8279 3.60591 10.6624C3.73825 10.4929 3.88506 10.3481 4.04635 10.2282C4.21177 10.1083 4.37926 10.0111 4.54882 9.93666C4.37926 9.84155 4.21177 9.72368 4.04635 9.58307C3.88506 9.43833 3.73825 9.27084 3.60591 9.08061C3.47771 8.88624 3.37226 8.66705 3.28955 8.42306C3.21097 8.17906 3.17168 7.91025 3.17168 7.61663C3.17168 7.19067 3.24612 6.81847 3.395 6.50003C3.54388 6.17746 3.73619 5.90865 3.97191 5.6936C4.21177 5.47855 4.48265 5.31727 4.78455 5.20974C5.08644 5.10222 5.39247 5.04846 5.70263 5.04846C6.0128 5.04846 6.31676 5.10222 6.61452 5.20974C6.91641 5.31727 7.18729 5.47855 7.42715 5.6936C7.66701 5.90865 7.85932 6.17746 8.00406 6.50003C8.15294 6.81847 8.22738 7.19067 8.22738 7.61663C8.22738 7.91025 8.18809 8.17906 8.10951 8.42306C8.03094 8.66705 7.92548 8.88624 7.79315 9.08061C7.66494 9.27084 7.51813 9.43833 7.35271 9.58307C7.19142 9.72368 7.026 9.84155 6.85645 9.93666C7.026 10.0111 7.19142 10.1083 7.35271 10.2282C7.51813 10.3481 7.66494 10.4929 7.79314 10.6624C7.92548 10.8279 8.03094 11.0222 8.10951 11.2456C8.18809 11.4689 8.22737 11.7232 8.22737 12.0086C8.22737 12.4345 8.15293 12.8088 8.00405 13.1314C7.85931 13.4498 7.66701 13.7165 7.42715 13.9316C7.18729 14.1466 6.91641 14.3079 6.61451 14.4154C6.31675 14.523 6.01279 14.5767 5.70263 14.5767ZM6.74479 7.29405C6.74479 7.12863 6.71377 6.97769 6.65174 6.84121C6.58971 6.70061 6.50906 6.58067 6.40981 6.48142C6.31469 6.38217 6.20717 6.30566 6.08724 6.2519C5.97144 6.194 5.85565 6.16505 5.73985 6.16505C5.60752 6.16505 5.47518 6.194 5.34284 6.2519C5.21464 6.30566 5.09885 6.38217 4.99546 6.48142C4.8962 6.58067 4.81556 6.70061 4.75353 6.84121C4.69149 6.97769 4.66048 7.12863 4.66048 7.29405C4.66048 7.6249 4.69149 7.90818 4.75353 8.14391C4.8197 8.37963 4.90241 8.57814 5.00166 8.73942C5.10505 8.90071 5.21671 9.03098 5.33664 9.13023C5.4607 9.22535 5.5827 9.29979 5.70263 9.35355C5.81843 9.29565 5.93629 9.21708 6.05622 9.11783C6.18029 9.01857 6.29195 8.8883 6.3912 8.72702C6.49459 8.5616 6.57937 8.36309 6.64553 8.1315C6.7117 7.89578 6.74479 7.61663 6.74479 7.29405ZM4.66047 12.3249C4.66047 12.4945 4.69356 12.6496 4.75973 12.7902C4.8259 12.9267 4.91067 13.0445 5.01406 13.1438C5.11745 13.243 5.23325 13.3216 5.36145 13.3795C5.48965 13.4333 5.61578 13.4601 5.73985 13.4601C5.85564 13.4601 5.97144 13.4333 6.08723 13.3795C6.20716 13.3216 6.31469 13.243 6.40981 13.1438C6.50906 13.0445 6.5897 12.9267 6.65173 12.7902C6.71377 12.6496 6.74478 12.4945 6.74478 12.3249C6.74478 12.0148 6.7117 11.748 6.64553 11.5247C6.5835 11.3014 6.50079 11.1132 6.3974 10.9602C6.29815 10.8072 6.18649 10.6852 6.06242 10.5942C5.93836 10.5032 5.81843 10.4329 5.70263 10.3833C5.5827 10.4329 5.4607 10.5032 5.33664 10.5942C5.2167 10.6852 5.10505 10.8072 5.00166 10.9602C4.9024 11.1091 4.81969 11.2952 4.75352 11.5185C4.69149 11.7418 4.66047 12.0106 4.66047 12.3249Z" fill="black"/>
<path d="M55.1397 75.6083C55.4498 75.6083 55.7559 75.6621 56.0577 75.7696C56.3596 75.8771 56.6305 76.0384 56.8704 76.2535C57.1061 76.4685 57.2984 76.7353 57.4473 77.0537C57.5962 77.3763 57.6706 77.7505 57.6706 78.1765C57.6706 78.4618 57.6313 78.7162 57.5527 78.9395C57.47 79.1628 57.3646 79.3572 57.2364 79.5226C57.104 79.6922 56.9572 79.8369 56.7959 79.9568C56.6305 80.0768 56.463 80.174 56.2935 80.2484C56.463 80.3435 56.6305 80.4614 56.7959 80.602C56.9572 80.7467 57.104 80.9142 57.2364 81.1045C57.3646 81.2988 57.47 81.518 57.5527 81.762C57.6313 82.006 57.6706 82.2748 57.6706 82.5684C57.6706 82.9944 57.5962 83.3666 57.4473 83.685C57.2984 84.0076 57.1061 84.2764 56.8704 84.4915C56.6305 84.7065 56.3596 84.8678 56.0577 84.9753C55.7558 85.0828 55.4498 85.1366 55.1397 85.1366C54.8295 85.1366 54.5255 85.0828 54.2278 84.9753C53.9259 84.8678 53.655 84.7065 53.4151 84.4915C53.1753 84.2764 52.983 84.0076 52.8382 83.685C52.6893 83.3666 52.6149 82.9944 52.6149 82.5684C52.6149 82.2748 52.6542 82.006 52.7328 81.762C52.8113 81.518 52.9168 81.2988 53.0491 81.1045C53.1773 80.9142 53.3242 80.7467 53.4896 80.602C53.6509 80.4614 53.8163 80.3435 53.9858 80.2484C53.8163 80.174 53.6509 80.0768 53.4896 79.9568C53.3242 79.8369 53.1773 79.6922 53.0491 79.5226C52.9168 79.3572 52.8113 79.1628 52.7328 78.9395C52.6542 78.7162 52.6149 78.4618 52.6149 78.1765C52.6149 77.7505 52.6894 77.3763 52.8382 77.0537C52.983 76.7353 53.1753 76.4685 53.4151 76.2535C53.655 76.0384 53.9259 75.8771 54.2278 75.7696C54.5255 75.6621 54.8295 75.6083 55.1397 75.6083ZM54.0975 82.891C54.0975 83.0564 54.1285 83.2074 54.1905 83.3438C54.2526 83.4845 54.3332 83.6044 54.4325 83.7036C54.5276 83.8029 54.6351 83.8794 54.755 83.9332C54.8708 83.9911 54.9866 84.02 55.1024 84.02C55.2348 84.02 55.3671 83.9911 55.4994 83.9332C55.6276 83.8794 55.7434 83.8029 55.8468 83.7036C55.9461 83.6044 56.0267 83.4845 56.0888 83.3438C56.1508 83.2074 56.1818 83.0564 56.1818 82.891C56.1818 82.5602 56.1508 82.2769 56.0888 82.0412C56.0226 81.8054 55.9399 81.6069 55.8406 81.4456C55.7372 81.2843 55.6256 81.1541 55.5056 81.0548C55.3816 80.9597 55.2596 80.8853 55.1397 80.8315C55.0239 80.8894 54.906 80.968 54.7861 81.0672C54.662 81.1665 54.5503 81.2968 54.4511 81.458C54.3477 81.6235 54.2629 81.822 54.1968 82.0536C54.1306 82.2893 54.0975 82.5684 54.0975 82.891ZM56.1818 77.8601C56.1818 77.6906 56.1487 77.5355 56.0826 77.3949C56.0164 77.2584 55.9316 77.1405 55.8282 77.0413C55.7248 76.942 55.609 76.8635 55.4808 76.8056C55.3526 76.7518 55.2265 76.7249 55.1024 76.7249C54.9866 76.7249 54.8708 76.7518 54.7551 76.8056C54.6351 76.8635 54.5276 76.942 54.4325 77.0413C54.3332 77.1405 54.2526 77.2584 54.1906 77.3949C54.1285 77.5355 54.0975 77.6906 54.0975 77.8601C54.0975 78.1703 54.1306 78.437 54.1968 78.6603C54.2588 78.8837 54.3415 79.0718 54.4449 79.2249C54.5441 79.3779 54.6558 79.4999 54.7799 79.5908C54.9039 79.6818 55.0239 79.7521 55.1397 79.8018C55.2596 79.7521 55.3816 79.6818 55.5057 79.5908C55.6256 79.4999 55.7372 79.3779 55.8406 79.2249C55.9399 79.076 56.0226 78.8899 56.0888 78.6666C56.1508 78.4432 56.1818 78.1744 56.1818 77.8601Z" fill="black"/>
</svg>
