<svg width="120" height="26" viewBox="0 0 120 26" fill="none" xmlns="http://www.w3.org/2000/svg">
<mask id="path-1-outside-1_1623_9710" maskUnits="userSpaceOnUse" x="-0.378906" y="-0.277344" width="121" height="26" fill="black">
<rect fill="white" x="-0.378906" y="-0.277344" width="121" height="26"/>
<path d="M5.91406 12.3555C5.92188 12.3633 5.9375 12.3672 5.96094 12.3672C5.98438 12.375 6.03125 12.3789 6.10156 12.3789C6.21875 12.3789 6.37109 12.3672 6.55859 12.3438C6.74609 12.3203 6.94531 12.2656 7.15625 12.1797C7.375 12.0938 7.58984 11.9688 7.80078 11.8047C8.01953 11.6406 8.21484 11.4219 8.38672 11.1484C8.56641 10.8672 8.71094 10.5234 8.82031 10.1172C8.92969 9.71094 8.98438 9.22266 8.98438 8.65234C8.98438 8.33984 8.92578 8.05469 8.80859 7.79688C8.69141 7.53125 8.53906 7.30469 8.35156 7.11719C8.17188 6.92969 7.96875 6.78516 7.74219 6.68359C7.52344 6.57422 7.30469 6.51953 7.08594 6.51953C6.96875 6.52734 6.85156 6.54688 6.73438 6.57812C6.63281 6.60938 6.51953 6.65625 6.39453 6.71875C6.26953 6.78125 6.14844 6.86719 6.03125 6.97656C6.14844 7.13281 6.23828 7.29688 6.30078 7.46875C6.37109 7.64062 6.42578 7.80078 6.46484 7.94922C6.50391 8.12109 6.52734 8.29297 6.53516 8.46484C6.53516 8.73828 6.48047 8.97656 6.37109 9.17969C6.26172 9.38281 6.12109 9.55469 5.94922 9.69531C5.78516 9.83594 5.60156 9.94141 5.39844 10.0117C5.19531 10.082 5 10.1172 4.8125 10.1172C4.65625 10.1172 4.45312 10.0977 4.20312 10.0586C3.96094 10.0117 3.72266 9.91016 3.48828 9.75391C3.25391 9.59766 3.05078 9.36719 2.87891 9.0625C2.70703 8.75781 2.62109 8.34375 2.62109 7.82031C2.62109 7.30469 2.73828 6.83984 2.97266 6.42578C3.21484 6.00391 3.53516 5.64453 3.93359 5.34766C4.33984 5.04297 4.80859 4.8125 5.33984 4.65625C5.87109 4.49219 6.42969 4.41016 7.01562 4.41016C7.60156 4.41016 8.17969 4.51172 8.75 4.71484C9.32031 4.91797 9.82812 5.22266 10.2734 5.62891C10.7266 6.03516 11.0938 6.54297 11.375 7.15234C11.6562 7.75391 11.7969 8.45703 11.7969 9.26172C11.7969 9.81641 11.7188 10.3242 11.5625 10.7852C11.4141 11.2461 11.2148 11.6602 10.9648 12.0273C10.7227 12.3867 10.4453 12.7031 10.1328 12.9766C9.82812 13.2422 9.51562 13.4648 9.19531 13.6445C9.51562 13.7852 9.82812 13.9688 10.1328 14.1953C10.4453 14.4219 10.7227 14.6953 10.9648 15.0156C11.2148 15.3281 11.4141 15.6953 11.5625 16.1172C11.7188 16.5391 11.7969 17.0195 11.7969 17.5586C11.7969 18.3633 11.6562 19.0703 11.375 19.6797C11.0938 20.2812 10.7266 20.7852 10.2734 21.1914C9.82812 21.5977 9.32031 21.9023 8.75 22.1055C8.17969 22.3086 7.60156 22.4102 7.01562 22.4102C6.42969 22.4102 5.87109 22.3281 5.33984 22.1641C4.80859 22.0078 4.33984 21.7812 3.93359 21.4844C3.53516 21.1797 3.21484 20.8203 2.97266 20.4062C2.73828 19.9844 2.62109 19.5156 2.62109 19C2.62109 18.4766 2.70703 18.0625 2.87891 17.7578C3.05078 17.4531 3.25391 17.2227 3.48828 17.0664C3.72266 16.9102 3.96094 16.8086 4.20312 16.7617C4.45312 16.7148 4.65625 16.6914 4.8125 16.6914C5 16.6914 5.19531 16.7305 5.39844 16.8086C5.60156 16.8789 5.78516 16.9844 5.94922 17.125C6.12109 17.2656 6.26172 17.4414 6.37109 17.6523C6.48047 17.8555 6.53516 18.0898 6.53516 18.3555C6.52734 18.5273 6.50781 18.6992 6.47656 18.8711C6.44531 19.0195 6.39453 19.1797 6.32422 19.3516C6.25391 19.5234 6.15625 19.6875 6.03125 19.8438C6.14844 19.9609 6.26953 20.0508 6.39453 20.1133C6.51953 20.168 6.63281 20.2109 6.73438 20.2422C6.85156 20.2734 6.96875 20.293 7.08594 20.3008C7.30469 20.3008 7.52344 20.25 7.74219 20.1484C7.96875 20.0391 8.17188 19.8906 8.35156 19.7031C8.53906 19.5156 8.69141 19.293 8.80859 19.0352C8.92578 18.7695 8.98438 18.4766 8.98438 18.1562C8.98438 17.5781 8.92578 17.0859 8.80859 16.6797C8.69141 16.2656 8.53906 15.9219 8.35156 15.6484C8.16406 15.375 7.95703 15.1602 7.73047 15.0039C7.50391 14.8477 7.28125 14.7305 7.0625 14.6523C6.84375 14.5664 6.64062 14.5156 6.45312 14.5C6.27344 14.4766 6.13281 14.4648 6.03125 14.4648H5.91406V12.3555Z"/>
<path d="M17.5381 11.6992C17.5381 11.9102 17.4952 12.1094 17.4092 12.2969C17.3311 12.4844 17.2217 12.6484 17.0811 12.7891C16.9483 12.9219 16.7881 13.0312 16.6006 13.1172C16.4131 13.1953 16.2139 13.2344 16.003 13.2344C15.7842 13.2344 15.5811 13.1953 15.3936 13.1172C15.2061 13.0312 15.042 12.9219 14.9014 12.7891C14.7608 12.6484 14.6475 12.4844 14.5616 12.2969C14.4834 12.1094 14.4444 11.9102 14.4444 11.6992C14.4444 11.4883 14.4834 11.2891 14.5616 11.1016C14.6475 10.9062 14.7608 10.7383 14.9014 10.5977C15.042 10.457 15.2061 10.3477 15.3936 10.2695C15.5811 10.1836 15.7842 10.1406 16.003 10.1406C16.2139 10.1406 16.4131 10.1836 16.6006 10.2695C16.7881 10.3477 16.9483 10.457 17.0811 10.5977C17.2217 10.7383 17.3311 10.9062 17.4092 11.1016C17.4952 11.2891 17.5381 11.4883 17.5381 11.6992ZM17.5381 20.8984C17.5381 21.1094 17.4952 21.3086 17.4092 21.4961C17.3311 21.6758 17.2217 21.8359 17.0811 21.9766C16.9483 22.1172 16.7881 22.2266 16.6006 22.3047C16.4131 22.3906 16.2139 22.4336 16.003 22.4336C15.7842 22.4336 15.5811 22.3906 15.3936 22.3047C15.2061 22.2266 15.042 22.1172 14.9014 21.9766C14.7608 21.8359 14.6475 21.6758 14.5616 21.4961C14.4834 21.3086 14.4444 21.1094 14.4444 20.8984C14.4444 20.6797 14.4834 20.4766 14.5616 20.2891C14.6475 20.1016 14.7608 19.9375 14.9014 19.7969C15.042 19.6562 15.2061 19.5469 15.3936 19.4688C15.5811 19.3828 15.7842 19.3398 16.003 19.3398C16.2139 19.3398 16.4131 19.3828 16.6006 19.4688C16.7881 19.5469 16.9483 19.6562 17.0811 19.7969C17.2217 19.9375 17.3311 20.1016 17.4092 20.2891C17.4952 20.4766 17.5381 20.6797 17.5381 20.8984Z"/>
<path d="M26.5831 20.6055C26.5831 20.0039 26.5675 19.4023 26.5362 18.8008C26.5128 18.1992 26.4855 17.5977 26.4542 16.9961C26.423 16.3867 26.3917 15.7773 26.3605 15.168C26.337 14.5508 26.3253 13.9258 26.3253 13.293C26.3253 12.6289 26.3448 11.957 26.3839 11.2773C26.4308 10.5898 26.5167 9.92969 26.6417 9.29688C26.7667 8.65625 26.9386 8.05859 27.1573 7.50391C27.3761 6.94141 27.6612 6.45312 28.0128 6.03906C28.3644 5.625 28.7941 5.29688 29.3019 5.05469C29.8097 4.8125 30.4073 4.69141 31.0948 4.69141C31.7511 4.69141 32.3214 4.79688 32.8058 5.00781C33.2902 5.21094 33.7003 5.49219 34.0362 5.85156C34.38 6.21094 34.6573 6.63281 34.8683 7.11719C35.087 7.60156 35.255 8.125 35.3722 8.6875C35.4972 9.25 35.5831 9.83594 35.63 10.4453C35.6769 11.0547 35.7003 11.6602 35.7003 12.2617C35.7003 12.418 35.6964 12.5547 35.6886 12.6719C35.6886 12.7891 35.6847 12.918 35.6769 13.0586C35.6769 13.1914 35.6691 13.3516 35.6534 13.5391C35.6456 13.7266 35.6339 13.9727 35.6183 14.2773C35.6027 14.5742 35.5831 14.9414 35.5597 15.3789C35.5441 15.8164 35.5245 16.3555 35.5011 16.9961C35.4777 17.6367 35.4503 18.3945 35.4191 19.2695C35.3878 20.1367 35.3566 21.1523 35.3253 22.3164L31.8214 22.1875C31.9542 21.2969 32.0714 20.4062 32.173 19.5156C32.2823 18.6172 32.3722 17.7812 32.4425 17.0078C31.8409 16.9609 31.2823 16.9375 30.7667 16.9375C30.5011 16.9375 30.2511 16.9414 30.0167 16.9492C29.7823 16.957 29.5753 16.9688 29.3956 16.9844C29.4191 17.3906 29.4464 17.8203 29.4777 18.2734C29.5089 18.7266 29.5441 19.1836 29.5831 19.6445C29.6222 20.1055 29.6652 20.5625 29.712 21.0156C29.7589 21.4609 29.8136 21.8867 29.8761 22.293L26.5597 22.3867C26.5753 22.0977 26.5831 21.8047 26.5831 21.5078C26.5831 21.2031 26.5831 20.9023 26.5831 20.6055ZM29.255 14.5117C29.4894 14.5273 29.7198 14.5352 29.9464 14.5352C30.173 14.5352 30.3956 14.5352 30.6144 14.5352C31.4503 14.5352 32.1222 14.5117 32.63 14.4648C32.6769 13.9102 32.7237 13.3516 32.7706 12.7891C32.8253 12.2266 32.8527 11.625 32.8527 10.9844C32.8527 9.63281 32.712 8.60547 32.4308 7.90234C32.1573 7.19141 31.7511 6.83594 31.212 6.83594C30.9152 6.83594 30.6417 6.94141 30.3917 7.15234C30.1417 7.36328 29.923 7.69141 29.7355 8.13672C29.5558 8.57422 29.4112 9.12891 29.3019 9.80078C29.2003 10.4727 29.1495 11.2656 29.1495 12.1797C29.1495 12.5 29.1573 12.8438 29.173 13.2109C29.1964 13.5703 29.2237 14.0039 29.255 14.5117Z"/>
<path d="M44.0783 22.1172C44.0939 21.8047 44.1095 21.5078 44.1252 21.2266C44.1486 20.9375 44.172 20.6602 44.1955 20.3945C43.9298 20.8633 43.6447 21.2227 43.34 21.4727C43.0431 21.7227 42.7658 21.9102 42.508 22.0352C42.2033 22.1758 41.9025 22.2617 41.6056 22.293C41.0275 22.293 40.5236 22.1484 40.0939 21.8594C39.6642 21.5703 39.3088 21.1602 39.0275 20.6289C38.7463 20.0977 38.5353 19.4609 38.3947 18.7188C38.2619 17.9688 38.1955 17.1328 38.1955 16.2109C38.1955 14.9219 38.2345 13.6719 38.3127 12.4609C38.3986 11.25 38.5353 10.0625 38.7228 8.89844L41.6994 9.22656C41.5119 10.1562 41.3673 10.9883 41.2658 11.7227C41.172 12.4492 41.1017 13.0703 41.0548 13.5859C41.0002 14.1875 40.9689 14.7109 40.9611 15.1562C40.9611 15.8984 40.9845 16.5469 41.0314 17.1016C41.0783 17.6484 41.1603 18.1055 41.2775 18.4727C41.4025 18.832 41.5705 19.1016 41.7814 19.2812C41.9923 19.4609 42.2619 19.5508 42.59 19.5508C42.8166 19.5117 43.0392 19.3555 43.258 19.082C43.3517 18.9648 43.4494 18.8164 43.5509 18.6367C43.6525 18.4492 43.7541 18.2227 43.8556 17.957C43.9572 17.6914 44.0548 17.3789 44.1486 17.0195C44.2423 16.6602 44.3322 16.2422 44.4181 15.7656C44.4338 15.3047 44.4416 14.8477 44.4416 14.3945C44.4416 13.9336 44.4416 13.4375 44.4416 12.9062C44.4416 12.3438 44.4416 11.7305 44.4416 11.0664C44.4416 10.4023 44.4338 9.65625 44.4181 8.82812L47.0783 8.875C47.0392 9.46875 47.008 10.0195 46.9845 10.5273C46.9611 11.0273 46.9416 11.5 46.9259 11.9453C46.9181 12.3828 46.9103 12.7969 46.9025 13.1875C46.8947 13.5781 46.8908 13.957 46.8908 14.3242C46.8908 14.8867 46.8947 15.4375 46.9025 15.9766C46.9181 16.5156 46.9377 17.0898 46.9611 17.6992C46.9845 18.3008 47.008 18.9648 47.0314 19.6914C47.0627 20.4102 47.0939 21.2344 47.1252 22.1641L44.0783 22.1172Z"/>
<path d="M57.8234 5.34766C57.8234 5.66797 57.7766 5.96875 57.6828 6.25C57.5969 6.52344 57.4758 6.76172 57.3195 6.96484C57.1711 7.16016 56.9914 7.31641 56.7805 7.43359C56.5773 7.54297 56.3547 7.59766 56.1125 7.59766C55.8703 7.59766 55.6437 7.55859 55.4328 7.48047C55.2297 7.39453 55.05 7.28516 54.8937 7.15234C54.7375 7.01172 54.6125 6.85156 54.5187 6.67188C54.4328 6.48438 54.3898 6.28906 54.3898 6.08594C54.3898 6.07031 54.3898 6.01953 54.3898 5.93359C54.3977 5.83984 54.4172 5.72656 54.4484 5.59375C54.4797 5.45312 54.5227 5.30469 54.5773 5.14844C54.6398 4.98438 54.7297 4.82422 54.8469 4.66797C54.4641 4.66797 54.1633 4.76172 53.9445 4.94922C53.7258 5.13672 53.5617 5.39453 53.4523 5.72266C53.3508 6.04297 53.2844 6.42578 53.2531 6.87109C53.2297 7.30859 53.218 7.77734 53.218 8.27734V9.13281C53.6867 9.13281 54.1555 9.12109 54.6242 9.09766C55.1008 9.06641 55.5812 9.03125 56.0656 8.99219L55.925 11.7812C55.4797 11.7266 55.0305 11.6875 54.5773 11.6641C54.1242 11.6406 53.6711 11.6211 53.218 11.6055C53.218 12.5039 53.2219 13.3984 53.2297 14.2891C53.2375 15.1797 53.2453 16.0312 53.2531 16.8438C53.2609 17.6562 53.2648 18.4141 53.2648 19.1172C53.2727 19.8125 53.2766 20.418 53.2766 20.9336C53.2844 21.4414 53.2883 21.8398 53.2883 22.1289C53.2883 22.4258 53.2883 22.5742 53.2883 22.5742L50.6164 22.7148C50.6555 22.1523 50.6828 21.5273 50.6984 20.8398C50.7141 20.1445 50.7219 19.4102 50.7219 18.6367C50.7219 18.0664 50.718 17.4844 50.7102 16.8906C50.7023 16.2891 50.6906 15.6914 50.675 15.0977C50.6594 14.4961 50.6437 13.9062 50.6281 13.3281C50.6125 12.75 50.6008 12.1914 50.593 11.6523C50.3508 11.668 50.1125 11.6875 49.8781 11.7109C49.6516 11.7266 49.4172 11.75 49.175 11.7812L49.0578 8.99219C49.3 9.01562 49.5461 9.03906 49.7961 9.0625C50.0461 9.07812 50.2961 9.09375 50.5461 9.10938V7.79688C50.5461 7.03906 50.6203 6.35156 50.7687 5.73438C50.925 5.10938 51.1672 4.57422 51.4953 4.12891C51.8312 3.68359 52.2609 3.33984 52.7844 3.09766C53.3156 2.84766 53.9562 2.72266 54.7062 2.72266C55.2219 2.72266 55.675 2.80078 56.0656 2.95703C56.4562 3.11328 56.7805 3.32031 57.0383 3.57812C57.2961 3.82812 57.4914 4.10938 57.6242 4.42188C57.757 4.73438 57.8234 5.04297 57.8234 5.34766Z"/>
<path d="M60.8225 22.4805L57.6936 22.7148C57.8186 21.3164 57.9084 19.9688 57.9631 18.6719C58.0256 17.3672 58.0569 16.0625 58.0569 14.7578C58.0569 13.8359 58.0412 12.9141 58.01 11.9922C57.9866 11.0625 57.9397 10.1094 57.8694 9.13281L60.5061 8.99219C60.4905 9.16406 60.4787 9.33203 60.4709 9.49609C60.4631 9.66016 60.4592 9.82031 60.4592 9.97656C60.7327 9.55469 61.0295 9.22656 61.3498 8.99219C61.678 8.75 61.9827 8.57422 62.2639 8.46484C62.5842 8.33203 62.9084 8.25 63.2366 8.21875C63.8069 8.21875 64.2952 8.30859 64.7014 8.48828C65.1077 8.66016 65.4397 8.88672 65.6975 9.16797C65.9553 9.44141 66.1428 9.75 66.26 10.0938C66.3772 10.4297 66.4358 10.7578 66.4358 11.0781C66.4358 11.4062 66.4006 11.7383 66.3303 12.0742C66.26 12.4102 66.1389 12.7148 65.967 12.9883C65.803 13.2539 65.5803 13.4727 65.2991 13.6445C65.0256 13.8086 64.6858 13.8906 64.2795 13.8906C63.8733 13.8906 63.553 13.8164 63.3186 13.668C63.0842 13.5195 62.9045 13.3438 62.7795 13.1406C62.6623 12.9297 62.5842 12.7148 62.5452 12.4961C62.5139 12.2695 62.4983 12.0781 62.4983 11.9219C62.4983 11.8125 62.5178 11.6914 62.5569 11.5586C62.5959 11.418 62.6545 11.2773 62.7327 11.1367C62.8108 10.9961 62.9084 10.8594 63.0256 10.7266C63.1428 10.5859 63.2795 10.457 63.4358 10.3398C63.3889 10.3242 63.3381 10.3125 63.2834 10.3047C63.2366 10.2969 63.1897 10.293 63.1428 10.293C62.7522 10.293 62.4045 10.418 62.0998 10.668C61.7952 10.9102 61.5295 11.25 61.303 11.6875C61.0842 12.125 60.9006 12.6406 60.7522 13.2344C60.6116 13.8281 60.5061 14.4766 60.4358 15.1797C60.4748 16.3906 60.5295 17.5898 60.5998 18.7773C60.6702 19.9648 60.7444 21.1992 60.8225 22.4805Z"/>
<path d="M74.0755 22.1172C74.0911 21.8047 74.1067 21.5078 74.1223 21.2266C74.1458 20.9375 74.1692 20.6602 74.1927 20.3945C73.927 20.8633 73.6419 21.2227 73.3372 21.4727C73.0403 21.7227 72.763 21.9102 72.5052 22.0352C72.2005 22.1758 71.8997 22.2617 71.6028 22.293C71.0247 22.293 70.5208 22.1484 70.0911 21.8594C69.6614 21.5703 69.3059 21.1602 69.0247 20.6289C68.7434 20.0977 68.5325 19.4609 68.3919 18.7188C68.2591 17.9688 68.1927 17.1328 68.1927 16.2109C68.1927 14.9219 68.2317 13.6719 68.3098 12.4609C68.3958 11.25 68.5325 10.0625 68.72 8.89844L71.6966 9.22656C71.5091 10.1562 71.3645 10.9883 71.263 11.7227C71.1692 12.4492 71.0989 13.0703 71.052 13.5859C70.9973 14.1875 70.9661 14.7109 70.9583 15.1562C70.9583 15.8984 70.9817 16.5469 71.0286 17.1016C71.0755 17.6484 71.1575 18.1055 71.2747 18.4727C71.3997 18.832 71.5677 19.1016 71.7786 19.2812C71.9895 19.4609 72.2591 19.5508 72.5872 19.5508C72.8138 19.5117 73.0364 19.3555 73.2552 19.082C73.3489 18.9648 73.4466 18.8164 73.5481 18.6367C73.6497 18.4492 73.7513 18.2227 73.8528 17.957C73.9544 17.6914 74.052 17.3789 74.1458 17.0195C74.2395 16.6602 74.3294 16.2422 74.4153 15.7656C74.4309 15.3047 74.4388 14.8477 74.4388 14.3945C74.4388 13.9336 74.4388 13.4375 74.4388 12.9062C74.4388 12.3438 74.4388 11.7305 74.4388 11.0664C74.4388 10.4023 74.4309 9.65625 74.4153 8.82812L77.0755 8.875C77.0364 9.46875 77.0052 10.0195 76.9817 10.5273C76.9583 11.0273 76.9388 11.5 76.9231 11.9453C76.9153 12.3828 76.9075 12.7969 76.8997 13.1875C76.8919 13.5781 76.888 13.957 76.888 14.3242C76.888 14.8867 76.8919 15.4375 76.8997 15.9766C76.9153 16.5156 76.9348 17.0898 76.9583 17.6992C76.9817 18.3008 77.0052 18.9648 77.0286 19.6914C77.0598 20.4102 77.0911 21.2344 77.1223 22.1641L74.0755 22.1172ZM72.3294 6.73047C72.3294 6.89453 72.2942 7.05078 72.2239 7.19922C72.1614 7.34766 72.0716 7.48047 71.9544 7.59766C71.845 7.70703 71.7122 7.79297 71.5559 7.85547C71.4075 7.91797 71.2473 7.94922 71.0755 7.94922C70.9114 7.94922 70.7513 7.91797 70.595 7.85547C70.4466 7.79297 70.3138 7.70703 70.1966 7.59766C70.0872 7.48047 69.9973 7.34766 69.927 7.19922C69.8645 7.05078 69.8333 6.89453 69.8333 6.73047C69.8333 6.55859 69.8645 6.39844 69.927 6.25C69.9973 6.09375 70.0872 5.96094 70.1966 5.85156C70.3138 5.73438 70.4466 5.64453 70.595 5.58203C70.7513 5.51172 70.9114 5.47656 71.0755 5.47656C71.2473 5.47656 71.4075 5.51172 71.5559 5.58203C71.7122 5.64453 71.845 5.73438 71.9544 5.85156C72.0716 5.96094 72.1614 6.09375 72.2239 6.25C72.2942 6.39844 72.3294 6.55859 72.3294 6.73047ZM75.4934 6.73047C75.4934 6.89453 75.4583 7.05078 75.388 7.19922C75.3255 7.34766 75.2356 7.48047 75.1184 7.59766C75.0091 7.70703 74.8763 7.79297 74.72 7.85547C74.5716 7.91797 74.4153 7.94922 74.2513 7.94922C74.0794 7.94922 73.9153 7.91797 73.7591 7.85547C73.6106 7.79297 73.4778 7.70703 73.3606 7.59766C73.2513 7.48047 73.1614 7.34766 73.0911 7.19922C73.0286 7.05078 72.9973 6.89453 72.9973 6.73047C72.9973 6.55859 73.0286 6.39844 73.0911 6.25C73.1614 6.09375 73.2513 5.96094 73.3606 5.85156C73.4778 5.73438 73.6106 5.64453 73.7591 5.58203C73.9153 5.51172 74.0794 5.47656 74.2513 5.47656C74.4153 5.47656 74.5716 5.51172 74.72 5.58203C74.8763 5.64453 75.0091 5.73438 75.1184 5.85156C75.2356 5.96094 75.3255 6.09375 75.388 6.25C75.4583 6.39844 75.4934 6.55859 75.4934 6.73047Z"/>
<path d="M87.8441 11.4414C87.8441 11.8008 87.7777 12.1055 87.6448 12.3555C87.512 12.6055 87.3519 12.8086 87.1644 12.9648C86.9769 13.1211 86.7816 13.2344 86.5784 13.3047C86.3753 13.375 86.2034 13.4102 86.0628 13.4102C85.9222 13.4102 85.7542 13.3867 85.5589 13.3398C85.3636 13.2852 85.1761 13.1914 84.9964 13.0586C84.8245 12.9258 84.6761 12.75 84.5511 12.5312C84.4261 12.3047 84.3636 12.0195 84.3636 11.6758C84.3714 11.4883 84.4066 11.3047 84.4691 11.125C84.5238 10.9688 84.6058 10.8086 84.7152 10.6445C84.8323 10.4727 84.9964 10.3203 85.2073 10.1875C85.0667 9.98438 84.9261 9.82812 84.7855 9.71875C84.6448 9.60938 84.5198 9.52734 84.4105 9.47266C84.2777 9.41016 84.1566 9.37109 84.0472 9.35547C83.805 9.35547 83.5863 9.40625 83.3909 9.50781C83.1956 9.60156 83.0277 9.73047 82.887 9.89453C82.7542 10.0508 82.6488 10.2344 82.5706 10.4453C82.5003 10.6562 82.4652 10.875 82.4652 11.1016C82.4652 11.3906 82.4847 11.6523 82.5238 11.8867C82.5628 12.1211 82.6527 12.3594 82.7933 12.6016C82.9339 12.8438 83.1448 13.1055 83.4261 13.3867C83.7073 13.668 84.0902 13.9961 84.5745 14.3711C85.0589 14.7461 85.4808 15.1133 85.8402 15.4727C86.1995 15.8242 86.4964 16.1719 86.7308 16.5156C86.9652 16.8594 87.1409 17.207 87.2581 17.5586C87.3753 17.9023 87.4339 18.2617 87.4339 18.6367C87.4339 18.8867 87.4066 19.1602 87.3519 19.457C87.305 19.7461 87.2191 20.043 87.0941 20.3477C86.9769 20.6445 86.8167 20.9336 86.6136 21.2148C86.4183 21.4883 86.1722 21.7344 85.8753 21.9531C85.5863 22.1719 85.2425 22.3438 84.8441 22.4688C84.4534 22.6016 84.0042 22.668 83.4964 22.668C82.7308 22.668 82.0784 22.5547 81.5394 22.3281C81.0003 22.1016 80.555 21.8281 80.2034 21.5078C79.8597 21.1797 79.6058 20.8359 79.4417 20.4766C79.2855 20.1172 79.2073 19.8008 79.2073 19.5273C79.2073 19.2383 79.2425 18.9688 79.3128 18.7188C79.3831 18.4688 79.4925 18.25 79.6409 18.0625C79.7972 17.875 79.9925 17.7305 80.2269 17.6289C80.4691 17.5195 80.7581 17.4648 81.0941 17.4648C81.3753 17.4648 81.6292 17.5078 81.8558 17.5938C82.0902 17.6797 82.2894 17.8086 82.4534 17.9805C82.6253 18.1445 82.7581 18.3477 82.8519 18.5898C82.9456 18.832 82.9925 19.1055 82.9925 19.4102C82.9847 19.543 82.9573 19.6797 82.9105 19.8203C82.8714 19.9375 82.805 20.0664 82.7113 20.207C82.6175 20.3477 82.4886 20.4805 82.3245 20.6055C82.4339 20.6914 82.5394 20.7578 82.6409 20.8047C82.7503 20.8438 82.848 20.8711 82.9339 20.8867C83.0277 20.9102 83.1214 20.9219 83.2152 20.9219C83.3167 20.9219 83.4339 20.8945 83.5667 20.8398C83.7073 20.7773 83.8402 20.6836 83.9652 20.5586C84.0902 20.4336 84.1956 20.2812 84.2816 20.1016C84.3675 19.9219 84.4105 19.707 84.4105 19.457C84.4105 19.207 84.387 18.9805 84.3402 18.7773C84.3011 18.5664 84.2113 18.3516 84.0706 18.1328C83.9378 17.9062 83.7425 17.6602 83.4847 17.3945C83.2269 17.1289 82.887 16.8086 82.4652 16.4336C82.0433 16.0586 81.6683 15.6953 81.3402 15.3438C81.012 14.9844 80.7347 14.6133 80.5081 14.2305C80.2894 13.8477 80.1214 13.4453 80.0042 13.0234C79.887 12.6016 79.8284 12.1367 79.8284 11.6289C79.8284 11.1289 79.9261 10.6445 80.1214 10.1758C80.3245 9.70703 80.6097 9.29297 80.9769 8.93359C81.3441 8.56641 81.7894 8.27734 82.3128 8.06641C82.8363 7.84766 83.4222 7.73828 84.0706 7.73828C84.7269 7.73828 85.2933 7.83984 85.7698 8.04297C86.2464 8.24609 86.637 8.51953 86.9417 8.86328C87.2464 9.19922 87.473 9.58984 87.6214 10.0352C87.7698 10.4805 87.8441 10.9492 87.8441 11.4414Z"/>
<path d="M94.1712 4.1875C94.1087 4.99219 94.058 5.78516 94.0189 6.56641C93.9798 7.33984 93.9408 8.11719 93.9017 8.89844C94.2455 8.88281 94.5853 8.87109 94.9212 8.86328C95.2572 8.84766 95.6009 8.82812 95.9525 8.80469L95.9994 11.8047C95.6244 11.7422 95.2533 11.6914 94.8861 11.6523C94.5189 11.6133 94.1595 11.582 93.808 11.5586C93.7845 12.2227 93.7689 12.8789 93.7611 13.5273C93.7611 14.1758 93.7611 14.832 93.7611 15.4961C93.7611 16.6836 93.7728 17.8633 93.7962 19.0352C93.8275 20.207 93.8744 21.3867 93.9369 22.5742L90.8783 22.5273C90.9798 20.6914 91.0619 18.8594 91.1244 17.0312C91.1947 15.1953 91.2416 13.3477 91.265 11.4883C90.9369 11.5039 90.6087 11.5234 90.2806 11.5469C89.9525 11.5625 89.6166 11.582 89.2728 11.6055L89.3666 8.82812C89.6869 8.85156 90.0033 8.87109 90.3158 8.88672C90.6361 8.89453 90.9525 8.90625 91.265 8.92188C91.265 8.14062 91.2572 7.36328 91.2416 6.58984C91.2259 5.80859 91.2103 5.02344 91.1947 4.23438L94.1712 4.1875Z"/>
<path d="M106.241 19.4805C106.241 19.9414 106.135 20.375 105.924 20.7812C105.713 21.1875 105.428 21.5391 105.069 21.8359C104.709 22.1328 104.287 22.3672 103.803 22.5391C103.319 22.7109 102.803 22.7969 102.256 22.7969C101.889 22.7969 101.518 22.7461 101.143 22.6445C100.768 22.543 100.409 22.375 100.065 22.1406C99.7211 21.9062 99.3969 21.5977 99.0922 21.2148C98.7875 20.832 98.5219 20.3633 98.2953 19.8086C98.0766 19.2539 97.9008 18.6055 97.768 17.8633C97.643 17.1133 97.5805 16.2539 97.5805 15.2852C97.5805 14.3711 97.643 13.5625 97.768 12.8594C97.9008 12.1562 98.0766 11.543 98.2953 11.0195C98.5219 10.4961 98.7836 10.0586 99.0805 9.70703C99.3773 9.34766 99.6937 9.05859 100.03 8.83984C100.373 8.61328 100.725 8.45312 101.084 8.35938C101.452 8.26562 101.811 8.21875 102.162 8.21875C102.686 8.21875 103.182 8.30469 103.651 8.47656C104.12 8.64062 104.53 8.88672 104.881 9.21484C105.233 9.54297 105.51 9.94922 105.713 10.4336C105.924 10.9102 106.03 11.4609 106.03 12.0859C106.03 12.6484 105.912 13.2188 105.678 13.7969C105.452 14.3672 105.112 14.9102 104.659 15.4258C104.205 15.9336 103.643 16.3984 102.971 16.8203C102.307 17.2344 101.541 17.5625 100.674 17.8047C100.721 18.2891 100.787 18.7305 100.873 19.1289C100.967 19.5273 101.08 19.8672 101.213 20.1484C101.354 20.4297 101.514 20.6484 101.694 20.8047C101.881 20.9609 102.096 21.0391 102.338 21.0391C102.495 21.0312 102.643 21.0039 102.784 20.957C102.909 20.918 103.034 20.8555 103.159 20.7695C103.291 20.6836 103.401 20.5586 103.487 20.3945C103.284 20.3008 103.127 20.1797 103.018 20.0312C102.909 19.8828 102.827 19.7422 102.772 19.6094C102.709 19.4531 102.674 19.2891 102.666 19.1172C102.666 18.7422 102.741 18.4375 102.889 18.2031C103.037 17.9688 103.213 17.7852 103.416 17.6523C103.62 17.5195 103.827 17.4297 104.037 17.3828C104.248 17.3281 104.416 17.3008 104.541 17.3008C104.674 17.3008 104.834 17.3281 105.022 17.3828C105.217 17.4375 105.405 17.543 105.584 17.6992C105.764 17.8555 105.916 18.0781 106.041 18.3672C106.174 18.6484 106.241 19.0195 106.241 19.4805ZM103.346 12.1094C103.346 11.8281 103.319 11.5625 103.264 11.3125C103.217 11.0547 103.143 10.832 103.041 10.6445C102.948 10.457 102.827 10.3086 102.678 10.1992C102.537 10.082 102.373 10.0234 102.186 10.0234C101.866 10.0234 101.604 10.1719 101.401 10.4688C101.198 10.7578 101.034 11.1445 100.909 11.6289C100.784 12.1133 100.698 12.6719 100.651 13.3047C100.604 13.9375 100.58 14.5977 100.58 15.2852V16.1406C100.979 15.9297 101.346 15.6797 101.682 15.3906C102.026 15.1016 102.319 14.7852 102.561 14.4414C102.811 14.0898 103.002 13.7188 103.135 13.3281C103.276 12.9375 103.346 12.5312 103.346 12.1094Z"/>
<path d="M111.56 9.01562L111.49 9.97656C111.747 9.54688 112.021 9.21875 112.31 8.99219C112.607 8.76562 112.88 8.60547 113.13 8.51172C113.38 8.41797 113.587 8.36719 113.751 8.35938C113.923 8.35156 114.017 8.34766 114.033 8.34766C114.611 8.34766 115.115 8.48047 115.544 8.74609C115.974 9.01172 116.33 9.39844 116.611 9.90625C116.892 10.4062 117.099 11.0195 117.232 11.7461C117.372 12.4648 117.443 13.2812 117.443 14.1953C117.443 14.8672 117.431 15.5547 117.408 16.2578C117.392 16.9531 117.353 17.6484 117.29 18.3438C117.236 19.0312 117.158 19.7031 117.056 20.3594C116.962 21.0156 116.833 21.6406 116.669 22.2344L113.939 21.9062C114.119 20.9766 114.259 20.1094 114.361 19.3047C114.462 18.5 114.537 17.7969 114.583 17.1953C114.638 16.4922 114.669 15.8477 114.677 15.2617C114.677 14.5195 114.654 13.875 114.607 13.3281C114.56 12.7734 114.474 12.3164 114.349 11.957C114.232 11.5898 114.068 11.3164 113.857 11.1367C113.646 10.957 113.376 10.8672 113.048 10.8672C112.83 10.9141 112.611 11.0703 112.392 11.3359C112.205 11.5625 112.005 11.9258 111.794 12.4258C111.583 12.918 111.4 13.6133 111.244 14.5117C111.22 15.1211 111.205 15.7266 111.197 16.3281C111.197 16.9219 111.197 17.5547 111.197 18.2266C111.197 18.7969 111.197 19.4102 111.197 20.0664C111.197 20.7227 111.205 21.4648 111.22 22.293L108.56 22.2344C108.583 21.4375 108.599 20.5938 108.607 19.7031C108.622 18.8047 108.63 17.8086 108.63 16.7148C108.63 15.6289 108.622 14.4531 108.607 13.1875C108.591 11.9219 108.56 10.5156 108.513 8.96875L111.56 9.01562Z"/>
</mask>
<path d="M5.91406 12.3555C5.92188 12.3633 5.9375 12.3672 5.96094 12.3672C5.98438 12.375 6.03125 12.3789 6.10156 12.3789C6.21875 12.3789 6.37109 12.3672 6.55859 12.3438C6.74609 12.3203 6.94531 12.2656 7.15625 12.1797C7.375 12.0938 7.58984 11.9688 7.80078 11.8047C8.01953 11.6406 8.21484 11.4219 8.38672 11.1484C8.56641 10.8672 8.71094 10.5234 8.82031 10.1172C8.92969 9.71094 8.98438 9.22266 8.98438 8.65234C8.98438 8.33984 8.92578 8.05469 8.80859 7.79688C8.69141 7.53125 8.53906 7.30469 8.35156 7.11719C8.17188 6.92969 7.96875 6.78516 7.74219 6.68359C7.52344 6.57422 7.30469 6.51953 7.08594 6.51953C6.96875 6.52734 6.85156 6.54688 6.73438 6.57812C6.63281 6.60938 6.51953 6.65625 6.39453 6.71875C6.26953 6.78125 6.14844 6.86719 6.03125 6.97656C6.14844 7.13281 6.23828 7.29688 6.30078 7.46875C6.37109 7.64062 6.42578 7.80078 6.46484 7.94922C6.50391 8.12109 6.52734 8.29297 6.53516 8.46484C6.53516 8.73828 6.48047 8.97656 6.37109 9.17969C6.26172 9.38281 6.12109 9.55469 5.94922 9.69531C5.78516 9.83594 5.60156 9.94141 5.39844 10.0117C5.19531 10.082 5 10.1172 4.8125 10.1172C4.65625 10.1172 4.45312 10.0977 4.20312 10.0586C3.96094 10.0117 3.72266 9.91016 3.48828 9.75391C3.25391 9.59766 3.05078 9.36719 2.87891 9.0625C2.70703 8.75781 2.62109 8.34375 2.62109 7.82031C2.62109 7.30469 2.73828 6.83984 2.97266 6.42578C3.21484 6.00391 3.53516 5.64453 3.93359 5.34766C4.33984 5.04297 4.80859 4.8125 5.33984 4.65625C5.87109 4.49219 6.42969 4.41016 7.01562 4.41016C7.60156 4.41016 8.17969 4.51172 8.75 4.71484C9.32031 4.91797 9.82812 5.22266 10.2734 5.62891C10.7266 6.03516 11.0938 6.54297 11.375 7.15234C11.6562 7.75391 11.7969 8.45703 11.7969 9.26172C11.7969 9.81641 11.7188 10.3242 11.5625 10.7852C11.4141 11.2461 11.2148 11.6602 10.9648 12.0273C10.7227 12.3867 10.4453 12.7031 10.1328 12.9766C9.82812 13.2422 9.51562 13.4648 9.19531 13.6445C9.51562 13.7852 9.82812 13.9688 10.1328 14.1953C10.4453 14.4219 10.7227 14.6953 10.9648 15.0156C11.2148 15.3281 11.4141 15.6953 11.5625 16.1172C11.7188 16.5391 11.7969 17.0195 11.7969 17.5586C11.7969 18.3633 11.6562 19.0703 11.375 19.6797C11.0938 20.2812 10.7266 20.7852 10.2734 21.1914C9.82812 21.5977 9.32031 21.9023 8.75 22.1055C8.17969 22.3086 7.60156 22.4102 7.01562 22.4102C6.42969 22.4102 5.87109 22.3281 5.33984 22.1641C4.80859 22.0078 4.33984 21.7812 3.93359 21.4844C3.53516 21.1797 3.21484 20.8203 2.97266 20.4062C2.73828 19.9844 2.62109 19.5156 2.62109 19C2.62109 18.4766 2.70703 18.0625 2.87891 17.7578C3.05078 17.4531 3.25391 17.2227 3.48828 17.0664C3.72266 16.9102 3.96094 16.8086 4.20312 16.7617C4.45312 16.7148 4.65625 16.6914 4.8125 16.6914C5 16.6914 5.19531 16.7305 5.39844 16.8086C5.60156 16.8789 5.78516 16.9844 5.94922 17.125C6.12109 17.2656 6.26172 17.4414 6.37109 17.6523C6.48047 17.8555 6.53516 18.0898 6.53516 18.3555C6.52734 18.5273 6.50781 18.6992 6.47656 18.8711C6.44531 19.0195 6.39453 19.1797 6.32422 19.3516C6.25391 19.5234 6.15625 19.6875 6.03125 19.8438C6.14844 19.9609 6.26953 20.0508 6.39453 20.1133C6.51953 20.168 6.63281 20.2109 6.73438 20.2422C6.85156 20.2734 6.96875 20.293 7.08594 20.3008C7.30469 20.3008 7.52344 20.25 7.74219 20.1484C7.96875 20.0391 8.17188 19.8906 8.35156 19.7031C8.53906 19.5156 8.69141 19.293 8.80859 19.0352C8.92578 18.7695 8.98438 18.4766 8.98438 18.1562C8.98438 17.5781 8.92578 17.0859 8.80859 16.6797C8.69141 16.2656 8.53906 15.9219 8.35156 15.6484C8.16406 15.375 7.95703 15.1602 7.73047 15.0039C7.50391 14.8477 7.28125 14.7305 7.0625 14.6523C6.84375 14.5664 6.64062 14.5156 6.45312 14.5C6.27344 14.4766 6.13281 14.4648 6.03125 14.4648H5.91406V12.3555Z" fill="white"/>
<path d="M17.5381 11.6992C17.5381 11.9102 17.4952 12.1094 17.4092 12.2969C17.3311 12.4844 17.2217 12.6484 17.0811 12.7891C16.9483 12.9219 16.7881 13.0312 16.6006 13.1172C16.4131 13.1953 16.2139 13.2344 16.003 13.2344C15.7842 13.2344 15.5811 13.1953 15.3936 13.1172C15.2061 13.0312 15.042 12.9219 14.9014 12.7891C14.7608 12.6484 14.6475 12.4844 14.5616 12.2969C14.4834 12.1094 14.4444 11.9102 14.4444 11.6992C14.4444 11.4883 14.4834 11.2891 14.5616 11.1016C14.6475 10.9062 14.7608 10.7383 14.9014 10.5977C15.042 10.457 15.2061 10.3477 15.3936 10.2695C15.5811 10.1836 15.7842 10.1406 16.003 10.1406C16.2139 10.1406 16.4131 10.1836 16.6006 10.2695C16.7881 10.3477 16.9483 10.457 17.0811 10.5977C17.2217 10.7383 17.3311 10.9062 17.4092 11.1016C17.4952 11.2891 17.5381 11.4883 17.5381 11.6992ZM17.5381 20.8984C17.5381 21.1094 17.4952 21.3086 17.4092 21.4961C17.3311 21.6758 17.2217 21.8359 17.0811 21.9766C16.9483 22.1172 16.7881 22.2266 16.6006 22.3047C16.4131 22.3906 16.2139 22.4336 16.003 22.4336C15.7842 22.4336 15.5811 22.3906 15.3936 22.3047C15.2061 22.2266 15.042 22.1172 14.9014 21.9766C14.7608 21.8359 14.6475 21.6758 14.5616 21.4961C14.4834 21.3086 14.4444 21.1094 14.4444 20.8984C14.4444 20.6797 14.4834 20.4766 14.5616 20.2891C14.6475 20.1016 14.7608 19.9375 14.9014 19.7969C15.042 19.6562 15.2061 19.5469 15.3936 19.4688C15.5811 19.3828 15.7842 19.3398 16.003 19.3398C16.2139 19.3398 16.4131 19.3828 16.6006 19.4688C16.7881 19.5469 16.9483 19.6562 17.0811 19.7969C17.2217 19.9375 17.3311 20.1016 17.4092 20.2891C17.4952 20.4766 17.5381 20.6797 17.5381 20.8984Z" fill="white"/>
<path d="M26.5831 20.6055C26.5831 20.0039 26.5675 19.4023 26.5362 18.8008C26.5128 18.1992 26.4855 17.5977 26.4542 16.9961C26.423 16.3867 26.3917 15.7773 26.3605 15.168C26.337 14.5508 26.3253 13.9258 26.3253 13.293C26.3253 12.6289 26.3448 11.957 26.3839 11.2773C26.4308 10.5898 26.5167 9.92969 26.6417 9.29688C26.7667 8.65625 26.9386 8.05859 27.1573 7.50391C27.3761 6.94141 27.6612 6.45312 28.0128 6.03906C28.3644 5.625 28.7941 5.29688 29.3019 5.05469C29.8097 4.8125 30.4073 4.69141 31.0948 4.69141C31.7511 4.69141 32.3214 4.79688 32.8058 5.00781C33.2902 5.21094 33.7003 5.49219 34.0362 5.85156C34.38 6.21094 34.6573 6.63281 34.8683 7.11719C35.087 7.60156 35.255 8.125 35.3722 8.6875C35.4972 9.25 35.5831 9.83594 35.63 10.4453C35.6769 11.0547 35.7003 11.6602 35.7003 12.2617C35.7003 12.418 35.6964 12.5547 35.6886 12.6719C35.6886 12.7891 35.6847 12.918 35.6769 13.0586C35.6769 13.1914 35.6691 13.3516 35.6534 13.5391C35.6456 13.7266 35.6339 13.9727 35.6183 14.2773C35.6027 14.5742 35.5831 14.9414 35.5597 15.3789C35.5441 15.8164 35.5245 16.3555 35.5011 16.9961C35.4777 17.6367 35.4503 18.3945 35.4191 19.2695C35.3878 20.1367 35.3566 21.1523 35.3253 22.3164L31.8214 22.1875C31.9542 21.2969 32.0714 20.4062 32.173 19.5156C32.2823 18.6172 32.3722 17.7812 32.4425 17.0078C31.8409 16.9609 31.2823 16.9375 30.7667 16.9375C30.5011 16.9375 30.2511 16.9414 30.0167 16.9492C29.7823 16.957 29.5753 16.9688 29.3956 16.9844C29.4191 17.3906 29.4464 17.8203 29.4777 18.2734C29.5089 18.7266 29.5441 19.1836 29.5831 19.6445C29.6222 20.1055 29.6652 20.5625 29.712 21.0156C29.7589 21.4609 29.8136 21.8867 29.8761 22.293L26.5597 22.3867C26.5753 22.0977 26.5831 21.8047 26.5831 21.5078C26.5831 21.2031 26.5831 20.9023 26.5831 20.6055ZM29.255 14.5117C29.4894 14.5273 29.7198 14.5352 29.9464 14.5352C30.173 14.5352 30.3956 14.5352 30.6144 14.5352C31.4503 14.5352 32.1222 14.5117 32.63 14.4648C32.6769 13.9102 32.7237 13.3516 32.7706 12.7891C32.8253 12.2266 32.8527 11.625 32.8527 10.9844C32.8527 9.63281 32.712 8.60547 32.4308 7.90234C32.1573 7.19141 31.7511 6.83594 31.212 6.83594C30.9152 6.83594 30.6417 6.94141 30.3917 7.15234C30.1417 7.36328 29.923 7.69141 29.7355 8.13672C29.5558 8.57422 29.4112 9.12891 29.3019 9.80078C29.2003 10.4727 29.1495 11.2656 29.1495 12.1797C29.1495 12.5 29.1573 12.8438 29.173 13.2109C29.1964 13.5703 29.2237 14.0039 29.255 14.5117Z" fill="white"/>
<path d="M44.0783 22.1172C44.0939 21.8047 44.1095 21.5078 44.1252 21.2266C44.1486 20.9375 44.172 20.6602 44.1955 20.3945C43.9298 20.8633 43.6447 21.2227 43.34 21.4727C43.0431 21.7227 42.7658 21.9102 42.508 22.0352C42.2033 22.1758 41.9025 22.2617 41.6056 22.293C41.0275 22.293 40.5236 22.1484 40.0939 21.8594C39.6642 21.5703 39.3088 21.1602 39.0275 20.6289C38.7463 20.0977 38.5353 19.4609 38.3947 18.7188C38.2619 17.9688 38.1955 17.1328 38.1955 16.2109C38.1955 14.9219 38.2345 13.6719 38.3127 12.4609C38.3986 11.25 38.5353 10.0625 38.7228 8.89844L41.6994 9.22656C41.5119 10.1562 41.3673 10.9883 41.2658 11.7227C41.172 12.4492 41.1017 13.0703 41.0548 13.5859C41.0002 14.1875 40.9689 14.7109 40.9611 15.1562C40.9611 15.8984 40.9845 16.5469 41.0314 17.1016C41.0783 17.6484 41.1603 18.1055 41.2775 18.4727C41.4025 18.832 41.5705 19.1016 41.7814 19.2812C41.9923 19.4609 42.2619 19.5508 42.59 19.5508C42.8166 19.5117 43.0392 19.3555 43.258 19.082C43.3517 18.9648 43.4494 18.8164 43.5509 18.6367C43.6525 18.4492 43.7541 18.2227 43.8556 17.957C43.9572 17.6914 44.0548 17.3789 44.1486 17.0195C44.2423 16.6602 44.3322 16.2422 44.4181 15.7656C44.4338 15.3047 44.4416 14.8477 44.4416 14.3945C44.4416 13.9336 44.4416 13.4375 44.4416 12.9062C44.4416 12.3438 44.4416 11.7305 44.4416 11.0664C44.4416 10.4023 44.4338 9.65625 44.4181 8.82812L47.0783 8.875C47.0392 9.46875 47.008 10.0195 46.9845 10.5273C46.9611 11.0273 46.9416 11.5 46.9259 11.9453C46.9181 12.3828 46.9103 12.7969 46.9025 13.1875C46.8947 13.5781 46.8908 13.957 46.8908 14.3242C46.8908 14.8867 46.8947 15.4375 46.9025 15.9766C46.9181 16.5156 46.9377 17.0898 46.9611 17.6992C46.9845 18.3008 47.008 18.9648 47.0314 19.6914C47.0627 20.4102 47.0939 21.2344 47.1252 22.1641L44.0783 22.1172Z" fill="white"/>
<path d="M57.8234 5.34766C57.8234 5.66797 57.7766 5.96875 57.6828 6.25C57.5969 6.52344 57.4758 6.76172 57.3195 6.96484C57.1711 7.16016 56.9914 7.31641 56.7805 7.43359C56.5773 7.54297 56.3547 7.59766 56.1125 7.59766C55.8703 7.59766 55.6437 7.55859 55.4328 7.48047C55.2297 7.39453 55.05 7.28516 54.8937 7.15234C54.7375 7.01172 54.6125 6.85156 54.5187 6.67188C54.4328 6.48438 54.3898 6.28906 54.3898 6.08594C54.3898 6.07031 54.3898 6.01953 54.3898 5.93359C54.3977 5.83984 54.4172 5.72656 54.4484 5.59375C54.4797 5.45312 54.5227 5.30469 54.5773 5.14844C54.6398 4.98438 54.7297 4.82422 54.8469 4.66797C54.4641 4.66797 54.1633 4.76172 53.9445 4.94922C53.7258 5.13672 53.5617 5.39453 53.4523 5.72266C53.3508 6.04297 53.2844 6.42578 53.2531 6.87109C53.2297 7.30859 53.218 7.77734 53.218 8.27734V9.13281C53.6867 9.13281 54.1555 9.12109 54.6242 9.09766C55.1008 9.06641 55.5812 9.03125 56.0656 8.99219L55.925 11.7812C55.4797 11.7266 55.0305 11.6875 54.5773 11.6641C54.1242 11.6406 53.6711 11.6211 53.218 11.6055C53.218 12.5039 53.2219 13.3984 53.2297 14.2891C53.2375 15.1797 53.2453 16.0312 53.2531 16.8438C53.2609 17.6562 53.2648 18.4141 53.2648 19.1172C53.2727 19.8125 53.2766 20.418 53.2766 20.9336C53.2844 21.4414 53.2883 21.8398 53.2883 22.1289C53.2883 22.4258 53.2883 22.5742 53.2883 22.5742L50.6164 22.7148C50.6555 22.1523 50.6828 21.5273 50.6984 20.8398C50.7141 20.1445 50.7219 19.4102 50.7219 18.6367C50.7219 18.0664 50.718 17.4844 50.7102 16.8906C50.7023 16.2891 50.6906 15.6914 50.675 15.0977C50.6594 14.4961 50.6437 13.9062 50.6281 13.3281C50.6125 12.75 50.6008 12.1914 50.593 11.6523C50.3508 11.668 50.1125 11.6875 49.8781 11.7109C49.6516 11.7266 49.4172 11.75 49.175 11.7812L49.0578 8.99219C49.3 9.01562 49.5461 9.03906 49.7961 9.0625C50.0461 9.07812 50.2961 9.09375 50.5461 9.10938V7.79688C50.5461 7.03906 50.6203 6.35156 50.7687 5.73438C50.925 5.10938 51.1672 4.57422 51.4953 4.12891C51.8312 3.68359 52.2609 3.33984 52.7844 3.09766C53.3156 2.84766 53.9562 2.72266 54.7062 2.72266C55.2219 2.72266 55.675 2.80078 56.0656 2.95703C56.4562 3.11328 56.7805 3.32031 57.0383 3.57812C57.2961 3.82812 57.4914 4.10938 57.6242 4.42188C57.757 4.73438 57.8234 5.04297 57.8234 5.34766Z" fill="white"/>
<path d="M60.8225 22.4805L57.6936 22.7148C57.8186 21.3164 57.9084 19.9688 57.9631 18.6719C58.0256 17.3672 58.0569 16.0625 58.0569 14.7578C58.0569 13.8359 58.0412 12.9141 58.01 11.9922C57.9866 11.0625 57.9397 10.1094 57.8694 9.13281L60.5061 8.99219C60.4905 9.16406 60.4787 9.33203 60.4709 9.49609C60.4631 9.66016 60.4592 9.82031 60.4592 9.97656C60.7327 9.55469 61.0295 9.22656 61.3498 8.99219C61.678 8.75 61.9827 8.57422 62.2639 8.46484C62.5842 8.33203 62.9084 8.25 63.2366 8.21875C63.8069 8.21875 64.2952 8.30859 64.7014 8.48828C65.1077 8.66016 65.4397 8.88672 65.6975 9.16797C65.9553 9.44141 66.1428 9.75 66.26 10.0938C66.3772 10.4297 66.4358 10.7578 66.4358 11.0781C66.4358 11.4062 66.4006 11.7383 66.3303 12.0742C66.26 12.4102 66.1389 12.7148 65.967 12.9883C65.803 13.2539 65.5803 13.4727 65.2991 13.6445C65.0256 13.8086 64.6858 13.8906 64.2795 13.8906C63.8733 13.8906 63.553 13.8164 63.3186 13.668C63.0842 13.5195 62.9045 13.3438 62.7795 13.1406C62.6623 12.9297 62.5842 12.7148 62.5452 12.4961C62.5139 12.2695 62.4983 12.0781 62.4983 11.9219C62.4983 11.8125 62.5178 11.6914 62.5569 11.5586C62.5959 11.418 62.6545 11.2773 62.7327 11.1367C62.8108 10.9961 62.9084 10.8594 63.0256 10.7266C63.1428 10.5859 63.2795 10.457 63.4358 10.3398C63.3889 10.3242 63.3381 10.3125 63.2834 10.3047C63.2366 10.2969 63.1897 10.293 63.1428 10.293C62.7522 10.293 62.4045 10.418 62.0998 10.668C61.7952 10.9102 61.5295 11.25 61.303 11.6875C61.0842 12.125 60.9006 12.6406 60.7522 13.2344C60.6116 13.8281 60.5061 14.4766 60.4358 15.1797C60.4748 16.3906 60.5295 17.5898 60.5998 18.7773C60.6702 19.9648 60.7444 21.1992 60.8225 22.4805Z" fill="white"/>
<path d="M74.0755 22.1172C74.0911 21.8047 74.1067 21.5078 74.1223 21.2266C74.1458 20.9375 74.1692 20.6602 74.1927 20.3945C73.927 20.8633 73.6419 21.2227 73.3372 21.4727C73.0403 21.7227 72.763 21.9102 72.5052 22.0352C72.2005 22.1758 71.8997 22.2617 71.6028 22.293C71.0247 22.293 70.5208 22.1484 70.0911 21.8594C69.6614 21.5703 69.3059 21.1602 69.0247 20.6289C68.7434 20.0977 68.5325 19.4609 68.3919 18.7188C68.2591 17.9688 68.1927 17.1328 68.1927 16.2109C68.1927 14.9219 68.2317 13.6719 68.3098 12.4609C68.3958 11.25 68.5325 10.0625 68.72 8.89844L71.6966 9.22656C71.5091 10.1562 71.3645 10.9883 71.263 11.7227C71.1692 12.4492 71.0989 13.0703 71.052 13.5859C70.9973 14.1875 70.9661 14.7109 70.9583 15.1562C70.9583 15.8984 70.9817 16.5469 71.0286 17.1016C71.0755 17.6484 71.1575 18.1055 71.2747 18.4727C71.3997 18.832 71.5677 19.1016 71.7786 19.2812C71.9895 19.4609 72.2591 19.5508 72.5872 19.5508C72.8138 19.5117 73.0364 19.3555 73.2552 19.082C73.3489 18.9648 73.4466 18.8164 73.5481 18.6367C73.6497 18.4492 73.7513 18.2227 73.8528 17.957C73.9544 17.6914 74.052 17.3789 74.1458 17.0195C74.2395 16.6602 74.3294 16.2422 74.4153 15.7656C74.4309 15.3047 74.4388 14.8477 74.4388 14.3945C74.4388 13.9336 74.4388 13.4375 74.4388 12.9062C74.4388 12.3438 74.4388 11.7305 74.4388 11.0664C74.4388 10.4023 74.4309 9.65625 74.4153 8.82812L77.0755 8.875C77.0364 9.46875 77.0052 10.0195 76.9817 10.5273C76.9583 11.0273 76.9388 11.5 76.9231 11.9453C76.9153 12.3828 76.9075 12.7969 76.8997 13.1875C76.8919 13.5781 76.888 13.957 76.888 14.3242C76.888 14.8867 76.8919 15.4375 76.8997 15.9766C76.9153 16.5156 76.9348 17.0898 76.9583 17.6992C76.9817 18.3008 77.0052 18.9648 77.0286 19.6914C77.0598 20.4102 77.0911 21.2344 77.1223 22.1641L74.0755 22.1172ZM72.3294 6.73047C72.3294 6.89453 72.2942 7.05078 72.2239 7.19922C72.1614 7.34766 72.0716 7.48047 71.9544 7.59766C71.845 7.70703 71.7122 7.79297 71.5559 7.85547C71.4075 7.91797 71.2473 7.94922 71.0755 7.94922C70.9114 7.94922 70.7513 7.91797 70.595 7.85547C70.4466 7.79297 70.3138 7.70703 70.1966 7.59766C70.0872 7.48047 69.9973 7.34766 69.927 7.19922C69.8645 7.05078 69.8333 6.89453 69.8333 6.73047C69.8333 6.55859 69.8645 6.39844 69.927 6.25C69.9973 6.09375 70.0872 5.96094 70.1966 5.85156C70.3138 5.73438 70.4466 5.64453 70.595 5.58203C70.7513 5.51172 70.9114 5.47656 71.0755 5.47656C71.2473 5.47656 71.4075 5.51172 71.5559 5.58203C71.7122 5.64453 71.845 5.73438 71.9544 5.85156C72.0716 5.96094 72.1614 6.09375 72.2239 6.25C72.2942 6.39844 72.3294 6.55859 72.3294 6.73047ZM75.4934 6.73047C75.4934 6.89453 75.4583 7.05078 75.388 7.19922C75.3255 7.34766 75.2356 7.48047 75.1184 7.59766C75.0091 7.70703 74.8763 7.79297 74.72 7.85547C74.5716 7.91797 74.4153 7.94922 74.2513 7.94922C74.0794 7.94922 73.9153 7.91797 73.7591 7.85547C73.6106 7.79297 73.4778 7.70703 73.3606 7.59766C73.2513 7.48047 73.1614 7.34766 73.0911 7.19922C73.0286 7.05078 72.9973 6.89453 72.9973 6.73047C72.9973 6.55859 73.0286 6.39844 73.0911 6.25C73.1614 6.09375 73.2513 5.96094 73.3606 5.85156C73.4778 5.73438 73.6106 5.64453 73.7591 5.58203C73.9153 5.51172 74.0794 5.47656 74.2513 5.47656C74.4153 5.47656 74.5716 5.51172 74.72 5.58203C74.8763 5.64453 75.0091 5.73438 75.1184 5.85156C75.2356 5.96094 75.3255 6.09375 75.388 6.25C75.4583 6.39844 75.4934 6.55859 75.4934 6.73047Z" fill="white"/>
<path d="M87.8441 11.4414C87.8441 11.8008 87.7777 12.1055 87.6448 12.3555C87.512 12.6055 87.3519 12.8086 87.1644 12.9648C86.9769 13.1211 86.7816 13.2344 86.5784 13.3047C86.3753 13.375 86.2034 13.4102 86.0628 13.4102C85.9222 13.4102 85.7542 13.3867 85.5589 13.3398C85.3636 13.2852 85.1761 13.1914 84.9964 13.0586C84.8245 12.9258 84.6761 12.75 84.5511 12.5312C84.4261 12.3047 84.3636 12.0195 84.3636 11.6758C84.3714 11.4883 84.4066 11.3047 84.4691 11.125C84.5238 10.9688 84.6058 10.8086 84.7152 10.6445C84.8323 10.4727 84.9964 10.3203 85.2073 10.1875C85.0667 9.98438 84.9261 9.82812 84.7855 9.71875C84.6448 9.60938 84.5198 9.52734 84.4105 9.47266C84.2777 9.41016 84.1566 9.37109 84.0472 9.35547C83.805 9.35547 83.5863 9.40625 83.3909 9.50781C83.1956 9.60156 83.0277 9.73047 82.887 9.89453C82.7542 10.0508 82.6488 10.2344 82.5706 10.4453C82.5003 10.6562 82.4652 10.875 82.4652 11.1016C82.4652 11.3906 82.4847 11.6523 82.5238 11.8867C82.5628 12.1211 82.6527 12.3594 82.7933 12.6016C82.9339 12.8438 83.1448 13.1055 83.4261 13.3867C83.7073 13.668 84.0902 13.9961 84.5745 14.3711C85.0589 14.7461 85.4808 15.1133 85.8402 15.4727C86.1995 15.8242 86.4964 16.1719 86.7308 16.5156C86.9652 16.8594 87.1409 17.207 87.2581 17.5586C87.3753 17.9023 87.4339 18.2617 87.4339 18.6367C87.4339 18.8867 87.4066 19.1602 87.3519 19.457C87.305 19.7461 87.2191 20.043 87.0941 20.3477C86.9769 20.6445 86.8167 20.9336 86.6136 21.2148C86.4183 21.4883 86.1722 21.7344 85.8753 21.9531C85.5863 22.1719 85.2425 22.3438 84.8441 22.4688C84.4534 22.6016 84.0042 22.668 83.4964 22.668C82.7308 22.668 82.0784 22.5547 81.5394 22.3281C81.0003 22.1016 80.555 21.8281 80.2034 21.5078C79.8597 21.1797 79.6058 20.8359 79.4417 20.4766C79.2855 20.1172 79.2073 19.8008 79.2073 19.5273C79.2073 19.2383 79.2425 18.9688 79.3128 18.7188C79.3831 18.4688 79.4925 18.25 79.6409 18.0625C79.7972 17.875 79.9925 17.7305 80.2269 17.6289C80.4691 17.5195 80.7581 17.4648 81.0941 17.4648C81.3753 17.4648 81.6292 17.5078 81.8558 17.5938C82.0902 17.6797 82.2894 17.8086 82.4534 17.9805C82.6253 18.1445 82.7581 18.3477 82.8519 18.5898C82.9456 18.832 82.9925 19.1055 82.9925 19.4102C82.9847 19.543 82.9573 19.6797 82.9105 19.8203C82.8714 19.9375 82.805 20.0664 82.7113 20.207C82.6175 20.3477 82.4886 20.4805 82.3245 20.6055C82.4339 20.6914 82.5394 20.7578 82.6409 20.8047C82.7503 20.8438 82.848 20.8711 82.9339 20.8867C83.0277 20.9102 83.1214 20.9219 83.2152 20.9219C83.3167 20.9219 83.4339 20.8945 83.5667 20.8398C83.7073 20.7773 83.8402 20.6836 83.9652 20.5586C84.0902 20.4336 84.1956 20.2812 84.2816 20.1016C84.3675 19.9219 84.4105 19.707 84.4105 19.457C84.4105 19.207 84.387 18.9805 84.3402 18.7773C84.3011 18.5664 84.2113 18.3516 84.0706 18.1328C83.9378 17.9062 83.7425 17.6602 83.4847 17.3945C83.2269 17.1289 82.887 16.8086 82.4652 16.4336C82.0433 16.0586 81.6683 15.6953 81.3402 15.3438C81.012 14.9844 80.7347 14.6133 80.5081 14.2305C80.2894 13.8477 80.1214 13.4453 80.0042 13.0234C79.887 12.6016 79.8284 12.1367 79.8284 11.6289C79.8284 11.1289 79.9261 10.6445 80.1214 10.1758C80.3245 9.70703 80.6097 9.29297 80.9769 8.93359C81.3441 8.56641 81.7894 8.27734 82.3128 8.06641C82.8363 7.84766 83.4222 7.73828 84.0706 7.73828C84.7269 7.73828 85.2933 7.83984 85.7698 8.04297C86.2464 8.24609 86.637 8.51953 86.9417 8.86328C87.2464 9.19922 87.473 9.58984 87.6214 10.0352C87.7698 10.4805 87.8441 10.9492 87.8441 11.4414Z" fill="white"/>
<path d="M94.1712 4.1875C94.1087 4.99219 94.058 5.78516 94.0189 6.56641C93.9798 7.33984 93.9408 8.11719 93.9017 8.89844C94.2455 8.88281 94.5853 8.87109 94.9212 8.86328C95.2572 8.84766 95.6009 8.82812 95.9525 8.80469L95.9994 11.8047C95.6244 11.7422 95.2533 11.6914 94.8861 11.6523C94.5189 11.6133 94.1595 11.582 93.808 11.5586C93.7845 12.2227 93.7689 12.8789 93.7611 13.5273C93.7611 14.1758 93.7611 14.832 93.7611 15.4961C93.7611 16.6836 93.7728 17.8633 93.7962 19.0352C93.8275 20.207 93.8744 21.3867 93.9369 22.5742L90.8783 22.5273C90.9798 20.6914 91.0619 18.8594 91.1244 17.0312C91.1947 15.1953 91.2416 13.3477 91.265 11.4883C90.9369 11.5039 90.6087 11.5234 90.2806 11.5469C89.9525 11.5625 89.6166 11.582 89.2728 11.6055L89.3666 8.82812C89.6869 8.85156 90.0033 8.87109 90.3158 8.88672C90.6361 8.89453 90.9525 8.90625 91.265 8.92188C91.265 8.14062 91.2572 7.36328 91.2416 6.58984C91.2259 5.80859 91.2103 5.02344 91.1947 4.23438L94.1712 4.1875Z" fill="white"/>
<path d="M106.241 19.4805C106.241 19.9414 106.135 20.375 105.924 20.7812C105.713 21.1875 105.428 21.5391 105.069 21.8359C104.709 22.1328 104.287 22.3672 103.803 22.5391C103.319 22.7109 102.803 22.7969 102.256 22.7969C101.889 22.7969 101.518 22.7461 101.143 22.6445C100.768 22.543 100.409 22.375 100.065 22.1406C99.7211 21.9062 99.3969 21.5977 99.0922 21.2148C98.7875 20.832 98.5219 20.3633 98.2953 19.8086C98.0766 19.2539 97.9008 18.6055 97.768 17.8633C97.643 17.1133 97.5805 16.2539 97.5805 15.2852C97.5805 14.3711 97.643 13.5625 97.768 12.8594C97.9008 12.1562 98.0766 11.543 98.2953 11.0195C98.5219 10.4961 98.7836 10.0586 99.0805 9.70703C99.3773 9.34766 99.6937 9.05859 100.03 8.83984C100.373 8.61328 100.725 8.45312 101.084 8.35938C101.452 8.26562 101.811 8.21875 102.162 8.21875C102.686 8.21875 103.182 8.30469 103.651 8.47656C104.12 8.64062 104.53 8.88672 104.881 9.21484C105.233 9.54297 105.51 9.94922 105.713 10.4336C105.924 10.9102 106.03 11.4609 106.03 12.0859C106.03 12.6484 105.912 13.2188 105.678 13.7969C105.452 14.3672 105.112 14.9102 104.659 15.4258C104.205 15.9336 103.643 16.3984 102.971 16.8203C102.307 17.2344 101.541 17.5625 100.674 17.8047C100.721 18.2891 100.787 18.7305 100.873 19.1289C100.967 19.5273 101.08 19.8672 101.213 20.1484C101.354 20.4297 101.514 20.6484 101.694 20.8047C101.881 20.9609 102.096 21.0391 102.338 21.0391C102.495 21.0312 102.643 21.0039 102.784 20.957C102.909 20.918 103.034 20.8555 103.159 20.7695C103.291 20.6836 103.401 20.5586 103.487 20.3945C103.284 20.3008 103.127 20.1797 103.018 20.0312C102.909 19.8828 102.827 19.7422 102.772 19.6094C102.709 19.4531 102.674 19.2891 102.666 19.1172C102.666 18.7422 102.741 18.4375 102.889 18.2031C103.037 17.9688 103.213 17.7852 103.416 17.6523C103.62 17.5195 103.827 17.4297 104.037 17.3828C104.248 17.3281 104.416 17.3008 104.541 17.3008C104.674 17.3008 104.834 17.3281 105.022 17.3828C105.217 17.4375 105.405 17.543 105.584 17.6992C105.764 17.8555 105.916 18.0781 106.041 18.3672C106.174 18.6484 106.241 19.0195 106.241 19.4805ZM103.346 12.1094C103.346 11.8281 103.319 11.5625 103.264 11.3125C103.217 11.0547 103.143 10.832 103.041 10.6445C102.948 10.457 102.827 10.3086 102.678 10.1992C102.537 10.082 102.373 10.0234 102.186 10.0234C101.866 10.0234 101.604 10.1719 101.401 10.4688C101.198 10.7578 101.034 11.1445 100.909 11.6289C100.784 12.1133 100.698 12.6719 100.651 13.3047C100.604 13.9375 100.58 14.5977 100.58 15.2852V16.1406C100.979 15.9297 101.346 15.6797 101.682 15.3906C102.026 15.1016 102.319 14.7852 102.561 14.4414C102.811 14.0898 103.002 13.7188 103.135 13.3281C103.276 12.9375 103.346 12.5312 103.346 12.1094Z" fill="white"/>
<path d="M111.56 9.01562L111.49 9.97656C111.747 9.54688 112.021 9.21875 112.31 8.99219C112.607 8.76562 112.88 8.60547 113.13 8.51172C113.38 8.41797 113.587 8.36719 113.751 8.35938C113.923 8.35156 114.017 8.34766 114.033 8.34766C114.611 8.34766 115.115 8.48047 115.544 8.74609C115.974 9.01172 116.33 9.39844 116.611 9.90625C116.892 10.4062 117.099 11.0195 117.232 11.7461C117.372 12.4648 117.443 13.2812 117.443 14.1953C117.443 14.8672 117.431 15.5547 117.408 16.2578C117.392 16.9531 117.353 17.6484 117.29 18.3438C117.236 19.0312 117.158 19.7031 117.056 20.3594C116.962 21.0156 116.833 21.6406 116.669 22.2344L113.939 21.9062C114.119 20.9766 114.259 20.1094 114.361 19.3047C114.462 18.5 114.537 17.7969 114.583 17.1953C114.638 16.4922 114.669 15.8477 114.677 15.2617C114.677 14.5195 114.654 13.875 114.607 13.3281C114.56 12.7734 114.474 12.3164 114.349 11.957C114.232 11.5898 114.068 11.3164 113.857 11.1367C113.646 10.957 113.376 10.8672 113.048 10.8672C112.83 10.9141 112.611 11.0703 112.392 11.3359C112.205 11.5625 112.005 11.9258 111.794 12.4258C111.583 12.918 111.4 13.6133 111.244 14.5117C111.22 15.1211 111.205 15.7266 111.197 16.3281C111.197 16.9219 111.197 17.5547 111.197 18.2266C111.197 18.7969 111.197 19.4102 111.197 20.0664C111.197 20.7227 111.205 21.4648 111.22 22.293L108.56 22.2344C108.583 21.4375 108.599 20.5938 108.607 19.7031C108.622 18.8047 108.63 17.8086 108.63 16.7148C108.63 15.6289 108.622 14.4531 108.607 13.1875C108.591 11.9219 108.56 10.5156 108.513 8.96875L111.56 9.01562Z" fill="white"/>
<path d="M5.91406 12.3555C5.92188 12.3633 5.9375 12.3672 5.96094 12.3672C5.98438 12.375 6.03125 12.3789 6.10156 12.3789C6.21875 12.3789 6.37109 12.3672 6.55859 12.3438C6.74609 12.3203 6.94531 12.2656 7.15625 12.1797C7.375 12.0938 7.58984 11.9688 7.80078 11.8047C8.01953 11.6406 8.21484 11.4219 8.38672 11.1484C8.56641 10.8672 8.71094 10.5234 8.82031 10.1172C8.92969 9.71094 8.98438 9.22266 8.98438 8.65234C8.98438 8.33984 8.92578 8.05469 8.80859 7.79688C8.69141 7.53125 8.53906 7.30469 8.35156 7.11719C8.17188 6.92969 7.96875 6.78516 7.74219 6.68359C7.52344 6.57422 7.30469 6.51953 7.08594 6.51953C6.96875 6.52734 6.85156 6.54688 6.73438 6.57812C6.63281 6.60938 6.51953 6.65625 6.39453 6.71875C6.26953 6.78125 6.14844 6.86719 6.03125 6.97656C6.14844 7.13281 6.23828 7.29688 6.30078 7.46875C6.37109 7.64062 6.42578 7.80078 6.46484 7.94922C6.50391 8.12109 6.52734 8.29297 6.53516 8.46484C6.53516 8.73828 6.48047 8.97656 6.37109 9.17969C6.26172 9.38281 6.12109 9.55469 5.94922 9.69531C5.78516 9.83594 5.60156 9.94141 5.39844 10.0117C5.19531 10.082 5 10.1172 4.8125 10.1172C4.65625 10.1172 4.45312 10.0977 4.20312 10.0586C3.96094 10.0117 3.72266 9.91016 3.48828 9.75391C3.25391 9.59766 3.05078 9.36719 2.87891 9.0625C2.70703 8.75781 2.62109 8.34375 2.62109 7.82031C2.62109 7.30469 2.73828 6.83984 2.97266 6.42578C3.21484 6.00391 3.53516 5.64453 3.93359 5.34766C4.33984 5.04297 4.80859 4.8125 5.33984 4.65625C5.87109 4.49219 6.42969 4.41016 7.01562 4.41016C7.60156 4.41016 8.17969 4.51172 8.75 4.71484C9.32031 4.91797 9.82812 5.22266 10.2734 5.62891C10.7266 6.03516 11.0938 6.54297 11.375 7.15234C11.6562 7.75391 11.7969 8.45703 11.7969 9.26172C11.7969 9.81641 11.7188 10.3242 11.5625 10.7852C11.4141 11.2461 11.2148 11.6602 10.9648 12.0273C10.7227 12.3867 10.4453 12.7031 10.1328 12.9766C9.82812 13.2422 9.51562 13.4648 9.19531 13.6445C9.51562 13.7852 9.82812 13.9688 10.1328 14.1953C10.4453 14.4219 10.7227 14.6953 10.9648 15.0156C11.2148 15.3281 11.4141 15.6953 11.5625 16.1172C11.7188 16.5391 11.7969 17.0195 11.7969 17.5586C11.7969 18.3633 11.6562 19.0703 11.375 19.6797C11.0938 20.2812 10.7266 20.7852 10.2734 21.1914C9.82812 21.5977 9.32031 21.9023 8.75 22.1055C8.17969 22.3086 7.60156 22.4102 7.01562 22.4102C6.42969 22.4102 5.87109 22.3281 5.33984 22.1641C4.80859 22.0078 4.33984 21.7812 3.93359 21.4844C3.53516 21.1797 3.21484 20.8203 2.97266 20.4062C2.73828 19.9844 2.62109 19.5156 2.62109 19C2.62109 18.4766 2.70703 18.0625 2.87891 17.7578C3.05078 17.4531 3.25391 17.2227 3.48828 17.0664C3.72266 16.9102 3.96094 16.8086 4.20312 16.7617C4.45312 16.7148 4.65625 16.6914 4.8125 16.6914C5 16.6914 5.19531 16.7305 5.39844 16.8086C5.60156 16.8789 5.78516 16.9844 5.94922 17.125C6.12109 17.2656 6.26172 17.4414 6.37109 17.6523C6.48047 17.8555 6.53516 18.0898 6.53516 18.3555C6.52734 18.5273 6.50781 18.6992 6.47656 18.8711C6.44531 19.0195 6.39453 19.1797 6.32422 19.3516C6.25391 19.5234 6.15625 19.6875 6.03125 19.8438C6.14844 19.9609 6.26953 20.0508 6.39453 20.1133C6.51953 20.168 6.63281 20.2109 6.73438 20.2422C6.85156 20.2734 6.96875 20.293 7.08594 20.3008C7.30469 20.3008 7.52344 20.25 7.74219 20.1484C7.96875 20.0391 8.17188 19.8906 8.35156 19.7031C8.53906 19.5156 8.69141 19.293 8.80859 19.0352C8.92578 18.7695 8.98438 18.4766 8.98438 18.1562C8.98438 17.5781 8.92578 17.0859 8.80859 16.6797C8.69141 16.2656 8.53906 15.9219 8.35156 15.6484C8.16406 15.375 7.95703 15.1602 7.73047 15.0039C7.50391 14.8477 7.28125 14.7305 7.0625 14.6523C6.84375 14.5664 6.64062 14.5156 6.45312 14.5C6.27344 14.4766 6.13281 14.4648 6.03125 14.4648H5.91406V12.3555Z" stroke="black" stroke-width="4.59152" stroke-linejoin="round" mask="url(#path-1-outside-1_1623_9710)"/>
<path d="M17.5381 11.6992C17.5381 11.9102 17.4952 12.1094 17.4092 12.2969C17.3311 12.4844 17.2217 12.6484 17.0811 12.7891C16.9483 12.9219 16.7881 13.0312 16.6006 13.1172C16.4131 13.1953 16.2139 13.2344 16.003 13.2344C15.7842 13.2344 15.5811 13.1953 15.3936 13.1172C15.2061 13.0312 15.042 12.9219 14.9014 12.7891C14.7608 12.6484 14.6475 12.4844 14.5616 12.2969C14.4834 12.1094 14.4444 11.9102 14.4444 11.6992C14.4444 11.4883 14.4834 11.2891 14.5616 11.1016C14.6475 10.9062 14.7608 10.7383 14.9014 10.5977C15.042 10.457 15.2061 10.3477 15.3936 10.2695C15.5811 10.1836 15.7842 10.1406 16.003 10.1406C16.2139 10.1406 16.4131 10.1836 16.6006 10.2695C16.7881 10.3477 16.9483 10.457 17.0811 10.5977C17.2217 10.7383 17.3311 10.9062 17.4092 11.1016C17.4952 11.2891 17.5381 11.4883 17.5381 11.6992ZM17.5381 20.8984C17.5381 21.1094 17.4952 21.3086 17.4092 21.4961C17.3311 21.6758 17.2217 21.8359 17.0811 21.9766C16.9483 22.1172 16.7881 22.2266 16.6006 22.3047C16.4131 22.3906 16.2139 22.4336 16.003 22.4336C15.7842 22.4336 15.5811 22.3906 15.3936 22.3047C15.2061 22.2266 15.042 22.1172 14.9014 21.9766C14.7608 21.8359 14.6475 21.6758 14.5616 21.4961C14.4834 21.3086 14.4444 21.1094 14.4444 20.8984C14.4444 20.6797 14.4834 20.4766 14.5616 20.2891C14.6475 20.1016 14.7608 19.9375 14.9014 19.7969C15.042 19.6562 15.2061 19.5469 15.3936 19.4688C15.5811 19.3828 15.7842 19.3398 16.003 19.3398C16.2139 19.3398 16.4131 19.3828 16.6006 19.4688C16.7881 19.5469 16.9483 19.6562 17.0811 19.7969C17.2217 19.9375 17.3311 20.1016 17.4092 20.2891C17.4952 20.4766 17.5381 20.6797 17.5381 20.8984Z" stroke="black" stroke-width="4.59152" stroke-linejoin="round" mask="url(#path-1-outside-1_1623_9710)"/>
<path d="M26.5831 20.6055C26.5831 20.0039 26.5675 19.4023 26.5362 18.8008C26.5128 18.1992 26.4855 17.5977 26.4542 16.9961C26.423 16.3867 26.3917 15.7773 26.3605 15.168C26.337 14.5508 26.3253 13.9258 26.3253 13.293C26.3253 12.6289 26.3448 11.957 26.3839 11.2773C26.4308 10.5898 26.5167 9.92969 26.6417 9.29688C26.7667 8.65625 26.9386 8.05859 27.1573 7.50391C27.3761 6.94141 27.6612 6.45312 28.0128 6.03906C28.3644 5.625 28.7941 5.29688 29.3019 5.05469C29.8097 4.8125 30.4073 4.69141 31.0948 4.69141C31.7511 4.69141 32.3214 4.79688 32.8058 5.00781C33.2902 5.21094 33.7003 5.49219 34.0362 5.85156C34.38 6.21094 34.6573 6.63281 34.8683 7.11719C35.087 7.60156 35.255 8.125 35.3722 8.6875C35.4972 9.25 35.5831 9.83594 35.63 10.4453C35.6769 11.0547 35.7003 11.6602 35.7003 12.2617C35.7003 12.418 35.6964 12.5547 35.6886 12.6719C35.6886 12.7891 35.6847 12.918 35.6769 13.0586C35.6769 13.1914 35.6691 13.3516 35.6534 13.5391C35.6456 13.7266 35.6339 13.9727 35.6183 14.2773C35.6027 14.5742 35.5831 14.9414 35.5597 15.3789C35.5441 15.8164 35.5245 16.3555 35.5011 16.9961C35.4777 17.6367 35.4503 18.3945 35.4191 19.2695C35.3878 20.1367 35.3566 21.1523 35.3253 22.3164L31.8214 22.1875C31.9542 21.2969 32.0714 20.4062 32.173 19.5156C32.2823 18.6172 32.3722 17.7812 32.4425 17.0078C31.8409 16.9609 31.2823 16.9375 30.7667 16.9375C30.5011 16.9375 30.2511 16.9414 30.0167 16.9492C29.7823 16.957 29.5753 16.9688 29.3956 16.9844C29.4191 17.3906 29.4464 17.8203 29.4777 18.2734C29.5089 18.7266 29.5441 19.1836 29.5831 19.6445C29.6222 20.1055 29.6652 20.5625 29.712 21.0156C29.7589 21.4609 29.8136 21.8867 29.8761 22.293L26.5597 22.3867C26.5753 22.0977 26.5831 21.8047 26.5831 21.5078C26.5831 21.2031 26.5831 20.9023 26.5831 20.6055ZM29.255 14.5117C29.4894 14.5273 29.7198 14.5352 29.9464 14.5352C30.173 14.5352 30.3956 14.5352 30.6144 14.5352C31.4503 14.5352 32.1222 14.5117 32.63 14.4648C32.6769 13.9102 32.7237 13.3516 32.7706 12.7891C32.8253 12.2266 32.8527 11.625 32.8527 10.9844C32.8527 9.63281 32.712 8.60547 32.4308 7.90234C32.1573 7.19141 31.7511 6.83594 31.212 6.83594C30.9152 6.83594 30.6417 6.94141 30.3917 7.15234C30.1417 7.36328 29.923 7.69141 29.7355 8.13672C29.5558 8.57422 29.4112 9.12891 29.3019 9.80078C29.2003 10.4727 29.1495 11.2656 29.1495 12.1797C29.1495 12.5 29.1573 12.8438 29.173 13.2109C29.1964 13.5703 29.2237 14.0039 29.255 14.5117Z" stroke="black" stroke-width="4.59152" stroke-linejoin="round" mask="url(#path-1-outside-1_1623_9710)"/>
<path d="M44.0783 22.1172C44.0939 21.8047 44.1095 21.5078 44.1252 21.2266C44.1486 20.9375 44.172 20.6602 44.1955 20.3945C43.9298 20.8633 43.6447 21.2227 43.34 21.4727C43.0431 21.7227 42.7658 21.9102 42.508 22.0352C42.2033 22.1758 41.9025 22.2617 41.6056 22.293C41.0275 22.293 40.5236 22.1484 40.0939 21.8594C39.6642 21.5703 39.3088 21.1602 39.0275 20.6289C38.7463 20.0977 38.5353 19.4609 38.3947 18.7188C38.2619 17.9688 38.1955 17.1328 38.1955 16.2109C38.1955 14.9219 38.2345 13.6719 38.3127 12.4609C38.3986 11.25 38.5353 10.0625 38.7228 8.89844L41.6994 9.22656C41.5119 10.1562 41.3673 10.9883 41.2658 11.7227C41.172 12.4492 41.1017 13.0703 41.0548 13.5859C41.0002 14.1875 40.9689 14.7109 40.9611 15.1562C40.9611 15.8984 40.9845 16.5469 41.0314 17.1016C41.0783 17.6484 41.1603 18.1055 41.2775 18.4727C41.4025 18.832 41.5705 19.1016 41.7814 19.2812C41.9923 19.4609 42.2619 19.5508 42.59 19.5508C42.8166 19.5117 43.0392 19.3555 43.258 19.082C43.3517 18.9648 43.4494 18.8164 43.5509 18.6367C43.6525 18.4492 43.7541 18.2227 43.8556 17.957C43.9572 17.6914 44.0548 17.3789 44.1486 17.0195C44.2423 16.6602 44.3322 16.2422 44.4181 15.7656C44.4338 15.3047 44.4416 14.8477 44.4416 14.3945C44.4416 13.9336 44.4416 13.4375 44.4416 12.9062C44.4416 12.3438 44.4416 11.7305 44.4416 11.0664C44.4416 10.4023 44.4338 9.65625 44.4181 8.82812L47.0783 8.875C47.0392 9.46875 47.008 10.0195 46.9845 10.5273C46.9611 11.0273 46.9416 11.5 46.9259 11.9453C46.9181 12.3828 46.9103 12.7969 46.9025 13.1875C46.8947 13.5781 46.8908 13.957 46.8908 14.3242C46.8908 14.8867 46.8947 15.4375 46.9025 15.9766C46.9181 16.5156 46.9377 17.0898 46.9611 17.6992C46.9845 18.3008 47.008 18.9648 47.0314 19.6914C47.0627 20.4102 47.0939 21.2344 47.1252 22.1641L44.0783 22.1172Z" stroke="black" stroke-width="4.59152" stroke-linejoin="round" mask="url(#path-1-outside-1_1623_9710)"/>
<path d="M57.8234 5.34766C57.8234 5.66797 57.7766 5.96875 57.6828 6.25C57.5969 6.52344 57.4758 6.76172 57.3195 6.96484C57.1711 7.16016 56.9914 7.31641 56.7805 7.43359C56.5773 7.54297 56.3547 7.59766 56.1125 7.59766C55.8703 7.59766 55.6437 7.55859 55.4328 7.48047C55.2297 7.39453 55.05 7.28516 54.8937 7.15234C54.7375 7.01172 54.6125 6.85156 54.5187 6.67188C54.4328 6.48438 54.3898 6.28906 54.3898 6.08594C54.3898 6.07031 54.3898 6.01953 54.3898 5.93359C54.3977 5.83984 54.4172 5.72656 54.4484 5.59375C54.4797 5.45312 54.5227 5.30469 54.5773 5.14844C54.6398 4.98438 54.7297 4.82422 54.8469 4.66797C54.4641 4.66797 54.1633 4.76172 53.9445 4.94922C53.7258 5.13672 53.5617 5.39453 53.4523 5.72266C53.3508 6.04297 53.2844 6.42578 53.2531 6.87109C53.2297 7.30859 53.218 7.77734 53.218 8.27734V9.13281C53.6867 9.13281 54.1555 9.12109 54.6242 9.09766C55.1008 9.06641 55.5812 9.03125 56.0656 8.99219L55.925 11.7812C55.4797 11.7266 55.0305 11.6875 54.5773 11.6641C54.1242 11.6406 53.6711 11.6211 53.218 11.6055C53.218 12.5039 53.2219 13.3984 53.2297 14.2891C53.2375 15.1797 53.2453 16.0312 53.2531 16.8438C53.2609 17.6562 53.2648 18.4141 53.2648 19.1172C53.2727 19.8125 53.2766 20.418 53.2766 20.9336C53.2844 21.4414 53.2883 21.8398 53.2883 22.1289C53.2883 22.4258 53.2883 22.5742 53.2883 22.5742L50.6164 22.7148C50.6555 22.1523 50.6828 21.5273 50.6984 20.8398C50.7141 20.1445 50.7219 19.4102 50.7219 18.6367C50.7219 18.0664 50.718 17.4844 50.7102 16.8906C50.7023 16.2891 50.6906 15.6914 50.675 15.0977C50.6594 14.4961 50.6437 13.9062 50.6281 13.3281C50.6125 12.75 50.6008 12.1914 50.593 11.6523C50.3508 11.668 50.1125 11.6875 49.8781 11.7109C49.6516 11.7266 49.4172 11.75 49.175 11.7812L49.0578 8.99219C49.3 9.01562 49.5461 9.03906 49.7961 9.0625C50.0461 9.07812 50.2961 9.09375 50.5461 9.10938V7.79688C50.5461 7.03906 50.6203 6.35156 50.7687 5.73438C50.925 5.10938 51.1672 4.57422 51.4953 4.12891C51.8312 3.68359 52.2609 3.33984 52.7844 3.09766C53.3156 2.84766 53.9562 2.72266 54.7062 2.72266C55.2219 2.72266 55.675 2.80078 56.0656 2.95703C56.4562 3.11328 56.7805 3.32031 57.0383 3.57812C57.2961 3.82812 57.4914 4.10938 57.6242 4.42188C57.757 4.73438 57.8234 5.04297 57.8234 5.34766Z" stroke="black" stroke-width="4.59152" stroke-linejoin="round" mask="url(#path-1-outside-1_1623_9710)"/>
<path d="M60.8225 22.4805L57.6936 22.7148C57.8186 21.3164 57.9084 19.9688 57.9631 18.6719C58.0256 17.3672 58.0569 16.0625 58.0569 14.7578C58.0569 13.8359 58.0412 12.9141 58.01 11.9922C57.9866 11.0625 57.9397 10.1094 57.8694 9.13281L60.5061 8.99219C60.4905 9.16406 60.4787 9.33203 60.4709 9.49609C60.4631 9.66016 60.4592 9.82031 60.4592 9.97656C60.7327 9.55469 61.0295 9.22656 61.3498 8.99219C61.678 8.75 61.9827 8.57422 62.2639 8.46484C62.5842 8.33203 62.9084 8.25 63.2366 8.21875C63.8069 8.21875 64.2952 8.30859 64.7014 8.48828C65.1077 8.66016 65.4397 8.88672 65.6975 9.16797C65.9553 9.44141 66.1428 9.75 66.26 10.0938C66.3772 10.4297 66.4358 10.7578 66.4358 11.0781C66.4358 11.4062 66.4006 11.7383 66.3303 12.0742C66.26 12.4102 66.1389 12.7148 65.967 12.9883C65.803 13.2539 65.5803 13.4727 65.2991 13.6445C65.0256 13.8086 64.6858 13.8906 64.2795 13.8906C63.8733 13.8906 63.553 13.8164 63.3186 13.668C63.0842 13.5195 62.9045 13.3438 62.7795 13.1406C62.6623 12.9297 62.5842 12.7148 62.5452 12.4961C62.5139 12.2695 62.4983 12.0781 62.4983 11.9219C62.4983 11.8125 62.5178 11.6914 62.5569 11.5586C62.5959 11.418 62.6545 11.2773 62.7327 11.1367C62.8108 10.9961 62.9084 10.8594 63.0256 10.7266C63.1428 10.5859 63.2795 10.457 63.4358 10.3398C63.3889 10.3242 63.3381 10.3125 63.2834 10.3047C63.2366 10.2969 63.1897 10.293 63.1428 10.293C62.7522 10.293 62.4045 10.418 62.0998 10.668C61.7952 10.9102 61.5295 11.25 61.303 11.6875C61.0842 12.125 60.9006 12.6406 60.7522 13.2344C60.6116 13.8281 60.5061 14.4766 60.4358 15.1797C60.4748 16.3906 60.5295 17.5898 60.5998 18.7773C60.6702 19.9648 60.7444 21.1992 60.8225 22.4805Z" stroke="black" stroke-width="4.59152" stroke-linejoin="round" mask="url(#path-1-outside-1_1623_9710)"/>
<path d="M74.0755 22.1172C74.0911 21.8047 74.1067 21.5078 74.1223 21.2266C74.1458 20.9375 74.1692 20.6602 74.1927 20.3945C73.927 20.8633 73.6419 21.2227 73.3372 21.4727C73.0403 21.7227 72.763 21.9102 72.5052 22.0352C72.2005 22.1758 71.8997 22.2617 71.6028 22.293C71.0247 22.293 70.5208 22.1484 70.0911 21.8594C69.6614 21.5703 69.3059 21.1602 69.0247 20.6289C68.7434 20.0977 68.5325 19.4609 68.3919 18.7188C68.2591 17.9688 68.1927 17.1328 68.1927 16.2109C68.1927 14.9219 68.2317 13.6719 68.3098 12.4609C68.3958 11.25 68.5325 10.0625 68.72 8.89844L71.6966 9.22656C71.5091 10.1562 71.3645 10.9883 71.263 11.7227C71.1692 12.4492 71.0989 13.0703 71.052 13.5859C70.9973 14.1875 70.9661 14.7109 70.9583 15.1562C70.9583 15.8984 70.9817 16.5469 71.0286 17.1016C71.0755 17.6484 71.1575 18.1055 71.2747 18.4727C71.3997 18.832 71.5677 19.1016 71.7786 19.2812C71.9895 19.4609 72.2591 19.5508 72.5872 19.5508C72.8138 19.5117 73.0364 19.3555 73.2552 19.082C73.3489 18.9648 73.4466 18.8164 73.5481 18.6367C73.6497 18.4492 73.7513 18.2227 73.8528 17.957C73.9544 17.6914 74.052 17.3789 74.1458 17.0195C74.2395 16.6602 74.3294 16.2422 74.4153 15.7656C74.4309 15.3047 74.4388 14.8477 74.4388 14.3945C74.4388 13.9336 74.4388 13.4375 74.4388 12.9062C74.4388 12.3438 74.4388 11.7305 74.4388 11.0664C74.4388 10.4023 74.4309 9.65625 74.4153 8.82812L77.0755 8.875C77.0364 9.46875 77.0052 10.0195 76.9817 10.5273C76.9583 11.0273 76.9388 11.5 76.9231 11.9453C76.9153 12.3828 76.9075 12.7969 76.8997 13.1875C76.8919 13.5781 76.888 13.957 76.888 14.3242C76.888 14.8867 76.8919 15.4375 76.8997 15.9766C76.9153 16.5156 76.9348 17.0898 76.9583 17.6992C76.9817 18.3008 77.0052 18.9648 77.0286 19.6914C77.0598 20.4102 77.0911 21.2344 77.1223 22.1641L74.0755 22.1172ZM72.3294 6.73047C72.3294 6.89453 72.2942 7.05078 72.2239 7.19922C72.1614 7.34766 72.0716 7.48047 71.9544 7.59766C71.845 7.70703 71.7122 7.79297 71.5559 7.85547C71.4075 7.91797 71.2473 7.94922 71.0755 7.94922C70.9114 7.94922 70.7513 7.91797 70.595 7.85547C70.4466 7.79297 70.3138 7.70703 70.1966 7.59766C70.0872 7.48047 69.9973 7.34766 69.927 7.19922C69.8645 7.05078 69.8333 6.89453 69.8333 6.73047C69.8333 6.55859 69.8645 6.39844 69.927 6.25C69.9973 6.09375 70.0872 5.96094 70.1966 5.85156C70.3138 5.73438 70.4466 5.64453 70.595 5.58203C70.7513 5.51172 70.9114 5.47656 71.0755 5.47656C71.2473 5.47656 71.4075 5.51172 71.5559 5.58203C71.7122 5.64453 71.845 5.73438 71.9544 5.85156C72.0716 5.96094 72.1614 6.09375 72.2239 6.25C72.2942 6.39844 72.3294 6.55859 72.3294 6.73047ZM75.4934 6.73047C75.4934 6.89453 75.4583 7.05078 75.388 7.19922C75.3255 7.34766 75.2356 7.48047 75.1184 7.59766C75.0091 7.70703 74.8763 7.79297 74.72 7.85547C74.5716 7.91797 74.4153 7.94922 74.2513 7.94922C74.0794 7.94922 73.9153 7.91797 73.7591 7.85547C73.6106 7.79297 73.4778 7.70703 73.3606 7.59766C73.2513 7.48047 73.1614 7.34766 73.0911 7.19922C73.0286 7.05078 72.9973 6.89453 72.9973 6.73047C72.9973 6.55859 73.0286 6.39844 73.0911 6.25C73.1614 6.09375 73.2513 5.96094 73.3606 5.85156C73.4778 5.73438 73.6106 5.64453 73.7591 5.58203C73.9153 5.51172 74.0794 5.47656 74.2513 5.47656C74.4153 5.47656 74.5716 5.51172 74.72 5.58203C74.8763 5.64453 75.0091 5.73438 75.1184 5.85156C75.2356 5.96094 75.3255 6.09375 75.388 6.25C75.4583 6.39844 75.4934 6.55859 75.4934 6.73047Z" stroke="black" stroke-width="4.59152" stroke-linejoin="round" mask="url(#path-1-outside-1_1623_9710)"/>
<path d="M87.8441 11.4414C87.8441 11.8008 87.7777 12.1055 87.6448 12.3555C87.512 12.6055 87.3519 12.8086 87.1644 12.9648C86.9769 13.1211 86.7816 13.2344 86.5784 13.3047C86.3753 13.375 86.2034 13.4102 86.0628 13.4102C85.9222 13.4102 85.7542 13.3867 85.5589 13.3398C85.3636 13.2852 85.1761 13.1914 84.9964 13.0586C84.8245 12.9258 84.6761 12.75 84.5511 12.5312C84.4261 12.3047 84.3636 12.0195 84.3636 11.6758C84.3714 11.4883 84.4066 11.3047 84.4691 11.125C84.5238 10.9688 84.6058 10.8086 84.7152 10.6445C84.8323 10.4727 84.9964 10.3203 85.2073 10.1875C85.0667 9.98438 84.9261 9.82812 84.7855 9.71875C84.6448 9.60938 84.5198 9.52734 84.4105 9.47266C84.2777 9.41016 84.1566 9.37109 84.0472 9.35547C83.805 9.35547 83.5863 9.40625 83.3909 9.50781C83.1956 9.60156 83.0277 9.73047 82.887 9.89453C82.7542 10.0508 82.6488 10.2344 82.5706 10.4453C82.5003 10.6562 82.4652 10.875 82.4652 11.1016C82.4652 11.3906 82.4847 11.6523 82.5238 11.8867C82.5628 12.1211 82.6527 12.3594 82.7933 12.6016C82.9339 12.8438 83.1448 13.1055 83.4261 13.3867C83.7073 13.668 84.0902 13.9961 84.5745 14.3711C85.0589 14.7461 85.4808 15.1133 85.8402 15.4727C86.1995 15.8242 86.4964 16.1719 86.7308 16.5156C86.9652 16.8594 87.1409 17.207 87.2581 17.5586C87.3753 17.9023 87.4339 18.2617 87.4339 18.6367C87.4339 18.8867 87.4066 19.1602 87.3519 19.457C87.305 19.7461 87.2191 20.043 87.0941 20.3477C86.9769 20.6445 86.8167 20.9336 86.6136 21.2148C86.4183 21.4883 86.1722 21.7344 85.8753 21.9531C85.5863 22.1719 85.2425 22.3438 84.8441 22.4688C84.4534 22.6016 84.0042 22.668 83.4964 22.668C82.7308 22.668 82.0784 22.5547 81.5394 22.3281C81.0003 22.1016 80.555 21.8281 80.2034 21.5078C79.8597 21.1797 79.6058 20.8359 79.4417 20.4766C79.2855 20.1172 79.2073 19.8008 79.2073 19.5273C79.2073 19.2383 79.2425 18.9688 79.3128 18.7188C79.3831 18.4688 79.4925 18.25 79.6409 18.0625C79.7972 17.875 79.9925 17.7305 80.2269 17.6289C80.4691 17.5195 80.7581 17.4648 81.0941 17.4648C81.3753 17.4648 81.6292 17.5078 81.8558 17.5938C82.0902 17.6797 82.2894 17.8086 82.4534 17.9805C82.6253 18.1445 82.7581 18.3477 82.8519 18.5898C82.9456 18.832 82.9925 19.1055 82.9925 19.4102C82.9847 19.543 82.9573 19.6797 82.9105 19.8203C82.8714 19.9375 82.805 20.0664 82.7113 20.207C82.6175 20.3477 82.4886 20.4805 82.3245 20.6055C82.4339 20.6914 82.5394 20.7578 82.6409 20.8047C82.7503 20.8438 82.848 20.8711 82.9339 20.8867C83.0277 20.9102 83.1214 20.9219 83.2152 20.9219C83.3167 20.9219 83.4339 20.8945 83.5667 20.8398C83.7073 20.7773 83.8402 20.6836 83.9652 20.5586C84.0902 20.4336 84.1956 20.2812 84.2816 20.1016C84.3675 19.9219 84.4105 19.707 84.4105 19.457C84.4105 19.207 84.387 18.9805 84.3402 18.7773C84.3011 18.5664 84.2113 18.3516 84.0706 18.1328C83.9378 17.9062 83.7425 17.6602 83.4847 17.3945C83.2269 17.1289 82.887 16.8086 82.4652 16.4336C82.0433 16.0586 81.6683 15.6953 81.3402 15.3438C81.012 14.9844 80.7347 14.6133 80.5081 14.2305C80.2894 13.8477 80.1214 13.4453 80.0042 13.0234C79.887 12.6016 79.8284 12.1367 79.8284 11.6289C79.8284 11.1289 79.9261 10.6445 80.1214 10.1758C80.3245 9.70703 80.6097 9.29297 80.9769 8.93359C81.3441 8.56641 81.7894 8.27734 82.3128 8.06641C82.8363 7.84766 83.4222 7.73828 84.0706 7.73828C84.7269 7.73828 85.2933 7.83984 85.7698 8.04297C86.2464 8.24609 86.637 8.51953 86.9417 8.86328C87.2464 9.19922 87.473 9.58984 87.6214 10.0352C87.7698 10.4805 87.8441 10.9492 87.8441 11.4414Z" stroke="black" stroke-width="4.59152" stroke-linejoin="round" mask="url(#path-1-outside-1_1623_9710)"/>
<path d="M94.1712 4.1875C94.1087 4.99219 94.058 5.78516 94.0189 6.56641C93.9798 7.33984 93.9408 8.11719 93.9017 8.89844C94.2455 8.88281 94.5853 8.87109 94.9212 8.86328C95.2572 8.84766 95.6009 8.82812 95.9525 8.80469L95.9994 11.8047C95.6244 11.7422 95.2533 11.6914 94.8861 11.6523C94.5189 11.6133 94.1595 11.582 93.808 11.5586C93.7845 12.2227 93.7689 12.8789 93.7611 13.5273C93.7611 14.1758 93.7611 14.832 93.7611 15.4961C93.7611 16.6836 93.7728 17.8633 93.7962 19.0352C93.8275 20.207 93.8744 21.3867 93.9369 22.5742L90.8783 22.5273C90.9798 20.6914 91.0619 18.8594 91.1244 17.0312C91.1947 15.1953 91.2416 13.3477 91.265 11.4883C90.9369 11.5039 90.6087 11.5234 90.2806 11.5469C89.9525 11.5625 89.6166 11.582 89.2728 11.6055L89.3666 8.82812C89.6869 8.85156 90.0033 8.87109 90.3158 8.88672C90.6361 8.89453 90.9525 8.90625 91.265 8.92188C91.265 8.14062 91.2572 7.36328 91.2416 6.58984C91.2259 5.80859 91.2103 5.02344 91.1947 4.23438L94.1712 4.1875Z" stroke="black" stroke-width="4.59152" stroke-linejoin="round" mask="url(#path-1-outside-1_1623_9710)"/>
<path d="M106.241 19.4805C106.241 19.9414 106.135 20.375 105.924 20.7812C105.713 21.1875 105.428 21.5391 105.069 21.8359C104.709 22.1328 104.287 22.3672 103.803 22.5391C103.319 22.7109 102.803 22.7969 102.256 22.7969C101.889 22.7969 101.518 22.7461 101.143 22.6445C100.768 22.543 100.409 22.375 100.065 22.1406C99.7211 21.9062 99.3969 21.5977 99.0922 21.2148C98.7875 20.832 98.5219 20.3633 98.2953 19.8086C98.0766 19.2539 97.9008 18.6055 97.768 17.8633C97.643 17.1133 97.5805 16.2539 97.5805 15.2852C97.5805 14.3711 97.643 13.5625 97.768 12.8594C97.9008 12.1562 98.0766 11.543 98.2953 11.0195C98.5219 10.4961 98.7836 10.0586 99.0805 9.70703C99.3773 9.34766 99.6937 9.05859 100.03 8.83984C100.373 8.61328 100.725 8.45312 101.084 8.35938C101.452 8.26562 101.811 8.21875 102.162 8.21875C102.686 8.21875 103.182 8.30469 103.651 8.47656C104.12 8.64062 104.53 8.88672 104.881 9.21484C105.233 9.54297 105.51 9.94922 105.713 10.4336C105.924 10.9102 106.03 11.4609 106.03 12.0859C106.03 12.6484 105.912 13.2188 105.678 13.7969C105.452 14.3672 105.112 14.9102 104.659 15.4258C104.205 15.9336 103.643 16.3984 102.971 16.8203C102.307 17.2344 101.541 17.5625 100.674 17.8047C100.721 18.2891 100.787 18.7305 100.873 19.1289C100.967 19.5273 101.08 19.8672 101.213 20.1484C101.354 20.4297 101.514 20.6484 101.694 20.8047C101.881 20.9609 102.096 21.0391 102.338 21.0391C102.495 21.0312 102.643 21.0039 102.784 20.957C102.909 20.918 103.034 20.8555 103.159 20.7695C103.291 20.6836 103.401 20.5586 103.487 20.3945C103.284 20.3008 103.127 20.1797 103.018 20.0312C102.909 19.8828 102.827 19.7422 102.772 19.6094C102.709 19.4531 102.674 19.2891 102.666 19.1172C102.666 18.7422 102.741 18.4375 102.889 18.2031C103.037 17.9688 103.213 17.7852 103.416 17.6523C103.62 17.5195 103.827 17.4297 104.037 17.3828C104.248 17.3281 104.416 17.3008 104.541 17.3008C104.674 17.3008 104.834 17.3281 105.022 17.3828C105.217 17.4375 105.405 17.543 105.584 17.6992C105.764 17.8555 105.916 18.0781 106.041 18.3672C106.174 18.6484 106.241 19.0195 106.241 19.4805ZM103.346 12.1094C103.346 11.8281 103.319 11.5625 103.264 11.3125C103.217 11.0547 103.143 10.832 103.041 10.6445C102.948 10.457 102.827 10.3086 102.678 10.1992C102.537 10.082 102.373 10.0234 102.186 10.0234C101.866 10.0234 101.604 10.1719 101.401 10.4688C101.198 10.7578 101.034 11.1445 100.909 11.6289C100.784 12.1133 100.698 12.6719 100.651 13.3047C100.604 13.9375 100.58 14.5977 100.58 15.2852V16.1406C100.979 15.9297 101.346 15.6797 101.682 15.3906C102.026 15.1016 102.319 14.7852 102.561 14.4414C102.811 14.0898 103.002 13.7188 103.135 13.3281C103.276 12.9375 103.346 12.5312 103.346 12.1094Z" stroke="black" stroke-width="4.59152" stroke-linejoin="round" mask="url(#path-1-outside-1_1623_9710)"/>
<path d="M111.56 9.01562L111.49 9.97656C111.747 9.54688 112.021 9.21875 112.31 8.99219C112.607 8.76562 112.88 8.60547 113.13 8.51172C113.38 8.41797 113.587 8.36719 113.751 8.35938C113.923 8.35156 114.017 8.34766 114.033 8.34766C114.611 8.34766 115.115 8.48047 115.544 8.74609C115.974 9.01172 116.33 9.39844 116.611 9.90625C116.892 10.4062 117.099 11.0195 117.232 11.7461C117.372 12.4648 117.443 13.2812 117.443 14.1953C117.443 14.8672 117.431 15.5547 117.408 16.2578C117.392 16.9531 117.353 17.6484 117.29 18.3438C117.236 19.0312 117.158 19.7031 117.056 20.3594C116.962 21.0156 116.833 21.6406 116.669 22.2344L113.939 21.9062C114.119 20.9766 114.259 20.1094 114.361 19.3047C114.462 18.5 114.537 17.7969 114.583 17.1953C114.638 16.4922 114.669 15.8477 114.677 15.2617C114.677 14.5195 114.654 13.875 114.607 13.3281C114.56 12.7734 114.474 12.3164 114.349 11.957C114.232 11.5898 114.068 11.3164 113.857 11.1367C113.646 10.957 113.376 10.8672 113.048 10.8672C112.83 10.9141 112.611 11.0703 112.392 11.3359C112.205 11.5625 112.005 11.9258 111.794 12.4258C111.583 12.918 111.4 13.6133 111.244 14.5117C111.22 15.1211 111.205 15.7266 111.197 16.3281C111.197 16.9219 111.197 17.5547 111.197 18.2266C111.197 18.7969 111.197 19.4102 111.197 20.0664C111.197 20.7227 111.205 21.4648 111.22 22.293L108.56 22.2344C108.583 21.4375 108.599 20.5938 108.607 19.7031C108.622 18.8047 108.63 17.8086 108.63 16.7148C108.63 15.6289 108.622 14.4531 108.607 13.1875C108.591 11.9219 108.56 10.5156 108.513 8.96875L111.56 9.01562Z" stroke="black" stroke-width="4.59152" stroke-linejoin="round" mask="url(#path-1-outside-1_1623_9710)"/>
</svg>
