<svg width="61" height="91" fill="none" xmlns="http://www.w3.org/2000/svg"><rect x=".39" y=".05" width="60.06" height="90.09" rx="4.62" fill="#fff"/><mask id="a" style="mask-type:alpha" maskUnits="userSpaceOnUse" x="1" y="1" width="58" height="87"><path d="M11.28 2.36h42.24a4.04 4.04 0 0 1 4.04 4.04v64.16c0 1.24-1 2.25-2.25 2.25a3.4 3.4 0 0 0-3.35 2.81l-1.12 6.39c-.16.9.25 1.8 1.03 2.26.9.54.53 1.92-.52 1.94l-44.94.94a4.04 4.04 0 0 1-4.13-4.18l2.04-62.75a2.94 2.94 0 0 1 2.95-2.85 4.1 4.1 0 0 0 4.1-4.1V8.23c0-.96-.46-1.87-1.23-2.44a1.9 1.9 0 0 1 1.14-3.42Z" fill="#C4C4C4" stroke="#000" stroke-width="1.15"/></mask><g mask="url(#a)"><rect x="6.17" y="5.25" width="49.66" height="79.69" rx="4.04" stroke="#000" stroke-width="1.15"/></g><path d="M16.7 19.68h-4.88c1.94-1.13 2.28-2.06 2.44-3.87L11 17.36c-1.78-1.2-1.87-1.87 0-3.1l3.26 1.55-1.63-3.88c1.03-2.02 2.03-1.94 3.25 0l-1.62 3.88 3.66-1.56c1.42 1.22 1.1 1.9 0 3.1l-3.66-1.54c.3 1.81.71 2.72 2.44 3.87Z" fill="#000"/><path d="M14.26 15.8c-.16 1.82-.5 2.75-2.44 3.88h4.88c-1.73-1.15-2.15-2.06-2.44-3.87Zm0 0L11 17.37c-1.78-1.2-1.87-1.87 0-3.1l3.26 1.55Zm0 0 1.62-3.87c-1.22-1.94-2.22-2.02-3.25 0l1.63 3.88Zm0 0 3.66-1.55c1.42 1.22 1.1 1.9 0 3.1l-3.66-1.54Z" stroke="#000" stroke-width="1.15"/><path d="M21.59 30.08h-4.27c1.7-1 2-1.8 2.13-3.4l-2.84 1.36c-1.56-1.04-1.64-1.63 0-2.71l2.84 1.35-1.42-3.39c.9-1.76 1.78-1.7 2.85 0l-1.43 3.4 3.2-1.36c1.25 1.06.98 1.65 0 2.71l-3.2-1.36c.26 1.6.63 2.38 2.14 3.4Z" fill="#000"/><path d="M19.45 26.68c-.13 1.6-.43 2.4-2.13 3.4h4.27c-1.5-1.02-1.88-1.8-2.14-3.4Zm0 0-2.84 1.36c-1.56-1.04-1.64-1.63 0-2.71l2.84 1.35Zm0 0 1.43-3.39c-1.07-1.7-1.95-1.76-2.85 0l1.42 3.4Zm0 0 3.2-1.35c1.25 1.06.98 1.65 0 2.71l-3.2-1.36Z" stroke="#000" stroke-width="1.15"/><path d="M40.4 30.08h4.28c-1.7-1-2-1.8-2.14-3.4l2.85 1.36c1.56-1.04 1.64-1.63 0-2.71l-2.85 1.35 1.43-3.39c-.9-1.76-1.78-1.7-2.85 0l1.42 3.4-3.2-1.36c-1.25 1.06-.97 1.65 0 2.71l3.2-1.36c-.25 1.6-.62 2.38-2.13 3.4Z" fill="#000"/><path d="M42.54 26.68c.14 1.6.44 2.4 2.14 3.4h-4.27c1.5-1.02 1.88-1.8 2.13-3.4Zm0 0 2.85 1.36c1.56-1.04 1.64-1.63 0-2.71l-2.85 1.35Zm0 0-1.42-3.39c1.07-1.7 1.95-1.76 2.85 0l-1.43 3.4Zm0 0-3.2-1.35c-1.25 1.06-.97 1.65 0 2.71l3.2-1.36Z" stroke="#000" stroke-width="1.15"/><path d="M28.86 40.47h4.27c-1.7-1-2-1.8-2.13-3.4l2.84 1.37c1.56-1.04 1.64-1.64 0-2.72L31 37.08l1.42-3.4c-.9-1.76-1.78-1.7-2.85 0l1.43 3.4-3.2-1.36c-1.26 1.06-.98 1.66 0 2.72l3.2-1.36c-.26 1.6-.63 2.38-2.14 3.4Z" fill="#000"/><path d="M31 37.08c.13 1.6.43 2.4 2.13 3.4h-4.27c1.5-1.02 1.88-1.8 2.14-3.4Zm0 0 2.84 1.36c1.56-1.04 1.64-1.64 0-2.72L31 37.08Zm0 0-1.43-3.4c1.07-1.7 1.95-1.76 2.85 0L31 37.09Zm0 0-3.2-1.36c-1.26 1.06-.98 1.66 0 2.72l3.2-1.36Z" stroke="#000" stroke-width="1.15"/><path d="M21.59 47.4h-4.27c1.7-1 2-1.8 2.13-3.4l-2.84 1.37c-1.56-1.04-1.64-1.64 0-2.72l2.84 1.36-1.42-3.4c.9-1.76 1.78-1.7 2.85 0l-1.43 3.4 3.2-1.36c1.25 1.06.98 1.66 0 2.72L19.46 44c.26 1.6.63 2.38 2.14 3.4Z" fill="#000"/><path d="M19.45 44c-.13 1.6-.43 2.4-2.13 3.4h4.27c-1.5-1.01-1.88-1.8-2.14-3.4Zm0 0-2.84 1.37c-1.56-1.04-1.64-1.64 0-2.72l2.84 1.36Zm0 0 1.43-3.38c-1.07-1.7-1.95-1.77-2.85 0L19.45 44Zm0 0 3.2-1.35c1.25 1.06.98 1.66 0 2.72L19.46 44Z" stroke="#000" stroke-width="1.15"/><path d="M40.4 47.4h4.28c-1.7-1-2-1.8-2.14-3.4l2.85 1.37c1.56-1.04 1.64-1.64 0-2.72l-2.85 1.36 1.43-3.4c-.9-1.76-1.78-1.7-2.85 0l1.42 3.4-3.2-1.36c-1.25 1.06-.97 1.66 0 2.72l3.2-1.36c-.25 1.6-.62 2.38-2.13 3.4Z" fill="#000"/><path d="M42.54 44c.14 1.6.44 2.4 2.14 3.4h-4.27c1.5-1.01 1.88-1.8 2.13-3.4Zm0 0 2.85 1.37c1.56-1.04 1.64-1.64 0-2.72l-2.85 1.36Zm0 0-1.42-3.38c1.07-1.7 1.95-1.77 2.85 0L42.54 44Zm0 0-3.2-1.35c-1.25 1.06-.97 1.66 0 2.72l3.2-1.36Z" stroke="#000" stroke-width="1.15"/><path d="M33.14 49.71h-4.27c1.7 1 2 1.8 2.13 3.4l-2.85-1.36c-1.55 1.04-1.63 1.63 0 2.71L31 53.11l-1.42 3.39c.9 1.76 1.78 1.7 2.85 0L31 53.1l3.2 1.36c1.25-1.06.98-1.65 0-2.71L31 53.1c.26-1.6.63-2.38 2.14-3.4Z" fill="#000"/><path d="M31 53.1c-.13-1.59-.43-2.4-2.13-3.39h4.27c-1.51 1.02-1.88 1.8-2.14 3.4Zm0 0-2.85-1.35c-1.55 1.04-1.63 1.63 0 2.71L31 53.11Zm0 0 1.43 3.4c-1.07 1.7-1.95 1.76-2.85 0L31 53.1Zm0 0 3.2 1.36c1.25-1.06.98-1.65 0-2.71L31 53.1Z" stroke="#000" stroke-width="1.15"/><path d="M40.4 60.1h4.28c-1.7 1-2 1.8-2.14 3.4l2.85-1.36c1.56 1.04 1.64 1.64 0 2.72l-2.85-1.36 1.43 3.4c-.9 1.76-1.78 1.7-2.85 0l1.42-3.4-3.2 1.36c-1.25-1.06-.97-1.66 0-2.72l3.2 1.36c-.25-1.6-.62-2.38-2.13-3.4Z" fill="#000"/><path d="M42.54 63.5c.14-1.6.44-2.4 2.14-3.4h-4.27c1.5 1.02 1.88 1.8 2.13 3.4Zm0 0 2.85-1.36c1.56 1.04 1.64 1.64 0 2.72l-2.85-1.36Zm0 0-1.42 3.4c1.07 1.7 1.95 1.76 2.85 0l-1.43-3.4Zm0 0-3.2 1.36c-1.25-1.06-.97-1.66 0-2.72l3.2 1.36Z" stroke="#000" stroke-width="1.15"/><path d="M21.59 60.1h-4.27c1.7 1 2 1.8 2.13 3.4l-2.84-1.36c-1.56 1.04-1.64 1.64 0 2.72l2.84-1.36-1.42 3.4c.9 1.76 1.78 1.7 2.85 0l-1.43-3.4 3.2 1.36c1.25-1.06.98-1.66 0-2.72l-3.2 1.36c.26-1.6.63-2.38 2.14-3.4Z" fill="#000"/><path d="M19.45 63.5c-.13-1.6-.43-2.4-2.13-3.4h4.27c-1.5 1.02-1.88 1.8-2.14 3.4Zm0 0-2.84-1.36c-1.56 1.04-1.64 1.64 0 2.72l2.84-1.36Zm0 0 1.43 3.4c-1.07 1.7-1.95 1.76-2.85 0l1.42-3.4Zm0 0 3.2 1.36c1.25-1.06.98-1.66 0-2.72l-3.2 1.36Z" stroke="#000" stroke-width="1.15"/><path d="M44.15 70.5h4.88c-1.94 1.14-2.29 2.06-2.44 3.88l3.25-1.55c1.78 1.19 1.87 1.87 0 3.1l-3.25-1.55 1.62 3.88c-1.03 2.01-2.03 1.94-3.25 0l1.63-3.88-3.66 1.55c-1.43-1.21-1.12-1.89 0-3.1l3.66 1.55c-.3-1.82-.72-2.72-2.44-3.88Z" fill="#000"/><path d="M46.59 74.38c.15-1.82.5-2.74 2.44-3.88h-4.88c1.72 1.16 2.14 2.06 2.44 3.88Zm0 0 3.25-1.55c1.78 1.19 1.87 1.87 0 3.1l-3.25-1.55Zm0 0-1.63 3.88c1.22 1.94 2.22 2.01 3.25 0l-1.62-3.88Zm0 0-3.66 1.55c-1.43-1.21-1.12-1.89 0-3.1l3.66 1.55Z" stroke="#000" stroke-width="1.15"/><path d="M5.7 14.58c-.3 0-.61-.06-.92-.16A2.43 2.43 0 0 1 3.18 12c0-.29.03-.54.11-.76a2.18 2.18 0 0 1 .76-1.02c.16-.12.33-.22.5-.3a2.88 2.88 0 0 1-.94-.86 2.62 2.62 0 0 1-.43-1.46 2.61 2.61 0 0 1 .8-1.92c.23-.21.5-.37.8-.48a2.72 2.72 0 0 1 1.83 0 2.43 2.43 0 0 1 1.62 2.4 2.62 2.62 0 0 1-.88 1.97c-.16.14-.32.26-.5.36a2.55 2.55 0 0 1 .94.72c.14.17.24.36.32.59a2.65 2.65 0 0 1-.1 1.89 2.38 2.38 0 0 1-1.4 1.28c-.3.1-.6.16-.9.16Zm1.04-7.29a1.17 1.17 0 0 0-.66-1.04.77.77 0 0 0-.34-.08 1.13 1.13 0 0 0-.74.32 1.17 1.17 0 0 0-.34.8c0 .33.03.62.1.85.06.24.14.44.24.6.1.16.22.3.34.39.12.1.24.17.36.22.12-.05.24-.13.36-.23s.23-.23.33-.4c.1-.16.19-.36.26-.59.06-.23.1-.51.1-.84Zm-2.08 5.03a1.08 1.08 0 0 0 .35.82c.1.1.22.18.35.24.13.05.26.08.38.08s.23-.03.35-.08c.12-.06.22-.14.32-.24a1.14 1.14 0 0 0 .33-.82c0-.3-.03-.57-.1-.8a1.92 1.92 0 0 0-.24-.56c-.1-.15-.21-.27-.34-.37-.12-.09-.24-.16-.36-.2-.12.04-.24.11-.36.2-.12.1-.23.22-.34.37-.1.15-.18.34-.25.56-.06.22-.09.5-.09.8ZM55.14 75.6c.31 0 .62.06.92.17a2.42 2.42 0 0 1 1.61 2.4 2.18 2.18 0 0 1-.87 1.78c-.17.13-.34.22-.5.3a2.88 2.88 0 0 1 .94.86 2.62 2.62 0 0 1 .43 1.46 2.61 2.61 0 0 1-.8 1.92c-.24.22-.51.38-.81.49a2.72 2.72 0 0 1-1.83 0 2.43 2.43 0 0 1-1.62-2.41 2.62 2.62 0 0 1 .88-1.97c.16-.14.33-.26.5-.35a2.55 2.55 0 0 1-.94-.73 1.97 1.97 0 0 1-.32-.58 2.66 2.66 0 0 1 .1-1.89 2.38 2.38 0 0 1 1.4-1.28c.3-.1.6-.16.91-.16Zm-1.04 7.3a1.17 1.17 0 0 0 .66 1.04c.11.05.23.08.34.08a1.13 1.13 0 0 0 .74-.32 1.17 1.17 0 0 0 .34-.8c0-.34-.03-.62-.1-.86a2.35 2.35 0 0 0-.24-.6c-.1-.16-.21-.29-.33-.39-.13-.09-.25-.16-.37-.22-.12.06-.23.14-.35.24-.13.1-.24.23-.34.39-.1.16-.19.36-.25.6-.07.23-.1.5-.1.83Zm2.08-5.04a1.08 1.08 0 0 0-.35-.82c-.1-.1-.22-.18-.35-.23a.97.97 0 0 0-.38-.09.82.82 0 0 0-.34.09 1.19 1.19 0 0 0-.56.59c-.07.14-.1.3-.1.46 0 .31.03.58.1.8.06.22.14.41.24.56.1.16.22.28.34.37.12.1.24.16.36.21.12-.05.24-.12.37-.2.12-.1.23-.22.33-.38.1-.14.18-.33.25-.55.06-.23.1-.5.1-.81Z" fill="#000"/></svg>