<svg width="163" height="25" viewBox="0 0 163 25" fill="none" xmlns="http://www.w3.org/2000/svg">
<mask id="path-1-outside-1_1599_9837" maskUnits="userSpaceOnUse" x="-0.15625" y="-0.269531" width="163" height="25" fill="black">
<rect fill="white" x="-0.15625" y="-0.269531" width="163" height="25"/>
<path d="M3.10156 19.6055C3.10156 19.0039 3.08594 18.4023 3.05469 17.8008C3.03125 17.1992 3.00391 16.5977 2.97266 15.9961C2.94141 15.3867 2.91016 14.7773 2.87891 14.168C2.85547 13.5508 2.84375 12.9258 2.84375 12.293C2.84375 11.6289 2.86328 10.957 2.90234 10.2773C2.94922 9.58984 3.03516 8.92969 3.16016 8.29688C3.28516 7.65625 3.45703 7.05859 3.67578 6.50391C3.89453 5.94141 4.17969 5.45312 4.53125 5.03906C4.88281 4.625 5.3125 4.29688 5.82031 4.05469C6.32812 3.8125 6.92578 3.69141 7.61328 3.69141C8.26953 3.69141 8.83984 3.79688 9.32422 4.00781C9.80859 4.21094 10.2188 4.49219 10.5547 4.85156C10.8984 5.21094 11.1758 5.63281 11.3867 6.11719C11.6055 6.60156 11.7734 7.125 11.8906 7.6875C12.0156 8.25 12.1016 8.83594 12.1484 9.44531C12.1953 10.0547 12.2188 10.6602 12.2188 11.2617C12.2188 11.418 12.2148 11.5547 12.207 11.6719C12.207 11.7891 12.2031 11.918 12.1953 12.0586C12.1953 12.1914 12.1875 12.3516 12.1719 12.5391C12.1641 12.7266 12.1523 12.9727 12.1367 13.2773C12.1211 13.5742 12.1016 13.9414 12.0781 14.3789C12.0625 14.8164 12.043 15.3555 12.0195 15.9961C11.9961 16.6367 11.9688 17.3945 11.9375 18.2695C11.9062 19.1367 11.875 20.1523 11.8438 21.3164L8.33984 21.1875C8.47266 20.2969 8.58984 19.4062 8.69141 18.5156C8.80078 17.6172 8.89062 16.7812 8.96094 16.0078C8.35938 15.9609 7.80078 15.9375 7.28516 15.9375C7.01953 15.9375 6.76953 15.9414 6.53516 15.9492C6.30078 15.957 6.09375 15.9688 5.91406 15.9844C5.9375 16.3906 5.96484 16.8203 5.99609 17.2734C6.02734 17.7266 6.0625 18.1836 6.10156 18.6445C6.14062 19.1055 6.18359 19.5625 6.23047 20.0156C6.27734 20.4609 6.33203 20.8867 6.39453 21.293L3.07812 21.3867C3.09375 21.0977 3.10156 20.8047 3.10156 20.5078C3.10156 20.2031 3.10156 19.9023 3.10156 19.6055ZM5.77344 13.5117C6.00781 13.5273 6.23828 13.5352 6.46484 13.5352C6.69141 13.5352 6.91406 13.5352 7.13281 13.5352C7.96875 13.5352 8.64062 13.5117 9.14844 13.4648C9.19531 12.9102 9.24219 12.3516 9.28906 11.7891C9.34375 11.2266 9.37109 10.625 9.37109 9.98438C9.37109 8.63281 9.23047 7.60547 8.94922 6.90234C8.67578 6.19141 8.26953 5.83594 7.73047 5.83594C7.43359 5.83594 7.16016 5.94141 6.91016 6.15234C6.66016 6.36328 6.44141 6.69141 6.25391 7.13672C6.07422 7.57422 5.92969 8.12891 5.82031 8.80078C5.71875 9.47266 5.66797 10.2656 5.66797 11.1797C5.66797 11.5 5.67578 11.8438 5.69141 12.2109C5.71484 12.5703 5.74219 13.0039 5.77344 13.5117Z"/>
<path d="M22.9287 10.4414C22.9287 10.8008 22.8623 11.1055 22.7295 11.3555C22.5967 11.6055 22.4366 11.8086 22.2491 11.9648C22.0616 12.1211 21.8662 12.2344 21.6631 12.3047C21.46 12.375 21.2881 12.4102 21.1475 12.4102C21.0069 12.4102 20.8389 12.3867 20.6436 12.3398C20.4483 12.2852 20.2608 12.1914 20.0811 12.0586C19.9092 11.9258 19.7608 11.75 19.6358 11.5312C19.5108 11.3047 19.4483 11.0195 19.4483 10.6758C19.4561 10.4883 19.4912 10.3047 19.5537 10.125C19.6084 9.96875 19.6905 9.80859 19.7998 9.64453C19.917 9.47266 20.0811 9.32031 20.292 9.1875C20.1514 8.98438 20.0108 8.82812 19.8702 8.71875C19.7295 8.60938 19.6045 8.52734 19.4952 8.47266C19.3623 8.41016 19.2412 8.37109 19.1319 8.35547C18.8897 8.35547 18.6709 8.40625 18.4756 8.50781C18.2803 8.60156 18.1123 8.73047 17.9717 8.89453C17.8389 9.05078 17.7334 9.23438 17.6553 9.44531C17.585 9.65625 17.5498 9.875 17.5498 10.1016C17.5498 10.3906 17.5694 10.6523 17.6084 10.8867C17.6475 11.1211 17.7373 11.3594 17.878 11.6016C18.0186 11.8438 18.2295 12.1055 18.5108 12.3867C18.792 12.668 19.1748 12.9961 19.6592 13.3711C20.1436 13.7461 20.5655 14.1133 20.9248 14.4727C21.2842 14.8242 21.5811 15.1719 21.8155 15.5156C22.0498 15.8594 22.2256 16.207 22.3428 16.5586C22.46 16.9023 22.5186 17.2617 22.5186 17.6367C22.5186 17.8867 22.4912 18.1602 22.4366 18.457C22.3897 18.7461 22.3037 19.043 22.1787 19.3477C22.0616 19.6445 21.9014 19.9336 21.6983 20.2148C21.503 20.4883 21.2569 20.7344 20.96 20.9531C20.6709 21.1719 20.3272 21.3438 19.9287 21.4688C19.5381 21.6016 19.0889 21.668 18.5811 21.668C17.8155 21.668 17.1631 21.5547 16.6241 21.3281C16.085 21.1016 15.6397 20.8281 15.2881 20.5078C14.9444 20.1797 14.6905 19.8359 14.5264 19.4766C14.3702 19.1172 14.292 18.8008 14.292 18.5273C14.292 18.2383 14.3272 17.9688 14.3975 17.7188C14.4678 17.4688 14.5772 17.25 14.7256 17.0625C14.8819 16.875 15.0772 16.7305 15.3116 16.6289C15.5538 16.5195 15.8428 16.4648 16.1788 16.4648C16.46 16.4648 16.7139 16.5078 16.9405 16.5938C17.1748 16.6797 17.3741 16.8086 17.5381 16.9805C17.71 17.1445 17.8428 17.3477 17.9366 17.5898C18.0303 17.832 18.0772 18.1055 18.0772 18.4102C18.0694 18.543 18.042 18.6797 17.9952 18.8203C17.9561 18.9375 17.8897 19.0664 17.7959 19.207C17.7022 19.3477 17.5733 19.4805 17.4092 19.6055C17.5186 19.6914 17.6241 19.7578 17.7256 19.8047C17.835 19.8438 17.9327 19.8711 18.0186 19.8867C18.1123 19.9102 18.2061 19.9219 18.2998 19.9219C18.4014 19.9219 18.5186 19.8945 18.6514 19.8398C18.792 19.7773 18.9248 19.6836 19.0498 19.5586C19.1748 19.4336 19.2803 19.2812 19.3662 19.1016C19.4522 18.9219 19.4952 18.707 19.4952 18.457C19.4952 18.207 19.4717 17.9805 19.4248 17.7773C19.3858 17.5664 19.2959 17.3516 19.1553 17.1328C19.0225 16.9062 18.8272 16.6602 18.5694 16.3945C18.3116 16.1289 17.9717 15.8086 17.5498 15.4336C17.128 15.0586 16.753 14.6953 16.4248 14.3438C16.0967 13.9844 15.8194 13.6133 15.5928 13.2305C15.3741 12.8477 15.2061 12.4453 15.0889 12.0234C14.9717 11.6016 14.9131 11.1367 14.9131 10.6289C14.9131 10.1289 15.0108 9.64453 15.2061 9.17578C15.4092 8.70703 15.6944 8.29297 16.0616 7.93359C16.4288 7.56641 16.8741 7.27734 17.3975 7.06641C17.9209 6.84766 18.5069 6.73828 19.1553 6.73828C19.8116 6.73828 20.378 6.83984 20.8545 7.04297C21.3311 7.24609 21.7217 7.51953 22.0264 7.86328C22.3311 8.19922 22.5577 8.58984 22.7061 9.03516C22.8545 9.48047 22.9287 9.94922 22.9287 10.4414Z"/>
<path d="M33.17 10.4414C33.17 10.8008 33.1036 11.1055 32.9708 11.3555C32.838 11.6055 32.6778 11.8086 32.4903 11.9648C32.3028 12.1211 32.1075 12.2344 31.9044 12.3047C31.7013 12.375 31.5294 12.4102 31.3888 12.4102C31.2481 12.4102 31.0802 12.3867 30.8848 12.3398C30.6895 12.2852 30.502 12.1914 30.3223 12.0586C30.1505 11.9258 30.002 11.75 29.877 11.5312C29.752 11.3047 29.6895 11.0195 29.6895 10.6758C29.6973 10.4883 29.7325 10.3047 29.795 10.125C29.8497 9.96875 29.9317 9.80859 30.0411 9.64453C30.1583 9.47266 30.3223 9.32031 30.5333 9.1875C30.3927 8.98438 30.252 8.82812 30.1114 8.71875C29.9708 8.60938 29.8458 8.52734 29.7364 8.47266C29.6036 8.41016 29.4825 8.37109 29.3731 8.35547C29.1309 8.35547 28.9122 8.40625 28.7169 8.50781C28.5216 8.60156 28.3536 8.73047 28.213 8.89453C28.0802 9.05078 27.9747 9.23438 27.8966 9.44531C27.8263 9.65625 27.7911 9.875 27.7911 10.1016C27.7911 10.3906 27.8106 10.6523 27.8497 10.8867C27.8888 11.1211 27.9786 11.3594 28.1192 11.6016C28.2598 11.8438 28.4708 12.1055 28.752 12.3867C29.0333 12.668 29.4161 12.9961 29.9005 13.3711C30.3848 13.7461 30.8067 14.1133 31.1661 14.4727C31.5255 14.8242 31.8223 15.1719 32.0567 15.5156C32.2911 15.8594 32.4669 16.207 32.5841 16.5586C32.7013 16.9023 32.7598 17.2617 32.7598 17.6367C32.7598 17.8867 32.7325 18.1602 32.6778 18.457C32.6309 18.7461 32.545 19.043 32.42 19.3477C32.3028 19.6445 32.1427 19.9336 31.9395 20.2148C31.7442 20.4883 31.4981 20.7344 31.2013 20.9531C30.9122 21.1719 30.5684 21.3438 30.17 21.4688C29.7794 21.6016 29.3302 21.668 28.8223 21.668C28.0567 21.668 27.4044 21.5547 26.8653 21.3281C26.3263 21.1016 25.8809 20.8281 25.5294 20.5078C25.1856 20.1797 24.9317 19.8359 24.7677 19.4766C24.6114 19.1172 24.5333 18.8008 24.5333 18.5273C24.5333 18.2383 24.5684 17.9688 24.6388 17.7188C24.7091 17.4688 24.8184 17.25 24.9669 17.0625C25.1231 16.875 25.3184 16.7305 25.5528 16.6289C25.795 16.5195 26.0841 16.4648 26.42 16.4648C26.7013 16.4648 26.9552 16.5078 27.1817 16.5938C27.4161 16.6797 27.6153 16.8086 27.7794 16.9805C27.9513 17.1445 28.0841 17.3477 28.1778 17.5898C28.2716 17.832 28.3184 18.1055 28.3184 18.4102C28.3106 18.543 28.2833 18.6797 28.2364 18.8203C28.1973 18.9375 28.1309 19.0664 28.0372 19.207C27.9434 19.3477 27.8145 19.4805 27.6505 19.6055C27.7598 19.6914 27.8653 19.7578 27.9669 19.8047C28.0763 19.8438 28.1739 19.8711 28.2598 19.8867C28.3536 19.9102 28.4473 19.9219 28.5411 19.9219C28.6427 19.9219 28.7598 19.8945 28.8927 19.8398C29.0333 19.7773 29.1661 19.6836 29.2911 19.5586C29.4161 19.4336 29.5216 19.2812 29.6075 19.1016C29.6934 18.9219 29.7364 18.707 29.7364 18.457C29.7364 18.207 29.713 17.9805 29.6661 17.7773C29.627 17.5664 29.5372 17.3516 29.3966 17.1328C29.2638 16.9062 29.0684 16.6602 28.8106 16.3945C28.5528 16.1289 28.213 15.8086 27.7911 15.4336C27.3692 15.0586 26.9942 14.6953 26.6661 14.3438C26.338 13.9844 26.0606 13.6133 25.8341 13.2305C25.6153 12.8477 25.4473 12.4453 25.3302 12.0234C25.213 11.6016 25.1544 11.1367 25.1544 10.6289C25.1544 10.1289 25.252 9.64453 25.4473 9.17578C25.6505 8.70703 25.9356 8.29297 26.3028 7.93359C26.67 7.56641 27.1153 7.27734 27.6388 7.06641C28.1622 6.84766 28.7481 6.73828 29.3966 6.73828C30.0528 6.73828 30.6192 6.83984 31.0958 7.04297C31.5723 7.24609 31.963 7.51953 32.2677 7.86328C32.5723 8.19922 32.7989 8.58984 32.9473 9.03516C33.0958 9.48047 33.17 9.94922 33.17 10.4414Z"/>
<path d="M38.5831 10.6992C38.5831 10.9102 38.5402 11.1094 38.4542 11.2969C38.3761 11.4844 38.2667 11.6484 38.1261 11.7891C37.9933 11.9219 37.8331 12.0312 37.6456 12.1172C37.4581 12.1953 37.2589 12.2344 37.048 12.2344C36.8292 12.2344 36.6261 12.1953 36.4386 12.1172C36.2511 12.0312 36.087 11.9219 35.9464 11.7891C35.8058 11.6484 35.6925 11.4844 35.6066 11.2969C35.5284 11.1094 35.4894 10.9102 35.4894 10.6992C35.4894 10.4883 35.5284 10.2891 35.6066 10.1016C35.6925 9.90625 35.8058 9.73828 35.9464 9.59766C36.087 9.45703 36.2511 9.34766 36.4386 9.26953C36.6261 9.18359 36.8292 9.14062 37.048 9.14062C37.2589 9.14062 37.4581 9.18359 37.6456 9.26953C37.8331 9.34766 37.9933 9.45703 38.1261 9.59766C38.2667 9.73828 38.3761 9.90625 38.4542 10.1016C38.5402 10.2891 38.5831 10.4883 38.5831 10.6992ZM38.5831 19.8984C38.5831 20.1094 38.5402 20.3086 38.4542 20.4961C38.3761 20.6758 38.2667 20.8359 38.1261 20.9766C37.9933 21.1172 37.8331 21.2266 37.6456 21.3047C37.4581 21.3906 37.2589 21.4336 37.048 21.4336C36.8292 21.4336 36.6261 21.3906 36.4386 21.3047C36.2511 21.2266 36.087 21.1172 35.9464 20.9766C35.8058 20.8359 35.6925 20.6758 35.6066 20.4961C35.5284 20.3086 35.4894 20.1094 35.4894 19.8984C35.4894 19.6797 35.5284 19.4766 35.6066 19.2891C35.6925 19.1016 35.8058 18.9375 35.9464 18.7969C36.087 18.6562 36.2511 18.5469 36.4386 18.4688C36.6261 18.3828 36.8292 18.3398 37.048 18.3398C37.2589 18.3398 37.4581 18.3828 37.6456 18.4688C37.8331 18.5469 37.9933 18.6562 38.1261 18.7969C38.2667 18.9375 38.3761 19.1016 38.4542 19.2891C38.5402 19.4766 38.5831 19.6797 38.5831 19.8984Z"/>
<path d="M50.675 21.1172L47.5812 21.4336C47.5969 20.9102 47.6086 20.3672 47.6164 19.8047C47.632 19.2344 47.6437 18.668 47.6516 18.1055C47.6594 17.543 47.6672 16.9922 47.675 16.4531C47.6828 15.9062 47.6867 15.3906 47.6867 14.9062C47.6945 13.7656 47.6984 12.6445 47.6984 11.543C47.6906 10.5586 47.6789 9.60547 47.6633 8.68359C47.6555 8.29297 47.6437 7.89062 47.6281 7.47656C47.6203 7.0625 47.6086 6.65625 47.593 6.25781C47.5773 5.85938 47.5578 5.48438 47.5344 5.13281C47.5187 4.77344 47.4953 4.45312 47.4641 4.17188L50.4172 4.03125C50.4016 4.51562 50.3859 5.01562 50.3703 5.53125C50.3625 6.03906 50.3547 6.54688 50.3469 7.05469C50.3391 7.55469 50.3312 8.03906 50.3234 8.50781C50.3234 8.97656 50.3234 9.41406 50.3234 9.82031C50.3234 11.8594 50.3469 13.8047 50.3937 15.6562C50.4484 17.5 50.5422 19.3203 50.675 21.1172Z"/>
<path d="M56.4162 8.01562L56.3459 8.97656C56.6037 8.54688 56.8772 8.21875 57.1662 7.99219C57.4631 7.76562 57.7366 7.60547 57.9866 7.51172C58.2366 7.41797 58.4436 7.36719 58.6077 7.35938C58.7795 7.35156 58.8733 7.34766 58.8889 7.34766C59.467 7.34766 59.9709 7.48047 60.4006 7.74609C60.8303 8.01172 61.1858 8.39844 61.467 8.90625C61.7483 9.40625 61.9553 10.0195 62.0881 10.7461C62.2287 11.4648 62.2991 12.2812 62.2991 13.1953C62.2991 13.8672 62.2873 14.5547 62.2639 15.2578C62.2483 15.9531 62.2092 16.6484 62.1467 17.3438C62.092 18.0312 62.0139 18.7031 61.9123 19.3594C61.8186 20.0156 61.6897 20.6406 61.5256 21.2344L58.7952 20.9062C58.9748 19.9766 59.1155 19.1094 59.217 18.3047C59.3186 17.5 59.3928 16.7969 59.4397 16.1953C59.4944 15.4922 59.5256 14.8477 59.5334 14.2617C59.5334 13.5195 59.51 12.875 59.4631 12.3281C59.4162 11.7734 59.3303 11.3164 59.2053 10.957C59.0881 10.5898 58.9241 10.3164 58.7131 10.1367C58.5022 9.95703 58.2327 9.86719 57.9045 9.86719C57.6858 9.91406 57.467 10.0703 57.2483 10.3359C57.0608 10.5625 56.8616 10.9258 56.6506 11.4258C56.4397 11.918 56.2561 12.6133 56.0998 13.5117C56.0764 14.1211 56.0608 14.7266 56.053 15.3281C56.053 15.9219 56.053 16.5547 56.053 17.2266C56.053 17.7969 56.053 18.4102 56.053 19.0664C56.053 19.7227 56.0608 20.4648 56.0764 21.293L53.4162 21.2344C53.4397 20.4375 53.4553 19.5938 53.4631 18.7031C53.4787 17.8047 53.4866 16.8086 53.4866 15.7148C53.4866 14.6289 53.4787 13.4531 53.4631 12.1875C53.4475 10.9219 53.4162 9.51562 53.3694 7.96875L56.4162 8.01562Z"/>
<path d="M68.9309 3.1875C68.8684 3.99219 68.8177 4.78516 68.7786 5.56641C68.7395 6.33984 68.7005 7.11719 68.6614 7.89844C69.0052 7.88281 69.345 7.87109 69.6809 7.86328C70.0169 7.84766 70.3606 7.82812 70.7122 7.80469L70.7591 10.8047C70.3841 10.7422 70.013 10.6914 69.6458 10.6523C69.2786 10.6133 68.9192 10.582 68.5677 10.5586C68.5442 11.2227 68.5286 11.8789 68.5208 12.5273C68.5208 13.1758 68.5208 13.832 68.5208 14.4961C68.5208 15.6836 68.5325 16.8633 68.5559 18.0352C68.5872 19.207 68.6341 20.3867 68.6966 21.5742L65.638 21.5273C65.7395 19.6914 65.8216 17.8594 65.8841 16.0312C65.9544 14.1953 66.0013 12.3477 66.0247 10.4883C65.6966 10.5039 65.3684 10.5234 65.0403 10.5469C64.7122 10.5625 64.3763 10.582 64.0325 10.6055L64.1263 7.82812C64.4466 7.85156 64.763 7.87109 65.0755 7.88672C65.3958 7.89453 65.7122 7.90625 66.0247 7.92188C66.0247 7.14062 66.0169 6.36328 66.0013 5.58984C65.9856 4.80859 65.97 4.02344 65.9544 3.23438L68.9309 3.1875Z"/>
<path d="M81.0003 18.4805C81.0003 18.9414 80.8948 19.375 80.6839 19.7812C80.473 20.1875 80.1878 20.5391 79.8284 20.8359C79.4691 21.1328 79.0472 21.3672 78.5628 21.5391C78.0784 21.7109 77.5628 21.7969 77.0159 21.7969C76.6488 21.7969 76.2777 21.7461 75.9027 21.6445C75.5277 21.543 75.1683 21.375 74.8245 21.1406C74.4808 20.9062 74.1566 20.5977 73.8519 20.2148C73.5472 19.832 73.2816 19.3633 73.055 18.8086C72.8363 18.2539 72.6605 17.6055 72.5277 16.8633C72.4027 16.1133 72.3402 15.2539 72.3402 14.2852C72.3402 13.3711 72.4027 12.5625 72.5277 11.8594C72.6605 11.1562 72.8363 10.543 73.055 10.0195C73.2816 9.49609 73.5433 9.05859 73.8402 8.70703C74.137 8.34766 74.4534 8.05859 74.7894 7.83984C75.1331 7.61328 75.4847 7.45312 75.8441 7.35938C76.2113 7.26562 76.5706 7.21875 76.9222 7.21875C77.4456 7.21875 77.9417 7.30469 78.4105 7.47656C78.8792 7.64062 79.2894 7.88672 79.6409 8.21484C79.9925 8.54297 80.2698 8.94922 80.473 9.43359C80.6839 9.91016 80.7894 10.4609 80.7894 11.0859C80.7894 11.6484 80.6722 12.2188 80.4378 12.7969C80.2113 13.3672 79.8714 13.9102 79.4183 14.4258C78.9652 14.9336 78.4027 15.3984 77.7308 15.8203C77.0667 16.2344 76.3011 16.5625 75.4339 16.8047C75.4808 17.2891 75.5472 17.7305 75.6331 18.1289C75.7269 18.5273 75.8402 18.8672 75.973 19.1484C76.1136 19.4297 76.2738 19.6484 76.4534 19.8047C76.6409 19.9609 76.8558 20.0391 77.098 20.0391C77.2542 20.0312 77.4027 20.0039 77.5433 19.957C77.6683 19.918 77.7933 19.8555 77.9183 19.7695C78.0511 19.6836 78.1605 19.5586 78.2464 19.3945C78.0433 19.3008 77.887 19.1797 77.7777 19.0312C77.6683 18.8828 77.5863 18.7422 77.5316 18.6094C77.4691 18.4531 77.4339 18.2891 77.4261 18.1172C77.4261 17.7422 77.5003 17.4375 77.6488 17.2031C77.7972 16.9688 77.973 16.7852 78.1761 16.6523C78.3792 16.5195 78.5863 16.4297 78.7972 16.3828C79.0081 16.3281 79.1761 16.3008 79.3011 16.3008C79.4339 16.3008 79.5941 16.3281 79.7816 16.3828C79.9769 16.4375 80.1644 16.543 80.3441 16.6992C80.5238 16.8555 80.6761 17.0781 80.8011 17.3672C80.9339 17.6484 81.0003 18.0195 81.0003 18.4805ZM78.1058 11.1094C78.1058 10.8281 78.0784 10.5625 78.0238 10.3125C77.9769 10.0547 77.9027 9.83203 77.8011 9.64453C77.7073 9.45703 77.5863 9.30859 77.4378 9.19922C77.2972 9.08203 77.1331 9.02344 76.9456 9.02344C76.6253 9.02344 76.3636 9.17188 76.1605 9.46875C75.9573 9.75781 75.7933 10.1445 75.6683 10.6289C75.5433 11.1133 75.4573 11.6719 75.4105 12.3047C75.3636 12.9375 75.3402 13.5977 75.3402 14.2852V15.1406C75.7386 14.9297 76.1058 14.6797 76.4417 14.3906C76.7855 14.1016 77.0784 13.7852 77.3206 13.4414C77.5706 13.0898 77.762 12.7188 77.8948 12.3281C78.0355 11.9375 78.1058 11.5312 78.1058 11.1094Z"/>
<path d="M86.2259 21.4805L83.097 21.7148C83.222 20.3164 83.3119 18.9688 83.3666 17.6719C83.4291 16.3672 83.4603 15.0625 83.4603 13.7578C83.4603 12.8359 83.4447 11.9141 83.4134 10.9922C83.39 10.0625 83.3431 9.10938 83.2728 8.13281L85.9095 7.99219C85.8939 8.16406 85.8822 8.33203 85.8744 8.49609C85.8666 8.66016 85.8627 8.82031 85.8627 8.97656C86.1361 8.55469 86.433 8.22656 86.7533 7.99219C87.0814 7.75 87.3861 7.57422 87.6673 7.46484C87.9877 7.33203 88.3119 7.25 88.64 7.21875C89.2103 7.21875 89.6986 7.30859 90.1048 7.48828C90.5111 7.66016 90.8431 7.88672 91.1009 8.16797C91.3587 8.44141 91.5462 8.75 91.6634 9.09375C91.7806 9.42969 91.8392 9.75781 91.8392 10.0781C91.8392 10.4062 91.8041 10.7383 91.7337 11.0742C91.6634 11.4102 91.5423 11.7148 91.3705 11.9883C91.2064 12.2539 90.9837 12.4727 90.7025 12.6445C90.4291 12.8086 90.0892 12.8906 89.683 12.8906C89.2767 12.8906 88.9564 12.8164 88.722 12.668C88.4877 12.5195 88.308 12.3438 88.183 12.1406C88.0658 11.9297 87.9877 11.7148 87.9486 11.4961C87.9173 11.2695 87.9017 11.0781 87.9017 10.9219C87.9017 10.8125 87.9212 10.6914 87.9603 10.5586C87.9994 10.418 88.058 10.2773 88.1361 10.1367C88.2142 9.99609 88.3119 9.85938 88.4291 9.72656C88.5462 9.58594 88.683 9.45703 88.8392 9.33984C88.7923 9.32422 88.7416 9.3125 88.6869 9.30469C88.64 9.29688 88.5931 9.29297 88.5462 9.29297C88.1556 9.29297 87.808 9.41797 87.5033 9.66797C87.1986 9.91016 86.933 10.25 86.7064 10.6875C86.4877 11.125 86.3041 11.6406 86.1556 12.2344C86.015 12.8281 85.9095 13.4766 85.8392 14.1797C85.8783 15.3906 85.933 16.5898 86.0033 17.7773C86.0736 18.9648 86.1478 20.1992 86.2259 21.4805Z"/>
<path d="M102.912 7.99219C102.537 9.15625 102.186 10.2852 101.858 11.3789C101.53 12.4727 101.221 13.5664 100.932 14.6602C100.643 15.7461 100.37 16.8438 100.112 17.9531C99.8539 19.0625 99.6117 20.2148 99.3852 21.4102L95.9984 21.4805C95.7875 20.3164 95.5727 19.1914 95.3539 18.1055C95.143 17.0117 94.9164 15.9258 94.6742 14.8477C94.4398 13.7695 94.1898 12.6836 93.9242 11.5898C93.6586 10.4961 93.3734 9.36719 93.0687 8.20312L96.432 8.0625C96.6117 9.73438 96.8109 11.4414 97.0297 13.1836C97.2484 14.9258 97.5062 16.6367 97.8031 18.3164C98.1859 16.6211 98.4945 14.8945 98.7289 13.1367C98.9711 11.3711 99.1586 9.64062 99.2914 7.94531L102.912 7.99219Z"/>
<path d="M112.779 18.4805C112.779 18.9414 112.673 19.375 112.462 19.7812C112.251 20.1875 111.966 20.5391 111.607 20.8359C111.247 21.1328 110.826 21.3672 110.341 21.5391C109.857 21.7109 109.341 21.7969 108.794 21.7969C108.427 21.7969 108.056 21.7461 107.681 21.6445C107.306 21.543 106.947 21.375 106.603 21.1406C106.259 20.9062 105.935 20.5977 105.63 20.2148C105.326 19.832 105.06 19.3633 104.833 18.8086C104.615 18.2539 104.439 17.6055 104.306 16.8633C104.181 16.1133 104.119 15.2539 104.119 14.2852C104.119 13.3711 104.181 12.5625 104.306 11.8594C104.439 11.1562 104.615 10.543 104.833 10.0195C105.06 9.49609 105.322 9.05859 105.619 8.70703C105.915 8.34766 106.232 8.05859 106.568 7.83984C106.912 7.61328 107.263 7.45312 107.622 7.35938C107.99 7.26562 108.349 7.21875 108.701 7.21875C109.224 7.21875 109.72 7.30469 110.189 7.47656C110.658 7.64062 111.068 7.88672 111.419 8.21484C111.771 8.54297 112.048 8.94922 112.251 9.43359C112.462 9.91016 112.568 10.4609 112.568 11.0859C112.568 11.6484 112.451 12.2188 112.216 12.7969C111.99 13.3672 111.65 13.9102 111.197 14.4258C110.744 14.9336 110.181 15.3984 109.509 15.8203C108.845 16.2344 108.08 16.5625 107.212 16.8047C107.259 17.2891 107.326 17.7305 107.412 18.1289C107.505 18.5273 107.619 18.8672 107.751 19.1484C107.892 19.4297 108.052 19.6484 108.232 19.8047C108.419 19.9609 108.634 20.0391 108.876 20.0391C109.033 20.0312 109.181 20.0039 109.322 19.957C109.447 19.918 109.572 19.8555 109.697 19.7695C109.83 19.6836 109.939 19.5586 110.025 19.3945C109.822 19.3008 109.665 19.1797 109.556 19.0312C109.447 18.8828 109.365 18.7422 109.31 18.6094C109.247 18.4531 109.212 18.2891 109.205 18.1172C109.205 17.7422 109.279 17.4375 109.427 17.2031C109.576 16.9688 109.751 16.7852 109.955 16.6523C110.158 16.5195 110.365 16.4297 110.576 16.3828C110.787 16.3281 110.955 16.3008 111.08 16.3008C111.212 16.3008 111.372 16.3281 111.56 16.3828C111.755 16.4375 111.943 16.543 112.122 16.6992C112.302 16.8555 112.455 17.0781 112.58 17.3672C112.712 17.6484 112.779 18.0195 112.779 18.4805ZM109.884 11.1094C109.884 10.8281 109.857 10.5625 109.802 10.3125C109.755 10.0547 109.681 9.83203 109.58 9.64453C109.486 9.45703 109.365 9.30859 109.216 9.19922C109.076 9.08203 108.912 9.02344 108.724 9.02344C108.404 9.02344 108.142 9.17188 107.939 9.46875C107.736 9.75781 107.572 10.1445 107.447 10.6289C107.322 11.1133 107.236 11.6719 107.189 12.3047C107.142 12.9375 107.119 13.5977 107.119 14.2852V15.1406C107.517 14.9297 107.884 14.6797 108.22 14.3906C108.564 14.1016 108.857 13.7852 109.099 13.4414C109.349 13.0898 109.54 12.7188 109.673 12.3281C109.814 11.9375 109.884 11.5312 109.884 11.1094Z"/>
<path d="M118.098 8.01562L118.028 8.97656C118.286 8.54688 118.559 8.21875 118.848 7.99219C119.145 7.76562 119.418 7.60547 119.668 7.51172C119.918 7.41797 120.125 7.36719 120.29 7.35938C120.461 7.35156 120.555 7.34766 120.571 7.34766C121.149 7.34766 121.653 7.48047 122.082 7.74609C122.512 8.01172 122.868 8.39844 123.149 8.90625C123.43 9.40625 123.637 10.0195 123.77 10.7461C123.911 11.4648 123.981 12.2812 123.981 13.1953C123.981 13.8672 123.969 14.5547 123.946 15.2578C123.93 15.9531 123.891 16.6484 123.829 17.3438C123.774 18.0312 123.696 18.7031 123.594 19.3594C123.5 20.0156 123.372 20.6406 123.207 21.2344L120.477 20.9062C120.657 19.9766 120.797 19.1094 120.899 18.3047C121 17.5 121.075 16.7969 121.122 16.1953C121.176 15.4922 121.207 14.8477 121.215 14.2617C121.215 13.5195 121.192 12.875 121.145 12.3281C121.098 11.7734 121.012 11.3164 120.887 10.957C120.77 10.5898 120.606 10.3164 120.395 10.1367C120.184 9.95703 119.915 9.86719 119.586 9.86719C119.368 9.91406 119.149 10.0703 118.93 10.3359C118.743 10.5625 118.543 10.9258 118.332 11.4258C118.122 11.918 117.938 12.6133 117.782 13.5117C117.758 14.1211 117.743 14.7266 117.735 15.3281C117.735 15.9219 117.735 16.5547 117.735 17.2266C117.735 17.7969 117.735 18.4102 117.735 19.0664C117.735 19.7227 117.743 20.4648 117.758 21.293L115.098 21.2344C115.122 20.4375 115.137 19.5938 115.145 18.7031C115.161 17.8047 115.168 16.8086 115.168 15.7148C115.168 14.6289 115.161 13.4531 115.145 12.1875C115.129 10.9219 115.098 9.51562 115.051 7.96875L118.098 8.01562Z"/>
<path d="M130.613 3.1875C130.55 3.99219 130.5 4.78516 130.46 5.56641C130.421 6.33984 130.382 7.11719 130.343 7.89844C130.687 7.88281 131.027 7.87109 131.363 7.86328C131.699 7.84766 132.043 7.82812 132.394 7.80469L132.441 10.8047C132.066 10.7422 131.695 10.6914 131.328 10.6523C130.96 10.6133 130.601 10.582 130.25 10.5586C130.226 11.2227 130.21 11.8789 130.203 12.5273C130.203 13.1758 130.203 13.832 130.203 14.4961C130.203 15.6836 130.214 16.8633 130.238 18.0352C130.269 19.207 130.316 20.3867 130.378 21.5742L127.32 21.5273C127.421 19.6914 127.503 17.8594 127.566 16.0312C127.636 14.1953 127.683 12.3477 127.707 10.4883C127.378 10.5039 127.05 10.5234 126.722 10.5469C126.394 10.5625 126.058 10.582 125.714 10.6055L125.808 7.82812C126.128 7.85156 126.445 7.87109 126.757 7.88672C127.078 7.89453 127.394 7.90625 127.707 7.92188C127.707 7.14062 127.699 6.36328 127.683 5.58984C127.668 4.80859 127.652 4.02344 127.636 3.23438L130.613 3.1875Z"/>
<path d="M137.643 4.55859C137.643 4.80859 137.596 5.04688 137.503 5.27344C137.409 5.49219 137.28 5.68359 137.116 5.84766C136.952 6.01172 136.756 6.14453 136.53 6.24609C136.311 6.33984 136.077 6.38672 135.827 6.38672C135.577 6.38672 135.338 6.33984 135.112 6.24609C134.893 6.14453 134.702 6.01172 134.538 5.84766C134.374 5.68359 134.241 5.49219 134.139 5.27344C134.045 5.04688 133.999 4.80859 133.999 4.55859C133.999 4.30859 134.045 4.07422 134.139 3.85547C134.241 3.62891 134.374 3.43359 134.538 3.26953C134.702 3.10547 134.893 2.97656 135.112 2.88281C135.338 2.78125 135.577 2.73047 135.827 2.73047C136.077 2.73047 136.311 2.78125 136.53 2.88281C136.756 2.97656 136.952 3.10547 137.116 3.26953C137.28 3.43359 137.409 3.62891 137.503 3.85547C137.596 4.07422 137.643 4.30859 137.643 4.55859ZM137.643 8.10938C137.581 8.72656 137.526 9.39453 137.479 10.1133C137.44 10.8242 137.405 11.5547 137.374 12.3047C137.35 13.0547 137.331 13.8086 137.315 14.5664C137.299 15.3242 137.288 16.0469 137.28 16.7344C137.272 17.4219 137.264 18.0664 137.256 18.668C137.256 19.2617 137.256 19.7734 137.256 20.2031V21.5273L134.596 21.6211C134.612 21.082 134.62 20.5586 134.62 20.0508C134.62 19.543 134.62 19.0352 134.62 18.5273C134.62 17.6445 134.612 16.7852 134.596 15.9492C134.581 15.1055 134.553 14.2617 134.514 13.418C134.483 12.5742 134.44 11.7188 134.385 10.8516C134.331 9.98438 134.264 9.08594 134.186 8.15625L137.643 8.10938Z"/>
<path d="M144.252 21.668C143.478 21.668 142.81 21.5 142.248 21.1641C141.693 20.8281 141.232 20.3594 140.865 19.7578C140.505 19.1562 140.24 18.4414 140.068 17.6133C139.896 16.7852 139.81 15.8828 139.81 14.9062C139.81 13.7734 139.912 12.7344 140.115 11.7891C140.318 10.8438 140.615 10.0312 141.005 9.35156C141.404 8.67188 141.892 8.14453 142.47 7.76953C143.056 7.38672 143.728 7.19531 144.486 7.19531C145.252 7.19531 145.912 7.35547 146.466 7.67578C147.021 7.99609 147.478 8.44531 147.837 9.02344C148.205 9.60156 148.474 10.293 148.646 11.0977C148.818 11.9023 148.904 12.7891 148.904 13.7578C148.904 14.2578 148.873 14.8008 148.81 15.3867C148.755 15.9727 148.658 16.5586 148.517 17.1445C148.384 17.7305 148.205 18.2969 147.978 18.8438C147.752 19.3828 147.466 19.8633 147.123 20.2852C146.779 20.707 146.369 21.043 145.892 21.293C145.423 21.543 144.877 21.668 144.252 21.668ZM146.08 12.8906C146.08 12.2969 146.052 11.7656 145.998 11.2969C145.943 10.8203 145.853 10.418 145.728 10.0898C145.611 9.76172 145.459 9.51172 145.271 9.33984C145.091 9.16016 144.873 9.07031 144.615 9.07031C144.334 9.07031 144.072 9.21875 143.83 9.51562C143.587 9.8125 143.373 10.2422 143.185 10.8047C143.005 11.3672 142.861 12.0547 142.752 12.8672C142.65 13.6719 142.599 14.582 142.599 15.5977C142.599 16.2539 142.63 16.8438 142.693 17.3672C142.755 17.8828 142.849 18.3242 142.974 18.6914C143.099 19.0508 143.252 19.3281 143.431 19.5234C143.619 19.7109 143.837 19.8047 144.087 19.8047C144.337 19.8047 144.56 19.7031 144.755 19.5C144.951 19.2891 145.119 19.0078 145.259 18.6562C145.408 18.3047 145.533 17.8984 145.634 17.4375C145.744 16.9688 145.83 16.4805 145.892 15.9727C145.955 15.457 146.002 14.9336 146.033 14.4023C146.064 13.8711 146.08 13.3672 146.08 12.8906Z"/>
<path d="M154.282 8.01562L154.212 8.97656C154.469 8.54688 154.743 8.21875 155.032 7.99219C155.329 7.76562 155.602 7.60547 155.852 7.51172C156.102 7.41797 156.309 7.36719 156.473 7.35938C156.645 7.35156 156.739 7.34766 156.755 7.34766C157.333 7.34766 157.837 7.48047 158.266 7.74609C158.696 8.01172 159.051 8.39844 159.333 8.90625C159.614 9.40625 159.821 10.0195 159.954 10.7461C160.094 11.4648 160.165 12.2812 160.165 13.1953C160.165 13.8672 160.153 14.5547 160.13 15.2578C160.114 15.9531 160.075 16.6484 160.012 17.3438C159.958 18.0312 159.88 18.7031 159.778 19.3594C159.684 20.0156 159.555 20.6406 159.391 21.2344L156.661 20.9062C156.84 19.9766 156.981 19.1094 157.083 18.3047C157.184 17.5 157.258 16.7969 157.305 16.1953C157.36 15.4922 157.391 14.8477 157.399 14.2617C157.399 13.5195 157.376 12.875 157.329 12.3281C157.282 11.7734 157.196 11.3164 157.071 10.957C156.954 10.5898 156.79 10.3164 156.579 10.1367C156.368 9.95703 156.098 9.86719 155.77 9.86719C155.551 9.91406 155.333 10.0703 155.114 10.3359C154.926 10.5625 154.727 10.9258 154.516 11.4258C154.305 11.918 154.122 12.6133 153.965 13.5117C153.942 14.1211 153.926 14.7266 153.919 15.3281C153.919 15.9219 153.919 16.5547 153.919 17.2266C153.919 17.7969 153.919 18.4102 153.919 19.0664C153.919 19.7227 153.926 20.4648 153.942 21.293L151.282 21.2344C151.305 20.4375 151.321 19.5938 151.329 18.7031C151.344 17.8047 151.352 16.8086 151.352 15.7148C151.352 14.6289 151.344 13.4531 151.329 12.1875C151.313 10.9219 151.282 9.51562 151.235 7.96875L154.282 8.01562Z"/>
</mask>
<path d="M3.10156 19.6055C3.10156 19.0039 3.08594 18.4023 3.05469 17.8008C3.03125 17.1992 3.00391 16.5977 2.97266 15.9961C2.94141 15.3867 2.91016 14.7773 2.87891 14.168C2.85547 13.5508 2.84375 12.9258 2.84375 12.293C2.84375 11.6289 2.86328 10.957 2.90234 10.2773C2.94922 9.58984 3.03516 8.92969 3.16016 8.29688C3.28516 7.65625 3.45703 7.05859 3.67578 6.50391C3.89453 5.94141 4.17969 5.45312 4.53125 5.03906C4.88281 4.625 5.3125 4.29688 5.82031 4.05469C6.32812 3.8125 6.92578 3.69141 7.61328 3.69141C8.26953 3.69141 8.83984 3.79688 9.32422 4.00781C9.80859 4.21094 10.2188 4.49219 10.5547 4.85156C10.8984 5.21094 11.1758 5.63281 11.3867 6.11719C11.6055 6.60156 11.7734 7.125 11.8906 7.6875C12.0156 8.25 12.1016 8.83594 12.1484 9.44531C12.1953 10.0547 12.2188 10.6602 12.2188 11.2617C12.2188 11.418 12.2148 11.5547 12.207 11.6719C12.207 11.7891 12.2031 11.918 12.1953 12.0586C12.1953 12.1914 12.1875 12.3516 12.1719 12.5391C12.1641 12.7266 12.1523 12.9727 12.1367 13.2773C12.1211 13.5742 12.1016 13.9414 12.0781 14.3789C12.0625 14.8164 12.043 15.3555 12.0195 15.9961C11.9961 16.6367 11.9688 17.3945 11.9375 18.2695C11.9062 19.1367 11.875 20.1523 11.8438 21.3164L8.33984 21.1875C8.47266 20.2969 8.58984 19.4062 8.69141 18.5156C8.80078 17.6172 8.89062 16.7812 8.96094 16.0078C8.35938 15.9609 7.80078 15.9375 7.28516 15.9375C7.01953 15.9375 6.76953 15.9414 6.53516 15.9492C6.30078 15.957 6.09375 15.9688 5.91406 15.9844C5.9375 16.3906 5.96484 16.8203 5.99609 17.2734C6.02734 17.7266 6.0625 18.1836 6.10156 18.6445C6.14062 19.1055 6.18359 19.5625 6.23047 20.0156C6.27734 20.4609 6.33203 20.8867 6.39453 21.293L3.07812 21.3867C3.09375 21.0977 3.10156 20.8047 3.10156 20.5078C3.10156 20.2031 3.10156 19.9023 3.10156 19.6055ZM5.77344 13.5117C6.00781 13.5273 6.23828 13.5352 6.46484 13.5352C6.69141 13.5352 6.91406 13.5352 7.13281 13.5352C7.96875 13.5352 8.64062 13.5117 9.14844 13.4648C9.19531 12.9102 9.24219 12.3516 9.28906 11.7891C9.34375 11.2266 9.37109 10.625 9.37109 9.98438C9.37109 8.63281 9.23047 7.60547 8.94922 6.90234C8.67578 6.19141 8.26953 5.83594 7.73047 5.83594C7.43359 5.83594 7.16016 5.94141 6.91016 6.15234C6.66016 6.36328 6.44141 6.69141 6.25391 7.13672C6.07422 7.57422 5.92969 8.12891 5.82031 8.80078C5.71875 9.47266 5.66797 10.2656 5.66797 11.1797C5.66797 11.5 5.67578 11.8438 5.69141 12.2109C5.71484 12.5703 5.74219 13.0039 5.77344 13.5117Z" fill="white"/>
<path d="M22.9287 10.4414C22.9287 10.8008 22.8623 11.1055 22.7295 11.3555C22.5967 11.6055 22.4366 11.8086 22.2491 11.9648C22.0616 12.1211 21.8662 12.2344 21.6631 12.3047C21.46 12.375 21.2881 12.4102 21.1475 12.4102C21.0069 12.4102 20.8389 12.3867 20.6436 12.3398C20.4483 12.2852 20.2608 12.1914 20.0811 12.0586C19.9092 11.9258 19.7608 11.75 19.6358 11.5312C19.5108 11.3047 19.4483 11.0195 19.4483 10.6758C19.4561 10.4883 19.4912 10.3047 19.5537 10.125C19.6084 9.96875 19.6905 9.80859 19.7998 9.64453C19.917 9.47266 20.0811 9.32031 20.292 9.1875C20.1514 8.98438 20.0108 8.82812 19.8702 8.71875C19.7295 8.60938 19.6045 8.52734 19.4952 8.47266C19.3623 8.41016 19.2412 8.37109 19.1319 8.35547C18.8897 8.35547 18.6709 8.40625 18.4756 8.50781C18.2803 8.60156 18.1123 8.73047 17.9717 8.89453C17.8389 9.05078 17.7334 9.23438 17.6553 9.44531C17.585 9.65625 17.5498 9.875 17.5498 10.1016C17.5498 10.3906 17.5694 10.6523 17.6084 10.8867C17.6475 11.1211 17.7373 11.3594 17.878 11.6016C18.0186 11.8438 18.2295 12.1055 18.5108 12.3867C18.792 12.668 19.1748 12.9961 19.6592 13.3711C20.1436 13.7461 20.5655 14.1133 20.9248 14.4727C21.2842 14.8242 21.5811 15.1719 21.8155 15.5156C22.0498 15.8594 22.2256 16.207 22.3428 16.5586C22.46 16.9023 22.5186 17.2617 22.5186 17.6367C22.5186 17.8867 22.4912 18.1602 22.4366 18.457C22.3897 18.7461 22.3037 19.043 22.1787 19.3477C22.0616 19.6445 21.9014 19.9336 21.6983 20.2148C21.503 20.4883 21.2569 20.7344 20.96 20.9531C20.6709 21.1719 20.3272 21.3438 19.9287 21.4688C19.5381 21.6016 19.0889 21.668 18.5811 21.668C17.8155 21.668 17.1631 21.5547 16.6241 21.3281C16.085 21.1016 15.6397 20.8281 15.2881 20.5078C14.9444 20.1797 14.6905 19.8359 14.5264 19.4766C14.3702 19.1172 14.292 18.8008 14.292 18.5273C14.292 18.2383 14.3272 17.9688 14.3975 17.7188C14.4678 17.4688 14.5772 17.25 14.7256 17.0625C14.8819 16.875 15.0772 16.7305 15.3116 16.6289C15.5538 16.5195 15.8428 16.4648 16.1788 16.4648C16.46 16.4648 16.7139 16.5078 16.9405 16.5938C17.1748 16.6797 17.3741 16.8086 17.5381 16.9805C17.71 17.1445 17.8428 17.3477 17.9366 17.5898C18.0303 17.832 18.0772 18.1055 18.0772 18.4102C18.0694 18.543 18.042 18.6797 17.9952 18.8203C17.9561 18.9375 17.8897 19.0664 17.7959 19.207C17.7022 19.3477 17.5733 19.4805 17.4092 19.6055C17.5186 19.6914 17.6241 19.7578 17.7256 19.8047C17.835 19.8438 17.9327 19.8711 18.0186 19.8867C18.1123 19.9102 18.2061 19.9219 18.2998 19.9219C18.4014 19.9219 18.5186 19.8945 18.6514 19.8398C18.792 19.7773 18.9248 19.6836 19.0498 19.5586C19.1748 19.4336 19.2803 19.2812 19.3662 19.1016C19.4522 18.9219 19.4952 18.707 19.4952 18.457C19.4952 18.207 19.4717 17.9805 19.4248 17.7773C19.3858 17.5664 19.2959 17.3516 19.1553 17.1328C19.0225 16.9062 18.8272 16.6602 18.5694 16.3945C18.3116 16.1289 17.9717 15.8086 17.5498 15.4336C17.128 15.0586 16.753 14.6953 16.4248 14.3438C16.0967 13.9844 15.8194 13.6133 15.5928 13.2305C15.3741 12.8477 15.2061 12.4453 15.0889 12.0234C14.9717 11.6016 14.9131 11.1367 14.9131 10.6289C14.9131 10.1289 15.0108 9.64453 15.2061 9.17578C15.4092 8.70703 15.6944 8.29297 16.0616 7.93359C16.4288 7.56641 16.8741 7.27734 17.3975 7.06641C17.9209 6.84766 18.5069 6.73828 19.1553 6.73828C19.8116 6.73828 20.378 6.83984 20.8545 7.04297C21.3311 7.24609 21.7217 7.51953 22.0264 7.86328C22.3311 8.19922 22.5577 8.58984 22.7061 9.03516C22.8545 9.48047 22.9287 9.94922 22.9287 10.4414Z" fill="white"/>
<path d="M33.17 10.4414C33.17 10.8008 33.1036 11.1055 32.9708 11.3555C32.838 11.6055 32.6778 11.8086 32.4903 11.9648C32.3028 12.1211 32.1075 12.2344 31.9044 12.3047C31.7013 12.375 31.5294 12.4102 31.3888 12.4102C31.2481 12.4102 31.0802 12.3867 30.8848 12.3398C30.6895 12.2852 30.502 12.1914 30.3223 12.0586C30.1505 11.9258 30.002 11.75 29.877 11.5312C29.752 11.3047 29.6895 11.0195 29.6895 10.6758C29.6973 10.4883 29.7325 10.3047 29.795 10.125C29.8497 9.96875 29.9317 9.80859 30.0411 9.64453C30.1583 9.47266 30.3223 9.32031 30.5333 9.1875C30.3927 8.98438 30.252 8.82812 30.1114 8.71875C29.9708 8.60938 29.8458 8.52734 29.7364 8.47266C29.6036 8.41016 29.4825 8.37109 29.3731 8.35547C29.1309 8.35547 28.9122 8.40625 28.7169 8.50781C28.5216 8.60156 28.3536 8.73047 28.213 8.89453C28.0802 9.05078 27.9747 9.23438 27.8966 9.44531C27.8263 9.65625 27.7911 9.875 27.7911 10.1016C27.7911 10.3906 27.8106 10.6523 27.8497 10.8867C27.8888 11.1211 27.9786 11.3594 28.1192 11.6016C28.2598 11.8438 28.4708 12.1055 28.752 12.3867C29.0333 12.668 29.4161 12.9961 29.9005 13.3711C30.3848 13.7461 30.8067 14.1133 31.1661 14.4727C31.5255 14.8242 31.8223 15.1719 32.0567 15.5156C32.2911 15.8594 32.4669 16.207 32.5841 16.5586C32.7013 16.9023 32.7598 17.2617 32.7598 17.6367C32.7598 17.8867 32.7325 18.1602 32.6778 18.457C32.6309 18.7461 32.545 19.043 32.42 19.3477C32.3028 19.6445 32.1427 19.9336 31.9395 20.2148C31.7442 20.4883 31.4981 20.7344 31.2013 20.9531C30.9122 21.1719 30.5684 21.3438 30.17 21.4688C29.7794 21.6016 29.3302 21.668 28.8223 21.668C28.0567 21.668 27.4044 21.5547 26.8653 21.3281C26.3263 21.1016 25.8809 20.8281 25.5294 20.5078C25.1856 20.1797 24.9317 19.8359 24.7677 19.4766C24.6114 19.1172 24.5333 18.8008 24.5333 18.5273C24.5333 18.2383 24.5684 17.9688 24.6388 17.7188C24.7091 17.4688 24.8184 17.25 24.9669 17.0625C25.1231 16.875 25.3184 16.7305 25.5528 16.6289C25.795 16.5195 26.0841 16.4648 26.42 16.4648C26.7013 16.4648 26.9552 16.5078 27.1817 16.5938C27.4161 16.6797 27.6153 16.8086 27.7794 16.9805C27.9513 17.1445 28.0841 17.3477 28.1778 17.5898C28.2716 17.832 28.3184 18.1055 28.3184 18.4102C28.3106 18.543 28.2833 18.6797 28.2364 18.8203C28.1973 18.9375 28.1309 19.0664 28.0372 19.207C27.9434 19.3477 27.8145 19.4805 27.6505 19.6055C27.7598 19.6914 27.8653 19.7578 27.9669 19.8047C28.0763 19.8438 28.1739 19.8711 28.2598 19.8867C28.3536 19.9102 28.4473 19.9219 28.5411 19.9219C28.6427 19.9219 28.7598 19.8945 28.8927 19.8398C29.0333 19.7773 29.1661 19.6836 29.2911 19.5586C29.4161 19.4336 29.5216 19.2812 29.6075 19.1016C29.6934 18.9219 29.7364 18.707 29.7364 18.457C29.7364 18.207 29.713 17.9805 29.6661 17.7773C29.627 17.5664 29.5372 17.3516 29.3966 17.1328C29.2638 16.9062 29.0684 16.6602 28.8106 16.3945C28.5528 16.1289 28.213 15.8086 27.7911 15.4336C27.3692 15.0586 26.9942 14.6953 26.6661 14.3438C26.338 13.9844 26.0606 13.6133 25.8341 13.2305C25.6153 12.8477 25.4473 12.4453 25.3302 12.0234C25.213 11.6016 25.1544 11.1367 25.1544 10.6289C25.1544 10.1289 25.252 9.64453 25.4473 9.17578C25.6505 8.70703 25.9356 8.29297 26.3028 7.93359C26.67 7.56641 27.1153 7.27734 27.6388 7.06641C28.1622 6.84766 28.7481 6.73828 29.3966 6.73828C30.0528 6.73828 30.6192 6.83984 31.0958 7.04297C31.5723 7.24609 31.963 7.51953 32.2677 7.86328C32.5723 8.19922 32.7989 8.58984 32.9473 9.03516C33.0958 9.48047 33.17 9.94922 33.17 10.4414Z" fill="white"/>
<path d="M38.5831 10.6992C38.5831 10.9102 38.5402 11.1094 38.4542 11.2969C38.3761 11.4844 38.2667 11.6484 38.1261 11.7891C37.9933 11.9219 37.8331 12.0312 37.6456 12.1172C37.4581 12.1953 37.2589 12.2344 37.048 12.2344C36.8292 12.2344 36.6261 12.1953 36.4386 12.1172C36.2511 12.0312 36.087 11.9219 35.9464 11.7891C35.8058 11.6484 35.6925 11.4844 35.6066 11.2969C35.5284 11.1094 35.4894 10.9102 35.4894 10.6992C35.4894 10.4883 35.5284 10.2891 35.6066 10.1016C35.6925 9.90625 35.8058 9.73828 35.9464 9.59766C36.087 9.45703 36.2511 9.34766 36.4386 9.26953C36.6261 9.18359 36.8292 9.14062 37.048 9.14062C37.2589 9.14062 37.4581 9.18359 37.6456 9.26953C37.8331 9.34766 37.9933 9.45703 38.1261 9.59766C38.2667 9.73828 38.3761 9.90625 38.4542 10.1016C38.5402 10.2891 38.5831 10.4883 38.5831 10.6992ZM38.5831 19.8984C38.5831 20.1094 38.5402 20.3086 38.4542 20.4961C38.3761 20.6758 38.2667 20.8359 38.1261 20.9766C37.9933 21.1172 37.8331 21.2266 37.6456 21.3047C37.4581 21.3906 37.2589 21.4336 37.048 21.4336C36.8292 21.4336 36.6261 21.3906 36.4386 21.3047C36.2511 21.2266 36.087 21.1172 35.9464 20.9766C35.8058 20.8359 35.6925 20.6758 35.6066 20.4961C35.5284 20.3086 35.4894 20.1094 35.4894 19.8984C35.4894 19.6797 35.5284 19.4766 35.6066 19.2891C35.6925 19.1016 35.8058 18.9375 35.9464 18.7969C36.087 18.6562 36.2511 18.5469 36.4386 18.4688C36.6261 18.3828 36.8292 18.3398 37.048 18.3398C37.2589 18.3398 37.4581 18.3828 37.6456 18.4688C37.8331 18.5469 37.9933 18.6562 38.1261 18.7969C38.2667 18.9375 38.3761 19.1016 38.4542 19.2891C38.5402 19.4766 38.5831 19.6797 38.5831 19.8984Z" fill="white"/>
<path d="M50.675 21.1172L47.5812 21.4336C47.5969 20.9102 47.6086 20.3672 47.6164 19.8047C47.632 19.2344 47.6437 18.668 47.6516 18.1055C47.6594 17.543 47.6672 16.9922 47.675 16.4531C47.6828 15.9062 47.6867 15.3906 47.6867 14.9062C47.6945 13.7656 47.6984 12.6445 47.6984 11.543C47.6906 10.5586 47.6789 9.60547 47.6633 8.68359C47.6555 8.29297 47.6437 7.89062 47.6281 7.47656C47.6203 7.0625 47.6086 6.65625 47.593 6.25781C47.5773 5.85938 47.5578 5.48438 47.5344 5.13281C47.5187 4.77344 47.4953 4.45312 47.4641 4.17188L50.4172 4.03125C50.4016 4.51562 50.3859 5.01562 50.3703 5.53125C50.3625 6.03906 50.3547 6.54688 50.3469 7.05469C50.3391 7.55469 50.3312 8.03906 50.3234 8.50781C50.3234 8.97656 50.3234 9.41406 50.3234 9.82031C50.3234 11.8594 50.3469 13.8047 50.3937 15.6562C50.4484 17.5 50.5422 19.3203 50.675 21.1172Z" fill="white"/>
<path d="M56.4162 8.01562L56.3459 8.97656C56.6037 8.54688 56.8772 8.21875 57.1662 7.99219C57.4631 7.76562 57.7366 7.60547 57.9866 7.51172C58.2366 7.41797 58.4436 7.36719 58.6077 7.35938C58.7795 7.35156 58.8733 7.34766 58.8889 7.34766C59.467 7.34766 59.9709 7.48047 60.4006 7.74609C60.8303 8.01172 61.1858 8.39844 61.467 8.90625C61.7483 9.40625 61.9553 10.0195 62.0881 10.7461C62.2287 11.4648 62.2991 12.2812 62.2991 13.1953C62.2991 13.8672 62.2873 14.5547 62.2639 15.2578C62.2483 15.9531 62.2092 16.6484 62.1467 17.3438C62.092 18.0312 62.0139 18.7031 61.9123 19.3594C61.8186 20.0156 61.6897 20.6406 61.5256 21.2344L58.7952 20.9062C58.9748 19.9766 59.1155 19.1094 59.217 18.3047C59.3186 17.5 59.3928 16.7969 59.4397 16.1953C59.4944 15.4922 59.5256 14.8477 59.5334 14.2617C59.5334 13.5195 59.51 12.875 59.4631 12.3281C59.4162 11.7734 59.3303 11.3164 59.2053 10.957C59.0881 10.5898 58.9241 10.3164 58.7131 10.1367C58.5022 9.95703 58.2327 9.86719 57.9045 9.86719C57.6858 9.91406 57.467 10.0703 57.2483 10.3359C57.0608 10.5625 56.8616 10.9258 56.6506 11.4258C56.4397 11.918 56.2561 12.6133 56.0998 13.5117C56.0764 14.1211 56.0608 14.7266 56.053 15.3281C56.053 15.9219 56.053 16.5547 56.053 17.2266C56.053 17.7969 56.053 18.4102 56.053 19.0664C56.053 19.7227 56.0608 20.4648 56.0764 21.293L53.4162 21.2344C53.4397 20.4375 53.4553 19.5938 53.4631 18.7031C53.4787 17.8047 53.4866 16.8086 53.4866 15.7148C53.4866 14.6289 53.4787 13.4531 53.4631 12.1875C53.4475 10.9219 53.4162 9.51562 53.3694 7.96875L56.4162 8.01562Z" fill="white"/>
<path d="M68.9309 3.1875C68.8684 3.99219 68.8177 4.78516 68.7786 5.56641C68.7395 6.33984 68.7005 7.11719 68.6614 7.89844C69.0052 7.88281 69.345 7.87109 69.6809 7.86328C70.0169 7.84766 70.3606 7.82812 70.7122 7.80469L70.7591 10.8047C70.3841 10.7422 70.013 10.6914 69.6458 10.6523C69.2786 10.6133 68.9192 10.582 68.5677 10.5586C68.5442 11.2227 68.5286 11.8789 68.5208 12.5273C68.5208 13.1758 68.5208 13.832 68.5208 14.4961C68.5208 15.6836 68.5325 16.8633 68.5559 18.0352C68.5872 19.207 68.6341 20.3867 68.6966 21.5742L65.638 21.5273C65.7395 19.6914 65.8216 17.8594 65.8841 16.0312C65.9544 14.1953 66.0013 12.3477 66.0247 10.4883C65.6966 10.5039 65.3684 10.5234 65.0403 10.5469C64.7122 10.5625 64.3763 10.582 64.0325 10.6055L64.1263 7.82812C64.4466 7.85156 64.763 7.87109 65.0755 7.88672C65.3958 7.89453 65.7122 7.90625 66.0247 7.92188C66.0247 7.14062 66.0169 6.36328 66.0013 5.58984C65.9856 4.80859 65.97 4.02344 65.9544 3.23438L68.9309 3.1875Z" fill="white"/>
<path d="M81.0003 18.4805C81.0003 18.9414 80.8948 19.375 80.6839 19.7812C80.473 20.1875 80.1878 20.5391 79.8284 20.8359C79.4691 21.1328 79.0472 21.3672 78.5628 21.5391C78.0784 21.7109 77.5628 21.7969 77.0159 21.7969C76.6488 21.7969 76.2777 21.7461 75.9027 21.6445C75.5277 21.543 75.1683 21.375 74.8245 21.1406C74.4808 20.9062 74.1566 20.5977 73.8519 20.2148C73.5472 19.832 73.2816 19.3633 73.055 18.8086C72.8363 18.2539 72.6605 17.6055 72.5277 16.8633C72.4027 16.1133 72.3402 15.2539 72.3402 14.2852C72.3402 13.3711 72.4027 12.5625 72.5277 11.8594C72.6605 11.1562 72.8363 10.543 73.055 10.0195C73.2816 9.49609 73.5433 9.05859 73.8402 8.70703C74.137 8.34766 74.4534 8.05859 74.7894 7.83984C75.1331 7.61328 75.4847 7.45312 75.8441 7.35938C76.2113 7.26562 76.5706 7.21875 76.9222 7.21875C77.4456 7.21875 77.9417 7.30469 78.4105 7.47656C78.8792 7.64062 79.2894 7.88672 79.6409 8.21484C79.9925 8.54297 80.2698 8.94922 80.473 9.43359C80.6839 9.91016 80.7894 10.4609 80.7894 11.0859C80.7894 11.6484 80.6722 12.2188 80.4378 12.7969C80.2113 13.3672 79.8714 13.9102 79.4183 14.4258C78.9652 14.9336 78.4027 15.3984 77.7308 15.8203C77.0667 16.2344 76.3011 16.5625 75.4339 16.8047C75.4808 17.2891 75.5472 17.7305 75.6331 18.1289C75.7269 18.5273 75.8402 18.8672 75.973 19.1484C76.1136 19.4297 76.2738 19.6484 76.4534 19.8047C76.6409 19.9609 76.8558 20.0391 77.098 20.0391C77.2542 20.0312 77.4027 20.0039 77.5433 19.957C77.6683 19.918 77.7933 19.8555 77.9183 19.7695C78.0511 19.6836 78.1605 19.5586 78.2464 19.3945C78.0433 19.3008 77.887 19.1797 77.7777 19.0312C77.6683 18.8828 77.5863 18.7422 77.5316 18.6094C77.4691 18.4531 77.4339 18.2891 77.4261 18.1172C77.4261 17.7422 77.5003 17.4375 77.6488 17.2031C77.7972 16.9688 77.973 16.7852 78.1761 16.6523C78.3792 16.5195 78.5863 16.4297 78.7972 16.3828C79.0081 16.3281 79.1761 16.3008 79.3011 16.3008C79.4339 16.3008 79.5941 16.3281 79.7816 16.3828C79.9769 16.4375 80.1644 16.543 80.3441 16.6992C80.5238 16.8555 80.6761 17.0781 80.8011 17.3672C80.9339 17.6484 81.0003 18.0195 81.0003 18.4805ZM78.1058 11.1094C78.1058 10.8281 78.0784 10.5625 78.0238 10.3125C77.9769 10.0547 77.9027 9.83203 77.8011 9.64453C77.7073 9.45703 77.5863 9.30859 77.4378 9.19922C77.2972 9.08203 77.1331 9.02344 76.9456 9.02344C76.6253 9.02344 76.3636 9.17188 76.1605 9.46875C75.9573 9.75781 75.7933 10.1445 75.6683 10.6289C75.5433 11.1133 75.4573 11.6719 75.4105 12.3047C75.3636 12.9375 75.3402 13.5977 75.3402 14.2852V15.1406C75.7386 14.9297 76.1058 14.6797 76.4417 14.3906C76.7855 14.1016 77.0784 13.7852 77.3206 13.4414C77.5706 13.0898 77.762 12.7188 77.8948 12.3281C78.0355 11.9375 78.1058 11.5312 78.1058 11.1094Z" fill="white"/>
<path d="M86.2259 21.4805L83.097 21.7148C83.222 20.3164 83.3119 18.9688 83.3666 17.6719C83.4291 16.3672 83.4603 15.0625 83.4603 13.7578C83.4603 12.8359 83.4447 11.9141 83.4134 10.9922C83.39 10.0625 83.3431 9.10938 83.2728 8.13281L85.9095 7.99219C85.8939 8.16406 85.8822 8.33203 85.8744 8.49609C85.8666 8.66016 85.8627 8.82031 85.8627 8.97656C86.1361 8.55469 86.433 8.22656 86.7533 7.99219C87.0814 7.75 87.3861 7.57422 87.6673 7.46484C87.9877 7.33203 88.3119 7.25 88.64 7.21875C89.2103 7.21875 89.6986 7.30859 90.1048 7.48828C90.5111 7.66016 90.8431 7.88672 91.1009 8.16797C91.3587 8.44141 91.5462 8.75 91.6634 9.09375C91.7806 9.42969 91.8392 9.75781 91.8392 10.0781C91.8392 10.4062 91.8041 10.7383 91.7337 11.0742C91.6634 11.4102 91.5423 11.7148 91.3705 11.9883C91.2064 12.2539 90.9837 12.4727 90.7025 12.6445C90.4291 12.8086 90.0892 12.8906 89.683 12.8906C89.2767 12.8906 88.9564 12.8164 88.722 12.668C88.4877 12.5195 88.308 12.3438 88.183 12.1406C88.0658 11.9297 87.9877 11.7148 87.9486 11.4961C87.9173 11.2695 87.9017 11.0781 87.9017 10.9219C87.9017 10.8125 87.9212 10.6914 87.9603 10.5586C87.9994 10.418 88.058 10.2773 88.1361 10.1367C88.2142 9.99609 88.3119 9.85938 88.4291 9.72656C88.5462 9.58594 88.683 9.45703 88.8392 9.33984C88.7923 9.32422 88.7416 9.3125 88.6869 9.30469C88.64 9.29688 88.5931 9.29297 88.5462 9.29297C88.1556 9.29297 87.808 9.41797 87.5033 9.66797C87.1986 9.91016 86.933 10.25 86.7064 10.6875C86.4877 11.125 86.3041 11.6406 86.1556 12.2344C86.015 12.8281 85.9095 13.4766 85.8392 14.1797C85.8783 15.3906 85.933 16.5898 86.0033 17.7773C86.0736 18.9648 86.1478 20.1992 86.2259 21.4805Z" fill="white"/>
<path d="M102.912 7.99219C102.537 9.15625 102.186 10.2852 101.858 11.3789C101.53 12.4727 101.221 13.5664 100.932 14.6602C100.643 15.7461 100.37 16.8438 100.112 17.9531C99.8539 19.0625 99.6117 20.2148 99.3852 21.4102L95.9984 21.4805C95.7875 20.3164 95.5727 19.1914 95.3539 18.1055C95.143 17.0117 94.9164 15.9258 94.6742 14.8477C94.4398 13.7695 94.1898 12.6836 93.9242 11.5898C93.6586 10.4961 93.3734 9.36719 93.0687 8.20312L96.432 8.0625C96.6117 9.73438 96.8109 11.4414 97.0297 13.1836C97.2484 14.9258 97.5062 16.6367 97.8031 18.3164C98.1859 16.6211 98.4945 14.8945 98.7289 13.1367C98.9711 11.3711 99.1586 9.64062 99.2914 7.94531L102.912 7.99219Z" fill="white"/>
<path d="M112.779 18.4805C112.779 18.9414 112.673 19.375 112.462 19.7812C112.251 20.1875 111.966 20.5391 111.607 20.8359C111.247 21.1328 110.826 21.3672 110.341 21.5391C109.857 21.7109 109.341 21.7969 108.794 21.7969C108.427 21.7969 108.056 21.7461 107.681 21.6445C107.306 21.543 106.947 21.375 106.603 21.1406C106.259 20.9062 105.935 20.5977 105.63 20.2148C105.326 19.832 105.06 19.3633 104.833 18.8086C104.615 18.2539 104.439 17.6055 104.306 16.8633C104.181 16.1133 104.119 15.2539 104.119 14.2852C104.119 13.3711 104.181 12.5625 104.306 11.8594C104.439 11.1562 104.615 10.543 104.833 10.0195C105.06 9.49609 105.322 9.05859 105.619 8.70703C105.915 8.34766 106.232 8.05859 106.568 7.83984C106.912 7.61328 107.263 7.45312 107.622 7.35938C107.99 7.26562 108.349 7.21875 108.701 7.21875C109.224 7.21875 109.72 7.30469 110.189 7.47656C110.658 7.64062 111.068 7.88672 111.419 8.21484C111.771 8.54297 112.048 8.94922 112.251 9.43359C112.462 9.91016 112.568 10.4609 112.568 11.0859C112.568 11.6484 112.451 12.2188 112.216 12.7969C111.99 13.3672 111.65 13.9102 111.197 14.4258C110.744 14.9336 110.181 15.3984 109.509 15.8203C108.845 16.2344 108.08 16.5625 107.212 16.8047C107.259 17.2891 107.326 17.7305 107.412 18.1289C107.505 18.5273 107.619 18.8672 107.751 19.1484C107.892 19.4297 108.052 19.6484 108.232 19.8047C108.419 19.9609 108.634 20.0391 108.876 20.0391C109.033 20.0312 109.181 20.0039 109.322 19.957C109.447 19.918 109.572 19.8555 109.697 19.7695C109.83 19.6836 109.939 19.5586 110.025 19.3945C109.822 19.3008 109.665 19.1797 109.556 19.0312C109.447 18.8828 109.365 18.7422 109.31 18.6094C109.247 18.4531 109.212 18.2891 109.205 18.1172C109.205 17.7422 109.279 17.4375 109.427 17.2031C109.576 16.9688 109.751 16.7852 109.955 16.6523C110.158 16.5195 110.365 16.4297 110.576 16.3828C110.787 16.3281 110.955 16.3008 111.08 16.3008C111.212 16.3008 111.372 16.3281 111.56 16.3828C111.755 16.4375 111.943 16.543 112.122 16.6992C112.302 16.8555 112.455 17.0781 112.58 17.3672C112.712 17.6484 112.779 18.0195 112.779 18.4805ZM109.884 11.1094C109.884 10.8281 109.857 10.5625 109.802 10.3125C109.755 10.0547 109.681 9.83203 109.58 9.64453C109.486 9.45703 109.365 9.30859 109.216 9.19922C109.076 9.08203 108.912 9.02344 108.724 9.02344C108.404 9.02344 108.142 9.17188 107.939 9.46875C107.736 9.75781 107.572 10.1445 107.447 10.6289C107.322 11.1133 107.236 11.6719 107.189 12.3047C107.142 12.9375 107.119 13.5977 107.119 14.2852V15.1406C107.517 14.9297 107.884 14.6797 108.22 14.3906C108.564 14.1016 108.857 13.7852 109.099 13.4414C109.349 13.0898 109.54 12.7188 109.673 12.3281C109.814 11.9375 109.884 11.5312 109.884 11.1094Z" fill="white"/>
<path d="M118.098 8.01562L118.028 8.97656C118.286 8.54688 118.559 8.21875 118.848 7.99219C119.145 7.76562 119.418 7.60547 119.668 7.51172C119.918 7.41797 120.125 7.36719 120.29 7.35938C120.461 7.35156 120.555 7.34766 120.571 7.34766C121.149 7.34766 121.653 7.48047 122.082 7.74609C122.512 8.01172 122.868 8.39844 123.149 8.90625C123.43 9.40625 123.637 10.0195 123.77 10.7461C123.911 11.4648 123.981 12.2812 123.981 13.1953C123.981 13.8672 123.969 14.5547 123.946 15.2578C123.93 15.9531 123.891 16.6484 123.829 17.3438C123.774 18.0312 123.696 18.7031 123.594 19.3594C123.5 20.0156 123.372 20.6406 123.207 21.2344L120.477 20.9062C120.657 19.9766 120.797 19.1094 120.899 18.3047C121 17.5 121.075 16.7969 121.122 16.1953C121.176 15.4922 121.207 14.8477 121.215 14.2617C121.215 13.5195 121.192 12.875 121.145 12.3281C121.098 11.7734 121.012 11.3164 120.887 10.957C120.77 10.5898 120.606 10.3164 120.395 10.1367C120.184 9.95703 119.915 9.86719 119.586 9.86719C119.368 9.91406 119.149 10.0703 118.93 10.3359C118.743 10.5625 118.543 10.9258 118.332 11.4258C118.122 11.918 117.938 12.6133 117.782 13.5117C117.758 14.1211 117.743 14.7266 117.735 15.3281C117.735 15.9219 117.735 16.5547 117.735 17.2266C117.735 17.7969 117.735 18.4102 117.735 19.0664C117.735 19.7227 117.743 20.4648 117.758 21.293L115.098 21.2344C115.122 20.4375 115.137 19.5938 115.145 18.7031C115.161 17.8047 115.168 16.8086 115.168 15.7148C115.168 14.6289 115.161 13.4531 115.145 12.1875C115.129 10.9219 115.098 9.51562 115.051 7.96875L118.098 8.01562Z" fill="white"/>
<path d="M130.613 3.1875C130.55 3.99219 130.5 4.78516 130.46 5.56641C130.421 6.33984 130.382 7.11719 130.343 7.89844C130.687 7.88281 131.027 7.87109 131.363 7.86328C131.699 7.84766 132.043 7.82812 132.394 7.80469L132.441 10.8047C132.066 10.7422 131.695 10.6914 131.328 10.6523C130.96 10.6133 130.601 10.582 130.25 10.5586C130.226 11.2227 130.21 11.8789 130.203 12.5273C130.203 13.1758 130.203 13.832 130.203 14.4961C130.203 15.6836 130.214 16.8633 130.238 18.0352C130.269 19.207 130.316 20.3867 130.378 21.5742L127.32 21.5273C127.421 19.6914 127.503 17.8594 127.566 16.0312C127.636 14.1953 127.683 12.3477 127.707 10.4883C127.378 10.5039 127.05 10.5234 126.722 10.5469C126.394 10.5625 126.058 10.582 125.714 10.6055L125.808 7.82812C126.128 7.85156 126.445 7.87109 126.757 7.88672C127.078 7.89453 127.394 7.90625 127.707 7.92188C127.707 7.14062 127.699 6.36328 127.683 5.58984C127.668 4.80859 127.652 4.02344 127.636 3.23438L130.613 3.1875Z" fill="white"/>
<path d="M137.643 4.55859C137.643 4.80859 137.596 5.04688 137.503 5.27344C137.409 5.49219 137.28 5.68359 137.116 5.84766C136.952 6.01172 136.756 6.14453 136.53 6.24609C136.311 6.33984 136.077 6.38672 135.827 6.38672C135.577 6.38672 135.338 6.33984 135.112 6.24609C134.893 6.14453 134.702 6.01172 134.538 5.84766C134.374 5.68359 134.241 5.49219 134.139 5.27344C134.045 5.04688 133.999 4.80859 133.999 4.55859C133.999 4.30859 134.045 4.07422 134.139 3.85547C134.241 3.62891 134.374 3.43359 134.538 3.26953C134.702 3.10547 134.893 2.97656 135.112 2.88281C135.338 2.78125 135.577 2.73047 135.827 2.73047C136.077 2.73047 136.311 2.78125 136.53 2.88281C136.756 2.97656 136.952 3.10547 137.116 3.26953C137.28 3.43359 137.409 3.62891 137.503 3.85547C137.596 4.07422 137.643 4.30859 137.643 4.55859ZM137.643 8.10938C137.581 8.72656 137.526 9.39453 137.479 10.1133C137.44 10.8242 137.405 11.5547 137.374 12.3047C137.35 13.0547 137.331 13.8086 137.315 14.5664C137.299 15.3242 137.288 16.0469 137.28 16.7344C137.272 17.4219 137.264 18.0664 137.256 18.668C137.256 19.2617 137.256 19.7734 137.256 20.2031V21.5273L134.596 21.6211C134.612 21.082 134.62 20.5586 134.62 20.0508C134.62 19.543 134.62 19.0352 134.62 18.5273C134.62 17.6445 134.612 16.7852 134.596 15.9492C134.581 15.1055 134.553 14.2617 134.514 13.418C134.483 12.5742 134.44 11.7188 134.385 10.8516C134.331 9.98438 134.264 9.08594 134.186 8.15625L137.643 8.10938Z" fill="white"/>
<path d="M144.252 21.668C143.478 21.668 142.81 21.5 142.248 21.1641C141.693 20.8281 141.232 20.3594 140.865 19.7578C140.505 19.1562 140.24 18.4414 140.068 17.6133C139.896 16.7852 139.81 15.8828 139.81 14.9062C139.81 13.7734 139.912 12.7344 140.115 11.7891C140.318 10.8438 140.615 10.0312 141.005 9.35156C141.404 8.67188 141.892 8.14453 142.47 7.76953C143.056 7.38672 143.728 7.19531 144.486 7.19531C145.252 7.19531 145.912 7.35547 146.466 7.67578C147.021 7.99609 147.478 8.44531 147.837 9.02344C148.205 9.60156 148.474 10.293 148.646 11.0977C148.818 11.9023 148.904 12.7891 148.904 13.7578C148.904 14.2578 148.873 14.8008 148.81 15.3867C148.755 15.9727 148.658 16.5586 148.517 17.1445C148.384 17.7305 148.205 18.2969 147.978 18.8438C147.752 19.3828 147.466 19.8633 147.123 20.2852C146.779 20.707 146.369 21.043 145.892 21.293C145.423 21.543 144.877 21.668 144.252 21.668ZM146.08 12.8906C146.08 12.2969 146.052 11.7656 145.998 11.2969C145.943 10.8203 145.853 10.418 145.728 10.0898C145.611 9.76172 145.459 9.51172 145.271 9.33984C145.091 9.16016 144.873 9.07031 144.615 9.07031C144.334 9.07031 144.072 9.21875 143.83 9.51562C143.587 9.8125 143.373 10.2422 143.185 10.8047C143.005 11.3672 142.861 12.0547 142.752 12.8672C142.65 13.6719 142.599 14.582 142.599 15.5977C142.599 16.2539 142.63 16.8438 142.693 17.3672C142.755 17.8828 142.849 18.3242 142.974 18.6914C143.099 19.0508 143.252 19.3281 143.431 19.5234C143.619 19.7109 143.837 19.8047 144.087 19.8047C144.337 19.8047 144.56 19.7031 144.755 19.5C144.951 19.2891 145.119 19.0078 145.259 18.6562C145.408 18.3047 145.533 17.8984 145.634 17.4375C145.744 16.9688 145.83 16.4805 145.892 15.9727C145.955 15.457 146.002 14.9336 146.033 14.4023C146.064 13.8711 146.08 13.3672 146.08 12.8906Z" fill="white"/>
<path d="M154.282 8.01562L154.212 8.97656C154.469 8.54688 154.743 8.21875 155.032 7.99219C155.329 7.76562 155.602 7.60547 155.852 7.51172C156.102 7.41797 156.309 7.36719 156.473 7.35938C156.645 7.35156 156.739 7.34766 156.755 7.34766C157.333 7.34766 157.837 7.48047 158.266 7.74609C158.696 8.01172 159.051 8.39844 159.333 8.90625C159.614 9.40625 159.821 10.0195 159.954 10.7461C160.094 11.4648 160.165 12.2812 160.165 13.1953C160.165 13.8672 160.153 14.5547 160.13 15.2578C160.114 15.9531 160.075 16.6484 160.012 17.3438C159.958 18.0312 159.88 18.7031 159.778 19.3594C159.684 20.0156 159.555 20.6406 159.391 21.2344L156.661 20.9062C156.84 19.9766 156.981 19.1094 157.083 18.3047C157.184 17.5 157.258 16.7969 157.305 16.1953C157.36 15.4922 157.391 14.8477 157.399 14.2617C157.399 13.5195 157.376 12.875 157.329 12.3281C157.282 11.7734 157.196 11.3164 157.071 10.957C156.954 10.5898 156.79 10.3164 156.579 10.1367C156.368 9.95703 156.098 9.86719 155.77 9.86719C155.551 9.91406 155.333 10.0703 155.114 10.3359C154.926 10.5625 154.727 10.9258 154.516 11.4258C154.305 11.918 154.122 12.6133 153.965 13.5117C153.942 14.1211 153.926 14.7266 153.919 15.3281C153.919 15.9219 153.919 16.5547 153.919 17.2266C153.919 17.7969 153.919 18.4102 153.919 19.0664C153.919 19.7227 153.926 20.4648 153.942 21.293L151.282 21.2344C151.305 20.4375 151.321 19.5938 151.329 18.7031C151.344 17.8047 151.352 16.8086 151.352 15.7148C151.352 14.6289 151.344 13.4531 151.329 12.1875C151.313 10.9219 151.282 9.51562 151.235 7.96875L154.282 8.01562Z" fill="white"/>
<path d="M3.10156 19.6055C3.10156 19.0039 3.08594 18.4023 3.05469 17.8008C3.03125 17.1992 3.00391 16.5977 2.97266 15.9961C2.94141 15.3867 2.91016 14.7773 2.87891 14.168C2.85547 13.5508 2.84375 12.9258 2.84375 12.293C2.84375 11.6289 2.86328 10.957 2.90234 10.2773C2.94922 9.58984 3.03516 8.92969 3.16016 8.29688C3.28516 7.65625 3.45703 7.05859 3.67578 6.50391C3.89453 5.94141 4.17969 5.45312 4.53125 5.03906C4.88281 4.625 5.3125 4.29688 5.82031 4.05469C6.32812 3.8125 6.92578 3.69141 7.61328 3.69141C8.26953 3.69141 8.83984 3.79688 9.32422 4.00781C9.80859 4.21094 10.2188 4.49219 10.5547 4.85156C10.8984 5.21094 11.1758 5.63281 11.3867 6.11719C11.6055 6.60156 11.7734 7.125 11.8906 7.6875C12.0156 8.25 12.1016 8.83594 12.1484 9.44531C12.1953 10.0547 12.2188 10.6602 12.2188 11.2617C12.2188 11.418 12.2148 11.5547 12.207 11.6719C12.207 11.7891 12.2031 11.918 12.1953 12.0586C12.1953 12.1914 12.1875 12.3516 12.1719 12.5391C12.1641 12.7266 12.1523 12.9727 12.1367 13.2773C12.1211 13.5742 12.1016 13.9414 12.0781 14.3789C12.0625 14.8164 12.043 15.3555 12.0195 15.9961C11.9961 16.6367 11.9688 17.3945 11.9375 18.2695C11.9062 19.1367 11.875 20.1523 11.8438 21.3164L8.33984 21.1875C8.47266 20.2969 8.58984 19.4062 8.69141 18.5156C8.80078 17.6172 8.89062 16.7812 8.96094 16.0078C8.35938 15.9609 7.80078 15.9375 7.28516 15.9375C7.01953 15.9375 6.76953 15.9414 6.53516 15.9492C6.30078 15.957 6.09375 15.9688 5.91406 15.9844C5.9375 16.3906 5.96484 16.8203 5.99609 17.2734C6.02734 17.7266 6.0625 18.1836 6.10156 18.6445C6.14062 19.1055 6.18359 19.5625 6.23047 20.0156C6.27734 20.4609 6.33203 20.8867 6.39453 21.293L3.07812 21.3867C3.09375 21.0977 3.10156 20.8047 3.10156 20.5078C3.10156 20.2031 3.10156 19.9023 3.10156 19.6055ZM5.77344 13.5117C6.00781 13.5273 6.23828 13.5352 6.46484 13.5352C6.69141 13.5352 6.91406 13.5352 7.13281 13.5352C7.96875 13.5352 8.64062 13.5117 9.14844 13.4648C9.19531 12.9102 9.24219 12.3516 9.28906 11.7891C9.34375 11.2266 9.37109 10.625 9.37109 9.98438C9.37109 8.63281 9.23047 7.60547 8.94922 6.90234C8.67578 6.19141 8.26953 5.83594 7.73047 5.83594C7.43359 5.83594 7.16016 5.94141 6.91016 6.15234C6.66016 6.36328 6.44141 6.69141 6.25391 7.13672C6.07422 7.57422 5.92969 8.12891 5.82031 8.80078C5.71875 9.47266 5.66797 10.2656 5.66797 11.1797C5.66797 11.5 5.67578 11.8438 5.69141 12.2109C5.71484 12.5703 5.74219 13.0039 5.77344 13.5117Z" stroke="black" stroke-width="4.6425" mask="url(#path-1-outside-1_1599_9837)"/>
<path d="M22.9287 10.4414C22.9287 10.8008 22.8623 11.1055 22.7295 11.3555C22.5967 11.6055 22.4366 11.8086 22.2491 11.9648C22.0616 12.1211 21.8662 12.2344 21.6631 12.3047C21.46 12.375 21.2881 12.4102 21.1475 12.4102C21.0069 12.4102 20.8389 12.3867 20.6436 12.3398C20.4483 12.2852 20.2608 12.1914 20.0811 12.0586C19.9092 11.9258 19.7608 11.75 19.6358 11.5312C19.5108 11.3047 19.4483 11.0195 19.4483 10.6758C19.4561 10.4883 19.4912 10.3047 19.5537 10.125C19.6084 9.96875 19.6905 9.80859 19.7998 9.64453C19.917 9.47266 20.0811 9.32031 20.292 9.1875C20.1514 8.98438 20.0108 8.82812 19.8702 8.71875C19.7295 8.60938 19.6045 8.52734 19.4952 8.47266C19.3623 8.41016 19.2412 8.37109 19.1319 8.35547C18.8897 8.35547 18.6709 8.40625 18.4756 8.50781C18.2803 8.60156 18.1123 8.73047 17.9717 8.89453C17.8389 9.05078 17.7334 9.23438 17.6553 9.44531C17.585 9.65625 17.5498 9.875 17.5498 10.1016C17.5498 10.3906 17.5694 10.6523 17.6084 10.8867C17.6475 11.1211 17.7373 11.3594 17.878 11.6016C18.0186 11.8438 18.2295 12.1055 18.5108 12.3867C18.792 12.668 19.1748 12.9961 19.6592 13.3711C20.1436 13.7461 20.5655 14.1133 20.9248 14.4727C21.2842 14.8242 21.5811 15.1719 21.8155 15.5156C22.0498 15.8594 22.2256 16.207 22.3428 16.5586C22.46 16.9023 22.5186 17.2617 22.5186 17.6367C22.5186 17.8867 22.4912 18.1602 22.4366 18.457C22.3897 18.7461 22.3037 19.043 22.1787 19.3477C22.0616 19.6445 21.9014 19.9336 21.6983 20.2148C21.503 20.4883 21.2569 20.7344 20.96 20.9531C20.6709 21.1719 20.3272 21.3438 19.9287 21.4688C19.5381 21.6016 19.0889 21.668 18.5811 21.668C17.8155 21.668 17.1631 21.5547 16.6241 21.3281C16.085 21.1016 15.6397 20.8281 15.2881 20.5078C14.9444 20.1797 14.6905 19.8359 14.5264 19.4766C14.3702 19.1172 14.292 18.8008 14.292 18.5273C14.292 18.2383 14.3272 17.9688 14.3975 17.7188C14.4678 17.4688 14.5772 17.25 14.7256 17.0625C14.8819 16.875 15.0772 16.7305 15.3116 16.6289C15.5538 16.5195 15.8428 16.4648 16.1788 16.4648C16.46 16.4648 16.7139 16.5078 16.9405 16.5938C17.1748 16.6797 17.3741 16.8086 17.5381 16.9805C17.71 17.1445 17.8428 17.3477 17.9366 17.5898C18.0303 17.832 18.0772 18.1055 18.0772 18.4102C18.0694 18.543 18.042 18.6797 17.9952 18.8203C17.9561 18.9375 17.8897 19.0664 17.7959 19.207C17.7022 19.3477 17.5733 19.4805 17.4092 19.6055C17.5186 19.6914 17.6241 19.7578 17.7256 19.8047C17.835 19.8438 17.9327 19.8711 18.0186 19.8867C18.1123 19.9102 18.2061 19.9219 18.2998 19.9219C18.4014 19.9219 18.5186 19.8945 18.6514 19.8398C18.792 19.7773 18.9248 19.6836 19.0498 19.5586C19.1748 19.4336 19.2803 19.2812 19.3662 19.1016C19.4522 18.9219 19.4952 18.707 19.4952 18.457C19.4952 18.207 19.4717 17.9805 19.4248 17.7773C19.3858 17.5664 19.2959 17.3516 19.1553 17.1328C19.0225 16.9062 18.8272 16.6602 18.5694 16.3945C18.3116 16.1289 17.9717 15.8086 17.5498 15.4336C17.128 15.0586 16.753 14.6953 16.4248 14.3438C16.0967 13.9844 15.8194 13.6133 15.5928 13.2305C15.3741 12.8477 15.2061 12.4453 15.0889 12.0234C14.9717 11.6016 14.9131 11.1367 14.9131 10.6289C14.9131 10.1289 15.0108 9.64453 15.2061 9.17578C15.4092 8.70703 15.6944 8.29297 16.0616 7.93359C16.4288 7.56641 16.8741 7.27734 17.3975 7.06641C17.9209 6.84766 18.5069 6.73828 19.1553 6.73828C19.8116 6.73828 20.378 6.83984 20.8545 7.04297C21.3311 7.24609 21.7217 7.51953 22.0264 7.86328C22.3311 8.19922 22.5577 8.58984 22.7061 9.03516C22.8545 9.48047 22.9287 9.94922 22.9287 10.4414Z" stroke="black" stroke-width="4.6425" mask="url(#path-1-outside-1_1599_9837)"/>
<path d="M33.17 10.4414C33.17 10.8008 33.1036 11.1055 32.9708 11.3555C32.838 11.6055 32.6778 11.8086 32.4903 11.9648C32.3028 12.1211 32.1075 12.2344 31.9044 12.3047C31.7013 12.375 31.5294 12.4102 31.3888 12.4102C31.2481 12.4102 31.0802 12.3867 30.8848 12.3398C30.6895 12.2852 30.502 12.1914 30.3223 12.0586C30.1505 11.9258 30.002 11.75 29.877 11.5312C29.752 11.3047 29.6895 11.0195 29.6895 10.6758C29.6973 10.4883 29.7325 10.3047 29.795 10.125C29.8497 9.96875 29.9317 9.80859 30.0411 9.64453C30.1583 9.47266 30.3223 9.32031 30.5333 9.1875C30.3927 8.98438 30.252 8.82812 30.1114 8.71875C29.9708 8.60938 29.8458 8.52734 29.7364 8.47266C29.6036 8.41016 29.4825 8.37109 29.3731 8.35547C29.1309 8.35547 28.9122 8.40625 28.7169 8.50781C28.5216 8.60156 28.3536 8.73047 28.213 8.89453C28.0802 9.05078 27.9747 9.23438 27.8966 9.44531C27.8263 9.65625 27.7911 9.875 27.7911 10.1016C27.7911 10.3906 27.8106 10.6523 27.8497 10.8867C27.8888 11.1211 27.9786 11.3594 28.1192 11.6016C28.2598 11.8438 28.4708 12.1055 28.752 12.3867C29.0333 12.668 29.4161 12.9961 29.9005 13.3711C30.3848 13.7461 30.8067 14.1133 31.1661 14.4727C31.5255 14.8242 31.8223 15.1719 32.0567 15.5156C32.2911 15.8594 32.4669 16.207 32.5841 16.5586C32.7013 16.9023 32.7598 17.2617 32.7598 17.6367C32.7598 17.8867 32.7325 18.1602 32.6778 18.457C32.6309 18.7461 32.545 19.043 32.42 19.3477C32.3028 19.6445 32.1427 19.9336 31.9395 20.2148C31.7442 20.4883 31.4981 20.7344 31.2013 20.9531C30.9122 21.1719 30.5684 21.3438 30.17 21.4688C29.7794 21.6016 29.3302 21.668 28.8223 21.668C28.0567 21.668 27.4044 21.5547 26.8653 21.3281C26.3263 21.1016 25.8809 20.8281 25.5294 20.5078C25.1856 20.1797 24.9317 19.8359 24.7677 19.4766C24.6114 19.1172 24.5333 18.8008 24.5333 18.5273C24.5333 18.2383 24.5684 17.9688 24.6388 17.7188C24.7091 17.4688 24.8184 17.25 24.9669 17.0625C25.1231 16.875 25.3184 16.7305 25.5528 16.6289C25.795 16.5195 26.0841 16.4648 26.42 16.4648C26.7013 16.4648 26.9552 16.5078 27.1817 16.5938C27.4161 16.6797 27.6153 16.8086 27.7794 16.9805C27.9513 17.1445 28.0841 17.3477 28.1778 17.5898C28.2716 17.832 28.3184 18.1055 28.3184 18.4102C28.3106 18.543 28.2833 18.6797 28.2364 18.8203C28.1973 18.9375 28.1309 19.0664 28.0372 19.207C27.9434 19.3477 27.8145 19.4805 27.6505 19.6055C27.7598 19.6914 27.8653 19.7578 27.9669 19.8047C28.0763 19.8438 28.1739 19.8711 28.2598 19.8867C28.3536 19.9102 28.4473 19.9219 28.5411 19.9219C28.6427 19.9219 28.7598 19.8945 28.8927 19.8398C29.0333 19.7773 29.1661 19.6836 29.2911 19.5586C29.4161 19.4336 29.5216 19.2812 29.6075 19.1016C29.6934 18.9219 29.7364 18.707 29.7364 18.457C29.7364 18.207 29.713 17.9805 29.6661 17.7773C29.627 17.5664 29.5372 17.3516 29.3966 17.1328C29.2638 16.9062 29.0684 16.6602 28.8106 16.3945C28.5528 16.1289 28.213 15.8086 27.7911 15.4336C27.3692 15.0586 26.9942 14.6953 26.6661 14.3438C26.338 13.9844 26.0606 13.6133 25.8341 13.2305C25.6153 12.8477 25.4473 12.4453 25.3302 12.0234C25.213 11.6016 25.1544 11.1367 25.1544 10.6289C25.1544 10.1289 25.252 9.64453 25.4473 9.17578C25.6505 8.70703 25.9356 8.29297 26.3028 7.93359C26.67 7.56641 27.1153 7.27734 27.6388 7.06641C28.1622 6.84766 28.7481 6.73828 29.3966 6.73828C30.0528 6.73828 30.6192 6.83984 31.0958 7.04297C31.5723 7.24609 31.963 7.51953 32.2677 7.86328C32.5723 8.19922 32.7989 8.58984 32.9473 9.03516C33.0958 9.48047 33.17 9.94922 33.17 10.4414Z" stroke="black" stroke-width="4.6425" mask="url(#path-1-outside-1_1599_9837)"/>
<path d="M38.5831 10.6992C38.5831 10.9102 38.5402 11.1094 38.4542 11.2969C38.3761 11.4844 38.2667 11.6484 38.1261 11.7891C37.9933 11.9219 37.8331 12.0312 37.6456 12.1172C37.4581 12.1953 37.2589 12.2344 37.048 12.2344C36.8292 12.2344 36.6261 12.1953 36.4386 12.1172C36.2511 12.0312 36.087 11.9219 35.9464 11.7891C35.8058 11.6484 35.6925 11.4844 35.6066 11.2969C35.5284 11.1094 35.4894 10.9102 35.4894 10.6992C35.4894 10.4883 35.5284 10.2891 35.6066 10.1016C35.6925 9.90625 35.8058 9.73828 35.9464 9.59766C36.087 9.45703 36.2511 9.34766 36.4386 9.26953C36.6261 9.18359 36.8292 9.14062 37.048 9.14062C37.2589 9.14062 37.4581 9.18359 37.6456 9.26953C37.8331 9.34766 37.9933 9.45703 38.1261 9.59766C38.2667 9.73828 38.3761 9.90625 38.4542 10.1016C38.5402 10.2891 38.5831 10.4883 38.5831 10.6992ZM38.5831 19.8984C38.5831 20.1094 38.5402 20.3086 38.4542 20.4961C38.3761 20.6758 38.2667 20.8359 38.1261 20.9766C37.9933 21.1172 37.8331 21.2266 37.6456 21.3047C37.4581 21.3906 37.2589 21.4336 37.048 21.4336C36.8292 21.4336 36.6261 21.3906 36.4386 21.3047C36.2511 21.2266 36.087 21.1172 35.9464 20.9766C35.8058 20.8359 35.6925 20.6758 35.6066 20.4961C35.5284 20.3086 35.4894 20.1094 35.4894 19.8984C35.4894 19.6797 35.5284 19.4766 35.6066 19.2891C35.6925 19.1016 35.8058 18.9375 35.9464 18.7969C36.087 18.6562 36.2511 18.5469 36.4386 18.4688C36.6261 18.3828 36.8292 18.3398 37.048 18.3398C37.2589 18.3398 37.4581 18.3828 37.6456 18.4688C37.8331 18.5469 37.9933 18.6562 38.1261 18.7969C38.2667 18.9375 38.3761 19.1016 38.4542 19.2891C38.5402 19.4766 38.5831 19.6797 38.5831 19.8984Z" stroke="black" stroke-width="4.6425" mask="url(#path-1-outside-1_1599_9837)"/>
<path d="M50.675 21.1172L47.5812 21.4336C47.5969 20.9102 47.6086 20.3672 47.6164 19.8047C47.632 19.2344 47.6437 18.668 47.6516 18.1055C47.6594 17.543 47.6672 16.9922 47.675 16.4531C47.6828 15.9062 47.6867 15.3906 47.6867 14.9062C47.6945 13.7656 47.6984 12.6445 47.6984 11.543C47.6906 10.5586 47.6789 9.60547 47.6633 8.68359C47.6555 8.29297 47.6437 7.89062 47.6281 7.47656C47.6203 7.0625 47.6086 6.65625 47.593 6.25781C47.5773 5.85938 47.5578 5.48438 47.5344 5.13281C47.5187 4.77344 47.4953 4.45312 47.4641 4.17188L50.4172 4.03125C50.4016 4.51562 50.3859 5.01562 50.3703 5.53125C50.3625 6.03906 50.3547 6.54688 50.3469 7.05469C50.3391 7.55469 50.3312 8.03906 50.3234 8.50781C50.3234 8.97656 50.3234 9.41406 50.3234 9.82031C50.3234 11.8594 50.3469 13.8047 50.3937 15.6562C50.4484 17.5 50.5422 19.3203 50.675 21.1172Z" stroke="black" stroke-width="4.6425" mask="url(#path-1-outside-1_1599_9837)"/>
<path d="M56.4162 8.01562L56.3459 8.97656C56.6037 8.54688 56.8772 8.21875 57.1662 7.99219C57.4631 7.76562 57.7366 7.60547 57.9866 7.51172C58.2366 7.41797 58.4436 7.36719 58.6077 7.35938C58.7795 7.35156 58.8733 7.34766 58.8889 7.34766C59.467 7.34766 59.9709 7.48047 60.4006 7.74609C60.8303 8.01172 61.1858 8.39844 61.467 8.90625C61.7483 9.40625 61.9553 10.0195 62.0881 10.7461C62.2287 11.4648 62.2991 12.2812 62.2991 13.1953C62.2991 13.8672 62.2873 14.5547 62.2639 15.2578C62.2483 15.9531 62.2092 16.6484 62.1467 17.3438C62.092 18.0312 62.0139 18.7031 61.9123 19.3594C61.8186 20.0156 61.6897 20.6406 61.5256 21.2344L58.7952 20.9062C58.9748 19.9766 59.1155 19.1094 59.217 18.3047C59.3186 17.5 59.3928 16.7969 59.4397 16.1953C59.4944 15.4922 59.5256 14.8477 59.5334 14.2617C59.5334 13.5195 59.51 12.875 59.4631 12.3281C59.4162 11.7734 59.3303 11.3164 59.2053 10.957C59.0881 10.5898 58.9241 10.3164 58.7131 10.1367C58.5022 9.95703 58.2327 9.86719 57.9045 9.86719C57.6858 9.91406 57.467 10.0703 57.2483 10.3359C57.0608 10.5625 56.8616 10.9258 56.6506 11.4258C56.4397 11.918 56.2561 12.6133 56.0998 13.5117C56.0764 14.1211 56.0608 14.7266 56.053 15.3281C56.053 15.9219 56.053 16.5547 56.053 17.2266C56.053 17.7969 56.053 18.4102 56.053 19.0664C56.053 19.7227 56.0608 20.4648 56.0764 21.293L53.4162 21.2344C53.4397 20.4375 53.4553 19.5938 53.4631 18.7031C53.4787 17.8047 53.4866 16.8086 53.4866 15.7148C53.4866 14.6289 53.4787 13.4531 53.4631 12.1875C53.4475 10.9219 53.4162 9.51562 53.3694 7.96875L56.4162 8.01562Z" stroke="black" stroke-width="4.6425" mask="url(#path-1-outside-1_1599_9837)"/>
<path d="M68.9309 3.1875C68.8684 3.99219 68.8177 4.78516 68.7786 5.56641C68.7395 6.33984 68.7005 7.11719 68.6614 7.89844C69.0052 7.88281 69.345 7.87109 69.6809 7.86328C70.0169 7.84766 70.3606 7.82812 70.7122 7.80469L70.7591 10.8047C70.3841 10.7422 70.013 10.6914 69.6458 10.6523C69.2786 10.6133 68.9192 10.582 68.5677 10.5586C68.5442 11.2227 68.5286 11.8789 68.5208 12.5273C68.5208 13.1758 68.5208 13.832 68.5208 14.4961C68.5208 15.6836 68.5325 16.8633 68.5559 18.0352C68.5872 19.207 68.6341 20.3867 68.6966 21.5742L65.638 21.5273C65.7395 19.6914 65.8216 17.8594 65.8841 16.0312C65.9544 14.1953 66.0013 12.3477 66.0247 10.4883C65.6966 10.5039 65.3684 10.5234 65.0403 10.5469C64.7122 10.5625 64.3763 10.582 64.0325 10.6055L64.1263 7.82812C64.4466 7.85156 64.763 7.87109 65.0755 7.88672C65.3958 7.89453 65.7122 7.90625 66.0247 7.92188C66.0247 7.14062 66.0169 6.36328 66.0013 5.58984C65.9856 4.80859 65.97 4.02344 65.9544 3.23438L68.9309 3.1875Z" stroke="black" stroke-width="4.6425" mask="url(#path-1-outside-1_1599_9837)"/>
<path d="M81.0003 18.4805C81.0003 18.9414 80.8948 19.375 80.6839 19.7812C80.473 20.1875 80.1878 20.5391 79.8284 20.8359C79.4691 21.1328 79.0472 21.3672 78.5628 21.5391C78.0784 21.7109 77.5628 21.7969 77.0159 21.7969C76.6488 21.7969 76.2777 21.7461 75.9027 21.6445C75.5277 21.543 75.1683 21.375 74.8245 21.1406C74.4808 20.9062 74.1566 20.5977 73.8519 20.2148C73.5472 19.832 73.2816 19.3633 73.055 18.8086C72.8363 18.2539 72.6605 17.6055 72.5277 16.8633C72.4027 16.1133 72.3402 15.2539 72.3402 14.2852C72.3402 13.3711 72.4027 12.5625 72.5277 11.8594C72.6605 11.1562 72.8363 10.543 73.055 10.0195C73.2816 9.49609 73.5433 9.05859 73.8402 8.70703C74.137 8.34766 74.4534 8.05859 74.7894 7.83984C75.1331 7.61328 75.4847 7.45312 75.8441 7.35938C76.2113 7.26562 76.5706 7.21875 76.9222 7.21875C77.4456 7.21875 77.9417 7.30469 78.4105 7.47656C78.8792 7.64062 79.2894 7.88672 79.6409 8.21484C79.9925 8.54297 80.2698 8.94922 80.473 9.43359C80.6839 9.91016 80.7894 10.4609 80.7894 11.0859C80.7894 11.6484 80.6722 12.2188 80.4378 12.7969C80.2113 13.3672 79.8714 13.9102 79.4183 14.4258C78.9652 14.9336 78.4027 15.3984 77.7308 15.8203C77.0667 16.2344 76.3011 16.5625 75.4339 16.8047C75.4808 17.2891 75.5472 17.7305 75.6331 18.1289C75.7269 18.5273 75.8402 18.8672 75.973 19.1484C76.1136 19.4297 76.2738 19.6484 76.4534 19.8047C76.6409 19.9609 76.8558 20.0391 77.098 20.0391C77.2542 20.0312 77.4027 20.0039 77.5433 19.957C77.6683 19.918 77.7933 19.8555 77.9183 19.7695C78.0511 19.6836 78.1605 19.5586 78.2464 19.3945C78.0433 19.3008 77.887 19.1797 77.7777 19.0312C77.6683 18.8828 77.5863 18.7422 77.5316 18.6094C77.4691 18.4531 77.4339 18.2891 77.4261 18.1172C77.4261 17.7422 77.5003 17.4375 77.6488 17.2031C77.7972 16.9688 77.973 16.7852 78.1761 16.6523C78.3792 16.5195 78.5863 16.4297 78.7972 16.3828C79.0081 16.3281 79.1761 16.3008 79.3011 16.3008C79.4339 16.3008 79.5941 16.3281 79.7816 16.3828C79.9769 16.4375 80.1644 16.543 80.3441 16.6992C80.5238 16.8555 80.6761 17.0781 80.8011 17.3672C80.9339 17.6484 81.0003 18.0195 81.0003 18.4805ZM78.1058 11.1094C78.1058 10.8281 78.0784 10.5625 78.0238 10.3125C77.9769 10.0547 77.9027 9.83203 77.8011 9.64453C77.7073 9.45703 77.5863 9.30859 77.4378 9.19922C77.2972 9.08203 77.1331 9.02344 76.9456 9.02344C76.6253 9.02344 76.3636 9.17188 76.1605 9.46875C75.9573 9.75781 75.7933 10.1445 75.6683 10.6289C75.5433 11.1133 75.4573 11.6719 75.4105 12.3047C75.3636 12.9375 75.3402 13.5977 75.3402 14.2852V15.1406C75.7386 14.9297 76.1058 14.6797 76.4417 14.3906C76.7855 14.1016 77.0784 13.7852 77.3206 13.4414C77.5706 13.0898 77.762 12.7188 77.8948 12.3281C78.0355 11.9375 78.1058 11.5312 78.1058 11.1094Z" stroke="black" stroke-width="4.6425" mask="url(#path-1-outside-1_1599_9837)"/>
<path d="M86.2259 21.4805L83.097 21.7148C83.222 20.3164 83.3119 18.9688 83.3666 17.6719C83.4291 16.3672 83.4603 15.0625 83.4603 13.7578C83.4603 12.8359 83.4447 11.9141 83.4134 10.9922C83.39 10.0625 83.3431 9.10938 83.2728 8.13281L85.9095 7.99219C85.8939 8.16406 85.8822 8.33203 85.8744 8.49609C85.8666 8.66016 85.8627 8.82031 85.8627 8.97656C86.1361 8.55469 86.433 8.22656 86.7533 7.99219C87.0814 7.75 87.3861 7.57422 87.6673 7.46484C87.9877 7.33203 88.3119 7.25 88.64 7.21875C89.2103 7.21875 89.6986 7.30859 90.1048 7.48828C90.5111 7.66016 90.8431 7.88672 91.1009 8.16797C91.3587 8.44141 91.5462 8.75 91.6634 9.09375C91.7806 9.42969 91.8392 9.75781 91.8392 10.0781C91.8392 10.4062 91.8041 10.7383 91.7337 11.0742C91.6634 11.4102 91.5423 11.7148 91.3705 11.9883C91.2064 12.2539 90.9837 12.4727 90.7025 12.6445C90.4291 12.8086 90.0892 12.8906 89.683 12.8906C89.2767 12.8906 88.9564 12.8164 88.722 12.668C88.4877 12.5195 88.308 12.3438 88.183 12.1406C88.0658 11.9297 87.9877 11.7148 87.9486 11.4961C87.9173 11.2695 87.9017 11.0781 87.9017 10.9219C87.9017 10.8125 87.9212 10.6914 87.9603 10.5586C87.9994 10.418 88.058 10.2773 88.1361 10.1367C88.2142 9.99609 88.3119 9.85938 88.4291 9.72656C88.5462 9.58594 88.683 9.45703 88.8392 9.33984C88.7923 9.32422 88.7416 9.3125 88.6869 9.30469C88.64 9.29688 88.5931 9.29297 88.5462 9.29297C88.1556 9.29297 87.808 9.41797 87.5033 9.66797C87.1986 9.91016 86.933 10.25 86.7064 10.6875C86.4877 11.125 86.3041 11.6406 86.1556 12.2344C86.015 12.8281 85.9095 13.4766 85.8392 14.1797C85.8783 15.3906 85.933 16.5898 86.0033 17.7773C86.0736 18.9648 86.1478 20.1992 86.2259 21.4805Z" stroke="black" stroke-width="4.6425" mask="url(#path-1-outside-1_1599_9837)"/>
<path d="M102.912 7.99219C102.537 9.15625 102.186 10.2852 101.858 11.3789C101.53 12.4727 101.221 13.5664 100.932 14.6602C100.643 15.7461 100.37 16.8438 100.112 17.9531C99.8539 19.0625 99.6117 20.2148 99.3852 21.4102L95.9984 21.4805C95.7875 20.3164 95.5727 19.1914 95.3539 18.1055C95.143 17.0117 94.9164 15.9258 94.6742 14.8477C94.4398 13.7695 94.1898 12.6836 93.9242 11.5898C93.6586 10.4961 93.3734 9.36719 93.0687 8.20312L96.432 8.0625C96.6117 9.73438 96.8109 11.4414 97.0297 13.1836C97.2484 14.9258 97.5062 16.6367 97.8031 18.3164C98.1859 16.6211 98.4945 14.8945 98.7289 13.1367C98.9711 11.3711 99.1586 9.64062 99.2914 7.94531L102.912 7.99219Z" stroke="black" stroke-width="4.6425" mask="url(#path-1-outside-1_1599_9837)"/>
<path d="M112.779 18.4805C112.779 18.9414 112.673 19.375 112.462 19.7812C112.251 20.1875 111.966 20.5391 111.607 20.8359C111.247 21.1328 110.826 21.3672 110.341 21.5391C109.857 21.7109 109.341 21.7969 108.794 21.7969C108.427 21.7969 108.056 21.7461 107.681 21.6445C107.306 21.543 106.947 21.375 106.603 21.1406C106.259 20.9062 105.935 20.5977 105.63 20.2148C105.326 19.832 105.06 19.3633 104.833 18.8086C104.615 18.2539 104.439 17.6055 104.306 16.8633C104.181 16.1133 104.119 15.2539 104.119 14.2852C104.119 13.3711 104.181 12.5625 104.306 11.8594C104.439 11.1562 104.615 10.543 104.833 10.0195C105.06 9.49609 105.322 9.05859 105.619 8.70703C105.915 8.34766 106.232 8.05859 106.568 7.83984C106.912 7.61328 107.263 7.45312 107.622 7.35938C107.99 7.26562 108.349 7.21875 108.701 7.21875C109.224 7.21875 109.72 7.30469 110.189 7.47656C110.658 7.64062 111.068 7.88672 111.419 8.21484C111.771 8.54297 112.048 8.94922 112.251 9.43359C112.462 9.91016 112.568 10.4609 112.568 11.0859C112.568 11.6484 112.451 12.2188 112.216 12.7969C111.99 13.3672 111.65 13.9102 111.197 14.4258C110.744 14.9336 110.181 15.3984 109.509 15.8203C108.845 16.2344 108.08 16.5625 107.212 16.8047C107.259 17.2891 107.326 17.7305 107.412 18.1289C107.505 18.5273 107.619 18.8672 107.751 19.1484C107.892 19.4297 108.052 19.6484 108.232 19.8047C108.419 19.9609 108.634 20.0391 108.876 20.0391C109.033 20.0312 109.181 20.0039 109.322 19.957C109.447 19.918 109.572 19.8555 109.697 19.7695C109.83 19.6836 109.939 19.5586 110.025 19.3945C109.822 19.3008 109.665 19.1797 109.556 19.0312C109.447 18.8828 109.365 18.7422 109.31 18.6094C109.247 18.4531 109.212 18.2891 109.205 18.1172C109.205 17.7422 109.279 17.4375 109.427 17.2031C109.576 16.9688 109.751 16.7852 109.955 16.6523C110.158 16.5195 110.365 16.4297 110.576 16.3828C110.787 16.3281 110.955 16.3008 111.08 16.3008C111.212 16.3008 111.372 16.3281 111.56 16.3828C111.755 16.4375 111.943 16.543 112.122 16.6992C112.302 16.8555 112.455 17.0781 112.58 17.3672C112.712 17.6484 112.779 18.0195 112.779 18.4805ZM109.884 11.1094C109.884 10.8281 109.857 10.5625 109.802 10.3125C109.755 10.0547 109.681 9.83203 109.58 9.64453C109.486 9.45703 109.365 9.30859 109.216 9.19922C109.076 9.08203 108.912 9.02344 108.724 9.02344C108.404 9.02344 108.142 9.17188 107.939 9.46875C107.736 9.75781 107.572 10.1445 107.447 10.6289C107.322 11.1133 107.236 11.6719 107.189 12.3047C107.142 12.9375 107.119 13.5977 107.119 14.2852V15.1406C107.517 14.9297 107.884 14.6797 108.22 14.3906C108.564 14.1016 108.857 13.7852 109.099 13.4414C109.349 13.0898 109.54 12.7188 109.673 12.3281C109.814 11.9375 109.884 11.5312 109.884 11.1094Z" stroke="black" stroke-width="4.6425" mask="url(#path-1-outside-1_1599_9837)"/>
<path d="M118.098 8.01562L118.028 8.97656C118.286 8.54688 118.559 8.21875 118.848 7.99219C119.145 7.76562 119.418 7.60547 119.668 7.51172C119.918 7.41797 120.125 7.36719 120.29 7.35938C120.461 7.35156 120.555 7.34766 120.571 7.34766C121.149 7.34766 121.653 7.48047 122.082 7.74609C122.512 8.01172 122.868 8.39844 123.149 8.90625C123.43 9.40625 123.637 10.0195 123.77 10.7461C123.911 11.4648 123.981 12.2812 123.981 13.1953C123.981 13.8672 123.969 14.5547 123.946 15.2578C123.93 15.9531 123.891 16.6484 123.829 17.3438C123.774 18.0312 123.696 18.7031 123.594 19.3594C123.5 20.0156 123.372 20.6406 123.207 21.2344L120.477 20.9062C120.657 19.9766 120.797 19.1094 120.899 18.3047C121 17.5 121.075 16.7969 121.122 16.1953C121.176 15.4922 121.207 14.8477 121.215 14.2617C121.215 13.5195 121.192 12.875 121.145 12.3281C121.098 11.7734 121.012 11.3164 120.887 10.957C120.77 10.5898 120.606 10.3164 120.395 10.1367C120.184 9.95703 119.915 9.86719 119.586 9.86719C119.368 9.91406 119.149 10.0703 118.93 10.3359C118.743 10.5625 118.543 10.9258 118.332 11.4258C118.122 11.918 117.938 12.6133 117.782 13.5117C117.758 14.1211 117.743 14.7266 117.735 15.3281C117.735 15.9219 117.735 16.5547 117.735 17.2266C117.735 17.7969 117.735 18.4102 117.735 19.0664C117.735 19.7227 117.743 20.4648 117.758 21.293L115.098 21.2344C115.122 20.4375 115.137 19.5938 115.145 18.7031C115.161 17.8047 115.168 16.8086 115.168 15.7148C115.168 14.6289 115.161 13.4531 115.145 12.1875C115.129 10.9219 115.098 9.51562 115.051 7.96875L118.098 8.01562Z" stroke="black" stroke-width="4.6425" mask="url(#path-1-outside-1_1599_9837)"/>
<path d="M130.613 3.1875C130.55 3.99219 130.5 4.78516 130.46 5.56641C130.421 6.33984 130.382 7.11719 130.343 7.89844C130.687 7.88281 131.027 7.87109 131.363 7.86328C131.699 7.84766 132.043 7.82812 132.394 7.80469L132.441 10.8047C132.066 10.7422 131.695 10.6914 131.328 10.6523C130.96 10.6133 130.601 10.582 130.25 10.5586C130.226 11.2227 130.21 11.8789 130.203 12.5273C130.203 13.1758 130.203 13.832 130.203 14.4961C130.203 15.6836 130.214 16.8633 130.238 18.0352C130.269 19.207 130.316 20.3867 130.378 21.5742L127.32 21.5273C127.421 19.6914 127.503 17.8594 127.566 16.0312C127.636 14.1953 127.683 12.3477 127.707 10.4883C127.378 10.5039 127.05 10.5234 126.722 10.5469C126.394 10.5625 126.058 10.582 125.714 10.6055L125.808 7.82812C126.128 7.85156 126.445 7.87109 126.757 7.88672C127.078 7.89453 127.394 7.90625 127.707 7.92188C127.707 7.14062 127.699 6.36328 127.683 5.58984C127.668 4.80859 127.652 4.02344 127.636 3.23438L130.613 3.1875Z" stroke="black" stroke-width="4.6425" mask="url(#path-1-outside-1_1599_9837)"/>
<path d="M137.643 4.55859C137.643 4.80859 137.596 5.04688 137.503 5.27344C137.409 5.49219 137.28 5.68359 137.116 5.84766C136.952 6.01172 136.756 6.14453 136.53 6.24609C136.311 6.33984 136.077 6.38672 135.827 6.38672C135.577 6.38672 135.338 6.33984 135.112 6.24609C134.893 6.14453 134.702 6.01172 134.538 5.84766C134.374 5.68359 134.241 5.49219 134.139 5.27344C134.045 5.04688 133.999 4.80859 133.999 4.55859C133.999 4.30859 134.045 4.07422 134.139 3.85547C134.241 3.62891 134.374 3.43359 134.538 3.26953C134.702 3.10547 134.893 2.97656 135.112 2.88281C135.338 2.78125 135.577 2.73047 135.827 2.73047C136.077 2.73047 136.311 2.78125 136.53 2.88281C136.756 2.97656 136.952 3.10547 137.116 3.26953C137.28 3.43359 137.409 3.62891 137.503 3.85547C137.596 4.07422 137.643 4.30859 137.643 4.55859ZM137.643 8.10938C137.581 8.72656 137.526 9.39453 137.479 10.1133C137.44 10.8242 137.405 11.5547 137.374 12.3047C137.35 13.0547 137.331 13.8086 137.315 14.5664C137.299 15.3242 137.288 16.0469 137.28 16.7344C137.272 17.4219 137.264 18.0664 137.256 18.668C137.256 19.2617 137.256 19.7734 137.256 20.2031V21.5273L134.596 21.6211C134.612 21.082 134.62 20.5586 134.62 20.0508C134.62 19.543 134.62 19.0352 134.62 18.5273C134.62 17.6445 134.612 16.7852 134.596 15.9492C134.581 15.1055 134.553 14.2617 134.514 13.418C134.483 12.5742 134.44 11.7188 134.385 10.8516C134.331 9.98438 134.264 9.08594 134.186 8.15625L137.643 8.10938Z" stroke="black" stroke-width="4.6425" mask="url(#path-1-outside-1_1599_9837)"/>
<path d="M144.252 21.668C143.478 21.668 142.81 21.5 142.248 21.1641C141.693 20.8281 141.232 20.3594 140.865 19.7578C140.505 19.1562 140.24 18.4414 140.068 17.6133C139.896 16.7852 139.81 15.8828 139.81 14.9062C139.81 13.7734 139.912 12.7344 140.115 11.7891C140.318 10.8438 140.615 10.0312 141.005 9.35156C141.404 8.67188 141.892 8.14453 142.47 7.76953C143.056 7.38672 143.728 7.19531 144.486 7.19531C145.252 7.19531 145.912 7.35547 146.466 7.67578C147.021 7.99609 147.478 8.44531 147.837 9.02344C148.205 9.60156 148.474 10.293 148.646 11.0977C148.818 11.9023 148.904 12.7891 148.904 13.7578C148.904 14.2578 148.873 14.8008 148.81 15.3867C148.755 15.9727 148.658 16.5586 148.517 17.1445C148.384 17.7305 148.205 18.2969 147.978 18.8438C147.752 19.3828 147.466 19.8633 147.123 20.2852C146.779 20.707 146.369 21.043 145.892 21.293C145.423 21.543 144.877 21.668 144.252 21.668ZM146.08 12.8906C146.08 12.2969 146.052 11.7656 145.998 11.2969C145.943 10.8203 145.853 10.418 145.728 10.0898C145.611 9.76172 145.459 9.51172 145.271 9.33984C145.091 9.16016 144.873 9.07031 144.615 9.07031C144.334 9.07031 144.072 9.21875 143.83 9.51562C143.587 9.8125 143.373 10.2422 143.185 10.8047C143.005 11.3672 142.861 12.0547 142.752 12.8672C142.65 13.6719 142.599 14.582 142.599 15.5977C142.599 16.2539 142.63 16.8438 142.693 17.3672C142.755 17.8828 142.849 18.3242 142.974 18.6914C143.099 19.0508 143.252 19.3281 143.431 19.5234C143.619 19.7109 143.837 19.8047 144.087 19.8047C144.337 19.8047 144.56 19.7031 144.755 19.5C144.951 19.2891 145.119 19.0078 145.259 18.6562C145.408 18.3047 145.533 17.8984 145.634 17.4375C145.744 16.9688 145.83 16.4805 145.892 15.9727C145.955 15.457 146.002 14.9336 146.033 14.4023C146.064 13.8711 146.08 13.3672 146.08 12.8906Z" stroke="black" stroke-width="4.6425" mask="url(#path-1-outside-1_1599_9837)"/>
<path d="M154.282 8.01562L154.212 8.97656C154.469 8.54688 154.743 8.21875 155.032 7.99219C155.329 7.76562 155.602 7.60547 155.852 7.51172C156.102 7.41797 156.309 7.36719 156.473 7.35938C156.645 7.35156 156.739 7.34766 156.755 7.34766C157.333 7.34766 157.837 7.48047 158.266 7.74609C158.696 8.01172 159.051 8.39844 159.333 8.90625C159.614 9.40625 159.821 10.0195 159.954 10.7461C160.094 11.4648 160.165 12.2812 160.165 13.1953C160.165 13.8672 160.153 14.5547 160.13 15.2578C160.114 15.9531 160.075 16.6484 160.012 17.3438C159.958 18.0312 159.88 18.7031 159.778 19.3594C159.684 20.0156 159.555 20.6406 159.391 21.2344L156.661 20.9062C156.84 19.9766 156.981 19.1094 157.083 18.3047C157.184 17.5 157.258 16.7969 157.305 16.1953C157.36 15.4922 157.391 14.8477 157.399 14.2617C157.399 13.5195 157.376 12.875 157.329 12.3281C157.282 11.7734 157.196 11.3164 157.071 10.957C156.954 10.5898 156.79 10.3164 156.579 10.1367C156.368 9.95703 156.098 9.86719 155.77 9.86719C155.551 9.91406 155.333 10.0703 155.114 10.3359C154.926 10.5625 154.727 10.9258 154.516 11.4258C154.305 11.918 154.122 12.6133 153.965 13.5117C153.942 14.1211 153.926 14.7266 153.919 15.3281C153.919 15.9219 153.919 16.5547 153.919 17.2266C153.919 17.7969 153.919 18.4102 153.919 19.0664C153.919 19.7227 153.926 20.4648 153.942 21.293L151.282 21.2344C151.305 20.4375 151.321 19.5938 151.329 18.7031C151.344 17.8047 151.352 16.8086 151.352 15.7148C151.352 14.6289 151.344 13.4531 151.329 12.1875C151.313 10.9219 151.282 9.51562 151.235 7.96875L154.282 8.01562Z" stroke="black" stroke-width="4.6425" mask="url(#path-1-outside-1_1599_9837)"/>
</svg>
