<svg width="61" height="91" fill="none" xmlns="http://www.w3.org/2000/svg"><rect x=".39" y=".05" width="60.06" height="90.09" rx="4.62" fill="#fff"/><mask id="a" style="mask-type:alpha" maskUnits="userSpaceOnUse" x="1" y="1" width="58" height="87"><path d="M11.28 2.36h42.24a4.04 4.04 0 0 1 4.04 4.04v64.16c0 1.24-1 2.25-2.25 2.25a3.4 3.4 0 0 0-3.35 2.81l-1.12 6.39c-.16.9.25 1.8 1.03 2.26.9.54.53 1.92-.52 1.94l-44.94.94a4.04 4.04 0 0 1-4.13-4.18l2.04-62.75a2.94 2.94 0 0 1 2.95-2.85 4.1 4.1 0 0 0 4.1-4.1V8.23c0-.96-.46-1.87-1.23-2.44a1.9 1.9 0 0 1 1.14-3.42Z" fill="#C4C4C4" stroke="#000" stroke-width="1.15"/></mask><g mask="url(#a)"><rect x="6.17" y="5.25" width="49.66" height="79.69" rx="4.04" stroke="#000" stroke-width="1.15"/></g><path d="M16.7 19.68h-4.88c1.94-1.13 2.28-2.06 2.44-3.87L11 17.36c-1.78-1.2-1.87-1.87 0-3.1l3.26 1.55-1.63-3.88c1.03-2.02 2.03-1.94 3.25 0l-1.62 3.88 3.66-1.56c1.42 1.22 1.1 1.9 0 3.1l-3.66-1.54c.3 1.81.71 2.72 2.44 3.87Z" fill="#000"/><path d="M14.26 15.8c-.16 1.82-.5 2.75-2.44 3.88h4.88c-1.73-1.15-2.15-2.06-2.44-3.87Zm0 0L11 17.37c-1.78-1.2-1.87-1.87 0-3.1l3.26 1.55Zm0 0 1.62-3.87c-1.22-1.94-2.22-2.02-3.25 0l1.63 3.88Zm0 0 3.66-1.55c1.42 1.22 1.1 1.9 0 3.1l-3.66-1.54Z" stroke="#000" stroke-width="1.15"/><path d="M21.59 30.08h-4.27c1.7-1 2-1.8 2.13-3.4l-2.84 1.36c-1.56-1.04-1.64-1.63 0-2.71l2.84 1.35-1.42-3.39c.9-1.76 1.78-1.7 2.85 0l-1.43 3.4 3.2-1.36c1.25 1.06.98 1.65 0 2.71l-3.2-1.36c.26 1.6.63 2.38 2.14 3.4Z" fill="#000"/><path d="M19.45 26.68c-.13 1.6-.43 2.4-2.13 3.4h4.27c-1.5-1.02-1.88-1.8-2.14-3.4Zm0 0-2.84 1.36c-1.56-1.04-1.64-1.63 0-2.71l2.84 1.35Zm0 0 1.43-3.39c-1.07-1.7-1.95-1.76-2.85 0l1.42 3.4Zm0 0 3.2-1.35c1.25 1.06.98 1.65 0 2.71l-3.2-1.36Z" stroke="#000" stroke-width="1.15"/><path d="M40.4 30.08h4.28c-1.7-1-2-1.8-2.14-3.4l2.85 1.36c1.56-1.04 1.64-1.63 0-2.71l-2.85 1.35 1.43-3.39c-.9-1.76-1.78-1.7-2.85 0l1.42 3.4-3.2-1.36c-1.25 1.06-.97 1.65 0 2.71l3.2-1.36c-.25 1.6-.62 2.38-2.13 3.4Z" fill="#000"/><path d="M42.54 26.68c.14 1.6.44 2.4 2.14 3.4h-4.27c1.5-1.02 1.88-1.8 2.13-3.4Zm0 0 2.85 1.36c1.56-1.04 1.64-1.63 0-2.71l-2.85 1.35Zm0 0-1.42-3.39c1.07-1.7 1.95-1.76 2.85 0l-1.43 3.4Zm0 0-3.2-1.35c-1.25 1.06-.97 1.65 0 2.71l3.2-1.36Z" stroke="#000" stroke-width="1.15"/><path d="M21.59 47.4h-4.27c1.7-1 2-1.8 2.13-3.4l-2.84 1.37c-1.56-1.04-1.64-1.64 0-2.72l2.84 1.36-1.42-3.4c.9-1.76 1.78-1.7 2.85 0l-1.43 3.4 3.2-1.36c1.25 1.06.98 1.66 0 2.72L19.46 44c.26 1.6.63 2.38 2.14 3.4Z" fill="#000"/><path d="M19.45 44c-.13 1.6-.43 2.4-2.13 3.4h4.27c-1.5-1.01-1.88-1.8-2.14-3.4Zm0 0-2.84 1.37c-1.56-1.04-1.64-1.64 0-2.72l2.84 1.36Zm0 0 1.43-3.38c-1.07-1.7-1.95-1.77-2.85 0L19.45 44Zm0 0 3.2-1.35c1.25 1.06.98 1.66 0 2.72L19.46 44Z" stroke="#000" stroke-width="1.15"/><path d="M40.4 47.4h4.28c-1.7-1-2-1.8-2.14-3.4l2.85 1.37c1.56-1.04 1.64-1.64 0-2.72l-2.85 1.36 1.43-3.4c-.9-1.76-1.78-1.7-2.85 0l1.42 3.4-3.2-1.36c-1.25 1.06-.97 1.66 0 2.72l3.2-1.36c-.25 1.6-.62 2.38-2.13 3.4Z" fill="#000"/><path d="M42.54 44c.14 1.6.44 2.4 2.14 3.4h-4.27c1.5-1.01 1.88-1.8 2.13-3.4Zm0 0 2.85 1.37c1.56-1.04 1.64-1.64 0-2.72l-2.85 1.36Zm0 0-1.42-3.38c1.07-1.7 1.95-1.77 2.85 0L42.54 44Zm0 0-3.2-1.35c-1.25 1.06-.97 1.66 0 2.72l3.2-1.36Z" stroke="#000" stroke-width="1.15"/><path d="M40.4 60.1h4.28c-1.7 1-2 1.8-2.14 3.4l2.85-1.36c1.56 1.04 1.64 1.64 0 2.72l-2.85-1.36 1.43 3.4c-.9 1.76-1.78 1.7-2.85 0l1.42-3.4-3.2 1.36c-1.25-1.06-.97-1.66 0-2.72l3.2 1.36c-.25-1.6-.62-2.38-2.13-3.4Z" fill="#000"/><path d="M42.54 63.5c.14-1.6.44-2.4 2.14-3.4h-4.27c1.5 1.02 1.88 1.8 2.13 3.4Zm0 0 2.85-1.36c1.56 1.04 1.64 1.64 0 2.72l-2.85-1.36Zm0 0-1.42 3.4c1.07 1.7 1.95 1.76 2.85 0l-1.43-3.4Zm0 0-3.2 1.36c-1.25-1.06-.97-1.66 0-2.72l3.2 1.36Z" stroke="#000" stroke-width="1.15"/><path d="M21.59 60.1h-4.27c1.7 1 2 1.8 2.13 3.4l-2.84-1.36c-1.56 1.04-1.64 1.64 0 2.72l2.84-1.36-1.42 3.4c.9 1.76 1.78 1.7 2.85 0l-1.43-3.4 3.2 1.36c1.25-1.06.98-1.66 0-2.72l-3.2 1.36c.26-1.6.63-2.38 2.14-3.4Z" fill="#000"/><path d="M19.45 63.5c-.13-1.6-.43-2.4-2.13-3.4h4.27c-1.5 1.02-1.88 1.8-2.14 3.4Zm0 0-2.84-1.36c-1.56 1.04-1.64 1.64 0 2.72l2.84-1.36Zm0 0 1.43 3.4c-1.07 1.7-1.95 1.76-2.85 0l1.42-3.4Zm0 0 3.2 1.36c1.25-1.06.98-1.66 0-2.72l-3.2 1.36Z" stroke="#000" stroke-width="1.15"/><path d="M44.15 70.5h4.88c-1.94 1.14-2.29 2.06-2.44 3.88l3.25-1.55c1.78 1.19 1.87 1.87 0 3.1l-3.25-1.55 1.62 3.88c-1.03 2.01-2.03 1.94-3.25 0l1.63-3.88-3.66 1.55c-1.43-1.21-1.12-1.89 0-3.1l3.66 1.55c-.3-1.82-.72-2.72-2.44-3.88Z" fill="#000"/><path d="M46.59 74.38c.15-1.82.5-2.74 2.44-3.88h-4.88c1.72 1.16 2.14 2.06 2.44 3.88Zm0 0 3.25-1.55c1.78 1.19 1.87 1.87 0 3.1l-3.25-1.55Zm0 0-1.63 3.88c1.22 1.94 2.22 2.01 3.25 0l-1.62-3.88Zm0 0-3.66 1.55c-1.43-1.21-1.12-1.89 0-3.1l3.66 1.55Z" stroke="#000" stroke-width="1.15"/><path d="M8.91 11.92c0 .46-.05.86-.16 1.22-.1.35-.26.65-.48.9-.2.23-.46.41-.76.54a2.73 2.73 0 0 1-2.28-.12c-.35-.2-.66-.51-.92-.92-.25-.4-.45-.92-.58-1.53a10.07 10.07 0 0 1 .05-4.27c.18-.58.41-1.06.7-1.43a2.67 2.67 0 0 1 3.12-.9c.27.12.5.26.66.43.17.18.3.37.37.58.08.2.12.4.12.6 0 .19-.03.35-.1.5-.04.14-.12.26-.2.35-.1.1-.2.16-.32.21a.9.9 0 0 1-.34.07c-.11 0-.22-.01-.33-.04a.73.73 0 0 1-.29-.15.87.87 0 0 1-.2-.29 1.15 1.15 0 0 1-.05-.7c.02-.06.04-.14.08-.22.03-.09.09-.17.16-.24a.68.68 0 0 0-.2-.17 1.32 1.32 0 0 0-.46-.13.76.76 0 0 0-.49.22c-.16.14-.31.35-.45.65-.13.29-.25.66-.34 1.1-.08.45-.13.99-.13 1.6.22-.29.47-.5.75-.65a1.86 1.86 0 0 1 2.4.54c.2.25.36.57.49.94.12.38.18.82.18 1.31ZM6.5 13.75c.3 0 .54-.16.71-.48.18-.32.26-.77.26-1.35 0-.27-.02-.51-.08-.73a2 2 0 0 0-.22-.57c-.1-.16-.2-.29-.34-.37a.73.73 0 0 0-.41-.13c-.2 0-.41.07-.63.23-.21.15-.43.4-.66.75.04.45.1.84.19 1.18.09.33.19.6.31.82.12.22.25.38.4.49.15.1.3.16.47.16ZM51.93 78.26c0-.45.05-.86.16-1.21.1-.35.27-.65.48-.9.2-.24.46-.42.77-.54a2.73 2.73 0 0 1 2.27.12c.36.2.67.5.92.91.25.41.45.92.58 1.54a10.08 10.08 0 0 1-.05 4.26 4.33 4.33 0 0 1-.7 1.43 2.67 2.67 0 0 1-3.12.9c-.27-.11-.49-.25-.66-.43a1.67 1.67 0 0 1-.48-1.17c0-.19.03-.36.08-.5.06-.14.13-.26.22-.36.1-.09.2-.16.31-.2a.9.9 0 0 1 .34-.08c.11 0 .22.02.34.05.1.03.2.08.28.15.08.07.15.17.2.28a1.15 1.15 0 0 1 .05.7l-.07.23a.82.82 0 0 1-.17.24c.07.07.13.12.2.16a1.32 1.32 0 0 0 .46.13c.16 0 .33-.07.5-.21.15-.14.3-.36.44-.65.14-.3.25-.66.34-1.11.09-.45.13-.98.14-1.6-.23.3-.48.51-.76.65a1.86 1.86 0 0 1-2.39-.53 2.9 2.9 0 0 1-.5-.95 4.18 4.18 0 0 1-.18-1.3Zm2.42-1.83c-.3 0-.54.16-.7.48-.18.32-.27.77-.27 1.35 0 .27.03.52.08.74a2 2 0 0 0 .22.57c.1.16.21.28.34.37.13.09.27.13.41.13.2 0 .41-.08.63-.23.22-.15.44-.4.66-.75-.04-.45-.1-.85-.19-1.18-.08-.33-.19-.6-.3-.83a1.49 1.49 0 0 0-.4-.49.8.8 0 0 0-.48-.16Z" fill="#000"/></svg>