<svg width="132" height="24" viewBox="0 0 132 24" fill="none" xmlns="http://www.w3.org/2000/svg">
<mask id="path-1-outside-1_1592_9498" maskUnits="userSpaceOnUse" x="0" y="0" width="132" height="25" fill="black">
<rect fill="white" width="132" height="25"/>
<path d="M3 4.20703C3.92188 4.18359 4.80859 4.16016 5.66016 4.13672C6.01953 4.12891 6.39062 4.12109 6.77344 4.11328C7.16406 4.09766 7.53906 4.08594 7.89844 4.07812C8.26562 4.07031 8.60938 4.06641 8.92969 4.06641C9.25781 4.05859 9.54297 4.05469 9.78516 4.05469C10.0273 4.05469 10.2188 4.05469 10.3594 4.05469C10.5078 4.05469 10.582 4.0625 10.582 4.07812C10.582 4.09375 10.582 4.14453 10.582 4.23047C10.5898 4.31641 10.5938 4.42188 10.5938 4.54688C10.6016 4.67188 10.6055 4.8125 10.6055 4.96875C10.6133 5.125 10.6211 5.28516 10.6289 5.44922C10.6445 5.82422 10.6602 6.25 10.6758 6.72656C10.4336 7.29688 10.1836 7.96875 9.92578 8.74219C9.67578 9.51562 9.42969 10.3398 9.1875 11.2148C8.94531 12.082 8.71094 12.9766 8.48438 13.8984C8.25781 14.8125 8.05078 15.7031 7.86328 16.5703C7.68359 17.4375 7.52734 18.2539 7.39453 19.0195C7.26172 19.7852 7.16406 20.4453 7.10156 21L4.125 20.8828C4.21094 20.25 4.32812 19.5586 4.47656 18.8086C4.63281 18.0586 4.80859 17.2812 5.00391 16.4766C5.20703 15.6719 5.42969 14.8516 5.67188 14.0156C5.91406 13.1719 6.16406 12.3398 6.42188 11.5195C6.6875 10.6914 6.95703 9.88672 7.23047 9.10547C7.51172 8.32422 7.78906 7.58594 8.0625 6.89062L3 7.05469V4.20703Z"/>
<path d="M15.9952 10.582C15.9952 10.793 15.9522 10.9922 15.8663 11.1797C15.7881 11.3672 15.6788 11.5312 15.5381 11.6719C15.4053 11.8047 15.2452 11.9141 15.0577 12C14.8702 12.0781 14.6709 12.1172 14.46 12.1172C14.2413 12.1172 14.0381 12.0781 13.8506 12C13.6631 11.9141 13.4991 11.8047 13.3584 11.6719C13.2178 11.5312 13.1045 11.3672 13.0186 11.1797C12.9405 10.9922 12.9014 10.793 12.9014 10.582C12.9014 10.3711 12.9405 10.1719 13.0186 9.98438C13.1045 9.78906 13.2178 9.62109 13.3584 9.48047C13.4991 9.33984 13.6631 9.23047 13.8506 9.15234C14.0381 9.06641 14.2413 9.02344 14.46 9.02344C14.6709 9.02344 14.8702 9.06641 15.0577 9.15234C15.2452 9.23047 15.4053 9.33984 15.5381 9.48047C15.6788 9.62109 15.7881 9.78906 15.8663 9.98438C15.9522 10.1719 15.9952 10.3711 15.9952 10.582ZM15.9952 19.7812C15.9952 19.9922 15.9522 20.1914 15.8663 20.3789C15.7881 20.5586 15.6788 20.7188 15.5381 20.8594C15.4053 21 15.2452 21.1094 15.0577 21.1875C14.8702 21.2734 14.6709 21.3164 14.46 21.3164C14.2413 21.3164 14.0381 21.2734 13.8506 21.1875C13.6631 21.1094 13.4991 21 13.3584 20.8594C13.2178 20.7188 13.1045 20.5586 13.0186 20.3789C12.9405 20.1914 12.9014 19.9922 12.9014 19.7812C12.9014 19.5625 12.9405 19.3594 13.0186 19.1719C13.1045 18.9844 13.2178 18.8203 13.3584 18.6797C13.4991 18.5391 13.6631 18.4297 13.8506 18.3516C14.0381 18.2656 14.2413 18.2227 14.46 18.2227C14.6709 18.2227 14.8702 18.2656 15.0577 18.3516C15.2452 18.4297 15.4053 18.5391 15.5381 18.6797C15.6788 18.8203 15.7881 18.9844 15.8663 19.1719C15.9522 19.3594 15.9952 19.5625 15.9952 19.7812Z"/>
<path d="M41.0705 3.67969C41.0314 4.3125 40.9963 4.97266 40.965 5.66016C40.9416 6.33984 40.9181 7.02344 40.8947 7.71094C40.8791 8.39844 40.8634 9.07422 40.8478 9.73828C40.84 10.4023 40.8322 11.0273 40.8244 11.6133C40.8166 12.1992 40.8127 12.7344 40.8127 13.2188C40.8127 13.7031 40.8127 14.1133 40.8127 14.4492C40.8127 14.8867 40.8127 15.3711 40.8127 15.9023C40.8127 16.4336 40.8166 16.9805 40.8244 17.543C40.8322 18.1055 40.84 18.6719 40.8478 19.2422C40.8634 19.8047 40.883 20.3359 40.9064 20.8359C40.5705 20.8203 40.2619 20.8125 39.9806 20.8125C39.7072 20.8125 39.4572 20.8125 39.2306 20.8125C38.8244 20.8125 38.4884 20.8164 38.2228 20.8242C37.9572 20.832 37.7463 20.8438 37.59 20.8594C37.4025 20.875 37.258 20.8906 37.1564 20.9062C37.133 20.7422 37.0822 20.4883 37.0041 20.1445C36.9338 19.793 36.84 19.3789 36.7228 18.9023C36.6134 18.4258 36.4845 17.8984 36.3361 17.3203C36.1877 16.7422 36.0275 16.1406 35.8556 15.5156C35.6916 14.8906 35.5197 14.2578 35.34 13.6172C35.1603 12.9688 34.9806 12.3398 34.8009 11.7305C34.6291 11.1133 34.4572 10.5312 34.2853 9.98438C34.1213 9.42969 33.9689 8.93359 33.8283 8.49609C33.7658 9.49609 33.7189 10.4219 33.6877 11.2734C33.6564 12.1172 33.633 12.8555 33.6173 13.4883C33.5939 14.2227 33.5822 14.8945 33.5822 15.5039C33.5822 16.0273 33.5939 16.582 33.6173 17.168C33.633 17.668 33.6603 18.2383 33.6994 18.8789C33.7463 19.5195 33.8127 20.1719 33.8986 20.8359C33.297 20.8125 32.8009 20.8008 32.4103 20.8008C32.0275 20.793 31.7228 20.7891 31.4963 20.7891H30.922C30.9611 19.3906 30.9923 18.2031 31.0158 17.2266C31.0392 16.25 31.0548 15.4336 31.0627 14.7773C31.0783 14.1133 31.0861 13.582 31.0861 13.1836C31.0939 12.7852 31.0978 12.4648 31.0978 12.2227C31.0978 11.9727 31.0939 11.7734 31.0861 11.625C31.0861 11.4766 31.0861 11.3242 31.0861 11.168C31.0861 10.7773 31.0822 10.3125 31.0744 9.77344C31.0744 9.23438 31.0666 8.65625 31.0509 8.03906C31.0353 7.41406 31.0119 6.76562 30.9806 6.09375C30.9494 5.42188 30.9064 4.75781 30.8517 4.10156C31.6486 4.10156 32.3048 4.09375 32.8205 4.07812C33.3361 4.0625 33.7463 4.04688 34.0509 4.03125C34.4103 4.00781 34.6877 3.98438 34.883 3.96094C34.922 4.21094 35.0002 4.60156 35.1173 5.13281C35.2423 5.66406 35.3869 6.28125 35.5509 6.98438C35.7228 7.67969 35.9142 8.43359 36.1252 9.24609C36.3361 10.0586 36.5509 10.8789 36.7697 11.707C36.9963 12.5273 37.2228 13.3281 37.4494 14.1094C37.6759 14.8828 37.8908 15.582 38.0939 16.207C38.133 15.543 38.1603 14.8672 38.1759 14.1797C38.1994 13.4844 38.215 12.8359 38.2228 12.2344C38.2384 11.6328 38.2463 11.1094 38.2463 10.6641C38.2463 10.2109 38.2463 9.89844 38.2463 9.72656C38.2384 9.01562 38.2228 8.30469 38.1994 7.59375C38.1916 7.28906 38.1798 6.97266 38.1642 6.64453C38.1486 6.31641 38.1291 5.98828 38.1056 5.66016C38.09 5.32422 38.0666 4.99609 38.0353 4.67578C38.0119 4.35547 37.9845 4.05469 37.9533 3.77344L41.0705 3.67969Z"/>
<path d="M49.3078 21.3633C49.2609 21.1211 49.218 20.875 49.1789 20.625C49.1398 20.375 49.1086 20.1172 49.0852 19.8516C48.7258 20.3828 48.2961 20.7891 47.7961 21.0703C47.2961 21.3594 46.7492 21.5039 46.1555 21.5039C45.8508 21.5039 45.5383 21.4531 45.218 21.3516C44.8977 21.2578 44.6047 21.0898 44.3391 20.8477C44.0812 20.6055 43.8664 20.2773 43.6945 19.8633C43.5305 19.4414 43.4484 18.9102 43.4484 18.2695C43.4484 17.7383 43.5266 17.2773 43.6828 16.8867C43.8391 16.4883 44.0422 16.1406 44.2922 15.8438C44.5422 15.5469 44.8234 15.2891 45.1359 15.0703C45.4484 14.8516 45.757 14.6562 46.0617 14.4844C46.3742 14.3125 46.6711 14.1523 46.9523 14.0039C47.2336 13.8555 47.4641 13.707 47.6437 13.5586C47.9875 13.2852 48.2844 12.9961 48.5344 12.6914C48.7922 12.3789 48.9992 12.0547 49.1555 11.7188C49.1242 11.1797 49.0656 10.7383 48.9797 10.3945C48.9016 10.043 48.7961 9.76562 48.6633 9.5625C48.5305 9.35156 48.3664 9.20703 48.1711 9.12891C47.9836 9.04297 47.7687 9 47.5266 9C47.1672 9 46.8625 9.07812 46.6125 9.23438C46.3703 9.39062 46.1711 9.57812 46.0148 9.79688C46.2102 9.92188 46.3586 10.0547 46.4602 10.1953C46.5695 10.3359 46.6516 10.4727 46.7062 10.6055C46.7687 10.7539 46.8039 10.9062 46.8117 11.0625C46.8117 11.5938 46.6594 12 46.3547 12.2812C46.0578 12.5625 45.675 12.7031 45.2062 12.7031C44.9641 12.7031 44.7414 12.6484 44.5383 12.5391C44.3352 12.4219 44.1555 12.2617 43.9992 12.0586C43.8508 11.8555 43.7336 11.6133 43.6477 11.332C43.5617 11.0508 43.5187 10.7461 43.5187 10.418C43.5187 10.0898 43.593 9.74219 43.7414 9.375C43.8898 9.00781 44.1281 8.66797 44.4562 8.35547C44.7844 8.03516 45.2062 7.77344 45.7219 7.57031C46.2375 7.35938 46.8625 7.25391 47.5969 7.25391C48.3312 7.25391 48.9602 7.39844 49.4836 7.6875C50.007 7.96875 50.4367 8.34766 50.7727 8.82422C51.1086 9.29297 51.3508 9.83594 51.4992 10.4531C51.6555 11.0703 51.7336 11.707 51.7336 12.3633C51.7336 12.8555 51.7297 13.3906 51.7219 13.9688C51.7141 14.5469 51.7102 15.1406 51.7102 15.75C51.7102 16.2578 51.7141 16.7656 51.7219 17.2734C51.7297 17.7812 51.7453 18.2734 51.7687 18.75C51.7922 19.2188 51.8234 19.6641 51.8625 20.0859C51.9016 20.5 51.9523 20.8711 52.0148 21.1992L49.3078 21.3633ZM49.132 14.4961C48.8586 14.8242 48.5656 15.1055 48.2531 15.3398C48.0187 15.5039 47.7648 15.6875 47.4914 15.8906C47.2258 16.0938 46.9758 16.3086 46.7414 16.5352C46.5148 16.7617 46.3234 17 46.1672 17.25C46.0187 17.4922 45.9445 17.7422 45.9445 18C45.9445 18.3516 46.0305 18.6523 46.2023 18.9023C46.3742 19.1523 46.6164 19.2773 46.9289 19.2773C47.218 19.2773 47.4758 19.1992 47.7023 19.043C47.9289 18.8867 48.1281 18.6953 48.3 18.4688C48.4797 18.2344 48.6281 17.9844 48.7453 17.7188C48.8703 17.4531 48.968 17.2109 49.0383 16.9922L49.132 14.4961Z"/>
<path d="M62.9944 10.9219C62.9944 11.4609 62.9202 11.8906 62.7717 12.2109C62.6311 12.5234 62.4592 12.7617 62.2561 12.9258C62.0608 13.082 61.8577 13.1836 61.6467 13.2305C61.4436 13.2773 61.2756 13.3008 61.1428 13.3008C61.01 13.3008 60.8498 13.2812 60.6623 13.2422C60.4748 13.1953 60.2912 13.1094 60.1116 12.9844C59.9397 12.8516 59.7912 12.668 59.6662 12.4336C59.5491 12.1914 59.4905 11.8789 59.4905 11.4961C59.4983 11.2852 59.5373 11.0781 59.6077 10.875C59.6702 10.7031 59.7639 10.5273 59.8889 10.3477C60.0139 10.168 60.1936 10.0156 60.428 9.89062C60.2952 9.59375 60.1467 9.36719 59.9827 9.21094C59.8264 9.05469 59.6741 8.9375 59.5256 8.85938C59.3537 8.77344 59.1819 8.71875 59.01 8.69531C58.7209 8.69531 58.4592 8.82812 58.2248 9.09375C57.9905 9.35938 57.7912 9.73438 57.6272 10.2188C57.4631 10.6953 57.3342 11.2695 57.2405 11.9414C57.1545 12.6133 57.1116 13.3555 57.1116 14.168C57.1116 14.9727 57.1389 15.7266 57.1936 16.4297C57.2561 17.125 57.3537 17.7344 57.4866 18.2578C57.6194 18.7734 57.7991 19.1797 58.0256 19.4766C58.2522 19.7734 58.5334 19.9219 58.8694 19.9219C59.0491 19.9141 59.2287 19.8711 59.4084 19.793C59.5647 19.7305 59.7287 19.6289 59.9006 19.4883C60.0803 19.3398 60.2405 19.1328 60.3811 18.8672C60.1077 18.7344 59.8967 18.5742 59.7483 18.3867C59.6077 18.1914 59.5061 18.0039 59.4436 17.8242C59.3655 17.6133 59.3225 17.3945 59.3147 17.168C59.3147 16.793 59.3889 16.4883 59.5373 16.2539C59.6858 16.0195 59.8616 15.8359 60.0647 15.7031C60.2678 15.5625 60.4748 15.4688 60.6858 15.4219C60.8967 15.3672 61.0647 15.3398 61.1897 15.3398C61.3225 15.3398 61.4866 15.3672 61.6819 15.4219C61.8772 15.4766 62.0647 15.582 62.2444 15.7383C62.4241 15.8945 62.5764 16.1172 62.7014 16.4062C62.8342 16.6875 62.9006 17.0586 62.9006 17.5195C62.9006 17.9805 62.7873 18.457 62.5608 18.9492C62.342 19.4414 62.0412 19.8906 61.6584 20.2969C61.2834 20.7031 60.8459 21.0352 60.3459 21.293C59.8537 21.5508 59.3342 21.6797 58.7873 21.6797C58.4202 21.6797 58.0491 21.6289 57.6741 21.5273C57.2991 21.4258 56.9397 21.2578 56.5959 21.0234C56.2522 20.7891 55.928 20.4805 55.6233 20.0977C55.3186 19.7148 55.053 19.2461 54.8264 18.6914C54.6077 18.1367 54.4319 17.4883 54.2991 16.7461C54.1741 15.9961 54.1116 15.1367 54.1116 14.168C54.1116 13.1992 54.1819 12.3516 54.3225 11.625C54.4631 10.8906 54.6545 10.2617 54.8967 9.73828C55.1467 9.21484 55.4319 8.78125 55.7522 8.4375C56.0725 8.09375 56.4123 7.82031 56.7717 7.61719C57.1389 7.41406 57.5139 7.27344 57.8967 7.19531C58.2795 7.11719 58.6506 7.07812 59.01 7.07812C59.5412 7.07812 60.0491 7.17969 60.5334 7.38281C61.0178 7.57812 61.4397 7.85156 61.7991 8.20312C62.1662 8.54688 62.4553 8.95312 62.6662 9.42188C62.885 9.89062 62.9944 10.3906 62.9944 10.9219Z"/>
<path d="M68.2552 3.04688C68.1927 4.0625 68.1341 5.07031 68.0794 6.07031C68.0247 7.07031 67.9778 8.07812 67.9388 9.09375C68.2122 8.57812 68.5169 8.17969 68.8528 7.89844C69.1888 7.60938 69.5052 7.39844 69.802 7.26562C70.1458 7.10938 70.4934 7.01562 70.845 6.98438C71.4075 6.98438 71.888 7.12109 72.2864 7.39453C72.6848 7.66797 73.013 8.05859 73.2708 8.56641C73.5286 9.07422 73.7161 9.6875 73.8333 10.4062C73.9505 11.1172 74.0091 11.9141 74.0091 12.7969C74.0091 14.2734 73.9583 15.7031 73.8567 17.0859C73.763 18.4609 73.5598 19.8047 73.2473 21.1172L70.5052 20.7891C70.6848 19.8594 70.8216 18.9922 70.9153 18.1875C71.0169 17.3828 71.0911 16.6797 71.138 16.0781C71.1927 15.375 71.2239 14.7305 71.2317 14.1445C71.2317 13.4023 71.22 12.7578 71.1966 12.2109C71.1809 11.6562 71.1263 11.1992 71.0325 10.8398C70.9466 10.4727 70.8098 10.1992 70.6223 10.0195C70.4348 9.83984 70.1731 9.75 69.8372 9.75C69.5794 9.78906 69.3255 9.94531 69.0755 10.2188C68.9661 10.3359 68.8567 10.4844 68.7473 10.6641C68.638 10.8438 68.5247 11.0664 68.4075 11.332C68.2981 11.5898 68.1927 11.8945 68.0911 12.2461C67.9895 12.5977 67.8997 13.0039 67.8216 13.4648C67.7981 14.2617 67.7825 15.0547 67.7747 15.8438C67.7747 16.6328 67.7747 17.418 67.7747 18.1992C67.7747 18.6914 67.7747 19.1875 67.7747 19.6875C67.7747 20.1875 67.7825 20.6836 67.7981 21.1758L65.138 21.1172C65.2239 19.6875 65.2864 18.2578 65.3255 16.8281C65.3723 15.3984 65.3958 13.957 65.3958 12.5039C65.3958 10.9102 65.3684 9.32812 65.3138 7.75781C65.2591 6.17969 65.1809 4.59375 65.0794 3L68.2552 3.04688Z"/>
<path d="M84.6136 10.3242C84.6136 10.6836 84.5472 10.9883 84.4144 11.2383C84.2816 11.4883 84.1214 11.6914 83.9339 11.8477C83.7464 12.0039 83.5511 12.1172 83.348 12.1875C83.1448 12.2578 82.973 12.293 82.8323 12.293C82.6917 12.293 82.5238 12.2695 82.3284 12.2227C82.1331 12.168 81.9456 12.0742 81.7659 11.9414C81.5941 11.8086 81.4456 11.6328 81.3206 11.4141C81.1956 11.1875 81.1331 10.9023 81.1331 10.5586C81.1409 10.3711 81.1761 10.1875 81.2386 10.0078C81.2933 9.85156 81.3753 9.69141 81.4847 9.52734C81.6019 9.35547 81.7659 9.20312 81.9769 9.07031C81.8363 8.86719 81.6956 8.71094 81.555 8.60156C81.4144 8.49219 81.2894 8.41016 81.18 8.35547C81.0472 8.29297 80.9261 8.25391 80.8167 8.23828C80.5745 8.23828 80.3558 8.28906 80.1605 8.39062C79.9652 8.48438 79.7972 8.61328 79.6566 8.77734C79.5238 8.93359 79.4183 9.11719 79.3402 9.32812C79.2698 9.53906 79.2347 9.75781 79.2347 9.98438C79.2347 10.2734 79.2542 10.5352 79.2933 10.7695C79.3323 11.0039 79.4222 11.2422 79.5628 11.4844C79.7034 11.7266 79.9144 11.9883 80.1956 12.2695C80.4769 12.5508 80.8597 12.8789 81.3441 13.2539C81.8284 13.6289 82.2503 13.9961 82.6097 14.3555C82.9691 14.707 83.2659 15.0547 83.5003 15.3984C83.7347 15.7422 83.9105 16.0898 84.0277 16.4414C84.1448 16.7852 84.2034 17.1445 84.2034 17.5195C84.2034 17.7695 84.1761 18.043 84.1214 18.3398C84.0745 18.6289 83.9886 18.9258 83.8636 19.2305C83.7464 19.5273 83.5863 19.8164 83.3831 20.0977C83.1878 20.3711 82.9417 20.6172 82.6448 20.8359C82.3558 21.0547 82.012 21.2266 81.6136 21.3516C81.223 21.4844 80.7738 21.5508 80.2659 21.5508C79.5003 21.5508 78.848 21.4375 78.3089 21.2109C77.7698 20.9844 77.3245 20.7109 76.973 20.3906C76.6292 20.0625 76.3753 19.7188 76.2113 19.3594C76.055 19 75.9769 18.6836 75.9769 18.4102C75.9769 18.1211 76.012 17.8516 76.0823 17.6016C76.1527 17.3516 76.262 17.1328 76.4105 16.9453C76.5667 16.7578 76.762 16.6133 76.9964 16.5117C77.2386 16.4023 77.5277 16.3477 77.8636 16.3477C78.1448 16.3477 78.3988 16.3906 78.6253 16.4766C78.8597 16.5625 79.0589 16.6914 79.223 16.8633C79.3948 17.0273 79.5277 17.2305 79.6214 17.4727C79.7152 17.7148 79.762 17.9883 79.762 18.293C79.7542 18.4258 79.7269 18.5625 79.68 18.7031C79.6409 18.8203 79.5745 18.9492 79.4808 19.0898C79.387 19.2305 79.2581 19.3633 79.0941 19.4883C79.2034 19.5742 79.3089 19.6406 79.4105 19.6875C79.5198 19.7266 79.6175 19.7539 79.7034 19.7695C79.7972 19.793 79.8909 19.8047 79.9847 19.8047C80.0863 19.8047 80.2034 19.7773 80.3363 19.7227C80.4769 19.6602 80.6097 19.5664 80.7347 19.4414C80.8597 19.3164 80.9652 19.1641 81.0511 18.9844C81.137 18.8047 81.18 18.5898 81.18 18.3398C81.18 18.0898 81.1566 17.8633 81.1097 17.6602C81.0706 17.4492 80.9808 17.2344 80.8402 17.0156C80.7073 16.7891 80.512 16.543 80.2542 16.2773C79.9964 16.0117 79.6566 15.6914 79.2347 15.3164C78.8128 14.9414 78.4378 14.5781 78.1097 14.2266C77.7816 13.8672 77.5042 13.4961 77.2777 13.1133C77.0589 12.7305 76.8909 12.3281 76.7738 11.9062C76.6566 11.4844 76.598 11.0195 76.598 10.5117C76.598 10.0117 76.6956 9.52734 76.8909 9.05859C77.0941 8.58984 77.3792 8.17578 77.7464 7.81641C78.1136 7.44922 78.5589 7.16016 79.0823 6.94922C79.6058 6.73047 80.1917 6.62109 80.8402 6.62109C81.4964 6.62109 82.0628 6.72266 82.5394 6.92578C83.0159 7.12891 83.4066 7.40234 83.7113 7.74609C84.0159 8.08203 84.2425 8.47266 84.3909 8.91797C84.5394 9.36328 84.6136 9.83203 84.6136 10.3242Z"/>
<path d="M95.3587 10.9219C95.3587 11.4609 95.2845 11.8906 95.1361 12.2109C94.9955 12.5234 94.8236 12.7617 94.6205 12.9258C94.4252 13.082 94.222 13.1836 94.0111 13.2305C93.808 13.2773 93.64 13.3008 93.5072 13.3008C93.3744 13.3008 93.2142 13.2812 93.0267 13.2422C92.8392 13.1953 92.6556 13.1094 92.4759 12.9844C92.3041 12.8516 92.1556 12.668 92.0306 12.4336C91.9134 12.1914 91.8548 11.8789 91.8548 11.4961C91.8627 11.2852 91.9017 11.0781 91.972 10.875C92.0345 10.7031 92.1283 10.5273 92.2533 10.3477C92.3783 10.168 92.558 10.0156 92.7923 9.89062C92.6595 9.59375 92.5111 9.36719 92.347 9.21094C92.1908 9.05469 92.0384 8.9375 91.89 8.85938C91.7181 8.77344 91.5462 8.71875 91.3744 8.69531C91.0853 8.69531 90.8236 8.82812 90.5892 9.09375C90.3548 9.35938 90.1556 9.73438 89.9916 10.2188C89.8275 10.6953 89.6986 11.2695 89.6048 11.9414C89.5189 12.6133 89.4759 13.3555 89.4759 14.168C89.4759 14.9727 89.5033 15.7266 89.558 16.4297C89.6205 17.125 89.7181 17.7344 89.8509 18.2578C89.9837 18.7734 90.1634 19.1797 90.39 19.4766C90.6166 19.7734 90.8978 19.9219 91.2337 19.9219C91.4134 19.9141 91.5931 19.8711 91.7728 19.793C91.9291 19.7305 92.0931 19.6289 92.265 19.4883C92.4447 19.3398 92.6048 19.1328 92.7455 18.8672C92.472 18.7344 92.2611 18.5742 92.1127 18.3867C91.972 18.1914 91.8705 18.0039 91.808 17.8242C91.7298 17.6133 91.6869 17.3945 91.6791 17.168C91.6791 16.793 91.7533 16.4883 91.9017 16.2539C92.0502 16.0195 92.2259 15.8359 92.4291 15.7031C92.6322 15.5625 92.8392 15.4688 93.0502 15.4219C93.2611 15.3672 93.4291 15.3398 93.5541 15.3398C93.6869 15.3398 93.8509 15.3672 94.0462 15.4219C94.2416 15.4766 94.4291 15.582 94.6087 15.7383C94.7884 15.8945 94.9408 16.1172 95.0658 16.4062C95.1986 16.6875 95.265 17.0586 95.265 17.5195C95.265 17.9805 95.1517 18.457 94.9252 18.9492C94.7064 19.4414 94.4056 19.8906 94.0228 20.2969C93.6478 20.7031 93.2103 21.0352 92.7103 21.293C92.2181 21.5508 91.6986 21.6797 91.1517 21.6797C90.7845 21.6797 90.4134 21.6289 90.0384 21.5273C89.6634 21.4258 89.3041 21.2578 88.9603 21.0234C88.6166 20.7891 88.2923 20.4805 87.9877 20.0977C87.683 19.7148 87.4173 19.2461 87.1908 18.6914C86.972 18.1367 86.7962 17.4883 86.6634 16.7461C86.5384 15.9961 86.4759 15.1367 86.4759 14.168C86.4759 13.1992 86.5462 12.3516 86.6869 11.625C86.8275 10.8906 87.0189 10.2617 87.2611 9.73828C87.5111 9.21484 87.7962 8.78125 88.1166 8.4375C88.4369 8.09375 88.7767 7.82031 89.1361 7.61719C89.5033 7.41406 89.8783 7.27344 90.2611 7.19531C90.6439 7.11719 91.015 7.07812 91.3744 7.07812C91.9056 7.07812 92.4134 7.17969 92.8978 7.38281C93.3822 7.57812 93.8041 7.85156 94.1634 8.20312C94.5306 8.54688 94.8197 8.95312 95.0306 9.42188C95.2494 9.89062 95.3587 10.3906 95.3587 10.9219Z"/>
<path d="M100.62 3.04688C100.557 4.0625 100.498 5.07031 100.444 6.07031C100.389 7.07031 100.342 8.07812 100.303 9.09375C100.577 8.57812 100.881 8.17969 101.217 7.89844C101.553 7.60938 101.87 7.39844 102.166 7.26562C102.51 7.10938 102.858 7.01562 103.209 6.98438C103.772 6.98438 104.252 7.12109 104.651 7.39453C105.049 7.66797 105.377 8.05859 105.635 8.56641C105.893 9.07422 106.08 9.6875 106.198 10.4062C106.315 11.1172 106.373 11.9141 106.373 12.7969C106.373 14.2734 106.323 15.7031 106.221 17.0859C106.127 18.4609 105.924 19.8047 105.612 21.1172L102.87 20.7891C103.049 19.8594 103.186 18.9922 103.28 18.1875C103.381 17.3828 103.455 16.6797 103.502 16.0781C103.557 15.375 103.588 14.7305 103.596 14.1445C103.596 13.4023 103.584 12.7578 103.561 12.2109C103.545 11.6562 103.491 11.1992 103.397 10.8398C103.311 10.4727 103.174 10.1992 102.987 10.0195C102.799 9.83984 102.537 9.75 102.202 9.75C101.944 9.78906 101.69 9.94531 101.44 10.2188C101.33 10.3359 101.221 10.4844 101.112 10.6641C101.002 10.8438 100.889 11.0664 100.772 11.332C100.662 11.5898 100.557 11.8945 100.455 12.2461C100.354 12.5977 100.264 13.0039 100.186 13.4648C100.162 14.2617 100.147 15.0547 100.139 15.8438C100.139 16.6328 100.139 17.418 100.139 18.1992C100.139 18.6914 100.139 19.1875 100.139 19.6875C100.139 20.1875 100.147 20.6836 100.162 21.1758L97.5023 21.1172C97.5883 19.6875 97.6508 18.2578 97.6898 16.8281C97.7367 15.3984 97.7602 13.957 97.7602 12.5039C97.7602 10.9102 97.7328 9.32812 97.6781 7.75781C97.6234 6.17969 97.5453 4.59375 97.4437 3L100.62 3.04688Z"/>
<path d="M114.646 21C114.662 20.6875 114.677 20.3906 114.693 20.1094C114.716 19.8203 114.74 19.543 114.763 19.2773C114.497 19.7461 114.212 20.1055 113.908 20.3555C113.611 20.6055 113.333 20.793 113.076 20.918C112.771 21.0586 112.47 21.1445 112.173 21.1758C111.595 21.1758 111.091 21.0312 110.662 20.7422C110.232 20.4531 109.876 20.043 109.595 19.5117C109.314 18.9805 109.103 18.3438 108.962 17.6016C108.83 16.8516 108.763 16.0156 108.763 15.0938C108.763 13.8047 108.802 12.5547 108.88 11.3438C108.966 10.1328 109.103 8.94531 109.29 7.78125L112.267 8.10938C112.08 9.03906 111.935 9.87109 111.833 10.6055C111.74 11.332 111.669 11.9531 111.622 12.4688C111.568 13.0703 111.537 13.5938 111.529 14.0391C111.529 14.7812 111.552 15.4297 111.599 15.9844C111.646 16.5312 111.728 16.9883 111.845 17.3555C111.97 17.7148 112.138 17.9844 112.349 18.1641C112.56 18.3438 112.83 18.4336 113.158 18.4336C113.384 18.3945 113.607 18.2383 113.826 17.9648C113.919 17.8477 114.017 17.6992 114.119 17.5195C114.22 17.332 114.322 17.1055 114.423 16.8398C114.525 16.5742 114.622 16.2617 114.716 15.9023C114.81 15.543 114.9 15.125 114.986 14.6484C115.001 14.1875 115.009 13.7305 115.009 13.2773C115.009 12.8164 115.009 12.3203 115.009 11.7891C115.009 11.2266 115.009 10.6133 115.009 9.94922C115.009 9.28516 115.001 8.53906 114.986 7.71094L117.646 7.75781C117.607 8.35156 117.576 8.90234 117.552 9.41016C117.529 9.91016 117.509 10.3828 117.494 10.8281C117.486 11.2656 117.478 11.6797 117.47 12.0703C117.462 12.4609 117.458 12.8398 117.458 13.207C117.458 13.7695 117.462 14.3203 117.47 14.8594C117.486 15.3984 117.505 15.9727 117.529 16.582C117.552 17.1836 117.576 17.8477 117.599 18.5742C117.63 19.293 117.662 20.1172 117.693 21.0469L114.646 21Z"/>
<path d="M123.61 3.24609C123.516 4.26953 123.434 5.28516 123.364 6.29297C123.293 7.29297 123.231 8.30078 123.176 9.31641C123.442 8.83984 123.727 8.47266 124.032 8.21484C124.336 7.94922 124.622 7.75391 124.887 7.62891C125.2 7.48828 125.504 7.40234 125.801 7.37109C126.364 7.37109 126.864 7.48828 127.301 7.72266C127.739 7.95703 128.106 8.35938 128.403 8.92969C128.707 9.49219 128.938 10.2461 129.094 11.1914C129.25 12.1289 129.329 13.3047 129.329 14.7188C129.329 16.0234 129.204 17.1211 128.954 18.0117C128.711 18.8945 128.395 19.6094 128.004 20.1562C127.622 20.6953 127.192 21.082 126.715 21.3164C126.247 21.5586 125.782 21.6797 125.321 21.6797C125.274 21.6797 125.168 21.668 125.004 21.6445C124.848 21.6289 124.657 21.5703 124.43 21.4688C124.204 21.375 123.961 21.2305 123.704 21.0352C123.446 20.8398 123.2 20.5664 122.965 20.2148V21.5039L120.329 21.457C120.399 20.3164 120.446 19.1797 120.469 18.0469C120.5 16.9141 120.516 15.7812 120.516 14.6484C120.516 12.7422 120.485 10.8516 120.422 8.97656C120.36 7.09375 120.286 5.19922 120.2 3.29297L123.61 3.24609ZM124.454 19.5117C124.493 19.5273 124.532 19.5352 124.571 19.5352C124.618 19.5352 124.665 19.5352 124.711 19.5352C124.922 19.5352 125.141 19.4648 125.368 19.3242C125.602 19.1758 125.813 18.918 126 18.5508C126.188 18.1836 126.344 17.6875 126.469 17.0625C126.594 16.4297 126.657 15.625 126.657 14.6484C126.657 13.7734 126.614 13.0469 126.528 12.4688C126.45 11.8828 126.34 11.4141 126.2 11.0625C126.059 10.7109 125.895 10.4648 125.707 10.3242C125.52 10.1758 125.325 10.1016 125.122 10.1016C124.911 10.1016 124.715 10.1602 124.536 10.2773C124.364 10.3867 124.207 10.5352 124.067 10.7227C123.926 10.9023 123.797 11.1094 123.68 11.3438C123.571 11.5781 123.473 11.8125 123.387 12.0469C123.301 12.2734 123.227 12.4961 123.165 12.7148C123.11 12.9258 123.067 13.1055 123.036 13.2539C122.989 14.793 122.965 16.3203 122.965 17.8359C123.145 18.2109 123.325 18.5078 123.504 18.7266C123.684 18.9453 123.844 19.1133 123.985 19.2305C124.149 19.3711 124.305 19.4648 124.454 19.5117Z"/>
</mask>
<path d="M3 4.20703C3.92188 4.18359 4.80859 4.16016 5.66016 4.13672C6.01953 4.12891 6.39062 4.12109 6.77344 4.11328C7.16406 4.09766 7.53906 4.08594 7.89844 4.07812C8.26562 4.07031 8.60938 4.06641 8.92969 4.06641C9.25781 4.05859 9.54297 4.05469 9.78516 4.05469C10.0273 4.05469 10.2188 4.05469 10.3594 4.05469C10.5078 4.05469 10.582 4.0625 10.582 4.07812C10.582 4.09375 10.582 4.14453 10.582 4.23047C10.5898 4.31641 10.5938 4.42188 10.5938 4.54688C10.6016 4.67188 10.6055 4.8125 10.6055 4.96875C10.6133 5.125 10.6211 5.28516 10.6289 5.44922C10.6445 5.82422 10.6602 6.25 10.6758 6.72656C10.4336 7.29688 10.1836 7.96875 9.92578 8.74219C9.67578 9.51562 9.42969 10.3398 9.1875 11.2148C8.94531 12.082 8.71094 12.9766 8.48438 13.8984C8.25781 14.8125 8.05078 15.7031 7.86328 16.5703C7.68359 17.4375 7.52734 18.2539 7.39453 19.0195C7.26172 19.7852 7.16406 20.4453 7.10156 21L4.125 20.8828C4.21094 20.25 4.32812 19.5586 4.47656 18.8086C4.63281 18.0586 4.80859 17.2812 5.00391 16.4766C5.20703 15.6719 5.42969 14.8516 5.67188 14.0156C5.91406 13.1719 6.16406 12.3398 6.42188 11.5195C6.6875 10.6914 6.95703 9.88672 7.23047 9.10547C7.51172 8.32422 7.78906 7.58594 8.0625 6.89062L3 7.05469V4.20703Z" fill="white"/>
<path d="M15.9952 10.582C15.9952 10.793 15.9522 10.9922 15.8663 11.1797C15.7881 11.3672 15.6788 11.5312 15.5381 11.6719C15.4053 11.8047 15.2452 11.9141 15.0577 12C14.8702 12.0781 14.6709 12.1172 14.46 12.1172C14.2413 12.1172 14.0381 12.0781 13.8506 12C13.6631 11.9141 13.4991 11.8047 13.3584 11.6719C13.2178 11.5312 13.1045 11.3672 13.0186 11.1797C12.9405 10.9922 12.9014 10.793 12.9014 10.582C12.9014 10.3711 12.9405 10.1719 13.0186 9.98438C13.1045 9.78906 13.2178 9.62109 13.3584 9.48047C13.4991 9.33984 13.6631 9.23047 13.8506 9.15234C14.0381 9.06641 14.2413 9.02344 14.46 9.02344C14.6709 9.02344 14.8702 9.06641 15.0577 9.15234C15.2452 9.23047 15.4053 9.33984 15.5381 9.48047C15.6788 9.62109 15.7881 9.78906 15.8663 9.98438C15.9522 10.1719 15.9952 10.3711 15.9952 10.582ZM15.9952 19.7812C15.9952 19.9922 15.9522 20.1914 15.8663 20.3789C15.7881 20.5586 15.6788 20.7188 15.5381 20.8594C15.4053 21 15.2452 21.1094 15.0577 21.1875C14.8702 21.2734 14.6709 21.3164 14.46 21.3164C14.2413 21.3164 14.0381 21.2734 13.8506 21.1875C13.6631 21.1094 13.4991 21 13.3584 20.8594C13.2178 20.7188 13.1045 20.5586 13.0186 20.3789C12.9405 20.1914 12.9014 19.9922 12.9014 19.7812C12.9014 19.5625 12.9405 19.3594 13.0186 19.1719C13.1045 18.9844 13.2178 18.8203 13.3584 18.6797C13.4991 18.5391 13.6631 18.4297 13.8506 18.3516C14.0381 18.2656 14.2413 18.2227 14.46 18.2227C14.6709 18.2227 14.8702 18.2656 15.0577 18.3516C15.2452 18.4297 15.4053 18.5391 15.5381 18.6797C15.6788 18.8203 15.7881 18.9844 15.8663 19.1719C15.9522 19.3594 15.9952 19.5625 15.9952 19.7812Z" fill="white"/>
<path d="M41.0705 3.67969C41.0314 4.3125 40.9963 4.97266 40.965 5.66016C40.9416 6.33984 40.9181 7.02344 40.8947 7.71094C40.8791 8.39844 40.8634 9.07422 40.8478 9.73828C40.84 10.4023 40.8322 11.0273 40.8244 11.6133C40.8166 12.1992 40.8127 12.7344 40.8127 13.2188C40.8127 13.7031 40.8127 14.1133 40.8127 14.4492C40.8127 14.8867 40.8127 15.3711 40.8127 15.9023C40.8127 16.4336 40.8166 16.9805 40.8244 17.543C40.8322 18.1055 40.84 18.6719 40.8478 19.2422C40.8634 19.8047 40.883 20.3359 40.9064 20.8359C40.5705 20.8203 40.2619 20.8125 39.9806 20.8125C39.7072 20.8125 39.4572 20.8125 39.2306 20.8125C38.8244 20.8125 38.4884 20.8164 38.2228 20.8242C37.9572 20.832 37.7463 20.8438 37.59 20.8594C37.4025 20.875 37.258 20.8906 37.1564 20.9062C37.133 20.7422 37.0822 20.4883 37.0041 20.1445C36.9338 19.793 36.84 19.3789 36.7228 18.9023C36.6134 18.4258 36.4845 17.8984 36.3361 17.3203C36.1877 16.7422 36.0275 16.1406 35.8556 15.5156C35.6916 14.8906 35.5197 14.2578 35.34 13.6172C35.1603 12.9688 34.9806 12.3398 34.8009 11.7305C34.6291 11.1133 34.4572 10.5312 34.2853 9.98438C34.1213 9.42969 33.9689 8.93359 33.8283 8.49609C33.7658 9.49609 33.7189 10.4219 33.6877 11.2734C33.6564 12.1172 33.633 12.8555 33.6173 13.4883C33.5939 14.2227 33.5822 14.8945 33.5822 15.5039C33.5822 16.0273 33.5939 16.582 33.6173 17.168C33.633 17.668 33.6603 18.2383 33.6994 18.8789C33.7463 19.5195 33.8127 20.1719 33.8986 20.8359C33.297 20.8125 32.8009 20.8008 32.4103 20.8008C32.0275 20.793 31.7228 20.7891 31.4963 20.7891H30.922C30.9611 19.3906 30.9923 18.2031 31.0158 17.2266C31.0392 16.25 31.0548 15.4336 31.0627 14.7773C31.0783 14.1133 31.0861 13.582 31.0861 13.1836C31.0939 12.7852 31.0978 12.4648 31.0978 12.2227C31.0978 11.9727 31.0939 11.7734 31.0861 11.625C31.0861 11.4766 31.0861 11.3242 31.0861 11.168C31.0861 10.7773 31.0822 10.3125 31.0744 9.77344C31.0744 9.23438 31.0666 8.65625 31.0509 8.03906C31.0353 7.41406 31.0119 6.76562 30.9806 6.09375C30.9494 5.42188 30.9064 4.75781 30.8517 4.10156C31.6486 4.10156 32.3048 4.09375 32.8205 4.07812C33.3361 4.0625 33.7463 4.04688 34.0509 4.03125C34.4103 4.00781 34.6877 3.98438 34.883 3.96094C34.922 4.21094 35.0002 4.60156 35.1173 5.13281C35.2423 5.66406 35.3869 6.28125 35.5509 6.98438C35.7228 7.67969 35.9142 8.43359 36.1252 9.24609C36.3361 10.0586 36.5509 10.8789 36.7697 11.707C36.9963 12.5273 37.2228 13.3281 37.4494 14.1094C37.6759 14.8828 37.8908 15.582 38.0939 16.207C38.133 15.543 38.1603 14.8672 38.1759 14.1797C38.1994 13.4844 38.215 12.8359 38.2228 12.2344C38.2384 11.6328 38.2463 11.1094 38.2463 10.6641C38.2463 10.2109 38.2463 9.89844 38.2463 9.72656C38.2384 9.01562 38.2228 8.30469 38.1994 7.59375C38.1916 7.28906 38.1798 6.97266 38.1642 6.64453C38.1486 6.31641 38.1291 5.98828 38.1056 5.66016C38.09 5.32422 38.0666 4.99609 38.0353 4.67578C38.0119 4.35547 37.9845 4.05469 37.9533 3.77344L41.0705 3.67969Z" fill="white"/>
<path d="M49.3078 21.3633C49.2609 21.1211 49.218 20.875 49.1789 20.625C49.1398 20.375 49.1086 20.1172 49.0852 19.8516C48.7258 20.3828 48.2961 20.7891 47.7961 21.0703C47.2961 21.3594 46.7492 21.5039 46.1555 21.5039C45.8508 21.5039 45.5383 21.4531 45.218 21.3516C44.8977 21.2578 44.6047 21.0898 44.3391 20.8477C44.0812 20.6055 43.8664 20.2773 43.6945 19.8633C43.5305 19.4414 43.4484 18.9102 43.4484 18.2695C43.4484 17.7383 43.5266 17.2773 43.6828 16.8867C43.8391 16.4883 44.0422 16.1406 44.2922 15.8438C44.5422 15.5469 44.8234 15.2891 45.1359 15.0703C45.4484 14.8516 45.757 14.6562 46.0617 14.4844C46.3742 14.3125 46.6711 14.1523 46.9523 14.0039C47.2336 13.8555 47.4641 13.707 47.6437 13.5586C47.9875 13.2852 48.2844 12.9961 48.5344 12.6914C48.7922 12.3789 48.9992 12.0547 49.1555 11.7188C49.1242 11.1797 49.0656 10.7383 48.9797 10.3945C48.9016 10.043 48.7961 9.76562 48.6633 9.5625C48.5305 9.35156 48.3664 9.20703 48.1711 9.12891C47.9836 9.04297 47.7687 9 47.5266 9C47.1672 9 46.8625 9.07812 46.6125 9.23438C46.3703 9.39062 46.1711 9.57812 46.0148 9.79688C46.2102 9.92188 46.3586 10.0547 46.4602 10.1953C46.5695 10.3359 46.6516 10.4727 46.7062 10.6055C46.7687 10.7539 46.8039 10.9062 46.8117 11.0625C46.8117 11.5938 46.6594 12 46.3547 12.2812C46.0578 12.5625 45.675 12.7031 45.2062 12.7031C44.9641 12.7031 44.7414 12.6484 44.5383 12.5391C44.3352 12.4219 44.1555 12.2617 43.9992 12.0586C43.8508 11.8555 43.7336 11.6133 43.6477 11.332C43.5617 11.0508 43.5187 10.7461 43.5187 10.418C43.5187 10.0898 43.593 9.74219 43.7414 9.375C43.8898 9.00781 44.1281 8.66797 44.4562 8.35547C44.7844 8.03516 45.2062 7.77344 45.7219 7.57031C46.2375 7.35938 46.8625 7.25391 47.5969 7.25391C48.3312 7.25391 48.9602 7.39844 49.4836 7.6875C50.007 7.96875 50.4367 8.34766 50.7727 8.82422C51.1086 9.29297 51.3508 9.83594 51.4992 10.4531C51.6555 11.0703 51.7336 11.707 51.7336 12.3633C51.7336 12.8555 51.7297 13.3906 51.7219 13.9688C51.7141 14.5469 51.7102 15.1406 51.7102 15.75C51.7102 16.2578 51.7141 16.7656 51.7219 17.2734C51.7297 17.7812 51.7453 18.2734 51.7687 18.75C51.7922 19.2188 51.8234 19.6641 51.8625 20.0859C51.9016 20.5 51.9523 20.8711 52.0148 21.1992L49.3078 21.3633ZM49.132 14.4961C48.8586 14.8242 48.5656 15.1055 48.2531 15.3398C48.0187 15.5039 47.7648 15.6875 47.4914 15.8906C47.2258 16.0938 46.9758 16.3086 46.7414 16.5352C46.5148 16.7617 46.3234 17 46.1672 17.25C46.0187 17.4922 45.9445 17.7422 45.9445 18C45.9445 18.3516 46.0305 18.6523 46.2023 18.9023C46.3742 19.1523 46.6164 19.2773 46.9289 19.2773C47.218 19.2773 47.4758 19.1992 47.7023 19.043C47.9289 18.8867 48.1281 18.6953 48.3 18.4688C48.4797 18.2344 48.6281 17.9844 48.7453 17.7188C48.8703 17.4531 48.968 17.2109 49.0383 16.9922L49.132 14.4961Z" fill="white"/>
<path d="M62.9944 10.9219C62.9944 11.4609 62.9202 11.8906 62.7717 12.2109C62.6311 12.5234 62.4592 12.7617 62.2561 12.9258C62.0608 13.082 61.8577 13.1836 61.6467 13.2305C61.4436 13.2773 61.2756 13.3008 61.1428 13.3008C61.01 13.3008 60.8498 13.2812 60.6623 13.2422C60.4748 13.1953 60.2912 13.1094 60.1116 12.9844C59.9397 12.8516 59.7912 12.668 59.6662 12.4336C59.5491 12.1914 59.4905 11.8789 59.4905 11.4961C59.4983 11.2852 59.5373 11.0781 59.6077 10.875C59.6702 10.7031 59.7639 10.5273 59.8889 10.3477C60.0139 10.168 60.1936 10.0156 60.428 9.89062C60.2952 9.59375 60.1467 9.36719 59.9827 9.21094C59.8264 9.05469 59.6741 8.9375 59.5256 8.85938C59.3537 8.77344 59.1819 8.71875 59.01 8.69531C58.7209 8.69531 58.4592 8.82812 58.2248 9.09375C57.9905 9.35938 57.7912 9.73438 57.6272 10.2188C57.4631 10.6953 57.3342 11.2695 57.2405 11.9414C57.1545 12.6133 57.1116 13.3555 57.1116 14.168C57.1116 14.9727 57.1389 15.7266 57.1936 16.4297C57.2561 17.125 57.3537 17.7344 57.4866 18.2578C57.6194 18.7734 57.7991 19.1797 58.0256 19.4766C58.2522 19.7734 58.5334 19.9219 58.8694 19.9219C59.0491 19.9141 59.2287 19.8711 59.4084 19.793C59.5647 19.7305 59.7287 19.6289 59.9006 19.4883C60.0803 19.3398 60.2405 19.1328 60.3811 18.8672C60.1077 18.7344 59.8967 18.5742 59.7483 18.3867C59.6077 18.1914 59.5061 18.0039 59.4436 17.8242C59.3655 17.6133 59.3225 17.3945 59.3147 17.168C59.3147 16.793 59.3889 16.4883 59.5373 16.2539C59.6858 16.0195 59.8616 15.8359 60.0647 15.7031C60.2678 15.5625 60.4748 15.4688 60.6858 15.4219C60.8967 15.3672 61.0647 15.3398 61.1897 15.3398C61.3225 15.3398 61.4866 15.3672 61.6819 15.4219C61.8772 15.4766 62.0647 15.582 62.2444 15.7383C62.4241 15.8945 62.5764 16.1172 62.7014 16.4062C62.8342 16.6875 62.9006 17.0586 62.9006 17.5195C62.9006 17.9805 62.7873 18.457 62.5608 18.9492C62.342 19.4414 62.0412 19.8906 61.6584 20.2969C61.2834 20.7031 60.8459 21.0352 60.3459 21.293C59.8537 21.5508 59.3342 21.6797 58.7873 21.6797C58.4202 21.6797 58.0491 21.6289 57.6741 21.5273C57.2991 21.4258 56.9397 21.2578 56.5959 21.0234C56.2522 20.7891 55.928 20.4805 55.6233 20.0977C55.3186 19.7148 55.053 19.2461 54.8264 18.6914C54.6077 18.1367 54.4319 17.4883 54.2991 16.7461C54.1741 15.9961 54.1116 15.1367 54.1116 14.168C54.1116 13.1992 54.1819 12.3516 54.3225 11.625C54.4631 10.8906 54.6545 10.2617 54.8967 9.73828C55.1467 9.21484 55.4319 8.78125 55.7522 8.4375C56.0725 8.09375 56.4123 7.82031 56.7717 7.61719C57.1389 7.41406 57.5139 7.27344 57.8967 7.19531C58.2795 7.11719 58.6506 7.07812 59.01 7.07812C59.5412 7.07812 60.0491 7.17969 60.5334 7.38281C61.0178 7.57812 61.4397 7.85156 61.7991 8.20312C62.1662 8.54688 62.4553 8.95312 62.6662 9.42188C62.885 9.89062 62.9944 10.3906 62.9944 10.9219Z" fill="white"/>
<path d="M68.2552 3.04688C68.1927 4.0625 68.1341 5.07031 68.0794 6.07031C68.0247 7.07031 67.9778 8.07812 67.9388 9.09375C68.2122 8.57812 68.5169 8.17969 68.8528 7.89844C69.1888 7.60938 69.5052 7.39844 69.802 7.26562C70.1458 7.10938 70.4934 7.01562 70.845 6.98438C71.4075 6.98438 71.888 7.12109 72.2864 7.39453C72.6848 7.66797 73.013 8.05859 73.2708 8.56641C73.5286 9.07422 73.7161 9.6875 73.8333 10.4062C73.9505 11.1172 74.0091 11.9141 74.0091 12.7969C74.0091 14.2734 73.9583 15.7031 73.8567 17.0859C73.763 18.4609 73.5598 19.8047 73.2473 21.1172L70.5052 20.7891C70.6848 19.8594 70.8216 18.9922 70.9153 18.1875C71.0169 17.3828 71.0911 16.6797 71.138 16.0781C71.1927 15.375 71.2239 14.7305 71.2317 14.1445C71.2317 13.4023 71.22 12.7578 71.1966 12.2109C71.1809 11.6562 71.1263 11.1992 71.0325 10.8398C70.9466 10.4727 70.8098 10.1992 70.6223 10.0195C70.4348 9.83984 70.1731 9.75 69.8372 9.75C69.5794 9.78906 69.3255 9.94531 69.0755 10.2188C68.9661 10.3359 68.8567 10.4844 68.7473 10.6641C68.638 10.8438 68.5247 11.0664 68.4075 11.332C68.2981 11.5898 68.1927 11.8945 68.0911 12.2461C67.9895 12.5977 67.8997 13.0039 67.8216 13.4648C67.7981 14.2617 67.7825 15.0547 67.7747 15.8438C67.7747 16.6328 67.7747 17.418 67.7747 18.1992C67.7747 18.6914 67.7747 19.1875 67.7747 19.6875C67.7747 20.1875 67.7825 20.6836 67.7981 21.1758L65.138 21.1172C65.2239 19.6875 65.2864 18.2578 65.3255 16.8281C65.3723 15.3984 65.3958 13.957 65.3958 12.5039C65.3958 10.9102 65.3684 9.32812 65.3138 7.75781C65.2591 6.17969 65.1809 4.59375 65.0794 3L68.2552 3.04688Z" fill="white"/>
<path d="M84.6136 10.3242C84.6136 10.6836 84.5472 10.9883 84.4144 11.2383C84.2816 11.4883 84.1214 11.6914 83.9339 11.8477C83.7464 12.0039 83.5511 12.1172 83.348 12.1875C83.1448 12.2578 82.973 12.293 82.8323 12.293C82.6917 12.293 82.5238 12.2695 82.3284 12.2227C82.1331 12.168 81.9456 12.0742 81.7659 11.9414C81.5941 11.8086 81.4456 11.6328 81.3206 11.4141C81.1956 11.1875 81.1331 10.9023 81.1331 10.5586C81.1409 10.3711 81.1761 10.1875 81.2386 10.0078C81.2933 9.85156 81.3753 9.69141 81.4847 9.52734C81.6019 9.35547 81.7659 9.20312 81.9769 9.07031C81.8363 8.86719 81.6956 8.71094 81.555 8.60156C81.4144 8.49219 81.2894 8.41016 81.18 8.35547C81.0472 8.29297 80.9261 8.25391 80.8167 8.23828C80.5745 8.23828 80.3558 8.28906 80.1605 8.39062C79.9652 8.48438 79.7972 8.61328 79.6566 8.77734C79.5238 8.93359 79.4183 9.11719 79.3402 9.32812C79.2698 9.53906 79.2347 9.75781 79.2347 9.98438C79.2347 10.2734 79.2542 10.5352 79.2933 10.7695C79.3323 11.0039 79.4222 11.2422 79.5628 11.4844C79.7034 11.7266 79.9144 11.9883 80.1956 12.2695C80.4769 12.5508 80.8597 12.8789 81.3441 13.2539C81.8284 13.6289 82.2503 13.9961 82.6097 14.3555C82.9691 14.707 83.2659 15.0547 83.5003 15.3984C83.7347 15.7422 83.9105 16.0898 84.0277 16.4414C84.1448 16.7852 84.2034 17.1445 84.2034 17.5195C84.2034 17.7695 84.1761 18.043 84.1214 18.3398C84.0745 18.6289 83.9886 18.9258 83.8636 19.2305C83.7464 19.5273 83.5863 19.8164 83.3831 20.0977C83.1878 20.3711 82.9417 20.6172 82.6448 20.8359C82.3558 21.0547 82.012 21.2266 81.6136 21.3516C81.223 21.4844 80.7738 21.5508 80.2659 21.5508C79.5003 21.5508 78.848 21.4375 78.3089 21.2109C77.7698 20.9844 77.3245 20.7109 76.973 20.3906C76.6292 20.0625 76.3753 19.7188 76.2113 19.3594C76.055 19 75.9769 18.6836 75.9769 18.4102C75.9769 18.1211 76.012 17.8516 76.0823 17.6016C76.1527 17.3516 76.262 17.1328 76.4105 16.9453C76.5667 16.7578 76.762 16.6133 76.9964 16.5117C77.2386 16.4023 77.5277 16.3477 77.8636 16.3477C78.1448 16.3477 78.3988 16.3906 78.6253 16.4766C78.8597 16.5625 79.0589 16.6914 79.223 16.8633C79.3948 17.0273 79.5277 17.2305 79.6214 17.4727C79.7152 17.7148 79.762 17.9883 79.762 18.293C79.7542 18.4258 79.7269 18.5625 79.68 18.7031C79.6409 18.8203 79.5745 18.9492 79.4808 19.0898C79.387 19.2305 79.2581 19.3633 79.0941 19.4883C79.2034 19.5742 79.3089 19.6406 79.4105 19.6875C79.5198 19.7266 79.6175 19.7539 79.7034 19.7695C79.7972 19.793 79.8909 19.8047 79.9847 19.8047C80.0863 19.8047 80.2034 19.7773 80.3363 19.7227C80.4769 19.6602 80.6097 19.5664 80.7347 19.4414C80.8597 19.3164 80.9652 19.1641 81.0511 18.9844C81.137 18.8047 81.18 18.5898 81.18 18.3398C81.18 18.0898 81.1566 17.8633 81.1097 17.6602C81.0706 17.4492 80.9808 17.2344 80.8402 17.0156C80.7073 16.7891 80.512 16.543 80.2542 16.2773C79.9964 16.0117 79.6566 15.6914 79.2347 15.3164C78.8128 14.9414 78.4378 14.5781 78.1097 14.2266C77.7816 13.8672 77.5042 13.4961 77.2777 13.1133C77.0589 12.7305 76.8909 12.3281 76.7738 11.9062C76.6566 11.4844 76.598 11.0195 76.598 10.5117C76.598 10.0117 76.6956 9.52734 76.8909 9.05859C77.0941 8.58984 77.3792 8.17578 77.7464 7.81641C78.1136 7.44922 78.5589 7.16016 79.0823 6.94922C79.6058 6.73047 80.1917 6.62109 80.8402 6.62109C81.4964 6.62109 82.0628 6.72266 82.5394 6.92578C83.0159 7.12891 83.4066 7.40234 83.7113 7.74609C84.0159 8.08203 84.2425 8.47266 84.3909 8.91797C84.5394 9.36328 84.6136 9.83203 84.6136 10.3242Z" fill="white"/>
<path d="M95.3587 10.9219C95.3587 11.4609 95.2845 11.8906 95.1361 12.2109C94.9955 12.5234 94.8236 12.7617 94.6205 12.9258C94.4252 13.082 94.222 13.1836 94.0111 13.2305C93.808 13.2773 93.64 13.3008 93.5072 13.3008C93.3744 13.3008 93.2142 13.2812 93.0267 13.2422C92.8392 13.1953 92.6556 13.1094 92.4759 12.9844C92.3041 12.8516 92.1556 12.668 92.0306 12.4336C91.9134 12.1914 91.8548 11.8789 91.8548 11.4961C91.8627 11.2852 91.9017 11.0781 91.972 10.875C92.0345 10.7031 92.1283 10.5273 92.2533 10.3477C92.3783 10.168 92.558 10.0156 92.7923 9.89062C92.6595 9.59375 92.5111 9.36719 92.347 9.21094C92.1908 9.05469 92.0384 8.9375 91.89 8.85938C91.7181 8.77344 91.5462 8.71875 91.3744 8.69531C91.0853 8.69531 90.8236 8.82812 90.5892 9.09375C90.3548 9.35938 90.1556 9.73438 89.9916 10.2188C89.8275 10.6953 89.6986 11.2695 89.6048 11.9414C89.5189 12.6133 89.4759 13.3555 89.4759 14.168C89.4759 14.9727 89.5033 15.7266 89.558 16.4297C89.6205 17.125 89.7181 17.7344 89.8509 18.2578C89.9837 18.7734 90.1634 19.1797 90.39 19.4766C90.6166 19.7734 90.8978 19.9219 91.2337 19.9219C91.4134 19.9141 91.5931 19.8711 91.7728 19.793C91.9291 19.7305 92.0931 19.6289 92.265 19.4883C92.4447 19.3398 92.6048 19.1328 92.7455 18.8672C92.472 18.7344 92.2611 18.5742 92.1127 18.3867C91.972 18.1914 91.8705 18.0039 91.808 17.8242C91.7298 17.6133 91.6869 17.3945 91.6791 17.168C91.6791 16.793 91.7533 16.4883 91.9017 16.2539C92.0502 16.0195 92.2259 15.8359 92.4291 15.7031C92.6322 15.5625 92.8392 15.4688 93.0502 15.4219C93.2611 15.3672 93.4291 15.3398 93.5541 15.3398C93.6869 15.3398 93.8509 15.3672 94.0462 15.4219C94.2416 15.4766 94.4291 15.582 94.6087 15.7383C94.7884 15.8945 94.9408 16.1172 95.0658 16.4062C95.1986 16.6875 95.265 17.0586 95.265 17.5195C95.265 17.9805 95.1517 18.457 94.9252 18.9492C94.7064 19.4414 94.4056 19.8906 94.0228 20.2969C93.6478 20.7031 93.2103 21.0352 92.7103 21.293C92.2181 21.5508 91.6986 21.6797 91.1517 21.6797C90.7845 21.6797 90.4134 21.6289 90.0384 21.5273C89.6634 21.4258 89.3041 21.2578 88.9603 21.0234C88.6166 20.7891 88.2923 20.4805 87.9877 20.0977C87.683 19.7148 87.4173 19.2461 87.1908 18.6914C86.972 18.1367 86.7962 17.4883 86.6634 16.7461C86.5384 15.9961 86.4759 15.1367 86.4759 14.168C86.4759 13.1992 86.5462 12.3516 86.6869 11.625C86.8275 10.8906 87.0189 10.2617 87.2611 9.73828C87.5111 9.21484 87.7962 8.78125 88.1166 8.4375C88.4369 8.09375 88.7767 7.82031 89.1361 7.61719C89.5033 7.41406 89.8783 7.27344 90.2611 7.19531C90.6439 7.11719 91.015 7.07812 91.3744 7.07812C91.9056 7.07812 92.4134 7.17969 92.8978 7.38281C93.3822 7.57812 93.8041 7.85156 94.1634 8.20312C94.5306 8.54688 94.8197 8.95312 95.0306 9.42188C95.2494 9.89062 95.3587 10.3906 95.3587 10.9219Z" fill="white"/>
<path d="M100.62 3.04688C100.557 4.0625 100.498 5.07031 100.444 6.07031C100.389 7.07031 100.342 8.07812 100.303 9.09375C100.577 8.57812 100.881 8.17969 101.217 7.89844C101.553 7.60938 101.87 7.39844 102.166 7.26562C102.51 7.10938 102.858 7.01562 103.209 6.98438C103.772 6.98438 104.252 7.12109 104.651 7.39453C105.049 7.66797 105.377 8.05859 105.635 8.56641C105.893 9.07422 106.08 9.6875 106.198 10.4062C106.315 11.1172 106.373 11.9141 106.373 12.7969C106.373 14.2734 106.323 15.7031 106.221 17.0859C106.127 18.4609 105.924 19.8047 105.612 21.1172L102.87 20.7891C103.049 19.8594 103.186 18.9922 103.28 18.1875C103.381 17.3828 103.455 16.6797 103.502 16.0781C103.557 15.375 103.588 14.7305 103.596 14.1445C103.596 13.4023 103.584 12.7578 103.561 12.2109C103.545 11.6562 103.491 11.1992 103.397 10.8398C103.311 10.4727 103.174 10.1992 102.987 10.0195C102.799 9.83984 102.537 9.75 102.202 9.75C101.944 9.78906 101.69 9.94531 101.44 10.2188C101.33 10.3359 101.221 10.4844 101.112 10.6641C101.002 10.8438 100.889 11.0664 100.772 11.332C100.662 11.5898 100.557 11.8945 100.455 12.2461C100.354 12.5977 100.264 13.0039 100.186 13.4648C100.162 14.2617 100.147 15.0547 100.139 15.8438C100.139 16.6328 100.139 17.418 100.139 18.1992C100.139 18.6914 100.139 19.1875 100.139 19.6875C100.139 20.1875 100.147 20.6836 100.162 21.1758L97.5023 21.1172C97.5883 19.6875 97.6508 18.2578 97.6898 16.8281C97.7367 15.3984 97.7602 13.957 97.7602 12.5039C97.7602 10.9102 97.7328 9.32812 97.6781 7.75781C97.6234 6.17969 97.5453 4.59375 97.4437 3L100.62 3.04688Z" fill="white"/>
<path d="M114.646 21C114.662 20.6875 114.677 20.3906 114.693 20.1094C114.716 19.8203 114.74 19.543 114.763 19.2773C114.497 19.7461 114.212 20.1055 113.908 20.3555C113.611 20.6055 113.333 20.793 113.076 20.918C112.771 21.0586 112.47 21.1445 112.173 21.1758C111.595 21.1758 111.091 21.0312 110.662 20.7422C110.232 20.4531 109.876 20.043 109.595 19.5117C109.314 18.9805 109.103 18.3438 108.962 17.6016C108.83 16.8516 108.763 16.0156 108.763 15.0938C108.763 13.8047 108.802 12.5547 108.88 11.3438C108.966 10.1328 109.103 8.94531 109.29 7.78125L112.267 8.10938C112.08 9.03906 111.935 9.87109 111.833 10.6055C111.74 11.332 111.669 11.9531 111.622 12.4688C111.568 13.0703 111.537 13.5938 111.529 14.0391C111.529 14.7812 111.552 15.4297 111.599 15.9844C111.646 16.5312 111.728 16.9883 111.845 17.3555C111.97 17.7148 112.138 17.9844 112.349 18.1641C112.56 18.3438 112.83 18.4336 113.158 18.4336C113.384 18.3945 113.607 18.2383 113.826 17.9648C113.919 17.8477 114.017 17.6992 114.119 17.5195C114.22 17.332 114.322 17.1055 114.423 16.8398C114.525 16.5742 114.622 16.2617 114.716 15.9023C114.81 15.543 114.9 15.125 114.986 14.6484C115.001 14.1875 115.009 13.7305 115.009 13.2773C115.009 12.8164 115.009 12.3203 115.009 11.7891C115.009 11.2266 115.009 10.6133 115.009 9.94922C115.009 9.28516 115.001 8.53906 114.986 7.71094L117.646 7.75781C117.607 8.35156 117.576 8.90234 117.552 9.41016C117.529 9.91016 117.509 10.3828 117.494 10.8281C117.486 11.2656 117.478 11.6797 117.47 12.0703C117.462 12.4609 117.458 12.8398 117.458 13.207C117.458 13.7695 117.462 14.3203 117.47 14.8594C117.486 15.3984 117.505 15.9727 117.529 16.582C117.552 17.1836 117.576 17.8477 117.599 18.5742C117.63 19.293 117.662 20.1172 117.693 21.0469L114.646 21Z" fill="white"/>
<path d="M123.61 3.24609C123.516 4.26953 123.434 5.28516 123.364 6.29297C123.293 7.29297 123.231 8.30078 123.176 9.31641C123.442 8.83984 123.727 8.47266 124.032 8.21484C124.336 7.94922 124.622 7.75391 124.887 7.62891C125.2 7.48828 125.504 7.40234 125.801 7.37109C126.364 7.37109 126.864 7.48828 127.301 7.72266C127.739 7.95703 128.106 8.35938 128.403 8.92969C128.707 9.49219 128.938 10.2461 129.094 11.1914C129.25 12.1289 129.329 13.3047 129.329 14.7188C129.329 16.0234 129.204 17.1211 128.954 18.0117C128.711 18.8945 128.395 19.6094 128.004 20.1562C127.622 20.6953 127.192 21.082 126.715 21.3164C126.247 21.5586 125.782 21.6797 125.321 21.6797C125.274 21.6797 125.168 21.668 125.004 21.6445C124.848 21.6289 124.657 21.5703 124.43 21.4688C124.204 21.375 123.961 21.2305 123.704 21.0352C123.446 20.8398 123.2 20.5664 122.965 20.2148V21.5039L120.329 21.457C120.399 20.3164 120.446 19.1797 120.469 18.0469C120.5 16.9141 120.516 15.7812 120.516 14.6484C120.516 12.7422 120.485 10.8516 120.422 8.97656C120.36 7.09375 120.286 5.19922 120.2 3.29297L123.61 3.24609ZM124.454 19.5117C124.493 19.5273 124.532 19.5352 124.571 19.5352C124.618 19.5352 124.665 19.5352 124.711 19.5352C124.922 19.5352 125.141 19.4648 125.368 19.3242C125.602 19.1758 125.813 18.918 126 18.5508C126.188 18.1836 126.344 17.6875 126.469 17.0625C126.594 16.4297 126.657 15.625 126.657 14.6484C126.657 13.7734 126.614 13.0469 126.528 12.4688C126.45 11.8828 126.34 11.4141 126.2 11.0625C126.059 10.7109 125.895 10.4648 125.707 10.3242C125.52 10.1758 125.325 10.1016 125.122 10.1016C124.911 10.1016 124.715 10.1602 124.536 10.2773C124.364 10.3867 124.207 10.5352 124.067 10.7227C123.926 10.9023 123.797 11.1094 123.68 11.3438C123.571 11.5781 123.473 11.8125 123.387 12.0469C123.301 12.2734 123.227 12.4961 123.165 12.7148C123.11 12.9258 123.067 13.1055 123.036 13.2539C122.989 14.793 122.965 16.3203 122.965 17.8359C123.145 18.2109 123.325 18.5078 123.504 18.7266C123.684 18.9453 123.844 19.1133 123.985 19.2305C124.149 19.3711 124.305 19.4648 124.454 19.5117Z" fill="white"/>
<path d="M3 4.20703C3.92188 4.18359 4.80859 4.16016 5.66016 4.13672C6.01953 4.12891 6.39062 4.12109 6.77344 4.11328C7.16406 4.09766 7.53906 4.08594 7.89844 4.07812C8.26562 4.07031 8.60938 4.06641 8.92969 4.06641C9.25781 4.05859 9.54297 4.05469 9.78516 4.05469C10.0273 4.05469 10.2188 4.05469 10.3594 4.05469C10.5078 4.05469 10.582 4.0625 10.582 4.07812C10.582 4.09375 10.582 4.14453 10.582 4.23047C10.5898 4.31641 10.5938 4.42188 10.5938 4.54688C10.6016 4.67188 10.6055 4.8125 10.6055 4.96875C10.6133 5.125 10.6211 5.28516 10.6289 5.44922C10.6445 5.82422 10.6602 6.25 10.6758 6.72656C10.4336 7.29688 10.1836 7.96875 9.92578 8.74219C9.67578 9.51562 9.42969 10.3398 9.1875 11.2148C8.94531 12.082 8.71094 12.9766 8.48438 13.8984C8.25781 14.8125 8.05078 15.7031 7.86328 16.5703C7.68359 17.4375 7.52734 18.2539 7.39453 19.0195C7.26172 19.7852 7.16406 20.4453 7.10156 21L4.125 20.8828C4.21094 20.25 4.32812 19.5586 4.47656 18.8086C4.63281 18.0586 4.80859 17.2812 5.00391 16.4766C5.20703 15.6719 5.42969 14.8516 5.67188 14.0156C5.91406 13.1719 6.16406 12.3398 6.42188 11.5195C6.6875 10.6914 6.95703 9.88672 7.23047 9.10547C7.51172 8.32422 7.78906 7.58594 8.0625 6.89062L3 7.05469V4.20703Z" stroke="black" stroke-width="4.6425" mask="url(#path-1-outside-1_1592_9498)"/>
<path d="M15.9952 10.582C15.9952 10.793 15.9522 10.9922 15.8663 11.1797C15.7881 11.3672 15.6788 11.5312 15.5381 11.6719C15.4053 11.8047 15.2452 11.9141 15.0577 12C14.8702 12.0781 14.6709 12.1172 14.46 12.1172C14.2413 12.1172 14.0381 12.0781 13.8506 12C13.6631 11.9141 13.4991 11.8047 13.3584 11.6719C13.2178 11.5312 13.1045 11.3672 13.0186 11.1797C12.9405 10.9922 12.9014 10.793 12.9014 10.582C12.9014 10.3711 12.9405 10.1719 13.0186 9.98438C13.1045 9.78906 13.2178 9.62109 13.3584 9.48047C13.4991 9.33984 13.6631 9.23047 13.8506 9.15234C14.0381 9.06641 14.2413 9.02344 14.46 9.02344C14.6709 9.02344 14.8702 9.06641 15.0577 9.15234C15.2452 9.23047 15.4053 9.33984 15.5381 9.48047C15.6788 9.62109 15.7881 9.78906 15.8663 9.98438C15.9522 10.1719 15.9952 10.3711 15.9952 10.582ZM15.9952 19.7812C15.9952 19.9922 15.9522 20.1914 15.8663 20.3789C15.7881 20.5586 15.6788 20.7188 15.5381 20.8594C15.4053 21 15.2452 21.1094 15.0577 21.1875C14.8702 21.2734 14.6709 21.3164 14.46 21.3164C14.2413 21.3164 14.0381 21.2734 13.8506 21.1875C13.6631 21.1094 13.4991 21 13.3584 20.8594C13.2178 20.7188 13.1045 20.5586 13.0186 20.3789C12.9405 20.1914 12.9014 19.9922 12.9014 19.7812C12.9014 19.5625 12.9405 19.3594 13.0186 19.1719C13.1045 18.9844 13.2178 18.8203 13.3584 18.6797C13.4991 18.5391 13.6631 18.4297 13.8506 18.3516C14.0381 18.2656 14.2413 18.2227 14.46 18.2227C14.6709 18.2227 14.8702 18.2656 15.0577 18.3516C15.2452 18.4297 15.4053 18.5391 15.5381 18.6797C15.6788 18.8203 15.7881 18.9844 15.8663 19.1719C15.9522 19.3594 15.9952 19.5625 15.9952 19.7812Z" stroke="black" stroke-width="4.6425" mask="url(#path-1-outside-1_1592_9498)"/>
<path d="M41.0705 3.67969C41.0314 4.3125 40.9963 4.97266 40.965 5.66016C40.9416 6.33984 40.9181 7.02344 40.8947 7.71094C40.8791 8.39844 40.8634 9.07422 40.8478 9.73828C40.84 10.4023 40.8322 11.0273 40.8244 11.6133C40.8166 12.1992 40.8127 12.7344 40.8127 13.2188C40.8127 13.7031 40.8127 14.1133 40.8127 14.4492C40.8127 14.8867 40.8127 15.3711 40.8127 15.9023C40.8127 16.4336 40.8166 16.9805 40.8244 17.543C40.8322 18.1055 40.84 18.6719 40.8478 19.2422C40.8634 19.8047 40.883 20.3359 40.9064 20.8359C40.5705 20.8203 40.2619 20.8125 39.9806 20.8125C39.7072 20.8125 39.4572 20.8125 39.2306 20.8125C38.8244 20.8125 38.4884 20.8164 38.2228 20.8242C37.9572 20.832 37.7463 20.8438 37.59 20.8594C37.4025 20.875 37.258 20.8906 37.1564 20.9062C37.133 20.7422 37.0822 20.4883 37.0041 20.1445C36.9338 19.793 36.84 19.3789 36.7228 18.9023C36.6134 18.4258 36.4845 17.8984 36.3361 17.3203C36.1877 16.7422 36.0275 16.1406 35.8556 15.5156C35.6916 14.8906 35.5197 14.2578 35.34 13.6172C35.1603 12.9688 34.9806 12.3398 34.8009 11.7305C34.6291 11.1133 34.4572 10.5312 34.2853 9.98438C34.1213 9.42969 33.9689 8.93359 33.8283 8.49609C33.7658 9.49609 33.7189 10.4219 33.6877 11.2734C33.6564 12.1172 33.633 12.8555 33.6173 13.4883C33.5939 14.2227 33.5822 14.8945 33.5822 15.5039C33.5822 16.0273 33.5939 16.582 33.6173 17.168C33.633 17.668 33.6603 18.2383 33.6994 18.8789C33.7463 19.5195 33.8127 20.1719 33.8986 20.8359C33.297 20.8125 32.8009 20.8008 32.4103 20.8008C32.0275 20.793 31.7228 20.7891 31.4963 20.7891H30.922C30.9611 19.3906 30.9923 18.2031 31.0158 17.2266C31.0392 16.25 31.0548 15.4336 31.0627 14.7773C31.0783 14.1133 31.0861 13.582 31.0861 13.1836C31.0939 12.7852 31.0978 12.4648 31.0978 12.2227C31.0978 11.9727 31.0939 11.7734 31.0861 11.625C31.0861 11.4766 31.0861 11.3242 31.0861 11.168C31.0861 10.7773 31.0822 10.3125 31.0744 9.77344C31.0744 9.23438 31.0666 8.65625 31.0509 8.03906C31.0353 7.41406 31.0119 6.76562 30.9806 6.09375C30.9494 5.42188 30.9064 4.75781 30.8517 4.10156C31.6486 4.10156 32.3048 4.09375 32.8205 4.07812C33.3361 4.0625 33.7463 4.04688 34.0509 4.03125C34.4103 4.00781 34.6877 3.98438 34.883 3.96094C34.922 4.21094 35.0002 4.60156 35.1173 5.13281C35.2423 5.66406 35.3869 6.28125 35.5509 6.98438C35.7228 7.67969 35.9142 8.43359 36.1252 9.24609C36.3361 10.0586 36.5509 10.8789 36.7697 11.707C36.9963 12.5273 37.2228 13.3281 37.4494 14.1094C37.6759 14.8828 37.8908 15.582 38.0939 16.207C38.133 15.543 38.1603 14.8672 38.1759 14.1797C38.1994 13.4844 38.215 12.8359 38.2228 12.2344C38.2384 11.6328 38.2463 11.1094 38.2463 10.6641C38.2463 10.2109 38.2463 9.89844 38.2463 9.72656C38.2384 9.01562 38.2228 8.30469 38.1994 7.59375C38.1916 7.28906 38.1798 6.97266 38.1642 6.64453C38.1486 6.31641 38.1291 5.98828 38.1056 5.66016C38.09 5.32422 38.0666 4.99609 38.0353 4.67578C38.0119 4.35547 37.9845 4.05469 37.9533 3.77344L41.0705 3.67969Z" stroke="black" stroke-width="4.6425" mask="url(#path-1-outside-1_1592_9498)"/>
<path d="M49.3078 21.3633C49.2609 21.1211 49.218 20.875 49.1789 20.625C49.1398 20.375 49.1086 20.1172 49.0852 19.8516C48.7258 20.3828 48.2961 20.7891 47.7961 21.0703C47.2961 21.3594 46.7492 21.5039 46.1555 21.5039C45.8508 21.5039 45.5383 21.4531 45.218 21.3516C44.8977 21.2578 44.6047 21.0898 44.3391 20.8477C44.0812 20.6055 43.8664 20.2773 43.6945 19.8633C43.5305 19.4414 43.4484 18.9102 43.4484 18.2695C43.4484 17.7383 43.5266 17.2773 43.6828 16.8867C43.8391 16.4883 44.0422 16.1406 44.2922 15.8438C44.5422 15.5469 44.8234 15.2891 45.1359 15.0703C45.4484 14.8516 45.757 14.6562 46.0617 14.4844C46.3742 14.3125 46.6711 14.1523 46.9523 14.0039C47.2336 13.8555 47.4641 13.707 47.6437 13.5586C47.9875 13.2852 48.2844 12.9961 48.5344 12.6914C48.7922 12.3789 48.9992 12.0547 49.1555 11.7188C49.1242 11.1797 49.0656 10.7383 48.9797 10.3945C48.9016 10.043 48.7961 9.76562 48.6633 9.5625C48.5305 9.35156 48.3664 9.20703 48.1711 9.12891C47.9836 9.04297 47.7687 9 47.5266 9C47.1672 9 46.8625 9.07812 46.6125 9.23438C46.3703 9.39062 46.1711 9.57812 46.0148 9.79688C46.2102 9.92188 46.3586 10.0547 46.4602 10.1953C46.5695 10.3359 46.6516 10.4727 46.7062 10.6055C46.7687 10.7539 46.8039 10.9062 46.8117 11.0625C46.8117 11.5938 46.6594 12 46.3547 12.2812C46.0578 12.5625 45.675 12.7031 45.2062 12.7031C44.9641 12.7031 44.7414 12.6484 44.5383 12.5391C44.3352 12.4219 44.1555 12.2617 43.9992 12.0586C43.8508 11.8555 43.7336 11.6133 43.6477 11.332C43.5617 11.0508 43.5187 10.7461 43.5187 10.418C43.5187 10.0898 43.593 9.74219 43.7414 9.375C43.8898 9.00781 44.1281 8.66797 44.4562 8.35547C44.7844 8.03516 45.2062 7.77344 45.7219 7.57031C46.2375 7.35938 46.8625 7.25391 47.5969 7.25391C48.3312 7.25391 48.9602 7.39844 49.4836 7.6875C50.007 7.96875 50.4367 8.34766 50.7727 8.82422C51.1086 9.29297 51.3508 9.83594 51.4992 10.4531C51.6555 11.0703 51.7336 11.707 51.7336 12.3633C51.7336 12.8555 51.7297 13.3906 51.7219 13.9688C51.7141 14.5469 51.7102 15.1406 51.7102 15.75C51.7102 16.2578 51.7141 16.7656 51.7219 17.2734C51.7297 17.7812 51.7453 18.2734 51.7687 18.75C51.7922 19.2188 51.8234 19.6641 51.8625 20.0859C51.9016 20.5 51.9523 20.8711 52.0148 21.1992L49.3078 21.3633ZM49.132 14.4961C48.8586 14.8242 48.5656 15.1055 48.2531 15.3398C48.0187 15.5039 47.7648 15.6875 47.4914 15.8906C47.2258 16.0938 46.9758 16.3086 46.7414 16.5352C46.5148 16.7617 46.3234 17 46.1672 17.25C46.0187 17.4922 45.9445 17.7422 45.9445 18C45.9445 18.3516 46.0305 18.6523 46.2023 18.9023C46.3742 19.1523 46.6164 19.2773 46.9289 19.2773C47.218 19.2773 47.4758 19.1992 47.7023 19.043C47.9289 18.8867 48.1281 18.6953 48.3 18.4688C48.4797 18.2344 48.6281 17.9844 48.7453 17.7188C48.8703 17.4531 48.968 17.2109 49.0383 16.9922L49.132 14.4961Z" stroke="black" stroke-width="4.6425" mask="url(#path-1-outside-1_1592_9498)"/>
<path d="M62.9944 10.9219C62.9944 11.4609 62.9202 11.8906 62.7717 12.2109C62.6311 12.5234 62.4592 12.7617 62.2561 12.9258C62.0608 13.082 61.8577 13.1836 61.6467 13.2305C61.4436 13.2773 61.2756 13.3008 61.1428 13.3008C61.01 13.3008 60.8498 13.2812 60.6623 13.2422C60.4748 13.1953 60.2912 13.1094 60.1116 12.9844C59.9397 12.8516 59.7912 12.668 59.6662 12.4336C59.5491 12.1914 59.4905 11.8789 59.4905 11.4961C59.4983 11.2852 59.5373 11.0781 59.6077 10.875C59.6702 10.7031 59.7639 10.5273 59.8889 10.3477C60.0139 10.168 60.1936 10.0156 60.428 9.89062C60.2952 9.59375 60.1467 9.36719 59.9827 9.21094C59.8264 9.05469 59.6741 8.9375 59.5256 8.85938C59.3537 8.77344 59.1819 8.71875 59.01 8.69531C58.7209 8.69531 58.4592 8.82812 58.2248 9.09375C57.9905 9.35938 57.7912 9.73438 57.6272 10.2188C57.4631 10.6953 57.3342 11.2695 57.2405 11.9414C57.1545 12.6133 57.1116 13.3555 57.1116 14.168C57.1116 14.9727 57.1389 15.7266 57.1936 16.4297C57.2561 17.125 57.3537 17.7344 57.4866 18.2578C57.6194 18.7734 57.7991 19.1797 58.0256 19.4766C58.2522 19.7734 58.5334 19.9219 58.8694 19.9219C59.0491 19.9141 59.2287 19.8711 59.4084 19.793C59.5647 19.7305 59.7287 19.6289 59.9006 19.4883C60.0803 19.3398 60.2405 19.1328 60.3811 18.8672C60.1077 18.7344 59.8967 18.5742 59.7483 18.3867C59.6077 18.1914 59.5061 18.0039 59.4436 17.8242C59.3655 17.6133 59.3225 17.3945 59.3147 17.168C59.3147 16.793 59.3889 16.4883 59.5373 16.2539C59.6858 16.0195 59.8616 15.8359 60.0647 15.7031C60.2678 15.5625 60.4748 15.4688 60.6858 15.4219C60.8967 15.3672 61.0647 15.3398 61.1897 15.3398C61.3225 15.3398 61.4866 15.3672 61.6819 15.4219C61.8772 15.4766 62.0647 15.582 62.2444 15.7383C62.4241 15.8945 62.5764 16.1172 62.7014 16.4062C62.8342 16.6875 62.9006 17.0586 62.9006 17.5195C62.9006 17.9805 62.7873 18.457 62.5608 18.9492C62.342 19.4414 62.0412 19.8906 61.6584 20.2969C61.2834 20.7031 60.8459 21.0352 60.3459 21.293C59.8537 21.5508 59.3342 21.6797 58.7873 21.6797C58.4202 21.6797 58.0491 21.6289 57.6741 21.5273C57.2991 21.4258 56.9397 21.2578 56.5959 21.0234C56.2522 20.7891 55.928 20.4805 55.6233 20.0977C55.3186 19.7148 55.053 19.2461 54.8264 18.6914C54.6077 18.1367 54.4319 17.4883 54.2991 16.7461C54.1741 15.9961 54.1116 15.1367 54.1116 14.168C54.1116 13.1992 54.1819 12.3516 54.3225 11.625C54.4631 10.8906 54.6545 10.2617 54.8967 9.73828C55.1467 9.21484 55.4319 8.78125 55.7522 8.4375C56.0725 8.09375 56.4123 7.82031 56.7717 7.61719C57.1389 7.41406 57.5139 7.27344 57.8967 7.19531C58.2795 7.11719 58.6506 7.07812 59.01 7.07812C59.5412 7.07812 60.0491 7.17969 60.5334 7.38281C61.0178 7.57812 61.4397 7.85156 61.7991 8.20312C62.1662 8.54688 62.4553 8.95312 62.6662 9.42188C62.885 9.89062 62.9944 10.3906 62.9944 10.9219Z" stroke="black" stroke-width="4.6425" mask="url(#path-1-outside-1_1592_9498)"/>
<path d="M68.2552 3.04688C68.1927 4.0625 68.1341 5.07031 68.0794 6.07031C68.0247 7.07031 67.9778 8.07812 67.9388 9.09375C68.2122 8.57812 68.5169 8.17969 68.8528 7.89844C69.1888 7.60938 69.5052 7.39844 69.802 7.26562C70.1458 7.10938 70.4934 7.01562 70.845 6.98438C71.4075 6.98438 71.888 7.12109 72.2864 7.39453C72.6848 7.66797 73.013 8.05859 73.2708 8.56641C73.5286 9.07422 73.7161 9.6875 73.8333 10.4062C73.9505 11.1172 74.0091 11.9141 74.0091 12.7969C74.0091 14.2734 73.9583 15.7031 73.8567 17.0859C73.763 18.4609 73.5598 19.8047 73.2473 21.1172L70.5052 20.7891C70.6848 19.8594 70.8216 18.9922 70.9153 18.1875C71.0169 17.3828 71.0911 16.6797 71.138 16.0781C71.1927 15.375 71.2239 14.7305 71.2317 14.1445C71.2317 13.4023 71.22 12.7578 71.1966 12.2109C71.1809 11.6562 71.1263 11.1992 71.0325 10.8398C70.9466 10.4727 70.8098 10.1992 70.6223 10.0195C70.4348 9.83984 70.1731 9.75 69.8372 9.75C69.5794 9.78906 69.3255 9.94531 69.0755 10.2188C68.9661 10.3359 68.8567 10.4844 68.7473 10.6641C68.638 10.8438 68.5247 11.0664 68.4075 11.332C68.2981 11.5898 68.1927 11.8945 68.0911 12.2461C67.9895 12.5977 67.8997 13.0039 67.8216 13.4648C67.7981 14.2617 67.7825 15.0547 67.7747 15.8438C67.7747 16.6328 67.7747 17.418 67.7747 18.1992C67.7747 18.6914 67.7747 19.1875 67.7747 19.6875C67.7747 20.1875 67.7825 20.6836 67.7981 21.1758L65.138 21.1172C65.2239 19.6875 65.2864 18.2578 65.3255 16.8281C65.3723 15.3984 65.3958 13.957 65.3958 12.5039C65.3958 10.9102 65.3684 9.32812 65.3138 7.75781C65.2591 6.17969 65.1809 4.59375 65.0794 3L68.2552 3.04688Z" stroke="black" stroke-width="4.6425" mask="url(#path-1-outside-1_1592_9498)"/>
<path d="M84.6136 10.3242C84.6136 10.6836 84.5472 10.9883 84.4144 11.2383C84.2816 11.4883 84.1214 11.6914 83.9339 11.8477C83.7464 12.0039 83.5511 12.1172 83.348 12.1875C83.1448 12.2578 82.973 12.293 82.8323 12.293C82.6917 12.293 82.5238 12.2695 82.3284 12.2227C82.1331 12.168 81.9456 12.0742 81.7659 11.9414C81.5941 11.8086 81.4456 11.6328 81.3206 11.4141C81.1956 11.1875 81.1331 10.9023 81.1331 10.5586C81.1409 10.3711 81.1761 10.1875 81.2386 10.0078C81.2933 9.85156 81.3753 9.69141 81.4847 9.52734C81.6019 9.35547 81.7659 9.20312 81.9769 9.07031C81.8363 8.86719 81.6956 8.71094 81.555 8.60156C81.4144 8.49219 81.2894 8.41016 81.18 8.35547C81.0472 8.29297 80.9261 8.25391 80.8167 8.23828C80.5745 8.23828 80.3558 8.28906 80.1605 8.39062C79.9652 8.48438 79.7972 8.61328 79.6566 8.77734C79.5238 8.93359 79.4183 9.11719 79.3402 9.32812C79.2698 9.53906 79.2347 9.75781 79.2347 9.98438C79.2347 10.2734 79.2542 10.5352 79.2933 10.7695C79.3323 11.0039 79.4222 11.2422 79.5628 11.4844C79.7034 11.7266 79.9144 11.9883 80.1956 12.2695C80.4769 12.5508 80.8597 12.8789 81.3441 13.2539C81.8284 13.6289 82.2503 13.9961 82.6097 14.3555C82.9691 14.707 83.2659 15.0547 83.5003 15.3984C83.7347 15.7422 83.9105 16.0898 84.0277 16.4414C84.1448 16.7852 84.2034 17.1445 84.2034 17.5195C84.2034 17.7695 84.1761 18.043 84.1214 18.3398C84.0745 18.6289 83.9886 18.9258 83.8636 19.2305C83.7464 19.5273 83.5863 19.8164 83.3831 20.0977C83.1878 20.3711 82.9417 20.6172 82.6448 20.8359C82.3558 21.0547 82.012 21.2266 81.6136 21.3516C81.223 21.4844 80.7738 21.5508 80.2659 21.5508C79.5003 21.5508 78.848 21.4375 78.3089 21.2109C77.7698 20.9844 77.3245 20.7109 76.973 20.3906C76.6292 20.0625 76.3753 19.7188 76.2113 19.3594C76.055 19 75.9769 18.6836 75.9769 18.4102C75.9769 18.1211 76.012 17.8516 76.0823 17.6016C76.1527 17.3516 76.262 17.1328 76.4105 16.9453C76.5667 16.7578 76.762 16.6133 76.9964 16.5117C77.2386 16.4023 77.5277 16.3477 77.8636 16.3477C78.1448 16.3477 78.3988 16.3906 78.6253 16.4766C78.8597 16.5625 79.0589 16.6914 79.223 16.8633C79.3948 17.0273 79.5277 17.2305 79.6214 17.4727C79.7152 17.7148 79.762 17.9883 79.762 18.293C79.7542 18.4258 79.7269 18.5625 79.68 18.7031C79.6409 18.8203 79.5745 18.9492 79.4808 19.0898C79.387 19.2305 79.2581 19.3633 79.0941 19.4883C79.2034 19.5742 79.3089 19.6406 79.4105 19.6875C79.5198 19.7266 79.6175 19.7539 79.7034 19.7695C79.7972 19.793 79.8909 19.8047 79.9847 19.8047C80.0863 19.8047 80.2034 19.7773 80.3363 19.7227C80.4769 19.6602 80.6097 19.5664 80.7347 19.4414C80.8597 19.3164 80.9652 19.1641 81.0511 18.9844C81.137 18.8047 81.18 18.5898 81.18 18.3398C81.18 18.0898 81.1566 17.8633 81.1097 17.6602C81.0706 17.4492 80.9808 17.2344 80.8402 17.0156C80.7073 16.7891 80.512 16.543 80.2542 16.2773C79.9964 16.0117 79.6566 15.6914 79.2347 15.3164C78.8128 14.9414 78.4378 14.5781 78.1097 14.2266C77.7816 13.8672 77.5042 13.4961 77.2777 13.1133C77.0589 12.7305 76.8909 12.3281 76.7738 11.9062C76.6566 11.4844 76.598 11.0195 76.598 10.5117C76.598 10.0117 76.6956 9.52734 76.8909 9.05859C77.0941 8.58984 77.3792 8.17578 77.7464 7.81641C78.1136 7.44922 78.5589 7.16016 79.0823 6.94922C79.6058 6.73047 80.1917 6.62109 80.8402 6.62109C81.4964 6.62109 82.0628 6.72266 82.5394 6.92578C83.0159 7.12891 83.4066 7.40234 83.7113 7.74609C84.0159 8.08203 84.2425 8.47266 84.3909 8.91797C84.5394 9.36328 84.6136 9.83203 84.6136 10.3242Z" stroke="black" stroke-width="4.6425" mask="url(#path-1-outside-1_1592_9498)"/>
<path d="M95.3587 10.9219C95.3587 11.4609 95.2845 11.8906 95.1361 12.2109C94.9955 12.5234 94.8236 12.7617 94.6205 12.9258C94.4252 13.082 94.222 13.1836 94.0111 13.2305C93.808 13.2773 93.64 13.3008 93.5072 13.3008C93.3744 13.3008 93.2142 13.2812 93.0267 13.2422C92.8392 13.1953 92.6556 13.1094 92.4759 12.9844C92.3041 12.8516 92.1556 12.668 92.0306 12.4336C91.9134 12.1914 91.8548 11.8789 91.8548 11.4961C91.8627 11.2852 91.9017 11.0781 91.972 10.875C92.0345 10.7031 92.1283 10.5273 92.2533 10.3477C92.3783 10.168 92.558 10.0156 92.7923 9.89062C92.6595 9.59375 92.5111 9.36719 92.347 9.21094C92.1908 9.05469 92.0384 8.9375 91.89 8.85938C91.7181 8.77344 91.5462 8.71875 91.3744 8.69531C91.0853 8.69531 90.8236 8.82812 90.5892 9.09375C90.3548 9.35938 90.1556 9.73438 89.9916 10.2188C89.8275 10.6953 89.6986 11.2695 89.6048 11.9414C89.5189 12.6133 89.4759 13.3555 89.4759 14.168C89.4759 14.9727 89.5033 15.7266 89.558 16.4297C89.6205 17.125 89.7181 17.7344 89.8509 18.2578C89.9837 18.7734 90.1634 19.1797 90.39 19.4766C90.6166 19.7734 90.8978 19.9219 91.2337 19.9219C91.4134 19.9141 91.5931 19.8711 91.7728 19.793C91.9291 19.7305 92.0931 19.6289 92.265 19.4883C92.4447 19.3398 92.6048 19.1328 92.7455 18.8672C92.472 18.7344 92.2611 18.5742 92.1127 18.3867C91.972 18.1914 91.8705 18.0039 91.808 17.8242C91.7298 17.6133 91.6869 17.3945 91.6791 17.168C91.6791 16.793 91.7533 16.4883 91.9017 16.2539C92.0502 16.0195 92.2259 15.8359 92.4291 15.7031C92.6322 15.5625 92.8392 15.4688 93.0502 15.4219C93.2611 15.3672 93.4291 15.3398 93.5541 15.3398C93.6869 15.3398 93.8509 15.3672 94.0462 15.4219C94.2416 15.4766 94.4291 15.582 94.6087 15.7383C94.7884 15.8945 94.9408 16.1172 95.0658 16.4062C95.1986 16.6875 95.265 17.0586 95.265 17.5195C95.265 17.9805 95.1517 18.457 94.9252 18.9492C94.7064 19.4414 94.4056 19.8906 94.0228 20.2969C93.6478 20.7031 93.2103 21.0352 92.7103 21.293C92.2181 21.5508 91.6986 21.6797 91.1517 21.6797C90.7845 21.6797 90.4134 21.6289 90.0384 21.5273C89.6634 21.4258 89.3041 21.2578 88.9603 21.0234C88.6166 20.7891 88.2923 20.4805 87.9877 20.0977C87.683 19.7148 87.4173 19.2461 87.1908 18.6914C86.972 18.1367 86.7962 17.4883 86.6634 16.7461C86.5384 15.9961 86.4759 15.1367 86.4759 14.168C86.4759 13.1992 86.5462 12.3516 86.6869 11.625C86.8275 10.8906 87.0189 10.2617 87.2611 9.73828C87.5111 9.21484 87.7962 8.78125 88.1166 8.4375C88.4369 8.09375 88.7767 7.82031 89.1361 7.61719C89.5033 7.41406 89.8783 7.27344 90.2611 7.19531C90.6439 7.11719 91.015 7.07812 91.3744 7.07812C91.9056 7.07812 92.4134 7.17969 92.8978 7.38281C93.3822 7.57812 93.8041 7.85156 94.1634 8.20312C94.5306 8.54688 94.8197 8.95312 95.0306 9.42188C95.2494 9.89062 95.3587 10.3906 95.3587 10.9219Z" stroke="black" stroke-width="4.6425" mask="url(#path-1-outside-1_1592_9498)"/>
<path d="M100.62 3.04688C100.557 4.0625 100.498 5.07031 100.444 6.07031C100.389 7.07031 100.342 8.07812 100.303 9.09375C100.577 8.57812 100.881 8.17969 101.217 7.89844C101.553 7.60938 101.87 7.39844 102.166 7.26562C102.51 7.10938 102.858 7.01562 103.209 6.98438C103.772 6.98438 104.252 7.12109 104.651 7.39453C105.049 7.66797 105.377 8.05859 105.635 8.56641C105.893 9.07422 106.08 9.6875 106.198 10.4062C106.315 11.1172 106.373 11.9141 106.373 12.7969C106.373 14.2734 106.323 15.7031 106.221 17.0859C106.127 18.4609 105.924 19.8047 105.612 21.1172L102.87 20.7891C103.049 19.8594 103.186 18.9922 103.28 18.1875C103.381 17.3828 103.455 16.6797 103.502 16.0781C103.557 15.375 103.588 14.7305 103.596 14.1445C103.596 13.4023 103.584 12.7578 103.561 12.2109C103.545 11.6562 103.491 11.1992 103.397 10.8398C103.311 10.4727 103.174 10.1992 102.987 10.0195C102.799 9.83984 102.537 9.75 102.202 9.75C101.944 9.78906 101.69 9.94531 101.44 10.2188C101.33 10.3359 101.221 10.4844 101.112 10.6641C101.002 10.8438 100.889 11.0664 100.772 11.332C100.662 11.5898 100.557 11.8945 100.455 12.2461C100.354 12.5977 100.264 13.0039 100.186 13.4648C100.162 14.2617 100.147 15.0547 100.139 15.8438C100.139 16.6328 100.139 17.418 100.139 18.1992C100.139 18.6914 100.139 19.1875 100.139 19.6875C100.139 20.1875 100.147 20.6836 100.162 21.1758L97.5023 21.1172C97.5883 19.6875 97.6508 18.2578 97.6898 16.8281C97.7367 15.3984 97.7602 13.957 97.7602 12.5039C97.7602 10.9102 97.7328 9.32812 97.6781 7.75781C97.6234 6.17969 97.5453 4.59375 97.4437 3L100.62 3.04688Z" stroke="black" stroke-width="4.6425" mask="url(#path-1-outside-1_1592_9498)"/>
<path d="M114.646 21C114.662 20.6875 114.677 20.3906 114.693 20.1094C114.716 19.8203 114.74 19.543 114.763 19.2773C114.497 19.7461 114.212 20.1055 113.908 20.3555C113.611 20.6055 113.333 20.793 113.076 20.918C112.771 21.0586 112.47 21.1445 112.173 21.1758C111.595 21.1758 111.091 21.0312 110.662 20.7422C110.232 20.4531 109.876 20.043 109.595 19.5117C109.314 18.9805 109.103 18.3438 108.962 17.6016C108.83 16.8516 108.763 16.0156 108.763 15.0938C108.763 13.8047 108.802 12.5547 108.88 11.3438C108.966 10.1328 109.103 8.94531 109.29 7.78125L112.267 8.10938C112.08 9.03906 111.935 9.87109 111.833 10.6055C111.74 11.332 111.669 11.9531 111.622 12.4688C111.568 13.0703 111.537 13.5938 111.529 14.0391C111.529 14.7812 111.552 15.4297 111.599 15.9844C111.646 16.5312 111.728 16.9883 111.845 17.3555C111.97 17.7148 112.138 17.9844 112.349 18.1641C112.56 18.3438 112.83 18.4336 113.158 18.4336C113.384 18.3945 113.607 18.2383 113.826 17.9648C113.919 17.8477 114.017 17.6992 114.119 17.5195C114.22 17.332 114.322 17.1055 114.423 16.8398C114.525 16.5742 114.622 16.2617 114.716 15.9023C114.81 15.543 114.9 15.125 114.986 14.6484C115.001 14.1875 115.009 13.7305 115.009 13.2773C115.009 12.8164 115.009 12.3203 115.009 11.7891C115.009 11.2266 115.009 10.6133 115.009 9.94922C115.009 9.28516 115.001 8.53906 114.986 7.71094L117.646 7.75781C117.607 8.35156 117.576 8.90234 117.552 9.41016C117.529 9.91016 117.509 10.3828 117.494 10.8281C117.486 11.2656 117.478 11.6797 117.47 12.0703C117.462 12.4609 117.458 12.8398 117.458 13.207C117.458 13.7695 117.462 14.3203 117.47 14.8594C117.486 15.3984 117.505 15.9727 117.529 16.582C117.552 17.1836 117.576 17.8477 117.599 18.5742C117.63 19.293 117.662 20.1172 117.693 21.0469L114.646 21Z" stroke="black" stroke-width="4.6425" mask="url(#path-1-outside-1_1592_9498)"/>
<path d="M123.61 3.24609C123.516 4.26953 123.434 5.28516 123.364 6.29297C123.293 7.29297 123.231 8.30078 123.176 9.31641C123.442 8.83984 123.727 8.47266 124.032 8.21484C124.336 7.94922 124.622 7.75391 124.887 7.62891C125.2 7.48828 125.504 7.40234 125.801 7.37109C126.364 7.37109 126.864 7.48828 127.301 7.72266C127.739 7.95703 128.106 8.35938 128.403 8.92969C128.707 9.49219 128.938 10.2461 129.094 11.1914C129.25 12.1289 129.329 13.3047 129.329 14.7188C129.329 16.0234 129.204 17.1211 128.954 18.0117C128.711 18.8945 128.395 19.6094 128.004 20.1562C127.622 20.6953 127.192 21.082 126.715 21.3164C126.247 21.5586 125.782 21.6797 125.321 21.6797C125.274 21.6797 125.168 21.668 125.004 21.6445C124.848 21.6289 124.657 21.5703 124.43 21.4688C124.204 21.375 123.961 21.2305 123.704 21.0352C123.446 20.8398 123.2 20.5664 122.965 20.2148V21.5039L120.329 21.457C120.399 20.3164 120.446 19.1797 120.469 18.0469C120.5 16.9141 120.516 15.7812 120.516 14.6484C120.516 12.7422 120.485 10.8516 120.422 8.97656C120.36 7.09375 120.286 5.19922 120.2 3.29297L123.61 3.24609ZM124.454 19.5117C124.493 19.5273 124.532 19.5352 124.571 19.5352C124.618 19.5352 124.665 19.5352 124.711 19.5352C124.922 19.5352 125.141 19.4648 125.368 19.3242C125.602 19.1758 125.813 18.918 126 18.5508C126.188 18.1836 126.344 17.6875 126.469 17.0625C126.594 16.4297 126.657 15.625 126.657 14.6484C126.657 13.7734 126.614 13.0469 126.528 12.4688C126.45 11.8828 126.34 11.4141 126.2 11.0625C126.059 10.7109 125.895 10.4648 125.707 10.3242C125.52 10.1758 125.325 10.1016 125.122 10.1016C124.911 10.1016 124.715 10.1602 124.536 10.2773C124.364 10.3867 124.207 10.5352 124.067 10.7227C123.926 10.9023 123.797 11.1094 123.68 11.3438C123.571 11.5781 123.473 11.8125 123.387 12.0469C123.301 12.2734 123.227 12.4961 123.165 12.7148C123.11 12.9258 123.067 13.1055 123.036 13.2539C122.989 14.793 122.965 16.3203 122.965 17.8359C123.145 18.2109 123.325 18.5078 123.504 18.7266C123.684 18.9453 123.844 19.1133 123.985 19.2305C124.149 19.3711 124.305 19.4648 124.454 19.5117Z" stroke="black" stroke-width="4.6425" mask="url(#path-1-outside-1_1592_9498)"/>
</svg>
