<svg width="61" height="91" viewBox="0 0 61 91" fill="none" xmlns="http://www.w3.org/2000/svg">
<rect x="0.392578" y="0.0498047" width="60.2257" height="90.0855" rx="2.23443" fill="white"/>
<path d="M48.6494 49.7938C43.2741 48.0298 38.8702 48.1431 34.376 51.629M48.5449 50.1122C48.7208 50.1699 48.9101 50.0741 48.9679 49.8983C49.0256 49.7224 48.9298 49.533 48.7539 49.4753C46.0404 48.5848 43.5456 48.1592 41.1475 48.4093C38.7439 48.6601 36.4613 49.5873 34.1706 51.3641C34.0244 51.4776 33.9977 51.6881 34.1112 51.8344C34.2246 51.9806 34.4352 52.0073 34.5815 51.8938C36.7848 50.1848 38.9514 49.3124 41.217 49.0761C43.4883 48.8391 45.8831 49.2387 48.5449 50.1122ZM45.9628 54.1769C43.5572 55.0137 41.972 55.5559 40.3345 55.86C38.7278 56.1583 37.0588 56.2291 34.5091 56.1044C32.6674 54.4862 31.7214 53.2037 31.4623 51.8628C31.2041 50.5271 31.6124 49.0529 32.6945 47.0091C37.4498 45.1148 42.1186 45.1132 45.0781 45.442C46.5072 45.6007 48.6501 46.5766 50.531 47.8054C51.4652 48.4157 52.3185 49.078 52.9714 49.7142C53.635 50.3609 54.0524 50.9436 54.177 51.3911C54.2297 51.5803 54.2062 51.7245 54.1359 51.8513C54.0595 51.9892 53.9122 52.133 53.6726 52.2768C53.1888 52.5673 52.437 52.7952 51.5303 52.9962C50.8799 53.1403 50.1755 53.2655 49.4642 53.392C49.1901 53.4407 48.9151 53.4897 48.6417 53.5399C47.6692 53.7186 46.7179 53.9142 45.9628 54.1769Z" fill="#D1B167" stroke="black" stroke-width="0.670329" stroke-linecap="round"/>
<path d="M13.5752 49.1233C18.9505 47.3594 23.3544 47.4727 27.8486 50.9586M13.6797 49.4418C13.5038 49.4995 13.3144 49.4037 13.2567 49.2278C13.199 49.052 13.2948 48.8626 13.4707 48.8049C16.1842 47.9144 18.679 47.4887 21.0771 47.7389C23.4807 47.9897 25.7633 48.9169 28.054 50.6937C28.2002 50.8072 28.2268 51.0177 28.1134 51.164C28 51.3102 27.7894 51.3368 27.6431 51.2234C25.4398 49.5144 23.2732 48.642 21.0076 48.4056C18.7363 48.1687 16.3415 48.5683 13.6797 49.4418ZM16.2618 53.5065C18.6674 54.3433 20.2526 54.8855 21.8901 55.1896C23.4968 55.4879 25.1658 55.5587 27.7155 55.434C29.5572 53.8158 30.5032 52.5332 30.7623 51.1924C31.0205 49.8567 30.6122 48.3825 29.5301 46.3386C24.7748 44.4444 20.106 44.4427 17.1465 44.7716C15.7174 44.9303 13.5745 45.9062 11.6936 47.135C10.7594 47.7453 9.90607 48.4076 9.25323 49.0438C8.58964 49.6905 8.17218 50.2732 8.04755 50.7207C7.99488 50.9099 8.01835 51.0541 8.08865 51.1809C8.1651 51.3188 8.31241 51.4626 8.55195 51.6064C9.03579 51.8969 9.78764 52.1248 10.6943 52.3257C11.3447 52.4699 12.0491 52.5951 12.7604 52.7216C13.0344 52.7703 13.3095 52.8192 13.5829 52.8695C14.5554 53.0482 15.5067 53.2438 16.2618 53.5065Z" fill="#D1B167" stroke="black" stroke-width="0.670329" stroke-linecap="round"/>
<path d="M47.9578 59.6773C48.1311 59.7293 48.3139 59.6309 48.3659 59.4575C48.4179 59.2841 48.3195 59.1014 48.1461 59.0494C44.8738 58.0677 42.4172 56.5948 40.6616 55.4345C40.3489 55.2278 40.0546 55.0284 39.7805 54.8426C39.2944 54.5132 38.8718 54.2269 38.5225 54.0195C38.2482 53.8565 37.992 53.7252 37.7636 53.6582C37.5392 53.5923 37.2708 53.5685 37.0408 53.7265C36.8916 53.829 36.8537 54.033 36.9562 54.1822C37.0587 54.3314 37.2627 54.3693 37.4119 54.2668L37.4136 54.2662C37.416 54.2654 37.4225 54.2637 37.4349 54.2632C37.4614 54.2619 37.5074 54.2661 37.579 54.2872C37.7257 54.3302 37.9243 54.4265 38.1878 54.583C38.5215 54.7812 38.9158 55.0485 39.387 55.368C39.6638 55.5556 39.9671 55.7612 40.3002 55.9814C42.0801 57.1576 44.5978 58.6693 47.9578 59.6773ZM48.9228 61.649C47.5067 62.137 45.7943 62.36 44.188 61.9706C43.9053 61.8988 43.6289 61.8291 43.3583 61.7608C38.7268 60.5923 35.7945 59.8525 32.3968 56.6065C32.0792 54.2305 32.2061 52.6773 32.8766 51.5226C33.5447 50.3721 34.7929 49.5478 36.904 48.7367C41.6077 50.3768 43.6791 52.0792 47.4859 55.6415C48.4265 56.5871 49.4025 57.3035 50.187 57.8793C50.4499 58.0722 50.6912 58.2494 50.9025 58.4141C51.3389 58.7542 51.6238 59.0229 51.7619 59.2621C51.8268 59.3746 51.8516 59.468 51.8516 59.5513C51.8516 59.6336 51.8273 59.7322 51.7518 59.8554C51.5861 60.1262 51.2457 60.4517 50.747 60.7771C50.2542 61.0987 49.6295 61.4055 48.9228 61.649Z" fill="#4C29B0" stroke="black" stroke-width="0.655483" stroke-linecap="round"/>
<path d="M11.6316 57.6984C11.4524 57.7241 11.2864 57.5996 11.2607 57.4204C11.2351 57.2413 11.3595 57.0752 11.5387 57.0495C16.1334 56.3915 19.4251 55.3034 23.5346 53.428C23.6993 53.3528 23.8937 53.4254 23.9688 53.59C24.044 53.7547 23.9714 53.9491 23.8067 54.0243C19.6518 55.9205 16.2997 57.0299 11.6316 57.6984ZM9.42773 59.3718C10.5883 60.3359 12.0761 61.0846 13.6983 61.0321C13.9897 61.0195 14.2745 61.0076 14.5534 60.996C19.3258 60.7967 22.3474 60.6705 26.3357 58.1858C27.1312 55.9245 27.3238 54.3781 26.9029 53.1108C26.4835 51.8483 25.4297 50.7868 23.5284 49.5621C18.5891 50.2083 16.214 51.4525 11.7606 54.1635C10.4312 55.0393 9.2333 55.4183 8.38669 55.6861C8.27301 55.7221 8.16567 55.7561 8.06519 55.789C7.85165 55.8589 7.67763 55.9211 7.53767 55.985C7.39632 56.0495 7.30939 56.1072 7.25727 56.1591C7.21166 56.2045 7.19261 56.2449 7.186 56.2941C7.17824 56.3519 7.1849 56.4469 7.23979 56.6002C7.47539 57.2579 8.26152 58.4029 9.42773 59.3718Z" fill="#4C29B0" stroke="black" stroke-width="0.655483" stroke-linecap="round"/>
<path d="M29.2504 67.0161C29.2291 67.1959 29.3575 67.3589 29.5373 67.3802C29.717 67.4015 29.88 67.2731 29.9013 67.0933C30.4824 62.1945 30.441 59.6953 30.0174 55.5015C29.9992 55.3214 29.8385 55.1902 29.6584 55.2084C29.4783 55.2266 29.347 55.3873 29.3652 55.5674C29.7844 59.7165 29.8255 62.1677 29.2504 67.0161ZM26.4637 71.4501C25.8915 70.3558 25.3884 68.8482 24.9315 67.1834C24.2612 64.6344 23.9852 62.6773 24.0367 60.7491C24.0875 58.8467 24.4573 56.9556 25.1027 54.5316C27.0273 53.1023 28.4475 52.4605 29.7826 52.4875C31.1128 52.5144 32.4387 53.2068 34.1713 54.6605C34.6008 57.1261 34.8599 59.026 34.8601 60.9275C34.8603 62.8539 34.5946 64.7946 33.9568 67.3324C33.4876 68.9432 32.3992 70.4244 31.2292 71.4976C30.6451 72.0334 30.0487 72.46 29.5118 72.7467C28.9653 73.0386 28.5167 73.166 28.2176 73.153C27.9352 73.1407 27.6467 73.0037 27.3467 72.715C27.0449 72.4246 26.7499 71.9975 26.4637 71.4501Z" fill="#4C29B0" stroke="black" stroke-width="0.655483" stroke-linecap="round"/>
<path d="M33.5224 56.2937C33.3939 56.1662 33.1864 56.1669 33.0589 56.2954L43.579 65.7154L43.579 65.7154L43.5787 65.7153L43.5775 65.7145L43.5719 65.7111L43.5494 65.6973C43.5293 65.6849 43.4994 65.6665 43.4607 65.6422C43.3834 65.5938 43.2709 65.5225 43.1317 65.4317C42.8531 65.25 42.468 64.9908 42.0428 64.6812C41.1857 64.0573 40.19 63.2463 39.5632 62.4628C38.638 61.3065 38.0533 60.7359 36.3976 59.1202C35.6793 58.4192 34.7593 57.5214 33.5224 56.2937ZM39.6458 68.9034C38.6789 68.7638 37.8346 68.4713 37.2175 67.9833C35.1629 66.3207 33.6868 64.917 32.4931 63.3425C31.318 61.7926 30.407 60.0642 29.4937 57.7382C30.2002 55.4369 30.8426 54.2714 31.7938 53.6787C32.7523 53.0814 34.0966 53.0163 36.377 53.1697C37.2265 54.0571 38.0382 54.8034 38.8047 55.492C38.9549 55.627 39.1032 55.7596 39.2495 55.8904C39.8781 56.4523 40.471 56.9825 41.0342 57.538C42.4114 58.8964 43.5976 60.3945 44.5729 62.7858C45.1453 64.3472 46.0189 65.4463 46.646 66.2353C46.7031 66.3072 46.7582 66.3765 46.8108 66.4433C46.9697 66.6451 47.1019 66.8189 47.2036 66.974C47.3065 67.1309 47.3665 67.2514 47.3936 67.3458C47.4189 67.4337 47.4116 67.4838 47.3967 67.5198C47.3796 67.561 47.3341 67.6277 47.2064 67.7131C46.93 67.8981 46.3325 68.1448 45.5178 68.3752C44.7139 68.6026 43.7298 68.8053 42.7021 68.9156C41.6733 69.026 40.6105 69.0426 39.6458 68.9034Z" fill="#D1B167" stroke="black" stroke-width="0.655483" stroke-linecap="round"/>
<path d="M27.4311 55.7917C27.5666 55.6717 27.7737 55.6843 27.8937 55.8198C28.0137 55.9553 28.0012 56.1624 27.8657 56.2824C26.5344 57.4615 25.555 58.3141 24.797 58.974C23.0789 60.4697 22.4984 60.9751 21.5372 62.0456C20.798 62.8689 19.6543 63.6011 18.7201 64.12C18.2486 64.3819 17.822 64.594 17.5131 64.7407C17.3585 64.8141 17.2332 64.8713 17.1461 64.9103C17.1025 64.9298 17.0685 64.9448 17.0452 64.9549L17.0183 64.9666L17.0112 64.9696L17.0092 64.9705L17.0086 64.9707L17.0085 64.9708C17.0084 64.9708 17.0083 64.9708 16.88 64.6693L17.0083 64.9708C16.8418 65.0417 16.6493 64.9641 16.5785 64.7976C16.5076 64.631 16.5852 64.4386 16.7517 64.3677L16.7517 64.3677L16.7517 64.3677L16.752 64.3676L16.7533 64.367L16.7591 64.3645L16.7832 64.3541C16.8047 64.3447 16.8367 64.3306 16.8783 64.312C16.9613 64.2748 17.0822 64.2197 17.2318 64.1486C17.5314 64.0064 17.9452 63.8006 18.4018 63.547C19.3238 63.0349 20.3868 62.3458 21.0495 61.6077C22.0389 60.5057 22.6551 59.9693 24.3999 58.4503C25.1569 57.7912 26.1264 56.9472 27.4311 55.7917ZM20.5982 68.0303C21.5736 67.9475 22.4342 67.7044 23.0777 67.2525C25.2234 65.7093 26.777 64.3918 28.0582 62.8877C29.3194 61.407 30.3272 59.7332 31.3712 57.4628C30.7966 55.1251 30.2214 53.925 29.3055 53.2792C28.3824 52.6284 27.0441 52.487 24.7586 52.5106C23.8601 53.3483 23.0073 54.0472 22.2029 54.6912C22.0452 54.8175 21.8896 54.9414 21.7361 55.0637C21.0766 55.589 20.4545 56.0846 19.8607 56.6072C18.4085 57.8851 17.1392 59.3134 16.0295 61.6455C15.3655 63.1805 14.4193 64.2276 13.7421 64.977C13.6843 65.041 13.6284 65.1028 13.5748 65.1626C13.4032 65.3541 13.2599 65.5192 13.1482 65.6674C13.0352 65.8174 12.9676 65.9335 12.9346 66.0254C12.9038 66.1109 12.9082 66.16 12.9204 66.1953C12.9345 66.236 12.9753 66.3047 13.0981 66.3974C13.3636 66.5978 13.9476 66.8792 14.7502 67.1572C15.542 67.4315 16.5158 67.6921 17.5384 67.8628C18.5621 68.0337 19.625 68.1128 20.5982 68.0303Z" fill="#D1B167" stroke="black" stroke-width="0.655483" stroke-linecap="round"/>
<path d="M30.8143 30.9892C30.8634 30.9622 30.9067 30.9387 30.9437 30.9186C30.9855 30.937 31.0349 30.959 31.0915 30.9844C31.292 31.0746 31.582 31.208 31.9379 31.3799C32.65 31.7238 33.6242 32.2212 34.6726 32.835C36.7637 34.0591 39.0875 35.7106 40.2598 37.4942C40.3624 38.0131 40.4632 38.5105 40.5604 38.9907C41.5122 43.6883 42.1291 46.7334 40.8307 51.9841C38.8435 55.442 36.9166 57.1681 33.2332 59.6791H29.3143C29.2734 59.6503 29.2196 59.6123 29.1542 59.5655C28.9895 59.4479 28.7508 59.2751 28.4564 59.0556C27.8673 58.6165 27.0557 57.9911 26.1664 57.2465C24.3951 55.7633 22.3447 53.8308 21.1162 51.9682C20.2375 48.8338 20.004 46.5035 20.2424 44.3315C20.4816 42.1521 21.1983 40.1057 22.2623 37.5319C23.3912 35.9364 25.5685 34.272 27.5102 32.9874C28.4805 32.3455 29.379 31.8067 30.0349 31.4284C30.3628 31.2393 30.6297 31.0905 30.8143 30.9892Z" fill="#FFEFDD" stroke="black" stroke-width="0.741084"/>
<path d="M37.5111 51.0333C37.5111 51.6196 33.7422 54.6467 31.2884 54.6467C28.8346 54.6467 25.0815 51.6196 25.0815 51.0333C25.0815 50.4469 28.8346 53.1608 31.2884 53.1608C33.7422 53.1608 37.1924 49.9695 37.5111 51.0333Z" fill="#B02929"/>
<path d="M26.3591 43.8281C27.5713 42.9759 28.4074 43.0612 30.1255 44.0374" stroke="black" stroke-width="0.741084"/>
<path d="M23.261 51.7472C23.0252 50.0018 23.618 49.4047 25.7348 48.8995" stroke="black" stroke-width="0.370542"/>
<path d="M35.2966 43.8281C36.5088 42.9759 37.3449 43.0612 39.063 44.0374" stroke="black" stroke-width="0.741084"/>
<ellipse cx="31.7382" cy="48.2689" rx="1.8832" ry="1.6478" fill="#920000"/>
<path d="M27.6353 44.4319H28.2737L28.2737 45.7087H27.6353L27.6353 44.4319Z" fill="black"/>
<path d="M36.5728 44.4319H37.2112L37.2112 45.7087H36.5728L36.5728 44.4319Z" fill="black"/>
<path d="M5.97089 3.5168C5.95198 3.77447 5.93661 4.00022 5.92479 4.19406C5.91297 4.3879 5.90352 4.56046 5.89643 4.71175C5.8917 4.86068 5.88815 4.99306 5.88579 5.10889C5.88579 5.22472 5.88697 5.33464 5.88933 5.43865C5.8917 5.54266 5.89524 5.64668 5.89997 5.75069C5.9047 5.85234 5.90824 5.96344 5.91061 6.084C5.91534 6.20456 5.91888 6.34048 5.92125 6.49177C5.92597 6.6407 5.92834 6.81562 5.92834 7.01656C5.92834 7.25295 5.9047 7.48106 5.85742 7.7009C5.81014 7.92075 5.72977 8.11577 5.6163 8.28597C5.50283 8.45381 5.35036 8.58855 5.15889 8.6902C4.96741 8.79184 4.72747 8.84267 4.43908 8.84267C4.26888 8.84267 4.11759 8.82258 3.98521 8.78239C3.85519 8.7422 3.74055 8.68783 3.64126 8.61928C3.54434 8.55073 3.46161 8.47035 3.39305 8.37816C3.32686 8.28597 3.27249 8.18905 3.22994 8.0874C3.18976 7.98339 3.16021 7.8782 3.1413 7.77182C3.12475 7.66308 3.11648 7.55907 3.11648 7.45979C3.11648 7.32741 3.13775 7.21749 3.1803 7.13002C3.22522 7.04256 3.2784 6.97282 3.33987 6.92082C3.40369 6.86881 3.4687 6.83217 3.53489 6.8109C3.60344 6.78962 3.66254 6.77898 3.71218 6.77898C3.76419 6.77898 3.82447 6.78962 3.89302 6.8109C3.96394 6.82981 4.03131 6.86408 4.09513 6.91373C4.15896 6.961 4.21214 7.02365 4.2547 7.10166C4.29961 7.17967 4.32207 7.2754 4.32207 7.38887C4.31734 7.47633 4.29843 7.55789 4.26533 7.63353C4.23697 7.69736 4.19205 7.76118 4.13059 7.82501C4.07149 7.88647 3.98521 7.9302 3.87174 7.95621C3.91429 8.02476 3.96157 8.08031 4.01358 8.12286C4.06795 8.16305 4.12232 8.19378 4.17669 8.21505C4.23342 8.23633 4.28661 8.25051 4.33625 8.2576C4.38589 8.2647 4.42726 8.26824 4.46035 8.26824C4.58564 8.26824 4.68611 8.24342 4.76175 8.19378C4.8374 8.14177 4.89531 8.07086 4.9355 7.98103C4.97568 7.88884 5.00169 7.78246 5.01351 7.6619C5.02769 7.53898 5.03478 7.4066 5.03478 7.26477C5.03478 6.94328 5.0336 6.62533 5.03124 6.31093C5.03124 5.99417 5.02769 5.68095 5.0206 5.37128C5.01351 5.06161 5.00169 4.75312 4.98514 4.44581C4.9686 4.13851 4.94377 3.83356 4.91068 3.53099C4.93668 3.53571 4.96978 3.54044 5.00996 3.54517C5.07379 3.55226 5.17189 3.55581 5.30427 3.55581C5.38701 3.55581 5.48393 3.55344 5.59503 3.54871C5.70613 3.54399 5.83142 3.53335 5.97089 3.5168ZM4.62346 17.8108C4.38943 17.8108 4.18732 17.7599 4.01712 17.6583C3.84928 17.5566 3.70981 17.4148 3.59871 17.2328C3.48997 17.0508 3.40959 16.8345 3.35759 16.5839C3.30558 16.3333 3.27958 16.0603 3.27958 15.7648C3.27958 15.422 3.31031 15.1076 3.37177 14.8216C3.43323 14.5356 3.52306 14.2897 3.64126 14.0841C3.76182 13.8784 3.90956 13.7188 4.08449 13.6054C4.26178 13.4895 4.46508 13.4316 4.69438 13.4316C4.92604 13.4316 5.12579 13.4801 5.29362 13.577C5.46146 13.6739 5.59975 13.8099 5.70849 13.9848C5.81959 14.1597 5.90115 14.3689 5.95315 14.6124C6.00516 14.8559 6.03116 15.1242 6.03116 15.4173C6.03116 15.5686 6.0217 15.7329 6.00279 15.9102C5.98625 16.0875 5.9567 16.2648 5.91415 16.4421C5.87396 16.6194 5.81959 16.7907 5.75104 16.9562C5.68248 17.1193 5.5962 17.2647 5.49219 17.3923C5.38818 17.52 5.26407 17.6216 5.11987 17.6973C4.97804 17.7729 4.81257 17.8108 4.62346 17.8108ZM5.17661 15.1549C5.17661 14.9753 5.16834 14.8145 5.15179 14.6727C5.13524 14.5285 5.10806 14.4067 5.07024 14.3075C5.03478 14.2082 4.98868 14.1325 4.93195 14.0805C4.87758 14.0262 4.81139 13.999 4.73338 13.999C4.64828 13.999 4.56909 14.0439 4.49581 14.1337C4.42253 14.2235 4.35752 14.3536 4.30079 14.5238C4.24642 14.694 4.20268 14.902 4.16959 15.1478C4.13886 15.3913 4.12349 15.6667 4.12349 15.974C4.12349 16.1726 4.13295 16.351 4.15186 16.5094C4.17077 16.6654 4.19914 16.799 4.23696 16.9101C4.27478 17.0188 4.32088 17.1028 4.37525 17.1619C4.43198 17.2186 4.49817 17.247 4.57381 17.247C4.64946 17.247 4.71683 17.2162 4.77593 17.1548C4.83503 17.0909 4.88585 17.0058 4.9284 16.8995C4.97331 16.7931 5.01114 16.6702 5.04187 16.5307C5.07496 16.3889 5.10096 16.2411 5.11988 16.0875C5.13879 15.9315 5.15297 15.7731 5.16243 15.6123C5.17188 15.4516 5.17661 15.2991 5.17661 15.1549ZM4.35042 21.226C4.32678 21.5806 4.30669 21.9033 4.29014 22.1941C4.27359 22.4825 4.25941 22.7531 4.24759 23.0061C4.23814 23.259 4.23104 23.5013 4.22632 23.733C4.22159 23.9646 4.21922 24.1998 4.21922 24.4386C4.33269 24.3133 4.43788 24.1797 4.5348 24.0379C4.63172 23.8937 4.71919 23.746 4.7972 23.5947C4.87757 23.441 4.94731 23.285 5.0064 23.1266C5.06786 22.9682 5.11987 22.8122 5.16242 22.6586L6.12335 22.7437C6.01461 22.973 5.90705 23.1763 5.80067 23.3536C5.6943 23.5308 5.59147 23.6869 5.49218 23.8216C5.39526 23.954 5.30425 24.0663 5.21915 24.1585C5.13642 24.2507 5.06195 24.3263 4.99576 24.3854C5.09505 24.4185 5.18133 24.4575 5.25461 24.5024C5.32789 24.5473 5.38817 24.5899 5.43545 24.6301C5.49218 24.6773 5.53946 24.727 5.57728 24.779C5.6222 24.8523 5.65766 24.9362 5.68366 25.0307C5.71203 25.1229 5.73566 25.221 5.75458 25.325C5.77585 25.4291 5.79594 25.5378 5.81486 25.6513C5.83613 25.7624 5.86213 25.8747 5.89286 25.9881C5.92359 26.1016 5.96378 26.2139 6.01342 26.325C6.06306 26.4337 6.12807 26.5377 6.20844 26.637H5.26525C5.21797 26.5165 5.17897 26.3947 5.14823 26.2718C5.11987 26.1489 5.09623 26.0378 5.07732 25.9385C5.05604 25.8226 5.04068 25.7092 5.03122 25.5981C5.00995 25.4539 4.96858 25.325 4.90712 25.2116C4.88111 25.1619 4.84802 25.1147 4.80783 25.0697C4.77001 25.0225 4.72392 24.9811 4.66955 24.9456C4.61754 24.9078 4.55726 24.8783 4.48871 24.857C4.42015 24.8334 4.34215 24.8215 4.25468 24.8215H4.21922C4.21922 25.0887 4.2204 25.3735 4.22277 25.6761C4.2275 25.9787 4.23577 26.3191 4.24759 26.6973L3.36822 26.6796C3.38949 26.3462 3.4084 26.0425 3.42495 25.7683C3.4415 25.4941 3.4545 25.2376 3.46396 24.9988C3.47578 24.7577 3.48405 24.5284 3.48878 24.3109C3.49587 24.0935 3.49942 23.8736 3.49942 23.6514C3.49942 23.4836 3.49823 23.311 3.49587 23.1337C3.49351 22.9541 3.48878 22.7661 3.48169 22.5699C3.47696 22.3714 3.46987 22.161 3.46041 21.9388C3.45096 21.7142 3.44032 21.4719 3.4285 21.2119L4.35042 21.226ZM5.97441 34.8463C5.97441 34.9858 5.9425 35.117 5.87867 35.2399C5.81485 35.3628 5.72857 35.4692 5.61983 35.559C5.51109 35.6488 5.38344 35.7197 5.23687 35.7718C5.09031 35.8238 4.93429 35.8498 4.76882 35.8498C4.65772 35.8498 4.54543 35.8344 4.43197 35.8037C4.3185 35.7729 4.20976 35.7221 4.10575 35.6512C4.00174 35.5803 3.90363 35.4869 3.81144 35.3711C3.71925 35.2552 3.63888 35.1134 3.57033 34.9456C3.50414 34.7777 3.45095 34.5815 3.41076 34.357C3.37294 34.13 3.35403 33.87 3.35403 33.5769C3.35403 33.3003 3.37294 33.0556 3.41076 32.8429C3.45095 32.6301 3.50414 32.4446 3.57033 32.2862C3.63888 32.1278 3.71807 31.9954 3.8079 31.889C3.89773 31.7803 3.99347 31.6928 4.09511 31.6267C4.19912 31.5581 4.3055 31.5096 4.41424 31.4813C4.52534 31.4529 4.63408 31.4387 4.74046 31.4387C4.89884 31.4387 5.04895 31.4647 5.19078 31.5167C5.33262 31.5664 5.45672 31.6408 5.5631 31.7401C5.66947 31.8394 5.75339 31.9623 5.81485 32.1089C5.87868 32.2531 5.91059 32.4197 5.91059 32.6089C5.91059 32.7791 5.87513 32.9516 5.80421 33.1265C5.73566 33.2991 5.63283 33.4634 5.49572 33.6194C5.35862 33.7731 5.18842 33.9137 4.98512 34.0414C4.78419 34.1667 4.55253 34.2659 4.29013 34.3392C4.30432 34.4858 4.32441 34.6194 4.35041 34.7399C4.37878 34.8605 4.41306 34.9633 4.45324 35.0484C4.49579 35.1335 4.54425 35.1997 4.59862 35.247C4.65535 35.2942 4.72036 35.3179 4.79364 35.3179C4.84092 35.3155 4.88584 35.3072 4.92839 35.2931C4.96621 35.2812 5.00403 35.2623 5.04185 35.2363C5.08204 35.2103 5.11513 35.1725 5.14114 35.1229C5.07968 35.0945 5.0324 35.0579 4.9993 35.0129C4.96621 34.968 4.94139 34.9255 4.92484 34.8853C4.90593 34.838 4.89529 34.7884 4.89293 34.7364C4.89293 34.6229 4.91538 34.5307 4.9603 34.4598C5.00521 34.3889 5.0584 34.3333 5.11986 34.2931C5.18132 34.2529 5.24397 34.2258 5.30779 34.2116C5.37162 34.195 5.42244 34.1868 5.46026 34.1868C5.50045 34.1868 5.54891 34.195 5.60564 34.2116C5.66474 34.2281 5.72147 34.26 5.77584 34.3073C5.83021 34.3546 5.87631 34.422 5.91413 34.5094C5.95432 34.5945 5.97441 34.7068 5.97441 34.8463ZM5.09859 32.6159C5.09859 32.5308 5.09031 32.4505 5.07377 32.3748C5.05958 32.2968 5.03713 32.2294 5.0064 32.1727C4.97803 32.116 4.94139 32.0711 4.89648 32.038C4.85392 32.0025 4.80428 31.9848 4.74755 31.9848C4.65063 31.9848 4.57144 32.0297 4.50998 32.1195C4.44852 32.207 4.39887 32.324 4.36105 32.4706C4.32323 32.6171 4.29723 32.7861 4.28304 32.9776C4.26886 33.1691 4.26177 33.3688 4.26177 33.5769L4.26177 33.8357C4.38233 33.7719 4.49343 33.6962 4.59508 33.6088C4.69909 33.5213 4.78773 33.4256 4.86102 33.3216C4.93666 33.2152 4.99458 33.1029 5.03476 32.9847C5.07731 32.8665 5.09859 32.7436 5.09859 32.6159ZM4.36459 44.754L3.41785 44.8249C3.45567 44.4018 3.48285 43.994 3.4994 43.6016C3.51831 43.2068 3.52777 42.8121 3.52777 42.4173C3.52777 42.1384 3.52304 41.8594 3.51359 41.5805C3.50649 41.2992 3.49231 41.0108 3.47104 40.7153L4.26885 40.6727C4.26413 40.7248 4.26058 40.7756 4.25822 40.8252C4.25585 40.8749 4.25467 40.9233 4.25467 40.9706C4.33741 40.8429 4.42723 40.7437 4.52415 40.6727C4.62344 40.5995 4.71563 40.5463 4.80073 40.5132C4.89765 40.473 4.99575 40.4482 5.09504 40.4387C5.2676 40.4387 5.41534 40.4659 5.53827 40.5203C5.66119 40.5723 5.76166 40.6408 5.83966 40.7259C5.91767 40.8087 5.97441 40.902 6.00987 41.0061C6.04532 41.1077 6.06305 41.207 6.06305 41.3039C6.06305 41.4032 6.05242 41.5037 6.03114 41.6053C6.00986 41.707 5.97322 41.7991 5.92122 41.8819C5.87158 41.9623 5.80421 42.0284 5.7191 42.0805C5.63637 42.1301 5.53354 42.1549 5.41062 42.1549C5.28769 42.1549 5.19077 42.1325 5.11986 42.0875C5.04894 42.0426 4.99457 41.9894 4.95675 41.928C4.92129 41.8642 4.89765 41.7991 4.88583 41.733C4.87637 41.6644 4.87165 41.6065 4.87165 41.5592C4.87165 41.5261 4.87756 41.4895 4.88938 41.4493C4.9012 41.4067 4.91893 41.3642 4.94256 41.3216C4.9662 41.2791 4.99575 41.2377 5.03121 41.1975C5.06667 41.155 5.10804 41.116 5.15532 41.0805C5.14113 41.0758 5.12577 41.0722 5.10922 41.0699C5.09504 41.0675 5.08085 41.0663 5.06667 41.0663C4.94847 41.0663 4.84328 41.1042 4.75109 41.1798C4.6589 41.2531 4.57852 41.3559 4.50997 41.4883C4.44378 41.6207 4.38823 41.7767 4.34332 41.9563C4.30076 42.136 4.26885 42.3322 4.24758 42.545C4.2594 42.9114 4.27594 43.2742 4.29722 43.6335C4.31849 43.9928 4.34095 44.3663 4.36459 44.754Z" fill="black"/>
<path d="M55.283 86.6631C55.3019 86.4055 55.3173 86.1797 55.3291 85.9859C55.3409 85.792 55.3504 85.6195 55.3575 85.4682C55.3622 85.3193 55.3658 85.1869 55.3681 85.071C55.3681 84.9552 55.3669 84.8453 55.3646 84.7413C55.3622 84.6373 55.3587 84.5333 55.3539 84.4292C55.3492 84.3276 55.3457 84.2165 55.3433 84.0959C55.3386 83.9754 55.335 83.8395 55.3327 83.6882C55.3279 83.5392 55.3256 83.3643 55.3256 83.1634C55.3256 82.927 55.3492 82.6989 55.3965 82.479C55.4438 82.2592 55.5241 82.0642 55.6376 81.894C55.7511 81.7261 55.9035 81.5914 56.095 81.4897C56.2865 81.3881 56.5264 81.3373 56.8148 81.3373C56.985 81.3373 57.1363 81.3574 57.2687 81.3975C57.3987 81.4377 57.5134 81.4921 57.6126 81.5607C57.7096 81.6292 57.7923 81.7096 57.8609 81.8018C57.927 81.894 57.9814 81.9909 58.024 82.0925C58.0641 82.1965 58.0937 82.3017 58.1126 82.4081C58.1292 82.5168 58.1374 82.6209 58.1374 82.7201C58.1374 82.8525 58.1162 82.9624 58.0736 83.0499C58.0287 83.1374 57.9755 83.2071 57.914 83.2591C57.8502 83.3111 57.7852 83.3478 57.719 83.369C57.6505 83.3903 57.5914 83.4009 57.5417 83.4009C57.4897 83.4009 57.4294 83.3903 57.3609 83.369C57.29 83.3501 57.2226 83.3158 57.1588 83.2662C57.0949 83.2189 57.0418 83.1563 56.9992 83.0783C56.9543 83.0003 56.9318 82.9045 56.9318 82.7911C56.9366 82.7036 56.9555 82.622 56.9886 82.5464C57.0169 82.4826 57.0619 82.4187 57.1233 82.3549C57.1824 82.2935 57.2687 82.2497 57.3822 82.2237C57.3396 82.1552 57.2923 82.0996 57.2403 82.0571C57.186 82.0169 57.1316 81.9862 57.0772 81.9649C57.0205 81.9436 56.9673 81.9294 56.9177 81.9223C56.868 81.9152 56.8266 81.9117 56.7936 81.9117C56.6683 81.9117 56.5678 81.9365 56.4922 81.9862C56.4165 82.0382 56.3586 82.1091 56.3184 82.1989C56.2782 82.2911 56.2522 82.3975 56.2404 82.518C56.2262 82.641 56.2191 82.7733 56.2191 82.9152C56.2191 83.2367 56.2203 83.5546 56.2227 83.869C56.2227 84.1858 56.2262 84.499 56.2333 84.8087C56.2404 85.1183 56.2522 85.4268 56.2688 85.7341C56.2853 86.0414 56.3101 86.3464 56.3432 86.6489C56.3172 86.6442 56.2841 86.6395 56.2439 86.6348C56.1801 86.6277 56.082 86.6241 55.9496 86.6241C55.8669 86.6241 55.77 86.6265 55.6589 86.6312C55.5478 86.6359 55.4225 86.6466 55.283 86.6631ZM56.6305 72.3692C56.8645 72.3692 57.0666 72.42 57.2368 72.5216C57.4046 72.6233 57.5441 72.7651 57.6552 72.9471C57.7639 73.1292 57.8443 73.3455 57.8963 73.596C57.9483 73.8466 57.9743 74.1196 57.9743 74.4151C57.9743 74.7579 57.9436 75.0723 57.8821 75.3583C57.8207 75.6444 57.7308 75.8902 57.6126 76.0959C57.4921 76.3015 57.3443 76.4611 57.1694 76.5746C56.9921 76.6904 56.7888 76.7483 56.5595 76.7483C56.3279 76.7483 56.1281 76.6998 55.9603 76.6029C55.7924 76.506 55.6542 76.3701 55.5454 76.1951C55.4343 76.0202 55.3528 75.811 55.3008 75.5675C55.2487 75.3241 55.2227 75.0557 55.2227 74.7626C55.2227 74.6113 55.2322 74.447 55.2511 74.2698C55.2677 74.0925 55.2972 73.9152 55.3398 73.7379C55.3799 73.5606 55.4343 73.3892 55.5029 73.2237C55.5714 73.0606 55.6577 72.9152 55.7617 72.7876C55.8657 72.6599 55.9898 72.5583 56.134 72.4826C56.2759 72.407 56.4413 72.3692 56.6305 72.3692ZM56.0773 75.025C56.0773 75.2047 56.0856 75.3654 56.1021 75.5073C56.1187 75.6515 56.1458 75.7732 56.1837 75.8725C56.2191 75.9718 56.2652 76.0474 56.322 76.0994C56.3763 76.1538 56.4425 76.181 56.5205 76.181C56.6056 76.181 56.6848 76.1361 56.7581 76.0462C56.8314 75.9564 56.8964 75.8264 56.9531 75.6562C57.0075 75.486 57.0512 75.278 57.0843 75.0321C57.115 74.7886 57.1304 74.5132 57.1304 74.2059C57.1304 74.0074 57.121 73.8289 57.102 73.6705C57.0831 73.5145 57.0548 73.3809 57.0169 73.2698C56.9791 73.1611 56.933 73.0772 56.8787 73.0181C56.8219 72.9613 56.7557 72.933 56.6801 72.933C56.6044 72.933 56.5371 72.9637 56.478 73.0252C56.4189 73.089 56.3681 73.1741 56.3255 73.2805C56.2806 73.3868 56.2428 73.5098 56.212 73.6492C56.1789 73.7911 56.1529 73.9388 56.134 74.0925C56.1151 74.2485 56.1009 74.4069 56.0915 74.5676C56.082 74.7283 56.0773 74.8808 56.0773 75.025ZM56.9035 68.9539C56.9271 68.5993 56.9472 68.2766 56.9638 67.9859C56.9803 67.6975 56.9945 67.4268 57.0063 67.1739C57.0158 66.9209 57.0229 66.6786 57.0276 66.447C57.0323 66.2153 57.0347 65.9801 57.0347 65.7413C56.9212 65.8666 56.816 66.0002 56.7191 66.142C56.6222 66.2862 56.5347 66.434 56.4567 66.5853C56.3763 66.7389 56.3066 66.8949 56.2475 67.0533C56.186 67.2117 56.134 67.3677 56.0915 67.5214L55.1306 67.4363C55.2393 67.207 55.3469 67.0037 55.4532 66.8264C55.5596 66.6491 55.6624 66.4931 55.7617 66.3583C55.8586 66.2259 55.9497 66.1137 56.0348 66.0215C56.1175 65.9293 56.192 65.8536 56.2581 65.7945C56.1589 65.7614 56.0726 65.7224 55.9993 65.6775C55.926 65.6326 55.8657 65.5901 55.8185 65.5499C55.7617 65.5026 55.7144 65.453 55.6766 65.4009C55.6317 65.3277 55.5962 65.2437 55.5702 65.1492C55.5419 65.057 55.5182 64.9589 55.4993 64.8549C55.4781 64.7509 55.458 64.6421 55.4391 64.5287C55.4178 64.4176 55.3918 64.3053 55.361 64.1918C55.3303 64.0783 55.2901 63.9661 55.2405 63.855C55.1908 63.7462 55.1258 63.6422 55.0455 63.5429H55.9887C56.0359 63.6635 56.0749 63.7852 56.1057 63.9081C56.134 64.0311 56.1577 64.1422 56.1766 64.2415C56.1979 64.3573 56.2132 64.4708 56.2227 64.5819C56.244 64.7261 56.2853 64.8549 56.3468 64.9684C56.3728 65.018 56.4059 65.0653 56.4461 65.1102C56.4839 65.1575 56.53 65.1988 56.5844 65.2343C56.6364 65.2721 56.6966 65.3017 56.7652 65.3229C56.8338 65.3466 56.9118 65.3584 56.9992 65.3584H57.0347C57.0347 65.0913 57.0335 64.8064 57.0311 64.5038C57.0264 64.2013 57.0181 63.8609 57.0063 63.4826L57.8857 63.5004C57.8644 63.8337 57.8455 64.1374 57.829 64.4117C57.8124 64.6859 57.7994 64.9424 57.7899 65.1811C57.7781 65.4222 57.7699 65.6515 57.7651 65.869C57.758 66.0865 57.7545 66.3063 57.7545 66.5285C57.7545 66.6964 57.7557 66.8689 57.758 67.0462C57.7604 67.2259 57.7651 67.4138 57.7722 67.61C57.7769 67.8086 57.784 68.019 57.7935 68.2412C57.8029 68.4657 57.8136 68.708 57.8254 68.9681L56.9035 68.9539ZM55.2795 55.3336C55.2795 55.1942 55.3114 55.063 55.3752 54.9401C55.4391 54.8171 55.5253 54.7108 55.6341 54.6209C55.7428 54.5311 55.8705 54.4602 56.017 54.4082C56.1636 54.3562 56.3196 54.3302 56.4851 54.3302C56.5962 54.3302 56.7085 54.3455 56.8219 54.3763C56.9354 54.407 57.0441 54.4578 57.1482 54.5287C57.2522 54.5997 57.3503 54.693 57.4425 54.8089C57.5347 54.9247 57.615 55.0665 57.6836 55.2344C57.7498 55.4022 57.803 55.5984 57.8431 55.823C57.881 56.0499 57.8999 56.3099 57.8999 56.6031C57.8999 56.8796 57.881 57.1243 57.8431 57.3371C57.803 57.5498 57.7498 57.7354 57.6836 57.8938C57.615 58.0521 57.5358 58.1845 57.446 58.2909C57.3562 58.3996 57.2604 58.4871 57.1588 58.5533C57.0548 58.6218 56.9484 58.6703 56.8397 58.6987C56.7286 58.727 56.6198 58.7412 56.5134 58.7412C56.3551 58.7412 56.205 58.7152 56.0631 58.6632C55.9213 58.6136 55.7972 58.5391 55.6908 58.4398C55.5844 58.3405 55.5005 58.2176 55.4391 58.071C55.3752 57.9268 55.3433 57.7602 55.3433 57.5711C55.3433 57.4009 55.3788 57.2283 55.4497 57.0534C55.5182 56.8808 55.6211 56.7165 55.7582 56.5605C55.8953 56.4069 56.0655 56.2662 56.2688 56.1386C56.4697 56.0133 56.7014 55.914 56.9638 55.8407C56.9496 55.6941 56.9295 55.5606 56.9035 55.44C56.8751 55.3195 56.8409 55.2166 56.8007 55.1315C56.7581 55.0464 56.7097 54.9802 56.6553 54.933C56.5986 54.8857 56.5335 54.862 56.4603 54.862C56.413 54.8644 56.3681 54.8727 56.3255 54.8869C56.2877 54.8987 56.2499 54.9176 56.2121 54.9436C56.1719 54.9696 56.1388 55.0074 56.1128 55.0571C56.1742 55.0854 56.2215 55.1221 56.2546 55.167C56.2877 55.2119 56.3125 55.2545 56.3291 55.2946C56.348 55.3419 56.3586 55.3916 56.361 55.4436C56.361 55.557 56.3385 55.6492 56.2936 55.7201C56.2487 55.7911 56.1955 55.8466 56.134 55.8868C56.0726 55.927 56.0099 55.9542 55.9461 55.9684C55.8823 55.9849 55.8315 55.9932 55.7936 55.9932C55.7535 55.9932 55.705 55.9849 55.6483 55.9684C55.5892 55.9518 55.5324 55.9199 55.4781 55.8726C55.4237 55.8253 55.3776 55.758 55.3398 55.6705C55.2996 55.5854 55.2795 55.4731 55.2795 55.3336ZM56.1553 57.564C56.1553 57.6491 56.1636 57.7295 56.1801 57.8051C56.1943 57.8831 56.2168 57.9505 56.2475 58.0072C56.2759 58.064 56.3125 58.1089 56.3574 58.142C56.4 58.1774 56.4496 58.1951 56.5064 58.1951C56.6033 58.1951 56.6825 58.1502 56.7439 58.0604C56.8054 57.9729 56.855 57.8559 56.8929 57.7094C56.9307 57.5628 56.9567 57.3938 56.9709 57.2023C56.985 57.0108 56.9921 56.8111 56.9921 56.6031L56.9921 56.3442C56.8716 56.408 56.7605 56.4837 56.6588 56.5711C56.5548 56.6586 56.4662 56.7544 56.3929 56.8584C56.3172 56.9647 56.2593 57.077 56.2191 57.1952C56.1766 57.3134 56.1553 57.4363 56.1553 57.564ZM56.8893 45.4259L57.8361 45.355C57.7982 45.7781 57.7711 46.1859 57.7545 46.5783C57.7356 46.9731 57.7261 47.3679 57.7261 47.7626C57.7261 48.0416 57.7309 48.3205 57.7403 48.5994C57.7474 48.8807 57.7616 49.1691 57.7829 49.4646L56.9851 49.5072C56.9898 49.4552 56.9933 49.4044 56.9957 49.3547C56.9981 49.3051 56.9992 49.2566 56.9992 49.2093C56.9165 49.337 56.8267 49.4363 56.7298 49.5072C56.6305 49.5805 56.5383 49.6337 56.4532 49.6667C56.3563 49.7069 56.2582 49.7318 56.1589 49.7412C55.9863 49.7412 55.8386 49.714 55.7156 49.6597C55.5927 49.6076 55.4923 49.5391 55.4142 49.454C55.3362 49.3713 55.2795 49.2779 55.244 49.1739C55.2086 49.0722 55.1909 48.9729 55.1909 48.876C55.1909 48.7767 55.2015 48.6763 55.2228 48.5746C55.244 48.473 55.2807 48.3808 55.3327 48.298C55.3823 48.2177 55.4497 48.1515 55.5348 48.0995C55.6175 48.0498 55.7204 48.025 55.8433 48.025C55.9662 48.025 56.0631 48.0475 56.1341 48.0924C56.205 48.1373 56.2593 48.1905 56.2972 48.252C56.3326 48.3158 56.3563 48.3808 56.3681 48.447C56.3775 48.5155 56.3823 48.5734 56.3823 48.6207C56.3823 48.6538 56.3763 48.6905 56.3645 48.7306C56.3527 48.7732 56.335 48.8157 56.3113 48.8583C56.2877 48.9008 56.2582 48.9422 56.2227 48.9824C56.1872 49.0249 56.1459 49.064 56.0986 49.0994C56.1128 49.1041 56.1281 49.1077 56.1447 49.11C56.1589 49.1124 56.1731 49.1136 56.1872 49.1136C56.3054 49.1136 56.4106 49.0758 56.5028 49.0001C56.595 48.9268 56.6754 48.824 56.7439 48.6916C56.8101 48.5593 56.8657 48.4032 56.9106 48.2236C56.9531 48.0439 56.9851 47.8477 57.0063 47.635C56.9945 47.2686 56.978 46.9057 56.9567 46.5464C56.9354 46.1871 56.913 45.8136 56.8893 45.4259Z" fill="black"/>
<circle cx="9.92944" cy="19.217" r="2.26518" fill="#FBDD24" stroke="black" stroke-width="0.68399"/>
<circle cx="48.6033" cy="18.3484" r="2.26518" fill="#FBDD24" stroke="black" stroke-width="0.68399"/>
<path d="M14.6869 20.5241L14.645 20.4247L14.5536 20.3674L13.4915 19.7005L13.4334 19.664L13.3658 19.6528L13.0306 19.5969L12.9357 18.9802H13.1165H14.0526L16.1947 19.3528L33.0479 27.8185L33.2459 27.918L33.4176 27.7779L44.9543 18.3653L46.1676 17.9821L45.9202 19.1518L44.5256 20.834L44.4722 20.8984L44.4545 20.9802L40.5526 39.0794C39.809 38.5908 39.1442 38.1718 38.5243 37.8528C37.7883 37.4742 37.0953 37.2254 36.3831 37.1701C35.0096 37.0634 33.674 37.6828 31.9165 39.1549C30.6097 37.6247 29.1763 36.8893 27.5212 36.7377C25.8763 36.587 24.044 37.0169 21.9497 37.7343L14.6869 20.5241Z" fill="#D1B167" stroke="black" stroke-width="0.68399"/>
<path d="M17.5337 21.6072L26.9562 36.4303C24.1621 36.7888 23.3988 37.3879 22.3365 38.1627L14.492 20.5209L13.4057 19.8691L12.9712 19.6518L12.9712 19.2173L14.0575 19.4345L16.0129 20.0863L17.5337 21.6072Z" fill="#4C29B0" stroke="black" stroke-width="0.68399"/>
<path d="M38.8258 27.9082L43.3884 20.5212L45.3438 18.7831L46.2129 18.5659L46.2129 17.9141L44.9093 18.1313L33.3942 27.691L32.3271 38.7217C34.6448 37.0107 35.3083 37.0005 36.8799 37.2055L38.8258 27.9082Z" fill="#4C29B0" stroke="black" stroke-width="0.68399"/>
</svg>
