<svg width="61" height="91" fill="none" xmlns="http://www.w3.org/2000/svg"><rect x=".39" y=".05" width="60.06" height="90.09" rx="4.62" fill="#fff"/><mask id="a" style="mask-type:alpha" maskUnits="userSpaceOnUse" x="1" y="1" width="58" height="87"><path d="M11.28 2.36h42.24a4.04 4.04 0 0 1 4.04 4.04v63.94c0 1.37-1.1 2.47-2.46 2.47-1.54 0-2.9.97-3.42 2.42l-2.26 6.4a2.65 2.65 0 0 0 .85 2.95 1.5 1.5 0 0 1-.94 2.67H6.32a4.04 4.04 0 0 1-4.04-4.18l2.04-62.85a2.94 2.94 0 0 1 2.95-2.85 4.1 4.1 0 0 0 4.1-4.1V8.23c0-.96-.46-1.87-1.23-2.44a1.9 1.9 0 0 1 1.14-3.42Z" fill="#C4C4C4" stroke="#000" stroke-width="1.15"/></mask><g mask="url(#a)"><rect x="6.17" y="5.25" width="49.66" height="79.69" rx="4.04" stroke="#000" stroke-width="1.15"/></g><path d="M16.7 19.68h-4.88c1.94-1.13 2.28-2.06 2.44-3.87L11 17.36c-1.78-1.2-1.87-1.87 0-3.1l3.26 1.55-1.63-3.88c1.03-2.02 2.03-1.94 3.25 0l-1.62 3.88 3.66-1.56c1.42 1.22 1.1 1.9 0 3.1l-3.66-1.54c.3 1.81.71 2.72 2.44 3.87Z" fill="#000"/><path d="M14.26 15.8c-.16 1.82-.5 2.75-2.44 3.88h4.88c-1.73-1.15-2.15-2.06-2.44-3.87Zm0 0L11 17.37c-1.78-1.2-1.87-1.87 0-3.1l3.26 1.55Zm0 0 1.62-3.87c-1.22-1.94-2.22-2.02-3.25 0l1.63 3.88Zm0 0 3.66-1.55c1.42 1.22 1.1 1.9 0 3.1l-3.66-1.54Z" stroke="#000" stroke-width="1.15"/><path d="M40.4 60.1h4.28c-1.7 1-2 1.8-2.14 3.4l2.85-1.36c1.56 1.04 1.64 1.64 0 2.72l-2.85-1.36 1.43 3.4c-.9 1.76-1.78 1.7-2.85 0l1.42-3.4-3.2 1.36c-1.25-1.06-.97-1.66 0-2.72l3.2 1.36c-.25-1.6-.62-2.38-2.13-3.4Z" fill="#000"/><path d="M42.54 63.5c.14-1.6.44-2.4 2.14-3.4h-4.27c1.5 1.02 1.88 1.8 2.13 3.4Zm0 0 2.85-1.36c1.56 1.04 1.64 1.64 0 2.72l-2.85-1.36Zm0 0-1.42 3.4c1.07 1.7 1.95 1.76 2.85 0l-1.43-3.4Zm0 0-3.2 1.36c-1.25-1.06-.97-1.66 0-2.72l3.2 1.36Z" stroke="#000" stroke-width="1.15"/><path d="M21.59 60.1h-4.27c1.7 1 2 1.8 2.13 3.4l-2.84-1.36c-1.56 1.04-1.64 1.64 0 2.72l2.84-1.36-1.42 3.4c.9 1.76 1.78 1.7 2.85 0l-1.43-3.4 3.2 1.36c1.25-1.06.98-1.66 0-2.72l-3.2 1.36c.26-1.6.63-2.38 2.14-3.4Z" fill="#000"/><path d="M19.45 63.5c-.13-1.6-.43-2.4-2.13-3.4h4.27c-1.5 1.02-1.88 1.8-2.14 3.4Zm0 0-2.84-1.36c-1.56 1.04-1.64 1.64 0 2.72l2.84-1.36Zm0 0 1.43 3.4c-1.07 1.7-1.95 1.76-2.85 0l1.42-3.4Zm0 0 3.2 1.36c1.25-1.06.98-1.66 0-2.72l-3.2 1.36Z" stroke="#000" stroke-width="1.15"/><path d="M40.4 41.63h4.28c-1.7 1-2 1.8-2.14 3.4l2.85-1.37c1.56 1.05 1.64 1.64 0 2.72l-2.85-1.36 1.43 3.4c-.9 1.76-1.78 1.7-2.85 0l1.42-3.4-3.2 1.36c-1.25-1.06-.97-1.66 0-2.72l3.2 1.36c-.25-1.6-.62-2.38-2.13-3.4Z" fill="#000"/><path d="M42.54 45.02c.14-1.59.44-2.4 2.14-3.4h-4.27c1.5 1.02 1.88 1.8 2.13 3.4Zm0 0 2.85-1.36c1.56 1.05 1.64 1.64 0 2.72l-2.85-1.36Zm0 0-1.42 3.4c1.07 1.7 1.95 1.76 2.85 0l-1.43-3.4Zm0 0-3.2 1.36c-1.25-1.06-.97-1.66 0-2.72l3.2 1.36Z" stroke="#000" stroke-width="1.15"/><path d="M33.14 40.47h-4.27c1.7-1 2-1.8 2.13-3.4l-2.85 1.37c-1.55-1.04-1.63-1.64 0-2.72L31 37.08l-1.42-3.4c.9-1.76 1.78-1.7 2.85 0L31 37.09l3.2-1.36c1.25 1.06.98 1.66 0 2.72L31 37.08c.26 1.6.63 2.38 2.14 3.4Z" fill="#000"/><path d="M31 37.08c-.13 1.6-.43 2.4-2.13 3.4h4.27c-1.51-1.02-1.88-1.8-2.14-3.4Zm0 0-2.85 1.36c-1.55-1.04-1.63-1.64 0-2.72L31 37.08Zm0 0 1.43-3.4c-1.07-1.7-1.95-1.76-2.85 0l1.42 3.4Zm0 0 3.2-1.36c1.25 1.06.98 1.66 0 2.72L31 37.08Z" stroke="#000" stroke-width="1.15"/><path d="M21.59 41.63h-4.27c1.7 1 2 1.8 2.13 3.4l-2.84-1.37c-1.56 1.05-1.64 1.64 0 2.72l2.84-1.36-1.42 3.4c.9 1.76 1.78 1.7 2.85 0l-1.43-3.4 3.2 1.36c1.25-1.06.98-1.66 0-2.72l-3.2 1.36c.26-1.6.63-2.38 2.14-3.4Z" fill="#000"/><path d="M19.45 45.02c-.13-1.59-.43-2.4-2.13-3.4h4.27c-1.5 1.02-1.88 1.8-2.14 3.4Zm0 0-2.84-1.36c-1.56 1.05-1.64 1.64 0 2.72l2.84-1.36Zm0 0 1.43 3.4c-1.07 1.7-1.95 1.76-2.85 0l1.42-3.4Zm0 0 3.2 1.36c1.25-1.06.98-1.66 0-2.72l-3.2 1.36Z" stroke="#000" stroke-width="1.15"/><path d="M21.59 31.23h-4.27c1.7-1 2-1.8 2.13-3.39l-2.84 1.36c-1.56-1.04-1.64-1.64 0-2.72l2.84 1.36-1.42-3.4c.9-1.76 1.78-1.7 2.85 0l-1.43 3.4 3.2-1.36c1.25 1.06.98 1.66 0 2.72l-3.2-1.36c.26 1.6.63 2.38 2.14 3.4Z" fill="#000"/><path d="M19.45 27.84c-.13 1.6-.43 2.4-2.13 3.4h4.27c-1.5-1.02-1.88-1.8-2.14-3.4Zm0 0-2.84 1.36c-1.56-1.04-1.64-1.64 0-2.72l2.84 1.36Zm0 0 1.43-3.4c-1.07-1.7-1.95-1.76-2.85 0l1.42 3.4Zm0 0 3.2-1.36c1.25 1.06.98 1.66 0 2.72l-3.2-1.36Z" stroke="#000" stroke-width="1.15"/><path d="M40.4 31.23h4.28c-1.7-1-2-1.8-2.14-3.39l2.85 1.36c1.56-1.04 1.64-1.64 0-2.72l-2.85 1.36 1.43-3.4c-.9-1.76-1.78-1.7-2.85 0l1.42 3.4-3.2-1.36c-1.25 1.06-.97 1.66 0 2.72l3.2-1.36c-.25 1.6-.62 2.38-2.13 3.4Z" fill="#000"/><path d="M42.54 27.84c.14 1.6.44 2.4 2.14 3.4h-4.27c1.5-1.02 1.88-1.8 2.13-3.4Zm0 0 2.85 1.36c1.56-1.04 1.64-1.64 0-2.72l-2.85 1.36Zm0 0-1.42-3.4c1.07-1.7 1.95-1.76 2.85 0l-1.43 3.4Zm0 0-3.2-1.36c-1.25 1.06-.97 1.66 0 2.72l3.2-1.36Z" stroke="#000" stroke-width="1.15"/><path d="M44.15 70.5h4.88c-1.94 1.14-2.29 2.06-2.44 3.88l3.25-1.55c1.78 1.19 1.87 1.87 0 3.1l-3.25-1.55 1.62 3.88c-1.03 2.01-2.03 1.94-3.25 0l1.63-3.88-3.66 1.55c-1.43-1.21-1.12-1.89 0-3.1l3.66 1.55c-.3-1.82-.72-2.72-2.44-3.88Z" fill="#000"/><path d="M46.59 74.38c.15-1.82.5-2.74 2.44-3.88h-4.88c1.72 1.16 2.14 2.06 2.44 3.88Zm0 0 3.25-1.55c1.78 1.19 1.87 1.87 0 3.1l-3.25-1.55Zm0 0-1.63 3.88c1.22 1.94 2.22 2.01 3.25 0l-1.62-3.88Zm0 0-3.66 1.55c-1.43-1.21-1.12-1.89 0-3.1l3.66 1.55Z" stroke="#000" stroke-width="1.15"/><path d="M4.34 5.53a679.38 679.38 0 0 0 3.6-.08h.3l.11.01v.08l.01.17v.23a107.11 107.11 0 0 1 .04.93c-.12.3-.26.65-.4 1.06a32.12 32.12 0 0 0-.76 2.73 48.48 48.48 0 0 0-.57 2.71l-.16 1.05-1.57-.06a18.54 18.54 0 0 1 .46-2.33 38.84 38.84 0 0 1 .75-2.63 51.26 51.26 0 0 1 .87-2.45l-2.68.09v-1.5ZM56.5 84.65a671.14 671.14 0 0 0-3.6.08h-.41v-.26l-.02-.22a108.2 108.2 0 0 1-.03-.93c.13-.3.26-.66.4-1.07a32.27 32.27 0 0 0 .76-2.73 48.63 48.63 0 0 0 .57-2.7c.07-.41.13-.76.16-1.06l1.58.07a18.53 18.53 0 0 1-.47 2.33 38.86 38.86 0 0 1-.75 2.62 51.18 51.18 0 0 1-.87 2.45l2.68-.08v1.5Z" fill="#000"/></svg>