<svg width="113" height="25" viewBox="0 0 113 25" fill="none" xmlns="http://www.w3.org/2000/svg">
<mask id="path-1-outside-1_1598_9502" maskUnits="userSpaceOnUse" x="-0.308594" y="-0.269531" width="113" height="25" fill="black">
<rect fill="white" x="-0.308594" y="-0.269531" width="113" height="25"/>
<path d="M7.47266 21.4102C6.88672 21.4102 6.30859 21.3086 5.73828 21.1055C5.16797 20.9023 4.65625 20.5977 4.20312 20.1914C3.75781 19.7852 3.39453 19.2812 3.11328 18.6797C2.83203 18.0703 2.69141 17.3633 2.69141 16.5586C2.69141 16.0195 2.76562 15.5391 2.91406 15.1172C3.07031 14.6953 3.26953 14.3281 3.51172 14.0156C3.76172 13.6953 4.03906 13.4219 4.34375 13.1953C4.65625 12.9688 4.97266 12.7852 5.29297 12.6445C4.97266 12.4648 4.65625 12.2422 4.34375 11.9766C4.03906 11.7031 3.76172 11.3867 3.51172 11.0273C3.26953 10.6602 3.07031 10.2461 2.91406 9.78516C2.76562 9.32422 2.69141 8.81641 2.69141 8.26172C2.69141 7.45703 2.83203 6.75391 3.11328 6.15234C3.39453 5.54297 3.75781 5.03516 4.20312 4.62891C4.65625 4.22266 5.16797 3.91797 5.73828 3.71484C6.30859 3.51172 6.88672 3.41016 7.47266 3.41016C8.05859 3.41016 8.63281 3.51172 9.19531 3.71484C9.76562 3.91797 10.2773 4.22266 10.7305 4.62891C11.1836 5.03516 11.5469 5.54297 11.8203 6.15234C12.1016 6.75391 12.2422 7.45703 12.2422 8.26172C12.2422 8.81641 12.168 9.32422 12.0195 9.78516C11.8711 10.2461 11.6719 10.6602 11.4219 11.0273C11.1797 11.3867 10.9023 11.7031 10.5898 11.9766C10.2852 12.2422 9.97266 12.4648 9.65234 12.6445C9.97266 12.7852 10.2852 12.9688 10.5898 13.1953C10.9023 13.4219 11.1797 13.6953 11.4219 14.0156C11.6719 14.3281 11.8711 14.6953 12.0195 15.1172C12.168 15.5391 12.2422 16.0195 12.2422 16.5586C12.2422 17.3633 12.1016 18.0703 11.8203 18.6797C11.5469 19.2812 11.1836 19.7852 10.7305 20.1914C10.2773 20.5977 9.76562 20.9023 9.19531 21.1055C8.63281 21.3086 8.05859 21.4102 7.47266 21.4102ZM9.44141 7.65234C9.44141 7.33984 9.38281 7.05469 9.26562 6.79688C9.14844 6.53125 8.99609 6.30469 8.80859 6.11719C8.62891 5.92969 8.42578 5.78516 8.19922 5.68359C7.98047 5.57422 7.76172 5.51953 7.54297 5.51953C7.29297 5.51953 7.04297 5.57422 6.79297 5.68359C6.55078 5.78516 6.33203 5.92969 6.13672 6.11719C5.94922 6.30469 5.79688 6.53125 5.67969 6.79688C5.5625 7.05469 5.50391 7.33984 5.50391 7.65234C5.50391 8.27734 5.5625 8.8125 5.67969 9.25781C5.80469 9.70312 5.96094 10.0781 6.14844 10.3828C6.34375 10.6875 6.55469 10.9336 6.78125 11.1211C7.01562 11.3008 7.24609 11.4414 7.47266 11.543C7.69141 11.4336 7.91406 11.2852 8.14062 11.0977C8.375 10.9102 8.58594 10.6641 8.77344 10.3594C8.96875 10.0469 9.12891 9.67188 9.25391 9.23438C9.37891 8.78906 9.44141 8.26172 9.44141 7.65234ZM5.50391 17.1562C5.50391 17.4766 5.56641 17.7695 5.69141 18.0352C5.81641 18.293 5.97656 18.5156 6.17188 18.7031C6.36719 18.8906 6.58594 19.0391 6.82812 19.1484C7.07031 19.25 7.30859 19.3008 7.54297 19.3008C7.76172 19.3008 7.98047 19.25 8.19922 19.1484C8.42578 19.0391 8.62891 18.8906 8.80859 18.7031C8.99609 18.5156 9.14844 18.293 9.26562 18.0352C9.38281 17.7695 9.44141 17.4766 9.44141 17.1562C9.44141 16.5703 9.37891 16.0664 9.25391 15.6445C9.13672 15.2227 8.98047 14.8672 8.78516 14.5781C8.59766 14.2891 8.38672 14.0586 8.15234 13.8867C7.91797 13.7148 7.69141 13.582 7.47266 13.4883C7.24609 13.582 7.01562 13.7148 6.78125 13.8867C6.55469 14.0586 6.34375 14.2891 6.14844 14.5781C5.96094 14.8594 5.80469 15.2109 5.67969 15.6328C5.5625 16.0547 5.50391 16.5625 5.50391 17.1562Z"/>
<path d="M17.9834 10.6992C17.9834 10.9102 17.9405 11.1094 17.8545 11.2969C17.7764 11.4844 17.667 11.6484 17.5264 11.7891C17.3936 11.9219 17.2334 12.0312 17.0459 12.1172C16.8584 12.1953 16.6592 12.2344 16.4483 12.2344C16.2295 12.2344 16.0264 12.1953 15.8389 12.1172C15.6514 12.0312 15.4873 11.9219 15.3467 11.7891C15.2061 11.6484 15.0928 11.4844 15.0069 11.2969C14.9288 11.1094 14.8897 10.9102 14.8897 10.6992C14.8897 10.4883 14.9288 10.2891 15.0069 10.1016C15.0928 9.90625 15.2061 9.73828 15.3467 9.59766C15.4873 9.45703 15.6514 9.34766 15.8389 9.26953C16.0264 9.18359 16.2295 9.14062 16.4483 9.14062C16.6592 9.14062 16.8584 9.18359 17.0459 9.26953C17.2334 9.34766 17.3936 9.45703 17.5264 9.59766C17.667 9.73828 17.7764 9.90625 17.8545 10.1016C17.9405 10.2891 17.9834 10.4883 17.9834 10.6992ZM17.9834 19.8984C17.9834 20.1094 17.9405 20.3086 17.8545 20.4961C17.7764 20.6758 17.667 20.8359 17.5264 20.9766C17.3936 21.1172 17.2334 21.2266 17.0459 21.3047C16.8584 21.3906 16.6592 21.4336 16.4483 21.4336C16.2295 21.4336 16.0264 21.3906 15.8389 21.3047C15.6514 21.2266 15.4873 21.1172 15.3467 20.9766C15.2061 20.8359 15.0928 20.6758 15.0069 20.4961C14.9288 20.3086 14.8897 20.1094 14.8897 19.8984C14.8897 19.6797 14.9288 19.4766 15.0069 19.2891C15.0928 19.1016 15.2061 18.9375 15.3467 18.7969C15.4873 18.6562 15.6514 18.5469 15.8389 18.4688C16.0264 18.3828 16.2295 18.3398 16.4483 18.3398C16.6592 18.3398 16.8584 18.3828 17.0459 18.4688C17.2334 18.5469 17.3936 18.6562 17.5264 18.7969C17.667 18.9375 17.7764 19.1016 17.8545 19.2891C17.9405 19.4766 17.9834 19.6797 17.9834 19.8984Z"/>
<path d="M36.8019 12.9609C36.8019 14.2344 36.6808 15.3359 36.4386 16.2656C36.2042 17.1875 35.8995 17.9766 35.5245 18.6328C35.1495 19.2812 34.7277 19.8086 34.2589 20.2148C33.7902 20.6211 33.3214 20.9336 32.8527 21.1523C32.3839 21.3789 31.9425 21.5312 31.5284 21.6094C31.1144 21.6953 30.7745 21.7383 30.5089 21.7383C30.4464 21.7383 30.3058 21.7344 30.087 21.7266C29.8761 21.7188 29.6144 21.6992 29.3019 21.668C28.9894 21.6445 28.6339 21.6055 28.2355 21.5508C27.8448 21.4961 27.4347 21.418 27.005 21.3164C27.0128 19.7695 27.0206 18.4297 27.0284 17.2969C27.0441 16.1562 27.0558 15.1758 27.0636 14.3555C27.0714 13.5352 27.0792 12.8477 27.087 12.293C27.0948 11.7383 27.0987 11.2617 27.0987 10.8633C27.1066 10.4648 27.1105 10.125 27.1105 9.84375C27.1183 9.55469 27.1222 9.27344 27.1222 9C27.1222 8.57031 27.1183 8.12891 27.1105 7.67578C27.1027 7.21484 27.087 6.76953 27.0636 6.33984C27.0402 5.91016 27.0089 5.50781 26.9698 5.13281C26.9308 4.75781 26.88 4.4375 26.8175 4.17188C27.4269 4.13281 27.9816 4.10938 28.4816 4.10156C28.9894 4.08594 29.4269 4.07812 29.7941 4.07812C30.7159 4.07812 31.5284 4.19141 32.2316 4.41797C32.9347 4.63672 33.5441 4.94531 34.0597 5.34375C34.5831 5.73438 35.0167 6.20703 35.3605 6.76172C35.712 7.30859 35.9933 7.91016 36.2042 8.56641C36.423 9.22266 36.5753 9.92578 36.6612 10.6758C36.755 11.418 36.8019 12.1797 36.8019 12.9609ZM33.755 12.5977C33.755 11.2148 33.6886 10.0898 33.5558 9.22266C33.4308 8.34766 33.2237 7.66797 32.9347 7.18359C32.6534 6.69922 32.2823 6.37109 31.8214 6.19922C31.3683 6.01953 30.8175 5.92969 30.1691 5.92969H29.8175L29.9581 19.6992C30.1144 19.7617 30.2589 19.8047 30.3917 19.8281C30.5323 19.8438 30.6691 19.8516 30.8019 19.8516C31.3253 19.8516 31.7706 19.7305 32.1378 19.4883C32.5128 19.2383 32.8175 18.832 33.0519 18.2695C33.2941 17.6992 33.4698 16.9531 33.5792 16.0312C33.6964 15.1016 33.755 13.957 33.755 12.5977Z"/>
<path d="M42.4494 4.55859C42.4494 4.80859 42.4025 5.04688 42.3088 5.27344C42.215 5.49219 42.0861 5.68359 41.922 5.84766C41.758 6.01172 41.5627 6.14453 41.3361 6.24609C41.1173 6.33984 40.883 6.38672 40.633 6.38672C40.383 6.38672 40.1447 6.33984 39.9181 6.24609C39.6994 6.14453 39.508 6.01172 39.3439 5.84766C39.1798 5.68359 39.047 5.49219 38.9455 5.27344C38.8517 5.04688 38.8048 4.80859 38.8048 4.55859C38.8048 4.30859 38.8517 4.07422 38.9455 3.85547C39.047 3.62891 39.1798 3.43359 39.3439 3.26953C39.508 3.10547 39.6994 2.97656 39.9181 2.88281C40.1447 2.78125 40.383 2.73047 40.633 2.73047C40.883 2.73047 41.1173 2.78125 41.3361 2.88281C41.5627 2.97656 41.758 3.10547 41.922 3.26953C42.0861 3.43359 42.215 3.62891 42.3088 3.85547C42.4025 4.07422 42.4494 4.30859 42.4494 4.55859ZM42.4494 8.10938C42.3869 8.72656 42.3322 9.39453 42.2853 10.1133C42.2463 10.8242 42.2111 11.5547 42.1798 12.3047C42.1564 13.0547 42.1369 13.8086 42.1213 14.5664C42.1056 15.3242 42.0939 16.0469 42.0861 16.7344C42.0783 17.4219 42.0705 18.0664 42.0627 18.668C42.0627 19.2617 42.0627 19.7734 42.0627 20.2031V21.5273L39.4025 21.6211C39.4181 21.082 39.4259 20.5586 39.4259 20.0508C39.4259 19.543 39.4259 19.0352 39.4259 18.5273C39.4259 17.6445 39.4181 16.7852 39.4025 15.9492C39.3869 15.1055 39.3595 14.2617 39.3205 13.418C39.2892 12.5742 39.2463 11.7188 39.1916 10.8516C39.1369 9.98438 39.0705 9.08594 38.9923 8.15625L42.4494 8.10938Z"/>
<path d="M53.2766 18.4805C53.2766 18.9414 53.1711 19.375 52.9602 19.7812C52.7492 20.1875 52.4641 20.5391 52.1047 20.8359C51.7453 21.1328 51.3234 21.3672 50.8391 21.5391C50.3547 21.7109 49.8391 21.7969 49.2922 21.7969C48.925 21.7969 48.5539 21.7461 48.1789 21.6445C47.8039 21.543 47.4445 21.375 47.1008 21.1406C46.757 20.9062 46.4328 20.5977 46.1281 20.2148C45.8234 19.832 45.5578 19.3633 45.3312 18.8086C45.1125 18.2539 44.9367 17.6055 44.8039 16.8633C44.6789 16.1133 44.6164 15.2539 44.6164 14.2852C44.6164 13.3711 44.6789 12.5625 44.8039 11.8594C44.9367 11.1562 45.1125 10.543 45.3312 10.0195C45.5578 9.49609 45.8195 9.05859 46.1164 8.70703C46.4133 8.34766 46.7297 8.05859 47.0656 7.83984C47.4094 7.61328 47.7609 7.45312 48.1203 7.35938C48.4875 7.26562 48.8469 7.21875 49.1984 7.21875C49.7219 7.21875 50.218 7.30469 50.6867 7.47656C51.1555 7.64062 51.5656 7.88672 51.9172 8.21484C52.2687 8.54297 52.5461 8.94922 52.7492 9.43359C52.9602 9.91016 53.0656 10.4609 53.0656 11.0859C53.0656 11.6484 52.9484 12.2188 52.7141 12.7969C52.4875 13.3672 52.1477 13.9102 51.6945 14.4258C51.2414 14.9336 50.6789 15.3984 50.007 15.8203C49.343 16.2344 48.5773 16.5625 47.7102 16.8047C47.757 17.2891 47.8234 17.7305 47.9094 18.1289C48.0031 18.5273 48.1164 18.8672 48.2492 19.1484C48.3898 19.4297 48.55 19.6484 48.7297 19.8047C48.9172 19.9609 49.132 20.0391 49.3742 20.0391C49.5305 20.0312 49.6789 20.0039 49.8195 19.957C49.9445 19.918 50.0695 19.8555 50.1945 19.7695C50.3273 19.6836 50.4367 19.5586 50.5227 19.3945C50.3195 19.3008 50.1633 19.1797 50.0539 19.0312C49.9445 18.8828 49.8625 18.7422 49.8078 18.6094C49.7453 18.4531 49.7102 18.2891 49.7023 18.1172C49.7023 17.7422 49.7766 17.4375 49.925 17.2031C50.0734 16.9688 50.2492 16.7852 50.4523 16.6523C50.6555 16.5195 50.8625 16.4297 51.0734 16.3828C51.2844 16.3281 51.4523 16.3008 51.5773 16.3008C51.7102 16.3008 51.8703 16.3281 52.0578 16.3828C52.2531 16.4375 52.4406 16.543 52.6203 16.6992C52.8 16.8555 52.9523 17.0781 53.0773 17.3672C53.2102 17.6484 53.2766 18.0195 53.2766 18.4805ZM50.382 11.1094C50.382 10.8281 50.3547 10.5625 50.3 10.3125C50.2531 10.0547 50.1789 9.83203 50.0773 9.64453C49.9836 9.45703 49.8625 9.30859 49.7141 9.19922C49.5734 9.08203 49.4094 9.02344 49.2219 9.02344C48.9016 9.02344 48.6398 9.17188 48.4367 9.46875C48.2336 9.75781 48.0695 10.1445 47.9445 10.6289C47.8195 11.1133 47.7336 11.6719 47.6867 12.3047C47.6398 12.9375 47.6164 13.5977 47.6164 14.2852V15.1406C48.0148 14.9297 48.382 14.6797 48.718 14.3906C49.0617 14.1016 49.3547 13.7852 49.5969 13.4414C49.8469 13.0898 50.0383 12.7188 50.1711 12.3281C50.3117 11.9375 50.382 11.5312 50.382 11.1094Z"/>
<path d="M58.7834 3.36328C58.6897 4.38672 58.6077 5.40234 58.5373 6.41016C58.467 7.41016 58.4045 8.41797 58.3498 9.43359C58.6155 8.95703 58.9006 8.58984 59.2053 8.33203C59.51 8.06641 59.7952 7.87109 60.0608 7.74609C60.3733 7.60547 60.678 7.51953 60.9748 7.48828C61.5373 7.48828 62.0373 7.60547 62.4748 7.83984C62.9123 8.07422 63.2795 8.47656 63.5764 9.04688C63.8811 9.60938 64.1116 10.3633 64.2678 11.3086C64.4241 12.2461 64.5022 13.4219 64.5022 14.8359C64.5022 16.1406 64.3772 17.2383 64.1272 18.1289C63.885 19.0117 63.5686 19.7266 63.178 20.2734C62.7952 20.8125 62.3655 21.1992 61.8889 21.4336C61.4202 21.6758 60.9553 21.7969 60.4944 21.7969C60.4475 21.7969 60.342 21.7852 60.178 21.7617C60.0217 21.7461 59.8303 21.6875 59.6037 21.5859C59.3772 21.4922 59.135 21.3477 58.8772 21.1523C58.6194 20.957 58.3733 20.6836 58.1389 20.332V21.6211L55.5022 21.5742C55.5725 20.4336 55.6194 19.2969 55.6428 18.1641C55.6741 17.0312 55.6897 15.8984 55.6897 14.7656C55.6897 12.8594 55.6584 10.9688 55.5959 9.09375C55.5334 7.21094 55.4592 5.31641 55.3733 3.41016L58.7834 3.36328ZM59.6272 19.6289C59.6662 19.6445 59.7053 19.6523 59.7444 19.6523C59.7912 19.6523 59.8381 19.6523 59.885 19.6523C60.0959 19.6523 60.3147 19.582 60.5412 19.4414C60.7756 19.293 60.9866 19.0352 61.1741 18.668C61.3616 18.3008 61.5178 17.8047 61.6428 17.1797C61.7678 16.5469 61.8303 15.7422 61.8303 14.7656C61.8303 13.8906 61.7873 13.1641 61.7014 12.5859C61.6233 12 61.5139 11.5312 61.3733 11.1797C61.2327 10.8281 61.0686 10.582 60.8811 10.4414C60.6936 10.293 60.4983 10.2188 60.2952 10.2188C60.0842 10.2188 59.8889 10.2773 59.7092 10.3945C59.5373 10.5039 59.3811 10.6523 59.2405 10.8398C59.0998 11.0195 58.9709 11.2266 58.8537 11.4609C58.7444 11.6953 58.6467 11.9297 58.5608 12.1641C58.4748 12.3906 58.4006 12.6133 58.3381 12.832C58.2834 13.043 58.2405 13.2227 58.2092 13.3711C58.1623 14.9102 58.1389 16.4375 58.1389 17.9531C58.3186 18.3281 58.4983 18.625 58.678 18.8438C58.8577 19.0625 59.0178 19.2305 59.1584 19.3477C59.3225 19.4883 59.4787 19.582 59.6272 19.6289Z"/>
<path d="M74.9544 10.4414C74.9544 10.8008 74.888 11.1055 74.7552 11.3555C74.6223 11.6055 74.4622 11.8086 74.2747 11.9648C74.0872 12.1211 73.8919 12.2344 73.6888 12.3047C73.4856 12.375 73.3138 12.4102 73.1731 12.4102C73.0325 12.4102 72.8645 12.3867 72.6692 12.3398C72.4739 12.2852 72.2864 12.1914 72.1067 12.0586C71.9348 11.9258 71.7864 11.75 71.6614 11.5312C71.5364 11.3047 71.4739 11.0195 71.4739 10.6758C71.4817 10.4883 71.5169 10.3047 71.5794 10.125C71.6341 9.96875 71.7161 9.80859 71.8255 9.64453C71.9427 9.47266 72.1067 9.32031 72.3177 9.1875C72.177 8.98438 72.0364 8.82812 71.8958 8.71875C71.7552 8.60938 71.6302 8.52734 71.5208 8.47266C71.388 8.41016 71.2669 8.37109 71.1575 8.35547C70.9153 8.35547 70.6966 8.40625 70.5013 8.50781C70.3059 8.60156 70.138 8.73047 69.9973 8.89453C69.8645 9.05078 69.7591 9.23438 69.6809 9.44531C69.6106 9.65625 69.5755 9.875 69.5755 10.1016C69.5755 10.3906 69.595 10.6523 69.6341 10.8867C69.6731 11.1211 69.763 11.3594 69.9036 11.6016C70.0442 11.8438 70.2552 12.1055 70.5364 12.3867C70.8177 12.668 71.2005 12.9961 71.6848 13.3711C72.1692 13.7461 72.5911 14.1133 72.9505 14.4727C73.3098 14.8242 73.6067 15.1719 73.8411 15.5156C74.0755 15.8594 74.2513 16.207 74.3684 16.5586C74.4856 16.9023 74.5442 17.2617 74.5442 17.6367C74.5442 17.8867 74.5169 18.1602 74.4622 18.457C74.4153 18.7461 74.3294 19.043 74.2044 19.3477C74.0872 19.6445 73.927 19.9336 73.7239 20.2148C73.5286 20.4883 73.2825 20.7344 72.9856 20.9531C72.6966 21.1719 72.3528 21.3438 71.9544 21.4688C71.5638 21.6016 71.1145 21.668 70.6067 21.668C69.8411 21.668 69.1888 21.5547 68.6497 21.3281C68.1106 21.1016 67.6653 20.8281 67.3138 20.5078C66.97 20.1797 66.7161 19.8359 66.552 19.4766C66.3958 19.1172 66.3177 18.8008 66.3177 18.5273C66.3177 18.2383 66.3528 17.9688 66.4231 17.7188C66.4934 17.4688 66.6028 17.25 66.7513 17.0625C66.9075 16.875 67.1028 16.7305 67.3372 16.6289C67.5794 16.5195 67.8684 16.4648 68.2044 16.4648C68.4856 16.4648 68.7395 16.5078 68.9661 16.5938C69.2005 16.6797 69.3997 16.8086 69.5638 16.9805C69.7356 17.1445 69.8684 17.3477 69.9622 17.5898C70.0559 17.832 70.1028 18.1055 70.1028 18.4102C70.095 18.543 70.0677 18.6797 70.0208 18.8203C69.9817 18.9375 69.9153 19.0664 69.8216 19.207C69.7278 19.3477 69.5989 19.4805 69.4348 19.6055C69.5442 19.6914 69.6497 19.7578 69.7513 19.8047C69.8606 19.8438 69.9583 19.8711 70.0442 19.8867C70.138 19.9102 70.2317 19.9219 70.3255 19.9219C70.427 19.9219 70.5442 19.8945 70.677 19.8398C70.8177 19.7773 70.9505 19.6836 71.0755 19.5586C71.2005 19.4336 71.3059 19.2812 71.3919 19.1016C71.4778 18.9219 71.5208 18.707 71.5208 18.457C71.5208 18.207 71.4973 17.9805 71.4505 17.7773C71.4114 17.5664 71.3216 17.3516 71.1809 17.1328C71.0481 16.9062 70.8528 16.6602 70.595 16.3945C70.3372 16.1289 69.9973 15.8086 69.5755 15.4336C69.1536 15.0586 68.7786 14.6953 68.4505 14.3438C68.1223 13.9844 67.845 13.6133 67.6184 13.2305C67.3997 12.8477 67.2317 12.4453 67.1145 12.0234C66.9973 11.6016 66.9388 11.1367 66.9388 10.6289C66.9388 10.1289 67.0364 9.64453 67.2317 9.17578C67.4348 8.70703 67.72 8.29297 68.0872 7.93359C68.4544 7.56641 68.8997 7.27734 69.4231 7.06641C69.9466 6.84766 70.5325 6.73828 71.1809 6.73828C71.8372 6.73828 72.4036 6.83984 72.8802 7.04297C73.3567 7.24609 73.7473 7.51953 74.052 7.86328C74.3567 8.19922 74.5833 8.58984 74.7317 9.03516C74.8802 9.48047 74.9544 9.94922 74.9544 10.4414Z"/>
<path d="M81.2816 3.1875C81.2191 3.99219 81.1683 4.78516 81.1292 5.56641C81.0902 6.33984 81.0511 7.11719 81.012 7.89844C81.3558 7.88281 81.6956 7.87109 82.0316 7.86328C82.3675 7.84766 82.7113 7.82812 83.0628 7.80469L83.1097 10.8047C82.7347 10.7422 82.3636 10.6914 81.9964 10.6523C81.6292 10.6133 81.2698 10.582 80.9183 10.5586C80.8948 11.2227 80.8792 11.8789 80.8714 12.5273C80.8714 13.1758 80.8714 13.832 80.8714 14.4961C80.8714 15.6836 80.8831 16.8633 80.9066 18.0352C80.9378 19.207 80.9847 20.3867 81.0472 21.5742L77.9886 21.5273C78.0902 19.6914 78.1722 17.8594 78.2347 16.0312C78.305 14.1953 78.3519 12.3477 78.3753 10.4883C78.0472 10.5039 77.7191 10.5234 77.3909 10.5469C77.0628 10.5625 76.7269 10.582 76.3831 10.6055L76.4769 7.82812C76.7972 7.85156 77.1136 7.87109 77.4261 7.88672C77.7464 7.89453 78.0628 7.90625 78.3753 7.92188C78.3753 7.14062 78.3675 6.36328 78.3519 5.58984C78.3363 4.80859 78.3206 4.02344 78.305 3.23438L81.2816 3.1875Z"/>
<path d="M90.5736 21.4805C90.5267 21.2383 90.4837 20.9922 90.4447 20.7422C90.4056 20.4922 90.3744 20.2344 90.3509 19.9688C89.9916 20.5 89.5619 20.9062 89.0619 21.1875C88.5619 21.4766 88.015 21.6211 87.4212 21.6211C87.1166 21.6211 86.8041 21.5703 86.4837 21.4688C86.1634 21.375 85.8705 21.207 85.6048 20.9648C85.347 20.7227 85.1322 20.3945 84.9603 19.9805C84.7962 19.5586 84.7142 19.0273 84.7142 18.3867C84.7142 17.8555 84.7923 17.3945 84.9486 17.0039C85.1048 16.6055 85.308 16.2578 85.558 15.9609C85.808 15.6641 86.0892 15.4062 86.4017 15.1875C86.7142 14.9688 87.0228 14.7734 87.3275 14.6016C87.64 14.4297 87.9369 14.2695 88.2181 14.1211C88.4994 13.9727 88.7298 13.8242 88.9095 13.6758C89.2533 13.4023 89.5502 13.1133 89.8002 12.8086C90.058 12.4961 90.265 12.1719 90.4212 11.8359C90.39 11.2969 90.3314 10.8555 90.2455 10.5117C90.1673 10.1602 90.0619 9.88281 89.9291 9.67969C89.7962 9.46875 89.6322 9.32422 89.4369 9.24609C89.2494 9.16016 89.0345 9.11719 88.7923 9.11719C88.433 9.11719 88.1283 9.19531 87.8783 9.35156C87.6361 9.50781 87.4369 9.69531 87.2806 9.91406C87.4759 10.0391 87.6244 10.1719 87.7259 10.3125C87.8353 10.4531 87.9173 10.5898 87.972 10.7227C88.0345 10.8711 88.0697 11.0234 88.0775 11.1797C88.0775 11.7109 87.9252 12.1172 87.6205 12.3984C87.3236 12.6797 86.9408 12.8203 86.472 12.8203C86.2298 12.8203 86.0072 12.7656 85.8041 12.6562C85.6009 12.5391 85.4212 12.3789 85.265 12.1758C85.1166 11.9727 84.9994 11.7305 84.9134 11.4492C84.8275 11.168 84.7845 10.8633 84.7845 10.5352C84.7845 10.207 84.8587 9.85938 85.0072 9.49219C85.1556 9.125 85.3939 8.78516 85.722 8.47266C86.0502 8.15234 86.472 7.89062 86.9877 7.6875C87.5033 7.47656 88.1283 7.37109 88.8627 7.37109C89.597 7.37109 90.2259 7.51562 90.7494 7.80469C91.2728 8.08594 91.7025 8.46484 92.0384 8.94141C92.3744 9.41016 92.6166 9.95312 92.765 10.5703C92.9212 11.1875 92.9994 11.8242 92.9994 12.4805C92.9994 12.9727 92.9955 13.5078 92.9877 14.0859C92.9798 14.6641 92.9759 15.2578 92.9759 15.8672C92.9759 16.375 92.9798 16.8828 92.9877 17.3906C92.9955 17.8984 93.0111 18.3906 93.0345 18.8672C93.058 19.3359 93.0892 19.7812 93.1283 20.2031C93.1673 20.6172 93.2181 20.9883 93.2806 21.3164L90.5736 21.4805ZM90.3978 14.6133C90.1244 14.9414 89.8314 15.2227 89.5189 15.457C89.2845 15.6211 89.0306 15.8047 88.7572 16.0078C88.4916 16.2109 88.2416 16.4258 88.0072 16.6523C87.7806 16.8789 87.5892 17.1172 87.433 17.3672C87.2845 17.6094 87.2103 17.8594 87.2103 18.1172C87.2103 18.4688 87.2962 18.7695 87.4681 19.0195C87.64 19.2695 87.8822 19.3945 88.1947 19.3945C88.4837 19.3945 88.7416 19.3164 88.9681 19.1602C89.1947 19.0039 89.3939 18.8125 89.5658 18.5859C89.7455 18.3516 89.8939 18.1016 90.0111 17.8359C90.1361 17.5703 90.2337 17.3281 90.3041 17.1094L90.3978 14.6133Z"/>
<path d="M98.7406 3.16406C98.6781 4.17969 98.6195 5.1875 98.5648 6.1875C98.5102 7.1875 98.4633 8.19531 98.4242 9.21094C98.6977 8.69531 99.0023 8.29688 99.3383 8.01562C99.6742 7.72656 99.9906 7.51562 100.287 7.38281C100.631 7.22656 100.979 7.13281 101.33 7.10156C101.893 7.10156 102.373 7.23828 102.772 7.51172C103.17 7.78516 103.498 8.17578 103.756 8.68359C104.014 9.19141 104.202 9.80469 104.319 10.5234C104.436 11.2344 104.495 12.0312 104.495 12.9141C104.495 14.3906 104.444 15.8203 104.342 17.2031C104.248 18.5781 104.045 19.9219 103.733 21.2344L100.991 20.9062C101.17 19.9766 101.307 19.1094 101.401 18.3047C101.502 17.5 101.577 16.7969 101.623 16.1953C101.678 15.4922 101.709 14.8477 101.717 14.2617C101.717 13.5195 101.705 12.875 101.682 12.3281C101.666 11.7734 101.612 11.3164 101.518 10.957C101.432 10.5898 101.295 10.3164 101.108 10.1367C100.92 9.95703 100.659 9.86719 100.323 9.86719C100.065 9.90625 99.8109 10.0625 99.5609 10.3359C99.4516 10.4531 99.3422 10.6016 99.2328 10.7812C99.1234 10.9609 99.0102 11.1836 98.893 11.4492C98.7836 11.707 98.6781 12.0117 98.5766 12.3633C98.475 12.7148 98.3852 13.1211 98.307 13.582C98.2836 14.3789 98.268 15.1719 98.2602 15.9609C98.2602 16.75 98.2602 17.5352 98.2602 18.3164C98.2602 18.8086 98.2602 19.3047 98.2602 19.8047C98.2602 20.3047 98.268 20.8008 98.2836 21.293L95.6234 21.2344C95.7094 19.8047 95.7719 18.375 95.8109 16.9453C95.8578 15.5156 95.8812 14.0742 95.8812 12.6211C95.8812 11.0273 95.8539 9.44531 95.7992 7.875C95.7445 6.29688 95.6664 4.71094 95.5648 3.11719L98.7406 3.16406Z"/>
<path d="M110.06 2.97656C110.013 3.92969 109.97 4.8125 109.931 5.625C109.892 6.4375 109.857 7.20312 109.826 7.92188C109.802 8.64062 109.783 9.32422 109.767 9.97266C109.751 10.6211 109.736 11.2617 109.72 11.8945C109.712 12.5273 109.705 13.1641 109.697 13.8047C109.697 14.4453 109.697 15.1172 109.697 15.8203C109.697 16.6016 109.697 17.4375 109.697 18.3281C109.697 19.2188 109.705 20.207 109.72 21.293L107.06 21.2344C107.107 20.0547 107.138 18.8945 107.154 17.7539C107.169 16.6055 107.177 15.4297 107.177 14.2266C107.177 13.4219 107.173 12.5977 107.165 11.7539C107.158 10.9023 107.146 10.0156 107.13 9.09375C107.115 8.16406 107.095 7.1875 107.072 6.16406C107.056 5.14062 107.037 4.05469 107.013 2.90625L110.06 2.97656Z"/>
</mask>
<path d="M7.47266 21.4102C6.88672 21.4102 6.30859 21.3086 5.73828 21.1055C5.16797 20.9023 4.65625 20.5977 4.20312 20.1914C3.75781 19.7852 3.39453 19.2812 3.11328 18.6797C2.83203 18.0703 2.69141 17.3633 2.69141 16.5586C2.69141 16.0195 2.76562 15.5391 2.91406 15.1172C3.07031 14.6953 3.26953 14.3281 3.51172 14.0156C3.76172 13.6953 4.03906 13.4219 4.34375 13.1953C4.65625 12.9688 4.97266 12.7852 5.29297 12.6445C4.97266 12.4648 4.65625 12.2422 4.34375 11.9766C4.03906 11.7031 3.76172 11.3867 3.51172 11.0273C3.26953 10.6602 3.07031 10.2461 2.91406 9.78516C2.76562 9.32422 2.69141 8.81641 2.69141 8.26172C2.69141 7.45703 2.83203 6.75391 3.11328 6.15234C3.39453 5.54297 3.75781 5.03516 4.20312 4.62891C4.65625 4.22266 5.16797 3.91797 5.73828 3.71484C6.30859 3.51172 6.88672 3.41016 7.47266 3.41016C8.05859 3.41016 8.63281 3.51172 9.19531 3.71484C9.76562 3.91797 10.2773 4.22266 10.7305 4.62891C11.1836 5.03516 11.5469 5.54297 11.8203 6.15234C12.1016 6.75391 12.2422 7.45703 12.2422 8.26172C12.2422 8.81641 12.168 9.32422 12.0195 9.78516C11.8711 10.2461 11.6719 10.6602 11.4219 11.0273C11.1797 11.3867 10.9023 11.7031 10.5898 11.9766C10.2852 12.2422 9.97266 12.4648 9.65234 12.6445C9.97266 12.7852 10.2852 12.9688 10.5898 13.1953C10.9023 13.4219 11.1797 13.6953 11.4219 14.0156C11.6719 14.3281 11.8711 14.6953 12.0195 15.1172C12.168 15.5391 12.2422 16.0195 12.2422 16.5586C12.2422 17.3633 12.1016 18.0703 11.8203 18.6797C11.5469 19.2812 11.1836 19.7852 10.7305 20.1914C10.2773 20.5977 9.76562 20.9023 9.19531 21.1055C8.63281 21.3086 8.05859 21.4102 7.47266 21.4102ZM9.44141 7.65234C9.44141 7.33984 9.38281 7.05469 9.26562 6.79688C9.14844 6.53125 8.99609 6.30469 8.80859 6.11719C8.62891 5.92969 8.42578 5.78516 8.19922 5.68359C7.98047 5.57422 7.76172 5.51953 7.54297 5.51953C7.29297 5.51953 7.04297 5.57422 6.79297 5.68359C6.55078 5.78516 6.33203 5.92969 6.13672 6.11719C5.94922 6.30469 5.79688 6.53125 5.67969 6.79688C5.5625 7.05469 5.50391 7.33984 5.50391 7.65234C5.50391 8.27734 5.5625 8.8125 5.67969 9.25781C5.80469 9.70312 5.96094 10.0781 6.14844 10.3828C6.34375 10.6875 6.55469 10.9336 6.78125 11.1211C7.01562 11.3008 7.24609 11.4414 7.47266 11.543C7.69141 11.4336 7.91406 11.2852 8.14062 11.0977C8.375 10.9102 8.58594 10.6641 8.77344 10.3594C8.96875 10.0469 9.12891 9.67188 9.25391 9.23438C9.37891 8.78906 9.44141 8.26172 9.44141 7.65234ZM5.50391 17.1562C5.50391 17.4766 5.56641 17.7695 5.69141 18.0352C5.81641 18.293 5.97656 18.5156 6.17188 18.7031C6.36719 18.8906 6.58594 19.0391 6.82812 19.1484C7.07031 19.25 7.30859 19.3008 7.54297 19.3008C7.76172 19.3008 7.98047 19.25 8.19922 19.1484C8.42578 19.0391 8.62891 18.8906 8.80859 18.7031C8.99609 18.5156 9.14844 18.293 9.26562 18.0352C9.38281 17.7695 9.44141 17.4766 9.44141 17.1562C9.44141 16.5703 9.37891 16.0664 9.25391 15.6445C9.13672 15.2227 8.98047 14.8672 8.78516 14.5781C8.59766 14.2891 8.38672 14.0586 8.15234 13.8867C7.91797 13.7148 7.69141 13.582 7.47266 13.4883C7.24609 13.582 7.01562 13.7148 6.78125 13.8867C6.55469 14.0586 6.34375 14.2891 6.14844 14.5781C5.96094 14.8594 5.80469 15.2109 5.67969 15.6328C5.5625 16.0547 5.50391 16.5625 5.50391 17.1562Z" fill="white"/>
<path d="M17.9834 10.6992C17.9834 10.9102 17.9405 11.1094 17.8545 11.2969C17.7764 11.4844 17.667 11.6484 17.5264 11.7891C17.3936 11.9219 17.2334 12.0312 17.0459 12.1172C16.8584 12.1953 16.6592 12.2344 16.4483 12.2344C16.2295 12.2344 16.0264 12.1953 15.8389 12.1172C15.6514 12.0312 15.4873 11.9219 15.3467 11.7891C15.2061 11.6484 15.0928 11.4844 15.0069 11.2969C14.9288 11.1094 14.8897 10.9102 14.8897 10.6992C14.8897 10.4883 14.9288 10.2891 15.0069 10.1016C15.0928 9.90625 15.2061 9.73828 15.3467 9.59766C15.4873 9.45703 15.6514 9.34766 15.8389 9.26953C16.0264 9.18359 16.2295 9.14062 16.4483 9.14062C16.6592 9.14062 16.8584 9.18359 17.0459 9.26953C17.2334 9.34766 17.3936 9.45703 17.5264 9.59766C17.667 9.73828 17.7764 9.90625 17.8545 10.1016C17.9405 10.2891 17.9834 10.4883 17.9834 10.6992ZM17.9834 19.8984C17.9834 20.1094 17.9405 20.3086 17.8545 20.4961C17.7764 20.6758 17.667 20.8359 17.5264 20.9766C17.3936 21.1172 17.2334 21.2266 17.0459 21.3047C16.8584 21.3906 16.6592 21.4336 16.4483 21.4336C16.2295 21.4336 16.0264 21.3906 15.8389 21.3047C15.6514 21.2266 15.4873 21.1172 15.3467 20.9766C15.2061 20.8359 15.0928 20.6758 15.0069 20.4961C14.9288 20.3086 14.8897 20.1094 14.8897 19.8984C14.8897 19.6797 14.9288 19.4766 15.0069 19.2891C15.0928 19.1016 15.2061 18.9375 15.3467 18.7969C15.4873 18.6562 15.6514 18.5469 15.8389 18.4688C16.0264 18.3828 16.2295 18.3398 16.4483 18.3398C16.6592 18.3398 16.8584 18.3828 17.0459 18.4688C17.2334 18.5469 17.3936 18.6562 17.5264 18.7969C17.667 18.9375 17.7764 19.1016 17.8545 19.2891C17.9405 19.4766 17.9834 19.6797 17.9834 19.8984Z" fill="white"/>
<path d="M36.8019 12.9609C36.8019 14.2344 36.6808 15.3359 36.4386 16.2656C36.2042 17.1875 35.8995 17.9766 35.5245 18.6328C35.1495 19.2812 34.7277 19.8086 34.2589 20.2148C33.7902 20.6211 33.3214 20.9336 32.8527 21.1523C32.3839 21.3789 31.9425 21.5312 31.5284 21.6094C31.1144 21.6953 30.7745 21.7383 30.5089 21.7383C30.4464 21.7383 30.3058 21.7344 30.087 21.7266C29.8761 21.7188 29.6144 21.6992 29.3019 21.668C28.9894 21.6445 28.6339 21.6055 28.2355 21.5508C27.8448 21.4961 27.4347 21.418 27.005 21.3164C27.0128 19.7695 27.0206 18.4297 27.0284 17.2969C27.0441 16.1562 27.0558 15.1758 27.0636 14.3555C27.0714 13.5352 27.0792 12.8477 27.087 12.293C27.0948 11.7383 27.0987 11.2617 27.0987 10.8633C27.1066 10.4648 27.1105 10.125 27.1105 9.84375C27.1183 9.55469 27.1222 9.27344 27.1222 9C27.1222 8.57031 27.1183 8.12891 27.1105 7.67578C27.1027 7.21484 27.087 6.76953 27.0636 6.33984C27.0402 5.91016 27.0089 5.50781 26.9698 5.13281C26.9308 4.75781 26.88 4.4375 26.8175 4.17188C27.4269 4.13281 27.9816 4.10938 28.4816 4.10156C28.9894 4.08594 29.4269 4.07812 29.7941 4.07812C30.7159 4.07812 31.5284 4.19141 32.2316 4.41797C32.9347 4.63672 33.5441 4.94531 34.0597 5.34375C34.5831 5.73438 35.0167 6.20703 35.3605 6.76172C35.712 7.30859 35.9933 7.91016 36.2042 8.56641C36.423 9.22266 36.5753 9.92578 36.6612 10.6758C36.755 11.418 36.8019 12.1797 36.8019 12.9609ZM33.755 12.5977C33.755 11.2148 33.6886 10.0898 33.5558 9.22266C33.4308 8.34766 33.2237 7.66797 32.9347 7.18359C32.6534 6.69922 32.2823 6.37109 31.8214 6.19922C31.3683 6.01953 30.8175 5.92969 30.1691 5.92969H29.8175L29.9581 19.6992C30.1144 19.7617 30.2589 19.8047 30.3917 19.8281C30.5323 19.8438 30.6691 19.8516 30.8019 19.8516C31.3253 19.8516 31.7706 19.7305 32.1378 19.4883C32.5128 19.2383 32.8175 18.832 33.0519 18.2695C33.2941 17.6992 33.4698 16.9531 33.5792 16.0312C33.6964 15.1016 33.755 13.957 33.755 12.5977Z" fill="white"/>
<path d="M42.4494 4.55859C42.4494 4.80859 42.4025 5.04688 42.3088 5.27344C42.215 5.49219 42.0861 5.68359 41.922 5.84766C41.758 6.01172 41.5627 6.14453 41.3361 6.24609C41.1173 6.33984 40.883 6.38672 40.633 6.38672C40.383 6.38672 40.1447 6.33984 39.9181 6.24609C39.6994 6.14453 39.508 6.01172 39.3439 5.84766C39.1798 5.68359 39.047 5.49219 38.9455 5.27344C38.8517 5.04688 38.8048 4.80859 38.8048 4.55859C38.8048 4.30859 38.8517 4.07422 38.9455 3.85547C39.047 3.62891 39.1798 3.43359 39.3439 3.26953C39.508 3.10547 39.6994 2.97656 39.9181 2.88281C40.1447 2.78125 40.383 2.73047 40.633 2.73047C40.883 2.73047 41.1173 2.78125 41.3361 2.88281C41.5627 2.97656 41.758 3.10547 41.922 3.26953C42.0861 3.43359 42.215 3.62891 42.3088 3.85547C42.4025 4.07422 42.4494 4.30859 42.4494 4.55859ZM42.4494 8.10938C42.3869 8.72656 42.3322 9.39453 42.2853 10.1133C42.2463 10.8242 42.2111 11.5547 42.1798 12.3047C42.1564 13.0547 42.1369 13.8086 42.1213 14.5664C42.1056 15.3242 42.0939 16.0469 42.0861 16.7344C42.0783 17.4219 42.0705 18.0664 42.0627 18.668C42.0627 19.2617 42.0627 19.7734 42.0627 20.2031V21.5273L39.4025 21.6211C39.4181 21.082 39.4259 20.5586 39.4259 20.0508C39.4259 19.543 39.4259 19.0352 39.4259 18.5273C39.4259 17.6445 39.4181 16.7852 39.4025 15.9492C39.3869 15.1055 39.3595 14.2617 39.3205 13.418C39.2892 12.5742 39.2463 11.7188 39.1916 10.8516C39.1369 9.98438 39.0705 9.08594 38.9923 8.15625L42.4494 8.10938Z" fill="white"/>
<path d="M53.2766 18.4805C53.2766 18.9414 53.1711 19.375 52.9602 19.7812C52.7492 20.1875 52.4641 20.5391 52.1047 20.8359C51.7453 21.1328 51.3234 21.3672 50.8391 21.5391C50.3547 21.7109 49.8391 21.7969 49.2922 21.7969C48.925 21.7969 48.5539 21.7461 48.1789 21.6445C47.8039 21.543 47.4445 21.375 47.1008 21.1406C46.757 20.9062 46.4328 20.5977 46.1281 20.2148C45.8234 19.832 45.5578 19.3633 45.3312 18.8086C45.1125 18.2539 44.9367 17.6055 44.8039 16.8633C44.6789 16.1133 44.6164 15.2539 44.6164 14.2852C44.6164 13.3711 44.6789 12.5625 44.8039 11.8594C44.9367 11.1562 45.1125 10.543 45.3312 10.0195C45.5578 9.49609 45.8195 9.05859 46.1164 8.70703C46.4133 8.34766 46.7297 8.05859 47.0656 7.83984C47.4094 7.61328 47.7609 7.45312 48.1203 7.35938C48.4875 7.26562 48.8469 7.21875 49.1984 7.21875C49.7219 7.21875 50.218 7.30469 50.6867 7.47656C51.1555 7.64062 51.5656 7.88672 51.9172 8.21484C52.2687 8.54297 52.5461 8.94922 52.7492 9.43359C52.9602 9.91016 53.0656 10.4609 53.0656 11.0859C53.0656 11.6484 52.9484 12.2188 52.7141 12.7969C52.4875 13.3672 52.1477 13.9102 51.6945 14.4258C51.2414 14.9336 50.6789 15.3984 50.007 15.8203C49.343 16.2344 48.5773 16.5625 47.7102 16.8047C47.757 17.2891 47.8234 17.7305 47.9094 18.1289C48.0031 18.5273 48.1164 18.8672 48.2492 19.1484C48.3898 19.4297 48.55 19.6484 48.7297 19.8047C48.9172 19.9609 49.132 20.0391 49.3742 20.0391C49.5305 20.0312 49.6789 20.0039 49.8195 19.957C49.9445 19.918 50.0695 19.8555 50.1945 19.7695C50.3273 19.6836 50.4367 19.5586 50.5227 19.3945C50.3195 19.3008 50.1633 19.1797 50.0539 19.0312C49.9445 18.8828 49.8625 18.7422 49.8078 18.6094C49.7453 18.4531 49.7102 18.2891 49.7023 18.1172C49.7023 17.7422 49.7766 17.4375 49.925 17.2031C50.0734 16.9688 50.2492 16.7852 50.4523 16.6523C50.6555 16.5195 50.8625 16.4297 51.0734 16.3828C51.2844 16.3281 51.4523 16.3008 51.5773 16.3008C51.7102 16.3008 51.8703 16.3281 52.0578 16.3828C52.2531 16.4375 52.4406 16.543 52.6203 16.6992C52.8 16.8555 52.9523 17.0781 53.0773 17.3672C53.2102 17.6484 53.2766 18.0195 53.2766 18.4805ZM50.382 11.1094C50.382 10.8281 50.3547 10.5625 50.3 10.3125C50.2531 10.0547 50.1789 9.83203 50.0773 9.64453C49.9836 9.45703 49.8625 9.30859 49.7141 9.19922C49.5734 9.08203 49.4094 9.02344 49.2219 9.02344C48.9016 9.02344 48.6398 9.17188 48.4367 9.46875C48.2336 9.75781 48.0695 10.1445 47.9445 10.6289C47.8195 11.1133 47.7336 11.6719 47.6867 12.3047C47.6398 12.9375 47.6164 13.5977 47.6164 14.2852V15.1406C48.0148 14.9297 48.382 14.6797 48.718 14.3906C49.0617 14.1016 49.3547 13.7852 49.5969 13.4414C49.8469 13.0898 50.0383 12.7188 50.1711 12.3281C50.3117 11.9375 50.382 11.5312 50.382 11.1094Z" fill="white"/>
<path d="M58.7834 3.36328C58.6897 4.38672 58.6077 5.40234 58.5373 6.41016C58.467 7.41016 58.4045 8.41797 58.3498 9.43359C58.6155 8.95703 58.9006 8.58984 59.2053 8.33203C59.51 8.06641 59.7952 7.87109 60.0608 7.74609C60.3733 7.60547 60.678 7.51953 60.9748 7.48828C61.5373 7.48828 62.0373 7.60547 62.4748 7.83984C62.9123 8.07422 63.2795 8.47656 63.5764 9.04688C63.8811 9.60938 64.1116 10.3633 64.2678 11.3086C64.4241 12.2461 64.5022 13.4219 64.5022 14.8359C64.5022 16.1406 64.3772 17.2383 64.1272 18.1289C63.885 19.0117 63.5686 19.7266 63.178 20.2734C62.7952 20.8125 62.3655 21.1992 61.8889 21.4336C61.4202 21.6758 60.9553 21.7969 60.4944 21.7969C60.4475 21.7969 60.342 21.7852 60.178 21.7617C60.0217 21.7461 59.8303 21.6875 59.6037 21.5859C59.3772 21.4922 59.135 21.3477 58.8772 21.1523C58.6194 20.957 58.3733 20.6836 58.1389 20.332V21.6211L55.5022 21.5742C55.5725 20.4336 55.6194 19.2969 55.6428 18.1641C55.6741 17.0312 55.6897 15.8984 55.6897 14.7656C55.6897 12.8594 55.6584 10.9688 55.5959 9.09375C55.5334 7.21094 55.4592 5.31641 55.3733 3.41016L58.7834 3.36328ZM59.6272 19.6289C59.6662 19.6445 59.7053 19.6523 59.7444 19.6523C59.7912 19.6523 59.8381 19.6523 59.885 19.6523C60.0959 19.6523 60.3147 19.582 60.5412 19.4414C60.7756 19.293 60.9866 19.0352 61.1741 18.668C61.3616 18.3008 61.5178 17.8047 61.6428 17.1797C61.7678 16.5469 61.8303 15.7422 61.8303 14.7656C61.8303 13.8906 61.7873 13.1641 61.7014 12.5859C61.6233 12 61.5139 11.5312 61.3733 11.1797C61.2327 10.8281 61.0686 10.582 60.8811 10.4414C60.6936 10.293 60.4983 10.2188 60.2952 10.2188C60.0842 10.2188 59.8889 10.2773 59.7092 10.3945C59.5373 10.5039 59.3811 10.6523 59.2405 10.8398C59.0998 11.0195 58.9709 11.2266 58.8537 11.4609C58.7444 11.6953 58.6467 11.9297 58.5608 12.1641C58.4748 12.3906 58.4006 12.6133 58.3381 12.832C58.2834 13.043 58.2405 13.2227 58.2092 13.3711C58.1623 14.9102 58.1389 16.4375 58.1389 17.9531C58.3186 18.3281 58.4983 18.625 58.678 18.8438C58.8577 19.0625 59.0178 19.2305 59.1584 19.3477C59.3225 19.4883 59.4787 19.582 59.6272 19.6289Z" fill="white"/>
<path d="M74.9544 10.4414C74.9544 10.8008 74.888 11.1055 74.7552 11.3555C74.6223 11.6055 74.4622 11.8086 74.2747 11.9648C74.0872 12.1211 73.8919 12.2344 73.6888 12.3047C73.4856 12.375 73.3138 12.4102 73.1731 12.4102C73.0325 12.4102 72.8645 12.3867 72.6692 12.3398C72.4739 12.2852 72.2864 12.1914 72.1067 12.0586C71.9348 11.9258 71.7864 11.75 71.6614 11.5312C71.5364 11.3047 71.4739 11.0195 71.4739 10.6758C71.4817 10.4883 71.5169 10.3047 71.5794 10.125C71.6341 9.96875 71.7161 9.80859 71.8255 9.64453C71.9427 9.47266 72.1067 9.32031 72.3177 9.1875C72.177 8.98438 72.0364 8.82812 71.8958 8.71875C71.7552 8.60938 71.6302 8.52734 71.5208 8.47266C71.388 8.41016 71.2669 8.37109 71.1575 8.35547C70.9153 8.35547 70.6966 8.40625 70.5013 8.50781C70.3059 8.60156 70.138 8.73047 69.9973 8.89453C69.8645 9.05078 69.7591 9.23438 69.6809 9.44531C69.6106 9.65625 69.5755 9.875 69.5755 10.1016C69.5755 10.3906 69.595 10.6523 69.6341 10.8867C69.6731 11.1211 69.763 11.3594 69.9036 11.6016C70.0442 11.8438 70.2552 12.1055 70.5364 12.3867C70.8177 12.668 71.2005 12.9961 71.6848 13.3711C72.1692 13.7461 72.5911 14.1133 72.9505 14.4727C73.3098 14.8242 73.6067 15.1719 73.8411 15.5156C74.0755 15.8594 74.2513 16.207 74.3684 16.5586C74.4856 16.9023 74.5442 17.2617 74.5442 17.6367C74.5442 17.8867 74.5169 18.1602 74.4622 18.457C74.4153 18.7461 74.3294 19.043 74.2044 19.3477C74.0872 19.6445 73.927 19.9336 73.7239 20.2148C73.5286 20.4883 73.2825 20.7344 72.9856 20.9531C72.6966 21.1719 72.3528 21.3438 71.9544 21.4688C71.5638 21.6016 71.1145 21.668 70.6067 21.668C69.8411 21.668 69.1888 21.5547 68.6497 21.3281C68.1106 21.1016 67.6653 20.8281 67.3138 20.5078C66.97 20.1797 66.7161 19.8359 66.552 19.4766C66.3958 19.1172 66.3177 18.8008 66.3177 18.5273C66.3177 18.2383 66.3528 17.9688 66.4231 17.7188C66.4934 17.4688 66.6028 17.25 66.7513 17.0625C66.9075 16.875 67.1028 16.7305 67.3372 16.6289C67.5794 16.5195 67.8684 16.4648 68.2044 16.4648C68.4856 16.4648 68.7395 16.5078 68.9661 16.5938C69.2005 16.6797 69.3997 16.8086 69.5638 16.9805C69.7356 17.1445 69.8684 17.3477 69.9622 17.5898C70.0559 17.832 70.1028 18.1055 70.1028 18.4102C70.095 18.543 70.0677 18.6797 70.0208 18.8203C69.9817 18.9375 69.9153 19.0664 69.8216 19.207C69.7278 19.3477 69.5989 19.4805 69.4348 19.6055C69.5442 19.6914 69.6497 19.7578 69.7513 19.8047C69.8606 19.8438 69.9583 19.8711 70.0442 19.8867C70.138 19.9102 70.2317 19.9219 70.3255 19.9219C70.427 19.9219 70.5442 19.8945 70.677 19.8398C70.8177 19.7773 70.9505 19.6836 71.0755 19.5586C71.2005 19.4336 71.3059 19.2812 71.3919 19.1016C71.4778 18.9219 71.5208 18.707 71.5208 18.457C71.5208 18.207 71.4973 17.9805 71.4505 17.7773C71.4114 17.5664 71.3216 17.3516 71.1809 17.1328C71.0481 16.9062 70.8528 16.6602 70.595 16.3945C70.3372 16.1289 69.9973 15.8086 69.5755 15.4336C69.1536 15.0586 68.7786 14.6953 68.4505 14.3438C68.1223 13.9844 67.845 13.6133 67.6184 13.2305C67.3997 12.8477 67.2317 12.4453 67.1145 12.0234C66.9973 11.6016 66.9388 11.1367 66.9388 10.6289C66.9388 10.1289 67.0364 9.64453 67.2317 9.17578C67.4348 8.70703 67.72 8.29297 68.0872 7.93359C68.4544 7.56641 68.8997 7.27734 69.4231 7.06641C69.9466 6.84766 70.5325 6.73828 71.1809 6.73828C71.8372 6.73828 72.4036 6.83984 72.8802 7.04297C73.3567 7.24609 73.7473 7.51953 74.052 7.86328C74.3567 8.19922 74.5833 8.58984 74.7317 9.03516C74.8802 9.48047 74.9544 9.94922 74.9544 10.4414Z" fill="white"/>
<path d="M81.2816 3.1875C81.2191 3.99219 81.1683 4.78516 81.1292 5.56641C81.0902 6.33984 81.0511 7.11719 81.012 7.89844C81.3558 7.88281 81.6956 7.87109 82.0316 7.86328C82.3675 7.84766 82.7113 7.82812 83.0628 7.80469L83.1097 10.8047C82.7347 10.7422 82.3636 10.6914 81.9964 10.6523C81.6292 10.6133 81.2698 10.582 80.9183 10.5586C80.8948 11.2227 80.8792 11.8789 80.8714 12.5273C80.8714 13.1758 80.8714 13.832 80.8714 14.4961C80.8714 15.6836 80.8831 16.8633 80.9066 18.0352C80.9378 19.207 80.9847 20.3867 81.0472 21.5742L77.9886 21.5273C78.0902 19.6914 78.1722 17.8594 78.2347 16.0312C78.305 14.1953 78.3519 12.3477 78.3753 10.4883C78.0472 10.5039 77.7191 10.5234 77.3909 10.5469C77.0628 10.5625 76.7269 10.582 76.3831 10.6055L76.4769 7.82812C76.7972 7.85156 77.1136 7.87109 77.4261 7.88672C77.7464 7.89453 78.0628 7.90625 78.3753 7.92188C78.3753 7.14062 78.3675 6.36328 78.3519 5.58984C78.3363 4.80859 78.3206 4.02344 78.305 3.23438L81.2816 3.1875Z" fill="white"/>
<path d="M90.5736 21.4805C90.5267 21.2383 90.4837 20.9922 90.4447 20.7422C90.4056 20.4922 90.3744 20.2344 90.3509 19.9688C89.9916 20.5 89.5619 20.9062 89.0619 21.1875C88.5619 21.4766 88.015 21.6211 87.4212 21.6211C87.1166 21.6211 86.8041 21.5703 86.4837 21.4688C86.1634 21.375 85.8705 21.207 85.6048 20.9648C85.347 20.7227 85.1322 20.3945 84.9603 19.9805C84.7962 19.5586 84.7142 19.0273 84.7142 18.3867C84.7142 17.8555 84.7923 17.3945 84.9486 17.0039C85.1048 16.6055 85.308 16.2578 85.558 15.9609C85.808 15.6641 86.0892 15.4062 86.4017 15.1875C86.7142 14.9688 87.0228 14.7734 87.3275 14.6016C87.64 14.4297 87.9369 14.2695 88.2181 14.1211C88.4994 13.9727 88.7298 13.8242 88.9095 13.6758C89.2533 13.4023 89.5502 13.1133 89.8002 12.8086C90.058 12.4961 90.265 12.1719 90.4212 11.8359C90.39 11.2969 90.3314 10.8555 90.2455 10.5117C90.1673 10.1602 90.0619 9.88281 89.9291 9.67969C89.7962 9.46875 89.6322 9.32422 89.4369 9.24609C89.2494 9.16016 89.0345 9.11719 88.7923 9.11719C88.433 9.11719 88.1283 9.19531 87.8783 9.35156C87.6361 9.50781 87.4369 9.69531 87.2806 9.91406C87.4759 10.0391 87.6244 10.1719 87.7259 10.3125C87.8353 10.4531 87.9173 10.5898 87.972 10.7227C88.0345 10.8711 88.0697 11.0234 88.0775 11.1797C88.0775 11.7109 87.9252 12.1172 87.6205 12.3984C87.3236 12.6797 86.9408 12.8203 86.472 12.8203C86.2298 12.8203 86.0072 12.7656 85.8041 12.6562C85.6009 12.5391 85.4212 12.3789 85.265 12.1758C85.1166 11.9727 84.9994 11.7305 84.9134 11.4492C84.8275 11.168 84.7845 10.8633 84.7845 10.5352C84.7845 10.207 84.8587 9.85938 85.0072 9.49219C85.1556 9.125 85.3939 8.78516 85.722 8.47266C86.0502 8.15234 86.472 7.89062 86.9877 7.6875C87.5033 7.47656 88.1283 7.37109 88.8627 7.37109C89.597 7.37109 90.2259 7.51562 90.7494 7.80469C91.2728 8.08594 91.7025 8.46484 92.0384 8.94141C92.3744 9.41016 92.6166 9.95312 92.765 10.5703C92.9212 11.1875 92.9994 11.8242 92.9994 12.4805C92.9994 12.9727 92.9955 13.5078 92.9877 14.0859C92.9798 14.6641 92.9759 15.2578 92.9759 15.8672C92.9759 16.375 92.9798 16.8828 92.9877 17.3906C92.9955 17.8984 93.0111 18.3906 93.0345 18.8672C93.058 19.3359 93.0892 19.7812 93.1283 20.2031C93.1673 20.6172 93.2181 20.9883 93.2806 21.3164L90.5736 21.4805ZM90.3978 14.6133C90.1244 14.9414 89.8314 15.2227 89.5189 15.457C89.2845 15.6211 89.0306 15.8047 88.7572 16.0078C88.4916 16.2109 88.2416 16.4258 88.0072 16.6523C87.7806 16.8789 87.5892 17.1172 87.433 17.3672C87.2845 17.6094 87.2103 17.8594 87.2103 18.1172C87.2103 18.4688 87.2962 18.7695 87.4681 19.0195C87.64 19.2695 87.8822 19.3945 88.1947 19.3945C88.4837 19.3945 88.7416 19.3164 88.9681 19.1602C89.1947 19.0039 89.3939 18.8125 89.5658 18.5859C89.7455 18.3516 89.8939 18.1016 90.0111 17.8359C90.1361 17.5703 90.2337 17.3281 90.3041 17.1094L90.3978 14.6133Z" fill="white"/>
<path d="M98.7406 3.16406C98.6781 4.17969 98.6195 5.1875 98.5648 6.1875C98.5102 7.1875 98.4633 8.19531 98.4242 9.21094C98.6977 8.69531 99.0023 8.29688 99.3383 8.01562C99.6742 7.72656 99.9906 7.51562 100.287 7.38281C100.631 7.22656 100.979 7.13281 101.33 7.10156C101.893 7.10156 102.373 7.23828 102.772 7.51172C103.17 7.78516 103.498 8.17578 103.756 8.68359C104.014 9.19141 104.202 9.80469 104.319 10.5234C104.436 11.2344 104.495 12.0312 104.495 12.9141C104.495 14.3906 104.444 15.8203 104.342 17.2031C104.248 18.5781 104.045 19.9219 103.733 21.2344L100.991 20.9062C101.17 19.9766 101.307 19.1094 101.401 18.3047C101.502 17.5 101.577 16.7969 101.623 16.1953C101.678 15.4922 101.709 14.8477 101.717 14.2617C101.717 13.5195 101.705 12.875 101.682 12.3281C101.666 11.7734 101.612 11.3164 101.518 10.957C101.432 10.5898 101.295 10.3164 101.108 10.1367C100.92 9.95703 100.659 9.86719 100.323 9.86719C100.065 9.90625 99.8109 10.0625 99.5609 10.3359C99.4516 10.4531 99.3422 10.6016 99.2328 10.7812C99.1234 10.9609 99.0102 11.1836 98.893 11.4492C98.7836 11.707 98.6781 12.0117 98.5766 12.3633C98.475 12.7148 98.3852 13.1211 98.307 13.582C98.2836 14.3789 98.268 15.1719 98.2602 15.9609C98.2602 16.75 98.2602 17.5352 98.2602 18.3164C98.2602 18.8086 98.2602 19.3047 98.2602 19.8047C98.2602 20.3047 98.268 20.8008 98.2836 21.293L95.6234 21.2344C95.7094 19.8047 95.7719 18.375 95.8109 16.9453C95.8578 15.5156 95.8812 14.0742 95.8812 12.6211C95.8812 11.0273 95.8539 9.44531 95.7992 7.875C95.7445 6.29688 95.6664 4.71094 95.5648 3.11719L98.7406 3.16406Z" fill="white"/>
<path d="M110.06 2.97656C110.013 3.92969 109.97 4.8125 109.931 5.625C109.892 6.4375 109.857 7.20312 109.826 7.92188C109.802 8.64062 109.783 9.32422 109.767 9.97266C109.751 10.6211 109.736 11.2617 109.72 11.8945C109.712 12.5273 109.705 13.1641 109.697 13.8047C109.697 14.4453 109.697 15.1172 109.697 15.8203C109.697 16.6016 109.697 17.4375 109.697 18.3281C109.697 19.2188 109.705 20.207 109.72 21.293L107.06 21.2344C107.107 20.0547 107.138 18.8945 107.154 17.7539C107.169 16.6055 107.177 15.4297 107.177 14.2266C107.177 13.4219 107.173 12.5977 107.165 11.7539C107.158 10.9023 107.146 10.0156 107.13 9.09375C107.115 8.16406 107.095 7.1875 107.072 6.16406C107.056 5.14062 107.037 4.05469 107.013 2.90625L110.06 2.97656Z" fill="white"/>
<path d="M7.47266 21.4102C6.88672 21.4102 6.30859 21.3086 5.73828 21.1055C5.16797 20.9023 4.65625 20.5977 4.20312 20.1914C3.75781 19.7852 3.39453 19.2812 3.11328 18.6797C2.83203 18.0703 2.69141 17.3633 2.69141 16.5586C2.69141 16.0195 2.76562 15.5391 2.91406 15.1172C3.07031 14.6953 3.26953 14.3281 3.51172 14.0156C3.76172 13.6953 4.03906 13.4219 4.34375 13.1953C4.65625 12.9688 4.97266 12.7852 5.29297 12.6445C4.97266 12.4648 4.65625 12.2422 4.34375 11.9766C4.03906 11.7031 3.76172 11.3867 3.51172 11.0273C3.26953 10.6602 3.07031 10.2461 2.91406 9.78516C2.76562 9.32422 2.69141 8.81641 2.69141 8.26172C2.69141 7.45703 2.83203 6.75391 3.11328 6.15234C3.39453 5.54297 3.75781 5.03516 4.20312 4.62891C4.65625 4.22266 5.16797 3.91797 5.73828 3.71484C6.30859 3.51172 6.88672 3.41016 7.47266 3.41016C8.05859 3.41016 8.63281 3.51172 9.19531 3.71484C9.76562 3.91797 10.2773 4.22266 10.7305 4.62891C11.1836 5.03516 11.5469 5.54297 11.8203 6.15234C12.1016 6.75391 12.2422 7.45703 12.2422 8.26172C12.2422 8.81641 12.168 9.32422 12.0195 9.78516C11.8711 10.2461 11.6719 10.6602 11.4219 11.0273C11.1797 11.3867 10.9023 11.7031 10.5898 11.9766C10.2852 12.2422 9.97266 12.4648 9.65234 12.6445C9.97266 12.7852 10.2852 12.9688 10.5898 13.1953C10.9023 13.4219 11.1797 13.6953 11.4219 14.0156C11.6719 14.3281 11.8711 14.6953 12.0195 15.1172C12.168 15.5391 12.2422 16.0195 12.2422 16.5586C12.2422 17.3633 12.1016 18.0703 11.8203 18.6797C11.5469 19.2812 11.1836 19.7852 10.7305 20.1914C10.2773 20.5977 9.76562 20.9023 9.19531 21.1055C8.63281 21.3086 8.05859 21.4102 7.47266 21.4102ZM9.44141 7.65234C9.44141 7.33984 9.38281 7.05469 9.26562 6.79688C9.14844 6.53125 8.99609 6.30469 8.80859 6.11719C8.62891 5.92969 8.42578 5.78516 8.19922 5.68359C7.98047 5.57422 7.76172 5.51953 7.54297 5.51953C7.29297 5.51953 7.04297 5.57422 6.79297 5.68359C6.55078 5.78516 6.33203 5.92969 6.13672 6.11719C5.94922 6.30469 5.79688 6.53125 5.67969 6.79688C5.5625 7.05469 5.50391 7.33984 5.50391 7.65234C5.50391 8.27734 5.5625 8.8125 5.67969 9.25781C5.80469 9.70312 5.96094 10.0781 6.14844 10.3828C6.34375 10.6875 6.55469 10.9336 6.78125 11.1211C7.01562 11.3008 7.24609 11.4414 7.47266 11.543C7.69141 11.4336 7.91406 11.2852 8.14062 11.0977C8.375 10.9102 8.58594 10.6641 8.77344 10.3594C8.96875 10.0469 9.12891 9.67188 9.25391 9.23438C9.37891 8.78906 9.44141 8.26172 9.44141 7.65234ZM5.50391 17.1562C5.50391 17.4766 5.56641 17.7695 5.69141 18.0352C5.81641 18.293 5.97656 18.5156 6.17188 18.7031C6.36719 18.8906 6.58594 19.0391 6.82812 19.1484C7.07031 19.25 7.30859 19.3008 7.54297 19.3008C7.76172 19.3008 7.98047 19.25 8.19922 19.1484C8.42578 19.0391 8.62891 18.8906 8.80859 18.7031C8.99609 18.5156 9.14844 18.293 9.26562 18.0352C9.38281 17.7695 9.44141 17.4766 9.44141 17.1562C9.44141 16.5703 9.37891 16.0664 9.25391 15.6445C9.13672 15.2227 8.98047 14.8672 8.78516 14.5781C8.59766 14.2891 8.38672 14.0586 8.15234 13.8867C7.91797 13.7148 7.69141 13.582 7.47266 13.4883C7.24609 13.582 7.01562 13.7148 6.78125 13.8867C6.55469 14.0586 6.34375 14.2891 6.14844 14.5781C5.96094 14.8594 5.80469 15.2109 5.67969 15.6328C5.5625 16.0547 5.50391 16.5625 5.50391 17.1562Z" stroke="black" stroke-width="4.6425" mask="url(#path-1-outside-1_1598_9502)"/>
<path d="M17.9834 10.6992C17.9834 10.9102 17.9405 11.1094 17.8545 11.2969C17.7764 11.4844 17.667 11.6484 17.5264 11.7891C17.3936 11.9219 17.2334 12.0312 17.0459 12.1172C16.8584 12.1953 16.6592 12.2344 16.4483 12.2344C16.2295 12.2344 16.0264 12.1953 15.8389 12.1172C15.6514 12.0312 15.4873 11.9219 15.3467 11.7891C15.2061 11.6484 15.0928 11.4844 15.0069 11.2969C14.9288 11.1094 14.8897 10.9102 14.8897 10.6992C14.8897 10.4883 14.9288 10.2891 15.0069 10.1016C15.0928 9.90625 15.2061 9.73828 15.3467 9.59766C15.4873 9.45703 15.6514 9.34766 15.8389 9.26953C16.0264 9.18359 16.2295 9.14062 16.4483 9.14062C16.6592 9.14062 16.8584 9.18359 17.0459 9.26953C17.2334 9.34766 17.3936 9.45703 17.5264 9.59766C17.667 9.73828 17.7764 9.90625 17.8545 10.1016C17.9405 10.2891 17.9834 10.4883 17.9834 10.6992ZM17.9834 19.8984C17.9834 20.1094 17.9405 20.3086 17.8545 20.4961C17.7764 20.6758 17.667 20.8359 17.5264 20.9766C17.3936 21.1172 17.2334 21.2266 17.0459 21.3047C16.8584 21.3906 16.6592 21.4336 16.4483 21.4336C16.2295 21.4336 16.0264 21.3906 15.8389 21.3047C15.6514 21.2266 15.4873 21.1172 15.3467 20.9766C15.2061 20.8359 15.0928 20.6758 15.0069 20.4961C14.9288 20.3086 14.8897 20.1094 14.8897 19.8984C14.8897 19.6797 14.9288 19.4766 15.0069 19.2891C15.0928 19.1016 15.2061 18.9375 15.3467 18.7969C15.4873 18.6562 15.6514 18.5469 15.8389 18.4688C16.0264 18.3828 16.2295 18.3398 16.4483 18.3398C16.6592 18.3398 16.8584 18.3828 17.0459 18.4688C17.2334 18.5469 17.3936 18.6562 17.5264 18.7969C17.667 18.9375 17.7764 19.1016 17.8545 19.2891C17.9405 19.4766 17.9834 19.6797 17.9834 19.8984Z" stroke="black" stroke-width="4.6425" mask="url(#path-1-outside-1_1598_9502)"/>
<path d="M36.8019 12.9609C36.8019 14.2344 36.6808 15.3359 36.4386 16.2656C36.2042 17.1875 35.8995 17.9766 35.5245 18.6328C35.1495 19.2812 34.7277 19.8086 34.2589 20.2148C33.7902 20.6211 33.3214 20.9336 32.8527 21.1523C32.3839 21.3789 31.9425 21.5312 31.5284 21.6094C31.1144 21.6953 30.7745 21.7383 30.5089 21.7383C30.4464 21.7383 30.3058 21.7344 30.087 21.7266C29.8761 21.7188 29.6144 21.6992 29.3019 21.668C28.9894 21.6445 28.6339 21.6055 28.2355 21.5508C27.8448 21.4961 27.4347 21.418 27.005 21.3164C27.0128 19.7695 27.0206 18.4297 27.0284 17.2969C27.0441 16.1562 27.0558 15.1758 27.0636 14.3555C27.0714 13.5352 27.0792 12.8477 27.087 12.293C27.0948 11.7383 27.0987 11.2617 27.0987 10.8633C27.1066 10.4648 27.1105 10.125 27.1105 9.84375C27.1183 9.55469 27.1222 9.27344 27.1222 9C27.1222 8.57031 27.1183 8.12891 27.1105 7.67578C27.1027 7.21484 27.087 6.76953 27.0636 6.33984C27.0402 5.91016 27.0089 5.50781 26.9698 5.13281C26.9308 4.75781 26.88 4.4375 26.8175 4.17188C27.4269 4.13281 27.9816 4.10938 28.4816 4.10156C28.9894 4.08594 29.4269 4.07812 29.7941 4.07812C30.7159 4.07812 31.5284 4.19141 32.2316 4.41797C32.9347 4.63672 33.5441 4.94531 34.0597 5.34375C34.5831 5.73438 35.0167 6.20703 35.3605 6.76172C35.712 7.30859 35.9933 7.91016 36.2042 8.56641C36.423 9.22266 36.5753 9.92578 36.6612 10.6758C36.755 11.418 36.8019 12.1797 36.8019 12.9609ZM33.755 12.5977C33.755 11.2148 33.6886 10.0898 33.5558 9.22266C33.4308 8.34766 33.2237 7.66797 32.9347 7.18359C32.6534 6.69922 32.2823 6.37109 31.8214 6.19922C31.3683 6.01953 30.8175 5.92969 30.1691 5.92969H29.8175L29.9581 19.6992C30.1144 19.7617 30.2589 19.8047 30.3917 19.8281C30.5323 19.8438 30.6691 19.8516 30.8019 19.8516C31.3253 19.8516 31.7706 19.7305 32.1378 19.4883C32.5128 19.2383 32.8175 18.832 33.0519 18.2695C33.2941 17.6992 33.4698 16.9531 33.5792 16.0312C33.6964 15.1016 33.755 13.957 33.755 12.5977Z" stroke="black" stroke-width="4.6425" mask="url(#path-1-outside-1_1598_9502)"/>
<path d="M42.4494 4.55859C42.4494 4.80859 42.4025 5.04688 42.3088 5.27344C42.215 5.49219 42.0861 5.68359 41.922 5.84766C41.758 6.01172 41.5627 6.14453 41.3361 6.24609C41.1173 6.33984 40.883 6.38672 40.633 6.38672C40.383 6.38672 40.1447 6.33984 39.9181 6.24609C39.6994 6.14453 39.508 6.01172 39.3439 5.84766C39.1798 5.68359 39.047 5.49219 38.9455 5.27344C38.8517 5.04688 38.8048 4.80859 38.8048 4.55859C38.8048 4.30859 38.8517 4.07422 38.9455 3.85547C39.047 3.62891 39.1798 3.43359 39.3439 3.26953C39.508 3.10547 39.6994 2.97656 39.9181 2.88281C40.1447 2.78125 40.383 2.73047 40.633 2.73047C40.883 2.73047 41.1173 2.78125 41.3361 2.88281C41.5627 2.97656 41.758 3.10547 41.922 3.26953C42.0861 3.43359 42.215 3.62891 42.3088 3.85547C42.4025 4.07422 42.4494 4.30859 42.4494 4.55859ZM42.4494 8.10938C42.3869 8.72656 42.3322 9.39453 42.2853 10.1133C42.2463 10.8242 42.2111 11.5547 42.1798 12.3047C42.1564 13.0547 42.1369 13.8086 42.1213 14.5664C42.1056 15.3242 42.0939 16.0469 42.0861 16.7344C42.0783 17.4219 42.0705 18.0664 42.0627 18.668C42.0627 19.2617 42.0627 19.7734 42.0627 20.2031V21.5273L39.4025 21.6211C39.4181 21.082 39.4259 20.5586 39.4259 20.0508C39.4259 19.543 39.4259 19.0352 39.4259 18.5273C39.4259 17.6445 39.4181 16.7852 39.4025 15.9492C39.3869 15.1055 39.3595 14.2617 39.3205 13.418C39.2892 12.5742 39.2463 11.7188 39.1916 10.8516C39.1369 9.98438 39.0705 9.08594 38.9923 8.15625L42.4494 8.10938Z" stroke="black" stroke-width="4.6425" mask="url(#path-1-outside-1_1598_9502)"/>
<path d="M53.2766 18.4805C53.2766 18.9414 53.1711 19.375 52.9602 19.7812C52.7492 20.1875 52.4641 20.5391 52.1047 20.8359C51.7453 21.1328 51.3234 21.3672 50.8391 21.5391C50.3547 21.7109 49.8391 21.7969 49.2922 21.7969C48.925 21.7969 48.5539 21.7461 48.1789 21.6445C47.8039 21.543 47.4445 21.375 47.1008 21.1406C46.757 20.9062 46.4328 20.5977 46.1281 20.2148C45.8234 19.832 45.5578 19.3633 45.3312 18.8086C45.1125 18.2539 44.9367 17.6055 44.8039 16.8633C44.6789 16.1133 44.6164 15.2539 44.6164 14.2852C44.6164 13.3711 44.6789 12.5625 44.8039 11.8594C44.9367 11.1562 45.1125 10.543 45.3312 10.0195C45.5578 9.49609 45.8195 9.05859 46.1164 8.70703C46.4133 8.34766 46.7297 8.05859 47.0656 7.83984C47.4094 7.61328 47.7609 7.45312 48.1203 7.35938C48.4875 7.26562 48.8469 7.21875 49.1984 7.21875C49.7219 7.21875 50.218 7.30469 50.6867 7.47656C51.1555 7.64062 51.5656 7.88672 51.9172 8.21484C52.2687 8.54297 52.5461 8.94922 52.7492 9.43359C52.9602 9.91016 53.0656 10.4609 53.0656 11.0859C53.0656 11.6484 52.9484 12.2188 52.7141 12.7969C52.4875 13.3672 52.1477 13.9102 51.6945 14.4258C51.2414 14.9336 50.6789 15.3984 50.007 15.8203C49.343 16.2344 48.5773 16.5625 47.7102 16.8047C47.757 17.2891 47.8234 17.7305 47.9094 18.1289C48.0031 18.5273 48.1164 18.8672 48.2492 19.1484C48.3898 19.4297 48.55 19.6484 48.7297 19.8047C48.9172 19.9609 49.132 20.0391 49.3742 20.0391C49.5305 20.0312 49.6789 20.0039 49.8195 19.957C49.9445 19.918 50.0695 19.8555 50.1945 19.7695C50.3273 19.6836 50.4367 19.5586 50.5227 19.3945C50.3195 19.3008 50.1633 19.1797 50.0539 19.0312C49.9445 18.8828 49.8625 18.7422 49.8078 18.6094C49.7453 18.4531 49.7102 18.2891 49.7023 18.1172C49.7023 17.7422 49.7766 17.4375 49.925 17.2031C50.0734 16.9688 50.2492 16.7852 50.4523 16.6523C50.6555 16.5195 50.8625 16.4297 51.0734 16.3828C51.2844 16.3281 51.4523 16.3008 51.5773 16.3008C51.7102 16.3008 51.8703 16.3281 52.0578 16.3828C52.2531 16.4375 52.4406 16.543 52.6203 16.6992C52.8 16.8555 52.9523 17.0781 53.0773 17.3672C53.2102 17.6484 53.2766 18.0195 53.2766 18.4805ZM50.382 11.1094C50.382 10.8281 50.3547 10.5625 50.3 10.3125C50.2531 10.0547 50.1789 9.83203 50.0773 9.64453C49.9836 9.45703 49.8625 9.30859 49.7141 9.19922C49.5734 9.08203 49.4094 9.02344 49.2219 9.02344C48.9016 9.02344 48.6398 9.17188 48.4367 9.46875C48.2336 9.75781 48.0695 10.1445 47.9445 10.6289C47.8195 11.1133 47.7336 11.6719 47.6867 12.3047C47.6398 12.9375 47.6164 13.5977 47.6164 14.2852V15.1406C48.0148 14.9297 48.382 14.6797 48.718 14.3906C49.0617 14.1016 49.3547 13.7852 49.5969 13.4414C49.8469 13.0898 50.0383 12.7188 50.1711 12.3281C50.3117 11.9375 50.382 11.5312 50.382 11.1094Z" stroke="black" stroke-width="4.6425" mask="url(#path-1-outside-1_1598_9502)"/>
<path d="M58.7834 3.36328C58.6897 4.38672 58.6077 5.40234 58.5373 6.41016C58.467 7.41016 58.4045 8.41797 58.3498 9.43359C58.6155 8.95703 58.9006 8.58984 59.2053 8.33203C59.51 8.06641 59.7952 7.87109 60.0608 7.74609C60.3733 7.60547 60.678 7.51953 60.9748 7.48828C61.5373 7.48828 62.0373 7.60547 62.4748 7.83984C62.9123 8.07422 63.2795 8.47656 63.5764 9.04688C63.8811 9.60938 64.1116 10.3633 64.2678 11.3086C64.4241 12.2461 64.5022 13.4219 64.5022 14.8359C64.5022 16.1406 64.3772 17.2383 64.1272 18.1289C63.885 19.0117 63.5686 19.7266 63.178 20.2734C62.7952 20.8125 62.3655 21.1992 61.8889 21.4336C61.4202 21.6758 60.9553 21.7969 60.4944 21.7969C60.4475 21.7969 60.342 21.7852 60.178 21.7617C60.0217 21.7461 59.8303 21.6875 59.6037 21.5859C59.3772 21.4922 59.135 21.3477 58.8772 21.1523C58.6194 20.957 58.3733 20.6836 58.1389 20.332V21.6211L55.5022 21.5742C55.5725 20.4336 55.6194 19.2969 55.6428 18.1641C55.6741 17.0312 55.6897 15.8984 55.6897 14.7656C55.6897 12.8594 55.6584 10.9688 55.5959 9.09375C55.5334 7.21094 55.4592 5.31641 55.3733 3.41016L58.7834 3.36328ZM59.6272 19.6289C59.6662 19.6445 59.7053 19.6523 59.7444 19.6523C59.7912 19.6523 59.8381 19.6523 59.885 19.6523C60.0959 19.6523 60.3147 19.582 60.5412 19.4414C60.7756 19.293 60.9866 19.0352 61.1741 18.668C61.3616 18.3008 61.5178 17.8047 61.6428 17.1797C61.7678 16.5469 61.8303 15.7422 61.8303 14.7656C61.8303 13.8906 61.7873 13.1641 61.7014 12.5859C61.6233 12 61.5139 11.5312 61.3733 11.1797C61.2327 10.8281 61.0686 10.582 60.8811 10.4414C60.6936 10.293 60.4983 10.2188 60.2952 10.2188C60.0842 10.2188 59.8889 10.2773 59.7092 10.3945C59.5373 10.5039 59.3811 10.6523 59.2405 10.8398C59.0998 11.0195 58.9709 11.2266 58.8537 11.4609C58.7444 11.6953 58.6467 11.9297 58.5608 12.1641C58.4748 12.3906 58.4006 12.6133 58.3381 12.832C58.2834 13.043 58.2405 13.2227 58.2092 13.3711C58.1623 14.9102 58.1389 16.4375 58.1389 17.9531C58.3186 18.3281 58.4983 18.625 58.678 18.8438C58.8577 19.0625 59.0178 19.2305 59.1584 19.3477C59.3225 19.4883 59.4787 19.582 59.6272 19.6289Z" stroke="black" stroke-width="4.6425" mask="url(#path-1-outside-1_1598_9502)"/>
<path d="M74.9544 10.4414C74.9544 10.8008 74.888 11.1055 74.7552 11.3555C74.6223 11.6055 74.4622 11.8086 74.2747 11.9648C74.0872 12.1211 73.8919 12.2344 73.6888 12.3047C73.4856 12.375 73.3138 12.4102 73.1731 12.4102C73.0325 12.4102 72.8645 12.3867 72.6692 12.3398C72.4739 12.2852 72.2864 12.1914 72.1067 12.0586C71.9348 11.9258 71.7864 11.75 71.6614 11.5312C71.5364 11.3047 71.4739 11.0195 71.4739 10.6758C71.4817 10.4883 71.5169 10.3047 71.5794 10.125C71.6341 9.96875 71.7161 9.80859 71.8255 9.64453C71.9427 9.47266 72.1067 9.32031 72.3177 9.1875C72.177 8.98438 72.0364 8.82812 71.8958 8.71875C71.7552 8.60938 71.6302 8.52734 71.5208 8.47266C71.388 8.41016 71.2669 8.37109 71.1575 8.35547C70.9153 8.35547 70.6966 8.40625 70.5013 8.50781C70.3059 8.60156 70.138 8.73047 69.9973 8.89453C69.8645 9.05078 69.7591 9.23438 69.6809 9.44531C69.6106 9.65625 69.5755 9.875 69.5755 10.1016C69.5755 10.3906 69.595 10.6523 69.6341 10.8867C69.6731 11.1211 69.763 11.3594 69.9036 11.6016C70.0442 11.8438 70.2552 12.1055 70.5364 12.3867C70.8177 12.668 71.2005 12.9961 71.6848 13.3711C72.1692 13.7461 72.5911 14.1133 72.9505 14.4727C73.3098 14.8242 73.6067 15.1719 73.8411 15.5156C74.0755 15.8594 74.2513 16.207 74.3684 16.5586C74.4856 16.9023 74.5442 17.2617 74.5442 17.6367C74.5442 17.8867 74.5169 18.1602 74.4622 18.457C74.4153 18.7461 74.3294 19.043 74.2044 19.3477C74.0872 19.6445 73.927 19.9336 73.7239 20.2148C73.5286 20.4883 73.2825 20.7344 72.9856 20.9531C72.6966 21.1719 72.3528 21.3438 71.9544 21.4688C71.5638 21.6016 71.1145 21.668 70.6067 21.668C69.8411 21.668 69.1888 21.5547 68.6497 21.3281C68.1106 21.1016 67.6653 20.8281 67.3138 20.5078C66.97 20.1797 66.7161 19.8359 66.552 19.4766C66.3958 19.1172 66.3177 18.8008 66.3177 18.5273C66.3177 18.2383 66.3528 17.9688 66.4231 17.7188C66.4934 17.4688 66.6028 17.25 66.7513 17.0625C66.9075 16.875 67.1028 16.7305 67.3372 16.6289C67.5794 16.5195 67.8684 16.4648 68.2044 16.4648C68.4856 16.4648 68.7395 16.5078 68.9661 16.5938C69.2005 16.6797 69.3997 16.8086 69.5638 16.9805C69.7356 17.1445 69.8684 17.3477 69.9622 17.5898C70.0559 17.832 70.1028 18.1055 70.1028 18.4102C70.095 18.543 70.0677 18.6797 70.0208 18.8203C69.9817 18.9375 69.9153 19.0664 69.8216 19.207C69.7278 19.3477 69.5989 19.4805 69.4348 19.6055C69.5442 19.6914 69.6497 19.7578 69.7513 19.8047C69.8606 19.8438 69.9583 19.8711 70.0442 19.8867C70.138 19.9102 70.2317 19.9219 70.3255 19.9219C70.427 19.9219 70.5442 19.8945 70.677 19.8398C70.8177 19.7773 70.9505 19.6836 71.0755 19.5586C71.2005 19.4336 71.3059 19.2812 71.3919 19.1016C71.4778 18.9219 71.5208 18.707 71.5208 18.457C71.5208 18.207 71.4973 17.9805 71.4505 17.7773C71.4114 17.5664 71.3216 17.3516 71.1809 17.1328C71.0481 16.9062 70.8528 16.6602 70.595 16.3945C70.3372 16.1289 69.9973 15.8086 69.5755 15.4336C69.1536 15.0586 68.7786 14.6953 68.4505 14.3438C68.1223 13.9844 67.845 13.6133 67.6184 13.2305C67.3997 12.8477 67.2317 12.4453 67.1145 12.0234C66.9973 11.6016 66.9388 11.1367 66.9388 10.6289C66.9388 10.1289 67.0364 9.64453 67.2317 9.17578C67.4348 8.70703 67.72 8.29297 68.0872 7.93359C68.4544 7.56641 68.8997 7.27734 69.4231 7.06641C69.9466 6.84766 70.5325 6.73828 71.1809 6.73828C71.8372 6.73828 72.4036 6.83984 72.8802 7.04297C73.3567 7.24609 73.7473 7.51953 74.052 7.86328C74.3567 8.19922 74.5833 8.58984 74.7317 9.03516C74.8802 9.48047 74.9544 9.94922 74.9544 10.4414Z" stroke="black" stroke-width="4.6425" mask="url(#path-1-outside-1_1598_9502)"/>
<path d="M81.2816 3.1875C81.2191 3.99219 81.1683 4.78516 81.1292 5.56641C81.0902 6.33984 81.0511 7.11719 81.012 7.89844C81.3558 7.88281 81.6956 7.87109 82.0316 7.86328C82.3675 7.84766 82.7113 7.82812 83.0628 7.80469L83.1097 10.8047C82.7347 10.7422 82.3636 10.6914 81.9964 10.6523C81.6292 10.6133 81.2698 10.582 80.9183 10.5586C80.8948 11.2227 80.8792 11.8789 80.8714 12.5273C80.8714 13.1758 80.8714 13.832 80.8714 14.4961C80.8714 15.6836 80.8831 16.8633 80.9066 18.0352C80.9378 19.207 80.9847 20.3867 81.0472 21.5742L77.9886 21.5273C78.0902 19.6914 78.1722 17.8594 78.2347 16.0312C78.305 14.1953 78.3519 12.3477 78.3753 10.4883C78.0472 10.5039 77.7191 10.5234 77.3909 10.5469C77.0628 10.5625 76.7269 10.582 76.3831 10.6055L76.4769 7.82812C76.7972 7.85156 77.1136 7.87109 77.4261 7.88672C77.7464 7.89453 78.0628 7.90625 78.3753 7.92188C78.3753 7.14062 78.3675 6.36328 78.3519 5.58984C78.3363 4.80859 78.3206 4.02344 78.305 3.23438L81.2816 3.1875Z" stroke="black" stroke-width="4.6425" mask="url(#path-1-outside-1_1598_9502)"/>
<path d="M90.5736 21.4805C90.5267 21.2383 90.4837 20.9922 90.4447 20.7422C90.4056 20.4922 90.3744 20.2344 90.3509 19.9688C89.9916 20.5 89.5619 20.9062 89.0619 21.1875C88.5619 21.4766 88.015 21.6211 87.4212 21.6211C87.1166 21.6211 86.8041 21.5703 86.4837 21.4688C86.1634 21.375 85.8705 21.207 85.6048 20.9648C85.347 20.7227 85.1322 20.3945 84.9603 19.9805C84.7962 19.5586 84.7142 19.0273 84.7142 18.3867C84.7142 17.8555 84.7923 17.3945 84.9486 17.0039C85.1048 16.6055 85.308 16.2578 85.558 15.9609C85.808 15.6641 86.0892 15.4062 86.4017 15.1875C86.7142 14.9688 87.0228 14.7734 87.3275 14.6016C87.64 14.4297 87.9369 14.2695 88.2181 14.1211C88.4994 13.9727 88.7298 13.8242 88.9095 13.6758C89.2533 13.4023 89.5502 13.1133 89.8002 12.8086C90.058 12.4961 90.265 12.1719 90.4212 11.8359C90.39 11.2969 90.3314 10.8555 90.2455 10.5117C90.1673 10.1602 90.0619 9.88281 89.9291 9.67969C89.7962 9.46875 89.6322 9.32422 89.4369 9.24609C89.2494 9.16016 89.0345 9.11719 88.7923 9.11719C88.433 9.11719 88.1283 9.19531 87.8783 9.35156C87.6361 9.50781 87.4369 9.69531 87.2806 9.91406C87.4759 10.0391 87.6244 10.1719 87.7259 10.3125C87.8353 10.4531 87.9173 10.5898 87.972 10.7227C88.0345 10.8711 88.0697 11.0234 88.0775 11.1797C88.0775 11.7109 87.9252 12.1172 87.6205 12.3984C87.3236 12.6797 86.9408 12.8203 86.472 12.8203C86.2298 12.8203 86.0072 12.7656 85.8041 12.6562C85.6009 12.5391 85.4212 12.3789 85.265 12.1758C85.1166 11.9727 84.9994 11.7305 84.9134 11.4492C84.8275 11.168 84.7845 10.8633 84.7845 10.5352C84.7845 10.207 84.8587 9.85938 85.0072 9.49219C85.1556 9.125 85.3939 8.78516 85.722 8.47266C86.0502 8.15234 86.472 7.89062 86.9877 7.6875C87.5033 7.47656 88.1283 7.37109 88.8627 7.37109C89.597 7.37109 90.2259 7.51562 90.7494 7.80469C91.2728 8.08594 91.7025 8.46484 92.0384 8.94141C92.3744 9.41016 92.6166 9.95312 92.765 10.5703C92.9212 11.1875 92.9994 11.8242 92.9994 12.4805C92.9994 12.9727 92.9955 13.5078 92.9877 14.0859C92.9798 14.6641 92.9759 15.2578 92.9759 15.8672C92.9759 16.375 92.9798 16.8828 92.9877 17.3906C92.9955 17.8984 93.0111 18.3906 93.0345 18.8672C93.058 19.3359 93.0892 19.7812 93.1283 20.2031C93.1673 20.6172 93.2181 20.9883 93.2806 21.3164L90.5736 21.4805ZM90.3978 14.6133C90.1244 14.9414 89.8314 15.2227 89.5189 15.457C89.2845 15.6211 89.0306 15.8047 88.7572 16.0078C88.4916 16.2109 88.2416 16.4258 88.0072 16.6523C87.7806 16.8789 87.5892 17.1172 87.433 17.3672C87.2845 17.6094 87.2103 17.8594 87.2103 18.1172C87.2103 18.4688 87.2962 18.7695 87.4681 19.0195C87.64 19.2695 87.8822 19.3945 88.1947 19.3945C88.4837 19.3945 88.7416 19.3164 88.9681 19.1602C89.1947 19.0039 89.3939 18.8125 89.5658 18.5859C89.7455 18.3516 89.8939 18.1016 90.0111 17.8359C90.1361 17.5703 90.2337 17.3281 90.3041 17.1094L90.3978 14.6133Z" stroke="black" stroke-width="4.6425" mask="url(#path-1-outside-1_1598_9502)"/>
<path d="M98.7406 3.16406C98.6781 4.17969 98.6195 5.1875 98.5648 6.1875C98.5102 7.1875 98.4633 8.19531 98.4242 9.21094C98.6977 8.69531 99.0023 8.29688 99.3383 8.01562C99.6742 7.72656 99.9906 7.51562 100.287 7.38281C100.631 7.22656 100.979 7.13281 101.33 7.10156C101.893 7.10156 102.373 7.23828 102.772 7.51172C103.17 7.78516 103.498 8.17578 103.756 8.68359C104.014 9.19141 104.202 9.80469 104.319 10.5234C104.436 11.2344 104.495 12.0312 104.495 12.9141C104.495 14.3906 104.444 15.8203 104.342 17.2031C104.248 18.5781 104.045 19.9219 103.733 21.2344L100.991 20.9062C101.17 19.9766 101.307 19.1094 101.401 18.3047C101.502 17.5 101.577 16.7969 101.623 16.1953C101.678 15.4922 101.709 14.8477 101.717 14.2617C101.717 13.5195 101.705 12.875 101.682 12.3281C101.666 11.7734 101.612 11.3164 101.518 10.957C101.432 10.5898 101.295 10.3164 101.108 10.1367C100.92 9.95703 100.659 9.86719 100.323 9.86719C100.065 9.90625 99.8109 10.0625 99.5609 10.3359C99.4516 10.4531 99.3422 10.6016 99.2328 10.7812C99.1234 10.9609 99.0102 11.1836 98.893 11.4492C98.7836 11.707 98.6781 12.0117 98.5766 12.3633C98.475 12.7148 98.3852 13.1211 98.307 13.582C98.2836 14.3789 98.268 15.1719 98.2602 15.9609C98.2602 16.75 98.2602 17.5352 98.2602 18.3164C98.2602 18.8086 98.2602 19.3047 98.2602 19.8047C98.2602 20.3047 98.268 20.8008 98.2836 21.293L95.6234 21.2344C95.7094 19.8047 95.7719 18.375 95.8109 16.9453C95.8578 15.5156 95.8812 14.0742 95.8812 12.6211C95.8812 11.0273 95.8539 9.44531 95.7992 7.875C95.7445 6.29688 95.6664 4.71094 95.5648 3.11719L98.7406 3.16406Z" stroke="black" stroke-width="4.6425" mask="url(#path-1-outside-1_1598_9502)"/>
<path d="M110.06 2.97656C110.013 3.92969 109.97 4.8125 109.931 5.625C109.892 6.4375 109.857 7.20312 109.826 7.92188C109.802 8.64062 109.783 9.32422 109.767 9.97266C109.751 10.6211 109.736 11.2617 109.72 11.8945C109.712 12.5273 109.705 13.1641 109.697 13.8047C109.697 14.4453 109.697 15.1172 109.697 15.8203C109.697 16.6016 109.697 17.4375 109.697 18.3281C109.697 19.2188 109.705 20.207 109.72 21.293L107.06 21.2344C107.107 20.0547 107.138 18.8945 107.154 17.7539C107.169 16.6055 107.177 15.4297 107.177 14.2266C107.177 13.4219 107.173 12.5977 107.165 11.7539C107.158 10.9023 107.146 10.0156 107.13 9.09375C107.115 8.16406 107.095 7.1875 107.072 6.16406C107.056 5.14062 107.037 4.05469 107.013 2.90625L110.06 2.97656Z" stroke="black" stroke-width="4.6425" mask="url(#path-1-outside-1_1598_9502)"/>
</svg>
