<svg width="61" height="91" fill="none" xmlns="http://www.w3.org/2000/svg"><rect x=".39" y=".05" width="60.23" height="90.09" rx="2.23" fill="#fff"/><path d="M48.65 49.8c-5.38-1.77-9.78-1.66-14.27 1.83m14.16-1.52a.34.34 0 0 0 .21-.63c-2.71-.9-5.2-1.32-7.6-1.07-2.4.25-4.69 1.18-6.98 2.95a.34.34 0 0 0 .41.53c2.2-1.7 4.37-2.58 6.64-2.81 2.27-.24 4.66.16 7.32 1.03Zm-2.58 4.07c-2.4.83-3.99 1.38-5.63 1.68-1.6.3-3.27.37-5.82.24-1.84-1.61-2.79-2.9-3.05-4.24-.26-1.33.15-2.8 1.23-4.85 4.76-1.9 9.43-1.9 12.39-1.57 1.43.16 3.57 1.14 5.45 2.37.94.6 1.79 1.27 2.44 1.9a4.36 4.36 0 0 1 1.2 1.68c.06.19.04.33-.03.46-.08.14-.23.28-.47.43-.48.29-1.23.52-2.14.72-.65.14-1.35.27-2.07.4l-.82.14c-.97.18-1.92.37-2.68.64ZM13.58 49.12c5.37-1.76 9.77-1.65 14.27 1.84m-14.17-1.52a.34.34 0 0 1-.2-.64c2.7-.89 5.2-1.31 7.6-1.06 2.4.25 4.68 1.18 6.97 2.95a.34.34 0 0 1-.4.53A12.78 12.78 0 0 0 21 48.41c-2.27-.24-4.67.16-7.33 1.03Zm2.58 4.07c2.4.83 4 1.38 5.63 1.68 1.6.3 3.28.37 5.83.24 1.84-1.61 2.78-2.9 3.04-4.24.26-1.33-.15-2.8-1.23-4.85a26.21 26.21 0 0 0-12.38-1.57c-1.43.16-3.58 1.14-5.46 2.36-.93.62-1.78 1.28-2.44 1.91a4.36 4.36 0 0 0-1.2 1.68.58.58 0 0 0 .04.46c.08.14.22.28.46.43.49.29 1.24.51 2.14.72.65.14 1.36.27 2.07.4l.82.14c.98.18 1.93.37 2.68.64Z" fill="#D1B167" stroke="#000" stroke-width=".67" stroke-linecap="round"/><path d="M47.96 59.68a.33.33 0 0 0 .19-.63 27.85 27.85 0 0 1-7.49-3.62l-.88-.59c-.49-.33-.9-.61-1.26-.82-.27-.16-.53-.3-.76-.36-.22-.07-.49-.1-.72.07a.33.33 0 1 0 .37.54h.02c.03 0 .08 0 .15.02.15.04.34.14.6.3.34.2.74.46 1.2.78l.92.61a28.5 28.5 0 0 0 7.66 3.7Zm.96 1.97a8.61 8.61 0 0 1-4.73.32l-.83-.2c-4.63-1.18-7.57-1.92-10.96-5.16-.32-2.38-.2-3.93.48-5.09.66-1.15 1.91-1.97 4.02-2.78 4.7 1.64 6.78 3.34 10.59 6.9.94.95 1.91 1.66 2.7 2.24l.71.53c.44.34.72.61.86.85.07.11.1.2.1.3 0 .07-.03.17-.1.3-.17.27-.51.6-1.01.92-.5.32-1.12.63-1.83.87ZM11.63 57.7a.33.33 0 1 1-.1-.65c4.6-.66 7.9-1.75 12-3.62a.33.33 0 1 1 .28.6c-4.16 1.89-7.51 3-12.18 3.67Zm-2.2 1.67A6.49 6.49 0 0 0 14.55 61c4.78-.2 7.8-.33 11.79-2.81.8-2.27.98-3.81.56-5.08-.42-1.26-1.47-2.32-3.37-3.55-4.94.65-7.32 1.9-11.77 4.6a12.66 12.66 0 0 1-3.7 1.63c-.2.07-.38.13-.52.2a.97.97 0 0 0-.28.17.22.22 0 0 0-.07.13c-.01.06 0 .16.05.31a7.6 7.6 0 0 0 2.19 2.77Z" fill="#4C29B0" stroke="#000" stroke-width=".66" stroke-linecap="round"/><path d="M29.25 67.02a.33.33 0 1 0 .65.07 45 45 0 0 0 .12-11.59.33.33 0 1 0-.65.07c.41 4.15.46 6.6-.12 11.45Zm-2.79 4.43c-.57-1.1-1.07-2.6-1.53-4.27-.67-2.55-.94-4.5-.9-6.43.06-1.9.43-3.8 1.07-6.22 1.93-1.43 3.35-2.07 4.68-2.04 1.33.02 2.66.72 4.4 2.17.42 2.47.68 4.37.68 6.27 0 1.92-.27 3.86-.9 6.4a9.55 9.55 0 0 1-2.73 4.17c-.58.53-1.18.96-1.72 1.25-.54.29-1 .42-1.3.4-.27 0-.56-.15-.86-.44-.3-.29-.6-.71-.89-1.26Z" fill="#4C29B0" stroke="#000" stroke-width=".66" stroke-linecap="round"/><path d="M33.52 56.3a.33.33 0 0 0-.46 0l10.52 9.42h0l-.03-.02-.09-.06a21.15 21.15 0 0 1-1.42-.96 13.59 13.59 0 0 1-2.48-2.22 32.37 32.37 0 0 0-3.16-3.34l-2.88-2.83Zm6.13 12.6a5.07 5.07 0 0 1-2.43-.92 27 27 0 0 1-4.73-4.64 22.57 22.57 0 0 1-3-5.6c.71-2.3 1.35-3.47 2.3-4.06.96-.6 2.3-.66 4.59-.51a43.54 43.54 0 0 0 2.87 2.72c.63.56 1.22 1.1 1.78 1.65a14.75 14.75 0 0 1 3.54 5.25c.58 1.56 1.45 2.66 2.08 3.45l.16.2c.16.2.3.38.4.53.1.16.16.28.18.38.03.08.02.13 0 .17-.01.04-.06.1-.18.2-.28.18-.88.42-1.7.66-.8.22-1.78.43-2.8.54-1.04.1-2.1.12-3.06-.02Z" fill="#D1B167" stroke="#000" stroke-width=".66" stroke-linecap="round"/><path d="M27.43 55.8a.33.33 0 0 1 .44.48l-3.07 2.7c-1.72 1.49-2.3 2-3.26 3.07-.74.82-1.89 1.55-2.82 2.07a21.6 21.6 0 0 1-1.67.83l-.03.02h0H17h0l-.13-.3.13.3a.33.33 0 1 1-.26-.6h0l.03-.02a12.73 12.73 0 0 0 .45-.2c.3-.14.72-.35 1.17-.6.92-.52 1.99-1.2 2.65-1.94.99-1.1 1.6-1.64 3.35-3.16.76-.66 1.73-1.5 3.03-2.66ZM20.6 68.02a5.05 5.05 0 0 0 2.48-.78 27 27 0 0 0 4.98-4.36 22.58 22.58 0 0 0 3.31-5.43c-.57-2.33-1.15-3.54-2.06-4.18-.93-.65-2.27-.8-4.55-.77-.9.84-1.75 1.54-2.56 2.18l-.46.37c-.66.53-1.29 1.02-1.88 1.55a14.75 14.75 0 0 0-3.83 5.04 11.87 11.87 0 0 1-2.29 3.33l-.17.18-.42.5c-.11.16-.18.27-.22.37-.03.08-.02.13-.01.17.01.04.06.1.18.2.26.2.85.48 1.65.76.8.27 1.77.53 2.79.7 1.02.17 2.09.25 3.06.17Z" fill="#D1B167" stroke="#000" stroke-width=".66" stroke-linecap="round"/><path d="m30.81 30.99.13-.07a23.1 23.1 0 0 1 1 .46c.71.34 1.68.84 2.73 1.46 2.1 1.22 4.42 2.87 5.59 4.65l.3 1.5c.95 4.7 1.57 7.74.27 13-1.99 3.45-3.91 5.18-7.6 7.69h-3.92a25.23 25.23 0 0 1-.85-.62c-.6-.44-1.4-1.07-2.3-1.81-1.76-1.49-3.82-3.42-5.04-5.28-.88-3.14-1.12-5.47-.88-7.64.24-2.18.96-4.22 2.02-6.8 1.13-1.6 3.3-3.26 5.25-4.54a49.15 49.15 0 0 1 3.3-2Z" fill="#FFEFDD" stroke="#000" stroke-width=".74"/><path d="M37.51 51.03c0 .59-3.77 3.62-6.22 3.62-2.46 0-6.2-3.03-6.2-3.62 0-.58 3.74 2.13 6.2 2.13 2.45 0 5.9-3.19 6.22-2.13Z" fill="#B02929"/><path d="M26.36 43.83c1.21-.85 2.05-.77 3.77.2" stroke="#000" stroke-width=".74"/><path d="M23.26 51.75c-.23-1.75.36-2.35 2.47-2.85" stroke="#000" stroke-width=".37"/><path d="M35.3 43.83c1.2-.85 2.04-.77 3.76.2" stroke="#000" stroke-width=".74"/><ellipse cx="31.74" cy="48.27" rx="1.88" ry="1.65" fill="#920000"/><path d="M27.64 44.43h.63v1.28h-.63v-1.28ZM36.57 44.43h.64v1.28h-.64v-1.28ZM5.97 3.52A55.8 55.8 0 0 0 5.9 5.1a14.57 14.57 0 0 0 .02.97 17.5 17.5 0 0 1 .02.94c0 .23-.03.46-.07.68-.05.22-.13.42-.24.59-.12.16-.27.3-.46.4-.2.1-.43.15-.72.15-.17 0-.32-.02-.45-.06-.13-.04-.25-.1-.35-.16a1.1 1.1 0 0 1-.25-.24 1.47 1.47 0 0 1-.27-.92c0-.13.02-.24.06-.33.05-.09.1-.16.16-.2a.6.6 0 0 1 .37-.15l.18.03c.07.02.14.05.2.1a.57.57 0 0 1 .23.48.7.7 0 0 1-.05.24.68.68 0 0 1-.14.2.5.5 0 0 1-.26.13l.14.16a.71.71 0 0 0 .45.15c.13 0 .23-.03.3-.08a.5.5 0 0 0 .18-.2 3.47 3.47 0 0 0 .1-.72 127.09 127.09 0 0 0-.05-2.82l-.08-.92a1.66 1.66 0 0 0 .4.03 6.95 6.95 0 0 0 .66-.04Zm-1.35 14.3c-.23 0-.43-.06-.6-.16-.17-.1-.31-.25-.42-.43-.11-.18-.19-.4-.24-.65a4.5 4.5 0 0 1 .01-1.76c.06-.28.15-.53.27-.74.12-.2.27-.36.44-.47.18-.12.39-.18.61-.18.24 0 .44.05.6.15.17.1.31.23.42.4.11.18.2.39.24.63a3.86 3.86 0 0 1 .05 1.3 3.78 3.78 0 0 1-.25 1.05c-.07.16-.15.3-.26.43-.1.13-.23.23-.37.3-.14.08-.3.12-.5.12Zm.56-2.67c0-.17-.01-.34-.03-.48a1.52 1.52 0 0 0-.08-.36.55.55 0 0 0-.14-.23.27.27 0 0 0-.2-.08c-.08 0-.16.04-.23.13-.08.1-.14.22-.2.4-.05.16-.1.37-.13.62a6.65 6.65 0 0 0-.02 1.36 2 2 0 0 0 .09.4c.03.1.08.2.14.25.05.06.12.09.2.09.07 0 .14-.03.2-.1a.82.82 0 0 0 .15-.25 4.22 4.22 0 0 0 .23-1.29l.02-.46Zm-.83 6.08a100.55 100.55 0 0 0-.12 2.5l-.01.7a3.74 3.74 0 0 0 .79-1.3l.15-.47.96.08a7.12 7.12 0 0 1-.9 1.42c-.08.1-.16.17-.22.23a1.25 1.25 0 0 1 .58.39 2.56 2.56 0 0 1 .18.55l.05.32a4.58 4.58 0 0 0 .2.68c.05.1.12.2.2.3h-.94a2.98 2.98 0 0 1-.2-.7 3.55 3.55 0 0 1-.04-.33 1.16 1.16 0 0 0-.12-.39.7.7 0 0 0-.1-.14.59.59 0 0 0-.14-.12.72.72 0 0 0-.41-.12h-.04a109.41 109.41 0 0 0 .03 1.87l-.88-.02a268.46 268.46 0 0 0 .12-2.37 20.24 20.24 0 0 0 0-1.74 33.8 33.8 0 0 0-.06-1.36l.92.02Zm1.62 13.62c0 .14-.03.27-.1.39-.06.12-.14.23-.25.32a1.39 1.39 0 0 1-1.19.24 1.08 1.08 0 0 1-.32-.15c-.1-.07-.2-.16-.3-.28-.1-.11-.17-.26-.24-.42a3.1 3.1 0 0 1-.16-.6 4.79 4.79 0 0 1 0-1.5c.04-.22.1-.4.16-.56.07-.16.15-.3.24-.4.09-.11.18-.2.29-.26.1-.07.2-.12.31-.15a1.31 1.31 0 0 1 .78.04 1.05 1.05 0 0 1 .62.59c.07.14.1.31.1.5 0 .17-.03.34-.1.52a1.7 1.7 0 0 1-.31.49 2.66 2.66 0 0 1-1.2.72c0 .15.02.28.05.4.03.12.06.22.1.3.05.1.1.16.15.2a.3.3 0 0 0 .2.08.5.5 0 0 0 .13-.03.43.43 0 0 0 .11-.05.3.3 0 0 0 .1-.12.36.36 0 0 1-.14-.1.45.45 0 0 1-.1-.28c0-.12.02-.2.06-.28a.54.54 0 0 1 .35-.25.64.64 0 0 1 .15-.02c.04 0 .09 0 .15.02.05.02.11.05.17.1.05.04.1.11.13.2.04.08.06.2.06.34Zm-.87-2.23a1.13 1.13 0 0 0-.1-.45.37.37 0 0 0-.1-.13.23.23 0 0 0-.15-.06c-.1 0-.18.05-.24.14-.06.09-.11.2-.15.35a8.12 8.12 0 0 0-.1 1.1v.27a1.8 1.8 0 0 0 .6-.52 1.3 1.3 0 0 0 .24-.7Zm-.74 12.13-.94.07a26.12 26.12 0 0 0 .05-4.1l.8-.05a3.57 3.57 0 0 0-.02.3 1.11 1.11 0 0 1 .55-.46c.1-.04.2-.06.3-.07.17 0 .32.03.44.08s.22.12.3.2a.9.9 0 0 1 .22.58c0 .1 0 .2-.03.3-.02.1-.06.2-.1.28a.6.6 0 0 1-.21.2.6.6 0 0 1-.3.07.54.54 0 0 1-.3-.06.5.5 0 0 1-.16-.16.63.63 0 0 1-.07-.2l-.02-.17c0-.03 0-.07.02-.11a.7.7 0 0 1 .14-.25.74.74 0 0 1 .13-.12l-.05-.01h-.04a.48.48 0 0 0-.32.11.94.94 0 0 0-.24.3 2.3 2.3 0 0 0-.17.48 4.5 4.5 0 0 0-.1.59 40.5 40.5 0 0 0 .12 2.2ZM55.28 86.66a55.56 55.56 0 0 0 .09-1.59 14.93 14.93 0 0 0-.03-.97 17.27 17.27 0 0 1-.01-.94c0-.23.02-.46.07-.68.04-.22.12-.42.24-.59.11-.16.26-.3.45-.4.2-.1.44-.15.72-.15.17 0 .33.02.46.06a1.1 1.1 0 0 1 .6.4 1.48 1.48 0 0 1 .27.92.67.67 0 0 1-.22.54.6.6 0 0 1-.38.14.62.62 0 0 1-.18-.03.57.57 0 0 1-.2-.1.57.57 0 0 1-.23-.48.7.7 0 0 1 .06-.24.68.68 0 0 1 .13-.2.5.5 0 0 1 .26-.13.67.67 0 0 0-.14-.16.71.71 0 0 0-.45-.15.54.54 0 0 0-.3.08.5.5 0 0 0-.17.2c-.04.1-.07.2-.08.33l-.02.4a124.96 124.96 0 0 0 .05 2.81l.07.92a1.66 1.66 0 0 0-.39-.03 7 7 0 0 0-.67.04Zm1.35-14.3c.23 0 .44.06.6.16.17.1.31.25.43.43.1.18.18.4.24.65a4.5 4.5 0 0 1-.01 1.76c-.07.28-.16.53-.28.74-.12.2-.27.36-.44.47-.18.12-.38.18-.61.18-.23 0-.43-.05-.6-.15-.17-.1-.3-.23-.41-.4a1.9 1.9 0 0 1-.25-.63 3.85 3.85 0 0 1-.05-1.3 3.78 3.78 0 0 1 .25-1.05c.07-.16.16-.3.26-.43s.23-.23.37-.3c.15-.08.31-.12.5-.12Zm-.55 2.67c0 .17 0 .34.02.48.02.14.05.26.08.36.04.1.09.18.14.23.06.05.12.08.2.08.09 0 .16-.04.24-.13.07-.1.14-.22.2-.4a6.66 6.66 0 0 0 .15-1.99 2 2 0 0 0-.1-.39.72.72 0 0 0-.13-.25.27.27 0 0 0-.2-.09.27.27 0 0 0-.2.1.82.82 0 0 0-.15.25 4.21 4.21 0 0 0-.23 1.29c-.02.16-.02.31-.02.45Zm.82-6.08a103.79 103.79 0 0 0 .13-2.5v-.7a3.73 3.73 0 0 0-.78 1.3 4.9 4.9 0 0 0-.16.47l-.96-.08a7.14 7.14 0 0 1 .9-1.42l.23-.23a1.26 1.26 0 0 1-.58-.39.97.97 0 0 1-.11-.25l-.07-.3-.06-.32a4.58 4.58 0 0 0-.2-.68c-.05-.1-.11-.2-.2-.3H56a3 3 0 0 1 .19.7l.04.33c.02.15.07.27.13.39.02.05.06.1.1.14.03.05.08.09.13.12l.19.1c.06.02.14.03.23.03h.03a108.07 108.07 0 0 0-.02-1.88l.88.02a246.02 246.02 0 0 0-.12 2.37 20.21 20.21 0 0 0 0 1.74 33.2 33.2 0 0 0 .06 1.36l-.93-.02Zm-1.62-13.62c0-.14.03-.27.1-.39.06-.12.15-.23.25-.32a1.39 1.39 0 0 1 1.19-.24c.12.03.22.08.33.15.1.07.2.16.3.28.08.11.16.26.23.42.07.17.12.37.16.6a4.78 4.78 0 0 1 0 1.5c-.04.22-.09.4-.16.56-.06.16-.14.3-.23.4-.1.11-.19.2-.3.26-.1.07-.2.12-.31.15a1.32 1.32 0 0 1-.78-.04 1.04 1.04 0 0 1-.62-.59c-.06-.14-.1-.31-.1-.5 0-.17.04-.34.11-.52.07-.17.17-.33.3-.49a2.66 2.66 0 0 1 1.2-.72 3.52 3.52 0 0 0-.05-.4 1.57 1.57 0 0 0-.1-.3.64.64 0 0 0-.14-.2.3.3 0 0 0-.2-.08.5.5 0 0 0-.25.08.3.3 0 0 0-.1.12c.06.03.11.06.14.1l.08.13.03.15c0 .12-.02.2-.07.28a.54.54 0 0 1-.34.25.65.65 0 0 1-.16.02c-.04 0-.09 0-.14-.02a.44.44 0 0 1-.17-.1.55.55 0 0 1-.14-.2.8.8 0 0 1-.06-.34Zm.88 2.23a1.13 1.13 0 0 0 .09.45c.03.05.06.1.1.13.05.04.1.06.16.06.1 0 .17-.05.23-.14.07-.09.11-.2.15-.35.04-.15.07-.32.08-.5.02-.2.02-.4.02-.6v-.27a1.8 1.8 0 0 0-.6.52 1.3 1.3 0 0 0-.23.7Zm.73-12.13.95-.08a26.08 26.08 0 0 0-.06 4.11l-.8.05a3.65 3.65 0 0 0 .02-.3 1.11 1.11 0 0 1-.55.46c-.1.04-.2.06-.3.07a1.1 1.1 0 0 1-.43-.08.85.85 0 0 1-.3-.2.76.76 0 0 1-.18-.29.9.9 0 0 1-.05-.3l.03-.3c.02-.1.06-.19.11-.27a.6.6 0 0 1 .2-.2.59.59 0 0 1 .31-.08c.13 0 .22.03.3.07.06.05.12.1.16.16.03.07.06.13.07.2l.01.17a.58.58 0 0 1-.07.24.7.7 0 0 1-.09.12.73.73 0 0 1-.12.12l.04.01h.05c.12 0 .22-.03.31-.11.1-.07.18-.18.24-.3.07-.14.13-.3.17-.48.04-.18.08-.37.1-.59a40.34 40.34 0 0 0-.12-2.2Z" fill="#000"/><circle cx="9.93" cy="19.22" r="2.27" fill="#FBDD24" stroke="#000" stroke-width=".68"/><circle cx="48.6" cy="18.35" r="2.27" fill="#FBDD24" stroke="#000" stroke-width=".68"/><path d="m14.69 20.52-.04-.1-.1-.05-1.06-.67-.06-.04h-.06l-.34-.06-.1-.62h1.12l2.14.37 16.86 8.47.2.1.17-.14 11.53-9.41 1.22-.39-.25 1.17-1.4 1.68-.05.07-.02.08-3.9 18.1c-.74-.49-1.4-.9-2.03-1.23a5.64 5.64 0 0 0-2.14-.68c-1.37-.1-2.7.51-4.46 1.98a6.34 6.34 0 0 0-4.4-2.41c-1.64-.15-3.48.28-5.57 1l-7.26-17.22Z" fill="#D1B167" stroke="#000" stroke-width=".68"/><path d="m17.53 21.6 9.43 14.83c-2.8.36-3.56.96-4.62 1.73l-7.85-17.64-1.08-.65-.44-.22v-.43l1.09.21 1.95.66 1.52 1.52ZM38.83 27.9l4.56-7.38 1.95-1.74.87-.21v-.66l-1.3.22-11.52 9.56-1.06 11.03c2.31-1.7 2.98-1.72 4.55-1.51l1.95-9.3Z" fill="#4C29B0" stroke="#000" stroke-width=".68"/></svg>