<svg width="61" height="91" fill="none" xmlns="http://www.w3.org/2000/svg"><rect x=".39" y=".05" width="60.06" height="90.09" rx="4.62" fill="#fff"/><mask id="a" style="mask-type:alpha" maskUnits="userSpaceOnUse" x="1" y="1" width="58" height="87"><path d="M11.28 2.36h42.24a4.04 4.04 0 0 1 4.04 4.04v64.16c0 1.24-1 2.25-2.25 2.25a3.4 3.4 0 0 0-3.35 2.81l-1.12 6.39c-.16.9.25 1.8 1.03 2.26.9.54.53 1.92-.52 1.94l-44.94.94a4.04 4.04 0 0 1-4.13-4.18l2.04-62.75a2.94 2.94 0 0 1 2.95-2.85 4.1 4.1 0 0 0 4.1-4.1V8.23c0-.96-.46-1.87-1.23-2.44a1.9 1.9 0 0 1 1.14-3.42Z" fill="#C4C4C4" stroke="#000" stroke-width="1.15"/></mask><g mask="url(#a)"><rect x="6.17" y="5.25" width="49.66" height="79.69" rx="4.04" stroke="#000" stroke-width="1.15"/></g><path d="M33.75 49.71h-5.5c2.2-1.42 2.58-2.57 2.75-4.85l-3.66 1.94c-2-1.48-2.1-2.33 0-3.88L31 44.86l-1.83-4.84c1.16-2.52 2.29-2.43 3.66 0L31 44.86l4.12-1.94c1.6 1.52 1.25 2.37 0 3.88L31 44.86c.34 2.28.81 3.4 2.75 4.85Z" fill="#000"/><path d="M31 44.86c-.17 2.28-.56 3.43-2.74 4.85h5.49c-1.94-1.45-2.41-2.57-2.75-4.85Zm0 0-3.66 1.94c-2-1.48-2.1-2.33 0-3.88L31 44.86Zm0 0 1.83-4.84c-1.37-2.43-2.5-2.52-3.66 0L31 44.86Zm0 0 4.12-1.94c1.6 1.52 1.25 2.37 0 3.88L31 44.86Z" stroke="#000" stroke-width="1.15"/><path d="M16.7 19.68h-4.88c1.94-1.13 2.28-2.06 2.44-3.87L11 17.36c-1.78-1.2-1.87-1.87 0-3.1l3.26 1.55-1.63-3.88c1.03-2.02 2.03-1.94 3.25 0l-1.62 3.88 3.66-1.56c1.42 1.22 1.1 1.9 0 3.1l-3.66-1.54c.3 1.81.71 2.72 2.44 3.87Z" fill="#000"/><path d="M14.26 15.8c-.16 1.82-.5 2.75-2.44 3.88h4.88c-1.73-1.15-2.15-2.06-2.44-3.87Zm0 0L11 17.37c-1.78-1.2-1.87-1.87 0-3.1l3.26 1.55Zm0 0 1.62-3.87c-1.22-1.94-2.22-2.02-3.25 0l1.63 3.88Zm0 0 3.66-1.55c1.42 1.22 1.1 1.9 0 3.1l-3.66-1.54Z" stroke="#000" stroke-width="1.15"/><path d="M33.14 24.3h-4.27c1.7-1 2-1.8 2.13-3.39l-2.85 1.36c-1.55-1.04-1.63-1.64 0-2.72L31 20.91l-1.42-3.4c.9-1.76 1.78-1.7 2.85 0L31 20.92l3.2-1.36c1.25 1.06.98 1.66 0 2.72L31 20.9c.26 1.6.63 2.38 2.14 3.4Z" fill="#000"/><path d="M31 20.91c-.13 1.6-.43 2.4-2.13 3.4h4.27c-1.51-1.02-1.88-1.8-2.14-3.4Zm0 0-2.85 1.36c-1.55-1.04-1.63-1.64 0-2.72L31 20.91Zm0 0 1.43-3.4c-1.07-1.7-1.95-1.76-2.85 0l1.42 3.4Zm0 0 3.2-1.36c1.25 1.06.98 1.66 0 2.72L31 20.9Z" stroke="#000" stroke-width="1.15"/><path d="M21.59 32.39h-4.27c1.7-1 2-1.8 2.13-3.4l-2.84 1.36c-1.56-1.04-1.64-1.63 0-2.71l2.84 1.35-1.42-3.39c.9-1.76 1.78-1.7 2.85 0L19.45 29l3.2-1.36c1.25 1.06.98 1.65 0 2.71L19.46 29c.26 1.6.63 2.38 2.14 3.4Z" fill="#000"/><path d="M19.45 29c-.13 1.59-.43 2.4-2.13 3.39h4.27c-1.5-1.02-1.88-1.8-2.14-3.4Zm0 0-2.84 1.35c-1.56-1.04-1.64-1.63 0-2.71l2.84 1.35Zm0 0 1.43-3.4c-1.07-1.7-1.95-1.76-2.85 0l1.42 3.4Zm0 0 3.2-1.36c1.25 1.06.98 1.65 0 2.71L19.46 29Z" stroke="#000" stroke-width="1.15"/><path d="M40.4 32.39h4.28c-1.7-1-2-1.8-2.14-3.4l2.85 1.36c1.56-1.04 1.64-1.63 0-2.71l-2.85 1.35 1.43-3.39c-.9-1.76-1.78-1.7-2.85 0l1.42 3.4-3.2-1.36c-1.25 1.06-.97 1.65 0 2.71l3.2-1.36c-.25 1.6-.62 2.38-2.13 3.4Z" fill="#000"/><path d="M42.54 29c.14 1.59.44 2.4 2.14 3.39h-4.27c1.5-1.02 1.88-1.8 2.13-3.4Zm0 0 2.85 1.35c1.56-1.04 1.64-1.63 0-2.71l-2.85 1.35Zm0 0-1.42-3.4c1.07-1.7 1.95-1.76 2.85 0L42.54 29Zm0 0-3.2-1.36c-1.25 1.06-.97 1.65 0 2.71l3.2-1.36Z" stroke="#000" stroke-width="1.15"/><path d="M21.59 42.78h-4.27c1.7-1 2-1.8 2.13-3.4l-2.84 1.37c-1.56-1.04-1.64-1.64 0-2.72l2.84 1.36-1.42-3.4c.9-1.76 1.78-1.7 2.85 0l-1.43 3.4 3.2-1.36c1.25 1.06.98 1.66 0 2.72l-3.2-1.36c.26 1.6.63 2.38 2.14 3.4Z" fill="#000"/><path d="M19.45 39.39c-.13 1.6-.43 2.4-2.13 3.4h4.27c-1.5-1.02-1.88-1.8-2.14-3.4Zm0 0-2.84 1.36c-1.56-1.04-1.64-1.64 0-2.72l2.84 1.36Zm0 0 1.43-3.4c-1.07-1.7-1.95-1.76-2.85 0l1.42 3.4Zm0 0 3.2-1.36c1.25 1.06.98 1.66 0 2.72l-3.2-1.36Z" stroke="#000" stroke-width="1.15"/><path d="M40.4 42.78h4.28c-1.7-1-2-1.8-2.14-3.4l2.85 1.37c1.56-1.04 1.64-1.64 0-2.72l-2.85 1.36 1.43-3.4c-.9-1.76-1.78-1.7-2.85 0l1.42 3.4-3.2-1.36c-1.25 1.06-.97 1.66 0 2.72l3.2-1.36c-.25 1.6-.62 2.38-2.13 3.4Z" fill="#000"/><path d="M42.54 39.39c.14 1.6.44 2.4 2.14 3.4h-4.27c1.5-1.02 1.88-1.8 2.13-3.4Zm0 0 2.85 1.36c1.56-1.04 1.64-1.64 0-2.72l-2.85 1.36Zm0 0-1.42-3.4c1.07-1.7 1.95-1.76 2.85 0l-1.43 3.4Zm0 0-3.2-1.36c-1.25 1.06-.97 1.66 0 2.72l3.2-1.36Z" stroke="#000" stroke-width="1.15"/><path d="M33.14 65.88h-4.27c1.7 1 2 1.8 2.13 3.4l-2.85-1.36c-1.55 1.04-1.63 1.63 0 2.71L31 69.28l-1.42 3.39c.9 1.76 1.78 1.7 2.85 0L31 69.27l3.2 1.36c1.25-1.06.98-1.65 0-2.71L31 69.28c.26-1.6.63-2.39 2.14-3.4Z" fill="#000"/><path d="M31 69.28c-.13-1.6-.43-2.4-2.13-3.4h4.27c-1.51 1.02-1.88 1.8-2.14 3.4Zm0 0-2.85-1.36c-1.55 1.04-1.63 1.63 0 2.71L31 69.28Zm0 0 1.43 3.39c-1.07 1.7-1.95 1.76-2.85 0l1.42-3.4Zm0 0 3.2 1.35c1.25-1.06.98-1.65 0-2.71L31 69.28Z" stroke="#000" stroke-width="1.15"/><path d="M21.59 57.8h-4.27c1.7 1 2 1.8 2.13 3.4l-2.84-1.37c-1.56 1.04-1.64 1.64 0 2.72l2.84-1.36-1.42 3.4c.9 1.76 1.78 1.7 2.85 0l-1.43-3.4 3.2 1.36c1.25-1.06.98-1.66 0-2.72l-3.2 1.36c.26-1.6.63-2.38 2.14-3.4Z" fill="#000"/><path d="M19.45 61.2c-.13-1.6-.43-2.4-2.13-3.4h4.27c-1.5 1.01-1.88 1.8-2.14 3.4Zm0 0-2.84-1.37c-1.56 1.04-1.64 1.64 0 2.72l2.84-1.36Zm0 0 1.43 3.38c-1.07 1.7-1.95 1.77-2.85 0l1.42-3.39Zm0 0 3.2 1.35c1.25-1.06.98-1.66 0-2.72l-3.2 1.36Z" stroke="#000" stroke-width="1.15"/><path d="M40.4 57.8h4.28c-1.7 1-2 1.8-2.14 3.4l2.85-1.37c1.56 1.04 1.64 1.64 0 2.72l-2.85-1.36 1.43 3.4c-.9 1.76-1.78 1.7-2.85 0l1.42-3.4-3.2 1.36c-1.25-1.06-.97-1.66 0-2.72l3.2 1.36c-.25-1.6-.62-2.38-2.13-3.4Z" fill="#000"/><path d="M42.54 61.2c.14-1.6.44-2.4 2.14-3.4h-4.27c1.5 1.01 1.88 1.8 2.13 3.4Zm0 0 2.85-1.37c1.56 1.04 1.64 1.64 0 2.72l-2.85-1.36Zm0 0-1.42 3.38c1.07 1.7 1.95 1.77 2.85 0l-1.43-3.39Zm0 0-3.2 1.35c-1.25-1.06-.97-1.66 0-2.72l3.2 1.36Z" stroke="#000" stroke-width="1.15"/><path d="M21.59 47.4h-4.27c1.7 1 2 1.8 2.13 3.4l-2.84-1.36c-1.56 1.04-1.64 1.63 0 2.71l2.84-1.35-1.42 3.39c.9 1.76 1.78 1.7 2.85 0l-1.43-3.4 3.2 1.36c1.25-1.06.98-1.65 0-2.71l-3.2 1.36c.26-1.6.63-2.38 2.14-3.4Z" fill="#000"/><path d="M19.45 50.8c-.13-1.6-.43-2.4-2.13-3.4h4.27c-1.5 1.02-1.88 1.8-2.14 3.4Zm0 0-2.84-1.36c-1.56 1.04-1.64 1.63 0 2.71l2.84-1.35Zm0 0 1.43 3.39c-1.07 1.7-1.95 1.76-2.85 0l1.42-3.4Zm0 0 3.2 1.35c1.25-1.06.98-1.65 0-2.71l-3.2 1.36Z" stroke="#000" stroke-width="1.15"/><path d="M40.4 47.4h4.28c-1.7 1-2 1.8-2.14 3.4l2.85-1.36c1.56 1.04 1.64 1.63 0 2.71l-2.85-1.35 1.43 3.39c-.9 1.76-1.78 1.7-2.85 0l1.42-3.4-3.2 1.36c-1.25-1.06-.97-1.65 0-2.71l3.2 1.36c-.25-1.6-.62-2.38-2.13-3.4Z" fill="#000"/><path d="M42.54 50.8c.14-1.6.44-2.4 2.14-3.4h-4.27c1.5 1.02 1.88 1.8 2.13 3.4Zm0 0 2.85-1.36c1.56 1.04 1.64 1.63 0 2.71l-2.85-1.35Zm0 0-1.42 3.39c1.07 1.7 1.95 1.76 2.85 0l-1.43-3.4Zm0 0-3.2 1.35c-1.25-1.06-.97-1.65 0-2.71l3.2 1.36Z" stroke="#000" stroke-width="1.15"/><path d="M44.15 70.5h4.88c-1.94 1.14-2.29 2.06-2.44 3.88l3.25-1.55c1.78 1.19 1.87 1.87 0 3.1l-3.25-1.55 1.62 3.88c-1.03 2.01-2.03 1.94-3.25 0l1.63-3.88-3.66 1.55c-1.43-1.21-1.12-1.89 0-3.1l3.66 1.55c-.3-1.82-.72-2.72-2.44-3.88Z" fill="#000"/><path d="M46.59 74.38c.15-1.82.5-2.74 2.44-3.88h-4.88c1.72 1.16 2.14 2.06 2.44 3.88Zm0 0 3.25-1.55c1.78 1.19 1.87 1.87 0 3.1l-3.25-1.55Zm0 0-1.63 3.88c1.22 1.94 2.22 2.01 3.25 0l-1.62-3.88Zm0 0-3.66 1.55c-1.43-1.21-1.12-1.89 0-3.1l3.66 1.55Z" stroke="#000" stroke-width="1.15"/><path d="m3.56 14.3-1.64.16a54.33 54.33 0 0 0 .04-1.74 1021.15 1021.15 0 0 1 .02-1.65V9.35l-.02-1.7-.48.85L.4 7.6a14.32 14.32 0 0 1 .64-.89 38.24 38.24 0 0 1 .82-1.12l1.56-.07a530.51 530.51 0 0 0-.05 2.32v1.1a8 8 0 0 0 .01.64 48.56 48.56 0 0 0 .08 3.04 67.1 67.1 0 0 0 .1 1.69Zm6.4-4.39c0 .66-.05 1.28-.16 1.84a5.16 5.16 0 0 1-.51 1.48 2.8 2.8 0 0 1-.86.98c-.35.24-.76.35-1.23.35-.48 0-.9-.11-1.25-.35a2.8 2.8 0 0 1-.86-.98 5.3 5.3 0 0 1-.5-1.48 10.13 10.13 0 0 1 0-3.67c.1-.56.26-1.05.49-1.47.22-.42.5-.74.85-.98.35-.23.78-.35 1.27-.35A2.25 2.25 0 0 1 9.34 6.6c.22.42.38.9.48 1.47.1.56.14 1.17.14 1.83Zm-1.62 0c0-.65-.03-1.2-.09-1.65a5.4 5.4 0 0 0-.23-1.12 1.5 1.5 0 0 0-.36-.62.66.66 0 0 0-.46-.2c-.16 0-.3.08-.44.24-.14.15-.26.38-.37.68-.1.3-.18.68-.25 1.13a14.22 14.22 0 0 0 0 3.18c.05.45.13.83.23 1.12.1.3.22.5.36.65.14.13.3.2.47.2.16 0 .3-.06.44-.19s.27-.34.37-.62c.1-.29.18-.66.24-1.12.06-.46.09-1.02.09-1.68ZM57.28 75.89l1.64-.16a53.6 53.6 0 0 0-.04 1.73 720.75 720.75 0 0 1-.02 1.65v1.72l.02 1.7.48-.85 1.08.92a14.26 14.26 0 0 1-.64.88 37.07 37.07 0 0 1-.81 1.12l-1.57.08a713.76 713.76 0 0 0 .05-2.32v-1.11a8.08 8.08 0 0 0-.01-.64 48.67 48.67 0 0 0-.08-3.04 65.98 65.98 0 0 0-.1-1.68Zm-6.4 4.38c0-.66.05-1.27.17-1.84.1-.57.28-1.06.5-1.48.23-.4.52-.74.87-.98.34-.23.75-.35 1.22-.35.48 0 .9.12 1.25.35.35.24.64.57.86.98.23.42.4.91.5 1.48a10.13 10.13 0 0 1 0 3.67c-.1.57-.26 1.06-.48 1.47-.23.42-.51.75-.86.98-.35.24-.77.36-1.27.36a2.25 2.25 0 0 1-2.14-1.34c-.21-.41-.37-.9-.47-1.47-.1-.56-.15-1.17-.15-1.83Zm1.62 0c0 .65.03 1.2.09 1.66.05.46.13.83.23 1.12.1.28.22.49.36.62.14.13.3.2.46.2.16 0 .3-.08.45-.24.13-.15.25-.38.36-.68.1-.3.19-.68.25-1.13a14.21 14.21 0 0 0 0-3.18 5.66 5.66 0 0 0-.22-1.13c-.1-.29-.22-.5-.36-.64a.66.66 0 0 0-.48-.2.64.64 0 0 0-.44.19c-.14.12-.26.33-.37.62-.1.28-.18.65-.24 1.11-.06.46-.09 1.02-.09 1.68Z" fill="#000"/></svg>