<svg width="105" height="25" viewBox="0 0 105 25" fill="none" xmlns="http://www.w3.org/2000/svg">
<mask id="path-1-outside-1_1598_9503" maskUnits="userSpaceOnUse" x="-0.402344" y="0.1875" width="105" height="24" fill="black">
<rect fill="white" x="-0.402344" y="0.1875" width="105" height="24"/>
<path d="M2.59766 9.14062C2.59766 8.28125 2.69922 7.51953 2.90234 6.85547C3.10547 6.19141 3.40234 5.63281 3.79297 5.17969C4.18359 4.71875 4.66797 4.37109 5.24609 4.13672C5.83203 3.89453 6.50391 3.77344 7.26172 3.77344C8.10547 3.77344 8.86719 3.96484 9.54688 4.34766C10.2266 4.73047 10.8047 5.30859 11.2812 6.08203C11.7656 6.85547 12.1367 7.82422 12.3945 8.98828C12.6523 10.1445 12.7812 11.5 12.7812 13.0547C12.7812 14.6094 12.6133 15.9375 12.2773 17.0391C11.9492 18.1406 11.5117 19.043 10.9648 19.7461C10.418 20.4492 9.79297 20.9609 9.08984 21.2812C8.39453 21.6094 7.67969 21.7734 6.94531 21.7734C6.21094 21.7734 5.58594 21.6641 5.07031 21.4453C4.5625 21.2344 4.14844 20.9648 3.82812 20.6367C3.50781 20.3008 3.27344 19.9375 3.125 19.5469C2.98438 19.1484 2.91406 18.7695 2.91406 18.4102C2.91406 18.0508 2.96484 17.7383 3.06641 17.4727C3.17578 17.1992 3.31641 16.9766 3.48828 16.8047C3.66016 16.625 3.85156 16.4922 4.0625 16.4062C4.28125 16.3203 4.49609 16.2773 4.70703 16.2773C4.92578 16.2773 5.13672 16.3047 5.33984 16.3594C5.54297 16.4141 5.72266 16.5078 5.87891 16.6406C6.04297 16.7734 6.17188 16.9531 6.26562 17.1797C6.36719 17.3984 6.41797 17.6719 6.41797 18C6.41016 18.1641 6.39062 18.3281 6.35938 18.4922C6.32812 18.6328 6.27734 18.7812 6.20703 18.9375C6.13672 19.0938 6.03906 19.2383 5.91406 19.3711C6.02344 19.5117 6.14844 19.6172 6.28906 19.6875C6.4375 19.7578 6.57812 19.8125 6.71094 19.8516C6.85938 19.8906 7.00781 19.9141 7.15625 19.9219C7.46094 19.9219 7.76562 19.793 8.07031 19.5352C8.38281 19.2695 8.66406 18.8633 8.91406 18.3164C9.17188 17.7695 9.38281 17.0742 9.54688 16.2305C9.71875 15.3789 9.8125 14.3672 9.82812 13.1953C9.39062 13.7578 8.90234 14.1758 8.36328 14.4492C7.83203 14.7227 7.28516 14.8594 6.72266 14.8594C6.19922 14.8594 5.69141 14.7383 5.19922 14.4961C4.70703 14.2539 4.26562 13.8945 3.875 13.418C3.49219 12.9336 3.18359 12.3359 2.94922 11.625C2.71484 10.9141 2.59766 10.0859 2.59766 9.14062ZM7.17969 5.68359C6.60156 5.68359 6.14844 5.98828 5.82031 6.59766C5.5 7.19922 5.33984 8.04688 5.33984 9.14062C5.33984 9.64844 5.38672 10.1133 5.48047 10.5352C5.58203 10.957 5.71875 11.3164 5.89062 11.6133C6.07031 11.9102 6.28125 12.1406 6.52344 12.3047C6.77344 12.4688 7.04297 12.5508 7.33203 12.5508C7.69141 12.5508 8.07812 12.4062 8.49219 12.1172C8.90625 11.8281 9.31641 11.3633 9.72266 10.7227C9.65234 9.87109 9.53906 9.13281 9.38281 8.50781C9.22656 7.875 9.03516 7.35156 8.80859 6.9375C8.58984 6.51562 8.33984 6.20312 8.05859 6C7.78516 5.78906 7.49219 5.68359 7.17969 5.68359Z"/>
<path d="M18.4991 10.6992C18.4991 10.9102 18.4561 11.1094 18.3702 11.2969C18.292 11.4844 18.1827 11.6484 18.042 11.7891C17.9092 11.9219 17.7491 12.0312 17.5616 12.1172C17.3741 12.1953 17.1748 12.2344 16.9639 12.2344C16.7452 12.2344 16.542 12.1953 16.3545 12.1172C16.167 12.0312 16.003 11.9219 15.8623 11.7891C15.7217 11.6484 15.6084 11.4844 15.5225 11.2969C15.4444 11.1094 15.4053 10.9102 15.4053 10.6992C15.4053 10.4883 15.4444 10.2891 15.5225 10.1016C15.6084 9.90625 15.7217 9.73828 15.8623 9.59766C16.003 9.45703 16.167 9.34766 16.3545 9.26953C16.542 9.18359 16.7452 9.14062 16.9639 9.14062C17.1748 9.14062 17.3741 9.18359 17.5616 9.26953C17.7491 9.34766 17.9092 9.45703 18.042 9.59766C18.1827 9.73828 18.292 9.90625 18.3702 10.1016C18.4561 10.2891 18.4991 10.4883 18.4991 10.6992ZM18.4991 19.8984C18.4991 20.1094 18.4561 20.3086 18.3702 20.4961C18.292 20.6758 18.1827 20.8359 18.042 20.9766C17.9092 21.1172 17.7491 21.2266 17.5616 21.3047C17.3741 21.3906 17.1748 21.4336 16.9639 21.4336C16.7452 21.4336 16.542 21.3906 16.3545 21.3047C16.167 21.2266 16.003 21.1172 15.8623 20.9766C15.7217 20.8359 15.6084 20.6758 15.5225 20.4961C15.4444 20.3086 15.4053 20.1094 15.4053 19.8984C15.4053 19.6797 15.4444 19.4766 15.5225 19.2891C15.6084 19.1016 15.7217 18.9375 15.8623 18.7969C16.003 18.6562 16.167 18.5469 16.3545 18.4688C16.542 18.3828 16.7452 18.3398 16.9639 18.3398C17.1748 18.3398 17.3741 18.3828 17.5616 18.4688C17.7491 18.5469 17.9092 18.6562 18.042 18.7969C18.1827 18.9375 18.292 19.1016 18.3702 19.2891C18.4561 19.4766 18.4991 19.6797 18.4991 19.8984Z"/>
<path d="M27.5441 19.6055C27.5441 19.0039 27.5284 18.4023 27.4972 17.8008C27.4737 17.1992 27.4464 16.5977 27.4152 15.9961C27.3839 15.3867 27.3527 14.7773 27.3214 14.168C27.298 13.5508 27.2862 12.9258 27.2862 12.293C27.2862 11.6289 27.3058 10.957 27.3448 10.2773C27.3917 9.58984 27.4777 8.92969 27.6027 8.29688C27.7277 7.65625 27.8995 7.05859 28.1183 6.50391C28.337 5.94141 28.6222 5.45312 28.9737 5.03906C29.3253 4.625 29.755 4.29688 30.2628 4.05469C30.7706 3.8125 31.3683 3.69141 32.0558 3.69141C32.712 3.69141 33.2823 3.79688 33.7667 4.00781C34.2511 4.21094 34.6612 4.49219 34.9972 4.85156C35.3409 5.21094 35.6183 5.63281 35.8292 6.11719C36.048 6.60156 36.2159 7.125 36.3331 7.6875C36.4581 8.25 36.5441 8.83594 36.5909 9.44531C36.6378 10.0547 36.6612 10.6602 36.6612 11.2617C36.6612 11.418 36.6573 11.5547 36.6495 11.6719C36.6495 11.7891 36.6456 11.918 36.6378 12.0586C36.6378 12.1914 36.63 12.3516 36.6144 12.5391C36.6066 12.7266 36.5948 12.9727 36.5792 13.2773C36.5636 13.5742 36.5441 13.9414 36.5206 14.3789C36.505 14.8164 36.4855 15.3555 36.462 15.9961C36.4386 16.6367 36.4112 17.3945 36.38 18.2695C36.3487 19.1367 36.3175 20.1523 36.2862 21.3164L32.7823 21.1875C32.9152 20.2969 33.0323 19.4062 33.1339 18.5156C33.2433 17.6172 33.3331 16.7812 33.4034 16.0078C32.8019 15.9609 32.2433 15.9375 31.7277 15.9375C31.462 15.9375 31.212 15.9414 30.9777 15.9492C30.7433 15.957 30.5362 15.9688 30.3566 15.9844C30.38 16.3906 30.4073 16.8203 30.4386 17.2734C30.4698 17.7266 30.505 18.1836 30.5441 18.6445C30.5831 19.1055 30.6261 19.5625 30.673 20.0156C30.7198 20.4609 30.7745 20.8867 30.837 21.293L27.5206 21.3867C27.5362 21.0977 27.5441 20.8047 27.5441 20.5078C27.5441 20.2031 27.5441 19.9023 27.5441 19.6055ZM30.2159 13.5117C30.4503 13.5273 30.6808 13.5352 30.9073 13.5352C31.1339 13.5352 31.3566 13.5352 31.5753 13.5352C32.4112 13.5352 33.0831 13.5117 33.5909 13.4648C33.6378 12.9102 33.6847 12.3516 33.7316 11.7891C33.7862 11.2266 33.8136 10.625 33.8136 9.98438C33.8136 8.63281 33.673 7.60547 33.3917 6.90234C33.1183 6.19141 32.712 5.83594 32.173 5.83594C31.8761 5.83594 31.6027 5.94141 31.3527 6.15234C31.1027 6.36328 30.8839 6.69141 30.6964 7.13672C30.5167 7.57422 30.3722 8.12891 30.2628 8.80078C30.1612 9.47266 30.1105 10.2656 30.1105 11.1797C30.1105 11.5 30.1183 11.8438 30.1339 12.2109C30.1573 12.5703 30.1847 13.0039 30.2159 13.5117Z"/>
<path d="M43.4572 3.1875C43.3947 3.99219 43.3439 4.78516 43.3048 5.56641C43.2658 6.33984 43.2267 7.11719 43.1877 7.89844C43.5314 7.88281 43.8713 7.87109 44.2072 7.86328C44.5431 7.84766 44.8869 7.82812 45.2384 7.80469L45.2853 10.8047C44.9103 10.7422 44.5392 10.6914 44.172 10.6523C43.8048 10.6133 43.4455 10.582 43.0939 10.5586C43.0705 11.2227 43.0548 11.8789 43.047 12.5273C43.047 13.1758 43.047 13.832 43.047 14.4961C43.047 15.6836 43.0588 16.8633 43.0822 18.0352C43.1134 19.207 43.1603 20.3867 43.2228 21.5742L40.1642 21.5273C40.2658 19.6914 40.3478 17.8594 40.4103 16.0312C40.4806 14.1953 40.5275 12.3477 40.5509 10.4883C40.2228 10.5039 39.8947 10.5234 39.5666 10.5469C39.2384 10.5625 38.9025 10.582 38.5588 10.6055L38.6525 7.82812C38.9728 7.85156 39.2892 7.87109 39.6017 7.88672C39.922 7.89453 40.2384 7.90625 40.5509 7.92188C40.5509 7.14062 40.5431 6.36328 40.5275 5.58984C40.5119 4.80859 40.4963 4.02344 40.4806 3.23438L43.4572 3.1875Z"/>
<path d="M51.3781 3.1875C51.3156 3.99219 51.2648 4.78516 51.2258 5.56641C51.1867 6.33984 51.1477 7.11719 51.1086 7.89844C51.4523 7.88281 51.7922 7.87109 52.1281 7.86328C52.4641 7.84766 52.8078 7.82812 53.1594 7.80469L53.2062 10.8047C52.8312 10.7422 52.4602 10.6914 52.093 10.6523C51.7258 10.6133 51.3664 10.582 51.0148 10.5586C50.9914 11.2227 50.9758 11.8789 50.968 12.5273C50.968 13.1758 50.968 13.832 50.968 14.4961C50.968 15.6836 50.9797 16.8633 51.0031 18.0352C51.0344 19.207 51.0812 20.3867 51.1437 21.5742L48.0852 21.5273C48.1867 19.6914 48.2687 17.8594 48.3312 16.0312C48.4016 14.1953 48.4484 12.3477 48.4719 10.4883C48.1437 10.5039 47.8156 10.5234 47.4875 10.5469C47.1594 10.5625 46.8234 10.582 46.4797 10.6055L46.5734 7.82812C46.8937 7.85156 47.2102 7.87109 47.5227 7.88672C47.843 7.89453 48.1594 7.90625 48.4719 7.92188C48.4719 7.14062 48.4641 6.36328 48.4484 5.58984C48.4328 4.80859 48.4172 4.02344 48.4016 3.23438L51.3781 3.1875Z"/>
<path d="M63.4475 18.4805C63.4475 18.9414 63.342 19.375 63.1311 19.7812C62.9202 20.1875 62.635 20.5391 62.2756 20.8359C61.9162 21.1328 61.4944 21.3672 61.01 21.5391C60.5256 21.7109 60.01 21.7969 59.4631 21.7969C59.0959 21.7969 58.7248 21.7461 58.3498 21.6445C57.9748 21.543 57.6155 21.375 57.2717 21.1406C56.928 20.9062 56.6037 20.5977 56.2991 20.2148C55.9944 19.832 55.7287 19.3633 55.5022 18.8086C55.2834 18.2539 55.1077 17.6055 54.9748 16.8633C54.8498 16.1133 54.7873 15.2539 54.7873 14.2852C54.7873 13.3711 54.8498 12.5625 54.9748 11.8594C55.1077 11.1562 55.2834 10.543 55.5022 10.0195C55.7287 9.49609 55.9905 9.05859 56.2873 8.70703C56.5842 8.34766 56.9006 8.05859 57.2366 7.83984C57.5803 7.61328 57.9319 7.45312 58.2912 7.35938C58.6584 7.26562 59.0178 7.21875 59.3694 7.21875C59.8928 7.21875 60.3889 7.30469 60.8577 7.47656C61.3264 7.64062 61.7366 7.88672 62.0881 8.21484C62.4397 8.54297 62.717 8.94922 62.9202 9.43359C63.1311 9.91016 63.2366 10.4609 63.2366 11.0859C63.2366 11.6484 63.1194 12.2188 62.885 12.7969C62.6584 13.3672 62.3186 13.9102 61.8655 14.4258C61.4123 14.9336 60.8498 15.3984 60.178 15.8203C59.5139 16.2344 58.7483 16.5625 57.8811 16.8047C57.928 17.2891 57.9944 17.7305 58.0803 18.1289C58.1741 18.5273 58.2873 18.8672 58.4202 19.1484C58.5608 19.4297 58.7209 19.6484 58.9006 19.8047C59.0881 19.9609 59.303 20.0391 59.5452 20.0391C59.7014 20.0312 59.8498 20.0039 59.9905 19.957C60.1155 19.918 60.2405 19.8555 60.3655 19.7695C60.4983 19.6836 60.6077 19.5586 60.6936 19.3945C60.4905 19.3008 60.3342 19.1797 60.2248 19.0312C60.1155 18.8828 60.0334 18.7422 59.9787 18.6094C59.9162 18.4531 59.8811 18.2891 59.8733 18.1172C59.8733 17.7422 59.9475 17.4375 60.0959 17.2031C60.2444 16.9688 60.4202 16.7852 60.6233 16.6523C60.8264 16.5195 61.0334 16.4297 61.2444 16.3828C61.4553 16.3281 61.6233 16.3008 61.7483 16.3008C61.8811 16.3008 62.0412 16.3281 62.2287 16.3828C62.4241 16.4375 62.6116 16.543 62.7912 16.6992C62.9709 16.8555 63.1233 17.0781 63.2483 17.3672C63.3811 17.6484 63.4475 18.0195 63.4475 18.4805ZM60.553 11.1094C60.553 10.8281 60.5256 10.5625 60.4709 10.3125C60.4241 10.0547 60.3498 9.83203 60.2483 9.64453C60.1545 9.45703 60.0334 9.30859 59.885 9.19922C59.7444 9.08203 59.5803 9.02344 59.3928 9.02344C59.0725 9.02344 58.8108 9.17188 58.6077 9.46875C58.4045 9.75781 58.2405 10.1445 58.1155 10.6289C57.9905 11.1133 57.9045 11.6719 57.8577 12.3047C57.8108 12.9375 57.7873 13.5977 57.7873 14.2852V15.1406C58.1858 14.9297 58.553 14.6797 58.8889 14.3906C59.2327 14.1016 59.5256 13.7852 59.7678 13.4414C60.0178 13.0898 60.2092 12.7188 60.342 12.3281C60.4827 11.9375 60.553 11.5312 60.553 11.1094Z"/>
<path d="M68.7669 8.01562L68.6966 8.97656C68.9544 8.54688 69.2278 8.21875 69.5169 7.99219C69.8138 7.76562 70.0872 7.60547 70.3372 7.51172C70.5872 7.41797 70.7942 7.36719 70.9583 7.35938C71.1302 7.35156 71.2239 7.34766 71.2395 7.34766C71.8177 7.34766 72.3216 7.48047 72.7513 7.74609C73.1809 8.01172 73.5364 8.39844 73.8177 8.90625C74.0989 9.40625 74.3059 10.0195 74.4388 10.7461C74.5794 11.4648 74.6497 12.2812 74.6497 13.1953C74.6497 13.8672 74.638 14.5547 74.6145 15.2578C74.5989 15.9531 74.5598 16.6484 74.4973 17.3438C74.4427 18.0312 74.3645 18.7031 74.263 19.3594C74.1692 20.0156 74.0403 20.6406 73.8763 21.2344L71.1458 20.9062C71.3255 19.9766 71.4661 19.1094 71.5677 18.3047C71.6692 17.5 71.7434 16.7969 71.7903 16.1953C71.845 15.4922 71.8763 14.8477 71.8841 14.2617C71.8841 13.5195 71.8606 12.875 71.8138 12.3281C71.7669 11.7734 71.6809 11.3164 71.5559 10.957C71.4388 10.5898 71.2747 10.3164 71.0638 10.1367C70.8528 9.95703 70.5833 9.86719 70.2552 9.86719C70.0364 9.91406 69.8177 10.0703 69.5989 10.3359C69.4114 10.5625 69.2122 10.9258 69.0013 11.4258C68.7903 11.918 68.6067 12.6133 68.4505 13.5117C68.427 14.1211 68.4114 14.7266 68.4036 15.3281C68.4036 15.9219 68.4036 16.5547 68.4036 17.2266C68.4036 17.7969 68.4036 18.4102 68.4036 19.0664C68.4036 19.7227 68.4114 20.4648 68.427 21.293L65.7669 21.2344C65.7903 20.4375 65.8059 19.5938 65.8138 18.7031C65.8294 17.8047 65.8372 16.8086 65.8372 15.7148C65.8372 14.6289 65.8294 13.4531 65.8138 12.1875C65.7981 10.9219 65.7669 9.51562 65.72 7.96875L68.7669 8.01562Z"/>
<path d="M81.2816 3.1875C81.2191 3.99219 81.1683 4.78516 81.1292 5.56641C81.0902 6.33984 81.0511 7.11719 81.012 7.89844C81.3558 7.88281 81.6956 7.87109 82.0316 7.86328C82.3675 7.84766 82.7113 7.82812 83.0628 7.80469L83.1097 10.8047C82.7347 10.7422 82.3636 10.6914 81.9964 10.6523C81.6292 10.6133 81.2698 10.582 80.9183 10.5586C80.8948 11.2227 80.8792 11.8789 80.8714 12.5273C80.8714 13.1758 80.8714 13.832 80.8714 14.4961C80.8714 15.6836 80.8831 16.8633 80.9066 18.0352C80.9378 19.207 80.9847 20.3867 81.0472 21.5742L77.9886 21.5273C78.0902 19.6914 78.1722 17.8594 78.2347 16.0312C78.305 14.1953 78.3519 12.3477 78.3753 10.4883C78.0472 10.5039 77.7191 10.5234 77.3909 10.5469C77.0628 10.5625 76.7269 10.582 76.3831 10.6055L76.4769 7.82812C76.7972 7.85156 77.1136 7.87109 77.4261 7.88672C77.7464 7.89453 78.0628 7.90625 78.3753 7.92188C78.3753 7.14062 78.3675 6.36328 78.3519 5.58984C78.3363 4.80859 78.3206 4.02344 78.305 3.23438L81.2816 3.1875Z"/>
<path d="M90.5736 21.4805C90.5267 21.2383 90.4837 20.9922 90.4447 20.7422C90.4056 20.4922 90.3744 20.2344 90.3509 19.9688C89.9916 20.5 89.5619 20.9062 89.0619 21.1875C88.5619 21.4766 88.015 21.6211 87.4212 21.6211C87.1166 21.6211 86.8041 21.5703 86.4837 21.4688C86.1634 21.375 85.8705 21.207 85.6048 20.9648C85.347 20.7227 85.1322 20.3945 84.9603 19.9805C84.7962 19.5586 84.7142 19.0273 84.7142 18.3867C84.7142 17.8555 84.7923 17.3945 84.9486 17.0039C85.1048 16.6055 85.308 16.2578 85.558 15.9609C85.808 15.6641 86.0892 15.4062 86.4017 15.1875C86.7142 14.9688 87.0228 14.7734 87.3275 14.6016C87.64 14.4297 87.9369 14.2695 88.2181 14.1211C88.4994 13.9727 88.7298 13.8242 88.9095 13.6758C89.2533 13.4023 89.5502 13.1133 89.8002 12.8086C90.058 12.4961 90.265 12.1719 90.4212 11.8359C90.39 11.2969 90.3314 10.8555 90.2455 10.5117C90.1673 10.1602 90.0619 9.88281 89.9291 9.67969C89.7962 9.46875 89.6322 9.32422 89.4369 9.24609C89.2494 9.16016 89.0345 9.11719 88.7923 9.11719C88.433 9.11719 88.1283 9.19531 87.8783 9.35156C87.6361 9.50781 87.4369 9.69531 87.2806 9.91406C87.4759 10.0391 87.6244 10.1719 87.7259 10.3125C87.8353 10.4531 87.9173 10.5898 87.972 10.7227C88.0345 10.8711 88.0697 11.0234 88.0775 11.1797C88.0775 11.7109 87.9252 12.1172 87.6205 12.3984C87.3236 12.6797 86.9408 12.8203 86.472 12.8203C86.2298 12.8203 86.0072 12.7656 85.8041 12.6562C85.6009 12.5391 85.4212 12.3789 85.265 12.1758C85.1166 11.9727 84.9994 11.7305 84.9134 11.4492C84.8275 11.168 84.7845 10.8633 84.7845 10.5352C84.7845 10.207 84.8587 9.85938 85.0072 9.49219C85.1556 9.125 85.3939 8.78516 85.722 8.47266C86.0502 8.15234 86.472 7.89062 86.9877 7.6875C87.5033 7.47656 88.1283 7.37109 88.8627 7.37109C89.597 7.37109 90.2259 7.51562 90.7494 7.80469C91.2728 8.08594 91.7025 8.46484 92.0384 8.94141C92.3744 9.41016 92.6166 9.95312 92.765 10.5703C92.9212 11.1875 92.9994 11.8242 92.9994 12.4805C92.9994 12.9727 92.9955 13.5078 92.9877 14.0859C92.9798 14.6641 92.9759 15.2578 92.9759 15.8672C92.9759 16.375 92.9798 16.8828 92.9877 17.3906C92.9955 17.8984 93.0111 18.3906 93.0345 18.8672C93.058 19.3359 93.0892 19.7812 93.1283 20.2031C93.1673 20.6172 93.2181 20.9883 93.2806 21.3164L90.5736 21.4805ZM90.3978 14.6133C90.1244 14.9414 89.8314 15.2227 89.5189 15.457C89.2845 15.6211 89.0306 15.8047 88.7572 16.0078C88.4916 16.2109 88.2416 16.4258 88.0072 16.6523C87.7806 16.8789 87.5892 17.1172 87.433 17.3672C87.2845 17.6094 87.2103 17.8594 87.2103 18.1172C87.2103 18.4688 87.2962 18.7695 87.4681 19.0195C87.64 19.2695 87.8822 19.3945 88.1947 19.3945C88.4837 19.3945 88.7416 19.3164 88.9681 19.1602C89.1947 19.0039 89.3939 18.8125 89.5658 18.5859C89.7455 18.3516 89.8939 18.1016 90.0111 17.8359C90.1361 17.5703 90.2337 17.3281 90.3041 17.1094L90.3978 14.6133Z"/>
<path d="M99.8422 3.1875C99.7797 3.99219 99.7289 4.78516 99.6898 5.56641C99.6508 6.33984 99.6117 7.11719 99.5727 7.89844C99.9164 7.88281 100.256 7.87109 100.592 7.86328C100.928 7.84766 101.272 7.82812 101.623 7.80469L101.67 10.8047C101.295 10.7422 100.924 10.6914 100.557 10.6523C100.19 10.6133 99.8305 10.582 99.4789 10.5586C99.4555 11.2227 99.4398 11.8789 99.432 12.5273C99.432 13.1758 99.432 13.832 99.432 14.4961C99.432 15.6836 99.4437 16.8633 99.4672 18.0352C99.4984 19.207 99.5453 20.3867 99.6078 21.5742L96.5492 21.5273C96.6508 19.6914 96.7328 17.8594 96.7953 16.0312C96.8656 14.1953 96.9125 12.3477 96.9359 10.4883C96.6078 10.5039 96.2797 10.5234 95.9516 10.5469C95.6234 10.5625 95.2875 10.582 94.9437 10.6055L95.0375 7.82812C95.3578 7.85156 95.6742 7.87109 95.9867 7.88672C96.307 7.89453 96.6234 7.90625 96.9359 7.92188C96.9359 7.14062 96.9281 6.36328 96.9125 5.58984C96.8969 4.80859 96.8812 4.02344 96.8656 3.23438L99.8422 3.1875Z"/>
</mask>
<path d="M2.59766 9.14062C2.59766 8.28125 2.69922 7.51953 2.90234 6.85547C3.10547 6.19141 3.40234 5.63281 3.79297 5.17969C4.18359 4.71875 4.66797 4.37109 5.24609 4.13672C5.83203 3.89453 6.50391 3.77344 7.26172 3.77344C8.10547 3.77344 8.86719 3.96484 9.54688 4.34766C10.2266 4.73047 10.8047 5.30859 11.2812 6.08203C11.7656 6.85547 12.1367 7.82422 12.3945 8.98828C12.6523 10.1445 12.7812 11.5 12.7812 13.0547C12.7812 14.6094 12.6133 15.9375 12.2773 17.0391C11.9492 18.1406 11.5117 19.043 10.9648 19.7461C10.418 20.4492 9.79297 20.9609 9.08984 21.2812C8.39453 21.6094 7.67969 21.7734 6.94531 21.7734C6.21094 21.7734 5.58594 21.6641 5.07031 21.4453C4.5625 21.2344 4.14844 20.9648 3.82812 20.6367C3.50781 20.3008 3.27344 19.9375 3.125 19.5469C2.98438 19.1484 2.91406 18.7695 2.91406 18.4102C2.91406 18.0508 2.96484 17.7383 3.06641 17.4727C3.17578 17.1992 3.31641 16.9766 3.48828 16.8047C3.66016 16.625 3.85156 16.4922 4.0625 16.4062C4.28125 16.3203 4.49609 16.2773 4.70703 16.2773C4.92578 16.2773 5.13672 16.3047 5.33984 16.3594C5.54297 16.4141 5.72266 16.5078 5.87891 16.6406C6.04297 16.7734 6.17188 16.9531 6.26562 17.1797C6.36719 17.3984 6.41797 17.6719 6.41797 18C6.41016 18.1641 6.39062 18.3281 6.35938 18.4922C6.32812 18.6328 6.27734 18.7812 6.20703 18.9375C6.13672 19.0938 6.03906 19.2383 5.91406 19.3711C6.02344 19.5117 6.14844 19.6172 6.28906 19.6875C6.4375 19.7578 6.57812 19.8125 6.71094 19.8516C6.85938 19.8906 7.00781 19.9141 7.15625 19.9219C7.46094 19.9219 7.76562 19.793 8.07031 19.5352C8.38281 19.2695 8.66406 18.8633 8.91406 18.3164C9.17188 17.7695 9.38281 17.0742 9.54688 16.2305C9.71875 15.3789 9.8125 14.3672 9.82812 13.1953C9.39062 13.7578 8.90234 14.1758 8.36328 14.4492C7.83203 14.7227 7.28516 14.8594 6.72266 14.8594C6.19922 14.8594 5.69141 14.7383 5.19922 14.4961C4.70703 14.2539 4.26562 13.8945 3.875 13.418C3.49219 12.9336 3.18359 12.3359 2.94922 11.625C2.71484 10.9141 2.59766 10.0859 2.59766 9.14062ZM7.17969 5.68359C6.60156 5.68359 6.14844 5.98828 5.82031 6.59766C5.5 7.19922 5.33984 8.04688 5.33984 9.14062C5.33984 9.64844 5.38672 10.1133 5.48047 10.5352C5.58203 10.957 5.71875 11.3164 5.89062 11.6133C6.07031 11.9102 6.28125 12.1406 6.52344 12.3047C6.77344 12.4688 7.04297 12.5508 7.33203 12.5508C7.69141 12.5508 8.07812 12.4062 8.49219 12.1172C8.90625 11.8281 9.31641 11.3633 9.72266 10.7227C9.65234 9.87109 9.53906 9.13281 9.38281 8.50781C9.22656 7.875 9.03516 7.35156 8.80859 6.9375C8.58984 6.51562 8.33984 6.20312 8.05859 6C7.78516 5.78906 7.49219 5.68359 7.17969 5.68359Z" fill="white"/>
<path d="M18.4991 10.6992C18.4991 10.9102 18.4561 11.1094 18.3702 11.2969C18.292 11.4844 18.1827 11.6484 18.042 11.7891C17.9092 11.9219 17.7491 12.0312 17.5616 12.1172C17.3741 12.1953 17.1748 12.2344 16.9639 12.2344C16.7452 12.2344 16.542 12.1953 16.3545 12.1172C16.167 12.0312 16.003 11.9219 15.8623 11.7891C15.7217 11.6484 15.6084 11.4844 15.5225 11.2969C15.4444 11.1094 15.4053 10.9102 15.4053 10.6992C15.4053 10.4883 15.4444 10.2891 15.5225 10.1016C15.6084 9.90625 15.7217 9.73828 15.8623 9.59766C16.003 9.45703 16.167 9.34766 16.3545 9.26953C16.542 9.18359 16.7452 9.14062 16.9639 9.14062C17.1748 9.14062 17.3741 9.18359 17.5616 9.26953C17.7491 9.34766 17.9092 9.45703 18.042 9.59766C18.1827 9.73828 18.292 9.90625 18.3702 10.1016C18.4561 10.2891 18.4991 10.4883 18.4991 10.6992ZM18.4991 19.8984C18.4991 20.1094 18.4561 20.3086 18.3702 20.4961C18.292 20.6758 18.1827 20.8359 18.042 20.9766C17.9092 21.1172 17.7491 21.2266 17.5616 21.3047C17.3741 21.3906 17.1748 21.4336 16.9639 21.4336C16.7452 21.4336 16.542 21.3906 16.3545 21.3047C16.167 21.2266 16.003 21.1172 15.8623 20.9766C15.7217 20.8359 15.6084 20.6758 15.5225 20.4961C15.4444 20.3086 15.4053 20.1094 15.4053 19.8984C15.4053 19.6797 15.4444 19.4766 15.5225 19.2891C15.6084 19.1016 15.7217 18.9375 15.8623 18.7969C16.003 18.6562 16.167 18.5469 16.3545 18.4688C16.542 18.3828 16.7452 18.3398 16.9639 18.3398C17.1748 18.3398 17.3741 18.3828 17.5616 18.4688C17.7491 18.5469 17.9092 18.6562 18.042 18.7969C18.1827 18.9375 18.292 19.1016 18.3702 19.2891C18.4561 19.4766 18.4991 19.6797 18.4991 19.8984Z" fill="white"/>
<path d="M27.5441 19.6055C27.5441 19.0039 27.5284 18.4023 27.4972 17.8008C27.4737 17.1992 27.4464 16.5977 27.4152 15.9961C27.3839 15.3867 27.3527 14.7773 27.3214 14.168C27.298 13.5508 27.2862 12.9258 27.2862 12.293C27.2862 11.6289 27.3058 10.957 27.3448 10.2773C27.3917 9.58984 27.4777 8.92969 27.6027 8.29688C27.7277 7.65625 27.8995 7.05859 28.1183 6.50391C28.337 5.94141 28.6222 5.45312 28.9737 5.03906C29.3253 4.625 29.755 4.29688 30.2628 4.05469C30.7706 3.8125 31.3683 3.69141 32.0558 3.69141C32.712 3.69141 33.2823 3.79688 33.7667 4.00781C34.2511 4.21094 34.6612 4.49219 34.9972 4.85156C35.3409 5.21094 35.6183 5.63281 35.8292 6.11719C36.048 6.60156 36.2159 7.125 36.3331 7.6875C36.4581 8.25 36.5441 8.83594 36.5909 9.44531C36.6378 10.0547 36.6612 10.6602 36.6612 11.2617C36.6612 11.418 36.6573 11.5547 36.6495 11.6719C36.6495 11.7891 36.6456 11.918 36.6378 12.0586C36.6378 12.1914 36.63 12.3516 36.6144 12.5391C36.6066 12.7266 36.5948 12.9727 36.5792 13.2773C36.5636 13.5742 36.5441 13.9414 36.5206 14.3789C36.505 14.8164 36.4855 15.3555 36.462 15.9961C36.4386 16.6367 36.4112 17.3945 36.38 18.2695C36.3487 19.1367 36.3175 20.1523 36.2862 21.3164L32.7823 21.1875C32.9152 20.2969 33.0323 19.4062 33.1339 18.5156C33.2433 17.6172 33.3331 16.7812 33.4034 16.0078C32.8019 15.9609 32.2433 15.9375 31.7277 15.9375C31.462 15.9375 31.212 15.9414 30.9777 15.9492C30.7433 15.957 30.5362 15.9688 30.3566 15.9844C30.38 16.3906 30.4073 16.8203 30.4386 17.2734C30.4698 17.7266 30.505 18.1836 30.5441 18.6445C30.5831 19.1055 30.6261 19.5625 30.673 20.0156C30.7198 20.4609 30.7745 20.8867 30.837 21.293L27.5206 21.3867C27.5362 21.0977 27.5441 20.8047 27.5441 20.5078C27.5441 20.2031 27.5441 19.9023 27.5441 19.6055ZM30.2159 13.5117C30.4503 13.5273 30.6808 13.5352 30.9073 13.5352C31.1339 13.5352 31.3566 13.5352 31.5753 13.5352C32.4112 13.5352 33.0831 13.5117 33.5909 13.4648C33.6378 12.9102 33.6847 12.3516 33.7316 11.7891C33.7862 11.2266 33.8136 10.625 33.8136 9.98438C33.8136 8.63281 33.673 7.60547 33.3917 6.90234C33.1183 6.19141 32.712 5.83594 32.173 5.83594C31.8761 5.83594 31.6027 5.94141 31.3527 6.15234C31.1027 6.36328 30.8839 6.69141 30.6964 7.13672C30.5167 7.57422 30.3722 8.12891 30.2628 8.80078C30.1612 9.47266 30.1105 10.2656 30.1105 11.1797C30.1105 11.5 30.1183 11.8438 30.1339 12.2109C30.1573 12.5703 30.1847 13.0039 30.2159 13.5117Z" fill="white"/>
<path d="M43.4572 3.1875C43.3947 3.99219 43.3439 4.78516 43.3048 5.56641C43.2658 6.33984 43.2267 7.11719 43.1877 7.89844C43.5314 7.88281 43.8713 7.87109 44.2072 7.86328C44.5431 7.84766 44.8869 7.82812 45.2384 7.80469L45.2853 10.8047C44.9103 10.7422 44.5392 10.6914 44.172 10.6523C43.8048 10.6133 43.4455 10.582 43.0939 10.5586C43.0705 11.2227 43.0548 11.8789 43.047 12.5273C43.047 13.1758 43.047 13.832 43.047 14.4961C43.047 15.6836 43.0588 16.8633 43.0822 18.0352C43.1134 19.207 43.1603 20.3867 43.2228 21.5742L40.1642 21.5273C40.2658 19.6914 40.3478 17.8594 40.4103 16.0312C40.4806 14.1953 40.5275 12.3477 40.5509 10.4883C40.2228 10.5039 39.8947 10.5234 39.5666 10.5469C39.2384 10.5625 38.9025 10.582 38.5588 10.6055L38.6525 7.82812C38.9728 7.85156 39.2892 7.87109 39.6017 7.88672C39.922 7.89453 40.2384 7.90625 40.5509 7.92188C40.5509 7.14062 40.5431 6.36328 40.5275 5.58984C40.5119 4.80859 40.4963 4.02344 40.4806 3.23438L43.4572 3.1875Z" fill="white"/>
<path d="M51.3781 3.1875C51.3156 3.99219 51.2648 4.78516 51.2258 5.56641C51.1867 6.33984 51.1477 7.11719 51.1086 7.89844C51.4523 7.88281 51.7922 7.87109 52.1281 7.86328C52.4641 7.84766 52.8078 7.82812 53.1594 7.80469L53.2062 10.8047C52.8312 10.7422 52.4602 10.6914 52.093 10.6523C51.7258 10.6133 51.3664 10.582 51.0148 10.5586C50.9914 11.2227 50.9758 11.8789 50.968 12.5273C50.968 13.1758 50.968 13.832 50.968 14.4961C50.968 15.6836 50.9797 16.8633 51.0031 18.0352C51.0344 19.207 51.0812 20.3867 51.1437 21.5742L48.0852 21.5273C48.1867 19.6914 48.2687 17.8594 48.3312 16.0312C48.4016 14.1953 48.4484 12.3477 48.4719 10.4883C48.1437 10.5039 47.8156 10.5234 47.4875 10.5469C47.1594 10.5625 46.8234 10.582 46.4797 10.6055L46.5734 7.82812C46.8937 7.85156 47.2102 7.87109 47.5227 7.88672C47.843 7.89453 48.1594 7.90625 48.4719 7.92188C48.4719 7.14062 48.4641 6.36328 48.4484 5.58984C48.4328 4.80859 48.4172 4.02344 48.4016 3.23438L51.3781 3.1875Z" fill="white"/>
<path d="M63.4475 18.4805C63.4475 18.9414 63.342 19.375 63.1311 19.7812C62.9202 20.1875 62.635 20.5391 62.2756 20.8359C61.9162 21.1328 61.4944 21.3672 61.01 21.5391C60.5256 21.7109 60.01 21.7969 59.4631 21.7969C59.0959 21.7969 58.7248 21.7461 58.3498 21.6445C57.9748 21.543 57.6155 21.375 57.2717 21.1406C56.928 20.9062 56.6037 20.5977 56.2991 20.2148C55.9944 19.832 55.7287 19.3633 55.5022 18.8086C55.2834 18.2539 55.1077 17.6055 54.9748 16.8633C54.8498 16.1133 54.7873 15.2539 54.7873 14.2852C54.7873 13.3711 54.8498 12.5625 54.9748 11.8594C55.1077 11.1562 55.2834 10.543 55.5022 10.0195C55.7287 9.49609 55.9905 9.05859 56.2873 8.70703C56.5842 8.34766 56.9006 8.05859 57.2366 7.83984C57.5803 7.61328 57.9319 7.45312 58.2912 7.35938C58.6584 7.26562 59.0178 7.21875 59.3694 7.21875C59.8928 7.21875 60.3889 7.30469 60.8577 7.47656C61.3264 7.64062 61.7366 7.88672 62.0881 8.21484C62.4397 8.54297 62.717 8.94922 62.9202 9.43359C63.1311 9.91016 63.2366 10.4609 63.2366 11.0859C63.2366 11.6484 63.1194 12.2188 62.885 12.7969C62.6584 13.3672 62.3186 13.9102 61.8655 14.4258C61.4123 14.9336 60.8498 15.3984 60.178 15.8203C59.5139 16.2344 58.7483 16.5625 57.8811 16.8047C57.928 17.2891 57.9944 17.7305 58.0803 18.1289C58.1741 18.5273 58.2873 18.8672 58.4202 19.1484C58.5608 19.4297 58.7209 19.6484 58.9006 19.8047C59.0881 19.9609 59.303 20.0391 59.5452 20.0391C59.7014 20.0312 59.8498 20.0039 59.9905 19.957C60.1155 19.918 60.2405 19.8555 60.3655 19.7695C60.4983 19.6836 60.6077 19.5586 60.6936 19.3945C60.4905 19.3008 60.3342 19.1797 60.2248 19.0312C60.1155 18.8828 60.0334 18.7422 59.9787 18.6094C59.9162 18.4531 59.8811 18.2891 59.8733 18.1172C59.8733 17.7422 59.9475 17.4375 60.0959 17.2031C60.2444 16.9688 60.4202 16.7852 60.6233 16.6523C60.8264 16.5195 61.0334 16.4297 61.2444 16.3828C61.4553 16.3281 61.6233 16.3008 61.7483 16.3008C61.8811 16.3008 62.0412 16.3281 62.2287 16.3828C62.4241 16.4375 62.6116 16.543 62.7912 16.6992C62.9709 16.8555 63.1233 17.0781 63.2483 17.3672C63.3811 17.6484 63.4475 18.0195 63.4475 18.4805ZM60.553 11.1094C60.553 10.8281 60.5256 10.5625 60.4709 10.3125C60.4241 10.0547 60.3498 9.83203 60.2483 9.64453C60.1545 9.45703 60.0334 9.30859 59.885 9.19922C59.7444 9.08203 59.5803 9.02344 59.3928 9.02344C59.0725 9.02344 58.8108 9.17188 58.6077 9.46875C58.4045 9.75781 58.2405 10.1445 58.1155 10.6289C57.9905 11.1133 57.9045 11.6719 57.8577 12.3047C57.8108 12.9375 57.7873 13.5977 57.7873 14.2852V15.1406C58.1858 14.9297 58.553 14.6797 58.8889 14.3906C59.2327 14.1016 59.5256 13.7852 59.7678 13.4414C60.0178 13.0898 60.2092 12.7188 60.342 12.3281C60.4827 11.9375 60.553 11.5312 60.553 11.1094Z" fill="white"/>
<path d="M68.7669 8.01562L68.6966 8.97656C68.9544 8.54688 69.2278 8.21875 69.5169 7.99219C69.8138 7.76562 70.0872 7.60547 70.3372 7.51172C70.5872 7.41797 70.7942 7.36719 70.9583 7.35938C71.1302 7.35156 71.2239 7.34766 71.2395 7.34766C71.8177 7.34766 72.3216 7.48047 72.7513 7.74609C73.1809 8.01172 73.5364 8.39844 73.8177 8.90625C74.0989 9.40625 74.3059 10.0195 74.4388 10.7461C74.5794 11.4648 74.6497 12.2812 74.6497 13.1953C74.6497 13.8672 74.638 14.5547 74.6145 15.2578C74.5989 15.9531 74.5598 16.6484 74.4973 17.3438C74.4427 18.0312 74.3645 18.7031 74.263 19.3594C74.1692 20.0156 74.0403 20.6406 73.8763 21.2344L71.1458 20.9062C71.3255 19.9766 71.4661 19.1094 71.5677 18.3047C71.6692 17.5 71.7434 16.7969 71.7903 16.1953C71.845 15.4922 71.8763 14.8477 71.8841 14.2617C71.8841 13.5195 71.8606 12.875 71.8138 12.3281C71.7669 11.7734 71.6809 11.3164 71.5559 10.957C71.4388 10.5898 71.2747 10.3164 71.0638 10.1367C70.8528 9.95703 70.5833 9.86719 70.2552 9.86719C70.0364 9.91406 69.8177 10.0703 69.5989 10.3359C69.4114 10.5625 69.2122 10.9258 69.0013 11.4258C68.7903 11.918 68.6067 12.6133 68.4505 13.5117C68.427 14.1211 68.4114 14.7266 68.4036 15.3281C68.4036 15.9219 68.4036 16.5547 68.4036 17.2266C68.4036 17.7969 68.4036 18.4102 68.4036 19.0664C68.4036 19.7227 68.4114 20.4648 68.427 21.293L65.7669 21.2344C65.7903 20.4375 65.8059 19.5938 65.8138 18.7031C65.8294 17.8047 65.8372 16.8086 65.8372 15.7148C65.8372 14.6289 65.8294 13.4531 65.8138 12.1875C65.7981 10.9219 65.7669 9.51562 65.72 7.96875L68.7669 8.01562Z" fill="white"/>
<path d="M81.2816 3.1875C81.2191 3.99219 81.1683 4.78516 81.1292 5.56641C81.0902 6.33984 81.0511 7.11719 81.012 7.89844C81.3558 7.88281 81.6956 7.87109 82.0316 7.86328C82.3675 7.84766 82.7113 7.82812 83.0628 7.80469L83.1097 10.8047C82.7347 10.7422 82.3636 10.6914 81.9964 10.6523C81.6292 10.6133 81.2698 10.582 80.9183 10.5586C80.8948 11.2227 80.8792 11.8789 80.8714 12.5273C80.8714 13.1758 80.8714 13.832 80.8714 14.4961C80.8714 15.6836 80.8831 16.8633 80.9066 18.0352C80.9378 19.207 80.9847 20.3867 81.0472 21.5742L77.9886 21.5273C78.0902 19.6914 78.1722 17.8594 78.2347 16.0312C78.305 14.1953 78.3519 12.3477 78.3753 10.4883C78.0472 10.5039 77.7191 10.5234 77.3909 10.5469C77.0628 10.5625 76.7269 10.582 76.3831 10.6055L76.4769 7.82812C76.7972 7.85156 77.1136 7.87109 77.4261 7.88672C77.7464 7.89453 78.0628 7.90625 78.3753 7.92188C78.3753 7.14062 78.3675 6.36328 78.3519 5.58984C78.3363 4.80859 78.3206 4.02344 78.305 3.23438L81.2816 3.1875Z" fill="white"/>
<path d="M90.5736 21.4805C90.5267 21.2383 90.4837 20.9922 90.4447 20.7422C90.4056 20.4922 90.3744 20.2344 90.3509 19.9688C89.9916 20.5 89.5619 20.9062 89.0619 21.1875C88.5619 21.4766 88.015 21.6211 87.4212 21.6211C87.1166 21.6211 86.8041 21.5703 86.4837 21.4688C86.1634 21.375 85.8705 21.207 85.6048 20.9648C85.347 20.7227 85.1322 20.3945 84.9603 19.9805C84.7962 19.5586 84.7142 19.0273 84.7142 18.3867C84.7142 17.8555 84.7923 17.3945 84.9486 17.0039C85.1048 16.6055 85.308 16.2578 85.558 15.9609C85.808 15.6641 86.0892 15.4062 86.4017 15.1875C86.7142 14.9688 87.0228 14.7734 87.3275 14.6016C87.64 14.4297 87.9369 14.2695 88.2181 14.1211C88.4994 13.9727 88.7298 13.8242 88.9095 13.6758C89.2533 13.4023 89.5502 13.1133 89.8002 12.8086C90.058 12.4961 90.265 12.1719 90.4212 11.8359C90.39 11.2969 90.3314 10.8555 90.2455 10.5117C90.1673 10.1602 90.0619 9.88281 89.9291 9.67969C89.7962 9.46875 89.6322 9.32422 89.4369 9.24609C89.2494 9.16016 89.0345 9.11719 88.7923 9.11719C88.433 9.11719 88.1283 9.19531 87.8783 9.35156C87.6361 9.50781 87.4369 9.69531 87.2806 9.91406C87.4759 10.0391 87.6244 10.1719 87.7259 10.3125C87.8353 10.4531 87.9173 10.5898 87.972 10.7227C88.0345 10.8711 88.0697 11.0234 88.0775 11.1797C88.0775 11.7109 87.9252 12.1172 87.6205 12.3984C87.3236 12.6797 86.9408 12.8203 86.472 12.8203C86.2298 12.8203 86.0072 12.7656 85.8041 12.6562C85.6009 12.5391 85.4212 12.3789 85.265 12.1758C85.1166 11.9727 84.9994 11.7305 84.9134 11.4492C84.8275 11.168 84.7845 10.8633 84.7845 10.5352C84.7845 10.207 84.8587 9.85938 85.0072 9.49219C85.1556 9.125 85.3939 8.78516 85.722 8.47266C86.0502 8.15234 86.472 7.89062 86.9877 7.6875C87.5033 7.47656 88.1283 7.37109 88.8627 7.37109C89.597 7.37109 90.2259 7.51562 90.7494 7.80469C91.2728 8.08594 91.7025 8.46484 92.0384 8.94141C92.3744 9.41016 92.6166 9.95312 92.765 10.5703C92.9212 11.1875 92.9994 11.8242 92.9994 12.4805C92.9994 12.9727 92.9955 13.5078 92.9877 14.0859C92.9798 14.6641 92.9759 15.2578 92.9759 15.8672C92.9759 16.375 92.9798 16.8828 92.9877 17.3906C92.9955 17.8984 93.0111 18.3906 93.0345 18.8672C93.058 19.3359 93.0892 19.7812 93.1283 20.2031C93.1673 20.6172 93.2181 20.9883 93.2806 21.3164L90.5736 21.4805ZM90.3978 14.6133C90.1244 14.9414 89.8314 15.2227 89.5189 15.457C89.2845 15.6211 89.0306 15.8047 88.7572 16.0078C88.4916 16.2109 88.2416 16.4258 88.0072 16.6523C87.7806 16.8789 87.5892 17.1172 87.433 17.3672C87.2845 17.6094 87.2103 17.8594 87.2103 18.1172C87.2103 18.4688 87.2962 18.7695 87.4681 19.0195C87.64 19.2695 87.8822 19.3945 88.1947 19.3945C88.4837 19.3945 88.7416 19.3164 88.9681 19.1602C89.1947 19.0039 89.3939 18.8125 89.5658 18.5859C89.7455 18.3516 89.8939 18.1016 90.0111 17.8359C90.1361 17.5703 90.2337 17.3281 90.3041 17.1094L90.3978 14.6133Z" fill="white"/>
<path d="M99.8422 3.1875C99.7797 3.99219 99.7289 4.78516 99.6898 5.56641C99.6508 6.33984 99.6117 7.11719 99.5727 7.89844C99.9164 7.88281 100.256 7.87109 100.592 7.86328C100.928 7.84766 101.272 7.82812 101.623 7.80469L101.67 10.8047C101.295 10.7422 100.924 10.6914 100.557 10.6523C100.19 10.6133 99.8305 10.582 99.4789 10.5586C99.4555 11.2227 99.4398 11.8789 99.432 12.5273C99.432 13.1758 99.432 13.832 99.432 14.4961C99.432 15.6836 99.4437 16.8633 99.4672 18.0352C99.4984 19.207 99.5453 20.3867 99.6078 21.5742L96.5492 21.5273C96.6508 19.6914 96.7328 17.8594 96.7953 16.0312C96.8656 14.1953 96.9125 12.3477 96.9359 10.4883C96.6078 10.5039 96.2797 10.5234 95.9516 10.5469C95.6234 10.5625 95.2875 10.582 94.9437 10.6055L95.0375 7.82812C95.3578 7.85156 95.6742 7.87109 95.9867 7.88672C96.307 7.89453 96.6234 7.90625 96.9359 7.92188C96.9359 7.14062 96.9281 6.36328 96.9125 5.58984C96.8969 4.80859 96.8812 4.02344 96.8656 3.23438L99.8422 3.1875Z" fill="white"/>
<path d="M2.59766 9.14062C2.59766 8.28125 2.69922 7.51953 2.90234 6.85547C3.10547 6.19141 3.40234 5.63281 3.79297 5.17969C4.18359 4.71875 4.66797 4.37109 5.24609 4.13672C5.83203 3.89453 6.50391 3.77344 7.26172 3.77344C8.10547 3.77344 8.86719 3.96484 9.54688 4.34766C10.2266 4.73047 10.8047 5.30859 11.2812 6.08203C11.7656 6.85547 12.1367 7.82422 12.3945 8.98828C12.6523 10.1445 12.7812 11.5 12.7812 13.0547C12.7812 14.6094 12.6133 15.9375 12.2773 17.0391C11.9492 18.1406 11.5117 19.043 10.9648 19.7461C10.418 20.4492 9.79297 20.9609 9.08984 21.2812C8.39453 21.6094 7.67969 21.7734 6.94531 21.7734C6.21094 21.7734 5.58594 21.6641 5.07031 21.4453C4.5625 21.2344 4.14844 20.9648 3.82812 20.6367C3.50781 20.3008 3.27344 19.9375 3.125 19.5469C2.98438 19.1484 2.91406 18.7695 2.91406 18.4102C2.91406 18.0508 2.96484 17.7383 3.06641 17.4727C3.17578 17.1992 3.31641 16.9766 3.48828 16.8047C3.66016 16.625 3.85156 16.4922 4.0625 16.4062C4.28125 16.3203 4.49609 16.2773 4.70703 16.2773C4.92578 16.2773 5.13672 16.3047 5.33984 16.3594C5.54297 16.4141 5.72266 16.5078 5.87891 16.6406C6.04297 16.7734 6.17188 16.9531 6.26562 17.1797C6.36719 17.3984 6.41797 17.6719 6.41797 18C6.41016 18.1641 6.39062 18.3281 6.35938 18.4922C6.32812 18.6328 6.27734 18.7812 6.20703 18.9375C6.13672 19.0938 6.03906 19.2383 5.91406 19.3711C6.02344 19.5117 6.14844 19.6172 6.28906 19.6875C6.4375 19.7578 6.57812 19.8125 6.71094 19.8516C6.85938 19.8906 7.00781 19.9141 7.15625 19.9219C7.46094 19.9219 7.76562 19.793 8.07031 19.5352C8.38281 19.2695 8.66406 18.8633 8.91406 18.3164C9.17188 17.7695 9.38281 17.0742 9.54688 16.2305C9.71875 15.3789 9.8125 14.3672 9.82812 13.1953C9.39062 13.7578 8.90234 14.1758 8.36328 14.4492C7.83203 14.7227 7.28516 14.8594 6.72266 14.8594C6.19922 14.8594 5.69141 14.7383 5.19922 14.4961C4.70703 14.2539 4.26562 13.8945 3.875 13.418C3.49219 12.9336 3.18359 12.3359 2.94922 11.625C2.71484 10.9141 2.59766 10.0859 2.59766 9.14062ZM7.17969 5.68359C6.60156 5.68359 6.14844 5.98828 5.82031 6.59766C5.5 7.19922 5.33984 8.04688 5.33984 9.14062C5.33984 9.64844 5.38672 10.1133 5.48047 10.5352C5.58203 10.957 5.71875 11.3164 5.89062 11.6133C6.07031 11.9102 6.28125 12.1406 6.52344 12.3047C6.77344 12.4688 7.04297 12.5508 7.33203 12.5508C7.69141 12.5508 8.07812 12.4062 8.49219 12.1172C8.90625 11.8281 9.31641 11.3633 9.72266 10.7227C9.65234 9.87109 9.53906 9.13281 9.38281 8.50781C9.22656 7.875 9.03516 7.35156 8.80859 6.9375C8.58984 6.51562 8.33984 6.20312 8.05859 6C7.78516 5.78906 7.49219 5.68359 7.17969 5.68359Z" stroke="black" stroke-width="4.6425" mask="url(#path-1-outside-1_1598_9503)"/>
<path d="M18.4991 10.6992C18.4991 10.9102 18.4561 11.1094 18.3702 11.2969C18.292 11.4844 18.1827 11.6484 18.042 11.7891C17.9092 11.9219 17.7491 12.0312 17.5616 12.1172C17.3741 12.1953 17.1748 12.2344 16.9639 12.2344C16.7452 12.2344 16.542 12.1953 16.3545 12.1172C16.167 12.0312 16.003 11.9219 15.8623 11.7891C15.7217 11.6484 15.6084 11.4844 15.5225 11.2969C15.4444 11.1094 15.4053 10.9102 15.4053 10.6992C15.4053 10.4883 15.4444 10.2891 15.5225 10.1016C15.6084 9.90625 15.7217 9.73828 15.8623 9.59766C16.003 9.45703 16.167 9.34766 16.3545 9.26953C16.542 9.18359 16.7452 9.14062 16.9639 9.14062C17.1748 9.14062 17.3741 9.18359 17.5616 9.26953C17.7491 9.34766 17.9092 9.45703 18.042 9.59766C18.1827 9.73828 18.292 9.90625 18.3702 10.1016C18.4561 10.2891 18.4991 10.4883 18.4991 10.6992ZM18.4991 19.8984C18.4991 20.1094 18.4561 20.3086 18.3702 20.4961C18.292 20.6758 18.1827 20.8359 18.042 20.9766C17.9092 21.1172 17.7491 21.2266 17.5616 21.3047C17.3741 21.3906 17.1748 21.4336 16.9639 21.4336C16.7452 21.4336 16.542 21.3906 16.3545 21.3047C16.167 21.2266 16.003 21.1172 15.8623 20.9766C15.7217 20.8359 15.6084 20.6758 15.5225 20.4961C15.4444 20.3086 15.4053 20.1094 15.4053 19.8984C15.4053 19.6797 15.4444 19.4766 15.5225 19.2891C15.6084 19.1016 15.7217 18.9375 15.8623 18.7969C16.003 18.6562 16.167 18.5469 16.3545 18.4688C16.542 18.3828 16.7452 18.3398 16.9639 18.3398C17.1748 18.3398 17.3741 18.3828 17.5616 18.4688C17.7491 18.5469 17.9092 18.6562 18.042 18.7969C18.1827 18.9375 18.292 19.1016 18.3702 19.2891C18.4561 19.4766 18.4991 19.6797 18.4991 19.8984Z" stroke="black" stroke-width="4.6425" mask="url(#path-1-outside-1_1598_9503)"/>
<path d="M27.5441 19.6055C27.5441 19.0039 27.5284 18.4023 27.4972 17.8008C27.4737 17.1992 27.4464 16.5977 27.4152 15.9961C27.3839 15.3867 27.3527 14.7773 27.3214 14.168C27.298 13.5508 27.2862 12.9258 27.2862 12.293C27.2862 11.6289 27.3058 10.957 27.3448 10.2773C27.3917 9.58984 27.4777 8.92969 27.6027 8.29688C27.7277 7.65625 27.8995 7.05859 28.1183 6.50391C28.337 5.94141 28.6222 5.45312 28.9737 5.03906C29.3253 4.625 29.755 4.29688 30.2628 4.05469C30.7706 3.8125 31.3683 3.69141 32.0558 3.69141C32.712 3.69141 33.2823 3.79688 33.7667 4.00781C34.2511 4.21094 34.6612 4.49219 34.9972 4.85156C35.3409 5.21094 35.6183 5.63281 35.8292 6.11719C36.048 6.60156 36.2159 7.125 36.3331 7.6875C36.4581 8.25 36.5441 8.83594 36.5909 9.44531C36.6378 10.0547 36.6612 10.6602 36.6612 11.2617C36.6612 11.418 36.6573 11.5547 36.6495 11.6719C36.6495 11.7891 36.6456 11.918 36.6378 12.0586C36.6378 12.1914 36.63 12.3516 36.6144 12.5391C36.6066 12.7266 36.5948 12.9727 36.5792 13.2773C36.5636 13.5742 36.5441 13.9414 36.5206 14.3789C36.505 14.8164 36.4855 15.3555 36.462 15.9961C36.4386 16.6367 36.4112 17.3945 36.38 18.2695C36.3487 19.1367 36.3175 20.1523 36.2862 21.3164L32.7823 21.1875C32.9152 20.2969 33.0323 19.4062 33.1339 18.5156C33.2433 17.6172 33.3331 16.7812 33.4034 16.0078C32.8019 15.9609 32.2433 15.9375 31.7277 15.9375C31.462 15.9375 31.212 15.9414 30.9777 15.9492C30.7433 15.957 30.5362 15.9688 30.3566 15.9844C30.38 16.3906 30.4073 16.8203 30.4386 17.2734C30.4698 17.7266 30.505 18.1836 30.5441 18.6445C30.5831 19.1055 30.6261 19.5625 30.673 20.0156C30.7198 20.4609 30.7745 20.8867 30.837 21.293L27.5206 21.3867C27.5362 21.0977 27.5441 20.8047 27.5441 20.5078C27.5441 20.2031 27.5441 19.9023 27.5441 19.6055ZM30.2159 13.5117C30.4503 13.5273 30.6808 13.5352 30.9073 13.5352C31.1339 13.5352 31.3566 13.5352 31.5753 13.5352C32.4112 13.5352 33.0831 13.5117 33.5909 13.4648C33.6378 12.9102 33.6847 12.3516 33.7316 11.7891C33.7862 11.2266 33.8136 10.625 33.8136 9.98438C33.8136 8.63281 33.673 7.60547 33.3917 6.90234C33.1183 6.19141 32.712 5.83594 32.173 5.83594C31.8761 5.83594 31.6027 5.94141 31.3527 6.15234C31.1027 6.36328 30.8839 6.69141 30.6964 7.13672C30.5167 7.57422 30.3722 8.12891 30.2628 8.80078C30.1612 9.47266 30.1105 10.2656 30.1105 11.1797C30.1105 11.5 30.1183 11.8438 30.1339 12.2109C30.1573 12.5703 30.1847 13.0039 30.2159 13.5117Z" stroke="black" stroke-width="4.6425" mask="url(#path-1-outside-1_1598_9503)"/>
<path d="M43.4572 3.1875C43.3947 3.99219 43.3439 4.78516 43.3048 5.56641C43.2658 6.33984 43.2267 7.11719 43.1877 7.89844C43.5314 7.88281 43.8713 7.87109 44.2072 7.86328C44.5431 7.84766 44.8869 7.82812 45.2384 7.80469L45.2853 10.8047C44.9103 10.7422 44.5392 10.6914 44.172 10.6523C43.8048 10.6133 43.4455 10.582 43.0939 10.5586C43.0705 11.2227 43.0548 11.8789 43.047 12.5273C43.047 13.1758 43.047 13.832 43.047 14.4961C43.047 15.6836 43.0588 16.8633 43.0822 18.0352C43.1134 19.207 43.1603 20.3867 43.2228 21.5742L40.1642 21.5273C40.2658 19.6914 40.3478 17.8594 40.4103 16.0312C40.4806 14.1953 40.5275 12.3477 40.5509 10.4883C40.2228 10.5039 39.8947 10.5234 39.5666 10.5469C39.2384 10.5625 38.9025 10.582 38.5588 10.6055L38.6525 7.82812C38.9728 7.85156 39.2892 7.87109 39.6017 7.88672C39.922 7.89453 40.2384 7.90625 40.5509 7.92188C40.5509 7.14062 40.5431 6.36328 40.5275 5.58984C40.5119 4.80859 40.4963 4.02344 40.4806 3.23438L43.4572 3.1875Z" stroke="black" stroke-width="4.6425" mask="url(#path-1-outside-1_1598_9503)"/>
<path d="M51.3781 3.1875C51.3156 3.99219 51.2648 4.78516 51.2258 5.56641C51.1867 6.33984 51.1477 7.11719 51.1086 7.89844C51.4523 7.88281 51.7922 7.87109 52.1281 7.86328C52.4641 7.84766 52.8078 7.82812 53.1594 7.80469L53.2062 10.8047C52.8312 10.7422 52.4602 10.6914 52.093 10.6523C51.7258 10.6133 51.3664 10.582 51.0148 10.5586C50.9914 11.2227 50.9758 11.8789 50.968 12.5273C50.968 13.1758 50.968 13.832 50.968 14.4961C50.968 15.6836 50.9797 16.8633 51.0031 18.0352C51.0344 19.207 51.0812 20.3867 51.1437 21.5742L48.0852 21.5273C48.1867 19.6914 48.2687 17.8594 48.3312 16.0312C48.4016 14.1953 48.4484 12.3477 48.4719 10.4883C48.1437 10.5039 47.8156 10.5234 47.4875 10.5469C47.1594 10.5625 46.8234 10.582 46.4797 10.6055L46.5734 7.82812C46.8937 7.85156 47.2102 7.87109 47.5227 7.88672C47.843 7.89453 48.1594 7.90625 48.4719 7.92188C48.4719 7.14062 48.4641 6.36328 48.4484 5.58984C48.4328 4.80859 48.4172 4.02344 48.4016 3.23438L51.3781 3.1875Z" stroke="black" stroke-width="4.6425" mask="url(#path-1-outside-1_1598_9503)"/>
<path d="M63.4475 18.4805C63.4475 18.9414 63.342 19.375 63.1311 19.7812C62.9202 20.1875 62.635 20.5391 62.2756 20.8359C61.9162 21.1328 61.4944 21.3672 61.01 21.5391C60.5256 21.7109 60.01 21.7969 59.4631 21.7969C59.0959 21.7969 58.7248 21.7461 58.3498 21.6445C57.9748 21.543 57.6155 21.375 57.2717 21.1406C56.928 20.9062 56.6037 20.5977 56.2991 20.2148C55.9944 19.832 55.7287 19.3633 55.5022 18.8086C55.2834 18.2539 55.1077 17.6055 54.9748 16.8633C54.8498 16.1133 54.7873 15.2539 54.7873 14.2852C54.7873 13.3711 54.8498 12.5625 54.9748 11.8594C55.1077 11.1562 55.2834 10.543 55.5022 10.0195C55.7287 9.49609 55.9905 9.05859 56.2873 8.70703C56.5842 8.34766 56.9006 8.05859 57.2366 7.83984C57.5803 7.61328 57.9319 7.45312 58.2912 7.35938C58.6584 7.26562 59.0178 7.21875 59.3694 7.21875C59.8928 7.21875 60.3889 7.30469 60.8577 7.47656C61.3264 7.64062 61.7366 7.88672 62.0881 8.21484C62.4397 8.54297 62.717 8.94922 62.9202 9.43359C63.1311 9.91016 63.2366 10.4609 63.2366 11.0859C63.2366 11.6484 63.1194 12.2188 62.885 12.7969C62.6584 13.3672 62.3186 13.9102 61.8655 14.4258C61.4123 14.9336 60.8498 15.3984 60.178 15.8203C59.5139 16.2344 58.7483 16.5625 57.8811 16.8047C57.928 17.2891 57.9944 17.7305 58.0803 18.1289C58.1741 18.5273 58.2873 18.8672 58.4202 19.1484C58.5608 19.4297 58.7209 19.6484 58.9006 19.8047C59.0881 19.9609 59.303 20.0391 59.5452 20.0391C59.7014 20.0312 59.8498 20.0039 59.9905 19.957C60.1155 19.918 60.2405 19.8555 60.3655 19.7695C60.4983 19.6836 60.6077 19.5586 60.6936 19.3945C60.4905 19.3008 60.3342 19.1797 60.2248 19.0312C60.1155 18.8828 60.0334 18.7422 59.9787 18.6094C59.9162 18.4531 59.8811 18.2891 59.8733 18.1172C59.8733 17.7422 59.9475 17.4375 60.0959 17.2031C60.2444 16.9688 60.4202 16.7852 60.6233 16.6523C60.8264 16.5195 61.0334 16.4297 61.2444 16.3828C61.4553 16.3281 61.6233 16.3008 61.7483 16.3008C61.8811 16.3008 62.0412 16.3281 62.2287 16.3828C62.4241 16.4375 62.6116 16.543 62.7912 16.6992C62.9709 16.8555 63.1233 17.0781 63.2483 17.3672C63.3811 17.6484 63.4475 18.0195 63.4475 18.4805ZM60.553 11.1094C60.553 10.8281 60.5256 10.5625 60.4709 10.3125C60.4241 10.0547 60.3498 9.83203 60.2483 9.64453C60.1545 9.45703 60.0334 9.30859 59.885 9.19922C59.7444 9.08203 59.5803 9.02344 59.3928 9.02344C59.0725 9.02344 58.8108 9.17188 58.6077 9.46875C58.4045 9.75781 58.2405 10.1445 58.1155 10.6289C57.9905 11.1133 57.9045 11.6719 57.8577 12.3047C57.8108 12.9375 57.7873 13.5977 57.7873 14.2852V15.1406C58.1858 14.9297 58.553 14.6797 58.8889 14.3906C59.2327 14.1016 59.5256 13.7852 59.7678 13.4414C60.0178 13.0898 60.2092 12.7188 60.342 12.3281C60.4827 11.9375 60.553 11.5312 60.553 11.1094Z" stroke="black" stroke-width="4.6425" mask="url(#path-1-outside-1_1598_9503)"/>
<path d="M68.7669 8.01562L68.6966 8.97656C68.9544 8.54688 69.2278 8.21875 69.5169 7.99219C69.8138 7.76562 70.0872 7.60547 70.3372 7.51172C70.5872 7.41797 70.7942 7.36719 70.9583 7.35938C71.1302 7.35156 71.2239 7.34766 71.2395 7.34766C71.8177 7.34766 72.3216 7.48047 72.7513 7.74609C73.1809 8.01172 73.5364 8.39844 73.8177 8.90625C74.0989 9.40625 74.3059 10.0195 74.4388 10.7461C74.5794 11.4648 74.6497 12.2812 74.6497 13.1953C74.6497 13.8672 74.638 14.5547 74.6145 15.2578C74.5989 15.9531 74.5598 16.6484 74.4973 17.3438C74.4427 18.0312 74.3645 18.7031 74.263 19.3594C74.1692 20.0156 74.0403 20.6406 73.8763 21.2344L71.1458 20.9062C71.3255 19.9766 71.4661 19.1094 71.5677 18.3047C71.6692 17.5 71.7434 16.7969 71.7903 16.1953C71.845 15.4922 71.8763 14.8477 71.8841 14.2617C71.8841 13.5195 71.8606 12.875 71.8138 12.3281C71.7669 11.7734 71.6809 11.3164 71.5559 10.957C71.4388 10.5898 71.2747 10.3164 71.0638 10.1367C70.8528 9.95703 70.5833 9.86719 70.2552 9.86719C70.0364 9.91406 69.8177 10.0703 69.5989 10.3359C69.4114 10.5625 69.2122 10.9258 69.0013 11.4258C68.7903 11.918 68.6067 12.6133 68.4505 13.5117C68.427 14.1211 68.4114 14.7266 68.4036 15.3281C68.4036 15.9219 68.4036 16.5547 68.4036 17.2266C68.4036 17.7969 68.4036 18.4102 68.4036 19.0664C68.4036 19.7227 68.4114 20.4648 68.427 21.293L65.7669 21.2344C65.7903 20.4375 65.8059 19.5938 65.8138 18.7031C65.8294 17.8047 65.8372 16.8086 65.8372 15.7148C65.8372 14.6289 65.8294 13.4531 65.8138 12.1875C65.7981 10.9219 65.7669 9.51562 65.72 7.96875L68.7669 8.01562Z" stroke="black" stroke-width="4.6425" mask="url(#path-1-outside-1_1598_9503)"/>
<path d="M81.2816 3.1875C81.2191 3.99219 81.1683 4.78516 81.1292 5.56641C81.0902 6.33984 81.0511 7.11719 81.012 7.89844C81.3558 7.88281 81.6956 7.87109 82.0316 7.86328C82.3675 7.84766 82.7113 7.82812 83.0628 7.80469L83.1097 10.8047C82.7347 10.7422 82.3636 10.6914 81.9964 10.6523C81.6292 10.6133 81.2698 10.582 80.9183 10.5586C80.8948 11.2227 80.8792 11.8789 80.8714 12.5273C80.8714 13.1758 80.8714 13.832 80.8714 14.4961C80.8714 15.6836 80.8831 16.8633 80.9066 18.0352C80.9378 19.207 80.9847 20.3867 81.0472 21.5742L77.9886 21.5273C78.0902 19.6914 78.1722 17.8594 78.2347 16.0312C78.305 14.1953 78.3519 12.3477 78.3753 10.4883C78.0472 10.5039 77.7191 10.5234 77.3909 10.5469C77.0628 10.5625 76.7269 10.582 76.3831 10.6055L76.4769 7.82812C76.7972 7.85156 77.1136 7.87109 77.4261 7.88672C77.7464 7.89453 78.0628 7.90625 78.3753 7.92188C78.3753 7.14062 78.3675 6.36328 78.3519 5.58984C78.3363 4.80859 78.3206 4.02344 78.305 3.23438L81.2816 3.1875Z" stroke="black" stroke-width="4.6425" mask="url(#path-1-outside-1_1598_9503)"/>
<path d="M90.5736 21.4805C90.5267 21.2383 90.4837 20.9922 90.4447 20.7422C90.4056 20.4922 90.3744 20.2344 90.3509 19.9688C89.9916 20.5 89.5619 20.9062 89.0619 21.1875C88.5619 21.4766 88.015 21.6211 87.4212 21.6211C87.1166 21.6211 86.8041 21.5703 86.4837 21.4688C86.1634 21.375 85.8705 21.207 85.6048 20.9648C85.347 20.7227 85.1322 20.3945 84.9603 19.9805C84.7962 19.5586 84.7142 19.0273 84.7142 18.3867C84.7142 17.8555 84.7923 17.3945 84.9486 17.0039C85.1048 16.6055 85.308 16.2578 85.558 15.9609C85.808 15.6641 86.0892 15.4062 86.4017 15.1875C86.7142 14.9688 87.0228 14.7734 87.3275 14.6016C87.64 14.4297 87.9369 14.2695 88.2181 14.1211C88.4994 13.9727 88.7298 13.8242 88.9095 13.6758C89.2533 13.4023 89.5502 13.1133 89.8002 12.8086C90.058 12.4961 90.265 12.1719 90.4212 11.8359C90.39 11.2969 90.3314 10.8555 90.2455 10.5117C90.1673 10.1602 90.0619 9.88281 89.9291 9.67969C89.7962 9.46875 89.6322 9.32422 89.4369 9.24609C89.2494 9.16016 89.0345 9.11719 88.7923 9.11719C88.433 9.11719 88.1283 9.19531 87.8783 9.35156C87.6361 9.50781 87.4369 9.69531 87.2806 9.91406C87.4759 10.0391 87.6244 10.1719 87.7259 10.3125C87.8353 10.4531 87.9173 10.5898 87.972 10.7227C88.0345 10.8711 88.0697 11.0234 88.0775 11.1797C88.0775 11.7109 87.9252 12.1172 87.6205 12.3984C87.3236 12.6797 86.9408 12.8203 86.472 12.8203C86.2298 12.8203 86.0072 12.7656 85.8041 12.6562C85.6009 12.5391 85.4212 12.3789 85.265 12.1758C85.1166 11.9727 84.9994 11.7305 84.9134 11.4492C84.8275 11.168 84.7845 10.8633 84.7845 10.5352C84.7845 10.207 84.8587 9.85938 85.0072 9.49219C85.1556 9.125 85.3939 8.78516 85.722 8.47266C86.0502 8.15234 86.472 7.89062 86.9877 7.6875C87.5033 7.47656 88.1283 7.37109 88.8627 7.37109C89.597 7.37109 90.2259 7.51562 90.7494 7.80469C91.2728 8.08594 91.7025 8.46484 92.0384 8.94141C92.3744 9.41016 92.6166 9.95312 92.765 10.5703C92.9212 11.1875 92.9994 11.8242 92.9994 12.4805C92.9994 12.9727 92.9955 13.5078 92.9877 14.0859C92.9798 14.6641 92.9759 15.2578 92.9759 15.8672C92.9759 16.375 92.9798 16.8828 92.9877 17.3906C92.9955 17.8984 93.0111 18.3906 93.0345 18.8672C93.058 19.3359 93.0892 19.7812 93.1283 20.2031C93.1673 20.6172 93.2181 20.9883 93.2806 21.3164L90.5736 21.4805ZM90.3978 14.6133C90.1244 14.9414 89.8314 15.2227 89.5189 15.457C89.2845 15.6211 89.0306 15.8047 88.7572 16.0078C88.4916 16.2109 88.2416 16.4258 88.0072 16.6523C87.7806 16.8789 87.5892 17.1172 87.433 17.3672C87.2845 17.6094 87.2103 17.8594 87.2103 18.1172C87.2103 18.4688 87.2962 18.7695 87.4681 19.0195C87.64 19.2695 87.8822 19.3945 88.1947 19.3945C88.4837 19.3945 88.7416 19.3164 88.9681 19.1602C89.1947 19.0039 89.3939 18.8125 89.5658 18.5859C89.7455 18.3516 89.8939 18.1016 90.0111 17.8359C90.1361 17.5703 90.2337 17.3281 90.3041 17.1094L90.3978 14.6133Z" stroke="black" stroke-width="4.6425" mask="url(#path-1-outside-1_1598_9503)"/>
<path d="M99.8422 3.1875C99.7797 3.99219 99.7289 4.78516 99.6898 5.56641C99.6508 6.33984 99.6117 7.11719 99.5727 7.89844C99.9164 7.88281 100.256 7.87109 100.592 7.86328C100.928 7.84766 101.272 7.82812 101.623 7.80469L101.67 10.8047C101.295 10.7422 100.924 10.6914 100.557 10.6523C100.19 10.6133 99.8305 10.582 99.4789 10.5586C99.4555 11.2227 99.4398 11.8789 99.432 12.5273C99.432 13.1758 99.432 13.832 99.432 14.4961C99.432 15.6836 99.4437 16.8633 99.4672 18.0352C99.4984 19.207 99.5453 20.3867 99.6078 21.5742L96.5492 21.5273C96.6508 19.6914 96.7328 17.8594 96.7953 16.0312C96.8656 14.1953 96.9125 12.3477 96.9359 10.4883C96.6078 10.5039 96.2797 10.5234 95.9516 10.5469C95.6234 10.5625 95.2875 10.582 94.9437 10.6055L95.0375 7.82812C95.3578 7.85156 95.6742 7.87109 95.9867 7.88672C96.307 7.89453 96.6234 7.90625 96.9359 7.92188C96.9359 7.14062 96.9281 6.36328 96.9125 5.58984C96.8969 4.80859 96.8812 4.02344 96.8656 3.23438L99.8422 3.1875Z" stroke="black" stroke-width="4.6425" mask="url(#path-1-outside-1_1598_9503)"/>
</svg>
