<svg width="61" height="91" viewBox="0 0 61 91" fill="none" xmlns="http://www.w3.org/2000/svg">
<rect x="0.392578" y="0.0498047" width="60.057" height="90.0855" rx="4.61977" fill="white"/>
<mask id="mask0_1592_9465" style="mask-type:alpha" maskUnits="userSpaceOnUse" x="1" y="1" width="58" height="87">
<path d="M11.2824 2.3597H53.5203C55.7528 2.3597 57.5626 4.1695 57.5626 6.402L57.5625 67.6855C57.5625 68.6028 56.8189 69.3464 55.9017 69.3464C54.5771 69.3464 53.4316 70.2696 53.1502 71.564L50.8911 81.9556C50.692 82.8714 51.0989 83.8123 51.9025 84.2944C52.7896 84.8267 52.4278 86.1879 51.3935 86.2094L6.41584 87.1464C4.09651 87.1948 2.21244 85.2854 2.2917 82.9669L4.31849 23.6847C4.37276 22.0974 5.67518 20.8388 7.26334 20.8388C9.52854 20.8388 11.3649 19.0025 11.3649 16.7373L11.3649 8.21691C11.3649 7.25616 10.9125 6.35148 10.1439 5.77503C8.68518 4.68097 9.45894 2.3597 11.2824 2.3597Z" fill="#C4C4C4" stroke="black" stroke-width="1.15494"/>
</mask>
<g mask="url(#mask0_1592_9465)">
<rect x="6.1678" y="5.24715" width="49.6625" height="79.691" rx="4.0423" stroke="black" stroke-width="1.15494"/>
</g>
<path d="M6.16748 45.0925H55.83" stroke="black" stroke-width="1.15494"/>
<path d="M16.6963 18.5288H11.8157C13.7571 17.3912 14.1011 16.4695 14.256 14.6503L11.0023 16.2017C9.22266 15.012 9.12927 14.3338 11.0023 13.0989L14.256 14.6503L12.629 10.7719C13.6595 8.75786 14.6625 8.83273 15.8828 10.7719L14.256 14.6503L17.9165 13.0989C19.3434 14.3108 19.0275 14.9899 17.9165 16.2017L14.256 14.6503C14.5519 16.4698 14.9741 17.3705 16.6963 18.5288Z" fill="black"/>
<path d="M14.256 14.6503C14.1011 16.4695 13.7571 17.3912 11.8157 18.5288H16.6963C14.9741 17.3705 14.5519 16.4698 14.256 14.6503ZM14.256 14.6503L11.0023 16.2017C9.22266 15.012 9.12927 14.3338 11.0023 13.0989L14.256 14.6503ZM14.256 14.6503L15.8828 10.7719C14.6625 8.83273 13.6595 8.75786 12.629 10.7719L14.256 14.6503ZM14.256 14.6503L17.9165 13.0989C19.3434 14.3108 19.0275 14.9899 17.9165 16.2017L14.256 14.6503Z" stroke="black" stroke-width="1.15494"/>
<path d="M44.146 71.6562L49.0266 71.6562C47.0852 72.7938 46.7412 73.7156 46.5863 75.5347L49.84 73.9833C51.6196 75.173 51.713 75.8512 49.84 77.0861L46.5863 75.5347L48.2133 79.4131C47.1828 81.4272 46.1798 81.3523 44.9595 79.4131L46.5863 75.5347L42.9258 77.0861C41.4989 75.8743 41.8148 75.1951 42.9258 73.9833L46.5863 75.5347C46.2903 73.7153 45.8682 72.8145 44.146 71.6562Z" fill="black"/>
<path d="M46.5863 75.5347C46.7412 73.7156 47.0852 72.7938 49.0266 71.6562L44.146 71.6562C45.8682 72.8145 46.2903 73.7153 46.5863 75.5347ZM46.5863 75.5347L49.84 73.9833C51.6196 75.173 51.713 75.8512 49.84 77.0861L46.5863 75.5347ZM46.5863 75.5347L44.9595 79.4131C46.1798 81.3523 47.1828 81.4272 48.2133 79.4131L46.5863 75.5347ZM46.5863 75.5347L42.9258 77.0861C41.4989 75.8743 41.8148 75.1951 42.9258 73.9833L46.5863 75.5347Z" stroke="black" stroke-width="1.15494"/>
<path d="M4.77622 17.9263C4.66381 17.9263 4.55384 17.9238 4.44632 17.9189C4.34368 17.9141 4.2386 17.9116 4.13108 17.9116C3.92581 17.9116 3.73275 17.9141 3.55192 17.9189C3.37108 17.9238 3.21468 17.9312 3.08272 17.9409C2.92143 17.9507 2.77725 17.9605 2.65018 17.9703C2.71861 17.2371 2.77237 16.5236 2.81147 15.8296C2.85057 15.1355 2.87989 14.5148 2.89944 13.9674C2.91899 13.3321 2.93121 12.7285 2.9361 12.1566C2.9361 11.5995 2.92633 11.0301 2.90678 10.4485C2.897 10.1992 2.88478 9.93773 2.87012 9.66403C2.86035 9.38545 2.84569 9.10442 2.82614 8.82094C2.81147 8.53258 2.78948 8.24423 2.76016 7.95587C2.73572 7.66751 2.70884 7.38648 2.67951 7.11278C2.88479 7.12744 3.0754 7.13722 3.25135 7.1421C3.42729 7.1421 3.59102 7.1421 3.74253 7.1421C3.89893 7.1421 4.04067 7.1421 4.16774 7.1421C4.29482 7.13722 4.40234 7.13233 4.49031 7.12744C4.59295 7.12255 4.68337 7.11767 4.76157 7.11278C4.71758 7.72371 4.68337 8.32242 4.65893 8.90892C4.63449 9.49541 4.61739 10.0233 4.60761 10.4925C4.59295 11.0398 4.58562 11.5604 4.58562 12.054L4.58562 12.5012C4.88864 12.1298 5.16478 11.729 5.41404 11.2989C5.66819 10.8688 5.88568 10.424 6.06652 9.96461C6.24735 9.5003 6.38664 9.03111 6.48439 8.55702C6.58703 8.08294 6.63835 7.61619 6.63835 7.15677L6.63835 6.92217L9.13095 7.1421C8.70085 7.89966 8.32696 8.56924 8.00928 9.15085C7.69159 9.72757 7.4179 10.2261 7.18819 10.6464C6.96336 11.0667 6.78008 11.4162 6.63835 11.6948C6.49661 11.9734 6.38664 12.1933 6.30844 12.3546C6.65545 12.4474 6.93404 12.577 7.1442 12.7431C7.35925 12.9044 7.52786 13.0926 7.65005 13.3076C7.77223 13.5227 7.85776 13.7597 7.90664 14.0188C7.9604 14.2729 8.00194 14.5368 8.03127 14.8105C8.06059 15.0842 8.08747 15.3604 8.11191 15.6389C8.14124 15.9175 8.19255 16.1888 8.26586 16.4527C8.30496 16.6042 8.36117 16.7606 8.43448 16.9219C8.49802 17.0636 8.5811 17.2225 8.68374 17.3984C8.78638 17.5695 8.9159 17.7454 9.07229 17.9263L7.0049 17.9703C6.89249 17.8578 6.79963 17.7088 6.72632 17.5231C6.65789 17.3373 6.60413 17.1541 6.56503 16.9732C6.51616 16.7631 6.48194 16.5407 6.46239 16.3061C6.43796 16.0373 6.42085 15.7758 6.41108 15.5216C6.40619 15.2626 6.39153 15.0182 6.36709 14.7885C6.34754 14.5588 6.31333 14.3487 6.26445 14.158C6.21558 13.9625 6.13738 13.7964 6.02986 13.6595C5.92233 13.5178 5.77815 13.4078 5.59732 13.3296C5.42137 13.2514 5.1941 13.2123 4.91552 13.2123C4.86176 13.2123 4.80799 13.2148 4.75423 13.2197C4.70047 13.2245 4.64426 13.2319 4.58562 13.2416C4.60028 13.7695 4.61983 14.4366 4.64426 15.2431C4.67359 16.0446 4.71757 16.939 4.77622 17.9263Z" fill="black"/>
<path d="M56.0661 71.104C56.1785 71.104 56.2884 71.1064 56.396 71.1113C56.4986 71.1162 56.6037 71.1187 56.7112 71.1187C56.9165 71.1187 57.1095 71.1162 57.2904 71.1113C57.4712 71.1064 57.6276 71.0991 57.7596 71.0893C57.9209 71.0796 58.065 71.0698 58.1921 71.06C58.1237 71.7931 58.0699 72.5067 58.0308 73.2007C57.9917 73.8947 57.9624 74.5154 57.9428 75.0628C57.9233 75.6982 57.9111 76.3018 57.9062 76.8736C57.9062 77.4308 57.916 78.0002 57.9355 78.5818C57.9453 78.8311 57.9575 79.0925 57.9722 79.3662C57.9819 79.6448 57.9966 79.9259 58.0161 80.2093C58.0308 80.4977 58.0528 80.786 58.0821 81.0744C58.1066 81.3628 58.1334 81.6438 58.1628 81.9175C57.9575 81.9028 57.7669 81.8931 57.5909 81.8882C57.415 81.8882 57.2513 81.8882 57.0998 81.8882C56.9434 81.8882 56.8016 81.8882 56.6745 81.8882C56.5475 81.8931 56.4399 81.8979 56.352 81.9028C56.2493 81.9077 56.1589 81.9126 56.0807 81.9175C56.1247 81.3066 56.1589 80.7078 56.1834 80.1214C56.2078 79.5349 56.2249 79.007 56.2347 78.5378C56.2493 77.9904 56.2567 77.4699 56.2567 76.9763L56.2567 76.5291C55.9536 76.9005 55.6775 77.3013 55.4282 77.7314C55.1741 78.1615 54.9566 78.6062 54.7758 79.0657C54.5949 79.53 54.4556 79.9992 54.3579 80.4733C54.2553 80.9473 54.2039 81.4141 54.2039 81.8735L54.2039 82.1081L51.7113 81.8882C52.1414 81.1306 52.5153 80.461 52.833 79.8794C53.1507 79.3027 53.4244 78.8042 53.6541 78.3839C53.8789 77.9635 54.0622 77.6141 54.2039 77.3355C54.3457 77.0569 54.4556 76.837 54.5338 76.6757C54.1868 76.5828 53.9082 76.4533 53.6981 76.2871C53.483 76.1259 53.3144 75.9377 53.1922 75.7226C53.0701 75.5076 52.9845 75.2706 52.9356 75.0115C52.8819 74.7574 52.8403 74.4935 52.811 74.2198C52.7817 73.9461 52.7548 73.6699 52.7304 73.3913C52.7011 73.1127 52.6497 72.8415 52.5764 72.5776C52.5373 72.4261 52.4811 72.2697 52.4078 72.1084C52.3443 71.9666 52.2612 71.8078 52.1585 71.6318C52.0559 71.4608 51.9264 71.2848 51.77 71.104L53.8374 71.06C53.9498 71.1724 54.0427 71.3215 54.116 71.5072C54.1844 71.6929 54.2382 71.8762 54.2773 72.0571C54.3261 72.2672 54.3603 72.4896 54.3799 72.7242C54.4043 72.993 54.4214 73.2545 54.4312 73.5086C54.4361 73.7677 54.4508 74.012 54.4752 74.2417C54.4947 74.4715 54.529 74.6816 54.5778 74.8722C54.6267 75.0677 54.7049 75.2339 54.8124 75.3708C54.92 75.5125 55.0641 75.6225 55.245 75.7007C55.4209 75.7789 55.6482 75.818 55.9268 75.818C55.9805 75.818 56.0343 75.8155 56.0881 75.8106C56.1418 75.8057 56.198 75.7984 56.2567 75.7886C56.242 75.2608 56.2225 74.5936 56.198 73.7872C56.1687 72.9857 56.1247 72.0913 56.0661 71.104Z" fill="black"/>
<path d="M43.7442 66.7156C43.8626 66.6761 43.9945 66.6339 44.1371 66.5878C45.1407 65.78 43.5307 61.4011 42.5893 60.9409C40.942 60.1356 39.3458 52.2013 39.1245 49.3914C33.392 48.3807 30.4145 47.7328 26.9976 45.9266L43.7442 45.3491C45.2841 48.044 48.0309 54.6558 48.9414 59.2084C50.0175 64.5885 46.0811 65.9587 44.1371 66.5878C44.0346 66.6703 43.9048 66.7156 43.7442 66.7156Z" fill="#B02929"/>
<path d="M9.67305 48.814C9.67305 49.9689 9.67305 51.7013 15.4478 54.0112L17.1802 45.9266C14.6778 46.6966 9.67306 45.8695 9.67305 48.814Z" fill="#B02929" stroke="black" stroke-width="1.15494"/>
<path d="M22.9549 45.3491C23.9879 45.3491 32.1945 48.2365 37.9692 49.3914C39.1241 52.2788 40.279 58.0535 43.7438 62.6733C44.2057 63.5972 44.3213 64.9832 43.7438 66.7156L37.9691 66.1381C36.2367 61.5183 32.7718 51.7013 28.1521 49.3914C25.2647 49.9689 21.9005 50.5595 20.645 59.7859C19.9217 65.1014 19.3507 64.4354 18.3622 63.2823L18.3351 63.2507C17.6626 62.4666 15.8328 57.476 15.4478 54.5887L17.1802 45.3491C18.9126 44.7716 21.2225 45.3491 22.9549 45.3491Z" fill="#3076FF"/>
<path d="M30.6663 51.2476C32.6229 52.2375 35.9654 61.1471 37.3921 65.4781L16.6031 66.7156C16.6031 66.0969 19.4565 64.4469 20.2718 63.622C20.6794 61.1471 21.7392 55.5786 22.7175 53.1038C23.6958 50.6289 26.7938 49.5977 28.2205 49.3914C28.2205 49.5977 28.7097 50.2576 30.6663 51.2476Z" fill="#6A5A50" stroke="black" stroke-width="1.15494"/>
<path d="M10.749 70.9228L10.7905 70.8255C13.2282 65.106 13.367 64.7803 13.2993 56.653L15.4019 55.188C15.4834 54.7317 14.8895 54.5161 14.1266 54.4236C13.2503 54.4143 12.3372 54.4649 11.2398 54.4442C11.2398 54.4442 12.9013 54.2751 14.1266 54.4236C14.8895 54.5161 15.4834 54.7317 15.4019 55.188L16.8668 57.2906C14.5784 64.1101 14.3886 64.4246 14.3164 71.5604L11.045 79.5657L10.749 70.9228Z" fill="#6E86C4"/>
<path d="M15.4019 55.188L13.2993 56.653C13.3674 64.8261 13.2266 65.1094 10.749 70.9228L11.045 79.5657L14.3164 71.5604C14.3886 64.4246 14.5784 64.1101 16.8668 57.2906L15.4019 55.188ZM15.4019 55.188C15.6144 53.9989 11.2398 54.4442 11.2398 54.4442C14.3722 54.5033 16.0026 53.9811 19.5639 55.9319M15.5081 54.5935L15.7207 53.4043L16.9958 46.2694" stroke="#B7B7B7" stroke-width="1.15494"/>
<path d="M10.8285 79.42L10.2511 70.7579C12.8436 64.9229 12.9455 61.8088 12.5609 56.3211L14.2934 55.1662L11.4061 55.1662L11.4061 54.0112" stroke="#767676" stroke-width="0.577471" stroke-linejoin="round"/>
<path d="M40.0984 80.6371C40.7654 80.7143 41.1084 80.8059 40.6418 80.8059C40.4894 80.8059 40.3049 80.7448 40.0984 80.6371C39.0355 80.514 37.1496 80.4274 36.406 80.8059C35.1958 81.4218 34.5906 84.5017 34.5906 85.1177C34.5906 85.7336 30.96 83.2697 29.7498 83.8857C28.9429 84.091 27.2083 85.3641 26.7242 86.3496C26.1411 85.5581 22.1861 82.8598 20.275 84.3188C20.2037 84.3825 20.1345 84.4436 20.068 84.5017C20.1339 84.4346 20.203 84.3737 20.275 84.3188C20.9681 83.6989 21.8603 82.8283 22.4968 82.0395C23.1832 81.189 23.5722 80.4335 23.0935 80.1899C30.546 81.012 32.7899 79.7349 36.406 77.1101C36.686 77.4521 37.0624 77.8891 37.4809 78.342C38.3322 79.2635 39.3575 80.2506 40.0984 80.6371Z" fill="#FFDC22"/>
<path d="M37.4809 78.342C37.0624 77.8891 36.686 77.4521 36.406 77.1101C32.7899 79.7349 30.546 81.012 23.0935 80.1899C24.0617 80.6827 21.4799 83.2698 20.068 84.5017C21.8833 82.6538 26.1191 85.5283 26.7242 86.3496C27.2083 85.3641 28.9429 84.091 29.7498 83.8857C30.96 83.2697 34.5906 85.7336 34.5906 85.1177C34.5906 84.5017 35.1958 81.4218 36.406 80.8059C37.6162 80.1899 41.852 80.8059 40.6418 80.8059C39.9424 80.8059 38.5695 79.5203 37.4809 78.342ZM37.4809 78.342C35.5089 80.1899 29.7498 83.5162 22.4884 82.0378" stroke="black" stroke-width="1.15494"/>
<path d="M42.1772 67.8706C42.7665 67.6553 43.7094 66.9662 42.7665 65.9326C41.8236 64.8989 40.4093 65.0712 39.82 65.2865C39.2307 65.2865 38.0521 65.545 38.0521 66.5786C38.0521 67.8706 37.4628 63.3485 36.2842 64.6405C35.3413 65.6742 34.3198 66.7939 33.927 67.2246" stroke="black" stroke-width="1.15494"/>
<path d="M33.9272 66.7156C33.7264 65.7216 33.0836 63.7335 32.1195 63.7335C30.9144 63.7335 31.5169 63.7335 30.9144 64.2305C30.3118 64.7275 30.3118 62.2425 27.9015 63.7335C25.4911 65.2245 28.186 62.6222 25.4911 63.7335C24.286 64.2305 24.286 63.2365 23.0808 64.2305C21.8757 64.7275 21.8757 65.2245 21.2731 64.2305L20.0679 63.7335" stroke="black" stroke-width="1.15494"/>
<path d="M28.1525 70.3254L26.4201 70.3254M33.9273 66.7155C32.1948 68.5205 30.3469 70.4458 29.8849 70.9271C28.1525 72.7321 25.8426 72.732 25.2652 72.1304C24.6877 71.5287 21.8004 69.1221 21.2229 69.1221" stroke="black" stroke-width="1.15494"/>
<path d="M19.4902 68.448L23.5324 79.9974L27.5747 81.1523L32.772 79.9974L36.2368 77.6875L35.0819 66.7156L19.4902 68.448Z" fill="#FFDBB0"/>
<path d="M40.857 70.7579C40.6769 70.0088 42.3219 68.9059 43.1668 68.4481C42.9744 67.8706 42.4739 66.6001 42.0119 66.1382C41.4344 65.5607 40.2795 65.5607 39.2461 66.1382C38.2128 66.7156 39.702 66.7156 38.6342 67.475C37.5663 68.2343 37.3921 66.1382 36.8147 65.5607C36.2372 64.9832 35.6597 66.1382 35.6597 66.7156C35.6597 67.2931 34.5048 68.4481 34.5048 69.0255C34.5048 69.603 35.0822 69.886 35.6597 69.603C36.2372 69.32 35.6597 73.0678 35.6597 74.2228C35.6597 75.1467 36.0447 76.1477 36.2372 76.5327C36.2202 76.1477 36.1964 75.2622 36.2372 74.8002C36.2881 74.2228 37.9696 74.2228 38.5471 74.2228C39.1245 74.2228 38.6342 72.4904 38.6342 71.9129C38.6342 71.3354 41.082 71.6944 40.857 70.7579Z" fill="#0F0000"/>
<path d="M41.0821 58.4332L41.6171 58.2159L41.6171 58.2159L41.0821 58.4332ZM42.918 67.475L42.5516 67.0286L42.0554 67.4359L42.5127 67.8864L42.918 67.475ZM41.694 69.886L41.1791 69.6246L41.1791 69.6246L41.694 69.886ZM41.082 71.6944L41.3372 72.2124L41.3372 72.2124L41.082 71.6944ZM38.6342 74.7083L38.379 74.1902L38.379 74.1902L38.6342 74.7083ZM36.7982 75.9138L36.2833 76.1752L36.2833 76.1752L36.7982 75.9138ZM36.1863 77.7222L35.9311 77.2041L35.8802 77.2292L35.8351 77.2637L36.1863 77.7222ZM23.3348 80.1333L22.7574 80.1333L22.7574 80.5858L23.1968 80.694L23.3348 80.1333ZM23.3348 78.9277L23.9123 78.9277L23.9123 78.8555L23.8946 78.7856L23.3348 78.9277ZM22.7229 76.5166L23.2826 76.3745L23.2771 76.3527L23.2699 76.3315L22.7229 76.5166ZM22.1109 74.7082L22.6579 74.5231L22.6579 74.5231L22.1109 74.7082ZM19.663 71.0916L19.2578 71.503L19.2578 71.503L19.663 71.0916ZM19.663 69.886L19.2578 70.2974L19.2578 70.2974L19.663 69.886ZM17.8271 69.2832L17.3122 69.5446L17.3122 69.5446L17.8271 69.2832ZM43.1668 68.4481L43.4419 68.9558L43.8679 68.725L43.7147 68.2654L43.1668 68.4481ZM40.857 70.7579L40.2955 70.8929L40.2955 70.8929L40.857 70.7579ZM36.2372 74.8002L36.8124 74.851L36.8124 74.851L36.2372 74.8002ZM36.2372 76.5327L35.7207 76.7909L36.8141 76.5072L36.2372 76.5327ZM35.6597 69.603L35.9139 70.1215L35.9139 70.1215L35.6597 69.603ZM36.8147 65.5607L37.223 65.1524L37.223 65.1524L36.8147 65.5607ZM38.6342 67.475L38.9688 67.9456L38.9688 67.9456L38.6342 67.475ZM39.2461 66.1382L39.5278 66.6423L39.5278 66.6423L39.2461 66.1382ZM42.0119 66.1382L41.6036 66.5465L41.6036 66.5465L42.0119 66.1382ZM37.9812 49.5064C38.5947 52.528 39.3021 55.585 40.5471 58.6505L41.6171 58.2159C40.4141 55.2536 39.7234 52.2828 39.113 49.2766L37.9812 49.5064ZM40.5471 58.6505C40.8074 59.2916 41.3123 60.0114 41.8008 60.7104C42.3082 61.4365 42.8273 62.1782 43.2064 62.9339C43.5859 63.6903 43.793 64.4001 43.7345 65.0588C43.6783 65.6922 43.3694 66.3573 42.5516 67.0286L43.2844 67.9213C44.3024 67.0857 44.7971 66.1507 44.885 65.1609C44.9705 64.1962 44.662 63.2596 44.2387 62.416C43.8151 61.5716 43.2444 60.7598 42.7475 60.0488C42.2316 59.3106 41.8176 58.7096 41.6171 58.2159L40.5471 58.6505ZM42.5127 67.8864C42.8112 68.1804 43.2184 68.6114 43.4858 68.9579C43.5516 69.0431 43.6043 69.1174 43.6432 69.1788C43.6624 69.2092 43.6766 69.2338 43.6865 69.2529C43.6968 69.2726 43.7 69.2814 43.6998 69.2807C43.6995 69.28 43.6976 69.2747 43.6954 69.2653C43.6931 69.2561 43.6898 69.24 43.6879 69.2183C43.6844 69.1784 43.6835 69.0919 43.7294 68.9911C43.8499 68.7262 44.1007 68.7058 44.1419 68.7058L44.1419 69.8607C44.3055 69.8607 44.6289 69.8026 44.7806 69.4695C44.8955 69.2169 44.818 68.9772 44.7867 68.8902C44.7091 68.6741 44.5463 68.4417 44.4002 68.2524C44.0862 67.8455 43.6367 67.3723 43.3232 67.0636L42.5127 67.8864ZM44.1419 68.7058C44.0542 68.7058 43.9292 68.6825 43.6891 68.6395C43.4786 68.6018 43.204 68.5551 42.918 68.5551C42.6273 68.5551 42.2954 68.6026 41.9753 68.7745C41.6487 68.95 41.3788 69.2313 41.1791 69.6246L42.2089 70.1474C42.3152 69.938 42.4278 69.8425 42.5219 69.792C42.6226 69.7379 42.7497 69.71 42.918 69.71C43.0909 69.71 43.2753 69.7387 43.4855 69.7763C43.6661 69.8087 43.9237 69.8607 44.1419 69.8607L44.1419 68.7058ZM41.1791 69.6246C40.9891 69.9989 40.9198 70.3253 40.9357 70.6232C40.9506 70.9028 41.0471 71.1322 41.0705 71.2014C41.0986 71.2844 41.0365 71.1474 41.1229 71.0137C41.1512 70.9699 41.1351 71.0245 40.8269 71.1763L41.3372 72.2124C41.6409 72.0628 41.9308 71.8914 42.093 71.6404C42.3132 71.2995 42.2129 70.9741 42.1645 70.8311C42.1114 70.6743 42.0932 70.6399 42.089 70.5616C42.0858 70.5016 42.093 70.3759 42.2089 70.1474L41.1791 69.6246ZM40.8269 71.1763C40.285 71.4432 40.0177 71.3994 39.567 71.5104C39.3488 71.5641 39.0625 71.6755 38.8711 71.9817C38.705 72.2476 38.6687 72.574 38.6687 72.8999L39.8236 72.8999C39.8236 72.623 39.8637 72.5727 39.8506 72.5937C39.8123 72.6551 39.7554 72.6534 39.8432 72.6318C40.0045 72.5921 40.6552 72.5483 41.3372 72.2124L40.8269 71.1763ZM38.6687 72.8999C38.6687 73.2541 38.7142 73.5224 38.7579 73.727C38.7864 73.8603 38.7916 73.8724 38.8097 73.9597C38.8219 74.0189 38.8216 74.0338 38.8216 74.0301C38.8216 74.0172 38.8248 73.9821 38.8435 73.9425C38.8603 73.9069 38.876 73.8971 38.8591 73.9123C38.8102 73.9566 38.685 74.0395 38.379 74.1902L38.8893 75.2263C39.1952 75.0756 39.4526 74.9325 39.6331 74.7696C39.731 74.6811 39.8232 74.5725 39.8878 74.4357C39.9543 74.2948 39.9766 74.1561 39.9766 74.0301C39.9766 73.9135 39.9572 73.8059 39.9408 73.7262C39.9301 73.6746 39.8971 73.5313 39.8873 73.4856C39.8546 73.3323 39.8236 73.1485 39.8236 72.8999L38.6687 72.8999ZM38.379 74.1902C38.1414 74.3072 37.8951 74.3701 37.6482 74.4121C37.5235 74.4332 37.4041 74.4483 37.2814 74.4638C37.1653 74.4786 37.0348 74.495 36.9161 74.5184C36.7362 74.5539 36.2888 74.6513 36.1169 75.0916C36.0362 75.2983 36.0506 75.5034 36.0881 75.6684C36.1256 75.8337 36.1963 76.0038 36.2833 76.1752L37.3132 75.6524C37.2472 75.5225 37.2223 75.4477 37.2144 75.4128C37.2064 75.3777 37.2256 75.4274 37.1927 75.5117C37.1164 75.7071 36.9368 75.6915 37.1393 75.6516C37.2119 75.6373 37.3013 75.6255 37.4267 75.6096C37.5454 75.5946 37.6889 75.5766 37.8416 75.5507C38.1492 75.4985 38.5149 75.4107 38.8893 75.2263L38.379 74.1902ZM36.2833 76.1752C36.4417 76.4873 36.3951 76.6903 36.3191 76.8329C36.2255 77.0087 36.0534 77.1439 35.9311 77.2041L36.4414 78.2402C36.7271 78.0995 37.1058 77.8127 37.3385 77.3758C37.589 76.9055 37.6443 76.3048 37.3132 75.6524L36.2833 76.1752ZM35.8351 77.2637C34.0967 78.5955 29.1327 80.9662 23.4729 79.5726L23.1968 80.694C29.2869 82.1937 34.6039 79.6618 36.5374 78.1806L35.8351 77.2637ZM23.9123 80.1333L23.9123 78.9277L22.7574 78.9277L22.7574 80.1333L23.9123 80.1333ZM23.8946 78.7856L23.2826 76.3745L22.1632 76.6586L22.7751 79.0697L23.8946 78.7856ZM23.2699 76.3315L22.6579 74.5231L21.5639 74.8933L22.1759 76.7017L23.2699 76.3315ZM22.6579 74.5231C21.9983 72.5742 20.6834 71.286 20.0683 70.6801L19.2578 71.503C19.8666 72.1027 20.9995 73.2256 21.5639 74.8933L22.6579 74.5231ZM20.0683 70.6801C19.9685 70.5819 20.0956 70.6576 20.0568 70.8486C20.0495 70.8845 20.038 70.9122 20.0286 70.9305C20.0195 70.9481 20.0121 70.9576 20.0116 70.9583C20.0111 70.9589 20.0143 70.9548 20.0246 70.944C20.0354 70.9326 20.0479 70.9202 20.0682 70.9002C20.1007 70.8683 20.1678 70.8034 20.2267 70.7276C20.2884 70.6481 20.3674 70.5246 20.4011 70.3588C20.4781 69.9795 20.2745 69.6778 20.0683 69.4746L19.2578 70.2974C19.3575 70.3957 19.2304 70.32 19.2692 70.129C19.2765 70.0931 19.2881 70.0654 19.2975 70.0471C19.3065 70.0295 19.3139 70.02 19.3145 70.0193C19.3149 70.0187 19.3117 70.0228 19.3014 70.0336C19.2906 70.045 19.2781 70.0574 19.2578 70.0774C19.2254 70.1093 19.1582 70.1742 19.0993 70.25C19.0376 70.3295 18.9586 70.453 18.925 70.6187C18.8479 70.9981 19.0516 71.2998 19.2578 71.503L20.0683 70.6801ZM20.0683 69.4746C19.7879 69.1984 19.4698 69.1121 19.1686 69.1307C19.0364 69.1388 18.9175 69.1663 18.8284 69.1896C18.7033 69.2223 18.6947 69.2283 18.607 69.2499C18.4877 69.2793 18.4896 69.2601 18.5146 69.2709C18.5365 69.2803 18.4649 69.2638 18.342 69.0218L17.3122 69.5446C17.4953 69.9054 17.7297 70.1903 18.0576 70.3316C18.3886 70.4742 18.6964 70.4173 18.8831 70.3714C18.9484 70.3553 19.0929 70.3142 19.1207 70.3069C19.1846 70.2902 19.2187 70.2847 19.2395 70.2834C19.2442 70.2831 19.2322 70.2722 19.2578 70.2974L20.0683 69.4746ZM18.342 69.0218C18.0765 68.4987 17.9384 67.8307 17.7784 67.1217C17.7023 66.7844 17.6195 66.434 17.5116 66.1256C17.4062 65.8247 17.2558 65.4988 17.0084 65.2551L16.1979 66.078C16.2565 66.1357 16.3356 66.2619 16.4215 66.5072C16.5048 66.7451 16.5749 67.0351 16.6518 67.3759C16.7979 68.0232 16.9658 68.8622 17.3122 69.5446L18.342 69.0218ZM42.8918 67.9403C42.446 68.1818 41.7857 68.5945 41.2502 69.0566C40.9842 69.2861 40.7245 69.5486 40.5407 69.8279C40.3654 70.0943 40.195 70.4749 40.2955 70.8929L41.4184 70.623C41.4289 70.6664 41.3966 70.6282 41.5055 70.4628C41.6059 70.3103 41.7764 70.128 42.0048 69.9309C42.4581 69.5398 43.0427 69.1721 43.4419 68.9558L42.8918 67.9403ZM40.2955 70.8929C40.2961 70.8954 40.2922 70.8807 40.2953 70.8537C40.2985 70.8253 40.308 70.796 40.3224 70.7702C40.3493 70.7224 40.3733 70.7208 40.3298 70.7444C40.2273 70.7998 40.0336 70.8495 39.733 70.9008C39.4805 70.9438 39.1229 70.9913 38.8599 71.0637C38.7265 71.1004 38.5538 71.1589 38.4043 71.2652C38.239 71.3827 38.0567 71.5965 38.0567 71.9129L39.2116 71.9129C39.2116 72.0849 39.1058 72.1836 39.0735 72.2065C39.057 72.2183 39.0738 72.2027 39.1663 72.1773C39.3553 72.1253 39.5956 72.0958 39.927 72.0393C40.2102 71.991 40.5863 71.9188 40.8794 71.7601C41.0338 71.6766 41.2121 71.545 41.3297 71.3352C41.4559 71.1103 41.4757 70.8612 41.4184 70.623L40.2955 70.8929ZM38.0567 71.9129C38.0567 72.1102 38.0961 72.3749 38.1308 72.604C38.169 72.8556 38.2092 73.1076 38.2325 73.3417C38.2571 73.5882 38.2549 73.7475 38.2386 73.8268C38.2307 73.8655 38.2304 73.8267 38.2794 73.7699C38.3481 73.6903 38.4526 73.6453 38.5471 73.6453L38.5471 74.8002C38.7859 74.8002 39.0014 74.701 39.1538 74.5245C39.2865 74.3707 39.3427 74.1921 39.3699 74.0593C39.4241 73.7957 39.4076 73.4859 39.3818 73.227C39.3547 72.9558 39.3084 72.6665 39.2727 72.4308C39.2335 72.1727 39.2116 72.0043 39.2116 71.9129L38.0567 71.9129ZM38.5471 73.6453C38.2633 73.6453 37.6582 73.6444 37.112 73.7234C36.8434 73.7623 36.5444 73.8262 36.294 73.9432C36.0634 74.0509 35.7026 74.2888 35.6619 74.7495L36.8124 74.851C36.7973 75.0229 36.6657 75.0443 36.7828 74.9896C36.88 74.9442 37.047 74.8998 37.2774 74.8665C37.729 74.8011 38.2533 74.8002 38.5471 74.8002L38.5471 73.6453ZM35.6619 74.7495C35.6174 75.2551 35.6435 76.1772 35.6603 76.5581L36.8141 76.5072C36.7969 76.1181 36.7755 75.2694 36.8124 74.851L35.6619 74.7495ZM36.7537 76.2744C36.5813 75.9296 36.2372 75.0211 36.2372 74.2228L35.0822 74.2228C35.0822 75.2724 35.5081 76.3658 35.7207 76.7909L36.7537 76.2744ZM36.2372 74.2228C36.2372 73.9648 36.2704 73.5415 36.3161 73.0248C36.3607 72.5212 36.4158 71.9438 36.4524 71.4134C36.4884 70.8907 36.5099 70.3735 36.4789 69.9958C36.4647 69.8236 36.4348 69.5971 36.3403 69.4112C36.2911 69.3144 36.1879 69.1558 35.9889 69.0676C35.7653 68.9685 35.5508 69.0133 35.4056 69.0845L35.9139 70.1215C35.8408 70.1573 35.6895 70.1982 35.5209 70.1235C35.3768 70.0596 35.3205 69.9537 35.3107 69.9346C35.2952 69.9039 35.3149 69.9328 35.3278 70.0903C35.3509 70.3718 35.3363 70.8106 35.3002 71.3339C35.2646 71.8494 35.2113 72.4079 35.1657 72.9229C35.1212 73.4249 35.0822 73.9033 35.0822 74.2228L36.2372 74.2228ZM35.4056 69.0845C35.251 69.1602 35.153 69.1349 35.1226 69.1198C35.1073 69.1122 35.1007 69.1045 35.0967 69.098C35.093 69.0919 35.0822 69.0716 35.0822 69.0255L33.9273 69.0255C33.9273 69.5279 34.1909 69.9465 34.6088 70.1541C35.0115 70.3541 35.4909 70.3288 35.9139 70.1215L35.4056 69.0845ZM35.0822 69.0255C35.0822 69.0391 35.0874 68.9709 35.1922 68.7787C35.2858 68.6072 35.4145 68.4132 35.5627 68.1909C35.7032 67.9801 35.8632 67.741 35.9862 67.5155C36.098 67.3106 36.2372 67.0179 36.2372 66.7156L35.0822 66.7156C35.0822 66.7021 35.0771 66.7703 34.9723 66.9624C34.8787 67.134 34.75 67.3279 34.6018 67.5503C34.4612 67.761 34.3013 68.0002 34.1783 68.2257C34.0665 68.4305 33.9273 68.7232 33.9273 69.0255L35.0822 69.0255ZM36.2372 66.7156C36.2372 66.6553 36.2549 66.5413 36.304 66.4011C36.352 66.2642 36.4169 66.1391 36.4826 66.0515C36.5572 65.9521 36.5853 65.9621 36.5394 65.9743C36.5063 65.9831 36.4638 65.9837 36.4245 65.9712C36.3894 65.9601 36.3847 65.9474 36.4063 65.969L37.223 65.1524C36.9623 64.8917 36.6134 64.7593 36.2418 64.8584C35.9252 64.9428 35.7006 65.1693 35.5587 65.3586C35.2746 65.7374 35.0822 66.2901 35.0822 66.7156L36.2372 66.7156ZM36.4063 65.969C36.462 66.0247 36.5441 66.1641 36.6618 66.4382C36.7594 66.6653 36.8902 67.0082 37.0234 67.2762C37.1519 67.5347 37.3566 67.889 37.6974 68.0807C37.8875 68.1877 38.1093 68.2384 38.3484 68.207C38.5769 68.1769 38.7842 68.0769 38.9688 67.9456L38.2995 67.0044C38.2171 67.0629 38.1854 67.0635 38.1977 67.0619C38.2207 67.0589 38.2491 67.0659 38.2637 67.0742C38.2682 67.0766 38.2457 67.0647 38.2021 67.007C38.1594 66.9505 38.1115 66.8704 38.0576 66.7621C37.9416 66.5288 37.8539 66.2869 37.723 65.9823C37.6123 65.7246 37.4561 65.3855 37.223 65.1524L36.4063 65.969ZM38.9688 67.9456C39.2571 67.7406 39.5205 67.4916 39.5977 67.1567C39.685 66.778 39.4855 66.4971 39.4359 66.4215C39.3951 66.3594 39.403 66.3693 39.4097 66.3848C39.4248 66.4196 39.4528 66.5081 39.4262 66.6189C39.4022 66.7187 39.3512 66.7616 39.3629 66.7507C39.3749 66.7393 39.4195 66.7028 39.5278 66.6423L38.9644 65.6341C38.8144 65.7179 38.6795 65.8077 38.571 65.9099C38.4621 66.0124 38.3497 66.156 38.3033 66.3488C38.2542 66.5527 38.2991 66.7268 38.3502 66.8446C38.393 66.9431 38.4562 67.0338 38.4703 67.0552C38.5304 67.1467 38.4384 67.0443 38.4723 66.8972C38.4961 66.794 38.5451 66.8297 38.2995 67.0044L38.9688 67.9456ZM39.5278 66.6423C39.968 66.3963 40.4189 66.2825 40.8 66.2825C41.1859 66.2825 41.4534 66.3964 41.6036 66.5465L42.4202 65.7298C41.9929 65.3025 41.3943 65.1276 40.8 65.1276C40.2008 65.1276 39.5576 65.3026 38.9644 65.6341L39.5278 66.6423ZM41.6036 66.5465C41.7546 66.6975 41.9593 67.0444 42.1663 67.4922C42.3628 67.9173 42.5284 68.3589 42.619 68.6307L43.7147 68.2654C43.6128 67.9597 43.4319 67.4774 43.2146 67.0074C43.0077 66.5601 42.7312 66.0408 42.4202 65.7298L41.6036 66.5465Z" fill="black"/>
<path d="M20.068 68.448C20.6455 68.448 20.068 69.0255 20.6455 70.1804C21.1074 71.1044 21.6079 72.8753 21.8004 73.6453C21.0304 72.2978 19.375 69.603 18.913 69.603C18.3356 69.603 18.3356 68.448 18.3356 67.8705C18.3356 67.2931 17.7581 66.7156 17.7581 66.1381C17.7581 65.5607 19.4905 64.9832 20.068 64.9832C20.6455 64.9832 20.6455 65.5607 21.2229 65.5607C21.6849 65.5607 22.5704 65.1757 22.9553 64.9832C25.2652 63.8283 26.9976 64.9832 27.5751 64.4057C28.1526 63.8283 31.0399 64.4057 32.1949 64.4057C33.3498 64.4057 32.7724 65.5607 33.3498 66.1381C33.9273 66.7156 32.7724 67.8706 31.6174 68.448C30.4625 69.0255 31.0399 69.0255 29.885 69.0255C28.7301 69.0255 28.1526 69.603 26.4202 69.603C24.6878 69.603 25.8427 69.0255 24.6878 69.0255C23.5328 69.0255 24.1103 69.0255 22.3779 68.448C20.6455 67.8705 19.4905 68.448 20.068 68.448Z" fill="black"/>
<path d="M21.8004 73.6453C21.8004 73.6453 21.8004 73.6453 21.8004 73.6453ZM21.8004 73.6453C21.6079 72.8753 21.1074 71.1044 20.6455 70.1804C20.068 69.0255 20.6455 68.448 20.068 68.448C19.4905 68.448 20.6455 67.8705 22.3779 68.448C24.1103 69.0255 23.5328 69.0255 24.6878 69.0255C25.8427 69.0255 24.6878 69.603 26.4202 69.603C28.1526 69.603 28.7301 69.0255 29.885 69.0255C31.0399 69.0255 30.4625 69.0255 31.6174 68.448C32.7724 67.8706 33.9273 66.7156 33.3498 66.1381C32.7724 65.5607 33.3498 64.4057 32.1949 64.4057C31.0399 64.4057 28.1526 63.8283 27.5751 64.4057C26.9976 64.9832 25.2652 63.8283 22.9553 64.9832C22.5704 65.1757 21.6849 65.5607 21.2229 65.5607C20.6455 65.5607 20.6455 64.9832 20.068 64.9832C19.4905 64.9832 17.7581 65.5607 17.7581 66.1381C17.7581 66.7156 18.3356 67.2931 18.3356 67.8705C18.3356 68.448 18.3356 69.603 18.913 69.603C19.375 69.603 21.0304 72.2978 21.8004 73.6453Z" stroke="black" stroke-width="1.15494"/>
<path d="M36.2368 77.6875C36.0443 77.6875 35.5439 77.2255 35.0819 75.3776C34.5044 73.0677 35.6593 71.9128 35.0819 70.7578C34.5044 69.6029 34.5044 70.1804 33.9269 69.6029C33.3495 69.0254 35.0819 68.448 34.5044 66.7155" stroke="black" stroke-width="1.15494"/>
<path d="M28.4565 78.3361C28.4565 78.9817 29.0643 80.0146 31.4958 78.9817M26.6329 78.9817C26.025 79.1969 24.6877 79.4981 24.2014 78.9817M33.9273 66.7156C32.5089 68.8675 29.4291 73.1714 28.4565 73.1714C27.2407 73.1714 26.025 73.1714 25.4171 72.5258C24.9309 72.0094 23.1883 70.1587 22.3778 69.2979" stroke="black" stroke-width="1.15494"/>
<path d="M27.5747 77.1101C27.5747 76.6797 27.5747 75.3777 26.3894 74.5278" stroke="black" stroke-width="0.577471"/>
<path d="M29.8848 77.1101L29.3073 77.1101M26.4199 77.1101L25.8425 77.1101" stroke="black" stroke-width="1.15494"/>
<path d="M18.9126 64.4058C18.3351 63.978 16.6027 61.7109 16.6027 58.631" stroke="black" stroke-width="1.15494"/>
<path d="M12.1566 51.5963C13.0458 52.1002 14.892 52.6462 15.4478 52.8562L15.4912 52.8562L17.1802 45.9265C16.2539 45.9265 13.935 46.0525 14.3796 46.5565C14.8243 47.0605 15.6764 47.1865 16.0469 47.1865C15.1207 47.1865 13.157 47.3125 12.7123 47.8165C12.2677 48.3204 14.7502 48.8664 16.0469 49.0764C14.9354 49.0764 12.6012 49.2024 12.1566 49.7064C11.712 50.2103 14.1944 50.7563 15.4912 50.9663C14.0091 50.9663 11.2674 51.0923 12.1566 51.5963Z" fill="#AA702C" stroke="black" stroke-width="1.15494"/>
<path d="M16.0256 47.6589L16.603 45.9265" stroke="black" stroke-width="1.15494"/>
<path d="M44.3284 66.7156C46.0626 66.7156 46.6481 65.5422 47.7967 64.8799C50.0833 63.5615 48.4397 55.5898 47.2187 52.6421C46.6996 51.389 44.0027 45.8965 43.7442 45.3491" stroke="black" stroke-width="1.15494"/>
<path d="M39.1245 49.969C37.3921 48.8141 33.4702 48.149 32.5071 48.1083C31.1415 48.0505 30.2611 46.8464 30.4624 45.3492" stroke="black" stroke-width="1.15494"/>
<path d="M31.0396 47.6589C29.8846 47.6589 25.6113 45.811 24.6874 45.349M30.4621 46.504C29.6921 46.504 28.0367 46.273 27.5747 45.349" stroke="black" stroke-width="1.15494"/>
<path d="M32.1943 63.2507C32.3868 61.9033 32.4253 59.3239 31.0394 59.7859M31.0394 59.7859C30.3443 60.0176 30.8469 62.2883 31.6169 63.2507M31.0394 59.7859C31.2535 58.0082 28.7295 55.8878 28.7295 57.476C28.7295 58.0535 29.8845 59.7859 31.0394 59.7859ZM21.2224 63.2507C22.3773 62.4808 24.223 61.1315 23.5323 60.3634C22.4496 59.1595 21.4359 61.294 21.2224 63.2507Z" stroke="#B0B0B0" stroke-width="1.15494"/>
<path d="M23.5326 60.3635C24.6875 60.171 26.7665 58.4001 25.8425 57.4762C24.9186 56.5522 22.9552 58.6311 23.5326 60.3635Z" stroke="#B0B0B0" stroke-width="1.15494"/>
<path d="M28.73 57.476C27.865 58.0834 25.7684 58.5545 25.8426 57.476C25.9707 55.6142 28.0862 56.1065 28.73 57.476Z" stroke="#B0B0B0" stroke-width="1.15494"/>
<path d="M28.2195 57.476L25.7792 57.476C26.7499 56.9072 26.9219 56.4463 26.9993 55.5367L25.3725 56.3124C24.4827 55.7176 24.436 55.3785 25.3725 54.761L26.9993 55.5367L26.1859 53.5975C26.7011 52.5905 27.2026 52.6279 27.8127 53.5975L26.9993 55.5367L28.8296 54.761C29.543 55.3669 29.3851 55.7065 28.8296 56.3124L26.9993 55.5367C27.1473 56.4464 27.3584 56.8968 28.2195 57.476Z" fill="black"/>
<path d="M26.9993 55.5367C26.9219 56.4463 26.7499 56.9072 25.7792 57.476L28.2195 57.476C27.3584 56.8968 27.1473 56.4464 26.9993 55.5367ZM26.9993 55.5367L25.3725 56.3124C24.4827 55.7176 24.436 55.3785 25.3725 54.761L26.9993 55.5367ZM26.9993 55.5367L27.8127 53.5975C27.2026 52.6279 26.7011 52.5905 26.1859 53.5975L26.9993 55.5367ZM26.9993 55.5367L28.8296 54.761C29.543 55.3669 29.3851 55.7065 28.8296 56.3124L26.9993 55.5367Z" stroke="black" stroke-width="1.15494" stroke-linejoin="bevel"/>
<g style="mix-blend-mode:multiply">
<path d="M24.1099 80.575C23.5324 77.6876 23.9299 78.3026 22.9549 75.3777C22.185 73.0678 21.8 71.3354 20.0676 68.4481" stroke="#FFCB8D" stroke-opacity="0.46" stroke-width="1.15494"/>
</g>
<path d="M28.1523 71.9128L26.9974 71.9128" stroke="black" stroke-width="0.577471"/>
<circle cx="15.4481" cy="55.1661" r="1.15494" transform="rotate(-180 15.4481 55.1661)" fill="#6E86C4"/>
<path d="M44.3218 45.3491L17.1806 45.3491" stroke="black" stroke-width="1.15494"/>
<path d="M18.2939 23.1487C18.1755 23.1881 18.0436 23.2303 17.901 23.2765C16.8974 24.0843 18.5074 28.4632 19.4488 28.9234C21.0961 29.7286 22.6923 37.663 22.9136 40.4728C28.6461 41.4835 31.6236 42.1314 35.0405 43.9376L18.2939 44.5151C16.7539 41.8203 14.0072 35.2085 13.0966 30.6558C12.0206 25.2758 15.957 23.9056 17.901 23.2765C18.0035 23.1939 18.1333 23.1487 18.2939 23.1487Z" fill="#B02929"/>
<path d="M52.365 41.0503C52.365 39.8953 52.365 38.1629 46.5903 35.853L44.8579 43.9376C47.3603 43.1677 52.365 43.9948 52.365 41.0503Z" fill="#B02929" stroke="black" stroke-width="1.15494"/>
<path d="M39.0832 44.5151C38.0501 44.5152 29.8436 41.6278 24.0689 40.4728C22.914 37.5855 21.7591 31.8108 18.2943 27.191C17.8324 26.267 17.7168 24.8811 18.2942 23.1487L24.0689 23.7262C25.8014 28.3459 29.2662 38.1629 33.886 40.4728C36.7733 39.8953 40.1376 39.3048 41.3931 30.0784C42.1164 24.7628 42.6874 25.4289 43.6759 26.5819L43.703 26.6135C44.3755 27.3977 46.2053 32.3882 46.5903 35.2756L44.8579 44.5151C43.1255 45.0926 40.8156 44.5151 39.0832 44.5151Z" fill="#3076FF"/>
<path d="M31.3723 38.6167C29.4157 37.6267 26.0732 28.7172 24.6465 24.3861L45.4355 23.1487C45.4355 23.7674 42.5821 25.4173 41.7668 26.2423C41.3592 28.7172 40.2993 34.2856 39.321 36.7605C38.3427 39.2354 35.2448 40.2666 33.8181 40.4728C33.8181 40.2666 33.3289 39.6066 31.3723 38.6167Z" fill="#6A5A50" stroke="black" stroke-width="1.15494"/>
<path d="M51.2891 18.9414L51.2476 19.0388C48.8099 24.7583 48.6711 25.084 48.7387 33.2113L46.6362 34.6762C46.5547 35.1325 47.1485 35.3482 47.9115 35.4406C48.7878 35.45 49.7009 35.3994 50.7983 35.4201C50.7983 35.4201 49.1368 35.5892 47.9115 35.4406C47.1485 35.3482 46.5547 35.1325 46.6362 34.6762L45.1713 32.5737C47.4597 25.7542 47.6495 25.4396 47.7216 18.3038L50.9931 10.2985L51.2891 18.9414Z" fill="#6E86C4"/>
<path d="M46.6362 34.6762L48.7387 33.2113C48.6707 25.0381 48.8115 24.7548 51.2891 18.9414L50.9931 10.2985L47.7216 18.3038C47.6495 25.4396 47.4597 25.7542 45.1713 32.5737L46.6362 34.6762ZM46.6362 34.6762C46.4237 35.8654 50.7983 35.4201 50.7983 35.4201C47.6659 35.361 46.0355 35.8831 42.4742 33.9324M46.53 35.2708L46.3174 36.4599L45.0422 43.5949" stroke="#B7B7B7" stroke-width="1.15494"/>
<path d="M51.2101 10.4443L51.7875 19.1064C49.195 24.9414 49.0931 28.0555 49.4776 33.5431L47.7451 34.6981L50.6325 34.6981L50.6325 35.853" stroke="#767676" stroke-width="0.577471" stroke-linejoin="round"/>
<path d="M21.9401 9.22717C21.2731 9.14995 20.9302 9.05838 21.3968 9.05838C21.5492 9.05838 21.7336 9.11945 21.9401 9.22717C23.0031 9.35023 24.889 9.43686 25.6326 9.05838C26.8428 8.44241 27.4479 5.36257 27.4479 4.7466C27.4479 4.13063 31.0786 6.59451 32.2888 5.97854C33.0956 5.77321 34.8303 4.5002 35.3144 3.51465C35.8975 4.30612 39.8524 7.00441 41.7636 5.5455C41.8349 5.48175 41.904 5.42064 41.9706 5.36255C41.9047 5.42965 41.8356 5.49053 41.7636 5.5455C41.0705 6.16539 40.1782 7.03593 39.5417 7.82471C38.8554 8.67525 38.4664 9.43072 38.945 9.67433C31.4926 8.85223 29.2487 10.1293 25.6326 12.7542C25.3526 12.4121 24.9761 11.9751 24.5577 11.5222C23.7064 10.6008 22.6811 9.61368 21.9401 9.22717Z" fill="#FFDC22"/>
<path d="M24.5577 11.5222C24.9761 11.9751 25.3526 12.4121 25.6326 12.7542C29.2487 10.1293 31.4926 8.85223 38.945 9.67433C37.9769 9.18156 40.5587 6.59449 41.9706 5.36255C40.1553 7.21046 35.9195 4.33594 35.3144 3.51465C34.8303 4.5002 33.0956 5.77321 32.2888 5.97854C31.0786 6.59451 27.4479 4.13063 27.4479 4.7466C27.4479 5.36257 26.8428 8.44241 25.6326 9.05838C24.4224 9.67435 20.1866 9.05838 21.3968 9.05838C22.0962 9.05838 23.4691 10.344 24.5577 11.5222ZM24.5577 11.5222C26.5296 9.67433 32.2888 6.3481 39.5502 7.82643" stroke="black" stroke-width="1.15494"/>
<path d="M19.8609 21.9937C19.2716 22.209 18.3287 22.8981 19.2716 23.9317C20.2145 24.9653 21.6288 24.793 22.2181 24.5777C22.8074 24.5777 23.986 24.3193 23.986 23.2857C23.986 21.9937 24.5753 26.5158 25.7539 25.2237C26.6968 24.1901 27.7183 23.0703 28.1111 22.6397" stroke="black" stroke-width="1.15494"/>
<path d="M28.1113 23.1487C28.3122 24.1427 28.9549 26.1308 29.9191 26.1308C31.1242 26.1308 30.5216 26.1308 31.1242 25.6337C31.7268 25.1367 31.7268 27.6218 34.1371 26.1308C36.5474 24.6397 33.8526 27.2421 36.5474 26.1308C37.7526 25.6337 37.7526 26.6278 38.9577 25.6337C40.1629 25.1367 40.1629 24.6397 40.7655 25.6337L41.9706 26.1308" stroke="black" stroke-width="1.15494"/>
<path d="M33.886 19.5388H35.6185M28.1113 23.1487C29.8437 21.3437 31.6917 19.4185 32.1536 18.9372C33.886 17.1322 36.1959 17.1322 36.7734 17.7339C37.3509 18.3355 40.2382 20.7422 40.8157 20.7422" stroke="black" stroke-width="1.15494"/>
<path d="M42.5479 21.4163L38.5056 9.86686L34.4633 8.71191L29.2661 9.86686L25.8013 12.1767L26.9562 23.1487L42.5479 21.4163Z" fill="#FFDBB0"/>
<path d="M21.1816 19.1063C21.3617 19.8555 19.7167 20.9584 18.8717 21.4162C19.0642 21.9937 19.5647 23.2641 20.0267 23.7261C20.6041 24.3036 21.7591 24.3036 22.7924 23.7261C23.8258 23.1486 22.3366 23.1486 23.4044 22.3893C24.4723 21.6299 24.6464 23.7261 25.2239 24.3036C25.8014 24.881 26.3789 23.7261 26.3789 23.1486C26.3789 22.5711 27.5338 21.4162 27.5338 20.8387C27.5338 20.2613 26.9563 19.9782 26.3789 20.2613C25.8014 20.5443 26.3789 16.7964 26.3789 15.6415C26.3789 14.7175 25.9939 13.7166 25.8014 13.3316C25.8184 13.7166 25.8421 14.602 25.8014 15.064C25.7505 15.6415 24.069 15.6415 23.4915 15.6415C22.914 15.6415 23.4044 17.3739 23.4044 17.9514C23.4044 18.5288 20.9565 18.1699 21.1816 19.1063Z" fill="#0F0000"/>
<path d="M20.9565 31.4311L20.4215 31.6484L20.4215 31.6484L20.9565 31.4311ZM19.1206 22.3893L19.487 22.8356L19.9832 22.4283L19.5258 21.9779L19.1206 22.3893ZM20.3446 19.9782L20.8595 20.2396L20.8595 20.2396L20.3446 19.9782ZM20.9565 18.1699L20.7014 17.6518L20.7014 17.6518L20.9565 18.1699ZM23.4044 15.156L23.6596 15.674L23.6596 15.674L23.4044 15.156ZM25.2403 13.9504L25.7553 13.689L25.7553 13.689L25.2403 13.9504ZM25.8523 12.1421L26.1074 12.6602L26.1584 12.6351L26.2035 12.6005L25.8523 12.1421ZM38.7037 9.73098H39.2812L39.2812 9.27846L38.8418 9.17026L38.7037 9.73098ZM38.7037 10.9366H38.1263L38.1263 11.0087L38.144 11.0786L38.7037 10.9366ZM39.3157 13.3477L38.756 13.4898L38.7615 13.5115L38.7687 13.5328L39.3157 13.3477ZM39.9277 15.156L39.3807 15.3411L39.3807 15.3411L39.9277 15.156ZM42.3756 18.7727L42.7808 18.3613L42.7808 18.3613L42.3756 18.7727ZM42.3756 19.9782L42.7808 19.5668L42.7808 19.5668L42.3756 19.9782ZM44.2115 20.581L44.7264 20.3197L44.7264 20.3197L44.2115 20.581ZM18.8717 21.4162L18.5966 20.9085L18.1707 21.1392L18.3239 21.5988L18.8717 21.4162ZM21.1816 19.1063L21.7431 18.9714L21.7431 18.9714L21.1816 19.1063ZM25.8014 15.064L25.2262 15.0133L25.2262 15.0133L25.8014 15.064ZM25.8014 13.3316L26.3179 13.0734L25.2245 13.357L25.8014 13.3316ZM26.3789 20.2613L26.1247 19.7427L26.1247 19.7427L26.3789 20.2613ZM25.2239 24.3036L24.8156 24.7119L24.8156 24.7119L25.2239 24.3036ZM23.4044 22.3893L23.0698 21.9187L23.0698 21.9187L23.4044 22.3893ZM22.7924 23.7261L22.5107 23.222L22.5107 23.222L22.7924 23.7261ZM20.0267 23.7261L20.435 23.3178L20.435 23.3178L20.0267 23.7261ZM24.0574 40.3578C23.4439 37.3363 22.7365 34.2793 21.4915 31.2138L20.4215 31.6484C21.6245 34.6107 22.3151 37.5814 22.9256 40.5877L24.0574 40.3578ZM21.4915 31.2138C21.2312 30.5727 20.7263 29.8529 20.2378 29.1539C19.7303 28.4277 19.2113 27.6861 18.8322 26.9304C18.4527 26.174 18.2456 25.4641 18.304 24.8055C18.3602 24.172 18.6692 23.507 19.487 22.8356L18.7542 21.9429C17.7362 22.7786 17.2414 23.7136 17.1536 24.7034C17.068 25.668 17.3766 26.6047 17.7998 27.4483C18.2235 28.2926 18.7942 29.1044 19.2911 29.8155C19.807 30.5537 20.221 31.1547 20.4215 31.6484L21.4915 31.2138ZM19.5258 21.9779C19.2273 21.6839 18.8201 21.2529 18.5527 20.9063C18.487 20.8211 18.4343 20.7469 18.3954 20.6855C18.3762 20.655 18.362 20.6304 18.3521 20.6114C18.3418 20.5917 18.3385 20.5829 18.3388 20.5835C18.339 20.5843 18.3409 20.5896 18.3432 20.599C18.3454 20.6082 18.3488 20.6242 18.3507 20.646C18.3541 20.6858 18.3551 20.7723 18.3092 20.8732C18.1886 21.1381 17.9379 21.1585 17.8967 21.1585L17.8967 20.0035C17.7331 20.0035 17.4096 20.0616 17.258 20.3948C17.1431 20.6473 17.2206 20.8871 17.2518 20.974C17.3295 21.1901 17.4923 21.4225 17.6384 21.6119C17.9524 22.0188 18.4019 22.4919 18.7154 22.8007L19.5258 21.9779ZM17.8967 21.1585C17.9844 21.1585 18.1094 21.1818 18.3495 21.2248C18.56 21.2625 18.8346 21.3092 19.1206 21.3092C19.4113 21.3092 19.7432 21.2617 20.0633 21.0897C20.3898 20.9142 20.6598 20.633 20.8595 20.2396L19.8296 19.7168C19.7233 19.9262 19.6108 20.0217 19.5167 20.0723C19.416 20.1264 19.2889 20.1542 19.1206 20.1542C18.9477 20.1542 18.7633 20.1256 18.5531 20.0879C18.3724 20.0556 18.1149 20.0035 17.8967 20.0035L17.8967 21.1585ZM20.8595 20.2396C21.0495 19.8653 21.1188 19.539 21.1029 19.241C21.0879 18.9615 20.9915 18.7321 20.9681 18.6629C20.9399 18.5798 21.002 18.7169 20.9157 18.8506C20.8874 18.8944 20.9034 18.8397 21.2117 18.6879L20.7014 17.6518C20.3977 17.8014 20.1078 17.9728 19.9456 18.2238C19.7253 18.5647 19.8257 18.8902 19.8741 19.0331C19.9271 19.19 19.9454 19.2243 19.9496 19.3027C19.9528 19.3626 19.9456 19.4884 19.8296 19.7168L20.8595 20.2396ZM21.2117 18.6879C21.7536 18.4211 22.0209 18.4649 22.4715 18.3539C22.6898 18.3001 22.9761 18.1887 23.1674 17.8825C23.3335 17.6167 23.3699 17.2902 23.3699 16.9643H22.215C22.215 17.2412 22.1749 17.2915 22.188 17.2706C22.2263 17.2092 22.2831 17.2108 22.1954 17.2324C22.0341 17.2722 21.3834 17.316 20.7014 17.6518L21.2117 18.6879ZM23.3699 16.9643C23.3699 16.6102 23.3244 16.3418 23.2807 16.1372C23.2522 16.004 23.2469 15.9919 23.2289 15.9045C23.2167 15.8453 23.2169 15.8305 23.2169 15.8341C23.2169 15.8471 23.2138 15.8822 23.1951 15.9218C23.1783 15.9574 23.1626 15.9671 23.1794 15.9519C23.2284 15.9077 23.3535 15.8248 23.6596 15.674L23.1493 14.6379C22.8433 14.7886 22.586 14.9317 22.4055 15.0947C22.3075 15.1831 22.2154 15.2917 22.1507 15.4286C22.0842 15.5694 22.062 15.7081 22.062 15.8341C22.062 15.9508 22.0814 16.0584 22.0978 16.1381C22.1085 16.1897 22.1415 16.333 22.1512 16.3787C22.184 16.532 22.215 16.7157 22.215 16.9643H23.3699ZM23.6596 15.674C23.8971 15.557 24.1434 15.4941 24.3904 15.4522C24.515 15.431 24.6344 15.416 24.7572 15.4004C24.8733 15.3857 25.0038 15.3692 25.1225 15.3458C25.3024 15.3104 25.7498 15.213 25.9217 14.7727C26.0024 14.5659 25.9879 14.3608 25.9505 14.1958C25.913 14.0306 25.8423 13.8605 25.7553 13.689L24.7254 14.2118C24.7914 14.3418 24.8163 14.4166 24.8242 14.4514C24.8322 14.4866 24.8129 14.4369 24.8459 14.3526C24.9222 14.1572 25.1018 14.1728 24.8992 14.2127C24.8266 14.227 24.7372 14.2388 24.6119 14.2546C24.4932 14.2697 24.3496 14.2876 24.197 14.3135C23.8894 14.3658 23.5237 14.4536 23.1493 14.6379L23.6596 15.674ZM25.7553 13.689C25.5969 13.377 25.6435 13.174 25.7194 13.0314C25.8131 12.8555 25.9852 12.7204 26.1074 12.6602L25.5972 11.624C25.3114 11.7648 24.9328 12.0515 24.7 12.4885C24.4496 12.9588 24.3942 13.5594 24.7254 14.2118L25.7553 13.689ZM26.2035 12.6005C27.9418 11.2688 32.9059 8.89802 38.5657 10.2917L38.8418 9.17026C32.7517 7.6706 27.4346 10.2024 25.5011 11.6837L26.2035 12.6005ZM38.1263 9.73098L38.1263 10.9366H39.2812L39.2812 9.73098H38.1263ZM38.144 11.0786L38.756 13.4898L39.8754 13.2056L39.2635 10.7945L38.144 11.0786ZM38.7687 13.5328L39.3807 15.3411L40.4747 14.9709L39.8627 13.1626L38.7687 13.5328ZM39.3807 15.3411C40.0402 17.2901 41.3552 18.5783 41.9703 19.1841L42.7808 18.3613C42.1719 17.7616 41.0391 16.6386 40.4747 14.9709L39.3807 15.3411ZM41.9703 19.1841C42.0701 19.2824 41.943 19.2067 41.9817 19.0157C41.989 18.9797 42.0006 18.952 42.01 18.9337C42.019 18.9162 42.0265 18.9066 42.027 18.9059C42.0274 18.9054 42.0243 18.9095 42.014 18.9203C42.0031 18.9317 41.9906 18.944 41.9703 18.964C41.9379 18.996 41.8707 19.0608 41.8118 19.1367C41.7502 19.2161 41.6712 19.3397 41.6375 19.5054C41.5605 19.8848 41.7641 20.1865 41.9703 20.3896L42.7808 19.5668C42.681 19.4686 42.8081 19.5442 42.7694 19.7352C42.7621 19.7712 42.7505 19.7989 42.7411 19.8172C42.7321 19.8347 42.7247 19.8443 42.7241 19.845C42.7237 19.8455 42.7268 19.8414 42.7371 19.8306C42.748 19.8193 42.7605 19.8069 42.7808 19.7869C42.8132 19.7549 42.8804 19.6901 42.9393 19.6142C43.0009 19.5348 43.0799 19.4112 43.1136 19.2455C43.1906 18.8661 42.987 18.5644 42.7808 18.3613L41.9703 19.1841ZM41.9703 20.3896C42.2507 20.6658 42.5687 20.7521 42.87 20.7336C43.0022 20.7254 43.1211 20.698 43.2102 20.6747C43.3353 20.6419 43.3439 20.6359 43.4316 20.6143C43.5509 20.585 43.549 20.6041 43.524 20.5934C43.5021 20.5839 43.5737 20.6004 43.6965 20.8424L44.7264 20.3197C44.5433 19.9589 44.3089 19.674 43.981 19.5327C43.65 19.3901 43.3421 19.4469 43.1554 19.4929C43.0902 19.509 42.9457 19.55 42.9179 19.5573C42.854 19.574 42.8199 19.5795 42.7991 19.5808C42.7943 19.5811 42.8064 19.5921 42.7808 19.5668L41.9703 20.3896ZM43.6965 20.8424C43.9621 21.3656 44.1002 22.0335 44.2601 22.7425C44.3362 23.0798 44.419 23.4303 44.527 23.7387C44.6324 24.0396 44.7828 24.3655 45.0302 24.6091L45.8406 23.7863C45.782 23.7286 45.703 23.6024 45.6171 23.357C45.5338 23.1192 45.4636 22.8291 45.3868 22.4883C45.2407 21.8411 45.0728 21.0021 44.7264 20.3197L43.6965 20.8424ZM19.1468 21.9239C19.5926 21.6824 20.2529 21.2698 20.7883 20.8077C21.0543 20.5782 21.3141 20.3156 21.4979 20.0364C21.6732 19.77 21.8436 19.3894 21.7431 18.9714L20.6201 19.2413C20.6097 19.1978 20.642 19.2361 20.5331 19.4014C20.4327 19.554 20.2622 19.7363 20.0338 19.9333C19.5805 20.3245 18.9959 20.6922 18.5966 20.9085L19.1468 21.9239ZM21.7431 18.9714C21.7425 18.9689 21.7463 18.9836 21.7433 19.0106C21.74 19.0389 21.7306 19.0683 21.7162 19.094C21.6893 19.1419 21.6653 19.1434 21.7088 19.1199C21.8113 19.0644 22.005 19.0147 22.3056 18.9635C22.5581 18.9205 22.9157 18.8729 23.1787 18.8005C23.3121 18.7638 23.4848 18.7054 23.6343 18.599C23.7995 18.4815 23.9819 18.2678 23.9819 17.9514H22.8269C22.8269 17.7793 22.9328 17.6807 22.965 17.6578C22.9816 17.646 22.9648 17.6615 22.8722 17.687C22.6833 17.739 22.4429 17.7685 22.1116 17.825C21.8284 17.8732 21.4523 17.9455 21.1591 18.1041C21.0048 18.1877 20.8265 18.3193 20.7088 18.529C20.5827 18.7539 20.5629 19.003 20.6201 19.2413L21.7431 18.9714ZM23.9819 17.9514C23.9819 17.754 23.9425 17.4894 23.9078 17.2602C23.8696 17.0087 23.8294 16.7566 23.806 16.5226C23.7814 16.2761 23.7836 16.1168 23.7999 16.0375C23.8079 15.9988 23.8082 16.0375 23.7591 16.0944C23.6905 16.1739 23.586 16.219 23.4915 16.219L23.4915 15.064C23.2527 15.064 23.0372 15.1632 22.8848 15.3398C22.7521 15.4936 22.6959 15.6722 22.6686 15.805C22.6145 16.0685 22.631 16.3784 22.6568 16.6372C22.6838 16.9084 22.7301 17.1977 22.7659 17.4334C22.805 17.6916 22.8269 17.86 22.8269 17.9514H23.9819ZM23.4915 16.219C23.7752 16.219 24.3804 16.2199 24.9266 16.1408C25.1952 16.102 25.4942 16.0381 25.7446 15.9211C25.9752 15.8133 26.336 15.5754 26.3766 15.1147L25.2262 15.0133C25.2413 14.8414 25.3729 14.82 25.2558 14.8747C25.1586 14.9201 24.9916 14.9645 24.7612 14.9978C24.3096 15.0631 23.7852 15.064 23.4915 15.064L23.4915 16.219ZM26.3766 15.1147C26.4212 14.6092 26.3951 13.687 26.3783 13.3062L25.2245 13.357C25.2416 13.7461 25.263 14.5949 25.2262 15.0133L26.3766 15.1147ZM25.2849 13.5899C25.4573 13.9347 25.8014 14.8432 25.8014 15.6415H26.9563C26.9563 14.5919 26.5305 13.4985 26.3179 13.0734L25.2849 13.5899ZM25.8014 15.6415C25.8014 15.8995 25.7682 16.3227 25.7224 16.8394C25.6778 17.3431 25.6228 17.9205 25.5862 18.4509C25.5501 18.9735 25.5287 19.4908 25.5597 19.8685C25.5738 20.0406 25.6037 20.2671 25.6983 20.4531C25.7475 20.5499 25.8507 20.7084 26.0497 20.7967C26.2733 20.8957 26.4878 20.851 26.633 20.7798L26.1247 19.7427C26.1978 19.7069 26.3491 19.666 26.5177 19.7408C26.6617 19.8046 26.7181 19.9105 26.7278 19.9297C26.7434 19.9604 26.7237 19.9315 26.7108 19.774C26.6877 19.4925 26.7023 19.0536 26.7384 18.5304C26.774 18.0148 26.8273 17.4564 26.8729 16.9413C26.9173 16.4393 26.9563 15.961 26.9563 15.6415H25.8014ZM26.633 20.7798C26.7876 20.704 26.8855 20.7294 26.916 20.7445C26.9313 20.7521 26.9379 20.7598 26.9418 20.7663C26.9456 20.7723 26.9563 20.7927 26.9563 20.8387H28.1113C28.1113 20.3364 27.8477 19.9177 27.4298 19.7101C27.0271 19.5101 26.5476 19.5354 26.1247 19.7427L26.633 20.7798ZM26.9563 20.8387C26.9563 20.8252 26.9512 20.8934 26.8464 21.0855C26.7528 21.2571 26.6241 21.451 26.4758 21.6734C26.3353 21.8841 26.1753 22.1233 26.0524 22.3488C25.9406 22.5536 25.8014 22.8463 25.8014 23.1486H26.9563C26.9563 23.1622 26.9615 23.094 27.0663 22.9018C27.1598 22.7303 27.2886 22.5363 27.4368 22.314C27.5773 22.1032 27.7373 21.8641 27.8603 21.6386C27.972 21.4337 28.1113 21.141 28.1113 20.8387H26.9563ZM25.8014 23.1486C25.8014 23.2089 25.7836 23.3229 25.7346 23.4631C25.6866 23.6001 25.6216 23.7251 25.556 23.8127C25.4813 23.9122 25.4533 23.9022 25.4992 23.89C25.5322 23.8811 25.5748 23.8805 25.6141 23.893C25.6491 23.9041 25.6539 23.9168 25.6322 23.8952L24.8156 24.7119C25.0763 24.9726 25.4252 25.105 25.7968 25.0059C26.1134 24.9215 26.338 24.6949 26.4799 24.5057C26.764 24.1269 26.9563 23.5741 26.9563 23.1486H25.8014ZM25.6322 23.8952C25.5766 23.8396 25.4945 23.7001 25.3767 23.4261C25.2792 23.199 25.1484 22.856 25.0152 22.588C24.8866 22.3295 24.682 21.9753 24.3412 21.7835C24.1511 21.6766 23.9293 21.6258 23.6901 21.6573C23.4617 21.6874 23.2544 21.7874 23.0698 21.9187L23.7391 22.8599C23.8214 22.8013 23.8532 22.8007 23.8409 22.8024C23.8179 22.8054 23.7894 22.7983 23.7748 22.7901C23.7704 22.7876 23.7929 22.7996 23.8365 22.8573C23.8792 22.9137 23.9271 22.9939 23.981 23.1022C24.097 23.3355 24.1847 23.5774 24.3156 23.882C24.4263 24.1397 24.5825 24.4788 24.8156 24.7119L25.6322 23.8952ZM23.0698 21.9187C22.7814 22.1237 22.5181 22.3727 22.4409 22.7076C22.3536 23.0862 22.5531 23.3672 22.6027 23.4427C22.6435 23.5048 22.6356 23.4949 22.6289 23.4795C22.6138 23.4447 22.5857 23.3561 22.6124 23.2453C22.6364 23.1456 22.6873 23.1027 22.6757 23.1136C22.6636 23.125 22.619 23.1615 22.5107 23.222L23.0741 24.2302C23.2242 24.1463 23.3591 24.0565 23.4675 23.9544C23.5764 23.8518 23.6889 23.7083 23.7353 23.5154C23.7843 23.3116 23.7395 23.1375 23.6883 23.0196C23.6456 22.9211 23.5823 22.8305 23.5683 22.8091C23.5082 22.7175 23.6002 22.82 23.5663 22.967C23.5425 23.0703 23.4935 23.0345 23.7391 22.8599L23.0698 21.9187ZM22.5107 23.222C22.0706 23.468 21.6196 23.5817 21.2386 23.5817C20.8527 23.5817 20.5851 23.4679 20.435 23.3178L19.6183 24.1344C20.0457 24.5618 20.6443 24.7367 21.2386 24.7367C21.8377 24.7367 22.481 24.5617 23.0741 24.2302L22.5107 23.222ZM20.435 23.3178C20.284 23.1667 20.0793 22.8198 19.8723 22.3721C19.6757 21.947 19.5102 21.5054 19.4196 21.2336L18.3239 21.5988C18.4258 21.9045 18.6067 22.3868 18.824 22.8568C19.0308 23.3042 19.3074 23.8235 19.6183 24.1344L20.435 23.3178Z" fill="black"/>
<path d="M41.9701 21.4162C41.3926 21.4162 41.9701 20.8388 41.3926 19.6838C40.9307 18.7599 40.4302 16.989 40.2377 16.219C41.0077 17.5664 42.6631 20.2613 43.1251 20.2613C43.7025 20.2613 43.7025 21.4162 43.7025 21.9937C43.7025 22.5712 44.28 23.1487 44.28 23.7261C44.28 24.3036 42.5476 24.8811 41.9701 24.8811C41.3926 24.8811 41.3926 24.3036 40.8152 24.3036C40.3532 24.3036 39.4677 24.6886 39.0827 24.8811C36.7729 26.036 35.0404 24.8811 34.463 25.4585C33.8855 26.036 30.9981 25.4585 29.8432 25.4585C28.6883 25.4585 29.2657 24.3036 28.6883 23.7261C28.1108 23.1487 29.2657 21.9937 30.4207 21.4162C31.5756 20.8388 30.9981 20.8388 32.1531 20.8388C33.308 20.8388 33.8855 20.2613 35.6179 20.2613C37.3503 20.2613 36.1954 20.8388 37.3503 20.8388C38.5053 20.8388 37.9278 20.8388 39.6602 21.4162C41.3926 21.9937 42.5476 21.4162 41.9701 21.4162Z" fill="black"/>
<path d="M40.2377 16.219C40.2377 16.219 40.2377 16.219 40.2377 16.219ZM40.2377 16.219C40.4302 16.989 40.9307 18.7599 41.3926 19.6838C41.9701 20.8388 41.3926 21.4162 41.9701 21.4162C42.5476 21.4162 41.3926 21.9937 39.6602 21.4162C37.9278 20.8388 38.5053 20.8388 37.3503 20.8388C36.1954 20.8388 37.3503 20.2613 35.6179 20.2613C33.8855 20.2613 33.308 20.8388 32.1531 20.8388C30.9981 20.8388 31.5756 20.8388 30.4207 21.4162C29.2657 21.9937 28.1108 23.1486 28.6883 23.7261C29.2657 24.3036 28.6883 25.4585 29.8432 25.4585C30.9981 25.4585 33.8855 26.036 34.463 25.4585C35.0404 24.8811 36.7729 26.036 39.0827 24.8811C39.4677 24.6886 40.3532 24.3036 40.8152 24.3036C41.3926 24.3036 41.3926 24.8811 41.9701 24.8811C42.5476 24.8811 44.28 24.3036 44.28 23.7261C44.28 23.1486 43.7025 22.5712 43.7025 21.9937C43.7025 21.4162 43.7025 20.2613 43.1251 20.2613C42.6631 20.2613 41.0077 17.5664 40.2377 16.219Z" stroke="black" stroke-width="1.15494"/>
<path d="M25.8013 12.1768C25.9938 12.1768 26.4942 12.6387 26.9562 14.4866C27.5337 16.7965 26.3787 17.9515 26.9562 19.1064C27.5337 20.2614 27.5337 19.6839 28.1111 20.2614C28.6886 20.8388 26.9562 21.4163 27.5337 23.1487" stroke="black" stroke-width="1.15494"/>
<path d="M33.5821 11.5281C33.5821 10.8825 32.9742 9.84961 30.5428 10.8825M35.4057 10.8826C36.0136 10.6674 37.3509 10.3661 37.8372 10.8826M28.1113 23.1487C29.5297 20.9968 32.6095 16.6929 33.5821 16.6929C34.7978 16.6929 36.0136 16.6929 36.6214 17.3384C37.1077 17.8549 38.8503 19.7056 39.6607 20.5664" stroke="black" stroke-width="1.15494"/>
<path d="M34.4634 12.7542C34.4634 13.1845 34.4634 14.4866 35.6487 15.3365" stroke="black" stroke-width="0.577471"/>
<path d="M32.1533 12.7542H32.7308M35.6181 12.7542H36.1956" stroke="black" stroke-width="1.15494"/>
<path d="M43.1255 25.4585C43.703 25.8863 45.4354 28.1534 45.4354 31.2332" stroke="black" stroke-width="1.15494"/>
<path d="M49.8815 38.268C48.9923 37.764 47.1461 37.218 46.5903 37.0081H46.5469L44.8579 43.9377C45.7842 43.9377 48.1031 43.8117 47.6584 43.3077C47.2138 42.8038 46.3617 42.6778 45.9911 42.6778C46.9174 42.6778 48.8811 42.5518 49.3257 42.0478C49.7704 41.5438 47.2879 40.9979 45.9911 40.7879C47.1027 40.7879 49.4369 40.6619 49.8815 40.1579C50.3261 39.6539 47.8437 39.108 46.5469 38.898C48.029 38.898 50.7707 38.772 49.8815 38.268Z" fill="#AA702C" stroke="black" stroke-width="1.15494"/>
<path d="M46.013 42.2053L45.4355 43.9377" stroke="black" stroke-width="1.15494"/>
<path d="M17.7101 23.1487C15.976 23.1487 15.3905 24.3221 14.2418 24.9844C11.9553 26.3027 13.5989 34.2745 14.8199 37.2222C15.3389 38.4753 18.0358 43.9677 18.2944 44.5151" stroke="black" stroke-width="1.15494"/>
<path d="M22.9141 39.8953C24.6465 41.0502 28.5684 41.7152 29.5315 41.756C30.8971 41.8138 31.7775 43.0179 31.5761 44.515" stroke="black" stroke-width="1.15494"/>
<path d="M30.9985 42.2053C32.1535 42.2053 36.4268 44.0532 37.3507 44.5152M31.576 43.3603C32.346 43.3603 34.0014 43.5913 34.4634 44.5152" stroke="black" stroke-width="1.15494"/>
<path d="M29.8437 26.6135C29.6513 27.961 29.6128 30.5403 30.9987 30.0784M30.9987 30.0784C31.6938 29.8466 31.1912 27.576 30.4212 26.6135M30.9987 30.0784C30.7846 31.856 33.3085 33.9765 33.3085 32.3882C33.3085 31.8108 32.1536 30.0784 30.9987 30.0784ZM40.8157 26.6135C39.6607 27.3835 37.815 28.7328 38.5058 29.5009C39.5884 30.7048 40.6022 28.5703 40.8157 26.6135Z" stroke="#B0B0B0" stroke-width="1.15494"/>
<path d="M38.506 29.5007C37.3511 29.6932 35.2721 31.4641 36.1961 32.3881C37.12 33.312 39.0834 31.2331 38.506 29.5007Z" stroke="#B0B0B0" stroke-width="1.15494"/>
<path d="M33.3086 32.3883C34.1735 31.7809 36.2701 31.3097 36.1959 32.3883C36.0679 34.25 33.9524 33.7577 33.3086 32.3883Z" stroke="#B0B0B0" stroke-width="1.15494"/>
<path d="M33.8186 32.3883L36.2589 32.3883C35.2882 32.9571 35.1162 33.418 35.0387 34.3275L36.6656 33.5518C37.5554 34.1467 37.6021 34.4858 36.6656 35.1033L35.0387 34.3275L35.8522 36.2668C35.337 37.2738 34.8355 37.2364 34.2254 36.2668L35.0387 34.3275L33.2085 35.1032C32.4951 34.4973 32.653 34.1578 33.2085 33.5518L35.0387 34.3275C34.8908 33.4178 34.6797 32.9675 33.8186 32.3883Z" fill="black"/>
<path d="M35.0387 34.3275C35.1162 33.418 35.2882 32.9571 36.2589 32.3883L33.8186 32.3883C34.6797 32.9675 34.8908 33.4178 35.0387 34.3275ZM35.0387 34.3275L36.6656 33.5518C37.5554 34.1467 37.6021 34.4858 36.6656 35.1033L35.0387 34.3275ZM35.0387 34.3275L34.2254 36.2668C34.8355 37.2364 35.337 37.2738 35.8522 36.2668L35.0387 34.3275ZM35.0387 34.3275L33.2085 35.1032C32.4951 34.4973 32.653 34.1578 33.2085 33.5518L35.0387 34.3275Z" stroke="black" stroke-width="1.15494" stroke-linejoin="bevel"/>
<g style="mix-blend-mode:multiply">
<path d="M37.9282 9.28931C38.5057 12.1767 38.1082 11.5617 39.0832 14.4865C39.8531 16.7964 40.2381 18.5289 41.9705 21.4162" stroke="#FFCB8D" stroke-opacity="0.46" stroke-width="1.15494"/>
</g>
<path d="M33.8857 17.9514H35.0407" stroke="black" stroke-width="0.577471"/>
<circle cx="46.5905" cy="34.6982" r="1.15494" fill="#6E86C4"/>
<path d="M17.7168 44.5151H44.8579" stroke="black" stroke-width="1.15494"/>
</svg>
