<svg width="61" height="91" fill="none" xmlns="http://www.w3.org/2000/svg"><rect x=".39" y=".05" width="60.06" height="90.09" rx="4.62" fill="#fff"/><mask id="a" style="mask-type:alpha" maskUnits="userSpaceOnUse" x="1" y="1" width="58" height="87"><path d="M11.28 2.36h42.24a4.04 4.04 0 0 1 4.04 4.04v64.16c0 1.24-1 2.25-2.25 2.25a3.4 3.4 0 0 0-3.35 2.81l-1.12 6.39c-.16.9.25 1.8 1.03 2.26.9.54.53 1.92-.52 1.94l-44.94.94a4.04 4.04 0 0 1-4.13-4.18l2.04-62.75a2.94 2.94 0 0 1 2.95-2.85 4.1 4.1 0 0 0 4.1-4.1V8.23c0-.96-.46-1.87-1.23-2.44a1.9 1.9 0 0 1 1.14-3.42Z" fill="#C4C4C4" stroke="#000" stroke-width="1.15"/></mask><g mask="url(#a)"><rect x="6.17" y="5.25" width="49.66" height="79.69" rx="4.04" stroke="#000" stroke-width="1.15"/></g><path d="M33.75 49.71h-5.5c2.2-1.42 2.58-2.57 2.75-4.85l-3.66 1.94c-2-1.48-2.1-2.33 0-3.88L31 44.86l-1.83-4.84c1.16-2.52 2.29-2.43 3.66 0L31 44.86l4.12-1.94c1.6 1.52 1.25 2.37 0 3.88L31 44.86c.34 2.28.81 3.4 2.75 4.85Z" fill="#000"/><path d="M31 44.86c-.17 2.28-.56 3.43-2.74 4.85h5.49c-1.94-1.45-2.41-2.57-2.75-4.85Zm0 0-3.66 1.94c-2-1.48-2.1-2.33 0-3.88L31 44.86Zm0 0 1.83-4.84c-1.37-2.43-2.5-2.52-3.66 0L31 44.86Zm0 0 4.12-1.94c1.6 1.52 1.25 2.37 0 3.88L31 44.86Z" stroke="#000" stroke-width="1.15"/><path d="M16.7 19.68h-4.88c1.94-1.13 2.28-2.06 2.44-3.87L11 17.36c-1.78-1.2-1.87-1.87 0-3.1l3.26 1.55-1.63-3.88c1.03-2.02 2.03-1.94 3.25 0l-1.62 3.88 3.66-1.56c1.42 1.22 1.1 1.9 0 3.1l-3.66-1.54c.3 1.81.71 2.72 2.44 3.87Z" fill="#000"/><path d="M14.26 15.8c-.16 1.82-.5 2.75-2.44 3.88h4.88c-1.73-1.15-2.15-2.06-2.44-3.87Zm0 0L11 17.37c-1.78-1.2-1.87-1.87 0-3.1l3.26 1.55Zm0 0 1.62-3.87c-1.22-1.94-2.22-2.02-3.25 0l1.63 3.88Zm0 0 3.66-1.55c1.42 1.22 1.1 1.9 0 3.1l-3.66-1.54Z" stroke="#000" stroke-width="1.15"/><path d="M21.59 32.39h-4.27c1.7-1 2-1.8 2.13-3.4l-2.84 1.36c-1.56-1.04-1.64-1.63 0-2.71l2.84 1.35-1.42-3.39c.9-1.76 1.78-1.7 2.85 0L19.45 29l3.2-1.36c1.25 1.06.98 1.65 0 2.71L19.46 29c.26 1.6.63 2.38 2.14 3.4Z" fill="#000"/><path d="M19.45 29c-.13 1.59-.43 2.4-2.13 3.39h4.27c-1.5-1.02-1.88-1.8-2.14-3.4Zm0 0-2.84 1.35c-1.56-1.04-1.64-1.63 0-2.71l2.84 1.35Zm0 0 1.43-3.4c-1.07-1.7-1.95-1.76-2.85 0l1.42 3.4Zm0 0 3.2-1.36c1.25 1.06.98 1.65 0 2.71L19.46 29Z" stroke="#000" stroke-width="1.15"/><path d="M40.4 32.39h4.28c-1.7-1-2-1.8-2.14-3.4l2.85 1.36c1.56-1.04 1.64-1.63 0-2.71l-2.85 1.35 1.43-3.39c-.9-1.76-1.78-1.7-2.85 0l1.42 3.4-3.2-1.36c-1.25 1.06-.97 1.65 0 2.71l3.2-1.36c-.25 1.6-.62 2.38-2.13 3.4Z" fill="#000"/><path d="M42.54 29c.14 1.59.44 2.4 2.14 3.39h-4.27c1.5-1.02 1.88-1.8 2.13-3.4Zm0 0 2.85 1.35c1.56-1.04 1.64-1.63 0-2.71l-2.85 1.35Zm0 0-1.42-3.4c1.07-1.7 1.95-1.76 2.85 0L42.54 29Zm0 0-3.2-1.36c-1.25 1.06-.97 1.65 0 2.71l3.2-1.36Z" stroke="#000" stroke-width="1.15"/><path d="M21.59 42.78h-4.27c1.7-1 2-1.8 2.13-3.4l-2.84 1.37c-1.56-1.04-1.64-1.64 0-2.72l2.84 1.36-1.42-3.4c.9-1.76 1.78-1.7 2.85 0l-1.43 3.4 3.2-1.36c1.25 1.06.98 1.66 0 2.72l-3.2-1.36c.26 1.6.63 2.38 2.14 3.4Z" fill="#000"/><path d="M19.45 39.39c-.13 1.6-.43 2.4-2.13 3.4h4.27c-1.5-1.02-1.88-1.8-2.14-3.4Zm0 0-2.84 1.36c-1.56-1.04-1.64-1.64 0-2.72l2.84 1.36Zm0 0 1.43-3.4c-1.07-1.7-1.95-1.76-2.85 0l1.42 3.4Zm0 0 3.2-1.36c1.25 1.06.98 1.66 0 2.72l-3.2-1.36Z" stroke="#000" stroke-width="1.15"/><path d="M40.4 42.78h4.28c-1.7-1-2-1.8-2.14-3.4l2.85 1.37c1.56-1.04 1.64-1.64 0-2.72l-2.85 1.36 1.43-3.4c-.9-1.76-1.78-1.7-2.85 0l1.42 3.4-3.2-1.36c-1.25 1.06-.97 1.66 0 2.72l3.2-1.36c-.25 1.6-.62 2.38-2.13 3.4Z" fill="#000"/><path d="M42.54 39.39c.14 1.6.44 2.4 2.14 3.4h-4.27c1.5-1.02 1.88-1.8 2.13-3.4Zm0 0 2.85 1.36c1.56-1.04 1.64-1.64 0-2.72l-2.85 1.36Zm0 0-1.42-3.4c1.07-1.7 1.95-1.76 2.85 0l-1.43 3.4Zm0 0-3.2-1.36c-1.25 1.06-.97 1.66 0 2.72l3.2-1.36Z" stroke="#000" stroke-width="1.15"/><path d="M21.59 57.8h-4.27c1.7 1 2 1.8 2.13 3.4l-2.84-1.37c-1.56 1.04-1.64 1.64 0 2.72l2.84-1.36-1.42 3.4c.9 1.76 1.78 1.7 2.85 0l-1.43-3.4 3.2 1.36c1.25-1.06.98-1.66 0-2.72l-3.2 1.36c.26-1.6.63-2.38 2.14-3.4Z" fill="#000"/><path d="M19.45 61.2c-.13-1.6-.43-2.4-2.13-3.4h4.27c-1.5 1.01-1.88 1.8-2.14 3.4Zm0 0-2.84-1.37c-1.56 1.04-1.64 1.64 0 2.72l2.84-1.36Zm0 0 1.43 3.38c-1.07 1.7-1.95 1.77-2.85 0l1.42-3.39Zm0 0 3.2 1.35c1.25-1.06.98-1.66 0-2.72l-3.2 1.36Z" stroke="#000" stroke-width="1.15"/><path d="M40.4 57.8h4.28c-1.7 1-2 1.8-2.14 3.4l2.85-1.37c1.56 1.04 1.64 1.64 0 2.72l-2.85-1.36 1.43 3.4c-.9 1.76-1.78 1.7-2.85 0l1.42-3.4-3.2 1.36c-1.25-1.06-.97-1.66 0-2.72l3.2 1.36c-.25-1.6-.62-2.38-2.13-3.4Z" fill="#000"/><path d="M42.54 61.2c.14-1.6.44-2.4 2.14-3.4h-4.27c1.5 1.01 1.88 1.8 2.13 3.4Zm0 0 2.85-1.37c1.56 1.04 1.64 1.64 0 2.72l-2.85-1.36Zm0 0-1.42 3.38c1.07 1.7 1.95 1.77 2.85 0l-1.43-3.39Zm0 0-3.2 1.35c-1.25-1.06-.97-1.66 0-2.72l3.2 1.36Z" stroke="#000" stroke-width="1.15"/><path d="M21.59 47.4h-4.27c1.7 1 2 1.8 2.13 3.4l-2.84-1.36c-1.56 1.04-1.64 1.63 0 2.71l2.84-1.35-1.42 3.39c.9 1.76 1.78 1.7 2.85 0l-1.43-3.4 3.2 1.36c1.25-1.06.98-1.65 0-2.71l-3.2 1.36c.26-1.6.63-2.38 2.14-3.4Z" fill="#000"/><path d="M19.45 50.8c-.13-1.6-.43-2.4-2.13-3.4h4.27c-1.5 1.02-1.88 1.8-2.14 3.4Zm0 0-2.84-1.36c-1.56 1.04-1.64 1.63 0 2.71l2.84-1.35Zm0 0 1.43 3.39c-1.07 1.7-1.95 1.76-2.85 0l1.42-3.4Zm0 0 3.2 1.35c1.25-1.06.98-1.65 0-2.71l-3.2 1.36Z" stroke="#000" stroke-width="1.15"/><path d="M40.4 47.4h4.28c-1.7 1-2 1.8-2.14 3.4l2.85-1.36c1.56 1.04 1.64 1.63 0 2.71l-2.85-1.35 1.43 3.39c-.9 1.76-1.78 1.7-2.85 0l1.42-3.4-3.2 1.36c-1.25-1.06-.97-1.65 0-2.71l3.2 1.36c-.25-1.6-.62-2.38-2.13-3.4Z" fill="#000"/><path d="M42.54 50.8c.14-1.6.44-2.4 2.14-3.4h-4.27c1.5 1.02 1.88 1.8 2.13 3.4Zm0 0 2.85-1.36c1.56 1.04 1.64 1.63 0 2.71l-2.85-1.35Zm0 0-1.42 3.39c1.07 1.7 1.95 1.76 2.85 0l-1.43-3.4Zm0 0-3.2 1.35c-1.25-1.06-.97-1.65 0-2.71l3.2 1.36Z" stroke="#000" stroke-width="1.15"/><path d="M44.15 70.5h4.88c-1.94 1.14-2.29 2.06-2.44 3.88l3.25-1.55c1.78 1.19 1.87 1.87 0 3.1l-3.25-1.55 1.62 3.88c-1.03 2.01-2.03 1.94-3.25 0l1.63-3.88-3.66 1.55c-1.43-1.21-1.12-1.89 0-3.1l3.66 1.55c-.3-1.82-.72-2.72-2.44-3.88Z" fill="#000"/><path d="M46.59 74.38c.15-1.82.5-2.74 2.44-3.88h-4.88c1.72 1.16 2.14 2.06 2.44 3.88Zm0 0 3.25-1.55c1.78 1.19 1.87 1.87 0 3.1l-3.25-1.55Zm0 0-1.63 3.88c1.22 1.94 2.22 2.01 3.25 0l-1.62-3.88Zm0 0-3.66 1.55c-1.43-1.21-1.12-1.89 0-3.1l3.66 1.55Z" stroke="#000" stroke-width="1.15"/><path d="M3.49 8.08c0-.45.05-.86.16-1.2.1-.36.26-.65.47-.9.2-.24.46-.42.77-.55a2.77 2.77 0 0 1 2.27.11c.36.2.67.51.92.92.26.41.46.93.6 1.54a9.98 9.98 0 0 1-.07 4.26c-.17.59-.4 1.06-.7 1.44a2.66 2.66 0 0 1-2.12 1.07c-.4 0-.72-.06-1-.17A1.72 1.72 0 0 1 3.65 13c0-.2.03-.37.08-.5.06-.15.14-.27.23-.36a.88.88 0 0 1 .64-.28c.12 0 .23.01.34.04a.73.73 0 0 1 .49.44c.05.11.08.26.08.43 0 .09-.02.18-.03.26l-.08.24a.83.83 0 0 1-.16.23c.06.07.13.13.2.16l.22.1.24.03c.16 0 .32-.07.48-.2.17-.15.32-.36.45-.65.14-.29.25-.66.33-1.1.1-.46.14-1 .15-1.61-.23.3-.49.52-.77.66a1.8 1.8 0 0 1-1.67.02c-.27-.12-.5-.31-.7-.56-.21-.26-.37-.58-.5-.95a4.2 4.2 0 0 1-.18-1.32ZM5.9 6.25c-.3 0-.54.16-.72.49a2.9 2.9 0 0 0-.25 1.34c0 .27.02.52.07.74.06.22.13.41.22.57.1.16.2.28.33.37.14.08.28.13.43.13.2 0 .4-.08.62-.23.22-.16.43-.4.65-.74a7.4 7.4 0 0 0-.18-1.17 3.49 3.49 0 0 0-.3-.83 1.38 1.38 0 0 0-.4-.5.75.75 0 0 0-.47-.17ZM57.36 82.1c0 .46-.06.86-.16 1.21-.11.35-.27.65-.48.89-.2.24-.46.43-.77.55a2.77 2.77 0 0 1-2.27-.11c-.36-.2-.67-.5-.92-.92-.26-.4-.45-.92-.59-1.54a9.99 9.99 0 0 1 .06-4.26c.18-.58.4-1.06.7-1.43a2.66 2.66 0 0 1 2.13-1.07c.38 0 .71.05.99.17a1.72 1.72 0 0 1 1.14 1.6c0 .2-.03.36-.08.5-.06.15-.13.27-.22.36a.88.88 0 0 1-.65.28c-.12 0-.23-.02-.33-.05a.73.73 0 0 1-.5-.43 1.03 1.03 0 0 1-.08-.44c0-.08.02-.17.04-.26.01-.07.04-.15.08-.23a.83.83 0 0 1 .15-.23.58.58 0 0 0-.2-.17 1.17 1.17 0 0 0-.46-.12.75.75 0 0 0-.48.2c-.17.14-.31.36-.45.65-.13.29-.24.65-.33 1.1-.1.45-.14.99-.15 1.6.23-.3.49-.51.77-.66.29-.14.58-.21.87-.21.28 0 .55.06.81.19s.5.32.7.57c.2.26.37.57.5.95.11.37.18.81.18 1.31Zm-2.43 1.83c.3 0 .55-.16.72-.48.17-.32.26-.77.26-1.35 0-.27-.03-.51-.08-.73a2.13 2.13 0 0 0-.22-.58c-.1-.15-.2-.27-.33-.36a.76.76 0 0 0-.43-.13c-.19 0-.4.07-.61.23-.22.15-.44.4-.65.74.03.45.1.84.17 1.17.09.33.19.61.3.83.12.22.26.39.4.5.15.1.3.16.47.16Z" fill="#000"/></svg>