<svg width="64" height="25" viewBox="0 0 64 25" fill="none" xmlns="http://www.w3.org/2000/svg">
<mask id="path-1-outside-1_1623_9714" maskUnits="userSpaceOnUse" x="0" y="0" width="64" height="25" fill="black">
<rect fill="white" width="64" height="25"/>
<path d="M12.4336 4.00781C12.3711 4.85938 12.3203 5.60547 12.2812 6.24609C12.2422 6.88672 12.2109 7.45703 12.1875 7.95703C12.1719 8.44922 12.1602 8.88672 12.1523 9.26953C12.1523 9.65234 12.1562 10.0156 12.1641 10.3594C12.1719 10.7031 12.1836 11.0469 12.1992 11.3906C12.2148 11.7266 12.2266 12.0938 12.2344 12.4922C12.25 12.8906 12.2617 13.3398 12.2695 13.8398C12.2852 14.332 12.293 14.9102 12.293 15.5742C12.293 16.3555 12.2148 17.1094 12.0586 17.8359C11.9023 18.5625 11.6367 19.207 11.2617 19.7695C10.8867 20.3242 10.3828 20.7695 9.75 21.1055C9.11719 21.4414 8.32422 21.6094 7.37109 21.6094C6.80859 21.6094 6.30859 21.543 5.87109 21.4102C5.44141 21.2773 5.0625 21.0977 4.73438 20.8711C4.41406 20.6445 4.14062 20.3789 3.91406 20.0742C3.69531 19.7695 3.51562 19.4492 3.375 19.1133C3.24219 18.7695 3.14453 18.4219 3.08203 18.0703C3.02734 17.7109 3 17.3672 3 17.0391C3 16.6016 3.07031 16.2383 3.21094 15.9492C3.35938 15.6602 3.53516 15.4297 3.73828 15.2578C3.94922 15.0859 4.16406 14.9648 4.38281 14.8945C4.60938 14.8242 4.80469 14.7891 4.96875 14.7891C5.14062 14.7891 5.33984 14.8242 5.56641 14.8945C5.80078 14.957 6.02344 15.0703 6.23438 15.2344C6.44531 15.3906 6.62109 15.5977 6.76172 15.8555C6.91016 16.1133 6.98438 16.4297 6.98438 16.8047C6.96875 17.0938 6.90625 17.3633 6.79688 17.6133C6.70312 17.8242 6.55469 18.0352 6.35156 18.2461C6.15625 18.4492 5.87109 18.5938 5.49609 18.6797C5.63672 18.9062 5.79297 19.0898 5.96484 19.2305C6.14453 19.3633 6.32422 19.4648 6.50391 19.5352C6.69141 19.6055 6.86719 19.6523 7.03125 19.6758C7.19531 19.6992 7.33203 19.7109 7.44141 19.7109C7.85547 19.7109 8.1875 19.6289 8.4375 19.4648C8.6875 19.293 8.87891 19.0586 9.01172 18.7617C9.14453 18.457 9.23047 18.1055 9.26953 17.707C9.31641 17.3008 9.33984 16.8633 9.33984 16.3945C9.33984 15.332 9.33594 14.2812 9.32812 13.2422C9.32812 12.1953 9.31641 11.1602 9.29297 10.1367C9.26953 9.11328 9.23047 8.09375 9.17578 7.07812C9.12109 6.0625 9.03906 5.05469 8.92969 4.05469C9.01562 4.07031 9.125 4.08594 9.25781 4.10156C9.46875 4.125 9.79297 4.13672 10.2305 4.13672C10.5039 4.13672 10.8242 4.12891 11.1914 4.11328C11.5586 4.09766 11.9727 4.0625 12.4336 4.00781Z"/>
<path d="M19.1944 21.5039C18.4209 21.5039 17.753 21.3359 17.1905 21C16.6358 20.6641 16.1748 20.1953 15.8077 19.5938C15.4483 18.9922 15.1827 18.2773 15.0108 17.4492C14.8389 16.6211 14.753 15.7188 14.753 14.7422C14.753 13.6094 14.8545 12.5703 15.0577 11.625C15.2608 10.6797 15.5577 9.86719 15.9483 9.1875C16.3467 8.50781 16.835 7.98047 17.4131 7.60547C17.9991 7.22266 18.6709 7.03125 19.4287 7.03125C20.1944 7.03125 20.8545 7.19141 21.4092 7.51172C21.9639 7.83203 22.4209 8.28125 22.7803 8.85938C23.1475 9.4375 23.417 10.1289 23.5889 10.9336C23.7608 11.7383 23.8467 12.625 23.8467 13.5938C23.8467 14.0938 23.8155 14.6367 23.753 15.2227C23.6983 15.8086 23.6006 16.3945 23.46 16.9805C23.3272 17.5664 23.1475 18.1328 22.9209 18.6797C22.6944 19.2188 22.4092 19.6992 22.0655 20.1211C21.7217 20.543 21.3116 20.8789 20.835 21.1289C20.3662 21.3789 19.8194 21.5039 19.1944 21.5039ZM21.0225 12.7266C21.0225 12.1328 20.9952 11.6016 20.9405 11.1328C20.8858 10.6562 20.7959 10.2539 20.6709 9.92578C20.5537 9.59766 20.4014 9.34766 20.2139 9.17578C20.0342 8.99609 19.8155 8.90625 19.5577 8.90625C19.2764 8.90625 19.0147 9.05469 18.7725 9.35156C18.5303 9.64844 18.3155 10.0781 18.128 10.6406C17.9483 11.2031 17.8038 11.8906 17.6944 12.7031C17.5928 13.5078 17.542 14.418 17.542 15.4336C17.542 16.0898 17.5733 16.6797 17.6358 17.2031C17.6983 17.7188 17.792 18.1602 17.917 18.5273C18.042 18.8867 18.1944 19.1641 18.3741 19.3594C18.5616 19.5469 18.7803 19.6406 19.0303 19.6406C19.2803 19.6406 19.503 19.5391 19.6983 19.3359C19.8936 19.125 20.0616 18.8438 20.2022 18.4922C20.3506 18.1406 20.4756 17.7344 20.5772 17.2734C20.6866 16.8047 20.7725 16.3164 20.835 15.8086C20.8975 15.293 20.9444 14.7695 20.9756 14.2383C21.0069 13.707 21.0225 13.2031 21.0225 12.7266Z"/>
<path d="M29.2247 3.04688C29.1466 4.21875 29.0802 5.28516 29.0255 6.24609C28.9708 7.19922 28.9239 8.09375 28.8848 8.92969C28.8536 9.76562 28.8302 10.5664 28.8145 11.332C28.7989 12.0977 28.7911 12.875 28.7911 13.6641C29.1661 13.25 29.5138 12.8086 29.8341 12.3398C30.1544 11.8633 30.4434 11.375 30.7013 10.875C30.9669 10.3672 31.1973 9.85156 31.3927 9.32812C31.5958 8.80469 31.7677 8.28906 31.9083 7.78125L35.0841 8.0625C34.7247 8.82031 34.3692 9.49219 34.0177 10.0781C33.6661 10.6641 33.3263 11.1797 32.9981 11.625C32.6778 12.0625 32.377 12.4336 32.0958 12.7383C31.8223 13.043 31.5763 13.293 31.3575 13.4883C31.6856 13.5977 31.9708 13.7266 32.213 13.875C32.4552 14.0234 32.6544 14.1641 32.8106 14.2969C32.9981 14.4531 33.1544 14.6172 33.2794 14.7891C33.4278 15.0312 33.545 15.3086 33.6309 15.6211C33.7247 15.9258 33.8028 16.25 33.8653 16.5938C33.9356 16.9375 34.002 17.2969 34.0645 17.6719C34.1348 18.0391 34.2208 18.4102 34.3223 18.7852C34.4239 19.1602 34.5567 19.5312 34.7208 19.8984C34.8848 20.2578 35.0997 20.6016 35.3653 20.9297H32.2481C32.0919 20.5312 31.963 20.1289 31.8614 19.7227C31.7677 19.3164 31.6895 18.9492 31.627 18.6211C31.5567 18.2383 31.5059 17.8633 31.4747 17.4961C31.4044 17.0195 31.2677 16.5938 31.0645 16.2188C30.9786 16.0547 30.8692 15.8984 30.7364 15.75C30.6114 15.5938 30.4591 15.457 30.2794 15.3398C30.1075 15.2148 29.9083 15.1172 29.6817 15.0469C29.4552 14.9688 29.1973 14.9297 28.9083 14.9297H28.7911C28.7911 15.8125 28.795 16.7539 28.8028 17.7539C28.8184 18.7539 28.8458 19.8789 28.8848 21.1289L25.9786 21.0703C26.0489 19.9688 26.1114 18.9648 26.1661 18.0586C26.2208 17.1523 26.2638 16.3047 26.295 15.5156C26.3341 14.7188 26.3614 13.9609 26.377 13.2422C26.4005 12.5234 26.4122 11.7969 26.4122 11.0625C26.4122 10.5078 26.4083 9.9375 26.4005 9.35156C26.3927 8.75781 26.377 8.13672 26.3536 7.48828C26.338 6.83203 26.3145 6.13672 26.2833 5.40234C26.252 4.66016 26.2169 3.85938 26.1778 3L29.2247 3.04688Z"/>
<path d="M45.2784 18.3164C45.2784 18.7773 45.173 19.2109 44.962 19.6172C44.7511 20.0234 44.4659 20.375 44.1066 20.6719C43.7472 20.9688 43.3253 21.2031 42.8409 21.375C42.3566 21.5469 41.8409 21.6328 41.2941 21.6328C40.9269 21.6328 40.5558 21.582 40.1808 21.4805C39.8058 21.3789 39.4464 21.2109 39.1027 20.9766C38.7589 20.7422 38.4347 20.4336 38.13 20.0508C37.8253 19.668 37.5597 19.1992 37.3331 18.6445C37.1144 18.0898 36.9386 17.4414 36.8058 16.6992C36.6808 15.9492 36.6183 15.0898 36.6183 14.1211C36.6183 13.207 36.6808 12.3984 36.8058 11.6953C36.9386 10.9922 37.1144 10.3789 37.3331 9.85547C37.5597 9.33203 37.8214 8.89453 38.1183 8.54297C38.4152 8.18359 38.7316 7.89453 39.0675 7.67578C39.4113 7.44922 39.7628 7.28906 40.1222 7.19531C40.4894 7.10156 40.8488 7.05469 41.2003 7.05469C41.7238 7.05469 42.2198 7.14062 42.6886 7.3125C43.1573 7.47656 43.5675 7.72266 43.9191 8.05078C44.2706 8.37891 44.548 8.78516 44.7511 9.26953C44.962 9.74609 45.0675 10.2969 45.0675 10.9219C45.0675 11.4844 44.9503 12.0547 44.7159 12.6328C44.4894 13.2031 44.1495 13.7461 43.6964 14.2617C43.2433 14.7695 42.6808 15.2344 42.0089 15.6562C41.3448 16.0703 40.5792 16.3984 39.712 16.6406C39.7589 17.125 39.8253 17.5664 39.9113 17.9648C40.005 18.3633 40.1183 18.7031 40.2511 18.9844C40.3917 19.2656 40.5519 19.4844 40.7316 19.6406C40.9191 19.7969 41.1339 19.875 41.3761 19.875C41.5323 19.8672 41.6808 19.8398 41.8214 19.793C41.9464 19.7539 42.0714 19.6914 42.1964 19.6055C42.3292 19.5195 42.4386 19.3945 42.5245 19.2305C42.3214 19.1367 42.1652 19.0156 42.0558 18.8672C41.9464 18.7188 41.8644 18.5781 41.8097 18.4453C41.7472 18.2891 41.712 18.125 41.7042 17.9531C41.7042 17.5781 41.7784 17.2734 41.9269 17.0391C42.0753 16.8047 42.2511 16.6211 42.4542 16.4883C42.6573 16.3555 42.8644 16.2656 43.0753 16.2188C43.2863 16.1641 43.4542 16.1367 43.5792 16.1367C43.712 16.1367 43.8722 16.1641 44.0597 16.2188C44.255 16.2734 44.4425 16.3789 44.6222 16.5352C44.8019 16.6914 44.9542 16.9141 45.0792 17.2031C45.212 17.4844 45.2784 17.8555 45.2784 18.3164ZM42.3839 10.9453C42.3839 10.6641 42.3566 10.3984 42.3019 10.1484C42.255 9.89062 42.1808 9.66797 42.0792 9.48047C41.9855 9.29297 41.8644 9.14453 41.7159 9.03516C41.5753 8.91797 41.4113 8.85938 41.2238 8.85938C40.9034 8.85938 40.6417 9.00781 40.4386 9.30469C40.2355 9.59375 40.0714 9.98047 39.9464 10.4648C39.8214 10.9492 39.7355 11.5078 39.6886 12.1406C39.6417 12.7734 39.6183 13.4336 39.6183 14.1211V14.9766C40.0167 14.7656 40.3839 14.5156 40.7198 14.2266C41.0636 13.9375 41.3566 13.6211 41.5988 13.2773C41.8488 12.9258 42.0402 12.5547 42.173 12.1641C42.3136 11.7734 42.3839 11.3672 42.3839 10.9453Z"/>
<path d="M50.5041 21.3164L47.3752 21.5508C47.5002 20.1523 47.59 18.8047 47.6447 17.5078C47.7072 16.2031 47.7384 14.8984 47.7384 13.5938C47.7384 12.6719 47.7228 11.75 47.6916 10.8281C47.6681 9.89844 47.6213 8.94531 47.5509 7.96875L50.1877 7.82812C50.172 8 50.1603 8.16797 50.1525 8.33203C50.1447 8.49609 50.1408 8.65625 50.1408 8.8125C50.4142 8.39062 50.7111 8.0625 51.0314 7.82812C51.3595 7.58594 51.6642 7.41016 51.9455 7.30078C52.2658 7.16797 52.59 7.08594 52.9181 7.05469C53.4884 7.05469 53.9767 7.14453 54.383 7.32422C54.7892 7.49609 55.1213 7.72266 55.3791 8.00391C55.6369 8.27734 55.8244 8.58594 55.9416 8.92969C56.0588 9.26562 56.1173 9.59375 56.1173 9.91406C56.1173 10.2422 56.0822 10.5742 56.0119 10.9102C55.9416 11.2461 55.8205 11.5508 55.6486 11.8242C55.4845 12.0898 55.2619 12.3086 54.9806 12.4805C54.7072 12.6445 54.3673 12.7266 53.9611 12.7266C53.5548 12.7266 53.2345 12.6523 53.0002 12.5039C52.7658 12.3555 52.5861 12.1797 52.4611 11.9766C52.3439 11.7656 52.2658 11.5508 52.2267 11.332C52.1955 11.1055 52.1798 10.9141 52.1798 10.7578C52.1798 10.6484 52.1994 10.5273 52.2384 10.3945C52.2775 10.2539 52.3361 10.1133 52.4142 9.97266C52.4923 9.83203 52.59 9.69531 52.7072 9.5625C52.8244 9.42188 52.9611 9.29297 53.1173 9.17578C53.0705 9.16016 53.0197 9.14844 52.965 9.14062C52.9181 9.13281 52.8713 9.12891 52.8244 9.12891C52.4338 9.12891 52.0861 9.25391 51.7814 9.50391C51.4767 9.74609 51.2111 10.0859 50.9845 10.5234C50.7658 10.9609 50.5822 11.4766 50.4338 12.0703C50.2931 12.6641 50.1877 13.3125 50.1173 14.0156C50.1564 15.2266 50.2111 16.4258 50.2814 17.6133C50.3517 18.8008 50.4259 20.0352 50.5041 21.3164Z"/>
<path d="M61.2609 10.5352C61.2609 10.7461 61.218 10.9453 61.132 11.1328C61.0539 11.3203 60.9445 11.4844 60.8039 11.625C60.6711 11.7578 60.5109 11.8672 60.3234 11.9531C60.1359 12.0312 59.9367 12.0703 59.7258 12.0703C59.507 12.0703 59.3039 12.0312 59.1164 11.9531C58.9289 11.8672 58.7648 11.7578 58.6242 11.625C58.4836 11.4844 58.3703 11.3203 58.2844 11.1328C58.2062 10.9453 58.1672 10.7461 58.1672 10.5352C58.1672 10.3242 58.2062 10.125 58.2844 9.9375C58.3703 9.74219 58.4836 9.57422 58.6242 9.43359C58.7648 9.29297 58.9289 9.18359 59.1164 9.10547C59.3039 9.01953 59.507 8.97656 59.7258 8.97656C59.9367 8.97656 60.1359 9.01953 60.3234 9.10547C60.5109 9.18359 60.6711 9.29297 60.8039 9.43359C60.9445 9.57422 61.0539 9.74219 61.132 9.9375C61.218 10.125 61.2609 10.3242 61.2609 10.5352ZM61.2609 19.7344C61.2609 19.9453 61.218 20.1445 61.132 20.332C61.0539 20.5117 60.9445 20.6719 60.8039 20.8125C60.6711 20.9531 60.5109 21.0625 60.3234 21.1406C60.1359 21.2266 59.9367 21.2695 59.7258 21.2695C59.507 21.2695 59.3039 21.2266 59.1164 21.1406C58.9289 21.0625 58.7648 20.9531 58.6242 20.8125C58.4836 20.6719 58.3703 20.5117 58.2844 20.332C58.2062 20.1445 58.1672 19.9453 58.1672 19.7344C58.1672 19.5156 58.2062 19.3125 58.2844 19.125C58.3703 18.9375 58.4836 18.7734 58.6242 18.6328C58.7648 18.4922 58.9289 18.3828 59.1164 18.3047C59.3039 18.2188 59.507 18.1758 59.7258 18.1758C59.9367 18.1758 60.1359 18.2188 60.3234 18.3047C60.5109 18.3828 60.6711 18.4922 60.8039 18.6328C60.9445 18.7734 61.0539 18.9375 61.132 19.125C61.218 19.3125 61.2609 19.5156 61.2609 19.7344Z"/>
</mask>
<path d="M12.4336 4.00781C12.3711 4.85938 12.3203 5.60547 12.2812 6.24609C12.2422 6.88672 12.2109 7.45703 12.1875 7.95703C12.1719 8.44922 12.1602 8.88672 12.1523 9.26953C12.1523 9.65234 12.1562 10.0156 12.1641 10.3594C12.1719 10.7031 12.1836 11.0469 12.1992 11.3906C12.2148 11.7266 12.2266 12.0938 12.2344 12.4922C12.25 12.8906 12.2617 13.3398 12.2695 13.8398C12.2852 14.332 12.293 14.9102 12.293 15.5742C12.293 16.3555 12.2148 17.1094 12.0586 17.8359C11.9023 18.5625 11.6367 19.207 11.2617 19.7695C10.8867 20.3242 10.3828 20.7695 9.75 21.1055C9.11719 21.4414 8.32422 21.6094 7.37109 21.6094C6.80859 21.6094 6.30859 21.543 5.87109 21.4102C5.44141 21.2773 5.0625 21.0977 4.73438 20.8711C4.41406 20.6445 4.14062 20.3789 3.91406 20.0742C3.69531 19.7695 3.51562 19.4492 3.375 19.1133C3.24219 18.7695 3.14453 18.4219 3.08203 18.0703C3.02734 17.7109 3 17.3672 3 17.0391C3 16.6016 3.07031 16.2383 3.21094 15.9492C3.35938 15.6602 3.53516 15.4297 3.73828 15.2578C3.94922 15.0859 4.16406 14.9648 4.38281 14.8945C4.60938 14.8242 4.80469 14.7891 4.96875 14.7891C5.14062 14.7891 5.33984 14.8242 5.56641 14.8945C5.80078 14.957 6.02344 15.0703 6.23438 15.2344C6.44531 15.3906 6.62109 15.5977 6.76172 15.8555C6.91016 16.1133 6.98438 16.4297 6.98438 16.8047C6.96875 17.0938 6.90625 17.3633 6.79688 17.6133C6.70312 17.8242 6.55469 18.0352 6.35156 18.2461C6.15625 18.4492 5.87109 18.5938 5.49609 18.6797C5.63672 18.9062 5.79297 19.0898 5.96484 19.2305C6.14453 19.3633 6.32422 19.4648 6.50391 19.5352C6.69141 19.6055 6.86719 19.6523 7.03125 19.6758C7.19531 19.6992 7.33203 19.7109 7.44141 19.7109C7.85547 19.7109 8.1875 19.6289 8.4375 19.4648C8.6875 19.293 8.87891 19.0586 9.01172 18.7617C9.14453 18.457 9.23047 18.1055 9.26953 17.707C9.31641 17.3008 9.33984 16.8633 9.33984 16.3945C9.33984 15.332 9.33594 14.2812 9.32812 13.2422C9.32812 12.1953 9.31641 11.1602 9.29297 10.1367C9.26953 9.11328 9.23047 8.09375 9.17578 7.07812C9.12109 6.0625 9.03906 5.05469 8.92969 4.05469C9.01562 4.07031 9.125 4.08594 9.25781 4.10156C9.46875 4.125 9.79297 4.13672 10.2305 4.13672C10.5039 4.13672 10.8242 4.12891 11.1914 4.11328C11.5586 4.09766 11.9727 4.0625 12.4336 4.00781Z" fill="white"/>
<path d="M19.1944 21.5039C18.4209 21.5039 17.753 21.3359 17.1905 21C16.6358 20.6641 16.1748 20.1953 15.8077 19.5938C15.4483 18.9922 15.1827 18.2773 15.0108 17.4492C14.8389 16.6211 14.753 15.7188 14.753 14.7422C14.753 13.6094 14.8545 12.5703 15.0577 11.625C15.2608 10.6797 15.5577 9.86719 15.9483 9.1875C16.3467 8.50781 16.835 7.98047 17.4131 7.60547C17.9991 7.22266 18.6709 7.03125 19.4287 7.03125C20.1944 7.03125 20.8545 7.19141 21.4092 7.51172C21.9639 7.83203 22.4209 8.28125 22.7803 8.85938C23.1475 9.4375 23.417 10.1289 23.5889 10.9336C23.7608 11.7383 23.8467 12.625 23.8467 13.5938C23.8467 14.0938 23.8155 14.6367 23.753 15.2227C23.6983 15.8086 23.6006 16.3945 23.46 16.9805C23.3272 17.5664 23.1475 18.1328 22.9209 18.6797C22.6944 19.2188 22.4092 19.6992 22.0655 20.1211C21.7217 20.543 21.3116 20.8789 20.835 21.1289C20.3662 21.3789 19.8194 21.5039 19.1944 21.5039ZM21.0225 12.7266C21.0225 12.1328 20.9952 11.6016 20.9405 11.1328C20.8858 10.6562 20.7959 10.2539 20.6709 9.92578C20.5537 9.59766 20.4014 9.34766 20.2139 9.17578C20.0342 8.99609 19.8155 8.90625 19.5577 8.90625C19.2764 8.90625 19.0147 9.05469 18.7725 9.35156C18.5303 9.64844 18.3155 10.0781 18.128 10.6406C17.9483 11.2031 17.8038 11.8906 17.6944 12.7031C17.5928 13.5078 17.542 14.418 17.542 15.4336C17.542 16.0898 17.5733 16.6797 17.6358 17.2031C17.6983 17.7188 17.792 18.1602 17.917 18.5273C18.042 18.8867 18.1944 19.1641 18.3741 19.3594C18.5616 19.5469 18.7803 19.6406 19.0303 19.6406C19.2803 19.6406 19.503 19.5391 19.6983 19.3359C19.8936 19.125 20.0616 18.8438 20.2022 18.4922C20.3506 18.1406 20.4756 17.7344 20.5772 17.2734C20.6866 16.8047 20.7725 16.3164 20.835 15.8086C20.8975 15.293 20.9444 14.7695 20.9756 14.2383C21.0069 13.707 21.0225 13.2031 21.0225 12.7266Z" fill="white"/>
<path d="M29.2247 3.04688C29.1466 4.21875 29.0802 5.28516 29.0255 6.24609C28.9708 7.19922 28.9239 8.09375 28.8848 8.92969C28.8536 9.76562 28.8302 10.5664 28.8145 11.332C28.7989 12.0977 28.7911 12.875 28.7911 13.6641C29.1661 13.25 29.5138 12.8086 29.8341 12.3398C30.1544 11.8633 30.4434 11.375 30.7013 10.875C30.9669 10.3672 31.1973 9.85156 31.3927 9.32812C31.5958 8.80469 31.7677 8.28906 31.9083 7.78125L35.0841 8.0625C34.7247 8.82031 34.3692 9.49219 34.0177 10.0781C33.6661 10.6641 33.3263 11.1797 32.9981 11.625C32.6778 12.0625 32.377 12.4336 32.0958 12.7383C31.8223 13.043 31.5763 13.293 31.3575 13.4883C31.6856 13.5977 31.9708 13.7266 32.213 13.875C32.4552 14.0234 32.6544 14.1641 32.8106 14.2969C32.9981 14.4531 33.1544 14.6172 33.2794 14.7891C33.4278 15.0312 33.545 15.3086 33.6309 15.6211C33.7247 15.9258 33.8028 16.25 33.8653 16.5938C33.9356 16.9375 34.002 17.2969 34.0645 17.6719C34.1348 18.0391 34.2208 18.4102 34.3223 18.7852C34.4239 19.1602 34.5567 19.5312 34.7208 19.8984C34.8848 20.2578 35.0997 20.6016 35.3653 20.9297H32.2481C32.0919 20.5312 31.963 20.1289 31.8614 19.7227C31.7677 19.3164 31.6895 18.9492 31.627 18.6211C31.5567 18.2383 31.5059 17.8633 31.4747 17.4961C31.4044 17.0195 31.2677 16.5938 31.0645 16.2188C30.9786 16.0547 30.8692 15.8984 30.7364 15.75C30.6114 15.5938 30.4591 15.457 30.2794 15.3398C30.1075 15.2148 29.9083 15.1172 29.6817 15.0469C29.4552 14.9688 29.1973 14.9297 28.9083 14.9297H28.7911C28.7911 15.8125 28.795 16.7539 28.8028 17.7539C28.8184 18.7539 28.8458 19.8789 28.8848 21.1289L25.9786 21.0703C26.0489 19.9688 26.1114 18.9648 26.1661 18.0586C26.2208 17.1523 26.2638 16.3047 26.295 15.5156C26.3341 14.7188 26.3614 13.9609 26.377 13.2422C26.4005 12.5234 26.4122 11.7969 26.4122 11.0625C26.4122 10.5078 26.4083 9.9375 26.4005 9.35156C26.3927 8.75781 26.377 8.13672 26.3536 7.48828C26.338 6.83203 26.3145 6.13672 26.2833 5.40234C26.252 4.66016 26.2169 3.85938 26.1778 3L29.2247 3.04688Z" fill="white"/>
<path d="M45.2784 18.3164C45.2784 18.7773 45.173 19.2109 44.962 19.6172C44.7511 20.0234 44.4659 20.375 44.1066 20.6719C43.7472 20.9688 43.3253 21.2031 42.8409 21.375C42.3566 21.5469 41.8409 21.6328 41.2941 21.6328C40.9269 21.6328 40.5558 21.582 40.1808 21.4805C39.8058 21.3789 39.4464 21.2109 39.1027 20.9766C38.7589 20.7422 38.4347 20.4336 38.13 20.0508C37.8253 19.668 37.5597 19.1992 37.3331 18.6445C37.1144 18.0898 36.9386 17.4414 36.8058 16.6992C36.6808 15.9492 36.6183 15.0898 36.6183 14.1211C36.6183 13.207 36.6808 12.3984 36.8058 11.6953C36.9386 10.9922 37.1144 10.3789 37.3331 9.85547C37.5597 9.33203 37.8214 8.89453 38.1183 8.54297C38.4152 8.18359 38.7316 7.89453 39.0675 7.67578C39.4113 7.44922 39.7628 7.28906 40.1222 7.19531C40.4894 7.10156 40.8488 7.05469 41.2003 7.05469C41.7238 7.05469 42.2198 7.14062 42.6886 7.3125C43.1573 7.47656 43.5675 7.72266 43.9191 8.05078C44.2706 8.37891 44.548 8.78516 44.7511 9.26953C44.962 9.74609 45.0675 10.2969 45.0675 10.9219C45.0675 11.4844 44.9503 12.0547 44.7159 12.6328C44.4894 13.2031 44.1495 13.7461 43.6964 14.2617C43.2433 14.7695 42.6808 15.2344 42.0089 15.6562C41.3448 16.0703 40.5792 16.3984 39.712 16.6406C39.7589 17.125 39.8253 17.5664 39.9113 17.9648C40.005 18.3633 40.1183 18.7031 40.2511 18.9844C40.3917 19.2656 40.5519 19.4844 40.7316 19.6406C40.9191 19.7969 41.1339 19.875 41.3761 19.875C41.5323 19.8672 41.6808 19.8398 41.8214 19.793C41.9464 19.7539 42.0714 19.6914 42.1964 19.6055C42.3292 19.5195 42.4386 19.3945 42.5245 19.2305C42.3214 19.1367 42.1652 19.0156 42.0558 18.8672C41.9464 18.7188 41.8644 18.5781 41.8097 18.4453C41.7472 18.2891 41.712 18.125 41.7042 17.9531C41.7042 17.5781 41.7784 17.2734 41.9269 17.0391C42.0753 16.8047 42.2511 16.6211 42.4542 16.4883C42.6573 16.3555 42.8644 16.2656 43.0753 16.2188C43.2863 16.1641 43.4542 16.1367 43.5792 16.1367C43.712 16.1367 43.8722 16.1641 44.0597 16.2188C44.255 16.2734 44.4425 16.3789 44.6222 16.5352C44.8019 16.6914 44.9542 16.9141 45.0792 17.2031C45.212 17.4844 45.2784 17.8555 45.2784 18.3164ZM42.3839 10.9453C42.3839 10.6641 42.3566 10.3984 42.3019 10.1484C42.255 9.89062 42.1808 9.66797 42.0792 9.48047C41.9855 9.29297 41.8644 9.14453 41.7159 9.03516C41.5753 8.91797 41.4113 8.85938 41.2238 8.85938C40.9034 8.85938 40.6417 9.00781 40.4386 9.30469C40.2355 9.59375 40.0714 9.98047 39.9464 10.4648C39.8214 10.9492 39.7355 11.5078 39.6886 12.1406C39.6417 12.7734 39.6183 13.4336 39.6183 14.1211V14.9766C40.0167 14.7656 40.3839 14.5156 40.7198 14.2266C41.0636 13.9375 41.3566 13.6211 41.5988 13.2773C41.8488 12.9258 42.0402 12.5547 42.173 12.1641C42.3136 11.7734 42.3839 11.3672 42.3839 10.9453Z" fill="white"/>
<path d="M50.5041 21.3164L47.3752 21.5508C47.5002 20.1523 47.59 18.8047 47.6447 17.5078C47.7072 16.2031 47.7384 14.8984 47.7384 13.5938C47.7384 12.6719 47.7228 11.75 47.6916 10.8281C47.6681 9.89844 47.6213 8.94531 47.5509 7.96875L50.1877 7.82812C50.172 8 50.1603 8.16797 50.1525 8.33203C50.1447 8.49609 50.1408 8.65625 50.1408 8.8125C50.4142 8.39062 50.7111 8.0625 51.0314 7.82812C51.3595 7.58594 51.6642 7.41016 51.9455 7.30078C52.2658 7.16797 52.59 7.08594 52.9181 7.05469C53.4884 7.05469 53.9767 7.14453 54.383 7.32422C54.7892 7.49609 55.1213 7.72266 55.3791 8.00391C55.6369 8.27734 55.8244 8.58594 55.9416 8.92969C56.0588 9.26562 56.1173 9.59375 56.1173 9.91406C56.1173 10.2422 56.0822 10.5742 56.0119 10.9102C55.9416 11.2461 55.8205 11.5508 55.6486 11.8242C55.4845 12.0898 55.2619 12.3086 54.9806 12.4805C54.7072 12.6445 54.3673 12.7266 53.9611 12.7266C53.5548 12.7266 53.2345 12.6523 53.0002 12.5039C52.7658 12.3555 52.5861 12.1797 52.4611 11.9766C52.3439 11.7656 52.2658 11.5508 52.2267 11.332C52.1955 11.1055 52.1798 10.9141 52.1798 10.7578C52.1798 10.6484 52.1994 10.5273 52.2384 10.3945C52.2775 10.2539 52.3361 10.1133 52.4142 9.97266C52.4923 9.83203 52.59 9.69531 52.7072 9.5625C52.8244 9.42188 52.9611 9.29297 53.1173 9.17578C53.0705 9.16016 53.0197 9.14844 52.965 9.14062C52.9181 9.13281 52.8713 9.12891 52.8244 9.12891C52.4338 9.12891 52.0861 9.25391 51.7814 9.50391C51.4767 9.74609 51.2111 10.0859 50.9845 10.5234C50.7658 10.9609 50.5822 11.4766 50.4338 12.0703C50.2931 12.6641 50.1877 13.3125 50.1173 14.0156C50.1564 15.2266 50.2111 16.4258 50.2814 17.6133C50.3517 18.8008 50.4259 20.0352 50.5041 21.3164Z" fill="white"/>
<path d="M61.2609 10.5352C61.2609 10.7461 61.218 10.9453 61.132 11.1328C61.0539 11.3203 60.9445 11.4844 60.8039 11.625C60.6711 11.7578 60.5109 11.8672 60.3234 11.9531C60.1359 12.0312 59.9367 12.0703 59.7258 12.0703C59.507 12.0703 59.3039 12.0312 59.1164 11.9531C58.9289 11.8672 58.7648 11.7578 58.6242 11.625C58.4836 11.4844 58.3703 11.3203 58.2844 11.1328C58.2062 10.9453 58.1672 10.7461 58.1672 10.5352C58.1672 10.3242 58.2062 10.125 58.2844 9.9375C58.3703 9.74219 58.4836 9.57422 58.6242 9.43359C58.7648 9.29297 58.9289 9.18359 59.1164 9.10547C59.3039 9.01953 59.507 8.97656 59.7258 8.97656C59.9367 8.97656 60.1359 9.01953 60.3234 9.10547C60.5109 9.18359 60.6711 9.29297 60.8039 9.43359C60.9445 9.57422 61.0539 9.74219 61.132 9.9375C61.218 10.125 61.2609 10.3242 61.2609 10.5352ZM61.2609 19.7344C61.2609 19.9453 61.218 20.1445 61.132 20.332C61.0539 20.5117 60.9445 20.6719 60.8039 20.8125C60.6711 20.9531 60.5109 21.0625 60.3234 21.1406C60.1359 21.2266 59.9367 21.2695 59.7258 21.2695C59.507 21.2695 59.3039 21.2266 59.1164 21.1406C58.9289 21.0625 58.7648 20.9531 58.6242 20.8125C58.4836 20.6719 58.3703 20.5117 58.2844 20.332C58.2062 20.1445 58.1672 19.9453 58.1672 19.7344C58.1672 19.5156 58.2062 19.3125 58.2844 19.125C58.3703 18.9375 58.4836 18.7734 58.6242 18.6328C58.7648 18.4922 58.9289 18.3828 59.1164 18.3047C59.3039 18.2188 59.507 18.1758 59.7258 18.1758C59.9367 18.1758 60.1359 18.2188 60.3234 18.3047C60.5109 18.3828 60.6711 18.4922 60.8039 18.6328C60.9445 18.7734 61.0539 18.9375 61.132 19.125C61.218 19.3125 61.2609 19.5156 61.2609 19.7344Z" fill="white"/>
<path d="M12.4336 4.00781C12.3711 4.85938 12.3203 5.60547 12.2812 6.24609C12.2422 6.88672 12.2109 7.45703 12.1875 7.95703C12.1719 8.44922 12.1602 8.88672 12.1523 9.26953C12.1523 9.65234 12.1562 10.0156 12.1641 10.3594C12.1719 10.7031 12.1836 11.0469 12.1992 11.3906C12.2148 11.7266 12.2266 12.0938 12.2344 12.4922C12.25 12.8906 12.2617 13.3398 12.2695 13.8398C12.2852 14.332 12.293 14.9102 12.293 15.5742C12.293 16.3555 12.2148 17.1094 12.0586 17.8359C11.9023 18.5625 11.6367 19.207 11.2617 19.7695C10.8867 20.3242 10.3828 20.7695 9.75 21.1055C9.11719 21.4414 8.32422 21.6094 7.37109 21.6094C6.80859 21.6094 6.30859 21.543 5.87109 21.4102C5.44141 21.2773 5.0625 21.0977 4.73438 20.8711C4.41406 20.6445 4.14062 20.3789 3.91406 20.0742C3.69531 19.7695 3.51562 19.4492 3.375 19.1133C3.24219 18.7695 3.14453 18.4219 3.08203 18.0703C3.02734 17.7109 3 17.3672 3 17.0391C3 16.6016 3.07031 16.2383 3.21094 15.9492C3.35938 15.6602 3.53516 15.4297 3.73828 15.2578C3.94922 15.0859 4.16406 14.9648 4.38281 14.8945C4.60938 14.8242 4.80469 14.7891 4.96875 14.7891C5.14062 14.7891 5.33984 14.8242 5.56641 14.8945C5.80078 14.957 6.02344 15.0703 6.23438 15.2344C6.44531 15.3906 6.62109 15.5977 6.76172 15.8555C6.91016 16.1133 6.98438 16.4297 6.98438 16.8047C6.96875 17.0938 6.90625 17.3633 6.79688 17.6133C6.70312 17.8242 6.55469 18.0352 6.35156 18.2461C6.15625 18.4492 5.87109 18.5938 5.49609 18.6797C5.63672 18.9062 5.79297 19.0898 5.96484 19.2305C6.14453 19.3633 6.32422 19.4648 6.50391 19.5352C6.69141 19.6055 6.86719 19.6523 7.03125 19.6758C7.19531 19.6992 7.33203 19.7109 7.44141 19.7109C7.85547 19.7109 8.1875 19.6289 8.4375 19.4648C8.6875 19.293 8.87891 19.0586 9.01172 18.7617C9.14453 18.457 9.23047 18.1055 9.26953 17.707C9.31641 17.3008 9.33984 16.8633 9.33984 16.3945C9.33984 15.332 9.33594 14.2812 9.32812 13.2422C9.32812 12.1953 9.31641 11.1602 9.29297 10.1367C9.26953 9.11328 9.23047 8.09375 9.17578 7.07812C9.12109 6.0625 9.03906 5.05469 8.92969 4.05469C9.01562 4.07031 9.125 4.08594 9.25781 4.10156C9.46875 4.125 9.79297 4.13672 10.2305 4.13672C10.5039 4.13672 10.8242 4.12891 11.1914 4.11328C11.5586 4.09766 11.9727 4.0625 12.4336 4.00781Z" stroke="black" stroke-width="4.59152" mask="url(#path-1-outside-1_1623_9714)"/>
<path d="M19.1944 21.5039C18.4209 21.5039 17.753 21.3359 17.1905 21C16.6358 20.6641 16.1748 20.1953 15.8077 19.5938C15.4483 18.9922 15.1827 18.2773 15.0108 17.4492C14.8389 16.6211 14.753 15.7188 14.753 14.7422C14.753 13.6094 14.8545 12.5703 15.0577 11.625C15.2608 10.6797 15.5577 9.86719 15.9483 9.1875C16.3467 8.50781 16.835 7.98047 17.4131 7.60547C17.9991 7.22266 18.6709 7.03125 19.4287 7.03125C20.1944 7.03125 20.8545 7.19141 21.4092 7.51172C21.9639 7.83203 22.4209 8.28125 22.7803 8.85938C23.1475 9.4375 23.417 10.1289 23.5889 10.9336C23.7608 11.7383 23.8467 12.625 23.8467 13.5938C23.8467 14.0938 23.8155 14.6367 23.753 15.2227C23.6983 15.8086 23.6006 16.3945 23.46 16.9805C23.3272 17.5664 23.1475 18.1328 22.9209 18.6797C22.6944 19.2188 22.4092 19.6992 22.0655 20.1211C21.7217 20.543 21.3116 20.8789 20.835 21.1289C20.3662 21.3789 19.8194 21.5039 19.1944 21.5039ZM21.0225 12.7266C21.0225 12.1328 20.9952 11.6016 20.9405 11.1328C20.8858 10.6562 20.7959 10.2539 20.6709 9.92578C20.5537 9.59766 20.4014 9.34766 20.2139 9.17578C20.0342 8.99609 19.8155 8.90625 19.5577 8.90625C19.2764 8.90625 19.0147 9.05469 18.7725 9.35156C18.5303 9.64844 18.3155 10.0781 18.128 10.6406C17.9483 11.2031 17.8038 11.8906 17.6944 12.7031C17.5928 13.5078 17.542 14.418 17.542 15.4336C17.542 16.0898 17.5733 16.6797 17.6358 17.2031C17.6983 17.7188 17.792 18.1602 17.917 18.5273C18.042 18.8867 18.1944 19.1641 18.3741 19.3594C18.5616 19.5469 18.7803 19.6406 19.0303 19.6406C19.2803 19.6406 19.503 19.5391 19.6983 19.3359C19.8936 19.125 20.0616 18.8438 20.2022 18.4922C20.3506 18.1406 20.4756 17.7344 20.5772 17.2734C20.6866 16.8047 20.7725 16.3164 20.835 15.8086C20.8975 15.293 20.9444 14.7695 20.9756 14.2383C21.0069 13.707 21.0225 13.2031 21.0225 12.7266Z" stroke="black" stroke-width="4.59152" mask="url(#path-1-outside-1_1623_9714)"/>
<path d="M29.2247 3.04688C29.1466 4.21875 29.0802 5.28516 29.0255 6.24609C28.9708 7.19922 28.9239 8.09375 28.8848 8.92969C28.8536 9.76562 28.8302 10.5664 28.8145 11.332C28.7989 12.0977 28.7911 12.875 28.7911 13.6641C29.1661 13.25 29.5138 12.8086 29.8341 12.3398C30.1544 11.8633 30.4434 11.375 30.7013 10.875C30.9669 10.3672 31.1973 9.85156 31.3927 9.32812C31.5958 8.80469 31.7677 8.28906 31.9083 7.78125L35.0841 8.0625C34.7247 8.82031 34.3692 9.49219 34.0177 10.0781C33.6661 10.6641 33.3263 11.1797 32.9981 11.625C32.6778 12.0625 32.377 12.4336 32.0958 12.7383C31.8223 13.043 31.5763 13.293 31.3575 13.4883C31.6856 13.5977 31.9708 13.7266 32.213 13.875C32.4552 14.0234 32.6544 14.1641 32.8106 14.2969C32.9981 14.4531 33.1544 14.6172 33.2794 14.7891C33.4278 15.0312 33.545 15.3086 33.6309 15.6211C33.7247 15.9258 33.8028 16.25 33.8653 16.5938C33.9356 16.9375 34.002 17.2969 34.0645 17.6719C34.1348 18.0391 34.2208 18.4102 34.3223 18.7852C34.4239 19.1602 34.5567 19.5312 34.7208 19.8984C34.8848 20.2578 35.0997 20.6016 35.3653 20.9297H32.2481C32.0919 20.5312 31.963 20.1289 31.8614 19.7227C31.7677 19.3164 31.6895 18.9492 31.627 18.6211C31.5567 18.2383 31.5059 17.8633 31.4747 17.4961C31.4044 17.0195 31.2677 16.5938 31.0645 16.2188C30.9786 16.0547 30.8692 15.8984 30.7364 15.75C30.6114 15.5938 30.4591 15.457 30.2794 15.3398C30.1075 15.2148 29.9083 15.1172 29.6817 15.0469C29.4552 14.9688 29.1973 14.9297 28.9083 14.9297H28.7911C28.7911 15.8125 28.795 16.7539 28.8028 17.7539C28.8184 18.7539 28.8458 19.8789 28.8848 21.1289L25.9786 21.0703C26.0489 19.9688 26.1114 18.9648 26.1661 18.0586C26.2208 17.1523 26.2638 16.3047 26.295 15.5156C26.3341 14.7188 26.3614 13.9609 26.377 13.2422C26.4005 12.5234 26.4122 11.7969 26.4122 11.0625C26.4122 10.5078 26.4083 9.9375 26.4005 9.35156C26.3927 8.75781 26.377 8.13672 26.3536 7.48828C26.338 6.83203 26.3145 6.13672 26.2833 5.40234C26.252 4.66016 26.2169 3.85938 26.1778 3L29.2247 3.04688Z" stroke="black" stroke-width="4.59152" mask="url(#path-1-outside-1_1623_9714)"/>
<path d="M45.2784 18.3164C45.2784 18.7773 45.173 19.2109 44.962 19.6172C44.7511 20.0234 44.4659 20.375 44.1066 20.6719C43.7472 20.9688 43.3253 21.2031 42.8409 21.375C42.3566 21.5469 41.8409 21.6328 41.2941 21.6328C40.9269 21.6328 40.5558 21.582 40.1808 21.4805C39.8058 21.3789 39.4464 21.2109 39.1027 20.9766C38.7589 20.7422 38.4347 20.4336 38.13 20.0508C37.8253 19.668 37.5597 19.1992 37.3331 18.6445C37.1144 18.0898 36.9386 17.4414 36.8058 16.6992C36.6808 15.9492 36.6183 15.0898 36.6183 14.1211C36.6183 13.207 36.6808 12.3984 36.8058 11.6953C36.9386 10.9922 37.1144 10.3789 37.3331 9.85547C37.5597 9.33203 37.8214 8.89453 38.1183 8.54297C38.4152 8.18359 38.7316 7.89453 39.0675 7.67578C39.4113 7.44922 39.7628 7.28906 40.1222 7.19531C40.4894 7.10156 40.8488 7.05469 41.2003 7.05469C41.7238 7.05469 42.2198 7.14062 42.6886 7.3125C43.1573 7.47656 43.5675 7.72266 43.9191 8.05078C44.2706 8.37891 44.548 8.78516 44.7511 9.26953C44.962 9.74609 45.0675 10.2969 45.0675 10.9219C45.0675 11.4844 44.9503 12.0547 44.7159 12.6328C44.4894 13.2031 44.1495 13.7461 43.6964 14.2617C43.2433 14.7695 42.6808 15.2344 42.0089 15.6562C41.3448 16.0703 40.5792 16.3984 39.712 16.6406C39.7589 17.125 39.8253 17.5664 39.9113 17.9648C40.005 18.3633 40.1183 18.7031 40.2511 18.9844C40.3917 19.2656 40.5519 19.4844 40.7316 19.6406C40.9191 19.7969 41.1339 19.875 41.3761 19.875C41.5323 19.8672 41.6808 19.8398 41.8214 19.793C41.9464 19.7539 42.0714 19.6914 42.1964 19.6055C42.3292 19.5195 42.4386 19.3945 42.5245 19.2305C42.3214 19.1367 42.1652 19.0156 42.0558 18.8672C41.9464 18.7188 41.8644 18.5781 41.8097 18.4453C41.7472 18.2891 41.712 18.125 41.7042 17.9531C41.7042 17.5781 41.7784 17.2734 41.9269 17.0391C42.0753 16.8047 42.2511 16.6211 42.4542 16.4883C42.6573 16.3555 42.8644 16.2656 43.0753 16.2188C43.2863 16.1641 43.4542 16.1367 43.5792 16.1367C43.712 16.1367 43.8722 16.1641 44.0597 16.2188C44.255 16.2734 44.4425 16.3789 44.6222 16.5352C44.8019 16.6914 44.9542 16.9141 45.0792 17.2031C45.212 17.4844 45.2784 17.8555 45.2784 18.3164ZM42.3839 10.9453C42.3839 10.6641 42.3566 10.3984 42.3019 10.1484C42.255 9.89062 42.1808 9.66797 42.0792 9.48047C41.9855 9.29297 41.8644 9.14453 41.7159 9.03516C41.5753 8.91797 41.4113 8.85938 41.2238 8.85938C40.9034 8.85938 40.6417 9.00781 40.4386 9.30469C40.2355 9.59375 40.0714 9.98047 39.9464 10.4648C39.8214 10.9492 39.7355 11.5078 39.6886 12.1406C39.6417 12.7734 39.6183 13.4336 39.6183 14.1211V14.9766C40.0167 14.7656 40.3839 14.5156 40.7198 14.2266C41.0636 13.9375 41.3566 13.6211 41.5988 13.2773C41.8488 12.9258 42.0402 12.5547 42.173 12.1641C42.3136 11.7734 42.3839 11.3672 42.3839 10.9453Z" stroke="black" stroke-width="4.59152" mask="url(#path-1-outside-1_1623_9714)"/>
<path d="M50.5041 21.3164L47.3752 21.5508C47.5002 20.1523 47.59 18.8047 47.6447 17.5078C47.7072 16.2031 47.7384 14.8984 47.7384 13.5938C47.7384 12.6719 47.7228 11.75 47.6916 10.8281C47.6681 9.89844 47.6213 8.94531 47.5509 7.96875L50.1877 7.82812C50.172 8 50.1603 8.16797 50.1525 8.33203C50.1447 8.49609 50.1408 8.65625 50.1408 8.8125C50.4142 8.39062 50.7111 8.0625 51.0314 7.82812C51.3595 7.58594 51.6642 7.41016 51.9455 7.30078C52.2658 7.16797 52.59 7.08594 52.9181 7.05469C53.4884 7.05469 53.9767 7.14453 54.383 7.32422C54.7892 7.49609 55.1213 7.72266 55.3791 8.00391C55.6369 8.27734 55.8244 8.58594 55.9416 8.92969C56.0588 9.26562 56.1173 9.59375 56.1173 9.91406C56.1173 10.2422 56.0822 10.5742 56.0119 10.9102C55.9416 11.2461 55.8205 11.5508 55.6486 11.8242C55.4845 12.0898 55.2619 12.3086 54.9806 12.4805C54.7072 12.6445 54.3673 12.7266 53.9611 12.7266C53.5548 12.7266 53.2345 12.6523 53.0002 12.5039C52.7658 12.3555 52.5861 12.1797 52.4611 11.9766C52.3439 11.7656 52.2658 11.5508 52.2267 11.332C52.1955 11.1055 52.1798 10.9141 52.1798 10.7578C52.1798 10.6484 52.1994 10.5273 52.2384 10.3945C52.2775 10.2539 52.3361 10.1133 52.4142 9.97266C52.4923 9.83203 52.59 9.69531 52.7072 9.5625C52.8244 9.42188 52.9611 9.29297 53.1173 9.17578C53.0705 9.16016 53.0197 9.14844 52.965 9.14062C52.9181 9.13281 52.8713 9.12891 52.8244 9.12891C52.4338 9.12891 52.0861 9.25391 51.7814 9.50391C51.4767 9.74609 51.2111 10.0859 50.9845 10.5234C50.7658 10.9609 50.5822 11.4766 50.4338 12.0703C50.2931 12.6641 50.1877 13.3125 50.1173 14.0156C50.1564 15.2266 50.2111 16.4258 50.2814 17.6133C50.3517 18.8008 50.4259 20.0352 50.5041 21.3164Z" stroke="black" stroke-width="4.59152" mask="url(#path-1-outside-1_1623_9714)"/>
<path d="M61.2609 10.5352C61.2609 10.7461 61.218 10.9453 61.132 11.1328C61.0539 11.3203 60.9445 11.4844 60.8039 11.625C60.6711 11.7578 60.5109 11.8672 60.3234 11.9531C60.1359 12.0312 59.9367 12.0703 59.7258 12.0703C59.507 12.0703 59.3039 12.0312 59.1164 11.9531C58.9289 11.8672 58.7648 11.7578 58.6242 11.625C58.4836 11.4844 58.3703 11.3203 58.2844 11.1328C58.2062 10.9453 58.1672 10.7461 58.1672 10.5352C58.1672 10.3242 58.2062 10.125 58.2844 9.9375C58.3703 9.74219 58.4836 9.57422 58.6242 9.43359C58.7648 9.29297 58.9289 9.18359 59.1164 9.10547C59.3039 9.01953 59.507 8.97656 59.7258 8.97656C59.9367 8.97656 60.1359 9.01953 60.3234 9.10547C60.5109 9.18359 60.6711 9.29297 60.8039 9.43359C60.9445 9.57422 61.0539 9.74219 61.132 9.9375C61.218 10.125 61.2609 10.3242 61.2609 10.5352ZM61.2609 19.7344C61.2609 19.9453 61.218 20.1445 61.132 20.332C61.0539 20.5117 60.9445 20.6719 60.8039 20.8125C60.6711 20.9531 60.5109 21.0625 60.3234 21.1406C60.1359 21.2266 59.9367 21.2695 59.7258 21.2695C59.507 21.2695 59.3039 21.2266 59.1164 21.1406C58.9289 21.0625 58.7648 20.9531 58.6242 20.8125C58.4836 20.6719 58.3703 20.5117 58.2844 20.332C58.2062 20.1445 58.1672 19.9453 58.1672 19.7344C58.1672 19.5156 58.2062 19.3125 58.2844 19.125C58.3703 18.9375 58.4836 18.7734 58.6242 18.6328C58.7648 18.4922 58.9289 18.3828 59.1164 18.3047C59.3039 18.2188 59.507 18.1758 59.7258 18.1758C59.9367 18.1758 60.1359 18.2188 60.3234 18.3047C60.5109 18.3828 60.6711 18.4922 60.8039 18.6328C60.9445 18.7734 61.0539 18.9375 61.132 19.125C61.218 19.3125 61.2609 19.5156 61.2609 19.7344Z" stroke="black" stroke-width="4.59152" mask="url(#path-1-outside-1_1623_9714)"/>
</svg>
