<svg width="61" height="91" fill="none" xmlns="http://www.w3.org/2000/svg"><rect x=".39" y=".05" width="60.06" height="90.09" rx="4.62" fill="#fff"/><mask id="a" style="mask-type:alpha" maskUnits="userSpaceOnUse" x="1" y="1" width="58" height="87"><path d="M11.28 2.36h42.24a4.04 4.04 0 0 1 4.04 4.04V67.7c0 .91-.74 1.66-1.66 1.66-1.32 0-2.47.92-2.75 2.21l-2.26 10.4c-.2.91.2 1.85 1.01 2.33.89.54.53 1.9-.5 1.92l-44.98.94a4.04 4.04 0 0 1-4.13-4.18l2.03-59.29a2.95 2.95 0 0 1 2.94-2.84 4.1 4.1 0 0 0 4.1-4.1V8.22c0-.96-.45-1.87-1.22-2.44a1.9 1.9 0 0 1 1.14-3.42Z" fill="#C4C4C4" stroke="#000" stroke-width="1.15"/></mask><g mask="url(#a)"><rect x="6.17" y="5.25" width="49.66" height="79.69" rx="4.04" stroke="#000" stroke-width="1.15"/></g><path d="M6.17 45.1h49.66" stroke="#000" stroke-width="1.15"/><path d="M16.7 18.53h-4.88c1.94-1.14 2.28-2.06 2.44-3.88L11 16.2c-1.78-1.19-1.87-1.87 0-3.1l3.26 1.55-1.63-3.88c1.03-2.01 2.03-1.94 3.25 0l-1.62 3.88 3.66-1.55c1.42 1.21 1.1 1.89 0 3.1l-3.66-1.55c.3 1.82.71 2.72 2.44 3.88Z" fill="#000"/><path d="M14.26 14.65c-.16 1.82-.5 2.74-2.44 3.88h4.88c-1.73-1.16-2.15-2.06-2.44-3.88Zm0 0L11 16.2c-1.78-1.19-1.87-1.87 0-3.1l3.26 1.55Zm0 0 1.62-3.88c-1.22-1.94-2.22-2.01-3.25 0l1.63 3.88Zm0 0 3.66-1.55c1.42 1.21 1.1 1.89 0 3.1l-3.66-1.55Z" stroke="#000" stroke-width="1.15"/><path d="M44.15 71.66h4.88c-1.94 1.13-2.29 2.06-2.44 3.87l3.25-1.55c1.78 1.2 1.87 1.87 0 3.1l-3.25-1.55 1.62 3.88c-1.03 2.02-2.03 1.94-3.25 0l1.63-3.88-3.66 1.56c-1.43-1.22-1.12-1.9 0-3.1l3.66 1.54c-.3-1.81-.72-2.72-2.44-3.87Z" fill="#000"/><path d="M46.59 75.53c.15-1.81.5-2.74 2.44-3.87h-4.88c1.72 1.15 2.14 2.06 2.44 3.87Zm0 0 3.25-1.55c1.78 1.2 1.87 1.87 0 3.1l-3.25-1.55Zm0 0-1.63 3.88c1.22 1.94 2.22 2.02 3.25 0l-1.62-3.88Zm0 0-3.66 1.56c-1.43-1.22-1.12-1.9 0-3.1l3.66 1.54Z" stroke="#000" stroke-width="1.15"/><path d="M4.78 17.93a7.25 7.25 0 0 1-.65-.02 21.87 21.87 0 0 0-1.48.06 58.4 58.4 0 0 0 .25-4l.04-1.81a50.86 50.86 0 0 0-.26-5.05l.57.03H4.17a19.3 19.3 0 0 0 .6-.03 59.52 59.52 0 0 0-.18 4.94v.45a9.17 9.17 0 0 0 1.48-2.54 8.73 8.73 0 0 0 .57-2.8v-.24l2.5.22a141.95 141.95 0 0 0-2.83 5.21c.35.1.62.23.83.4.22.15.39.34.51.56.12.21.2.45.26.7.05.26.1.53.12.8l.08.83a4.99 4.99 0 0 0 .32 1.28 5.1 5.1 0 0 0 .64 1L7 17.98a1.3 1.3 0 0 1-.27-.45 4.1 4.1 0 0 1-.27-1.21l-.05-.79a8.45 8.45 0 0 0-.15-1.36c-.04-.2-.12-.36-.23-.5-.1-.14-.25-.25-.43-.33a1.7 1.7 0 0 0-.85-.11l-.16.02.05 2c.03.8.08 1.7.14 2.69ZM56.07 71.1a7.25 7.25 0 0 1 .64.02 21.44 21.44 0 0 0 1.48-.06 58.45 58.45 0 0 0-.25 4l-.03 1.81a51 51 0 0 0 .25 5.05l-.57-.03H56.67a19.48 19.48 0 0 0-.59.03 59.7 59.7 0 0 0 .18-4.94v-.45a9.17 9.17 0 0 0-1.48 2.54 8.72 8.72 0 0 0-.58 2.8v.24l-2.49-.22a142.44 142.44 0 0 0 2.82-5.21c-.34-.1-.62-.23-.83-.4a1.84 1.84 0 0 1-.5-.56c-.13-.21-.22-.45-.26-.7-.06-.26-.1-.53-.13-.8l-.08-.83a4.98 4.98 0 0 0-.32-1.28 5.09 5.09 0 0 0-.64-1l2.07-.05c.11.11.2.26.28.45a4.1 4.1 0 0 1 .26 1.21l.05.79a8.47 8.47 0 0 0 .15 1.36c.05.2.12.36.23.5.11.14.25.25.43.33a1.7 1.7 0 0 0 .85.11l.17-.02-.06-2-.13-2.69Z" fill="#000"/><path d="m43.74 66.72.4-.13c1-.81-.6-5.19-1.55-5.65-1.65-.8-3.24-8.74-3.47-11.55-5.73-1-8.7-1.66-12.12-3.46l16.74-.58c1.54 2.7 4.3 9.3 5.2 13.86 1.08 5.38-2.86 6.75-4.8 7.38a.6.6 0 0 1-.4.13Z" fill="#B02929"/><path d="M9.67 48.81c0 1.16 0 2.9 5.78 5.2l1.73-8.08c-2.5.77-7.5-.06-7.5 2.88Z" fill="#B02929" stroke="#000" stroke-width="1.15"/><path d="M22.95 45.35c1.04 0 9.24 2.89 15.02 4.04 1.15 2.89 2.3 8.66 5.77 13.28.47.93.58 2.31 0 4.05l-5.77-.58c-1.73-4.62-5.2-14.44-9.82-16.75-2.89.58-6.25 1.17-7.5 10.4-.73 5.31-1.3 4.65-2.29 3.5l-.02-.04c-.68-.78-2.5-5.77-2.9-8.66l1.74-9.24c1.73-.58 4.04 0 5.77 0Z" fill="#3076FF"/><path d="M30.67 51.25c1.95.99 5.3 9.9 6.72 14.23L16.6 66.72c0-.62 2.86-2.27 3.67-3.1.4-2.47 1.47-8.04 2.45-10.52.98-2.47 4.07-3.5 5.5-3.7 0 .2.49.86 2.45 1.85Z" fill="#6A5A50" stroke="#000" stroke-width="1.15"/><path d="m10.75 70.92.04-.1c2.44-5.71 2.58-6.04 2.5-14.17l2.11-1.46c.08-.46-.51-.67-1.27-.77-.88 0-1.8.04-2.89.02 0 0 1.66-.16 2.89-.02.76.1 1.35.31 1.27.77l1.47 2.1c-2.3 6.82-2.48 7.13-2.55 14.27l-3.28 8-.3-8.64Z" fill="#6E86C4"/><path d="m15.4 55.19-2.1 1.46c.07 8.18-.07 8.46-2.55 14.27l.3 8.65 3.27-8.01c.07-7.14.26-7.45 2.55-14.27l-1.47-2.1Zm0 0c.21-1.2-4.16-.75-4.16-.75 3.13.06 4.76-.46 8.32 1.5m-4.05-1.35.21-1.19L17 46.27" stroke="#B7B7B7" stroke-width="1.15"/><path d="m10.83 79.42-.58-8.66c2.6-5.84 2.7-8.95 2.31-14.44l1.73-1.15h-2.88V54" stroke="#767676" stroke-width=".58" stroke-linejoin="round"/><path d="M40.1 80.64c.67.07 1 .17.54.17-.15 0-.34-.07-.54-.17-1.06-.13-2.95-.21-3.7.17-1.2.61-1.8 3.7-1.8 4.3 0 .62-3.64-1.84-4.85-1.22-.8.2-2.54 1.47-3.03 2.46-.58-.8-4.53-3.49-6.45-2.03a24.97 24.97 0 0 1 2.23-2.28c.68-.85 1.07-1.6.6-1.85 7.45.82 9.69-.46 13.3-3.08.29.34.66.78 1.08 1.23.85.92 1.88 1.91 2.62 2.3Z" fill="#FFDC22"/><path d="M37.48 78.34c-.42-.45-.8-.89-1.07-1.23-3.62 2.62-5.86 3.9-13.32 3.08.97.5-1.61 3.08-3.02 4.31 1.81-1.85 6.05 1.03 6.65 1.85a6.41 6.41 0 0 1 3.03-2.46c1.21-.62 4.84 1.84 4.84 1.23 0-.62.6-3.7 1.82-4.31 1.2-.62 5.44 0 4.23 0-.7 0-2.07-1.29-3.16-2.47Zm0 0c-1.97 1.85-7.73 5.18-15 3.7M42.18 67.87c.59-.21 1.53-.9.59-1.94-.95-1.03-2.36-.86-2.95-.64-.59 0-1.77.25-1.77 1.29 0 1.3-.59-3.23-1.77-1.94l-2.35 2.58M33.93 66.72c-.2-1-.85-2.99-1.81-2.99-1.2 0-.6 0-1.2.5s-.6-1.99-3.02-.5c-2.4 1.5.29-1.1-2.4 0-1.21.5-1.21-.5-2.42.5-1.2.5-1.2 1-1.8 0l-1.21-.5M28.15 70.33h-1.73m7.5-3.61c-1.73 1.8-3.57 3.73-4.04 4.2-1.73 1.81-4.04 1.81-4.61 1.21-.58-.6-3.47-3-4.05-3" stroke="#000" stroke-width="1.15"/><path d="M19.49 68.45 23.53 80l4.04 1.15 5.2-1.15 3.47-2.31-1.16-10.97-15.59 1.73Z" fill="#FFDBB0"/><path d="M40.86 70.76c-.18-.75 1.46-1.85 2.3-2.31-.19-.58-.69-1.85-1.15-2.31-.58-.58-1.73-.58-2.76 0-1.04.58.45.58-.62 1.33-1.06.76-1.24-1.33-1.82-1.9-.57-.59-1.15.57-1.15 1.15 0 .57-1.16 1.73-1.16 2.3 0 .58.58.87 1.16.58.58-.28 0 3.47 0 4.62 0 .93.38 1.93.58 2.31a17.3 17.3 0 0 1 0-1.73c.05-.58 1.73-.58 2.3-.58.58 0 .1-1.73.1-2.3 0-.58 2.44-.23 2.22-1.16Z" fill="#0F0000"/><path d="m41.08 58.43.54-.21-.54.21Zm1.84 9.04-.37-.44-.5.4.46.46.4-.42Zm-1.23 2.42-.51-.27.51.27Zm-.6 1.8.25.52-.26-.52Zm-2.46 3.02-.25-.52.25.52Zm-1.83 1.2-.52.27.52-.27Zm-.61 1.81-.26-.52-.05.03-.04.03.35.46Zm-12.86 2.41h-.57v.46l.44.1.13-.56Zm0-1.2h.58v-.07l-.02-.07-.56.14Zm-.6-2.41.55-.15v-.02l-.01-.02-.55.19Zm-.62-1.81.55-.19-.55.19Zm-2.45-3.62-.4.41.4-.4Zm0-1.2-.4.4.4-.4Zm-1.83-.6-.52.25.52-.26Zm25.34-.84.27.5.43-.23-.16-.45-.54.18Zm-2.31 2.3-.56.14.56-.13Zm-4.62 4.05.57.05-.57-.05Zm0 1.73-.52.26 1.1-.28-.58.02Zm-.58-6.93.25.52-.25-.52Zm1.15-4.04.41-.4-.4.4Zm1.82 1.91.34.48-.34-.48Zm.62-1.33.28.5-.28-.5Zm2.76 0-.4.4.4-.4ZM37.98 49.5a50.53 50.53 0 0 0 2.57 9.14l1.07-.43a49.42 49.42 0 0 1-2.5-8.94l-1.14.23Zm2.57 9.14c.26.64.76 1.36 1.25 2.06.5.73 1.03 1.47 1.4 2.22.39.76.6 1.47.53 2.13-.05.63-.36 1.3-1.18 1.97l.73.9a4 4 0 0 0 1.6-2.77c.09-.96-.22-1.9-.64-2.74-.42-.85-1-1.66-1.5-2.37-.5-.74-.92-1.34-1.12-1.83l-1.07.43Zm1.96 9.24a11.98 11.98 0 0 1 1.18 1.36l.01.03v-.01l-.01-.05c0-.04 0-.13.04-.23a.47.47 0 0 1 .41-.28v1.15c.17 0 .49-.06.64-.4a.77.77 0 0 0 0-.57 2.57 2.57 0 0 0-.38-.64c-.31-.4-.76-.88-1.08-1.19l-.8.83Zm1.63.82c-.09 0-.21-.03-.45-.07a4.38 4.38 0 0 0-.77-.08c-.3 0-.62.04-.94.21-.33.18-.6.46-.8.85l1.03.53c.1-.21.22-.3.31-.36.1-.05.23-.08.4-.08s.36.03.57.07c.18.03.43.08.65.08v-1.15Zm-2.96.91c-.2.38-.26.7-.24 1 .01.28.1.51.13.58.03.08-.03-.05.05-.19.03-.04.02.01-.3.17l.52 1.03c.3-.15.6-.32.75-.57a.9.9 0 0 0 .07-.8c-.05-.17-.07-.2-.07-.28 0-.06 0-.18.12-.41l-1.03-.53Zm-.35 1.56c-.55.26-.81.22-1.26.33-.22.05-.5.17-.7.47-.16.27-.2.6-.2.92h1.15c0-.28.04-.33.03-.3-.04.06-.1.05 0 .03.15-.04.8-.08 1.49-.42l-.51-1.03Zm-2.16 1.72c0 .35.04.62.09.83l.05.23.01.07c0-.01 0-.05.02-.09.02-.03.04-.04.02-.03-.05.05-.17.13-.48.28l.5 1.04c.32-.15.57-.3.75-.46a.94.94 0 0 0 .34-.74c0-.12-.01-.22-.03-.3l-.05-.24a2.67 2.67 0 0 1-.07-.59h-1.15Zm-.3 1.29c-.23.12-.47.18-.72.22l-.37.05-.36.06c-.18.03-.63.13-.8.57a.98.98 0 0 0-.03.58c.04.16.1.33.2.5l1.02-.52-.1-.24c0-.03.02.02-.02.1-.07.2-.25.18-.05.14l.29-.04.41-.06c.3-.05.67-.14 1.05-.32l-.51-1.04Zm-2.09 1.99c.16.3.12.51.04.65a.94.94 0 0 1-.39.37l.51 1.04c.29-.14.67-.43.9-.86a1.8 1.8 0 0 0-.03-1.73l-1.03.53Zm-.44 1.08a15.58 15.58 0 0 1-12.37 2.31l-.27 1.12a16.72 16.72 0 0 0 13.34-2.5l-.7-.93ZM23.9 80.13v-1.2h-1.15v1.2h1.15Zm-.02-1.34-.6-2.42-1.13.29.62 2.41 1.11-.28Zm-.62-2.46-.61-1.8-1.1.36.62 1.81 1.09-.37Zm-.61-1.8c-.66-1.96-1.98-3.24-2.6-3.85l-.8.82a8.7 8.7 0 0 1 2.3 3.4l1.1-.38Zm-2.6-3.85c-.1-.1.04-.02 0 .17l-.03.08-.02.03.01-.02c.02 0 .03-.02.05-.04l.16-.17a.9.9 0 0 0 .17-.37c.08-.38-.13-.68-.33-.89l-.81.83c.1.1-.03.02 0-.17a.32.32 0 0 1 .05-.11v.01l-.05.05-.16.17a.89.89 0 0 0-.18.37c-.07.38.13.68.34.88l.8-.82Zm0-1.2c-.27-.28-.59-.37-.9-.35-.12 0-.24.04-.33.06l-.22.06c-.12.03-.12.01-.1.02.03.01-.05 0-.17-.25l-1.03.52c.19.37.42.65.75.8.33.13.64.08.82.03l.24-.06.12-.03.02.02.8-.83Zm-1.72-.46c-.26-.52-.4-1.19-.56-1.9a9.29 9.29 0 0 0-.27-1c-.1-.3-.25-.62-.5-.86l-.81.82c.06.06.14.18.22.43.08.24.15.53.23.87.15.64.32 1.48.66 2.16l1.03-.52Zm24.55-1.08c-.44.24-1.1.65-1.64 1.12-.27.23-.53.49-.7.77-.18.26-.35.64-.25 1.06l1.12-.27c0 .05-.02 0 .09-.16.1-.15.27-.33.5-.53.45-.39 1.03-.76 1.43-.97l-.55-1.02Zm-2.6 2.95v-.04l.03-.08c.03-.05.05-.05.01-.03-.1.06-.3.11-.6.16-.25.04-.6.1-.87.16-.13.04-.3.1-.46.2a.79.79 0 0 0-.34.65h1.15c0 .17-.1.27-.14.3l.1-.03c.19-.05.43-.08.76-.14.28-.05.66-.12.95-.28.15-.08.33-.22.45-.42a.97.97 0 0 0 .09-.72l-1.12.27Zm-2.23 1.02c0 .2.04.46.07.7.04.25.08.5.1.73.03.25.02.4 0 .49 0 .04 0 0 .05-.06a.37.37 0 0 1 .27-.12v1.15c.24 0 .45-.1.6-.28.14-.15.2-.33.22-.46.05-.26.04-.57.01-.83l-.1-.8a4.4 4.4 0 0 1-.07-.52h-1.15Zm.49 1.74c-.29 0-.9 0-1.44.07a3 3 0 0 0-.82.22c-.23.11-.59.35-.63.8l1.15.11c-.01.17-.14.2-.03.14.1-.05.27-.09.5-.12.45-.07.97-.07 1.27-.07v-1.15Zm-2.89 1.1c-.04.5-.02 1.43 0 1.8l1.15-.04a16.9 16.9 0 0 1 0-1.66l-1.15-.1Zm1.1 1.52a5.32 5.32 0 0 1-.52-2.05h-1.16c0 1.05.43 2.15.64 2.57l1.03-.52Zm-.52-2.05c0-.26.03-.68.08-1.2.04-.5.1-1.08.13-1.6.04-.53.06-1.05.03-1.42-.02-.18-.05-.4-.14-.59a.69.69 0 0 0-.93-.33l.5 1.04a.47.47 0 0 1-.6-.19l.02.16c.02.28 0 .72-.03 1.24l-.13 1.6c-.05.5-.09.97-.09 1.3h1.16Zm-.83-5.14c-.16.08-.26.05-.29.04a.06.06 0 0 1-.02-.02s-.02-.03-.02-.07h-1.15c0 .5.26.92.68 1.12.4.2.88.18 1.3-.03l-.5-1.04Zm-.33-.05s0-.06.11-.25c.1-.17.22-.37.37-.59l.43-.67c.1-.2.25-.5.25-.8h-1.16c0-.02 0 .05-.1.24l-.38.59c-.14.21-.3.45-.42.68-.11.2-.25.5-.25.8h1.15Zm1.16-2.31a1.35 1.35 0 0 1 .25-.66c.07-.1.1-.1.05-.09h-.12c-.03-.01-.04-.02-.01 0l.81-.82a1 1 0 0 0-.98-.3 1.3 1.3 0 0 0-.68.5c-.29.39-.48.94-.48 1.37h1.16Zm.17-.75c.05.05.13.2.25.47.1.23.23.57.36.84.13.25.34.6.68.8.19.1.4.16.65.13.23-.03.43-.13.62-.26L38.3 67c-.08.06-.11.06-.1.06l.06.01-.06-.06a1.6 1.6 0 0 1-.14-.25c-.12-.23-.2-.47-.34-.78-.1-.26-.26-.6-.5-.83l-.81.82Zm2.56 1.98c.29-.2.55-.46.63-.8.09-.37-.11-.65-.16-.73l-.03-.04c.01.04.04.13.02.24-.03.1-.08.14-.07.13a.91.91 0 0 1 .17-.1l-.57-1.02c-.15.09-.28.18-.39.28a.9.9 0 0 0-.27.44c-.05.2 0 .38.05.5.04.1.1.18.12.2.06.1-.03 0 0-.15.03-.1.08-.07-.17.1l.67.95Zm.56-1.3c.44-.25.89-.37 1.27-.37.39 0 .65.12.8.27l.82-.82a2.26 2.26 0 0 0-1.62-.6c-.6 0-1.24.17-1.84.5l.57 1.01Zm2.07-.1c.15.15.36.5.57.94.2.43.36.87.45 1.14l1.1-.36c-.1-.31-.29-.8-.5-1.26-.21-.45-.49-.97-.8-1.28l-.82.82Z" fill="#000"/><path d="M20.07 68.45c.58 0 0 .58.58 1.73.46.92.96 2.7 1.15 3.47-.77-1.35-2.43-4.05-2.89-4.05-.57 0-.57-1.15-.57-1.73 0-.58-.58-1.15-.58-1.73 0-.58 1.73-1.16 2.3-1.16.59 0 .59.58 1.16.58a5.4 5.4 0 0 0 1.74-.58c2.3-1.15 4.04 0 4.62-.57.57-.58 3.46 0 4.61 0 1.16 0 .58 1.15 1.16 1.73.58.58-.58 1.73-1.73 2.3-1.16.59-.58.59-1.73.59-1.16 0-1.74.57-3.47.57-1.73 0-.58-.57-1.73-.57-1.16 0-.58 0-2.31-.58s-2.89 0-2.31 0Z" fill="#000"/><path d="M21.8 73.65Zm0 0c-.2-.77-.7-2.55-1.15-3.47-.58-1.15 0-1.73-.58-1.73s.58-.58 2.3 0c1.74.58 1.16.58 2.32.58 1.15 0 0 .57 1.73.57s2.31-.57 3.46-.57c1.16 0 .58 0 1.74-.58 1.15-.58 2.3-1.73 1.73-2.31-.58-.58 0-1.73-1.16-1.73-1.15 0-4.04-.58-4.61 0-.58.57-2.31-.58-4.62.57a5.4 5.4 0 0 1-1.74.58c-.57 0-.57-.58-1.15-.58s-2.31.58-2.31 1.16.58 1.15.58 1.73c0 .58 0 1.73.57 1.73.46 0 2.12 2.7 2.89 4.05ZM36.24 77.69c-.2 0-.7-.46-1.16-2.31-.58-2.31.58-3.47 0-4.62-.58-1.16-.58-.58-1.15-1.16-.58-.57 1.15-1.15.57-2.88" stroke="#000" stroke-width="1.15"/><path d="M28.46 78.34c0 .64.6 1.67 3.04.64m-4.87 0c-.6.22-1.94.52-2.43 0m9.73-12.26c-1.42 2.15-4.5 6.45-5.47 6.45-1.22 0-2.44 0-3.04-.64l-3.04-3.23" stroke="#000" stroke-width="1.15"/><path d="M27.57 77.11c0-.43 0-1.73-1.18-2.58" stroke="#000" stroke-width=".58"/><path d="M29.88 77.11h-.57m-2.89 0h-.58M18.91 64.4c-.57-.42-2.3-2.69-2.3-5.77" stroke="#000" stroke-width="1.15"/><path d="M12.16 51.6c.89.5 2.73 1.05 3.29 1.26h.04l1.69-6.93c-.93 0-3.24.12-2.8.63.44.5 1.3.63 1.67.63-.93 0-2.9.12-3.34.63-.44.5 2.04 1.05 3.34 1.26-1.11 0-3.45.12-3.9.63-.44.5 2.04 1.05 3.34 1.26-1.48 0-4.22.12-3.33.63Z" fill="#AA702C" stroke="#000" stroke-width="1.15"/><path d="m16.03 47.66.57-1.73M44.33 66.72c1.73 0 2.32-1.18 3.47-1.84 2.28-1.32.64-9.29-.58-12.24-.52-1.25-3.22-6.74-3.48-7.3M39.12 49.97c-1.73-1.16-5.65-1.82-6.61-1.86-1.37-.06-2.25-1.26-2.05-2.76M31.04 47.66c-1.16 0-5.43-1.85-6.35-2.31m5.77 1.15c-.77 0-2.42-.23-2.89-1.15" stroke="#000" stroke-width="1.15"/><path d="M32.2 63.25c.19-1.35.23-3.93-1.16-3.46m0 0c-.7.23-.2 2.5.58 3.46m-.58-3.46c.21-1.78-2.31-3.9-2.31-2.31 0 .57 1.15 2.3 2.3 2.3Zm-9.82 3.46c1.16-.77 3-2.12 2.31-2.89-1.08-1.2-2.1.93-2.3 2.9ZM23.53 60.36c1.16-.19 3.24-1.96 2.31-2.88-.92-.93-2.88 1.15-2.3 2.88Z" stroke="#B0B0B0" stroke-width="1.15"/><path d="M28.73 57.48c-.87.6-2.96 1.07-2.89 0 .13-1.87 2.25-1.37 2.89 0Z" stroke="#B0B0B0" stroke-width="1.15"/><path d="M28.22 57.48h-2.44c.97-.57 1.14-1.03 1.22-1.94l-1.63.77c-.89-.6-.93-.93 0-1.55l1.63.78-.81-1.94c.51-1.01 1.01-.97 1.62 0L27 55.54l1.83-.78c.71.6.56.95 0 1.55L27 55.54c.15.9.36 1.36 1.22 1.94Z" fill="#000"/><path d="M27 55.54c-.08.9-.25 1.37-1.22 1.94h2.44c-.86-.58-1.07-1.03-1.22-1.94Zm0 0-1.63.77c-.89-.6-.93-.93 0-1.55l1.63.78Zm0 0 .81-1.94c-.6-.97-1.1-1.01-1.62 0l.8 1.94Zm0 0 1.83-.78c.71.6.56.95 0 1.55L27 55.54Z" stroke="#000" stroke-width="1.15" stroke-linejoin="bevel"/><path d="M24.11 80.58c-.58-2.9-.18-2.28-1.16-5.2-.77-2.31-1.15-4.04-2.88-6.93" stroke="#FFCB8D" stroke-opacity=".46" stroke-width="1.15" style="mix-blend-mode:multiply"/><path d="M28.15 71.91H27" stroke="#000" stroke-width=".58"/><circle cx="15.45" cy="55.17" r="1.15" transform="rotate(-180 15.45 55.17)" fill="#6E86C4"/><path d="M44.32 45.35H17.18" stroke="#000" stroke-width="1.15"/><path d="m18.3 23.15-.4.13c-1 .8.6 5.18 1.55 5.64 1.65.8 3.24 8.74 3.46 11.55 5.74 1.01 8.71 1.66 12.13 3.47l-16.75.58c-1.54-2.7-4.28-9.31-5.2-13.86-1.07-5.38 2.87-6.75 4.81-7.38a.6.6 0 0 1 .4-.13Z" fill="#B02929"/><path d="M52.37 41.05c0-1.15 0-2.89-5.78-5.2l-1.73 8.09c2.5-.77 7.5.05 7.5-2.89Z" fill="#B02929" stroke="#000" stroke-width="1.15"/><path d="M39.08 44.52c-1.03 0-9.24-2.9-15.01-4.05-1.16-2.88-2.31-8.66-5.78-13.28-.46-.92-.57-2.3 0-4.04l5.78.58c1.73 4.62 5.2 14.43 9.82 16.74 2.88-.57 6.25-1.17 7.5-10.4.73-5.3 1.3-4.64 2.29-3.49l.02.03c.68.79 2.5 5.78 2.89 8.67l-1.73 9.24c-1.73.57-4.04 0-5.78 0Z" fill="#3076FF"/><path d="M31.37 38.62c-1.95-1-5.3-9.9-6.72-14.23l20.79-1.24c0 .62-2.86 2.27-3.67 3.1-.41 2.47-1.47 8.04-2.45 10.51-.98 2.48-4.08 3.5-5.5 3.71 0-.2-.5-.86-2.45-1.85Z" fill="#6A5A50" stroke="#000" stroke-width="1.15"/><path d="m51.29 18.94-.04.1c-2.44 5.72-2.58 6.04-2.51 14.17l-2.1 1.47c-.09.45.5.67 1.27.76.88.01 1.8-.04 2.89-.02 0 0-1.66.17-2.89.02-.76-.1-1.36-.3-1.27-.76l-1.47-2.1c2.29-6.83 2.48-7.14 2.55-14.28l3.27-8 .3 8.64Z" fill="#6E86C4"/><path d="m46.64 34.68 2.1-1.47c-.07-8.17.07-8.46 2.55-14.27l-.3-8.64-3.27 8c-.07 7.14-.26 7.45-2.55 14.27l1.47 2.1Zm0 0c-.22 1.19 4.16.74 4.16.74-3.13-.06-4.76.46-8.33-1.49m4.06 1.34-.21 1.19-1.28 7.13" stroke="#B7B7B7" stroke-width="1.15"/><path d="m51.21 10.44.58 8.67c-2.6 5.83-2.7 8.95-2.31 14.43l-1.73 1.16h2.88v1.15" stroke="#767676" stroke-width=".58" stroke-linejoin="round"/><path d="M21.94 9.23c-.67-.08-1.01-.17-.54-.17.15 0 .33.06.54.17 1.06.12 2.95.2 3.7-.17 1.2-.62 1.8-3.7 1.8-4.31 0-.62 3.64 1.84 4.85 1.23.8-.2 2.54-1.48 3.02-2.47.59.8 4.54 3.5 6.45 2.04a22.53 22.53 0 0 1-2.22 2.27c-.68.86-1.07 1.61-.6 1.85-7.45-.82-9.7.46-13.3 3.08-.29-.34-.66-.77-1.08-1.23-.85-.92-1.88-1.9-2.62-2.3Z" fill="#FFDC22"/><path d="M24.56 11.52c.42.46.8.9 1.07 1.23 3.62-2.62 5.86-3.9 13.32-3.08-.97-.49 1.6-3.08 3.02-4.3-1.81 1.84-6.05-1.03-6.66-1.86a6.41 6.41 0 0 1-3.02 2.47c-1.21.61-4.84-1.85-4.84-1.23 0 .61-.6 3.7-1.82 4.3-1.2.62-5.44 0-4.23 0 .7 0 2.07 1.3 3.16 2.47Zm0 0c1.97-1.85 7.73-5.17 14.99-3.7M19.86 22c-.59.2-1.53.9-.59 1.93.94 1.04 2.36.86 2.95.65.59 0 1.77-.26 1.77-1.3 0-1.29.59 3.24 1.76 1.94l2.36-2.58M28.11 23.15c.2 1 .84 2.98 1.8 2.98 1.21 0 .61 0 1.21-.5s.6 2 3.02.5c2.4-1.49-.29 1.11 2.4 0 1.21-.5 1.21.5 2.42-.5 1.2-.5 1.2-.99 1.8 0l1.21.5M33.89 19.54h1.73m-7.5 3.6 4.03-4.2c1.74-1.8 4.05-1.8 4.62-1.2.58.6 3.47 3 4.05 3" stroke="#000" stroke-width="1.15"/><path d="M42.55 21.42 38.5 9.87 34.46 8.7l-5.2 1.16-3.46 2.3 1.16 10.98 15.59-1.73Z" fill="#FFDBB0"/><path d="M21.18 19.1c.18.76-1.46 1.86-2.3 2.32.18.57.68 1.84 1.15 2.3.57.58 1.73.58 2.76 0 1.04-.57-.45-.57.61-1.33 1.07-.76 1.25 1.34 1.82 1.91.58.58 1.16-.57 1.16-1.15s1.15-1.73 1.15-2.31c0-.58-.57-.86-1.15-.58s0-3.46 0-4.62c0-.92-.39-1.92-.58-2.3.02.38.04 1.26 0 1.72-.05.58-1.73.58-2.3.58-.59 0-.1 1.73-.1 2.31 0 .58-2.44.22-2.22 1.16Z" fill="#0F0000"/><path d="m20.96 31.43-.54.22.54-.22Zm-1.84-9.04.37.45.5-.41-.46-.45-.4.4Zm1.22-2.41.52.26-.52-.26Zm.62-1.81-.26-.52.26.52Zm2.44-3.01.26.51-.26-.51Zm1.84-1.21.52-.26-.52.26Zm.61-1.8.26.51.05-.02.04-.04-.35-.46ZM38.7 9.72h.58v-.45l-.44-.11-.14.56Zm0 1.2h-.57v.08l.01.07.56-.14Zm.62 2.42-.56.14v.04l.56-.18Zm.6 1.8-.54.2.55-.2Zm2.46 3.62.4-.4-.4.4Zm0 1.2.4-.4-.4.4Zm1.83.61.52-.26-.52.26Zm-25.34.84-.27-.51-.43.23.15.46.55-.18Zm2.31-2.31.56-.14-.56.14Zm4.62-4.05-.57-.05.57.05Zm0-1.73.52-.26-1.1.29.58-.03Zm.58 6.93-.26-.52.26.52Zm-1.16 4.04-.4.41.4-.4ZM23.4 22.4l-.33-.47.33.47Zm-.6 1.34-.29-.5.28.5Zm-2.77 0 .4-.41-.4.4Zm4.03 16.63a50.53 50.53 0 0 0-2.57-9.15l-1.07.44c1.2 2.96 1.9 5.93 2.5 8.94l1.14-.23Zm-2.57-9.15c-.26-.64-.76-1.36-1.25-2.06-.51-.72-1.03-1.46-1.4-2.22a4.04 4.04 0 0 1-.54-2.12c.06-.64.37-1.3 1.19-1.97l-.74-.9a4 4 0 0 0-1.6 2.76c-.08.97.23 1.9.65 2.75.42.84 1 1.65 1.5 2.37.5.73.92 1.33 1.12 1.83l1.07-.44Zm-1.96-9.23a11.97 11.97 0 0 1-1.18-1.37.26.26 0 0 1-.01-.03v.02l.01.05c0 .04 0 .12-.04.22a.47.47 0 0 1-.41.29V20a.68.68 0 0 0-.64.4.77.77 0 0 0 0 .57c.07.22.23.45.38.64.31.4.76.88 1.08 1.2l.8-.83Zm-1.63-.82c.08 0 .2.02.45.06.21.04.48.09.77.09.3 0 .62-.05.94-.22.33-.18.6-.46.8-.85l-1.03-.52c-.1.2-.22.3-.31.35a.82.82 0 0 1-.4.08c-.17 0-.36-.02-.57-.06-.18-.03-.44-.09-.65-.09v1.16Zm2.96-.92c.19-.37.26-.7.24-1-.01-.28-.1-.5-.13-.58-.03-.08.03.06-.05.2-.03.03-.02-.02.3-.17l-.52-1.04c-.3.15-.6.32-.75.57a.9.9 0 0 0-.08.81c.06.16.08.2.08.27 0 .06 0 .19-.12.42l1.03.52Zm.35-1.55c.54-.27.81-.23 1.26-.34.22-.05.5-.16.7-.47.16-.26.2-.59.2-.92h-1.16c0 .28-.04.33-.02.31.04-.06.1-.06 0-.04-.16.04-.8.09-1.49.42l.51 1.04Zm2.16-1.73c0-.35-.05-.62-.09-.82l-.05-.24-.01-.07-.02.1-.02.02c.05-.04.17-.13.48-.28l-.51-1.03c-.3.15-.56.3-.74.45-.1.1-.2.2-.26.34a.94.94 0 0 0-.09.4c0 .12.02.23.04.3 0 .06.04.2.05.25.03.15.07.34.07.58h1.15Zm.29-1.29c.24-.11.48-.18.73-.22l.37-.05.36-.05c.18-.04.63-.14.8-.58.08-.2.07-.4.03-.57-.04-.17-.1-.34-.2-.51l-1.02.52.1.24c0 .04-.02-.01.02-.1.07-.2.25-.18.05-.14a4.5 4.5 0 0 1-.29.04l-.41.06c-.31.06-.68.14-1.05.33l.51 1.03Zm2.1-1.98c-.16-.31-.12-.52-.04-.66.1-.17.27-.31.39-.37l-.51-1.04a2.1 2.1 0 0 0-.9.87 1.8 1.8 0 0 0 .03 1.72l1.03-.52Zm.44-1.09c1.74-1.33 6.7-3.7 12.37-2.3l.27-1.13a16.72 16.72 0 0 0-13.34 2.51l.7.92Zm11.93-2.87v1.2h1.15v-1.2h-1.15Zm.01 1.35.62 2.41 1.12-.28-.62-2.42-1.12.29Zm.63 2.45.61 1.81 1.1-.37-.62-1.8-1.1.36Zm.61 1.81c.66 1.95 1.98 3.24 2.59 3.84l.81-.82a8.7 8.7 0 0 1-2.3-3.39l-1.1.37Zm2.59 3.84c.1.1-.03.03.01-.16 0-.04.02-.07.03-.09l.02-.02-.02.01-.04.04-.16.18a.9.9 0 0 0-.17.37c-.08.37.12.68.33.88l.81-.82c-.1-.1.03-.03-.01.17a.32.32 0 0 1-.05.1h.02c0-.02.02-.03.04-.05l.16-.18a.9.9 0 0 0 .17-.36c.08-.38-.12-.69-.33-.89l-.81.82Zm0 1.21c.28.28.6.36.9.34.13 0 .25-.03.34-.06l.22-.06c.12-.02.12 0 .1-.02-.03 0 .04.01.17.25l1.03-.52a1.58 1.58 0 0 0-.75-.79 1.27 1.27 0 0 0-.82-.04l-.24.07a.67.67 0 0 1-.12.02l-.02-.01-.81.82Zm1.73.45c.26.53.4 1.2.56 1.9.08.34.16.69.27 1 .1.3.25.63.5.87l.81-.82a1.17 1.17 0 0 1-.22-.43 8.19 8.19 0 0 1-.23-.87c-.15-.65-.32-1.49-.66-2.17l-1.03.52Zm-24.55 1.08c.44-.24 1.1-.65 1.64-1.11.26-.23.52-.5.7-.77.18-.27.35-.65.25-1.07l-1.12.27c-.01-.04.02 0-.09.16-.1.15-.27.34-.5.53-.45.4-1.03.76-1.43.98l.55 1.01Zm2.6-2.95v.04l-.03.08c-.03.05-.05.05-.01.03.1-.06.3-.1.6-.16.25-.04.6-.09.87-.16.13-.04.3-.1.45-.2a.79.79 0 0 0 .35-.65h-1.15c0-.17.1-.27.14-.3l-.1.04c-.19.05-.43.08-.76.13a3.2 3.2 0 0 0-.95.28c-.16.09-.33.22-.45.43a.97.97 0 0 0-.09.71l1.12-.27Zm2.23-1.02c0-.2-.04-.46-.07-.69-.04-.25-.08-.5-.1-.74a1.9 1.9 0 0 1-.01-.48c0-.04 0 0-.04.05a.37.37 0 0 1-.27.13v-1.16c-.24 0-.45.1-.6.28-.14.15-.2.33-.22.46a2.9 2.9 0 0 0-.01.84c.02.27.07.56.1.8.04.25.07.42.07.51h1.15Zm-.49-1.73c.29 0 .89 0 1.44-.08a3 3 0 0 0 .81-.22c.24-.1.6-.34.64-.8l-1.15-.1c.01-.18.14-.2.03-.15-.1.05-.27.1-.5.13-.45.06-.97.06-1.27.06v1.16Zm2.89-1.1c.04-.51.02-1.43 0-1.81l-1.16.05c.02.39.04 1.23 0 1.65l1.16.1Zm-1.1-1.53c.18.34.52 1.25.52 2.05h1.16c0-1.05-.43-2.14-.64-2.57l-1.04.52Zm.52 2.05c0 .26-.03.68-.08 1.2-.04.5-.1 1.08-.13 1.61-.04.52-.06 1.04-.03 1.42.01.17.04.4.14.58.05.1.15.26.35.35.22.1.44.05.58-.02l-.5-1.04a.47.47 0 0 1 .6.19l-.02-.16c-.02-.28 0-.72.03-1.24s.09-1.07.13-1.59c.05-.5.09-.98.09-1.3H25.8Zm.83 5.14c.16-.08.26-.05.29-.04l.02.03s.02.02.02.07h1.15c0-.5-.26-.92-.68-1.13-.4-.2-.88-.17-1.3.03l.5 1.04Zm.33.06c0-.01 0 .05-.11.25l-.37.58c-.14.21-.3.45-.43.68-.1.2-.25.5-.25.8h1.16c0 .01 0-.06.1-.25l.38-.59c.14-.2.3-.45.42-.67.11-.2.25-.5.25-.8h-1.15Zm-1.16 2.3a1.35 1.35 0 0 1-.25.66c-.07.11-.1.1-.05.09h.11c.04.01.04.03.02 0l-.81.82a1 1 0 0 0 .98.3c.31-.09.54-.32.68-.5.28-.38.48-.94.48-1.36H25.8Zm-.17.76c-.05-.06-.14-.2-.25-.47-.1-.23-.23-.57-.36-.84a1.82 1.82 0 0 0-.68-.8c-.19-.11-.41-.16-.65-.13-.23.03-.44.13-.62.26l.67.94c.08-.06.11-.06.1-.06l-.07-.01.07.07c.04.05.09.13.14.24.12.24.2.48.34.78.1.26.26.6.5.83l.81-.81Zm-2.56-1.98c-.29.2-.55.45-.63.79-.09.38.11.66.16.73l.03.04a.38.38 0 0 1-.02-.23c.03-.1.08-.15.07-.14a.92.92 0 0 1-.17.11l.56 1.01c.15-.08.29-.17.4-.28a.9.9 0 0 0 .27-.43c.04-.2 0-.38-.05-.5-.04-.1-.1-.19-.12-.21-.06-.1.03.01 0 .16-.03.1-.08.06.17-.11l-.67-.94Zm-.56 1.3c-.44.25-.89.36-1.27.36-.39 0-.65-.11-.8-.26l-.82.81c.43.43 1.02.6 1.62.6.6 0 1.24-.17 1.83-.5l-.56-1Zm-2.08.1c-.15-.15-.35-.5-.56-.95-.2-.42-.36-.86-.45-1.14l-1.1.37c.1.3.29.79.5 1.26.21.44.49.96.8 1.27l.81-.81Z" fill="#000"/><path d="M41.97 21.42c-.58 0 0-.58-.58-1.74-.46-.92-.96-2.7-1.15-3.46.77 1.35 2.42 4.04 2.89 4.04.57 0 .57 1.16.57 1.73 0 .58.58 1.16.58 1.74 0 .57-1.73 1.15-2.31 1.15-.58 0-.58-.58-1.15-.58-.47 0-1.35.39-1.74.58-2.3 1.16-4.04 0-4.62.58-.57.58-3.46 0-4.62 0-1.15 0-.57-1.16-1.15-1.73-.58-.58.58-1.74 1.73-2.31 1.16-.58.58-.58 1.73-.58 1.16 0 1.74-.58 3.47-.58 1.73 0 .58.58 1.73.58 1.16 0 .58 0 2.31.58 1.73.57 2.89 0 2.31 0Z" fill="#000"/><path d="M40.24 16.22Zm0 0c.19.77.7 2.54 1.15 3.46.58 1.16 0 1.74.58 1.74s-.58.57-2.31 0c-1.73-.58-1.15-.58-2.31-.58-1.15 0 0-.58-1.73-.58s-2.31.58-3.47.58c-1.15 0-.57 0-1.73.58-1.15.57-2.3 1.73-1.73 2.3.58.58 0 1.74 1.15 1.74 1.16 0 4.05.58 4.62 0 .58-.58 2.31.58 4.62-.58.39-.2 1.27-.58 1.74-.58.57 0 .57.58 1.15.58s2.31-.58 2.31-1.15c0-.58-.58-1.16-.58-1.74 0-.57 0-1.73-.57-1.73-.47 0-2.12-2.7-2.9-4.04ZM25.8 12.18c.2 0 .7.46 1.16 2.3.57 2.32-.58 3.47 0 4.63.57 1.15.57.57 1.15 1.15s-1.15 1.16-.58 2.89" stroke="#000" stroke-width="1.15"/><path d="M33.58 11.53c0-.65-.6-1.68-3.04-.65m4.87 0c.6-.21 1.94-.51 2.43 0M28.1 23.15c1.42-2.15 4.5-6.46 5.47-6.46 1.22 0 2.43 0 3.04.65l3.04 3.23" stroke="#000" stroke-width="1.15"/><path d="M34.46 12.75c0 .43 0 1.74 1.19 2.59" stroke="#000" stroke-width=".58"/><path d="M32.15 12.75h.58m2.89 0h.58M43.13 25.46c.57.43 2.3 2.7 2.3 5.77" stroke="#000" stroke-width="1.15"/><path d="M49.88 38.27c-.89-.5-2.73-1.05-3.29-1.26h-.04l-1.7 6.93c.93 0 3.25-.13 2.8-.63-.44-.5-1.29-.63-1.66-.63.93 0 2.9-.13 3.34-.63.44-.5-2.04-1.05-3.34-1.26 1.11 0 3.45-.13 3.9-.63.44-.5-2.05-1.05-3.34-1.26 1.48 0 4.22-.13 3.33-.63Z" fill="#AA702C" stroke="#000" stroke-width="1.15"/><path d="m46.01 42.2-.57 1.74M17.71 23.15c-1.73 0-2.32 1.17-3.47 1.83-2.28 1.32-.64 9.3.58 12.24.52 1.26 3.22 6.75 3.47 7.3M22.91 39.9c1.74 1.15 5.66 1.82 6.62 1.86 1.37.05 2.25 1.26 2.05 2.76M31 42.2c1.15 0 5.43 1.85 6.35 2.32m-5.77-1.16c.77 0 2.42.23 2.88 1.16" stroke="#000" stroke-width="1.15"/><path d="M29.84 26.61c-.19 1.35-.23 3.93 1.16 3.47m0 0c.7-.23.2-2.5-.58-3.47m.58 3.47c-.22 1.78 2.3 3.9 2.3 2.3 0-.57-1.15-2.3-2.3-2.3Zm9.82-3.47c-1.16.77-3 2.12-2.31 2.9 1.08 1.2 2.1-.94 2.3-2.9ZM38.5 29.5c-1.15.2-3.23 1.96-2.3 2.89.92.92 2.88-1.16 2.3-2.89Z" stroke="#B0B0B0" stroke-width="1.15"/><path d="M33.3 32.39c.87-.6 2.97-1.08 2.9 0-.13 1.86-2.25 1.37-2.9 0Z" stroke="#B0B0B0" stroke-width="1.15"/><path d="M33.82 32.39h2.44c-.97.57-1.14 1.03-1.22 1.94l1.63-.78c.89.6.93.94 0 1.55l-1.63-.77.81 1.94c-.51 1-1.01.97-1.62 0l.8-1.94-1.82.77c-.71-.6-.56-.94 0-1.55l1.83.78c-.15-.91-.36-1.36-1.22-1.94Z" fill="#000"/><path d="M35.04 34.33c.08-.91.25-1.37 1.22-1.94h-2.44c.86.58 1.07 1.03 1.22 1.94Zm0 0 1.63-.78c.89.6.93.94 0 1.55l-1.63-.77Zm0 0-.81 1.94c.6.97 1.1 1 1.62 0l-.81-1.94Zm0 0-1.83.77c-.71-.6-.56-.94 0-1.55l1.83.78Z" stroke="#000" stroke-width="1.15" stroke-linejoin="bevel"/><path d="M37.93 9.29c.58 2.89.18 2.27 1.15 5.2.77 2.3 1.16 4.04 2.9 6.93" stroke="#FFCB8D" stroke-opacity=".46" stroke-width="1.15" style="mix-blend-mode:multiply"/><path d="M33.89 17.95h1.15" stroke="#000" stroke-width=".58"/><circle cx="46.59" cy="34.7" r="1.15" fill="#6E86C4"/><path d="M17.72 44.52h27.14" stroke="#000" stroke-width="1.15"/></svg>