<svg width="61" height="91" fill="none" xmlns="http://www.w3.org/2000/svg"><rect x=".39" y=".05" width="60.06" height="90.09" rx="4.62" fill="#fff"/><mask id="a" style="mask-type:alpha" maskUnits="userSpaceOnUse" x="1" y="1" width="58" height="87"><path d="M11.28 2.36h42.24a4.04 4.04 0 0 1 4.04 4.04v63.94c0 1.37-1.1 2.47-2.46 2.47-1.54 0-2.9.97-3.42 2.42l-2.26 6.4a2.65 2.65 0 0 0 .85 2.95 1.5 1.5 0 0 1-.94 2.67H6.32a4.04 4.04 0 0 1-4.04-4.18l2.04-62.85a2.94 2.94 0 0 1 2.95-2.85 4.1 4.1 0 0 0 4.1-4.1V8.23c0-.96-.46-1.87-1.23-2.44a1.9 1.9 0 0 1 1.14-3.42Z" fill="#C4C4C4" stroke="#000" stroke-width="1.15"/></mask><g mask="url(#a)"><rect x="6.17" y="5.25" width="49.66" height="79.69" rx="4.04" stroke="#000" stroke-width="1.15"/></g><path d="M16.7 19.68h-4.88c1.94-1.13 2.28-2.06 2.44-3.87L11 17.36c-1.78-1.2-1.87-1.87 0-3.1l3.26 1.55-1.63-3.88c1.03-2.02 2.03-1.94 3.25 0l-1.62 3.88 3.66-1.56c1.42 1.22 1.1 1.9 0 3.1l-3.66-1.54c.3 1.81.71 2.72 2.44 3.87Z" fill="#000"/><path d="M14.26 15.8c-.16 1.82-.5 2.75-2.44 3.88h4.88c-1.73-1.15-2.15-2.06-2.44-3.87Zm0 0L11 17.37c-1.78-1.2-1.87-1.87 0-3.1l3.26 1.55Zm0 0 1.62-3.87c-1.22-1.94-2.22-2.02-3.25 0l1.63 3.88Zm0 0 3.66-1.55c1.42 1.22 1.1 1.9 0 3.1l-3.66-1.54Z" stroke="#000" stroke-width="1.15"/><path d="M44.15 70.5h4.88c-1.94 1.14-2.29 2.06-2.44 3.88l3.25-1.55c1.78 1.19 1.87 1.87 0 3.1l-3.25-1.55 1.62 3.88c-1.03 2.01-2.03 1.94-3.25 0l1.63-3.88-3.66 1.55c-1.43-1.21-1.12-1.89 0-3.1l3.66 1.55c-.3-1.82-.72-2.72-2.44-3.88Z" fill="#000"/><path d="M46.59 74.38c.15-1.82.5-2.74 2.44-3.88h-4.88c1.72 1.16 2.14 2.06 2.44 3.88Zm0 0 3.25-1.55c1.78 1.19 1.87 1.87 0 3.1l-3.25-1.55Zm0 0-1.63 3.88c1.22 1.94 2.22 2.01 3.25 0l-1.62-3.88Zm0 0-3.66 1.55c-1.43-1.21-1.12-1.89 0-3.1l3.66 1.55Z" stroke="#000" stroke-width="1.15"/><path d="m5.15 9.25.03.01h.07l.24-.01a1.38 1.38 0 0 0 .97-.63c.1-.15.17-.34.23-.55.06-.22.09-.47.09-.78a1.17 1.17 0 0 0-.66-1.04.77.77 0 0 0-.35-.08.97.97 0 0 0-.19.03 1.2 1.2 0 0 0-.18.07.82.82 0 0 0-.19.14 1 1 0 0 1 .14.26l.1.25.03.27c0 .15-.03.28-.09.38a.9.9 0 0 1-.22.28.95.95 0 0 1-.6.22l-.33-.03a1.04 1.04 0 0 1-.7-.53c-.09-.16-.13-.38-.13-.66 0-.27.06-.52.18-.73.13-.23.3-.42.51-.58a2.99 2.99 0 0 1 2.55-.33 2.36 2.36 0 0 1 1.4 1.29c.14.32.21.7.21 1.12a2.5 2.5 0 0 1-.44 1.46 2.58 2.58 0 0 1-.93.86 2.55 2.55 0 0 1 .93.72 2.19 2.19 0 0 1 .44 1.35 2.46 2.46 0 0 1-2.53 2.57 3 3 0 0 1-1.63-.5 1.96 1.96 0 0 1-.5-.56 1.5 1.5 0 0 1-.2-.75c0-.28.05-.5.14-.66a1.04 1.04 0 0 1 .7-.52c.14-.03.24-.04.33-.04.1 0 .2.02.3.06.11.04.21.1.3.17s.16.17.22.28c.06.1.09.23.09.37 0 .1-.02.18-.03.27l-.08.26c-.04.09-.1.18-.16.26a.75.75 0 0 0 .37.2c.07.03.13.04.2.04.1 0 .22-.03.34-.08.12-.06.23-.14.32-.24a1.14 1.14 0 0 0 .33-.82c0-.3-.03-.56-.09-.78-.06-.22-.14-.4-.24-.54a1.3 1.3 0 0 0-.33-.34 1.54 1.54 0 0 0-.9-.29h-.06V9.25ZM55.7 80.93h-.03l-.08-.01c-.06 0-.14 0-.24.02-.1 0-.2.04-.32.08a1.38 1.38 0 0 0-.65.55c-.1.15-.17.33-.23.55-.05.21-.08.47-.08.77a1.17 1.17 0 0 0 .66 1.04c.11.06.23.09.34.09.06 0 .13-.01.19-.03l.18-.08a.82.82 0 0 0 .19-.13 1 1 0 0 1-.14-.26l-.09-.26-.04-.27c0-.14.03-.27.09-.38a.9.9 0 0 1 .22-.27.95.95 0 0 1 .6-.22c.09 0 .2 0 .33.03a1.04 1.04 0 0 1 .7.52c.09.17.14.38.14.66 0 .27-.07.52-.2.74-.12.22-.29.41-.5.57-.21.16-.46.28-.74.37a2.99 2.99 0 0 1-1.8-.03 2.36 2.36 0 0 1-1.4-1.3c-.15-.31-.22-.69-.22-1.11a2.5 2.5 0 0 1 .44-1.47 2.57 2.57 0 0 1 .94-.85 2.54 2.54 0 0 1-.94-.73 2.19 2.19 0 0 1-.44-1.35 2.46 2.46 0 0 1 2.53-2.57 2.99 2.99 0 0 1 1.63.5c.21.16.38.35.5.57.13.22.2.47.2.74 0 .28-.05.5-.14.66a1.04 1.04 0 0 1-.7.53l-.32.04c-.1 0-.2-.03-.31-.07a.9.9 0 0 1-.3-.16.88.88 0 0 1-.22-.28.77.77 0 0 1-.09-.38l.03-.27.08-.25c.04-.1.1-.18.16-.26a.75.75 0 0 0-.37-.21.98.98 0 0 0-.19-.04.82.82 0 0 0-.35.09 1.2 1.2 0 0 0-.56.59c-.06.14-.1.3-.1.46 0 .3.04.57.1.78.06.22.14.4.24.55.1.14.21.26.33.34a1.54 1.54 0 0 0 .9.28h.06v1.12ZM33.14 30.08h-4.27c1.7-1 2-1.8 2.13-3.4l-2.84 1.36c-1.56-1.04-1.64-1.63 0-2.71L31 26.68l-1.42-3.39c.9-1.76 1.78-1.7 2.85 0L31 26.7l3.2-1.36c1.25 1.06.98 1.65 0 2.71L31 26.68c.26 1.6.63 2.38 2.14 3.4Z" fill="#000"/><path d="M31 26.68c-.13 1.6-.43 2.4-2.13 3.4h4.27c-1.5-1.02-1.88-1.8-2.14-3.4Zm0 0-2.84 1.36c-1.56-1.04-1.64-1.63 0-2.71L31 26.68Zm0 0 1.43-3.39c-1.07-1.7-1.95-1.76-2.85 0L31 26.7Zm0 0 3.2-1.35c1.25 1.06.98 1.65 0 2.71L31 26.68Z" stroke="#000" stroke-width="1.15"/><path d="M33.14 47.4h-4.27c1.7-1 2-1.8 2.13-3.4l-2.84 1.37c-1.56-1.04-1.64-1.64 0-2.72L31 44.01l-1.42-3.4c.9-1.76 1.78-1.7 2.85 0L31 44.02l3.2-1.36c1.25 1.06.98 1.66 0 2.72L31 44c.26 1.6.63 2.38 2.14 3.4Z" fill="#000"/><path d="M31 44c-.13 1.6-.43 2.4-2.13 3.4h4.27c-1.5-1.01-1.88-1.8-2.14-3.4Zm0 0-2.84 1.37c-1.56-1.04-1.64-1.64 0-2.72L31 44.01Zm0 0 1.43-3.38c-1.07-1.7-1.95-1.77-2.85 0L31 44Zm0 0 3.2-1.35c1.25 1.06.98 1.66 0 2.72L31 44Z" stroke="#000" stroke-width="1.15"/><path d="M33.14 60.1h-4.27c1.7 1 2 1.8 2.13 3.4l-2.84-1.36c-1.56 1.04-1.64 1.64 0 2.72L31 63.5l-1.42 3.4c.9 1.76 1.78 1.7 2.85 0L31 63.5l3.2 1.36c1.25-1.06.98-1.66 0-2.72L31 63.5c.26-1.6.63-2.38 2.14-3.4Z" fill="#000"/><path d="M31 63.5c-.13-1.6-.43-2.4-2.13-3.4h4.27c-1.5 1.02-1.88 1.8-2.14 3.4Zm0 0-2.84-1.36c-1.56 1.04-1.64 1.64 0 2.72L31 63.5Zm0 0 1.43 3.4c-1.07 1.7-1.95 1.76-2.85 0L31 63.5Zm0 0 3.2 1.36c1.25-1.06.98-1.66 0-2.72L31 63.5Z" stroke="#000" stroke-width="1.15"/></svg>