<svg width="150" height="24" viewBox="0 0 150 24" fill="none" xmlns="http://www.w3.org/2000/svg">
<mask id="path-1-outside-1_1623_9709" maskUnits="userSpaceOnUse" x="0.527344" y="0.730469" width="150" height="23" fill="black">
<rect fill="white" x="0.527344" y="0.730469" width="150" height="23"/>
<path d="M11.3633 18.3164C11.3555 18.3555 11.3516 18.3984 11.3516 18.4453C11.3438 18.4844 11.3398 18.5352 11.3398 18.5977C11.3398 18.6602 11.3398 18.7344 11.3398 18.8203C11.3398 19.0312 11.3477 19.3242 11.3633 19.6992C11.3789 20.0664 11.418 20.5078 11.4805 21.0234C10.8398 21.0078 10.2422 21 9.6875 21C9.13281 21 8.60938 21 8.11719 21C7.14062 21 6.30859 21.0078 5.62109 21.0234C4.93359 21.0391 4.36719 21.0547 3.92188 21.0703C3.40625 21.0938 2.98047 21.1172 2.64453 21.1406C2.63672 21.1172 2.63281 21.0859 2.63281 21.0469C2.625 21.0156 2.62109 20.9766 2.62109 20.9297C2.62109 20.8828 2.62109 20.8281 2.62109 20.7656C2.62109 20.5 2.65234 20.125 2.71484 19.6406C2.77734 19.1562 2.91406 18.6094 3.125 18C3.34375 17.3828 3.66406 16.7305 4.08594 16.043C4.51562 15.3555 5.09375 14.6719 5.82031 13.9922C6.25 13.5859 6.65234 13.1719 7.02734 12.75C7.40234 12.3281 7.73047 11.8828 8.01172 11.4141C8.29297 10.9453 8.51172 10.4453 8.66797 9.91406C8.83203 9.375 8.91406 8.78906 8.91406 8.15625C8.91406 7.64062 8.86328 7.21484 8.76172 6.87891C8.66016 6.53516 8.51953 6.26562 8.33984 6.07031C8.16797 5.86719 7.96484 5.72656 7.73047 5.64844C7.50391 5.5625 7.25781 5.51953 6.99219 5.51953C6.875 5.52734 6.75781 5.54688 6.64062 5.57812C6.53906 5.60938 6.42578 5.65625 6.30078 5.71875C6.17578 5.78125 6.05469 5.86719 5.9375 5.97656C6.05469 6.13281 6.14453 6.29688 6.20703 6.46875C6.27734 6.64062 6.33203 6.80078 6.37109 6.94922C6.41016 7.12109 6.43359 7.29297 6.44141 7.46484C6.44141 7.73828 6.38672 7.97656 6.27734 8.17969C6.16797 8.38281 6.02734 8.55469 5.85547 8.69531C5.69141 8.83594 5.50781 8.94141 5.30469 9.01172C5.10156 9.08203 4.90234 9.11719 4.70703 9.11719C4.55859 9.11719 4.35938 9.09766 4.10938 9.05859C3.86719 9.01172 3.62891 8.91016 3.39453 8.75391C3.16016 8.59766 2.95703 8.36719 2.78516 8.0625C2.61328 7.75781 2.52734 7.34375 2.52734 6.82031C2.52734 6.30469 2.64453 5.83984 2.87891 5.42578C3.12109 5.00391 3.44141 4.64453 3.83984 4.34766C4.24609 4.04297 4.71484 3.8125 5.24609 3.65625C5.77734 3.49219 6.33594 3.41016 6.92188 3.41016C7.5 3.41016 8.07422 3.51172 8.64453 3.71484C9.21484 3.91797 9.72266 4.22266 10.168 4.62891C10.6211 5.03516 10.9883 5.54297 11.2695 6.15234C11.5508 6.75391 11.6914 7.45703 11.6914 8.26172C11.6914 9.23828 11.5547 10.1016 11.2812 10.8516C11.0156 11.5938 10.6797 12.2617 10.2734 12.8555C9.86719 13.4414 9.42188 13.9766 8.9375 14.4609C8.46094 14.9375 8.01172 15.3984 7.58984 15.8438C7.02734 16.4297 6.59375 16.9961 6.28906 17.543C5.99219 18.082 5.77734 18.5391 5.64453 18.9141C6.44141 18.8906 7.1875 18.8477 7.88281 18.7852C8.57812 18.7227 9.18359 18.6602 9.69922 18.5977C10.2148 18.5352 10.6211 18.4766 10.918 18.4219C11.2148 18.3672 11.3633 18.332 11.3633 18.3164Z"/>
<path d="M17.3506 10.6992C17.3506 10.9102 17.3077 11.1094 17.2217 11.2969C17.1436 11.4844 17.0342 11.6484 16.8936 11.7891C16.7608 11.9219 16.6006 12.0312 16.4131 12.1172C16.2256 12.1953 16.0264 12.2344 15.8155 12.2344C15.5967 12.2344 15.3936 12.1953 15.2061 12.1172C15.0186 12.0312 14.8545 11.9219 14.7139 11.7891C14.5733 11.6484 14.46 11.4844 14.3741 11.2969C14.2959 11.1094 14.2569 10.9102 14.2569 10.6992C14.2569 10.4883 14.2959 10.2891 14.3741 10.1016C14.46 9.90625 14.5733 9.73828 14.7139 9.59766C14.8545 9.45703 15.0186 9.34766 15.2061 9.26953C15.3936 9.18359 15.5967 9.14062 15.8155 9.14062C16.0264 9.14062 16.2256 9.18359 16.4131 9.26953C16.6006 9.34766 16.7608 9.45703 16.8936 9.59766C17.0342 9.73828 17.1436 9.90625 17.2217 10.1016C17.3077 10.2891 17.3506 10.4883 17.3506 10.6992ZM17.3506 19.8984C17.3506 20.1094 17.3077 20.3086 17.2217 20.4961C17.1436 20.6758 17.0342 20.8359 16.8936 20.9766C16.7608 21.1172 16.6006 21.2266 16.4131 21.3047C16.2256 21.3906 16.0264 21.4336 15.8155 21.4336C15.5967 21.4336 15.3936 21.3906 15.2061 21.3047C15.0186 21.2266 14.8545 21.1172 14.7139 20.9766C14.5733 20.8359 14.46 20.6758 14.3741 20.4961C14.2959 20.3086 14.2569 20.1094 14.2569 19.8984C14.2569 19.6797 14.2959 19.4766 14.3741 19.2891C14.46 19.1016 14.5733 18.9375 14.7139 18.7969C14.8545 18.6562 15.0186 18.5469 15.2061 18.4688C15.3936 18.3828 15.5967 18.3398 15.8155 18.3398C16.0264 18.3398 16.2256 18.3828 16.4131 18.4688C16.6006 18.5469 16.7608 18.6562 16.8936 18.7969C17.0342 18.9375 17.1436 19.1016 17.2217 19.2891C17.3077 19.4766 17.3506 19.6797 17.3506 19.8984Z"/>
<path d="M29.3487 21.4102C28.6691 21.4102 28.1183 21.4141 27.6964 21.4219C27.2823 21.4375 26.9542 21.4531 26.712 21.4688C26.4308 21.4922 26.2237 21.5117 26.0909 21.5273C26.1534 21.0898 26.2081 20.625 26.255 20.1328C26.3019 19.6328 26.3448 19.125 26.3839 18.6094C26.423 18.0938 26.4542 17.582 26.4777 17.0742C26.5011 16.5664 26.5206 16.082 26.5362 15.6211C26.5675 14.5352 26.587 13.4492 26.5948 12.3633C26.587 11.2773 26.5675 10.2266 26.5362 9.21094C26.5206 8.78125 26.5011 8.33594 26.4777 7.875C26.4542 7.40625 26.4269 6.94922 26.3956 6.50391C26.3644 6.05859 26.3253 5.63281 26.2784 5.22656C26.2394 4.82031 26.1925 4.45312 26.1378 4.125H26.8995C27.3214 4.125 27.6847 4.12109 27.9894 4.11328C28.2941 4.09766 28.548 4.08203 28.7511 4.06641C28.9855 4.05078 29.1847 4.03125 29.3487 4.00781C29.3097 4.78906 29.2745 5.57422 29.2433 6.36328C29.2198 7.15234 29.2003 7.90625 29.1847 8.625C29.1691 9.33594 29.1573 9.98828 29.1495 10.582C29.1417 11.1758 29.1378 11.6719 29.1378 12.0703C29.3878 12.0859 29.63 12.0938 29.8644 12.0938C30.0987 12.0938 30.3292 12.0938 30.5558 12.0938C31.048 12.0938 31.4816 12.0859 31.8566 12.0703C32.2394 12.0469 32.5558 12.0234 32.8058 12C32.8058 11.9531 32.8019 11.7852 32.7941 11.4961C32.7941 11.1992 32.7902 10.8281 32.7823 10.3828C32.7745 9.9375 32.7589 9.4375 32.7355 8.88281C32.7198 8.32812 32.6964 7.76562 32.6652 7.19531C32.6339 6.625 32.5948 6.07422 32.548 5.54297C32.5011 5.00391 32.4425 4.53125 32.3722 4.125H33.1222C33.5206 4.125 33.8644 4.12109 34.1534 4.11328C34.4503 4.09766 34.6964 4.08203 34.8917 4.06641C35.1183 4.05078 35.3097 4.03125 35.4659 4.00781C35.4425 4.51562 35.4191 5.03125 35.3956 5.55469C35.38 6.07031 35.3644 6.58203 35.3487 7.08984C35.3409 7.58984 35.3331 8.07812 35.3253 8.55469C35.3175 9.02344 35.3097 9.46875 35.3019 9.89062C35.2862 10.875 35.2784 11.8242 35.2784 12.7383C35.2784 13.6445 35.2862 14.5664 35.3019 15.5039C35.3097 15.9023 35.3175 16.3242 35.3253 16.7695C35.3331 17.207 35.3409 17.6562 35.3487 18.1172C35.3644 18.5703 35.38 19.0234 35.3956 19.4766C35.4191 19.9297 35.4425 20.3672 35.4659 20.7891C34.8097 20.7891 34.2784 20.7969 33.8722 20.8125C33.4659 20.8203 33.1495 20.832 32.923 20.8477C32.6573 20.8711 32.4581 20.8906 32.3253 20.9062C32.3956 20.4297 32.4542 19.9219 32.5011 19.3828C32.548 18.8438 32.587 18.2969 32.6183 17.7422C32.6573 17.1875 32.6847 16.6406 32.7003 16.1016C32.7237 15.5625 32.7433 15.0586 32.7589 14.5898C32.3839 14.5508 32.0245 14.5273 31.6808 14.5195C31.337 14.5039 31.0089 14.4961 30.6964 14.4961C30.3683 14.4961 30.0714 14.5 29.8058 14.5078C29.548 14.5156 29.3253 14.5273 29.1378 14.543C29.1378 14.9648 29.1417 15.4531 29.1495 16.0078C29.1573 16.5625 29.1691 17.1445 29.1847 17.7539C29.2081 18.3555 29.2316 18.9727 29.255 19.6055C29.2784 20.2305 29.3097 20.832 29.3487 21.4102Z"/>
<path d="M46.5744 18.4805C46.5744 18.9414 46.4689 19.375 46.258 19.7812C46.047 20.1875 45.7619 20.5391 45.4025 20.8359C45.0431 21.1328 44.6213 21.3672 44.1369 21.5391C43.6525 21.7109 43.1369 21.7969 42.59 21.7969C42.2228 21.7969 41.8517 21.7461 41.4767 21.6445C41.1017 21.543 40.7423 21.375 40.3986 21.1406C40.0548 20.9062 39.7306 20.5977 39.4259 20.2148C39.1213 19.832 38.8556 19.3633 38.6291 18.8086C38.4103 18.2539 38.2345 17.6055 38.1017 16.8633C37.9767 16.1133 37.9142 15.2539 37.9142 14.2852C37.9142 13.3711 37.9767 12.5625 38.1017 11.8594C38.2345 11.1562 38.4103 10.543 38.6291 10.0195C38.8556 9.49609 39.1173 9.05859 39.4142 8.70703C39.7111 8.34766 40.0275 8.05859 40.3634 7.83984C40.7072 7.61328 41.0588 7.45312 41.4181 7.35938C41.7853 7.26562 42.1447 7.21875 42.4963 7.21875C43.0197 7.21875 43.5158 7.30469 43.9845 7.47656C44.4533 7.64062 44.8634 7.88672 45.215 8.21484C45.5666 8.54297 45.8439 8.94922 46.047 9.43359C46.258 9.91016 46.3634 10.4609 46.3634 11.0859C46.3634 11.6484 46.2463 12.2188 46.0119 12.7969C45.7853 13.3672 45.4455 13.9102 44.9923 14.4258C44.5392 14.9336 43.9767 15.3984 43.3048 15.8203C42.6408 16.2344 41.8752 16.5625 41.008 16.8047C41.0548 17.2891 41.1213 17.7305 41.2072 18.1289C41.3009 18.5273 41.4142 18.8672 41.547 19.1484C41.6877 19.4297 41.8478 19.6484 42.0275 19.8047C42.215 19.9609 42.4298 20.0391 42.672 20.0391C42.8283 20.0312 42.9767 20.0039 43.1173 19.957C43.2423 19.918 43.3673 19.8555 43.4923 19.7695C43.6252 19.6836 43.7345 19.5586 43.8205 19.3945C43.6173 19.3008 43.4611 19.1797 43.3517 19.0312C43.2423 18.8828 43.1603 18.7422 43.1056 18.6094C43.0431 18.4531 43.008 18.2891 43.0002 18.1172C43.0002 17.7422 43.0744 17.4375 43.2228 17.2031C43.3713 16.9688 43.547 16.7852 43.7502 16.6523C43.9533 16.5195 44.1603 16.4297 44.3713 16.3828C44.5822 16.3281 44.7502 16.3008 44.8752 16.3008C45.008 16.3008 45.1681 16.3281 45.3556 16.3828C45.5509 16.4375 45.7384 16.543 45.9181 16.6992C46.0978 16.8555 46.2502 17.0781 46.3752 17.3672C46.508 17.6484 46.5744 18.0195 46.5744 18.4805ZM43.6798 11.1094C43.6798 10.8281 43.6525 10.5625 43.5978 10.3125C43.5509 10.0547 43.4767 9.83203 43.3752 9.64453C43.2814 9.45703 43.1603 9.30859 43.0119 9.19922C42.8713 9.08203 42.7072 9.02344 42.5197 9.02344C42.1994 9.02344 41.9377 9.17188 41.7345 9.46875C41.5314 9.75781 41.3673 10.1445 41.2423 10.6289C41.1173 11.1133 41.0314 11.6719 40.9845 12.3047C40.9377 12.9375 40.9142 13.5977 40.9142 14.2852V15.1406C41.3127 14.9297 41.6798 14.6797 42.0158 14.3906C42.3595 14.1016 42.6525 13.7852 42.8947 13.4414C43.1447 13.0898 43.3361 12.7188 43.4689 12.3281C43.6095 11.9375 43.6798 11.5312 43.6798 11.1094Z"/>
<path d="M52.0812 4.55859C52.0812 4.80859 52.0344 5.04688 51.9406 5.27344C51.8469 5.49219 51.718 5.68359 51.5539 5.84766C51.3898 6.01172 51.1945 6.14453 50.968 6.24609C50.7492 6.33984 50.5148 6.38672 50.2648 6.38672C50.0148 6.38672 49.7766 6.33984 49.55 6.24609C49.3312 6.14453 49.1398 6.01172 48.9758 5.84766C48.8117 5.68359 48.6789 5.49219 48.5773 5.27344C48.4836 5.04688 48.4367 4.80859 48.4367 4.55859C48.4367 4.30859 48.4836 4.07422 48.5773 3.85547C48.6789 3.62891 48.8117 3.43359 48.9758 3.26953C49.1398 3.10547 49.3312 2.97656 49.55 2.88281C49.7766 2.78125 50.0148 2.73047 50.2648 2.73047C50.5148 2.73047 50.7492 2.78125 50.968 2.88281C51.1945 2.97656 51.3898 3.10547 51.5539 3.26953C51.718 3.43359 51.8469 3.62891 51.9406 3.85547C52.0344 4.07422 52.0812 4.30859 52.0812 4.55859ZM52.0812 8.10938C52.0187 8.72656 51.9641 9.39453 51.9172 10.1133C51.8781 10.8242 51.843 11.5547 51.8117 12.3047C51.7883 13.0547 51.7687 13.8086 51.7531 14.5664C51.7375 15.3242 51.7258 16.0469 51.718 16.7344C51.7102 17.4219 51.7023 18.0664 51.6945 18.668C51.6945 19.2617 51.6945 19.7734 51.6945 20.2031V21.5273L49.0344 21.6211C49.05 21.082 49.0578 20.5586 49.0578 20.0508C49.0578 19.543 49.0578 19.0352 49.0578 18.5273C49.0578 17.6445 49.05 16.7852 49.0344 15.9492C49.0187 15.1055 48.9914 14.2617 48.9523 13.418C48.9211 12.5742 48.8781 11.7188 48.8234 10.8516C48.7687 9.98438 48.7023 9.08594 48.6242 8.15625L52.0812 8.10938Z"/>
<path d="M58.7131 3.1875C58.6506 3.99219 58.5998 4.78516 58.5608 5.56641C58.5217 6.33984 58.4827 7.11719 58.4436 7.89844C58.7873 7.88281 59.1272 7.87109 59.4631 7.86328C59.7991 7.84766 60.1428 7.82812 60.4944 7.80469L60.5412 10.8047C60.1662 10.7422 59.7952 10.6914 59.428 10.6523C59.0608 10.6133 58.7014 10.582 58.3498 10.5586C58.3264 11.2227 58.3108 11.8789 58.303 12.5273C58.303 13.1758 58.303 13.832 58.303 14.4961C58.303 15.6836 58.3147 16.8633 58.3381 18.0352C58.3694 19.207 58.4162 20.3867 58.4787 21.5742L55.4202 21.5273C55.5217 19.6914 55.6037 17.8594 55.6662 16.0312C55.7366 14.1953 55.7834 12.3477 55.8069 10.4883C55.4787 10.5039 55.1506 10.5234 54.8225 10.5469C54.4944 10.5625 54.1584 10.582 53.8147 10.6055L53.9084 7.82812C54.2287 7.85156 54.5452 7.87109 54.8577 7.88672C55.178 7.89453 55.4944 7.90625 55.8069 7.92188C55.8069 7.14062 55.7991 6.36328 55.7834 5.58984C55.7678 4.80859 55.7522 4.02344 55.7366 3.23438L58.7131 3.1875Z"/>
<path d="M70.7825 18.4805C70.7825 18.9414 70.677 19.375 70.4661 19.7812C70.2552 20.1875 69.97 20.5391 69.6106 20.8359C69.2513 21.1328 68.8294 21.3672 68.345 21.5391C67.8606 21.7109 67.345 21.7969 66.7981 21.7969C66.4309 21.7969 66.0598 21.7461 65.6848 21.6445C65.3098 21.543 64.9505 21.375 64.6067 21.1406C64.263 20.9062 63.9388 20.5977 63.6341 20.2148C63.3294 19.832 63.0638 19.3633 62.8372 18.8086C62.6184 18.2539 62.4427 17.6055 62.3098 16.8633C62.1848 16.1133 62.1223 15.2539 62.1223 14.2852C62.1223 13.3711 62.1848 12.5625 62.3098 11.8594C62.4427 11.1562 62.6184 10.543 62.8372 10.0195C63.0638 9.49609 63.3255 9.05859 63.6223 8.70703C63.9192 8.34766 64.2356 8.05859 64.5716 7.83984C64.9153 7.61328 65.2669 7.45312 65.6263 7.35938C65.9934 7.26562 66.3528 7.21875 66.7044 7.21875C67.2278 7.21875 67.7239 7.30469 68.1927 7.47656C68.6614 7.64062 69.0716 7.88672 69.4231 8.21484C69.7747 8.54297 70.052 8.94922 70.2552 9.43359C70.4661 9.91016 70.5716 10.4609 70.5716 11.0859C70.5716 11.6484 70.4544 12.2188 70.22 12.7969C69.9934 13.3672 69.6536 13.9102 69.2005 14.4258C68.7473 14.9336 68.1848 15.3984 67.513 15.8203C66.8489 16.2344 66.0833 16.5625 65.2161 16.8047C65.263 17.2891 65.3294 17.7305 65.4153 18.1289C65.5091 18.5273 65.6223 18.8672 65.7552 19.1484C65.8958 19.4297 66.0559 19.6484 66.2356 19.8047C66.4231 19.9609 66.638 20.0391 66.8802 20.0391C67.0364 20.0312 67.1848 20.0039 67.3255 19.957C67.4505 19.918 67.5755 19.8555 67.7005 19.7695C67.8333 19.6836 67.9427 19.5586 68.0286 19.3945C67.8255 19.3008 67.6692 19.1797 67.5598 19.0312C67.4505 18.8828 67.3684 18.7422 67.3138 18.6094C67.2513 18.4531 67.2161 18.2891 67.2083 18.1172C67.2083 17.7422 67.2825 17.4375 67.4309 17.2031C67.5794 16.9688 67.7552 16.7852 67.9583 16.6523C68.1614 16.5195 68.3684 16.4297 68.5794 16.3828C68.7903 16.3281 68.9583 16.3008 69.0833 16.3008C69.2161 16.3008 69.3763 16.3281 69.5638 16.3828C69.7591 16.4375 69.9466 16.543 70.1263 16.6992C70.3059 16.8555 70.4583 17.0781 70.5833 17.3672C70.7161 17.6484 70.7825 18.0195 70.7825 18.4805ZM67.888 11.1094C67.888 10.8281 67.8606 10.5625 67.8059 10.3125C67.7591 10.0547 67.6848 9.83203 67.5833 9.64453C67.4895 9.45703 67.3684 9.30859 67.22 9.19922C67.0794 9.08203 66.9153 9.02344 66.7278 9.02344C66.4075 9.02344 66.1458 9.17188 65.9427 9.46875C65.7395 9.75781 65.5755 10.1445 65.4505 10.6289C65.3255 11.1133 65.2395 11.6719 65.1927 12.3047C65.1458 12.9375 65.1223 13.5977 65.1223 14.2852V15.1406C65.5208 14.9297 65.888 14.6797 66.2239 14.3906C66.5677 14.1016 66.8606 13.7852 67.1028 13.4414C67.3528 13.0898 67.5442 12.7188 67.677 12.3281C67.8177 11.9375 67.888 11.5312 67.888 11.1094Z"/>
<path d="M76.0081 21.4805L72.8792 21.7148C73.0042 20.3164 73.0941 18.9688 73.1488 17.6719C73.2113 16.3672 73.2425 15.0625 73.2425 13.7578C73.2425 12.8359 73.2269 11.9141 73.1956 10.9922C73.1722 10.0625 73.1253 9.10938 73.055 8.13281L75.6917 7.99219C75.6761 8.16406 75.6644 8.33203 75.6566 8.49609C75.6488 8.66016 75.6448 8.82031 75.6448 8.97656C75.9183 8.55469 76.2152 8.22656 76.5355 7.99219C76.8636 7.75 77.1683 7.57422 77.4495 7.46484C77.7698 7.33203 78.0941 7.25 78.4222 7.21875C78.9925 7.21875 79.4808 7.30859 79.887 7.48828C80.2933 7.66016 80.6253 7.88672 80.8831 8.16797C81.1409 8.44141 81.3284 8.75 81.4456 9.09375C81.5628 9.42969 81.6214 9.75781 81.6214 10.0781C81.6214 10.4062 81.5863 10.7383 81.5159 11.0742C81.4456 11.4102 81.3245 11.7148 81.1527 11.9883C80.9886 12.2539 80.7659 12.4727 80.4847 12.6445C80.2113 12.8086 79.8714 12.8906 79.4652 12.8906C79.0589 12.8906 78.7386 12.8164 78.5042 12.668C78.2698 12.5195 78.0902 12.3438 77.9652 12.1406C77.848 11.9297 77.7698 11.7148 77.7308 11.4961C77.6995 11.2695 77.6839 11.0781 77.6839 10.9219C77.6839 10.8125 77.7034 10.6914 77.7425 10.5586C77.7816 10.418 77.8402 10.2773 77.9183 10.1367C77.9964 9.99609 78.0941 9.85938 78.2113 9.72656C78.3284 9.58594 78.4652 9.45703 78.6214 9.33984C78.5745 9.32422 78.5238 9.3125 78.4691 9.30469C78.4222 9.29688 78.3753 9.29297 78.3284 9.29297C77.9378 9.29297 77.5902 9.41797 77.2855 9.66797C76.9808 9.91016 76.7152 10.25 76.4886 10.6875C76.2698 11.125 76.0863 11.6406 75.9378 12.2344C75.7972 12.8281 75.6917 13.4766 75.6214 14.1797C75.6605 15.3906 75.7152 16.5898 75.7855 17.7773C75.8558 18.9648 75.93 20.1992 76.0081 21.4805Z"/>
<path d="M101.987 8.33203C101.955 9.00391 101.932 9.67578 101.916 10.3477C101.909 11.0117 101.901 11.6133 101.893 12.1523C101.885 12.7852 101.881 13.3906 101.881 13.9688C101.866 14.5391 101.838 15.1289 101.799 15.7383C101.76 16.3398 101.69 16.9258 101.588 17.4961C101.495 18.0664 101.362 18.6055 101.19 19.1133C101.026 19.6211 100.811 20.0664 100.545 20.4492C100.28 20.832 99.9555 21.1328 99.5727 21.3516C99.1977 21.5781 98.7523 21.6914 98.2367 21.6914C97.8148 21.6602 97.4125 21.5391 97.0297 21.3281C96.8656 21.2344 96.6977 21.1211 96.5258 20.9883C96.3539 20.8477 96.1898 20.6758 96.0336 20.4727C95.8773 20.2695 95.7289 20.0312 95.5883 19.7578C95.4477 19.4844 95.3305 19.1641 95.2367 18.7969C94.9789 19.4688 94.6781 19.9883 94.3344 20.3555C93.9906 20.7227 93.6664 20.9922 93.3617 21.1641C92.9945 21.3672 92.6273 21.4883 92.2602 21.5273C91.8383 21.5273 91.4789 21.4336 91.182 21.2461C90.8852 21.0586 90.6352 20.8008 90.432 20.4727C90.2289 20.1367 90.0687 19.7461 89.9516 19.3008C89.8344 18.8555 89.7445 18.375 89.682 17.8594C89.6195 17.3438 89.5766 16.8047 89.5531 16.2422C89.5375 15.6797 89.5297 15.1211 89.5297 14.5664C89.5297 14.3789 89.5297 14.2461 89.5297 14.168C89.5375 14.082 89.5414 14 89.5414 13.9219C89.5492 13.8359 89.557 13.7227 89.5648 13.582C89.5727 13.4336 89.5766 13.207 89.5766 12.9023C89.5844 12.5977 89.5883 12.1836 89.5883 11.6602C89.5961 11.1367 89.6 10.4492 89.6 9.59766C89.6 9.33203 89.6 9.07422 89.6 8.82422C89.6 8.56641 89.5922 8.32812 89.5766 8.10938L92.9047 8.20312C92.6391 9.59375 92.4594 10.957 92.3656 12.293C92.2797 13.6289 92.2367 14.9648 92.2367 16.3008C92.2367 17.168 92.2953 17.7969 92.4125 18.1875C92.5297 18.5781 92.7602 18.7734 93.1039 18.7734C93.2602 18.7734 93.4008 18.6875 93.5258 18.5156C93.6586 18.3359 93.7719 18.1016 93.8656 17.8125C93.9672 17.5156 94.0531 17.1797 94.1234 16.8047C94.2016 16.4297 94.2641 16.0469 94.3109 15.6562C94.3578 15.2578 94.393 14.8672 94.4164 14.4844C94.4398 14.1016 94.4516 13.7539 94.4516 13.4414C94.4516 13.1133 94.4477 12.7969 94.4398 12.4922C94.4398 12.1875 94.4281 11.8711 94.4047 11.543C94.3891 11.207 94.3656 10.8555 94.3344 10.4883C94.3109 10.1133 94.2758 9.69531 94.2289 9.23438L97.2289 9.38672C97.0727 10.3086 96.9398 11.2031 96.8305 12.0703C96.7289 12.9297 96.6781 13.7852 96.6781 14.6367C96.6781 15.1211 96.6977 15.6172 96.7367 16.125C96.7836 16.625 96.8539 17.082 96.9477 17.4961C97.0492 17.9023 97.1781 18.2383 97.3344 18.5039C97.4906 18.7617 97.6781 18.8906 97.8969 18.8906C98.1703 18.8906 98.393 18.7266 98.5648 18.3984C98.7445 18.0625 98.8812 17.6289 98.975 17.0977C99.0766 16.5586 99.1469 15.957 99.1859 15.293C99.225 14.6211 99.2445 13.9492 99.2445 13.2773C99.2445 13.207 99.2406 13.0391 99.2328 12.7734C99.225 12.5078 99.2055 12.1602 99.1742 11.7305C99.143 11.3008 99.0961 10.793 99.0336 10.207C98.9711 9.62109 98.8812 8.97266 98.7641 8.26172L101.987 8.33203Z"/>
<path d="M112.826 18.4805C112.826 18.9414 112.72 19.375 112.509 19.7812C112.298 20.1875 112.013 20.5391 111.654 20.8359C111.294 21.1328 110.872 21.3672 110.388 21.5391C109.904 21.7109 109.388 21.7969 108.841 21.7969C108.474 21.7969 108.103 21.7461 107.728 21.6445C107.353 21.543 106.994 21.375 106.65 21.1406C106.306 20.9062 105.982 20.5977 105.677 20.2148C105.372 19.832 105.107 19.3633 104.88 18.8086C104.662 18.2539 104.486 17.6055 104.353 16.8633C104.228 16.1133 104.165 15.2539 104.165 14.2852C104.165 13.3711 104.228 12.5625 104.353 11.8594C104.486 11.1562 104.662 10.543 104.88 10.0195C105.107 9.49609 105.369 9.05859 105.665 8.70703C105.962 8.34766 106.279 8.05859 106.615 7.83984C106.958 7.61328 107.31 7.45312 107.669 7.35938C108.037 7.26562 108.396 7.21875 108.747 7.21875C109.271 7.21875 109.767 7.30469 110.236 7.47656C110.705 7.64062 111.115 7.88672 111.466 8.21484C111.818 8.54297 112.095 8.94922 112.298 9.43359C112.509 9.91016 112.615 10.4609 112.615 11.0859C112.615 11.6484 112.497 12.2188 112.263 12.7969C112.037 13.3672 111.697 13.9102 111.244 14.4258C110.79 14.9336 110.228 15.3984 109.556 15.8203C108.892 16.2344 108.126 16.5625 107.259 16.8047C107.306 17.2891 107.372 17.7305 107.458 18.1289C107.552 18.5273 107.665 18.8672 107.798 19.1484C107.939 19.4297 108.099 19.6484 108.279 19.8047C108.466 19.9609 108.681 20.0391 108.923 20.0391C109.08 20.0312 109.228 20.0039 109.369 19.957C109.494 19.918 109.619 19.8555 109.744 19.7695C109.876 19.6836 109.986 19.5586 110.072 19.3945C109.869 19.3008 109.712 19.1797 109.603 19.0312C109.494 18.8828 109.412 18.7422 109.357 18.6094C109.294 18.4531 109.259 18.2891 109.251 18.1172C109.251 17.7422 109.326 17.4375 109.474 17.2031C109.622 16.9688 109.798 16.7852 110.001 16.6523C110.205 16.5195 110.412 16.4297 110.622 16.3828C110.833 16.3281 111.001 16.3008 111.126 16.3008C111.259 16.3008 111.419 16.3281 111.607 16.3828C111.802 16.4375 111.99 16.543 112.169 16.6992C112.349 16.8555 112.501 17.0781 112.626 17.3672C112.759 17.6484 112.826 18.0195 112.826 18.4805ZM109.931 11.1094C109.931 10.8281 109.904 10.5625 109.849 10.3125C109.802 10.0547 109.728 9.83203 109.626 9.64453C109.533 9.45703 109.412 9.30859 109.263 9.19922C109.122 9.08203 108.958 9.02344 108.771 9.02344C108.451 9.02344 108.189 9.17188 107.986 9.46875C107.783 9.75781 107.619 10.1445 107.494 10.6289C107.369 11.1133 107.283 11.6719 107.236 12.3047C107.189 12.9375 107.165 13.5977 107.165 14.2852V15.1406C107.564 14.9297 107.931 14.6797 108.267 14.3906C108.611 14.1016 108.904 13.7852 109.146 13.4414C109.396 13.0898 109.587 12.7188 109.72 12.3281C109.861 11.9375 109.931 11.5312 109.931 11.1094Z"/>
<path d="M118.332 4.55859C118.332 4.80859 118.286 5.04688 118.192 5.27344C118.098 5.49219 117.969 5.68359 117.805 5.84766C117.641 6.01172 117.446 6.14453 117.219 6.24609C117 6.33984 116.766 6.38672 116.516 6.38672C116.266 6.38672 116.028 6.33984 115.801 6.24609C115.582 6.14453 115.391 6.01172 115.227 5.84766C115.063 5.68359 114.93 5.49219 114.829 5.27344C114.735 5.04688 114.688 4.80859 114.688 4.55859C114.688 4.30859 114.735 4.07422 114.829 3.85547C114.93 3.62891 115.063 3.43359 115.227 3.26953C115.391 3.10547 115.582 2.97656 115.801 2.88281C116.028 2.78125 116.266 2.73047 116.516 2.73047C116.766 2.73047 117 2.78125 117.219 2.88281C117.446 2.97656 117.641 3.10547 117.805 3.26953C117.969 3.43359 118.098 3.62891 118.192 3.85547C118.286 4.07422 118.332 4.30859 118.332 4.55859ZM118.332 8.10938C118.27 8.72656 118.215 9.39453 118.168 10.1133C118.129 10.8242 118.094 11.5547 118.063 12.3047C118.04 13.0547 118.02 13.8086 118.004 14.5664C117.989 15.3242 117.977 16.0469 117.969 16.7344C117.961 17.4219 117.954 18.0664 117.946 18.668C117.946 19.2617 117.946 19.7734 117.946 20.2031V21.5273L115.286 21.6211C115.301 21.082 115.309 20.5586 115.309 20.0508C115.309 19.543 115.309 19.0352 115.309 18.5273C115.309 17.6445 115.301 16.7852 115.286 15.9492C115.27 15.1055 115.243 14.2617 115.204 13.418C115.172 12.5742 115.129 11.7188 115.075 10.8516C115.02 9.98438 114.954 9.08594 114.875 8.15625L118.332 8.10938Z"/>
<path d="M124.964 3.1875C124.902 3.99219 124.851 4.78516 124.812 5.56641C124.773 6.33984 124.734 7.11719 124.695 7.89844C125.039 7.88281 125.378 7.87109 125.714 7.86328C126.05 7.84766 126.394 7.82812 126.746 7.80469L126.793 10.8047C126.418 10.7422 126.046 10.6914 125.679 10.6523C125.312 10.6133 124.953 10.582 124.601 10.5586C124.578 11.2227 124.562 11.8789 124.554 12.5273C124.554 13.1758 124.554 13.832 124.554 14.4961C124.554 15.6836 124.566 16.8633 124.589 18.0352C124.621 19.207 124.668 20.3867 124.73 21.5742L121.671 21.5273C121.773 19.6914 121.855 17.8594 121.918 16.0312C121.988 14.1953 122.035 12.3477 122.058 10.4883C121.73 10.5039 121.402 10.5234 121.074 10.5469C120.746 10.5625 120.41 10.582 120.066 10.6055L120.16 7.82812C120.48 7.85156 120.796 7.87109 121.109 7.88672C121.429 7.89453 121.746 7.90625 122.058 7.92188C122.058 7.14062 122.05 6.36328 122.035 5.58984C122.019 4.80859 122.003 4.02344 121.988 3.23438L124.964 3.1875Z"/>
<path d="M137.034 18.4805C137.034 18.9414 136.928 19.375 136.717 19.7812C136.506 20.1875 136.221 20.5391 135.862 20.8359C135.503 21.1328 135.081 21.3672 134.596 21.5391C134.112 21.7109 133.596 21.7969 133.049 21.7969C132.682 21.7969 132.311 21.7461 131.936 21.6445C131.561 21.543 131.202 21.375 130.858 21.1406C130.514 20.9062 130.19 20.5977 129.885 20.2148C129.581 19.832 129.315 19.3633 129.088 18.8086C128.87 18.2539 128.694 17.6055 128.561 16.8633C128.436 16.1133 128.374 15.2539 128.374 14.2852C128.374 13.3711 128.436 12.5625 128.561 11.8594C128.694 11.1562 128.87 10.543 129.088 10.0195C129.315 9.49609 129.577 9.05859 129.874 8.70703C130.17 8.34766 130.487 8.05859 130.823 7.83984C131.167 7.61328 131.518 7.45312 131.878 7.35938C132.245 7.26562 132.604 7.21875 132.956 7.21875C133.479 7.21875 133.975 7.30469 134.444 7.47656C134.913 7.64062 135.323 7.88672 135.674 8.21484C136.026 8.54297 136.303 8.94922 136.506 9.43359C136.717 9.91016 136.823 10.4609 136.823 11.0859C136.823 11.6484 136.706 12.2188 136.471 12.7969C136.245 13.3672 135.905 13.9102 135.452 14.4258C134.999 14.9336 134.436 15.3984 133.764 15.8203C133.1 16.2344 132.335 16.5625 131.467 16.8047C131.514 17.2891 131.581 17.7305 131.667 18.1289C131.76 18.5273 131.874 18.8672 132.006 19.1484C132.147 19.4297 132.307 19.6484 132.487 19.8047C132.674 19.9609 132.889 20.0391 133.131 20.0391C133.288 20.0312 133.436 20.0039 133.577 19.957C133.702 19.918 133.827 19.8555 133.952 19.7695C134.085 19.6836 134.194 19.5586 134.28 19.3945C134.077 19.3008 133.92 19.1797 133.811 19.0312C133.702 18.8828 133.62 18.7422 133.565 18.6094C133.503 18.4531 133.467 18.2891 133.46 18.1172C133.46 17.7422 133.534 17.4375 133.682 17.2031C133.831 16.9688 134.006 16.7852 134.21 16.6523C134.413 16.5195 134.62 16.4297 134.831 16.3828C135.042 16.3281 135.21 16.3008 135.335 16.3008C135.467 16.3008 135.628 16.3281 135.815 16.3828C136.01 16.4375 136.198 16.543 136.378 16.6992C136.557 16.8555 136.71 17.0781 136.835 17.3672C136.967 17.6484 137.034 18.0195 137.034 18.4805ZM134.139 11.1094C134.139 10.8281 134.112 10.5625 134.057 10.3125C134.01 10.0547 133.936 9.83203 133.835 9.64453C133.741 9.45703 133.62 9.30859 133.471 9.19922C133.331 9.08203 133.167 9.02344 132.979 9.02344C132.659 9.02344 132.397 9.17188 132.194 9.46875C131.991 9.75781 131.827 10.1445 131.702 10.6289C131.577 11.1133 131.491 11.6719 131.444 12.3047C131.397 12.9375 131.374 13.5977 131.374 14.2852V15.1406C131.772 14.9297 132.139 14.6797 132.475 14.3906C132.819 14.1016 133.112 13.7852 133.354 13.4414C133.604 13.0898 133.795 12.7188 133.928 12.3281C134.069 11.9375 134.139 11.5312 134.139 11.1094Z"/>
<path d="M142.259 21.4805L139.13 21.7148C139.255 20.3164 139.345 18.9688 139.4 17.6719C139.462 16.3672 139.494 15.0625 139.494 13.7578C139.494 12.8359 139.478 11.9141 139.447 10.9922C139.423 10.0625 139.377 9.10938 139.306 8.13281L141.943 7.99219C141.927 8.16406 141.916 8.33203 141.908 8.49609C141.9 8.66016 141.896 8.82031 141.896 8.97656C142.17 8.55469 142.466 8.22656 142.787 7.99219C143.115 7.75 143.42 7.57422 143.701 7.46484C144.021 7.33203 144.345 7.25 144.673 7.21875C145.244 7.21875 145.732 7.30859 146.138 7.48828C146.545 7.66016 146.877 7.88672 147.134 8.16797C147.392 8.44141 147.58 8.75 147.697 9.09375C147.814 9.42969 147.873 9.75781 147.873 10.0781C147.873 10.4062 147.837 10.7383 147.767 11.0742C147.697 11.4102 147.576 11.7148 147.404 11.9883C147.24 12.2539 147.017 12.4727 146.736 12.6445C146.462 12.8086 146.123 12.8906 145.716 12.8906C145.31 12.8906 144.99 12.8164 144.755 12.668C144.521 12.5195 144.341 12.3438 144.216 12.1406C144.099 11.9297 144.021 11.7148 143.982 11.4961C143.951 11.2695 143.935 11.0781 143.935 10.9219C143.935 10.8125 143.955 10.6914 143.994 10.5586C144.033 10.418 144.091 10.2773 144.17 10.1367C144.248 9.99609 144.345 9.85938 144.462 9.72656C144.58 9.58594 144.716 9.45703 144.873 9.33984C144.826 9.32422 144.775 9.3125 144.72 9.30469C144.673 9.29688 144.627 9.29297 144.58 9.29297C144.189 9.29297 143.841 9.41797 143.537 9.66797C143.232 9.91016 142.966 10.25 142.74 10.6875C142.521 11.125 142.337 11.6406 142.189 12.2344C142.048 12.8281 141.943 13.4766 141.873 14.1797C141.912 15.3906 141.966 16.5898 142.037 17.7773C142.107 18.9648 142.181 20.1992 142.259 21.4805Z"/>
</mask>
<path d="M11.3633 18.3164C11.3555 18.3555 11.3516 18.3984 11.3516 18.4453C11.3438 18.4844 11.3398 18.5352 11.3398 18.5977C11.3398 18.6602 11.3398 18.7344 11.3398 18.8203C11.3398 19.0312 11.3477 19.3242 11.3633 19.6992C11.3789 20.0664 11.418 20.5078 11.4805 21.0234C10.8398 21.0078 10.2422 21 9.6875 21C9.13281 21 8.60938 21 8.11719 21C7.14062 21 6.30859 21.0078 5.62109 21.0234C4.93359 21.0391 4.36719 21.0547 3.92188 21.0703C3.40625 21.0938 2.98047 21.1172 2.64453 21.1406C2.63672 21.1172 2.63281 21.0859 2.63281 21.0469C2.625 21.0156 2.62109 20.9766 2.62109 20.9297C2.62109 20.8828 2.62109 20.8281 2.62109 20.7656C2.62109 20.5 2.65234 20.125 2.71484 19.6406C2.77734 19.1562 2.91406 18.6094 3.125 18C3.34375 17.3828 3.66406 16.7305 4.08594 16.043C4.51562 15.3555 5.09375 14.6719 5.82031 13.9922C6.25 13.5859 6.65234 13.1719 7.02734 12.75C7.40234 12.3281 7.73047 11.8828 8.01172 11.4141C8.29297 10.9453 8.51172 10.4453 8.66797 9.91406C8.83203 9.375 8.91406 8.78906 8.91406 8.15625C8.91406 7.64062 8.86328 7.21484 8.76172 6.87891C8.66016 6.53516 8.51953 6.26562 8.33984 6.07031C8.16797 5.86719 7.96484 5.72656 7.73047 5.64844C7.50391 5.5625 7.25781 5.51953 6.99219 5.51953C6.875 5.52734 6.75781 5.54688 6.64062 5.57812C6.53906 5.60938 6.42578 5.65625 6.30078 5.71875C6.17578 5.78125 6.05469 5.86719 5.9375 5.97656C6.05469 6.13281 6.14453 6.29688 6.20703 6.46875C6.27734 6.64062 6.33203 6.80078 6.37109 6.94922C6.41016 7.12109 6.43359 7.29297 6.44141 7.46484C6.44141 7.73828 6.38672 7.97656 6.27734 8.17969C6.16797 8.38281 6.02734 8.55469 5.85547 8.69531C5.69141 8.83594 5.50781 8.94141 5.30469 9.01172C5.10156 9.08203 4.90234 9.11719 4.70703 9.11719C4.55859 9.11719 4.35938 9.09766 4.10938 9.05859C3.86719 9.01172 3.62891 8.91016 3.39453 8.75391C3.16016 8.59766 2.95703 8.36719 2.78516 8.0625C2.61328 7.75781 2.52734 7.34375 2.52734 6.82031C2.52734 6.30469 2.64453 5.83984 2.87891 5.42578C3.12109 5.00391 3.44141 4.64453 3.83984 4.34766C4.24609 4.04297 4.71484 3.8125 5.24609 3.65625C5.77734 3.49219 6.33594 3.41016 6.92188 3.41016C7.5 3.41016 8.07422 3.51172 8.64453 3.71484C9.21484 3.91797 9.72266 4.22266 10.168 4.62891C10.6211 5.03516 10.9883 5.54297 11.2695 6.15234C11.5508 6.75391 11.6914 7.45703 11.6914 8.26172C11.6914 9.23828 11.5547 10.1016 11.2812 10.8516C11.0156 11.5938 10.6797 12.2617 10.2734 12.8555C9.86719 13.4414 9.42188 13.9766 8.9375 14.4609C8.46094 14.9375 8.01172 15.3984 7.58984 15.8438C7.02734 16.4297 6.59375 16.9961 6.28906 17.543C5.99219 18.082 5.77734 18.5391 5.64453 18.9141C6.44141 18.8906 7.1875 18.8477 7.88281 18.7852C8.57812 18.7227 9.18359 18.6602 9.69922 18.5977C10.2148 18.5352 10.6211 18.4766 10.918 18.4219C11.2148 18.3672 11.3633 18.332 11.3633 18.3164Z" fill="white"/>
<path d="M17.3506 10.6992C17.3506 10.9102 17.3077 11.1094 17.2217 11.2969C17.1436 11.4844 17.0342 11.6484 16.8936 11.7891C16.7608 11.9219 16.6006 12.0312 16.4131 12.1172C16.2256 12.1953 16.0264 12.2344 15.8155 12.2344C15.5967 12.2344 15.3936 12.1953 15.2061 12.1172C15.0186 12.0312 14.8545 11.9219 14.7139 11.7891C14.5733 11.6484 14.46 11.4844 14.3741 11.2969C14.2959 11.1094 14.2569 10.9102 14.2569 10.6992C14.2569 10.4883 14.2959 10.2891 14.3741 10.1016C14.46 9.90625 14.5733 9.73828 14.7139 9.59766C14.8545 9.45703 15.0186 9.34766 15.2061 9.26953C15.3936 9.18359 15.5967 9.14062 15.8155 9.14062C16.0264 9.14062 16.2256 9.18359 16.4131 9.26953C16.6006 9.34766 16.7608 9.45703 16.8936 9.59766C17.0342 9.73828 17.1436 9.90625 17.2217 10.1016C17.3077 10.2891 17.3506 10.4883 17.3506 10.6992ZM17.3506 19.8984C17.3506 20.1094 17.3077 20.3086 17.2217 20.4961C17.1436 20.6758 17.0342 20.8359 16.8936 20.9766C16.7608 21.1172 16.6006 21.2266 16.4131 21.3047C16.2256 21.3906 16.0264 21.4336 15.8155 21.4336C15.5967 21.4336 15.3936 21.3906 15.2061 21.3047C15.0186 21.2266 14.8545 21.1172 14.7139 20.9766C14.5733 20.8359 14.46 20.6758 14.3741 20.4961C14.2959 20.3086 14.2569 20.1094 14.2569 19.8984C14.2569 19.6797 14.2959 19.4766 14.3741 19.2891C14.46 19.1016 14.5733 18.9375 14.7139 18.7969C14.8545 18.6562 15.0186 18.5469 15.2061 18.4688C15.3936 18.3828 15.5967 18.3398 15.8155 18.3398C16.0264 18.3398 16.2256 18.3828 16.4131 18.4688C16.6006 18.5469 16.7608 18.6562 16.8936 18.7969C17.0342 18.9375 17.1436 19.1016 17.2217 19.2891C17.3077 19.4766 17.3506 19.6797 17.3506 19.8984Z" fill="white"/>
<path d="M29.3487 21.4102C28.6691 21.4102 28.1183 21.4141 27.6964 21.4219C27.2823 21.4375 26.9542 21.4531 26.712 21.4688C26.4308 21.4922 26.2237 21.5117 26.0909 21.5273C26.1534 21.0898 26.2081 20.625 26.255 20.1328C26.3019 19.6328 26.3448 19.125 26.3839 18.6094C26.423 18.0938 26.4542 17.582 26.4777 17.0742C26.5011 16.5664 26.5206 16.082 26.5362 15.6211C26.5675 14.5352 26.587 13.4492 26.5948 12.3633C26.587 11.2773 26.5675 10.2266 26.5362 9.21094C26.5206 8.78125 26.5011 8.33594 26.4777 7.875C26.4542 7.40625 26.4269 6.94922 26.3956 6.50391C26.3644 6.05859 26.3253 5.63281 26.2784 5.22656C26.2394 4.82031 26.1925 4.45312 26.1378 4.125H26.8995C27.3214 4.125 27.6847 4.12109 27.9894 4.11328C28.2941 4.09766 28.548 4.08203 28.7511 4.06641C28.9855 4.05078 29.1847 4.03125 29.3487 4.00781C29.3097 4.78906 29.2745 5.57422 29.2433 6.36328C29.2198 7.15234 29.2003 7.90625 29.1847 8.625C29.1691 9.33594 29.1573 9.98828 29.1495 10.582C29.1417 11.1758 29.1378 11.6719 29.1378 12.0703C29.3878 12.0859 29.63 12.0938 29.8644 12.0938C30.0987 12.0938 30.3292 12.0938 30.5558 12.0938C31.048 12.0938 31.4816 12.0859 31.8566 12.0703C32.2394 12.0469 32.5558 12.0234 32.8058 12C32.8058 11.9531 32.8019 11.7852 32.7941 11.4961C32.7941 11.1992 32.7902 10.8281 32.7823 10.3828C32.7745 9.9375 32.7589 9.4375 32.7355 8.88281C32.7198 8.32812 32.6964 7.76562 32.6652 7.19531C32.6339 6.625 32.5948 6.07422 32.548 5.54297C32.5011 5.00391 32.4425 4.53125 32.3722 4.125H33.1222C33.5206 4.125 33.8644 4.12109 34.1534 4.11328C34.4503 4.09766 34.6964 4.08203 34.8917 4.06641C35.1183 4.05078 35.3097 4.03125 35.4659 4.00781C35.4425 4.51562 35.4191 5.03125 35.3956 5.55469C35.38 6.07031 35.3644 6.58203 35.3487 7.08984C35.3409 7.58984 35.3331 8.07812 35.3253 8.55469C35.3175 9.02344 35.3097 9.46875 35.3019 9.89062C35.2862 10.875 35.2784 11.8242 35.2784 12.7383C35.2784 13.6445 35.2862 14.5664 35.3019 15.5039C35.3097 15.9023 35.3175 16.3242 35.3253 16.7695C35.3331 17.207 35.3409 17.6562 35.3487 18.1172C35.3644 18.5703 35.38 19.0234 35.3956 19.4766C35.4191 19.9297 35.4425 20.3672 35.4659 20.7891C34.8097 20.7891 34.2784 20.7969 33.8722 20.8125C33.4659 20.8203 33.1495 20.832 32.923 20.8477C32.6573 20.8711 32.4581 20.8906 32.3253 20.9062C32.3956 20.4297 32.4542 19.9219 32.5011 19.3828C32.548 18.8438 32.587 18.2969 32.6183 17.7422C32.6573 17.1875 32.6847 16.6406 32.7003 16.1016C32.7237 15.5625 32.7433 15.0586 32.7589 14.5898C32.3839 14.5508 32.0245 14.5273 31.6808 14.5195C31.337 14.5039 31.0089 14.4961 30.6964 14.4961C30.3683 14.4961 30.0714 14.5 29.8058 14.5078C29.548 14.5156 29.3253 14.5273 29.1378 14.543C29.1378 14.9648 29.1417 15.4531 29.1495 16.0078C29.1573 16.5625 29.1691 17.1445 29.1847 17.7539C29.2081 18.3555 29.2316 18.9727 29.255 19.6055C29.2784 20.2305 29.3097 20.832 29.3487 21.4102Z" fill="white"/>
<path d="M46.5744 18.4805C46.5744 18.9414 46.4689 19.375 46.258 19.7812C46.047 20.1875 45.7619 20.5391 45.4025 20.8359C45.0431 21.1328 44.6213 21.3672 44.1369 21.5391C43.6525 21.7109 43.1369 21.7969 42.59 21.7969C42.2228 21.7969 41.8517 21.7461 41.4767 21.6445C41.1017 21.543 40.7423 21.375 40.3986 21.1406C40.0548 20.9062 39.7306 20.5977 39.4259 20.2148C39.1213 19.832 38.8556 19.3633 38.6291 18.8086C38.4103 18.2539 38.2345 17.6055 38.1017 16.8633C37.9767 16.1133 37.9142 15.2539 37.9142 14.2852C37.9142 13.3711 37.9767 12.5625 38.1017 11.8594C38.2345 11.1562 38.4103 10.543 38.6291 10.0195C38.8556 9.49609 39.1173 9.05859 39.4142 8.70703C39.7111 8.34766 40.0275 8.05859 40.3634 7.83984C40.7072 7.61328 41.0588 7.45312 41.4181 7.35938C41.7853 7.26562 42.1447 7.21875 42.4963 7.21875C43.0197 7.21875 43.5158 7.30469 43.9845 7.47656C44.4533 7.64062 44.8634 7.88672 45.215 8.21484C45.5666 8.54297 45.8439 8.94922 46.047 9.43359C46.258 9.91016 46.3634 10.4609 46.3634 11.0859C46.3634 11.6484 46.2463 12.2188 46.0119 12.7969C45.7853 13.3672 45.4455 13.9102 44.9923 14.4258C44.5392 14.9336 43.9767 15.3984 43.3048 15.8203C42.6408 16.2344 41.8752 16.5625 41.008 16.8047C41.0548 17.2891 41.1213 17.7305 41.2072 18.1289C41.3009 18.5273 41.4142 18.8672 41.547 19.1484C41.6877 19.4297 41.8478 19.6484 42.0275 19.8047C42.215 19.9609 42.4298 20.0391 42.672 20.0391C42.8283 20.0312 42.9767 20.0039 43.1173 19.957C43.2423 19.918 43.3673 19.8555 43.4923 19.7695C43.6252 19.6836 43.7345 19.5586 43.8205 19.3945C43.6173 19.3008 43.4611 19.1797 43.3517 19.0312C43.2423 18.8828 43.1603 18.7422 43.1056 18.6094C43.0431 18.4531 43.008 18.2891 43.0002 18.1172C43.0002 17.7422 43.0744 17.4375 43.2228 17.2031C43.3713 16.9688 43.547 16.7852 43.7502 16.6523C43.9533 16.5195 44.1603 16.4297 44.3713 16.3828C44.5822 16.3281 44.7502 16.3008 44.8752 16.3008C45.008 16.3008 45.1681 16.3281 45.3556 16.3828C45.5509 16.4375 45.7384 16.543 45.9181 16.6992C46.0978 16.8555 46.2502 17.0781 46.3752 17.3672C46.508 17.6484 46.5744 18.0195 46.5744 18.4805ZM43.6798 11.1094C43.6798 10.8281 43.6525 10.5625 43.5978 10.3125C43.5509 10.0547 43.4767 9.83203 43.3752 9.64453C43.2814 9.45703 43.1603 9.30859 43.0119 9.19922C42.8713 9.08203 42.7072 9.02344 42.5197 9.02344C42.1994 9.02344 41.9377 9.17188 41.7345 9.46875C41.5314 9.75781 41.3673 10.1445 41.2423 10.6289C41.1173 11.1133 41.0314 11.6719 40.9845 12.3047C40.9377 12.9375 40.9142 13.5977 40.9142 14.2852V15.1406C41.3127 14.9297 41.6798 14.6797 42.0158 14.3906C42.3595 14.1016 42.6525 13.7852 42.8947 13.4414C43.1447 13.0898 43.3361 12.7188 43.4689 12.3281C43.6095 11.9375 43.6798 11.5312 43.6798 11.1094Z" fill="white"/>
<path d="M52.0812 4.55859C52.0812 4.80859 52.0344 5.04688 51.9406 5.27344C51.8469 5.49219 51.718 5.68359 51.5539 5.84766C51.3898 6.01172 51.1945 6.14453 50.968 6.24609C50.7492 6.33984 50.5148 6.38672 50.2648 6.38672C50.0148 6.38672 49.7766 6.33984 49.55 6.24609C49.3312 6.14453 49.1398 6.01172 48.9758 5.84766C48.8117 5.68359 48.6789 5.49219 48.5773 5.27344C48.4836 5.04688 48.4367 4.80859 48.4367 4.55859C48.4367 4.30859 48.4836 4.07422 48.5773 3.85547C48.6789 3.62891 48.8117 3.43359 48.9758 3.26953C49.1398 3.10547 49.3312 2.97656 49.55 2.88281C49.7766 2.78125 50.0148 2.73047 50.2648 2.73047C50.5148 2.73047 50.7492 2.78125 50.968 2.88281C51.1945 2.97656 51.3898 3.10547 51.5539 3.26953C51.718 3.43359 51.8469 3.62891 51.9406 3.85547C52.0344 4.07422 52.0812 4.30859 52.0812 4.55859ZM52.0812 8.10938C52.0187 8.72656 51.9641 9.39453 51.9172 10.1133C51.8781 10.8242 51.843 11.5547 51.8117 12.3047C51.7883 13.0547 51.7687 13.8086 51.7531 14.5664C51.7375 15.3242 51.7258 16.0469 51.718 16.7344C51.7102 17.4219 51.7023 18.0664 51.6945 18.668C51.6945 19.2617 51.6945 19.7734 51.6945 20.2031V21.5273L49.0344 21.6211C49.05 21.082 49.0578 20.5586 49.0578 20.0508C49.0578 19.543 49.0578 19.0352 49.0578 18.5273C49.0578 17.6445 49.05 16.7852 49.0344 15.9492C49.0187 15.1055 48.9914 14.2617 48.9523 13.418C48.9211 12.5742 48.8781 11.7188 48.8234 10.8516C48.7687 9.98438 48.7023 9.08594 48.6242 8.15625L52.0812 8.10938Z" fill="white"/>
<path d="M58.7131 3.1875C58.6506 3.99219 58.5998 4.78516 58.5608 5.56641C58.5217 6.33984 58.4827 7.11719 58.4436 7.89844C58.7873 7.88281 59.1272 7.87109 59.4631 7.86328C59.7991 7.84766 60.1428 7.82812 60.4944 7.80469L60.5412 10.8047C60.1662 10.7422 59.7952 10.6914 59.428 10.6523C59.0608 10.6133 58.7014 10.582 58.3498 10.5586C58.3264 11.2227 58.3108 11.8789 58.303 12.5273C58.303 13.1758 58.303 13.832 58.303 14.4961C58.303 15.6836 58.3147 16.8633 58.3381 18.0352C58.3694 19.207 58.4162 20.3867 58.4787 21.5742L55.4202 21.5273C55.5217 19.6914 55.6037 17.8594 55.6662 16.0312C55.7366 14.1953 55.7834 12.3477 55.8069 10.4883C55.4787 10.5039 55.1506 10.5234 54.8225 10.5469C54.4944 10.5625 54.1584 10.582 53.8147 10.6055L53.9084 7.82812C54.2287 7.85156 54.5452 7.87109 54.8577 7.88672C55.178 7.89453 55.4944 7.90625 55.8069 7.92188C55.8069 7.14062 55.7991 6.36328 55.7834 5.58984C55.7678 4.80859 55.7522 4.02344 55.7366 3.23438L58.7131 3.1875Z" fill="white"/>
<path d="M70.7825 18.4805C70.7825 18.9414 70.677 19.375 70.4661 19.7812C70.2552 20.1875 69.97 20.5391 69.6106 20.8359C69.2513 21.1328 68.8294 21.3672 68.345 21.5391C67.8606 21.7109 67.345 21.7969 66.7981 21.7969C66.4309 21.7969 66.0598 21.7461 65.6848 21.6445C65.3098 21.543 64.9505 21.375 64.6067 21.1406C64.263 20.9062 63.9388 20.5977 63.6341 20.2148C63.3294 19.832 63.0638 19.3633 62.8372 18.8086C62.6184 18.2539 62.4427 17.6055 62.3098 16.8633C62.1848 16.1133 62.1223 15.2539 62.1223 14.2852C62.1223 13.3711 62.1848 12.5625 62.3098 11.8594C62.4427 11.1562 62.6184 10.543 62.8372 10.0195C63.0638 9.49609 63.3255 9.05859 63.6223 8.70703C63.9192 8.34766 64.2356 8.05859 64.5716 7.83984C64.9153 7.61328 65.2669 7.45312 65.6263 7.35938C65.9934 7.26562 66.3528 7.21875 66.7044 7.21875C67.2278 7.21875 67.7239 7.30469 68.1927 7.47656C68.6614 7.64062 69.0716 7.88672 69.4231 8.21484C69.7747 8.54297 70.052 8.94922 70.2552 9.43359C70.4661 9.91016 70.5716 10.4609 70.5716 11.0859C70.5716 11.6484 70.4544 12.2188 70.22 12.7969C69.9934 13.3672 69.6536 13.9102 69.2005 14.4258C68.7473 14.9336 68.1848 15.3984 67.513 15.8203C66.8489 16.2344 66.0833 16.5625 65.2161 16.8047C65.263 17.2891 65.3294 17.7305 65.4153 18.1289C65.5091 18.5273 65.6223 18.8672 65.7552 19.1484C65.8958 19.4297 66.0559 19.6484 66.2356 19.8047C66.4231 19.9609 66.638 20.0391 66.8802 20.0391C67.0364 20.0312 67.1848 20.0039 67.3255 19.957C67.4505 19.918 67.5755 19.8555 67.7005 19.7695C67.8333 19.6836 67.9427 19.5586 68.0286 19.3945C67.8255 19.3008 67.6692 19.1797 67.5598 19.0312C67.4505 18.8828 67.3684 18.7422 67.3138 18.6094C67.2513 18.4531 67.2161 18.2891 67.2083 18.1172C67.2083 17.7422 67.2825 17.4375 67.4309 17.2031C67.5794 16.9688 67.7552 16.7852 67.9583 16.6523C68.1614 16.5195 68.3684 16.4297 68.5794 16.3828C68.7903 16.3281 68.9583 16.3008 69.0833 16.3008C69.2161 16.3008 69.3763 16.3281 69.5638 16.3828C69.7591 16.4375 69.9466 16.543 70.1263 16.6992C70.3059 16.8555 70.4583 17.0781 70.5833 17.3672C70.7161 17.6484 70.7825 18.0195 70.7825 18.4805ZM67.888 11.1094C67.888 10.8281 67.8606 10.5625 67.8059 10.3125C67.7591 10.0547 67.6848 9.83203 67.5833 9.64453C67.4895 9.45703 67.3684 9.30859 67.22 9.19922C67.0794 9.08203 66.9153 9.02344 66.7278 9.02344C66.4075 9.02344 66.1458 9.17188 65.9427 9.46875C65.7395 9.75781 65.5755 10.1445 65.4505 10.6289C65.3255 11.1133 65.2395 11.6719 65.1927 12.3047C65.1458 12.9375 65.1223 13.5977 65.1223 14.2852V15.1406C65.5208 14.9297 65.888 14.6797 66.2239 14.3906C66.5677 14.1016 66.8606 13.7852 67.1028 13.4414C67.3528 13.0898 67.5442 12.7188 67.677 12.3281C67.8177 11.9375 67.888 11.5312 67.888 11.1094Z" fill="white"/>
<path d="M76.0081 21.4805L72.8792 21.7148C73.0042 20.3164 73.0941 18.9688 73.1488 17.6719C73.2113 16.3672 73.2425 15.0625 73.2425 13.7578C73.2425 12.8359 73.2269 11.9141 73.1956 10.9922C73.1722 10.0625 73.1253 9.10938 73.055 8.13281L75.6917 7.99219C75.6761 8.16406 75.6644 8.33203 75.6566 8.49609C75.6488 8.66016 75.6448 8.82031 75.6448 8.97656C75.9183 8.55469 76.2152 8.22656 76.5355 7.99219C76.8636 7.75 77.1683 7.57422 77.4495 7.46484C77.7698 7.33203 78.0941 7.25 78.4222 7.21875C78.9925 7.21875 79.4808 7.30859 79.887 7.48828C80.2933 7.66016 80.6253 7.88672 80.8831 8.16797C81.1409 8.44141 81.3284 8.75 81.4456 9.09375C81.5628 9.42969 81.6214 9.75781 81.6214 10.0781C81.6214 10.4062 81.5863 10.7383 81.5159 11.0742C81.4456 11.4102 81.3245 11.7148 81.1527 11.9883C80.9886 12.2539 80.7659 12.4727 80.4847 12.6445C80.2113 12.8086 79.8714 12.8906 79.4652 12.8906C79.0589 12.8906 78.7386 12.8164 78.5042 12.668C78.2698 12.5195 78.0902 12.3438 77.9652 12.1406C77.848 11.9297 77.7698 11.7148 77.7308 11.4961C77.6995 11.2695 77.6839 11.0781 77.6839 10.9219C77.6839 10.8125 77.7034 10.6914 77.7425 10.5586C77.7816 10.418 77.8402 10.2773 77.9183 10.1367C77.9964 9.99609 78.0941 9.85938 78.2113 9.72656C78.3284 9.58594 78.4652 9.45703 78.6214 9.33984C78.5745 9.32422 78.5238 9.3125 78.4691 9.30469C78.4222 9.29688 78.3753 9.29297 78.3284 9.29297C77.9378 9.29297 77.5902 9.41797 77.2855 9.66797C76.9808 9.91016 76.7152 10.25 76.4886 10.6875C76.2698 11.125 76.0863 11.6406 75.9378 12.2344C75.7972 12.8281 75.6917 13.4766 75.6214 14.1797C75.6605 15.3906 75.7152 16.5898 75.7855 17.7773C75.8558 18.9648 75.93 20.1992 76.0081 21.4805Z" fill="white"/>
<path d="M101.987 8.33203C101.955 9.00391 101.932 9.67578 101.916 10.3477C101.909 11.0117 101.901 11.6133 101.893 12.1523C101.885 12.7852 101.881 13.3906 101.881 13.9688C101.866 14.5391 101.838 15.1289 101.799 15.7383C101.76 16.3398 101.69 16.9258 101.588 17.4961C101.495 18.0664 101.362 18.6055 101.19 19.1133C101.026 19.6211 100.811 20.0664 100.545 20.4492C100.28 20.832 99.9555 21.1328 99.5727 21.3516C99.1977 21.5781 98.7523 21.6914 98.2367 21.6914C97.8148 21.6602 97.4125 21.5391 97.0297 21.3281C96.8656 21.2344 96.6977 21.1211 96.5258 20.9883C96.3539 20.8477 96.1898 20.6758 96.0336 20.4727C95.8773 20.2695 95.7289 20.0312 95.5883 19.7578C95.4477 19.4844 95.3305 19.1641 95.2367 18.7969C94.9789 19.4688 94.6781 19.9883 94.3344 20.3555C93.9906 20.7227 93.6664 20.9922 93.3617 21.1641C92.9945 21.3672 92.6273 21.4883 92.2602 21.5273C91.8383 21.5273 91.4789 21.4336 91.182 21.2461C90.8852 21.0586 90.6352 20.8008 90.432 20.4727C90.2289 20.1367 90.0687 19.7461 89.9516 19.3008C89.8344 18.8555 89.7445 18.375 89.682 17.8594C89.6195 17.3438 89.5766 16.8047 89.5531 16.2422C89.5375 15.6797 89.5297 15.1211 89.5297 14.5664C89.5297 14.3789 89.5297 14.2461 89.5297 14.168C89.5375 14.082 89.5414 14 89.5414 13.9219C89.5492 13.8359 89.557 13.7227 89.5648 13.582C89.5727 13.4336 89.5766 13.207 89.5766 12.9023C89.5844 12.5977 89.5883 12.1836 89.5883 11.6602C89.5961 11.1367 89.6 10.4492 89.6 9.59766C89.6 9.33203 89.6 9.07422 89.6 8.82422C89.6 8.56641 89.5922 8.32812 89.5766 8.10938L92.9047 8.20312C92.6391 9.59375 92.4594 10.957 92.3656 12.293C92.2797 13.6289 92.2367 14.9648 92.2367 16.3008C92.2367 17.168 92.2953 17.7969 92.4125 18.1875C92.5297 18.5781 92.7602 18.7734 93.1039 18.7734C93.2602 18.7734 93.4008 18.6875 93.5258 18.5156C93.6586 18.3359 93.7719 18.1016 93.8656 17.8125C93.9672 17.5156 94.0531 17.1797 94.1234 16.8047C94.2016 16.4297 94.2641 16.0469 94.3109 15.6562C94.3578 15.2578 94.393 14.8672 94.4164 14.4844C94.4398 14.1016 94.4516 13.7539 94.4516 13.4414C94.4516 13.1133 94.4477 12.7969 94.4398 12.4922C94.4398 12.1875 94.4281 11.8711 94.4047 11.543C94.3891 11.207 94.3656 10.8555 94.3344 10.4883C94.3109 10.1133 94.2758 9.69531 94.2289 9.23438L97.2289 9.38672C97.0727 10.3086 96.9398 11.2031 96.8305 12.0703C96.7289 12.9297 96.6781 13.7852 96.6781 14.6367C96.6781 15.1211 96.6977 15.6172 96.7367 16.125C96.7836 16.625 96.8539 17.082 96.9477 17.4961C97.0492 17.9023 97.1781 18.2383 97.3344 18.5039C97.4906 18.7617 97.6781 18.8906 97.8969 18.8906C98.1703 18.8906 98.393 18.7266 98.5648 18.3984C98.7445 18.0625 98.8812 17.6289 98.975 17.0977C99.0766 16.5586 99.1469 15.957 99.1859 15.293C99.225 14.6211 99.2445 13.9492 99.2445 13.2773C99.2445 13.207 99.2406 13.0391 99.2328 12.7734C99.225 12.5078 99.2055 12.1602 99.1742 11.7305C99.143 11.3008 99.0961 10.793 99.0336 10.207C98.9711 9.62109 98.8812 8.97266 98.7641 8.26172L101.987 8.33203Z" fill="white"/>
<path d="M112.826 18.4805C112.826 18.9414 112.72 19.375 112.509 19.7812C112.298 20.1875 112.013 20.5391 111.654 20.8359C111.294 21.1328 110.872 21.3672 110.388 21.5391C109.904 21.7109 109.388 21.7969 108.841 21.7969C108.474 21.7969 108.103 21.7461 107.728 21.6445C107.353 21.543 106.994 21.375 106.65 21.1406C106.306 20.9062 105.982 20.5977 105.677 20.2148C105.372 19.832 105.107 19.3633 104.88 18.8086C104.662 18.2539 104.486 17.6055 104.353 16.8633C104.228 16.1133 104.165 15.2539 104.165 14.2852C104.165 13.3711 104.228 12.5625 104.353 11.8594C104.486 11.1562 104.662 10.543 104.88 10.0195C105.107 9.49609 105.369 9.05859 105.665 8.70703C105.962 8.34766 106.279 8.05859 106.615 7.83984C106.958 7.61328 107.31 7.45312 107.669 7.35938C108.037 7.26562 108.396 7.21875 108.747 7.21875C109.271 7.21875 109.767 7.30469 110.236 7.47656C110.705 7.64062 111.115 7.88672 111.466 8.21484C111.818 8.54297 112.095 8.94922 112.298 9.43359C112.509 9.91016 112.615 10.4609 112.615 11.0859C112.615 11.6484 112.497 12.2188 112.263 12.7969C112.037 13.3672 111.697 13.9102 111.244 14.4258C110.79 14.9336 110.228 15.3984 109.556 15.8203C108.892 16.2344 108.126 16.5625 107.259 16.8047C107.306 17.2891 107.372 17.7305 107.458 18.1289C107.552 18.5273 107.665 18.8672 107.798 19.1484C107.939 19.4297 108.099 19.6484 108.279 19.8047C108.466 19.9609 108.681 20.0391 108.923 20.0391C109.08 20.0312 109.228 20.0039 109.369 19.957C109.494 19.918 109.619 19.8555 109.744 19.7695C109.876 19.6836 109.986 19.5586 110.072 19.3945C109.869 19.3008 109.712 19.1797 109.603 19.0312C109.494 18.8828 109.412 18.7422 109.357 18.6094C109.294 18.4531 109.259 18.2891 109.251 18.1172C109.251 17.7422 109.326 17.4375 109.474 17.2031C109.622 16.9688 109.798 16.7852 110.001 16.6523C110.205 16.5195 110.412 16.4297 110.622 16.3828C110.833 16.3281 111.001 16.3008 111.126 16.3008C111.259 16.3008 111.419 16.3281 111.607 16.3828C111.802 16.4375 111.99 16.543 112.169 16.6992C112.349 16.8555 112.501 17.0781 112.626 17.3672C112.759 17.6484 112.826 18.0195 112.826 18.4805ZM109.931 11.1094C109.931 10.8281 109.904 10.5625 109.849 10.3125C109.802 10.0547 109.728 9.83203 109.626 9.64453C109.533 9.45703 109.412 9.30859 109.263 9.19922C109.122 9.08203 108.958 9.02344 108.771 9.02344C108.451 9.02344 108.189 9.17188 107.986 9.46875C107.783 9.75781 107.619 10.1445 107.494 10.6289C107.369 11.1133 107.283 11.6719 107.236 12.3047C107.189 12.9375 107.165 13.5977 107.165 14.2852V15.1406C107.564 14.9297 107.931 14.6797 108.267 14.3906C108.611 14.1016 108.904 13.7852 109.146 13.4414C109.396 13.0898 109.587 12.7188 109.72 12.3281C109.861 11.9375 109.931 11.5312 109.931 11.1094Z" fill="white"/>
<path d="M118.332 4.55859C118.332 4.80859 118.286 5.04688 118.192 5.27344C118.098 5.49219 117.969 5.68359 117.805 5.84766C117.641 6.01172 117.446 6.14453 117.219 6.24609C117 6.33984 116.766 6.38672 116.516 6.38672C116.266 6.38672 116.028 6.33984 115.801 6.24609C115.582 6.14453 115.391 6.01172 115.227 5.84766C115.063 5.68359 114.93 5.49219 114.829 5.27344C114.735 5.04688 114.688 4.80859 114.688 4.55859C114.688 4.30859 114.735 4.07422 114.829 3.85547C114.93 3.62891 115.063 3.43359 115.227 3.26953C115.391 3.10547 115.582 2.97656 115.801 2.88281C116.028 2.78125 116.266 2.73047 116.516 2.73047C116.766 2.73047 117 2.78125 117.219 2.88281C117.446 2.97656 117.641 3.10547 117.805 3.26953C117.969 3.43359 118.098 3.62891 118.192 3.85547C118.286 4.07422 118.332 4.30859 118.332 4.55859ZM118.332 8.10938C118.27 8.72656 118.215 9.39453 118.168 10.1133C118.129 10.8242 118.094 11.5547 118.063 12.3047C118.04 13.0547 118.02 13.8086 118.004 14.5664C117.989 15.3242 117.977 16.0469 117.969 16.7344C117.961 17.4219 117.954 18.0664 117.946 18.668C117.946 19.2617 117.946 19.7734 117.946 20.2031V21.5273L115.286 21.6211C115.301 21.082 115.309 20.5586 115.309 20.0508C115.309 19.543 115.309 19.0352 115.309 18.5273C115.309 17.6445 115.301 16.7852 115.286 15.9492C115.27 15.1055 115.243 14.2617 115.204 13.418C115.172 12.5742 115.129 11.7188 115.075 10.8516C115.02 9.98438 114.954 9.08594 114.875 8.15625L118.332 8.10938Z" fill="white"/>
<path d="M124.964 3.1875C124.902 3.99219 124.851 4.78516 124.812 5.56641C124.773 6.33984 124.734 7.11719 124.695 7.89844C125.039 7.88281 125.378 7.87109 125.714 7.86328C126.05 7.84766 126.394 7.82812 126.746 7.80469L126.793 10.8047C126.418 10.7422 126.046 10.6914 125.679 10.6523C125.312 10.6133 124.953 10.582 124.601 10.5586C124.578 11.2227 124.562 11.8789 124.554 12.5273C124.554 13.1758 124.554 13.832 124.554 14.4961C124.554 15.6836 124.566 16.8633 124.589 18.0352C124.621 19.207 124.668 20.3867 124.73 21.5742L121.671 21.5273C121.773 19.6914 121.855 17.8594 121.918 16.0312C121.988 14.1953 122.035 12.3477 122.058 10.4883C121.73 10.5039 121.402 10.5234 121.074 10.5469C120.746 10.5625 120.41 10.582 120.066 10.6055L120.16 7.82812C120.48 7.85156 120.796 7.87109 121.109 7.88672C121.429 7.89453 121.746 7.90625 122.058 7.92188C122.058 7.14062 122.05 6.36328 122.035 5.58984C122.019 4.80859 122.003 4.02344 121.988 3.23438L124.964 3.1875Z" fill="white"/>
<path d="M137.034 18.4805C137.034 18.9414 136.928 19.375 136.717 19.7812C136.506 20.1875 136.221 20.5391 135.862 20.8359C135.503 21.1328 135.081 21.3672 134.596 21.5391C134.112 21.7109 133.596 21.7969 133.049 21.7969C132.682 21.7969 132.311 21.7461 131.936 21.6445C131.561 21.543 131.202 21.375 130.858 21.1406C130.514 20.9062 130.19 20.5977 129.885 20.2148C129.581 19.832 129.315 19.3633 129.088 18.8086C128.87 18.2539 128.694 17.6055 128.561 16.8633C128.436 16.1133 128.374 15.2539 128.374 14.2852C128.374 13.3711 128.436 12.5625 128.561 11.8594C128.694 11.1562 128.87 10.543 129.088 10.0195C129.315 9.49609 129.577 9.05859 129.874 8.70703C130.17 8.34766 130.487 8.05859 130.823 7.83984C131.167 7.61328 131.518 7.45312 131.878 7.35938C132.245 7.26562 132.604 7.21875 132.956 7.21875C133.479 7.21875 133.975 7.30469 134.444 7.47656C134.913 7.64062 135.323 7.88672 135.674 8.21484C136.026 8.54297 136.303 8.94922 136.506 9.43359C136.717 9.91016 136.823 10.4609 136.823 11.0859C136.823 11.6484 136.706 12.2188 136.471 12.7969C136.245 13.3672 135.905 13.9102 135.452 14.4258C134.999 14.9336 134.436 15.3984 133.764 15.8203C133.1 16.2344 132.335 16.5625 131.467 16.8047C131.514 17.2891 131.581 17.7305 131.667 18.1289C131.76 18.5273 131.874 18.8672 132.006 19.1484C132.147 19.4297 132.307 19.6484 132.487 19.8047C132.674 19.9609 132.889 20.0391 133.131 20.0391C133.288 20.0312 133.436 20.0039 133.577 19.957C133.702 19.918 133.827 19.8555 133.952 19.7695C134.085 19.6836 134.194 19.5586 134.28 19.3945C134.077 19.3008 133.92 19.1797 133.811 19.0312C133.702 18.8828 133.62 18.7422 133.565 18.6094C133.503 18.4531 133.467 18.2891 133.46 18.1172C133.46 17.7422 133.534 17.4375 133.682 17.2031C133.831 16.9688 134.006 16.7852 134.21 16.6523C134.413 16.5195 134.62 16.4297 134.831 16.3828C135.042 16.3281 135.21 16.3008 135.335 16.3008C135.467 16.3008 135.628 16.3281 135.815 16.3828C136.01 16.4375 136.198 16.543 136.378 16.6992C136.557 16.8555 136.71 17.0781 136.835 17.3672C136.967 17.6484 137.034 18.0195 137.034 18.4805ZM134.139 11.1094C134.139 10.8281 134.112 10.5625 134.057 10.3125C134.01 10.0547 133.936 9.83203 133.835 9.64453C133.741 9.45703 133.62 9.30859 133.471 9.19922C133.331 9.08203 133.167 9.02344 132.979 9.02344C132.659 9.02344 132.397 9.17188 132.194 9.46875C131.991 9.75781 131.827 10.1445 131.702 10.6289C131.577 11.1133 131.491 11.6719 131.444 12.3047C131.397 12.9375 131.374 13.5977 131.374 14.2852V15.1406C131.772 14.9297 132.139 14.6797 132.475 14.3906C132.819 14.1016 133.112 13.7852 133.354 13.4414C133.604 13.0898 133.795 12.7188 133.928 12.3281C134.069 11.9375 134.139 11.5312 134.139 11.1094Z" fill="white"/>
<path d="M142.259 21.4805L139.13 21.7148C139.255 20.3164 139.345 18.9688 139.4 17.6719C139.462 16.3672 139.494 15.0625 139.494 13.7578C139.494 12.8359 139.478 11.9141 139.447 10.9922C139.423 10.0625 139.377 9.10938 139.306 8.13281L141.943 7.99219C141.927 8.16406 141.916 8.33203 141.908 8.49609C141.9 8.66016 141.896 8.82031 141.896 8.97656C142.17 8.55469 142.466 8.22656 142.787 7.99219C143.115 7.75 143.42 7.57422 143.701 7.46484C144.021 7.33203 144.345 7.25 144.673 7.21875C145.244 7.21875 145.732 7.30859 146.138 7.48828C146.545 7.66016 146.877 7.88672 147.134 8.16797C147.392 8.44141 147.58 8.75 147.697 9.09375C147.814 9.42969 147.873 9.75781 147.873 10.0781C147.873 10.4062 147.837 10.7383 147.767 11.0742C147.697 11.4102 147.576 11.7148 147.404 11.9883C147.24 12.2539 147.017 12.4727 146.736 12.6445C146.462 12.8086 146.123 12.8906 145.716 12.8906C145.31 12.8906 144.99 12.8164 144.755 12.668C144.521 12.5195 144.341 12.3438 144.216 12.1406C144.099 11.9297 144.021 11.7148 143.982 11.4961C143.951 11.2695 143.935 11.0781 143.935 10.9219C143.935 10.8125 143.955 10.6914 143.994 10.5586C144.033 10.418 144.091 10.2773 144.17 10.1367C144.248 9.99609 144.345 9.85938 144.462 9.72656C144.58 9.58594 144.716 9.45703 144.873 9.33984C144.826 9.32422 144.775 9.3125 144.72 9.30469C144.673 9.29688 144.627 9.29297 144.58 9.29297C144.189 9.29297 143.841 9.41797 143.537 9.66797C143.232 9.91016 142.966 10.25 142.74 10.6875C142.521 11.125 142.337 11.6406 142.189 12.2344C142.048 12.8281 141.943 13.4766 141.873 14.1797C141.912 15.3906 141.966 16.5898 142.037 17.7773C142.107 18.9648 142.181 20.1992 142.259 21.4805Z" fill="white"/>
<path d="M11.3633 18.3164C11.3555 18.3555 11.3516 18.3984 11.3516 18.4453C11.3438 18.4844 11.3398 18.5352 11.3398 18.5977C11.3398 18.6602 11.3398 18.7344 11.3398 18.8203C11.3398 19.0312 11.3477 19.3242 11.3633 19.6992C11.3789 20.0664 11.418 20.5078 11.4805 21.0234C10.8398 21.0078 10.2422 21 9.6875 21C9.13281 21 8.60938 21 8.11719 21C7.14062 21 6.30859 21.0078 5.62109 21.0234C4.93359 21.0391 4.36719 21.0547 3.92188 21.0703C3.40625 21.0938 2.98047 21.1172 2.64453 21.1406C2.63672 21.1172 2.63281 21.0859 2.63281 21.0469C2.625 21.0156 2.62109 20.9766 2.62109 20.9297C2.62109 20.8828 2.62109 20.8281 2.62109 20.7656C2.62109 20.5 2.65234 20.125 2.71484 19.6406C2.77734 19.1562 2.91406 18.6094 3.125 18C3.34375 17.3828 3.66406 16.7305 4.08594 16.043C4.51562 15.3555 5.09375 14.6719 5.82031 13.9922C6.25 13.5859 6.65234 13.1719 7.02734 12.75C7.40234 12.3281 7.73047 11.8828 8.01172 11.4141C8.29297 10.9453 8.51172 10.4453 8.66797 9.91406C8.83203 9.375 8.91406 8.78906 8.91406 8.15625C8.91406 7.64062 8.86328 7.21484 8.76172 6.87891C8.66016 6.53516 8.51953 6.26562 8.33984 6.07031C8.16797 5.86719 7.96484 5.72656 7.73047 5.64844C7.50391 5.5625 7.25781 5.51953 6.99219 5.51953C6.875 5.52734 6.75781 5.54688 6.64062 5.57812C6.53906 5.60938 6.42578 5.65625 6.30078 5.71875C6.17578 5.78125 6.05469 5.86719 5.9375 5.97656C6.05469 6.13281 6.14453 6.29688 6.20703 6.46875C6.27734 6.64062 6.33203 6.80078 6.37109 6.94922C6.41016 7.12109 6.43359 7.29297 6.44141 7.46484C6.44141 7.73828 6.38672 7.97656 6.27734 8.17969C6.16797 8.38281 6.02734 8.55469 5.85547 8.69531C5.69141 8.83594 5.50781 8.94141 5.30469 9.01172C5.10156 9.08203 4.90234 9.11719 4.70703 9.11719C4.55859 9.11719 4.35938 9.09766 4.10938 9.05859C3.86719 9.01172 3.62891 8.91016 3.39453 8.75391C3.16016 8.59766 2.95703 8.36719 2.78516 8.0625C2.61328 7.75781 2.52734 7.34375 2.52734 6.82031C2.52734 6.30469 2.64453 5.83984 2.87891 5.42578C3.12109 5.00391 3.44141 4.64453 3.83984 4.34766C4.24609 4.04297 4.71484 3.8125 5.24609 3.65625C5.77734 3.49219 6.33594 3.41016 6.92188 3.41016C7.5 3.41016 8.07422 3.51172 8.64453 3.71484C9.21484 3.91797 9.72266 4.22266 10.168 4.62891C10.6211 5.03516 10.9883 5.54297 11.2695 6.15234C11.5508 6.75391 11.6914 7.45703 11.6914 8.26172C11.6914 9.23828 11.5547 10.1016 11.2812 10.8516C11.0156 11.5938 10.6797 12.2617 10.2734 12.8555C9.86719 13.4414 9.42188 13.9766 8.9375 14.4609C8.46094 14.9375 8.01172 15.3984 7.58984 15.8438C7.02734 16.4297 6.59375 16.9961 6.28906 17.543C5.99219 18.082 5.77734 18.5391 5.64453 18.9141C6.44141 18.8906 7.1875 18.8477 7.88281 18.7852C8.57812 18.7227 9.18359 18.6602 9.69922 18.5977C10.2148 18.5352 10.6211 18.4766 10.918 18.4219C11.2148 18.3672 11.3633 18.332 11.3633 18.3164Z" stroke="black" stroke-width="3.67321" stroke-linejoin="round" mask="url(#path-1-outside-1_1623_9709)"/>
<path d="M17.3506 10.6992C17.3506 10.9102 17.3077 11.1094 17.2217 11.2969C17.1436 11.4844 17.0342 11.6484 16.8936 11.7891C16.7608 11.9219 16.6006 12.0312 16.4131 12.1172C16.2256 12.1953 16.0264 12.2344 15.8155 12.2344C15.5967 12.2344 15.3936 12.1953 15.2061 12.1172C15.0186 12.0312 14.8545 11.9219 14.7139 11.7891C14.5733 11.6484 14.46 11.4844 14.3741 11.2969C14.2959 11.1094 14.2569 10.9102 14.2569 10.6992C14.2569 10.4883 14.2959 10.2891 14.3741 10.1016C14.46 9.90625 14.5733 9.73828 14.7139 9.59766C14.8545 9.45703 15.0186 9.34766 15.2061 9.26953C15.3936 9.18359 15.5967 9.14062 15.8155 9.14062C16.0264 9.14062 16.2256 9.18359 16.4131 9.26953C16.6006 9.34766 16.7608 9.45703 16.8936 9.59766C17.0342 9.73828 17.1436 9.90625 17.2217 10.1016C17.3077 10.2891 17.3506 10.4883 17.3506 10.6992ZM17.3506 19.8984C17.3506 20.1094 17.3077 20.3086 17.2217 20.4961C17.1436 20.6758 17.0342 20.8359 16.8936 20.9766C16.7608 21.1172 16.6006 21.2266 16.4131 21.3047C16.2256 21.3906 16.0264 21.4336 15.8155 21.4336C15.5967 21.4336 15.3936 21.3906 15.2061 21.3047C15.0186 21.2266 14.8545 21.1172 14.7139 20.9766C14.5733 20.8359 14.46 20.6758 14.3741 20.4961C14.2959 20.3086 14.2569 20.1094 14.2569 19.8984C14.2569 19.6797 14.2959 19.4766 14.3741 19.2891C14.46 19.1016 14.5733 18.9375 14.7139 18.7969C14.8545 18.6562 15.0186 18.5469 15.2061 18.4688C15.3936 18.3828 15.5967 18.3398 15.8155 18.3398C16.0264 18.3398 16.2256 18.3828 16.4131 18.4688C16.6006 18.5469 16.7608 18.6562 16.8936 18.7969C17.0342 18.9375 17.1436 19.1016 17.2217 19.2891C17.3077 19.4766 17.3506 19.6797 17.3506 19.8984Z" stroke="black" stroke-width="3.67321" stroke-linejoin="round" mask="url(#path-1-outside-1_1623_9709)"/>
<path d="M29.3487 21.4102C28.6691 21.4102 28.1183 21.4141 27.6964 21.4219C27.2823 21.4375 26.9542 21.4531 26.712 21.4688C26.4308 21.4922 26.2237 21.5117 26.0909 21.5273C26.1534 21.0898 26.2081 20.625 26.255 20.1328C26.3019 19.6328 26.3448 19.125 26.3839 18.6094C26.423 18.0938 26.4542 17.582 26.4777 17.0742C26.5011 16.5664 26.5206 16.082 26.5362 15.6211C26.5675 14.5352 26.587 13.4492 26.5948 12.3633C26.587 11.2773 26.5675 10.2266 26.5362 9.21094C26.5206 8.78125 26.5011 8.33594 26.4777 7.875C26.4542 7.40625 26.4269 6.94922 26.3956 6.50391C26.3644 6.05859 26.3253 5.63281 26.2784 5.22656C26.2394 4.82031 26.1925 4.45312 26.1378 4.125H26.8995C27.3214 4.125 27.6847 4.12109 27.9894 4.11328C28.2941 4.09766 28.548 4.08203 28.7511 4.06641C28.9855 4.05078 29.1847 4.03125 29.3487 4.00781C29.3097 4.78906 29.2745 5.57422 29.2433 6.36328C29.2198 7.15234 29.2003 7.90625 29.1847 8.625C29.1691 9.33594 29.1573 9.98828 29.1495 10.582C29.1417 11.1758 29.1378 11.6719 29.1378 12.0703C29.3878 12.0859 29.63 12.0938 29.8644 12.0938C30.0987 12.0938 30.3292 12.0938 30.5558 12.0938C31.048 12.0938 31.4816 12.0859 31.8566 12.0703C32.2394 12.0469 32.5558 12.0234 32.8058 12C32.8058 11.9531 32.8019 11.7852 32.7941 11.4961C32.7941 11.1992 32.7902 10.8281 32.7823 10.3828C32.7745 9.9375 32.7589 9.4375 32.7355 8.88281C32.7198 8.32812 32.6964 7.76562 32.6652 7.19531C32.6339 6.625 32.5948 6.07422 32.548 5.54297C32.5011 5.00391 32.4425 4.53125 32.3722 4.125H33.1222C33.5206 4.125 33.8644 4.12109 34.1534 4.11328C34.4503 4.09766 34.6964 4.08203 34.8917 4.06641C35.1183 4.05078 35.3097 4.03125 35.4659 4.00781C35.4425 4.51562 35.4191 5.03125 35.3956 5.55469C35.38 6.07031 35.3644 6.58203 35.3487 7.08984C35.3409 7.58984 35.3331 8.07812 35.3253 8.55469C35.3175 9.02344 35.3097 9.46875 35.3019 9.89062C35.2862 10.875 35.2784 11.8242 35.2784 12.7383C35.2784 13.6445 35.2862 14.5664 35.3019 15.5039C35.3097 15.9023 35.3175 16.3242 35.3253 16.7695C35.3331 17.207 35.3409 17.6562 35.3487 18.1172C35.3644 18.5703 35.38 19.0234 35.3956 19.4766C35.4191 19.9297 35.4425 20.3672 35.4659 20.7891C34.8097 20.7891 34.2784 20.7969 33.8722 20.8125C33.4659 20.8203 33.1495 20.832 32.923 20.8477C32.6573 20.8711 32.4581 20.8906 32.3253 20.9062C32.3956 20.4297 32.4542 19.9219 32.5011 19.3828C32.548 18.8438 32.587 18.2969 32.6183 17.7422C32.6573 17.1875 32.6847 16.6406 32.7003 16.1016C32.7237 15.5625 32.7433 15.0586 32.7589 14.5898C32.3839 14.5508 32.0245 14.5273 31.6808 14.5195C31.337 14.5039 31.0089 14.4961 30.6964 14.4961C30.3683 14.4961 30.0714 14.5 29.8058 14.5078C29.548 14.5156 29.3253 14.5273 29.1378 14.543C29.1378 14.9648 29.1417 15.4531 29.1495 16.0078C29.1573 16.5625 29.1691 17.1445 29.1847 17.7539C29.2081 18.3555 29.2316 18.9727 29.255 19.6055C29.2784 20.2305 29.3097 20.832 29.3487 21.4102Z" stroke="black" stroke-width="3.67321" stroke-linejoin="round" mask="url(#path-1-outside-1_1623_9709)"/>
<path d="M46.5744 18.4805C46.5744 18.9414 46.4689 19.375 46.258 19.7812C46.047 20.1875 45.7619 20.5391 45.4025 20.8359C45.0431 21.1328 44.6213 21.3672 44.1369 21.5391C43.6525 21.7109 43.1369 21.7969 42.59 21.7969C42.2228 21.7969 41.8517 21.7461 41.4767 21.6445C41.1017 21.543 40.7423 21.375 40.3986 21.1406C40.0548 20.9062 39.7306 20.5977 39.4259 20.2148C39.1213 19.832 38.8556 19.3633 38.6291 18.8086C38.4103 18.2539 38.2345 17.6055 38.1017 16.8633C37.9767 16.1133 37.9142 15.2539 37.9142 14.2852C37.9142 13.3711 37.9767 12.5625 38.1017 11.8594C38.2345 11.1562 38.4103 10.543 38.6291 10.0195C38.8556 9.49609 39.1173 9.05859 39.4142 8.70703C39.7111 8.34766 40.0275 8.05859 40.3634 7.83984C40.7072 7.61328 41.0588 7.45312 41.4181 7.35938C41.7853 7.26562 42.1447 7.21875 42.4963 7.21875C43.0197 7.21875 43.5158 7.30469 43.9845 7.47656C44.4533 7.64062 44.8634 7.88672 45.215 8.21484C45.5666 8.54297 45.8439 8.94922 46.047 9.43359C46.258 9.91016 46.3634 10.4609 46.3634 11.0859C46.3634 11.6484 46.2463 12.2188 46.0119 12.7969C45.7853 13.3672 45.4455 13.9102 44.9923 14.4258C44.5392 14.9336 43.9767 15.3984 43.3048 15.8203C42.6408 16.2344 41.8752 16.5625 41.008 16.8047C41.0548 17.2891 41.1213 17.7305 41.2072 18.1289C41.3009 18.5273 41.4142 18.8672 41.547 19.1484C41.6877 19.4297 41.8478 19.6484 42.0275 19.8047C42.215 19.9609 42.4298 20.0391 42.672 20.0391C42.8283 20.0312 42.9767 20.0039 43.1173 19.957C43.2423 19.918 43.3673 19.8555 43.4923 19.7695C43.6252 19.6836 43.7345 19.5586 43.8205 19.3945C43.6173 19.3008 43.4611 19.1797 43.3517 19.0312C43.2423 18.8828 43.1603 18.7422 43.1056 18.6094C43.0431 18.4531 43.008 18.2891 43.0002 18.1172C43.0002 17.7422 43.0744 17.4375 43.2228 17.2031C43.3713 16.9688 43.547 16.7852 43.7502 16.6523C43.9533 16.5195 44.1603 16.4297 44.3713 16.3828C44.5822 16.3281 44.7502 16.3008 44.8752 16.3008C45.008 16.3008 45.1681 16.3281 45.3556 16.3828C45.5509 16.4375 45.7384 16.543 45.9181 16.6992C46.0978 16.8555 46.2502 17.0781 46.3752 17.3672C46.508 17.6484 46.5744 18.0195 46.5744 18.4805ZM43.6798 11.1094C43.6798 10.8281 43.6525 10.5625 43.5978 10.3125C43.5509 10.0547 43.4767 9.83203 43.3752 9.64453C43.2814 9.45703 43.1603 9.30859 43.0119 9.19922C42.8713 9.08203 42.7072 9.02344 42.5197 9.02344C42.1994 9.02344 41.9377 9.17188 41.7345 9.46875C41.5314 9.75781 41.3673 10.1445 41.2423 10.6289C41.1173 11.1133 41.0314 11.6719 40.9845 12.3047C40.9377 12.9375 40.9142 13.5977 40.9142 14.2852V15.1406C41.3127 14.9297 41.6798 14.6797 42.0158 14.3906C42.3595 14.1016 42.6525 13.7852 42.8947 13.4414C43.1447 13.0898 43.3361 12.7188 43.4689 12.3281C43.6095 11.9375 43.6798 11.5312 43.6798 11.1094Z" stroke="black" stroke-width="3.67321" stroke-linejoin="round" mask="url(#path-1-outside-1_1623_9709)"/>
<path d="M52.0812 4.55859C52.0812 4.80859 52.0344 5.04688 51.9406 5.27344C51.8469 5.49219 51.718 5.68359 51.5539 5.84766C51.3898 6.01172 51.1945 6.14453 50.968 6.24609C50.7492 6.33984 50.5148 6.38672 50.2648 6.38672C50.0148 6.38672 49.7766 6.33984 49.55 6.24609C49.3312 6.14453 49.1398 6.01172 48.9758 5.84766C48.8117 5.68359 48.6789 5.49219 48.5773 5.27344C48.4836 5.04688 48.4367 4.80859 48.4367 4.55859C48.4367 4.30859 48.4836 4.07422 48.5773 3.85547C48.6789 3.62891 48.8117 3.43359 48.9758 3.26953C49.1398 3.10547 49.3312 2.97656 49.55 2.88281C49.7766 2.78125 50.0148 2.73047 50.2648 2.73047C50.5148 2.73047 50.7492 2.78125 50.968 2.88281C51.1945 2.97656 51.3898 3.10547 51.5539 3.26953C51.718 3.43359 51.8469 3.62891 51.9406 3.85547C52.0344 4.07422 52.0812 4.30859 52.0812 4.55859ZM52.0812 8.10938C52.0187 8.72656 51.9641 9.39453 51.9172 10.1133C51.8781 10.8242 51.843 11.5547 51.8117 12.3047C51.7883 13.0547 51.7687 13.8086 51.7531 14.5664C51.7375 15.3242 51.7258 16.0469 51.718 16.7344C51.7102 17.4219 51.7023 18.0664 51.6945 18.668C51.6945 19.2617 51.6945 19.7734 51.6945 20.2031V21.5273L49.0344 21.6211C49.05 21.082 49.0578 20.5586 49.0578 20.0508C49.0578 19.543 49.0578 19.0352 49.0578 18.5273C49.0578 17.6445 49.05 16.7852 49.0344 15.9492C49.0187 15.1055 48.9914 14.2617 48.9523 13.418C48.9211 12.5742 48.8781 11.7188 48.8234 10.8516C48.7687 9.98438 48.7023 9.08594 48.6242 8.15625L52.0812 8.10938Z" stroke="black" stroke-width="3.67321" stroke-linejoin="round" mask="url(#path-1-outside-1_1623_9709)"/>
<path d="M58.7131 3.1875C58.6506 3.99219 58.5998 4.78516 58.5608 5.56641C58.5217 6.33984 58.4827 7.11719 58.4436 7.89844C58.7873 7.88281 59.1272 7.87109 59.4631 7.86328C59.7991 7.84766 60.1428 7.82812 60.4944 7.80469L60.5412 10.8047C60.1662 10.7422 59.7952 10.6914 59.428 10.6523C59.0608 10.6133 58.7014 10.582 58.3498 10.5586C58.3264 11.2227 58.3108 11.8789 58.303 12.5273C58.303 13.1758 58.303 13.832 58.303 14.4961C58.303 15.6836 58.3147 16.8633 58.3381 18.0352C58.3694 19.207 58.4162 20.3867 58.4787 21.5742L55.4202 21.5273C55.5217 19.6914 55.6037 17.8594 55.6662 16.0312C55.7366 14.1953 55.7834 12.3477 55.8069 10.4883C55.4787 10.5039 55.1506 10.5234 54.8225 10.5469C54.4944 10.5625 54.1584 10.582 53.8147 10.6055L53.9084 7.82812C54.2287 7.85156 54.5452 7.87109 54.8577 7.88672C55.178 7.89453 55.4944 7.90625 55.8069 7.92188C55.8069 7.14062 55.7991 6.36328 55.7834 5.58984C55.7678 4.80859 55.7522 4.02344 55.7366 3.23438L58.7131 3.1875Z" stroke="black" stroke-width="3.67321" stroke-linejoin="round" mask="url(#path-1-outside-1_1623_9709)"/>
<path d="M70.7825 18.4805C70.7825 18.9414 70.677 19.375 70.4661 19.7812C70.2552 20.1875 69.97 20.5391 69.6106 20.8359C69.2513 21.1328 68.8294 21.3672 68.345 21.5391C67.8606 21.7109 67.345 21.7969 66.7981 21.7969C66.4309 21.7969 66.0598 21.7461 65.6848 21.6445C65.3098 21.543 64.9505 21.375 64.6067 21.1406C64.263 20.9062 63.9388 20.5977 63.6341 20.2148C63.3294 19.832 63.0638 19.3633 62.8372 18.8086C62.6184 18.2539 62.4427 17.6055 62.3098 16.8633C62.1848 16.1133 62.1223 15.2539 62.1223 14.2852C62.1223 13.3711 62.1848 12.5625 62.3098 11.8594C62.4427 11.1562 62.6184 10.543 62.8372 10.0195C63.0638 9.49609 63.3255 9.05859 63.6223 8.70703C63.9192 8.34766 64.2356 8.05859 64.5716 7.83984C64.9153 7.61328 65.2669 7.45312 65.6263 7.35938C65.9934 7.26562 66.3528 7.21875 66.7044 7.21875C67.2278 7.21875 67.7239 7.30469 68.1927 7.47656C68.6614 7.64062 69.0716 7.88672 69.4231 8.21484C69.7747 8.54297 70.052 8.94922 70.2552 9.43359C70.4661 9.91016 70.5716 10.4609 70.5716 11.0859C70.5716 11.6484 70.4544 12.2188 70.22 12.7969C69.9934 13.3672 69.6536 13.9102 69.2005 14.4258C68.7473 14.9336 68.1848 15.3984 67.513 15.8203C66.8489 16.2344 66.0833 16.5625 65.2161 16.8047C65.263 17.2891 65.3294 17.7305 65.4153 18.1289C65.5091 18.5273 65.6223 18.8672 65.7552 19.1484C65.8958 19.4297 66.0559 19.6484 66.2356 19.8047C66.4231 19.9609 66.638 20.0391 66.8802 20.0391C67.0364 20.0312 67.1848 20.0039 67.3255 19.957C67.4505 19.918 67.5755 19.8555 67.7005 19.7695C67.8333 19.6836 67.9427 19.5586 68.0286 19.3945C67.8255 19.3008 67.6692 19.1797 67.5598 19.0312C67.4505 18.8828 67.3684 18.7422 67.3138 18.6094C67.2513 18.4531 67.2161 18.2891 67.2083 18.1172C67.2083 17.7422 67.2825 17.4375 67.4309 17.2031C67.5794 16.9688 67.7552 16.7852 67.9583 16.6523C68.1614 16.5195 68.3684 16.4297 68.5794 16.3828C68.7903 16.3281 68.9583 16.3008 69.0833 16.3008C69.2161 16.3008 69.3763 16.3281 69.5638 16.3828C69.7591 16.4375 69.9466 16.543 70.1263 16.6992C70.3059 16.8555 70.4583 17.0781 70.5833 17.3672C70.7161 17.6484 70.7825 18.0195 70.7825 18.4805ZM67.888 11.1094C67.888 10.8281 67.8606 10.5625 67.8059 10.3125C67.7591 10.0547 67.6848 9.83203 67.5833 9.64453C67.4895 9.45703 67.3684 9.30859 67.22 9.19922C67.0794 9.08203 66.9153 9.02344 66.7278 9.02344C66.4075 9.02344 66.1458 9.17188 65.9427 9.46875C65.7395 9.75781 65.5755 10.1445 65.4505 10.6289C65.3255 11.1133 65.2395 11.6719 65.1927 12.3047C65.1458 12.9375 65.1223 13.5977 65.1223 14.2852V15.1406C65.5208 14.9297 65.888 14.6797 66.2239 14.3906C66.5677 14.1016 66.8606 13.7852 67.1028 13.4414C67.3528 13.0898 67.5442 12.7188 67.677 12.3281C67.8177 11.9375 67.888 11.5312 67.888 11.1094Z" stroke="black" stroke-width="3.67321" stroke-linejoin="round" mask="url(#path-1-outside-1_1623_9709)"/>
<path d="M76.0081 21.4805L72.8792 21.7148C73.0042 20.3164 73.0941 18.9688 73.1488 17.6719C73.2113 16.3672 73.2425 15.0625 73.2425 13.7578C73.2425 12.8359 73.2269 11.9141 73.1956 10.9922C73.1722 10.0625 73.1253 9.10938 73.055 8.13281L75.6917 7.99219C75.6761 8.16406 75.6644 8.33203 75.6566 8.49609C75.6488 8.66016 75.6448 8.82031 75.6448 8.97656C75.9183 8.55469 76.2152 8.22656 76.5355 7.99219C76.8636 7.75 77.1683 7.57422 77.4495 7.46484C77.7698 7.33203 78.0941 7.25 78.4222 7.21875C78.9925 7.21875 79.4808 7.30859 79.887 7.48828C80.2933 7.66016 80.6253 7.88672 80.8831 8.16797C81.1409 8.44141 81.3284 8.75 81.4456 9.09375C81.5628 9.42969 81.6214 9.75781 81.6214 10.0781C81.6214 10.4062 81.5863 10.7383 81.5159 11.0742C81.4456 11.4102 81.3245 11.7148 81.1527 11.9883C80.9886 12.2539 80.7659 12.4727 80.4847 12.6445C80.2113 12.8086 79.8714 12.8906 79.4652 12.8906C79.0589 12.8906 78.7386 12.8164 78.5042 12.668C78.2698 12.5195 78.0902 12.3438 77.9652 12.1406C77.848 11.9297 77.7698 11.7148 77.7308 11.4961C77.6995 11.2695 77.6839 11.0781 77.6839 10.9219C77.6839 10.8125 77.7034 10.6914 77.7425 10.5586C77.7816 10.418 77.8402 10.2773 77.9183 10.1367C77.9964 9.99609 78.0941 9.85938 78.2113 9.72656C78.3284 9.58594 78.4652 9.45703 78.6214 9.33984C78.5745 9.32422 78.5238 9.3125 78.4691 9.30469C78.4222 9.29688 78.3753 9.29297 78.3284 9.29297C77.9378 9.29297 77.5902 9.41797 77.2855 9.66797C76.9808 9.91016 76.7152 10.25 76.4886 10.6875C76.2698 11.125 76.0863 11.6406 75.9378 12.2344C75.7972 12.8281 75.6917 13.4766 75.6214 14.1797C75.6605 15.3906 75.7152 16.5898 75.7855 17.7773C75.8558 18.9648 75.93 20.1992 76.0081 21.4805Z" stroke="black" stroke-width="3.67321" stroke-linejoin="round" mask="url(#path-1-outside-1_1623_9709)"/>
<path d="M101.987 8.33203C101.955 9.00391 101.932 9.67578 101.916 10.3477C101.909 11.0117 101.901 11.6133 101.893 12.1523C101.885 12.7852 101.881 13.3906 101.881 13.9688C101.866 14.5391 101.838 15.1289 101.799 15.7383C101.76 16.3398 101.69 16.9258 101.588 17.4961C101.495 18.0664 101.362 18.6055 101.19 19.1133C101.026 19.6211 100.811 20.0664 100.545 20.4492C100.28 20.832 99.9555 21.1328 99.5727 21.3516C99.1977 21.5781 98.7523 21.6914 98.2367 21.6914C97.8148 21.6602 97.4125 21.5391 97.0297 21.3281C96.8656 21.2344 96.6977 21.1211 96.5258 20.9883C96.3539 20.8477 96.1898 20.6758 96.0336 20.4727C95.8773 20.2695 95.7289 20.0312 95.5883 19.7578C95.4477 19.4844 95.3305 19.1641 95.2367 18.7969C94.9789 19.4688 94.6781 19.9883 94.3344 20.3555C93.9906 20.7227 93.6664 20.9922 93.3617 21.1641C92.9945 21.3672 92.6273 21.4883 92.2602 21.5273C91.8383 21.5273 91.4789 21.4336 91.182 21.2461C90.8852 21.0586 90.6352 20.8008 90.432 20.4727C90.2289 20.1367 90.0687 19.7461 89.9516 19.3008C89.8344 18.8555 89.7445 18.375 89.682 17.8594C89.6195 17.3438 89.5766 16.8047 89.5531 16.2422C89.5375 15.6797 89.5297 15.1211 89.5297 14.5664C89.5297 14.3789 89.5297 14.2461 89.5297 14.168C89.5375 14.082 89.5414 14 89.5414 13.9219C89.5492 13.8359 89.557 13.7227 89.5648 13.582C89.5727 13.4336 89.5766 13.207 89.5766 12.9023C89.5844 12.5977 89.5883 12.1836 89.5883 11.6602C89.5961 11.1367 89.6 10.4492 89.6 9.59766C89.6 9.33203 89.6 9.07422 89.6 8.82422C89.6 8.56641 89.5922 8.32812 89.5766 8.10938L92.9047 8.20312C92.6391 9.59375 92.4594 10.957 92.3656 12.293C92.2797 13.6289 92.2367 14.9648 92.2367 16.3008C92.2367 17.168 92.2953 17.7969 92.4125 18.1875C92.5297 18.5781 92.7602 18.7734 93.1039 18.7734C93.2602 18.7734 93.4008 18.6875 93.5258 18.5156C93.6586 18.3359 93.7719 18.1016 93.8656 17.8125C93.9672 17.5156 94.0531 17.1797 94.1234 16.8047C94.2016 16.4297 94.2641 16.0469 94.3109 15.6562C94.3578 15.2578 94.393 14.8672 94.4164 14.4844C94.4398 14.1016 94.4516 13.7539 94.4516 13.4414C94.4516 13.1133 94.4477 12.7969 94.4398 12.4922C94.4398 12.1875 94.4281 11.8711 94.4047 11.543C94.3891 11.207 94.3656 10.8555 94.3344 10.4883C94.3109 10.1133 94.2758 9.69531 94.2289 9.23438L97.2289 9.38672C97.0727 10.3086 96.9398 11.2031 96.8305 12.0703C96.7289 12.9297 96.6781 13.7852 96.6781 14.6367C96.6781 15.1211 96.6977 15.6172 96.7367 16.125C96.7836 16.625 96.8539 17.082 96.9477 17.4961C97.0492 17.9023 97.1781 18.2383 97.3344 18.5039C97.4906 18.7617 97.6781 18.8906 97.8969 18.8906C98.1703 18.8906 98.393 18.7266 98.5648 18.3984C98.7445 18.0625 98.8812 17.6289 98.975 17.0977C99.0766 16.5586 99.1469 15.957 99.1859 15.293C99.225 14.6211 99.2445 13.9492 99.2445 13.2773C99.2445 13.207 99.2406 13.0391 99.2328 12.7734C99.225 12.5078 99.2055 12.1602 99.1742 11.7305C99.143 11.3008 99.0961 10.793 99.0336 10.207C98.9711 9.62109 98.8812 8.97266 98.7641 8.26172L101.987 8.33203Z" stroke="black" stroke-width="3.67321" stroke-linejoin="round" mask="url(#path-1-outside-1_1623_9709)"/>
<path d="M112.826 18.4805C112.826 18.9414 112.72 19.375 112.509 19.7812C112.298 20.1875 112.013 20.5391 111.654 20.8359C111.294 21.1328 110.872 21.3672 110.388 21.5391C109.904 21.7109 109.388 21.7969 108.841 21.7969C108.474 21.7969 108.103 21.7461 107.728 21.6445C107.353 21.543 106.994 21.375 106.65 21.1406C106.306 20.9062 105.982 20.5977 105.677 20.2148C105.372 19.832 105.107 19.3633 104.88 18.8086C104.662 18.2539 104.486 17.6055 104.353 16.8633C104.228 16.1133 104.165 15.2539 104.165 14.2852C104.165 13.3711 104.228 12.5625 104.353 11.8594C104.486 11.1562 104.662 10.543 104.88 10.0195C105.107 9.49609 105.369 9.05859 105.665 8.70703C105.962 8.34766 106.279 8.05859 106.615 7.83984C106.958 7.61328 107.31 7.45312 107.669 7.35938C108.037 7.26562 108.396 7.21875 108.747 7.21875C109.271 7.21875 109.767 7.30469 110.236 7.47656C110.705 7.64062 111.115 7.88672 111.466 8.21484C111.818 8.54297 112.095 8.94922 112.298 9.43359C112.509 9.91016 112.615 10.4609 112.615 11.0859C112.615 11.6484 112.497 12.2188 112.263 12.7969C112.037 13.3672 111.697 13.9102 111.244 14.4258C110.79 14.9336 110.228 15.3984 109.556 15.8203C108.892 16.2344 108.126 16.5625 107.259 16.8047C107.306 17.2891 107.372 17.7305 107.458 18.1289C107.552 18.5273 107.665 18.8672 107.798 19.1484C107.939 19.4297 108.099 19.6484 108.279 19.8047C108.466 19.9609 108.681 20.0391 108.923 20.0391C109.08 20.0312 109.228 20.0039 109.369 19.957C109.494 19.918 109.619 19.8555 109.744 19.7695C109.876 19.6836 109.986 19.5586 110.072 19.3945C109.869 19.3008 109.712 19.1797 109.603 19.0312C109.494 18.8828 109.412 18.7422 109.357 18.6094C109.294 18.4531 109.259 18.2891 109.251 18.1172C109.251 17.7422 109.326 17.4375 109.474 17.2031C109.622 16.9688 109.798 16.7852 110.001 16.6523C110.205 16.5195 110.412 16.4297 110.622 16.3828C110.833 16.3281 111.001 16.3008 111.126 16.3008C111.259 16.3008 111.419 16.3281 111.607 16.3828C111.802 16.4375 111.99 16.543 112.169 16.6992C112.349 16.8555 112.501 17.0781 112.626 17.3672C112.759 17.6484 112.826 18.0195 112.826 18.4805ZM109.931 11.1094C109.931 10.8281 109.904 10.5625 109.849 10.3125C109.802 10.0547 109.728 9.83203 109.626 9.64453C109.533 9.45703 109.412 9.30859 109.263 9.19922C109.122 9.08203 108.958 9.02344 108.771 9.02344C108.451 9.02344 108.189 9.17188 107.986 9.46875C107.783 9.75781 107.619 10.1445 107.494 10.6289C107.369 11.1133 107.283 11.6719 107.236 12.3047C107.189 12.9375 107.165 13.5977 107.165 14.2852V15.1406C107.564 14.9297 107.931 14.6797 108.267 14.3906C108.611 14.1016 108.904 13.7852 109.146 13.4414C109.396 13.0898 109.587 12.7188 109.72 12.3281C109.861 11.9375 109.931 11.5312 109.931 11.1094Z" stroke="black" stroke-width="3.67321" stroke-linejoin="round" mask="url(#path-1-outside-1_1623_9709)"/>
<path d="M118.332 4.55859C118.332 4.80859 118.286 5.04688 118.192 5.27344C118.098 5.49219 117.969 5.68359 117.805 5.84766C117.641 6.01172 117.446 6.14453 117.219 6.24609C117 6.33984 116.766 6.38672 116.516 6.38672C116.266 6.38672 116.028 6.33984 115.801 6.24609C115.582 6.14453 115.391 6.01172 115.227 5.84766C115.063 5.68359 114.93 5.49219 114.829 5.27344C114.735 5.04688 114.688 4.80859 114.688 4.55859C114.688 4.30859 114.735 4.07422 114.829 3.85547C114.93 3.62891 115.063 3.43359 115.227 3.26953C115.391 3.10547 115.582 2.97656 115.801 2.88281C116.028 2.78125 116.266 2.73047 116.516 2.73047C116.766 2.73047 117 2.78125 117.219 2.88281C117.446 2.97656 117.641 3.10547 117.805 3.26953C117.969 3.43359 118.098 3.62891 118.192 3.85547C118.286 4.07422 118.332 4.30859 118.332 4.55859ZM118.332 8.10938C118.27 8.72656 118.215 9.39453 118.168 10.1133C118.129 10.8242 118.094 11.5547 118.063 12.3047C118.04 13.0547 118.02 13.8086 118.004 14.5664C117.989 15.3242 117.977 16.0469 117.969 16.7344C117.961 17.4219 117.954 18.0664 117.946 18.668C117.946 19.2617 117.946 19.7734 117.946 20.2031V21.5273L115.286 21.6211C115.301 21.082 115.309 20.5586 115.309 20.0508C115.309 19.543 115.309 19.0352 115.309 18.5273C115.309 17.6445 115.301 16.7852 115.286 15.9492C115.27 15.1055 115.243 14.2617 115.204 13.418C115.172 12.5742 115.129 11.7188 115.075 10.8516C115.02 9.98438 114.954 9.08594 114.875 8.15625L118.332 8.10938Z" stroke="black" stroke-width="3.67321" stroke-linejoin="round" mask="url(#path-1-outside-1_1623_9709)"/>
<path d="M124.964 3.1875C124.902 3.99219 124.851 4.78516 124.812 5.56641C124.773 6.33984 124.734 7.11719 124.695 7.89844C125.039 7.88281 125.378 7.87109 125.714 7.86328C126.05 7.84766 126.394 7.82812 126.746 7.80469L126.793 10.8047C126.418 10.7422 126.046 10.6914 125.679 10.6523C125.312 10.6133 124.953 10.582 124.601 10.5586C124.578 11.2227 124.562 11.8789 124.554 12.5273C124.554 13.1758 124.554 13.832 124.554 14.4961C124.554 15.6836 124.566 16.8633 124.589 18.0352C124.621 19.207 124.668 20.3867 124.73 21.5742L121.671 21.5273C121.773 19.6914 121.855 17.8594 121.918 16.0312C121.988 14.1953 122.035 12.3477 122.058 10.4883C121.73 10.5039 121.402 10.5234 121.074 10.5469C120.746 10.5625 120.41 10.582 120.066 10.6055L120.16 7.82812C120.48 7.85156 120.796 7.87109 121.109 7.88672C121.429 7.89453 121.746 7.90625 122.058 7.92188C122.058 7.14062 122.05 6.36328 122.035 5.58984C122.019 4.80859 122.003 4.02344 121.988 3.23438L124.964 3.1875Z" stroke="black" stroke-width="3.67321" stroke-linejoin="round" mask="url(#path-1-outside-1_1623_9709)"/>
<path d="M137.034 18.4805C137.034 18.9414 136.928 19.375 136.717 19.7812C136.506 20.1875 136.221 20.5391 135.862 20.8359C135.503 21.1328 135.081 21.3672 134.596 21.5391C134.112 21.7109 133.596 21.7969 133.049 21.7969C132.682 21.7969 132.311 21.7461 131.936 21.6445C131.561 21.543 131.202 21.375 130.858 21.1406C130.514 20.9062 130.19 20.5977 129.885 20.2148C129.581 19.832 129.315 19.3633 129.088 18.8086C128.87 18.2539 128.694 17.6055 128.561 16.8633C128.436 16.1133 128.374 15.2539 128.374 14.2852C128.374 13.3711 128.436 12.5625 128.561 11.8594C128.694 11.1562 128.87 10.543 129.088 10.0195C129.315 9.49609 129.577 9.05859 129.874 8.70703C130.17 8.34766 130.487 8.05859 130.823 7.83984C131.167 7.61328 131.518 7.45312 131.878 7.35938C132.245 7.26562 132.604 7.21875 132.956 7.21875C133.479 7.21875 133.975 7.30469 134.444 7.47656C134.913 7.64062 135.323 7.88672 135.674 8.21484C136.026 8.54297 136.303 8.94922 136.506 9.43359C136.717 9.91016 136.823 10.4609 136.823 11.0859C136.823 11.6484 136.706 12.2188 136.471 12.7969C136.245 13.3672 135.905 13.9102 135.452 14.4258C134.999 14.9336 134.436 15.3984 133.764 15.8203C133.1 16.2344 132.335 16.5625 131.467 16.8047C131.514 17.2891 131.581 17.7305 131.667 18.1289C131.76 18.5273 131.874 18.8672 132.006 19.1484C132.147 19.4297 132.307 19.6484 132.487 19.8047C132.674 19.9609 132.889 20.0391 133.131 20.0391C133.288 20.0312 133.436 20.0039 133.577 19.957C133.702 19.918 133.827 19.8555 133.952 19.7695C134.085 19.6836 134.194 19.5586 134.28 19.3945C134.077 19.3008 133.92 19.1797 133.811 19.0312C133.702 18.8828 133.62 18.7422 133.565 18.6094C133.503 18.4531 133.467 18.2891 133.46 18.1172C133.46 17.7422 133.534 17.4375 133.682 17.2031C133.831 16.9688 134.006 16.7852 134.21 16.6523C134.413 16.5195 134.62 16.4297 134.831 16.3828C135.042 16.3281 135.21 16.3008 135.335 16.3008C135.467 16.3008 135.628 16.3281 135.815 16.3828C136.01 16.4375 136.198 16.543 136.378 16.6992C136.557 16.8555 136.71 17.0781 136.835 17.3672C136.967 17.6484 137.034 18.0195 137.034 18.4805ZM134.139 11.1094C134.139 10.8281 134.112 10.5625 134.057 10.3125C134.01 10.0547 133.936 9.83203 133.835 9.64453C133.741 9.45703 133.62 9.30859 133.471 9.19922C133.331 9.08203 133.167 9.02344 132.979 9.02344C132.659 9.02344 132.397 9.17188 132.194 9.46875C131.991 9.75781 131.827 10.1445 131.702 10.6289C131.577 11.1133 131.491 11.6719 131.444 12.3047C131.397 12.9375 131.374 13.5977 131.374 14.2852V15.1406C131.772 14.9297 132.139 14.6797 132.475 14.3906C132.819 14.1016 133.112 13.7852 133.354 13.4414C133.604 13.0898 133.795 12.7188 133.928 12.3281C134.069 11.9375 134.139 11.5312 134.139 11.1094Z" stroke="black" stroke-width="3.67321" stroke-linejoin="round" mask="url(#path-1-outside-1_1623_9709)"/>
<path d="M142.259 21.4805L139.13 21.7148C139.255 20.3164 139.345 18.9688 139.4 17.6719C139.462 16.3672 139.494 15.0625 139.494 13.7578C139.494 12.8359 139.478 11.9141 139.447 10.9922C139.423 10.0625 139.377 9.10938 139.306 8.13281L141.943 7.99219C141.927 8.16406 141.916 8.33203 141.908 8.49609C141.9 8.66016 141.896 8.82031 141.896 8.97656C142.17 8.55469 142.466 8.22656 142.787 7.99219C143.115 7.75 143.42 7.57422 143.701 7.46484C144.021 7.33203 144.345 7.25 144.673 7.21875C145.244 7.21875 145.732 7.30859 146.138 7.48828C146.545 7.66016 146.877 7.88672 147.134 8.16797C147.392 8.44141 147.58 8.75 147.697 9.09375C147.814 9.42969 147.873 9.75781 147.873 10.0781C147.873 10.4062 147.837 10.7383 147.767 11.0742C147.697 11.4102 147.576 11.7148 147.404 11.9883C147.24 12.2539 147.017 12.4727 146.736 12.6445C146.462 12.8086 146.123 12.8906 145.716 12.8906C145.31 12.8906 144.99 12.8164 144.755 12.668C144.521 12.5195 144.341 12.3438 144.216 12.1406C144.099 11.9297 144.021 11.7148 143.982 11.4961C143.951 11.2695 143.935 11.0781 143.935 10.9219C143.935 10.8125 143.955 10.6914 143.994 10.5586C144.033 10.418 144.091 10.2773 144.17 10.1367C144.248 9.99609 144.345 9.85938 144.462 9.72656C144.58 9.58594 144.716 9.45703 144.873 9.33984C144.826 9.32422 144.775 9.3125 144.72 9.30469C144.673 9.29688 144.627 9.29297 144.58 9.29297C144.189 9.29297 143.841 9.41797 143.537 9.66797C143.232 9.91016 142.966 10.25 142.74 10.6875C142.521 11.125 142.337 11.6406 142.189 12.2344C142.048 12.8281 141.943 13.4766 141.873 14.1797C141.912 15.3906 141.966 16.5898 142.037 17.7773C142.107 18.9648 142.181 20.1992 142.259 21.4805Z" stroke="black" stroke-width="3.67321" stroke-linejoin="round" mask="url(#path-1-outside-1_1623_9709)"/>
</svg>
