<svg width="107" height="83" viewBox="0 0 107 83" fill="none" xmlns="http://www.w3.org/2000/svg">
<g filter="url(#filter0_d_1504_9290)">
<rect x="4.70044" y="12.2144" width="41.5798" height="62.3697" rx="3.19845" transform="rotate(-15.721 4.70044 12.2144)" fill="white"/>
<mask id="mask0_1504_9290" style="mask-type:alpha" maskUnits="userSpaceOnUse" x="10" y="3" width="47" height="67">
<path d="M12.391 11.711L40.54 3.78752C42.0278 3.36872 43.5734 4.23534 43.9922 5.72317L55.9874 48.3373C56.2429 49.245 55.7142 50.188 54.8064 50.4436C53.7832 50.7316 53.0528 51.6335 52.9839 52.6943L52.6794 57.3797C52.6286 58.1597 53.077 58.8864 53.7968 59.1911C54.7004 59.5735 54.618 60.8802 53.6735 61.146L25.0084 69.2148C23.4862 69.6433 21.9117 68.7265 21.5329 67.1912L11.1045 24.9205C10.8411 23.8527 11.4724 22.7685 12.531 22.4705C14.0396 22.0459 14.9183 20.4787 14.4936 18.9702L13.5447 15.599C13.3645 14.9587 12.8933 14.4407 12.2729 14.2007C11.0955 13.7452 11.1758 12.0531 12.391 11.711Z" fill="#C4C4C4" stroke="black" stroke-width="0.799611"/>
</mask>
<g mask="url(#mask0_1504_9290)">
<rect x="9.52394" y="14.5948" width="34.3833" height="55.1732" rx="2.79864" transform="rotate(-15.721 9.52394 14.5948)" stroke="black" stroke-width="0.799611"/>
</g>
<path d="M19.2491 22.2409L15.9965 23.1565C17.0769 22.0341 17.1332 21.3553 16.8952 20.1139L15.0178 21.7582C13.6086 21.2992 13.4192 20.8647 14.4358 19.6903L16.8952 20.1139L15.0834 17.8344C15.3923 16.2988 16.0748 16.1605 17.2518 17.224L16.8952 20.1139L19.0436 18.3933C20.2219 18.9332 20.1388 19.4451 19.6257 20.4611L16.8952 20.1139C17.4337 21.2709 17.884 21.792 19.2491 22.2409Z" fill="black"/>
<path d="M16.8952 20.1139C17.1332 21.3553 17.0769 22.0341 15.9965 23.1565L19.2491 22.2409C17.884 21.792 17.4337 21.2709 16.8952 20.1139ZM16.8952 20.1139L15.0178 21.7582C13.6086 21.2992 13.4192 20.8647 14.4358 19.6903L16.8952 20.1139ZM16.8952 20.1139L17.2518 17.224C16.0748 16.1605 15.3923 16.2988 15.0834 17.8344L16.8952 20.1139ZM16.8952 20.1139L19.0436 18.3933C20.2219 18.9332 20.1388 19.4451 19.6257 20.4611L16.8952 20.1139Z" stroke="black" stroke-width="0.799611"/>
<path d="M42.6354 44.732L45.4814 43.9309C44.5361 44.9129 44.4867 45.5069 44.695 46.5931L46.3377 45.1544C47.5708 45.556 47.7366 45.9362 46.847 46.9637L44.695 46.5931L46.2804 48.5877C46.0101 49.9313 45.4129 50.0523 44.383 49.1218L44.695 46.5931L42.8151 48.0986C41.7842 47.6262 41.8569 47.1783 42.3058 46.2893L44.695 46.5931C44.2238 45.5807 43.8298 45.1248 42.6354 44.732Z" fill="black"/>
<path d="M44.695 46.5931C44.4867 45.5069 44.5361 44.9129 45.4814 43.9309L42.6354 44.732C43.8298 45.1248 44.2238 45.5807 44.695 46.5931ZM44.695 46.5931L46.3377 45.1544C47.5708 45.556 47.7366 45.9362 46.847 46.9637L44.695 46.5931ZM44.695 46.5931L44.383 49.1218C45.4129 50.0523 46.0101 49.9313 46.2804 48.5877L44.695 46.5931ZM44.695 46.5931L42.8151 48.0986C41.7842 47.6262 41.8569 47.1783 42.3058 46.2893L44.695 46.5931Z" stroke="black" stroke-width="0.799611"/>
<path d="M30.0919 48.2627L27.2459 49.0638C28.5647 49.4086 28.9166 49.8896 29.3055 50.925L27.1535 50.5544C26.311 51.5403 26.3679 51.9511 27.6628 52.3637L29.3055 50.925L28.9934 53.4537C29.9249 54.459 30.4975 54.2507 30.8907 52.9196L29.3055 50.925L31.6947 51.2288C32.3279 50.2879 32.0322 49.9437 31.1854 49.4195L29.3055 50.925C29.1794 49.8154 29.2778 49.2209 30.0919 48.2627Z" fill="black"/>
<path d="M29.3055 50.925C28.9166 49.8896 28.5647 49.4086 27.2459 49.0638L30.0919 48.2627C29.2778 49.2209 29.1794 49.8154 29.3055 50.925ZM29.3055 50.925L27.1535 50.5544C26.311 51.5403 26.3679 51.9511 27.6628 52.3637L29.3055 50.925ZM29.3055 50.925L30.8907 52.9196C30.4975 54.2507 29.9249 54.459 28.9934 53.4537L29.3055 50.925ZM29.3055 50.925L31.6947 51.2288C32.3279 50.2879 32.0322 49.9437 31.1854 49.4195L29.3055 50.925Z" stroke="black" stroke-width="0.799611"/>
<path d="M39.1688 32.4168L42.0149 31.6157C41.0695 32.5977 41.0202 33.1917 41.2285 34.2779L42.8712 32.8392C44.1042 33.2408 44.27 33.621 43.3805 34.6485L41.2285 34.2779L42.8138 36.2725C42.5435 37.6161 41.9464 37.7371 40.9165 36.8066L41.2285 34.2779L39.3486 35.7834C38.3176 35.311 38.3903 34.8631 38.8393 33.9741L41.2285 34.2779C40.7573 33.2655 40.3633 32.8096 39.1688 32.4168Z" fill="black"/>
<path d="M41.2285 34.2779C41.0202 33.1917 41.0695 32.5977 42.0149 31.6157L39.1688 32.4168C40.3633 32.8096 40.7573 33.2655 41.2285 34.2779ZM41.2285 34.2779L42.8712 32.8392C44.1042 33.2408 44.27 33.621 43.3805 34.6485L41.2285 34.2779ZM41.2285 34.2779L40.9165 36.8066C41.9464 37.7371 42.5435 37.6161 42.8138 36.2725L41.2285 34.2779ZM41.2285 34.2779L39.3486 35.7834C38.3176 35.311 38.3903 34.8631 38.8393 33.9741L41.2285 34.2779Z" stroke="black" stroke-width="0.799611"/>
<path d="M34.1058 33.0113L31.2598 33.8124C32.2051 32.8303 32.2545 32.2364 32.0462 31.1501L30.4035 32.5889C29.1704 32.1872 29.0046 31.8071 29.8942 30.7795L32.0462 31.1501L30.4608 29.1556C30.7311 27.8119 31.3283 27.691 32.3582 28.6215L32.0462 31.1501L33.9261 29.6446C34.9571 30.1171 34.8844 30.565 34.4354 31.454L32.0462 31.1501C32.5174 32.1626 32.9114 32.6185 34.1058 33.0113Z" fill="black"/>
<path d="M32.0462 31.1501C32.2545 32.2364 32.2051 32.8303 31.2598 33.8124L34.1058 33.0113C32.9114 32.6185 32.5174 32.1626 32.0462 31.1501ZM32.0462 31.1501L30.4035 32.5889C29.1704 32.1872 29.0046 31.8071 29.8942 30.7795L32.0462 31.1501ZM32.0462 31.1501L32.3582 28.6215C31.3283 27.691 30.7311 27.8119 30.4608 29.1556L32.0462 31.1501ZM32.0462 31.1501L33.9261 29.6446C34.9571 30.1171 34.8844 30.565 34.4354 31.454L32.0462 31.1501Z" stroke="black" stroke-width="0.799611"/>
<path d="M26.6256 35.9475L23.7796 36.7487C25.0984 37.0934 25.4503 37.5744 25.8392 38.6098L23.6872 38.2392C22.8447 39.2251 22.9016 39.6359 24.1965 40.0486L25.8392 38.6098L25.5271 41.1385C26.4586 42.1438 27.0312 41.9355 27.4244 40.6044L25.8392 38.6098L28.2284 38.9136C28.8616 37.9728 28.5659 37.6286 27.7191 37.1043L25.8392 38.6098C25.7131 37.5002 25.8114 36.9057 26.6256 35.9475Z" fill="black"/>
<path d="M25.8392 38.6098C25.4503 37.5744 25.0984 37.0934 23.7796 36.7487L26.6256 35.9475C25.8114 36.9057 25.7131 37.5002 25.8392 38.6098ZM25.8392 38.6098L23.6872 38.2392C22.8447 39.2251 22.9016 39.6359 24.1965 40.0486L25.8392 38.6098ZM25.8392 38.6098L27.4244 40.6044C27.0312 41.9355 26.4586 42.1438 25.5271 41.1385L25.8392 38.6098ZM25.8392 38.6098L28.2284 38.9136C28.8616 37.9728 28.5659 37.6286 27.7191 37.1043L25.8392 38.6098Z" stroke="black" stroke-width="0.799611"/>
<path d="M24.6757 29.0202L21.8296 29.8214C22.775 28.8393 22.8243 28.2454 22.616 27.1591L20.9733 28.5979C19.7403 28.1962 19.5745 27.8161 20.464 26.7885L22.616 27.1591L21.0306 25.1645C21.301 23.8209 21.8981 23.6999 22.928 24.6305L22.616 27.1591L24.4959 25.6536C25.5269 26.126 25.4542 26.5739 25.0052 27.4629L22.616 27.1591C23.0872 28.1715 23.4812 28.6275 24.6757 29.0202Z" fill="black"/>
<path d="M22.616 27.1591C22.8243 28.2454 22.775 28.8393 21.8296 29.8214L24.6757 29.0202C23.4812 28.6275 23.0872 28.1715 22.616 27.1591ZM22.616 27.1591L20.9733 28.5979C19.7403 28.1962 19.5745 27.8161 20.464 26.7885L22.616 27.1591ZM22.616 27.1591L22.928 24.6305C21.8981 23.6999 21.301 23.8209 21.0306 25.1645L22.616 27.1591ZM22.616 27.1591L24.4959 25.6536C25.5269 26.126 25.4542 26.5739 25.0052 27.4629L22.616 27.1591Z" stroke="black" stroke-width="0.799611"/>
<path d="M37.2189 25.4895L40.0649 24.6884C38.7461 24.3437 38.3942 23.8626 38.0053 22.8272L40.1573 23.1978C40.9998 22.212 40.9429 21.8012 39.648 21.3885L38.0053 22.8272L38.3174 20.2985C37.3859 19.2932 36.8133 19.5015 36.42 20.8326L38.0053 22.8272L35.6161 22.5234C34.9829 23.4643 35.2786 23.8085 36.1254 24.3328L38.0053 22.8272C38.1314 23.9368 38.033 24.5313 37.2189 25.4895Z" fill="black"/>
<path d="M38.0053 22.8272C38.3942 23.8626 38.7461 24.3437 40.0649 24.6884L37.2189 25.4895C38.033 24.5313 38.1314 23.9368 38.0053 22.8272ZM38.0053 22.8272L40.1573 23.1978C40.9998 22.212 40.9429 21.8012 39.648 21.3885L38.0053 22.8272ZM38.0053 22.8272L36.42 20.8326C36.8133 19.5015 37.3859 19.2932 38.3174 20.2985L38.0053 22.8272ZM38.0053 22.8272L35.6161 22.5234C34.9829 23.4643 35.2786 23.8085 36.1254 24.3328L38.0053 22.8272Z" stroke="black" stroke-width="0.799611"/>
<path d="M47.0756 50.9583L50.3282 50.0427C49.2478 51.1651 49.1915 51.8439 49.4295 53.0853L51.3069 51.441C52.7161 51.9 52.9055 52.3345 51.8889 53.5088L49.4295 53.0853L51.2414 55.3648C50.9324 56.9004 50.25 57.0386 49.0729 55.9752L49.4295 53.0853L47.2811 54.8059C46.1028 54.2659 46.1859 53.7541 46.699 52.738L49.4295 53.0853C48.891 51.9282 48.4407 51.4072 47.0756 50.9583Z" fill="black"/>
<path d="M49.4295 53.0853C49.1915 51.8439 49.2478 51.1651 50.3282 50.0427L47.0756 50.9583C48.4407 51.4072 48.891 51.9282 49.4295 53.0853ZM49.4295 53.0853L51.3069 51.441C52.7161 51.9 52.9055 52.3345 51.8889 53.5088L49.4295 53.0853ZM49.4295 53.0853L49.0729 55.9752C50.25 57.0386 50.9324 56.9004 51.2414 55.3648L49.4295 53.0853ZM49.4295 53.0853L47.2811 54.8059C46.1028 54.2659 46.1859 53.7541 46.699 52.738L49.4295 53.0853Z" stroke="black" stroke-width="0.799611"/>
<path d="M7.57352 15.029C7.89641 14.9292 8.2069 14.8328 8.50498 14.74C8.63099 14.7016 8.76113 14.662 8.8954 14.6212C9.03165 14.5769 9.16278 14.5355 9.28878 14.4971C9.41754 14.4578 9.53842 14.4223 9.65142 14.3905C9.7664 14.3552 9.86661 14.3255 9.95205 14.3014C10.0375 14.2774 10.105 14.2584 10.1546 14.2444C10.207 14.2297 10.2339 14.2251 10.2355 14.2306C10.2371 14.2361 10.2421 14.254 10.2506 14.2843C10.2619 14.3139 10.2738 14.3507 10.2862 14.3948C10.3013 14.4381 10.3167 14.4873 10.3322 14.5424C10.3505 14.5968 10.3691 14.6525 10.3882 14.7096C10.4309 14.8404 10.4787 14.989 10.5316 15.1556C10.5028 15.3808 10.4813 15.6427 10.4671 15.9411C10.4557 16.2388 10.4508 16.554 10.4522 16.8867C10.4529 17.2167 10.459 17.5556 10.4707 17.9033C10.4815 18.2482 10.4969 18.583 10.5169 18.9075C10.5396 19.2313 10.5655 19.5348 10.5947 19.8181C10.6239 20.1014 10.655 20.344 10.688 20.5459L9.62632 20.8001C9.5938 20.5683 9.56649 20.3128 9.54437 20.0335C9.52502 19.7534 9.50984 19.4617 9.49884 19.1584C9.49059 18.8544 9.48768 18.5429 9.49011 18.2239C9.49176 17.9022 9.49733 17.5839 9.50683 17.2689C9.5183 16.9503 9.53348 16.6397 9.55236 16.3369C9.574 16.0334 9.59853 15.7454 9.62595 15.473L7.85629 16.0336L7.57352 15.029Z" fill="black"/>
<path d="M58.7509 58.1702C58.4281 58.27 58.1176 58.3664 57.8195 58.4592C57.6935 58.4976 57.5633 58.5372 57.4291 58.578C57.2928 58.6223 57.1617 58.6637 57.0357 58.7021C56.9069 58.7413 56.786 58.7769 56.673 58.8087C56.5581 58.844 56.4579 58.8737 56.3724 58.8977C56.287 58.9218 56.2194 58.9408 56.1698 58.9548C56.1175 58.9695 56.0905 58.9741 56.089 58.9686C56.0874 58.9631 56.0824 58.9452 56.0738 58.9149C56.0625 58.8853 56.0507 58.8485 56.0383 58.8044C56.0231 58.7611 56.0078 58.7119 55.9923 58.6567C55.974 58.6024 55.9553 58.5467 55.9363 58.4896C55.8935 58.3588 55.8457 58.2102 55.7929 58.0436C55.8217 57.8184 55.8432 57.5565 55.8573 57.2581C55.8687 56.9604 55.8737 56.6452 55.8722 56.3124C55.8716 55.9825 55.8654 55.6436 55.8538 55.2959C55.843 54.9509 55.8276 54.6162 55.8076 54.2916C55.7849 53.9679 55.7589 53.6644 55.7297 53.3811C55.7006 53.0978 55.6695 52.8552 55.6364 52.6533L56.6981 52.3991C56.7307 52.6308 56.758 52.8864 56.7801 53.1657C56.7994 53.4458 56.8146 53.7375 56.8256 54.0408C56.8339 54.3448 56.8368 54.6563 56.8344 54.9753C56.8327 55.297 56.8271 55.6153 56.8176 55.9303C56.8062 56.2488 56.791 56.5595 56.7721 56.8622C56.7505 57.1658 56.7259 57.4538 56.6985 57.7262L58.4682 57.1656L58.7509 58.1702Z" fill="black"/>
</g>
<g filter="url(#filter1_d_1504_9290)">
<rect x="31.7314" y="2.95047" width="41.5798" height="62.3697" rx="3.19845" fill="white"/>
<mask id="mask1_1504_9290" style="mask-type:alpha" maskUnits="userSpaceOnUse" x="32" y="4" width="40" height="60">
<path d="M39.2706 4.54969L68.5135 4.54969C70.0592 4.54969 71.3122 5.80269 71.3122 7.34833L71.3121 51.7691C71.3121 52.629 70.6151 53.326 69.7553 53.326C68.6118 53.326 67.6334 54.1469 67.4347 55.2729L66.6546 59.6933C66.5451 60.314 66.8296 60.9379 67.3701 61.2622C67.991 61.6348 67.7377 62.5876 67.0138 62.6026L35.8957 63.2509C34.2917 63.2844 32.9881 61.9654 33.0402 60.3619L34.4531 16.9164C34.4889 15.8172 35.3903 14.9446 36.4901 14.9446C38.0572 14.9446 39.3277 13.6742 39.3277 12.107L39.3277 8.60486C39.3277 7.9397 39.0145 7.31336 38.4824 6.91426C37.4725 6.1568 38.0082 4.54969 39.2706 4.54969Z" fill="#C4C4C4" stroke="black" stroke-width="0.799611"/>
</mask>
<g mask="url(#mask1_1504_9290)">
<rect x="35.7294" y="6.54872" width="34.3833" height="55.1732" rx="2.79864" stroke="black" stroke-width="0.799611"/>
</g>
<path d="M54.825 37.3338H51.0236C52.5357 36.3492 52.8037 35.5516 52.9243 33.9772L50.39 35.3198C49.0039 34.2902 48.9312 33.7033 50.39 32.6346L52.9243 33.9772L51.6571 30.6207C52.4597 28.8777 53.2409 28.9425 54.1913 30.6207L52.9243 33.9772L55.7754 32.6346C56.8867 33.6833 56.6407 34.2711 55.7754 35.3198L52.9243 33.9772C53.1548 35.5518 53.4836 36.3313 54.825 37.3338Z" fill="black"/>
<path d="M52.9243 33.9772C52.8037 35.5516 52.5357 36.3492 51.0236 37.3338H54.825C53.4836 36.3313 53.1548 35.5518 52.9243 33.9772ZM52.9243 33.9772L50.39 35.3198C49.0039 34.2902 48.9312 33.7033 50.39 32.6346L52.9243 33.9772ZM52.9243 33.9772L54.1913 30.6207C53.2409 28.9425 52.4597 28.8777 51.6571 30.6207L52.9243 33.9772ZM52.9243 33.9772L55.7754 32.6346C56.8867 33.6833 56.6407 34.2711 55.7754 35.3198L52.9243 33.9772Z" stroke="black" stroke-width="0.799611"/>
<path d="M43.0191 16.5439H39.6401C40.9842 15.7562 41.2223 15.1181 41.3296 13.8586L39.0769 14.9327C37.8448 14.109 37.7801 13.6395 39.0769 12.7845L41.3296 13.8586L40.2032 11.1734C40.9166 9.77904 41.611 9.83086 42.4558 11.1734L41.3296 13.8586L43.8638 12.7845C44.8517 13.6235 44.6331 14.0937 43.8638 14.9327L41.3296 13.8586C41.5345 15.1183 41.8267 15.7419 43.0191 16.5439Z" fill="black"/>
<path d="M41.3296 13.8586C41.2223 15.1181 40.9842 15.7562 39.6401 16.5439H43.0191C41.8267 15.7419 41.5345 15.1183 41.3296 13.8586ZM41.3296 13.8586L39.0769 14.9327C37.8448 14.109 37.7801 13.6395 39.0769 12.7845L41.3296 13.8586ZM41.3296 13.8586L42.4558 11.1734C41.611 9.83086 40.9166 9.77904 40.2032 11.1734L41.3296 13.8586ZM41.3296 13.8586L43.8638 12.7845C44.8517 13.6235 44.6331 14.0937 43.8638 14.9327L41.3296 13.8586Z" stroke="black" stroke-width="0.799611"/>
<path d="M54.4019 19.7423H51.4452C52.6213 19.0531 52.8297 18.4948 52.9236 17.3927L50.9525 18.3326C49.8744 17.6118 49.8178 17.201 50.9525 16.4529L52.9236 17.3927L51.9379 15.0432C52.5622 13.8231 53.1698 13.8684 53.909 15.0432L52.9236 17.3927L55.1411 16.4529C56.0055 17.187 55.8141 17.5984 55.1411 18.3326L52.9236 17.3927C53.1028 18.495 53.3586 19.0406 54.4019 19.7423Z" fill="black"/>
<path d="M52.9236 17.3927C52.8297 18.4948 52.6213 19.0531 51.4452 19.7423H54.4019C53.3586 19.0406 53.1028 18.495 52.9236 17.3927ZM52.9236 17.3927L50.9525 18.3326C49.8744 17.6118 49.8178 17.201 50.9525 16.4529L52.9236 17.3927ZM52.9236 17.3927L53.909 15.0432C53.1698 13.8684 52.5622 13.8231 51.9379 15.0432L52.9236 17.3927ZM52.9236 17.3927L55.1411 16.4529C56.0055 17.187 55.8141 17.5984 55.1411 18.3326L52.9236 17.3927Z" stroke="black" stroke-width="0.799611"/>
<path d="M46.4058 25.3396H43.4492C44.6252 24.6504 44.8336 24.092 44.9275 22.99L42.9564 23.9298C41.8783 23.2091 41.8217 22.7983 42.9564 22.0502L44.9275 22.99L43.9419 20.6405C44.5661 19.4204 45.1737 19.4657 45.913 20.6405L44.9275 22.99L47.145 22.0502C48.0094 22.7843 47.818 23.1957 47.145 23.9298L44.9275 22.99C45.1067 24.0922 45.3625 24.6379 46.4058 25.3396Z" fill="black"/>
<path d="M44.9275 22.99C44.8336 24.092 44.6252 24.6504 43.4492 25.3396H46.4058C45.3625 24.6379 45.1067 24.0922 44.9275 22.99ZM44.9275 22.99L42.9564 23.9298C41.8783 23.2091 41.8217 22.7983 42.9564 22.0502L44.9275 22.99ZM44.9275 22.99L45.913 20.6405C45.1737 19.4657 44.5661 19.4204 43.9419 20.6405L44.9275 22.99ZM44.9275 22.99L47.145 22.0502C48.0094 22.7843 47.818 23.1957 47.145 23.9298L44.9275 22.99Z" stroke="black" stroke-width="0.799611"/>
<path d="M59.4365 25.3396H62.3931C61.217 24.6504 61.0086 24.092 60.9148 22.99L62.8859 23.9298C63.964 23.2091 64.0206 22.7983 62.8859 22.0502L60.9148 22.99L61.9004 20.6405C61.2762 19.4204 60.6686 19.4657 59.9293 20.6405L60.9148 22.99L58.6973 22.0502C57.8329 22.7843 58.0242 23.1957 58.6973 23.9298L60.9148 22.99C60.7355 24.0922 60.4798 24.6379 59.4365 25.3396Z" fill="black"/>
<path d="M60.9148 22.99C61.0086 24.092 61.217 24.6504 62.3931 25.3396H59.4365C60.4798 24.6379 60.7355 24.0922 60.9148 22.99ZM60.9148 22.99L62.8859 23.9298C63.964 23.2091 64.0206 22.7983 62.8859 22.0502L60.9148 22.99ZM60.9148 22.99L59.9293 20.6405C60.6686 19.4657 61.2762 19.4204 61.9004 20.6405L60.9148 22.99ZM60.9148 22.99L58.6973 22.0502C57.8329 22.7843 58.0242 23.1957 58.6973 23.9298L60.9148 22.99Z" stroke="black" stroke-width="0.799611"/>
<path d="M46.4058 32.5361H43.4492C44.6252 31.8469 44.8336 31.2885 44.9275 30.1865L42.9564 31.1263C41.8783 30.4056 41.8217 29.9948 42.9564 29.2467L44.9275 30.1865L43.9419 27.837C44.5661 26.6169 45.1737 26.6622 45.913 27.837L44.9275 30.1865L47.145 29.2467C48.0094 29.9808 47.818 30.3922 47.145 31.1263L44.9275 30.1865C45.1067 31.2887 45.3625 31.8344 46.4058 32.5361Z" fill="black"/>
<path d="M44.9275 30.1865C44.8336 31.2885 44.6252 31.8469 43.4492 32.5361H46.4058C45.3625 31.8344 45.1067 31.2887 44.9275 30.1865ZM44.9275 30.1865L42.9564 31.1263C41.8783 30.4056 41.8217 29.9948 42.9564 29.2467L44.9275 30.1865ZM44.9275 30.1865L45.913 27.837C45.1737 26.6622 44.5661 26.6169 43.9419 27.837L44.9275 30.1865ZM44.9275 30.1865L47.145 29.2467C48.0094 29.9808 47.818 30.3922 47.145 31.1263L44.9275 30.1865Z" stroke="black" stroke-width="0.799611"/>
<path d="M59.4365 32.5361H62.3931C61.217 31.8469 61.0086 31.2885 60.9148 30.1865L62.8859 31.1263C63.964 30.4056 64.0206 29.9948 62.8859 29.2467L60.9148 30.1865L61.9004 27.837C61.2762 26.6169 60.6686 26.6622 59.9293 27.837L60.9148 30.1865L58.6973 29.2467C57.8329 29.9808 58.0242 30.3922 58.6973 31.1263L60.9148 30.1865C60.7355 31.2887 60.4798 31.8344 59.4365 32.5361Z" fill="black"/>
<path d="M60.9148 30.1865C61.0086 31.2885 61.217 31.8469 62.3931 32.5361H59.4365C60.4798 31.8344 60.7355 31.2887 60.9148 30.1865ZM60.9148 30.1865L62.8859 31.1263C63.964 30.4056 64.0206 29.9948 62.8859 29.2467L60.9148 30.1865ZM60.9148 30.1865L59.9293 27.837C60.6686 26.6622 61.2762 26.6169 61.9004 27.837L60.9148 30.1865ZM60.9148 30.1865L58.6973 29.2467C57.8329 29.9808 58.0242 30.3922 58.6973 31.1263L60.9148 30.1865Z" stroke="black" stroke-width="0.799611"/>
<path d="M54.4019 48.5283H51.4453C52.6213 49.2175 52.8297 49.7759 52.9236 50.8779L50.9525 49.9381C49.8744 50.6588 49.8178 51.0696 50.9525 51.8177L52.9236 50.8779L51.938 53.2274C52.5622 54.4475 53.1698 54.4022 53.909 53.2274L52.9236 50.8779L55.1411 51.8177C56.0055 51.0836 55.8141 50.6722 55.1411 49.9381L52.9236 50.8779C53.1028 49.7757 53.3586 49.23 54.4019 48.5283Z" fill="black"/>
<path d="M52.9236 50.8779C52.8297 49.7759 52.6213 49.2175 51.4453 48.5283H54.4019C53.3586 49.23 53.1028 49.7757 52.9236 50.8779ZM52.9236 50.8779L50.9525 49.9381C49.8744 50.6588 49.8178 51.0696 50.9525 51.8177L52.9236 50.8779ZM52.9236 50.8779L53.909 53.2274C53.1698 54.4022 52.5622 54.4475 51.938 53.2274L52.9236 50.8779ZM52.9236 50.8779L55.1411 51.8177C56.0055 51.0836 55.8141 50.6722 55.1411 49.9381L52.9236 50.8779Z" stroke="black" stroke-width="0.799611"/>
<path d="M46.4058 42.931H43.4492C44.6253 43.6202 44.8337 44.1786 44.9275 45.2806L42.9564 44.3408C41.8783 45.0615 41.8217 45.4724 42.9564 46.2204L44.9275 45.2806L43.9419 47.6301C44.5661 48.8503 45.1737 48.8049 45.913 47.6301L44.9275 45.2806L47.145 46.2204C48.0094 45.4863 47.8181 45.0749 47.145 44.3408L44.9275 45.2806C45.1068 44.1784 45.3625 43.6327 46.4058 42.931Z" fill="black"/>
<path d="M44.9275 45.2806C44.8337 44.1786 44.6253 43.6202 43.4492 42.931H46.4058C45.3625 43.6327 45.1068 44.1784 44.9275 45.2806ZM44.9275 45.2806L42.9564 44.3408C41.8783 45.0615 41.8217 45.4724 42.9564 46.2204L44.9275 45.2806ZM44.9275 45.2806L45.913 47.6301C45.1737 48.8049 44.5661 48.8503 43.9419 47.6301L44.9275 45.2806ZM44.9275 45.2806L47.145 46.2204C48.0094 45.4863 47.8181 45.0749 47.145 44.3408L44.9275 45.2806Z" stroke="black" stroke-width="0.799611"/>
<path d="M59.4365 42.931H62.3931C61.217 43.6202 61.0086 44.1786 60.9148 45.2806L62.8859 44.3408C63.964 45.0615 64.0206 45.4724 62.8859 46.2204L60.9148 45.2806L61.9004 47.6301C61.2762 48.8503 60.6686 48.8049 59.9293 47.6301L60.9148 45.2806L58.6973 46.2204C57.8329 45.4863 58.0242 45.0749 58.6973 44.3408L60.9148 45.2806C60.7355 44.1784 60.4798 43.6327 59.4365 42.931Z" fill="black"/>
<path d="M60.9148 45.2806C61.0086 44.1786 61.217 43.6202 62.3931 42.931H59.4365C60.4798 43.6327 60.7355 44.1784 60.9148 45.2806ZM60.9148 45.2806L62.8859 44.3408C63.964 45.0615 64.0206 45.4724 62.8859 46.2204L60.9148 45.2806ZM60.9148 45.2806L59.9293 47.6301C60.6686 48.8049 61.2762 48.8503 61.9004 47.6301L60.9148 45.2806ZM60.9148 45.2806L58.6973 46.2204C57.8329 45.4863 58.0242 45.0749 58.6973 44.3408L60.9148 45.2806Z" stroke="black" stroke-width="0.799611"/>
<path d="M46.4058 35.7345H43.4492C44.6253 36.4237 44.8337 36.9821 44.9275 38.0841L42.9564 37.1443C41.8783 37.865 41.8217 38.2759 42.9564 39.024L44.9275 38.0841L43.9419 40.4337C44.5661 41.6538 45.1737 41.6084 45.913 40.4337L44.9275 38.0841L47.145 39.024C48.0094 38.2898 47.8181 37.8784 47.145 37.1443L44.9275 38.0841C45.1068 36.9819 45.3625 36.4363 46.4058 35.7345Z" fill="black"/>
<path d="M44.9275 38.0841C44.8337 36.9821 44.6253 36.4237 43.4492 35.7345H46.4058C45.3625 36.4363 45.1068 36.9819 44.9275 38.0841ZM44.9275 38.0841L42.9564 37.1443C41.8783 37.865 41.8217 38.2759 42.9564 39.024L44.9275 38.0841ZM44.9275 38.0841L45.913 40.4337C45.1737 41.6084 44.5661 41.6538 43.9419 40.4337L44.9275 38.0841ZM44.9275 38.0841L47.145 39.024C48.0094 38.2898 47.8181 37.8784 47.145 37.1443L44.9275 38.0841Z" stroke="black" stroke-width="0.799611"/>
<path d="M59.4365 35.7345H62.3931C61.217 36.4237 61.0086 36.9821 60.9148 38.0841L62.8859 37.1443C63.964 37.865 64.0206 38.2759 62.8859 39.024L60.9148 38.0841L61.9004 40.4337C61.2762 41.6538 60.6686 41.6084 59.9293 40.4337L60.9148 38.0841L58.6973 39.024C57.8329 38.2898 58.0242 37.8784 58.6973 37.1443L60.9148 38.0841C60.7355 36.9819 60.4798 36.4363 59.4365 35.7345Z" fill="black"/>
<path d="M60.9148 38.0841C61.0086 36.9821 61.217 36.4237 62.3931 35.7345H59.4365C60.4798 36.4363 60.7355 36.9819 60.9148 38.0841ZM60.9148 38.0841L62.8859 37.1443C63.964 37.865 64.0206 38.2759 62.8859 39.024L60.9148 38.0841ZM60.9148 38.0841L59.9293 40.4337C60.6686 41.6084 61.2762 41.6538 61.9004 40.4337L60.9148 38.0841ZM60.9148 38.0841L58.6973 39.024C57.8329 38.2898 58.0242 37.8784 58.6973 37.1443L60.9148 38.0841Z" stroke="black" stroke-width="0.799611"/>
<path d="M62.0236 51.7268L65.4027 51.7268C64.0586 52.5144 63.8204 53.1525 63.7131 54.412L65.9658 53.3379C67.1979 54.1616 67.2626 54.6311 65.9658 55.4861L63.7131 54.412L64.8396 57.0972C64.1261 58.4916 63.4317 58.4398 62.5869 57.0972L63.7131 54.412L61.1789 55.4861C60.191 54.6471 60.4096 54.1769 61.1789 53.3379L63.7131 54.412C63.5083 53.1523 63.216 52.5287 62.0236 51.7268Z" fill="black"/>
<path d="M63.7131 54.412C63.8204 53.1525 64.0586 52.5144 65.4027 51.7268L62.0236 51.7268C63.216 52.5287 63.5083 53.1523 63.7131 54.412ZM63.7131 54.412L65.9658 53.3379C67.1979 54.1616 67.2626 54.6311 65.9658 55.4861L63.7131 54.412ZM63.7131 54.412L62.5869 57.0972C63.4317 58.4398 64.1261 58.4916 64.8396 57.0972L63.7131 54.412ZM63.7131 54.412L61.1789 55.4861C60.191 54.6471 60.4096 54.1769 61.1789 53.3379L63.7131 54.412Z" stroke="black" stroke-width="0.799611"/>
<path d="M33.9645 12.5068L32.8307 12.6184C32.8364 12.4266 32.8407 12.229 32.8435 12.0257C32.8493 11.8196 32.8536 11.6163 32.8564 11.4159C32.8593 11.2126 32.8621 11.015 32.865 10.8232C32.8679 10.6285 32.8693 10.4453 32.8693 10.2735C32.8722 9.86689 32.8736 9.47034 32.8736 9.0838L32.8564 7.90703L32.5214 8.49542L31.7741 7.85979C31.8085 7.81112 31.85 7.75385 31.8987 7.688C31.9474 7.62215 31.9989 7.552 32.0533 7.47755C32.1077 7.40311 32.1635 7.32724 32.2208 7.24993C32.2781 7.16976 32.3339 7.09246 32.3883 7.01801C32.5143 6.84336 32.646 6.66154 32.7834 6.47257L33.8657 6.42104C33.86 6.59855 33.8542 6.78037 33.8485 6.96647C33.8457 7.14972 33.8428 7.33153 33.8399 7.51191C33.8371 7.68943 33.8342 7.86122 33.8313 8.02729C33.8313 8.19335 33.8313 8.34653 33.8313 8.48683C33.8313 8.59849 33.8313 8.70014 33.8313 8.79176C33.8313 8.88338 33.8328 8.96212 33.8356 9.02797C33.8356 9.10528 33.8371 9.174 33.8399 9.23412C33.8399 9.56625 33.8457 9.91556 33.8571 10.2821C33.86 10.4367 33.8643 10.6042 33.87 10.7845C33.8786 10.9621 33.8872 11.1467 33.8958 11.3386C33.9044 11.5275 33.9144 11.7208 33.9258 11.9184C33.9373 12.1159 33.9502 12.3121 33.9645 12.5068ZM38.3967 9.47034C38.3967 9.92845 38.358 10.3536 38.2807 10.7459C38.2034 11.1381 38.086 11.4789 37.9286 11.768C37.7711 12.0544 37.5721 12.2806 37.3316 12.4466C37.0911 12.6098 36.8076 12.6914 36.4812 12.6914C36.1491 12.6914 35.8613 12.6098 35.618 12.4466C35.3775 12.2806 35.1785 12.0544 35.021 11.768C34.8664 11.4789 34.7504 11.1381 34.6731 10.7459C34.5987 10.3536 34.5615 9.92845 34.5615 9.47034C34.5615 9.01509 34.5972 8.59277 34.6688 8.20337C34.7433 7.81112 34.8578 7.47183 35.0124 7.18551C35.167 6.89633 35.3646 6.67013 35.6051 6.50693C35.8485 6.34373 36.1405 6.26213 36.4812 6.26213C36.8305 6.26213 37.1269 6.34373 37.3702 6.50693C37.6136 6.67013 37.8112 6.89633 37.9629 7.18551C38.1147 7.47183 38.2249 7.81112 38.2936 8.20337C38.3623 8.59277 38.3967 9.01509 38.3967 9.47034ZM37.2715 9.47034C37.2715 9.02081 37.2514 8.63858 37.2113 8.32363C37.1741 8.00581 37.1211 7.74813 37.0524 7.55057C36.9837 7.35301 36.9007 7.20985 36.8033 7.12109C36.706 7.02946 36.5986 6.98365 36.4812 6.98365C36.3724 6.98365 36.2708 7.03805 36.1763 7.14686C36.0818 7.25279 35.9973 7.41027 35.9229 7.61928C35.8513 7.8283 35.7941 8.08885 35.7511 8.40093C35.711 8.71016 35.691 9.06663 35.691 9.47034C35.691 9.91127 35.7096 10.2892 35.7468 10.6042C35.784 10.9191 35.837 11.1782 35.9057 11.3815C35.9744 11.5819 36.0575 11.7308 36.1548 11.8282C36.2522 11.9227 36.361 11.9699 36.4812 11.9699C36.5929 11.9699 36.696 11.9255 36.7904 11.8368C36.8878 11.748 36.9723 11.6048 37.0438 11.4073C37.1154 11.2097 37.1713 10.952 37.2113 10.6342C37.2514 10.3164 37.2715 9.92845 37.2715 9.47034Z" fill="black"/>
<path d="M71.0782 55.7639L72.2121 55.6522C72.2063 55.844 72.2021 56.0416 72.1992 56.2449C72.1935 56.451 72.1892 56.6543 72.1863 56.8548C72.1834 57.058 72.1806 57.2556 72.1777 57.4474C72.1748 57.6421 72.1734 57.8254 72.1734 57.9972C72.1706 58.4037 72.1691 58.8003 72.1691 59.1868L72.1863 60.3636L72.5213 59.7752L73.2686 60.4108C73.2342 60.4595 73.1927 60.5168 73.144 60.5826C73.0954 60.6485 73.0438 60.7186 72.9894 60.7931C72.935 60.8675 72.8792 60.9434 72.8219 61.0207C72.7647 61.1009 72.7088 61.1782 72.6544 61.2526C72.5284 61.4273 72.3967 61.6091 72.2593 61.7981L71.177 61.8496C71.1827 61.6721 71.1885 61.4903 71.1942 61.3042C71.1971 61.1209 71.1999 60.9391 71.2028 60.7587C71.2057 60.5812 71.2085 60.4094 71.2114 60.2433C71.2114 60.0773 71.2114 59.9241 71.2114 59.7838C71.2114 59.6721 71.2114 59.5705 71.2114 59.4789C71.2114 59.3872 71.21 59.3085 71.2071 59.2427C71.2071 59.1654 71.2057 59.0966 71.2028 59.0365C71.2028 58.7044 71.1971 58.3551 71.1856 57.9886C71.1828 57.834 71.1785 57.6665 71.1727 57.4861C71.1641 57.3086 71.1556 57.1239 71.147 56.9321C71.1384 56.7431 71.1284 56.5498 71.1169 56.3523C71.1054 56.1547 71.0926 55.9586 71.0782 55.7639ZM66.646 58.8003C66.646 58.3422 66.6847 57.917 66.762 57.5247C66.8393 57.1325 66.9567 56.7918 67.1142 56.5026C67.2716 56.2163 67.4706 55.9901 67.7111 55.824C67.9516 55.6608 68.2351 55.5792 68.5615 55.5792C68.8936 55.5792 69.1814 55.6608 69.4248 55.824C69.6653 55.9901 69.8643 56.2163 70.0217 56.5026C70.1763 56.7918 70.2923 57.1325 70.3696 57.5247C70.444 57.917 70.4813 58.3422 70.4813 58.8003C70.4813 59.2555 70.4455 59.6779 70.3739 60.0673C70.2995 60.4595 70.1849 60.7988 70.0303 61.0851C69.8757 61.3743 69.6781 61.6005 69.4376 61.7637C69.1943 61.9269 68.9022 62.0085 68.5615 62.0085C68.2122 62.0085 67.9158 61.9269 67.6725 61.7637C67.4291 61.6005 67.2315 61.3743 67.0798 61.0851C66.928 60.7988 66.8178 60.4595 66.7491 60.0673C66.6804 59.6779 66.646 59.2555 66.646 58.8003ZM67.7713 58.8003C67.7713 59.2498 67.7913 59.6321 67.8314 59.947C67.8686 60.2648 67.9216 60.5225 67.9903 60.7201C68.059 60.9176 68.142 61.0608 68.2394 61.1495C68.3367 61.2412 68.4441 61.287 68.5615 61.287C68.6703 61.287 68.7719 61.2326 68.8664 61.1238C68.9609 61.0178 69.0454 60.8604 69.1198 60.6513C69.1914 60.4423 69.2487 60.1818 69.2916 59.8697C69.3317 59.5605 69.3517 59.204 69.3517 58.8003C69.3517 58.3594 69.3331 57.9814 69.2959 57.6665C69.2587 57.3515 69.2057 57.0924 69.137 56.8891C69.0683 56.6887 68.9853 56.5398 68.8879 56.4425C68.7906 56.348 68.6818 56.3007 68.5615 56.3007C68.4498 56.3007 68.3468 56.3451 68.2523 56.4339C68.1549 56.5226 68.0705 56.6658 67.9989 56.8633C67.9273 57.0609 67.8715 57.3186 67.8314 57.6364C67.7913 57.9542 67.7713 58.3422 67.7713 58.8003Z" fill="black"/>
</g>
<g filter="url(#filter2_d_1504_9290)">
<rect x="61.7815" y="2.54431" width="41.5798" height="62.3697" rx="3.19845" transform="rotate(13.7287 61.7815 2.54431)" fill="white"/>
<mask id="mask2_1504_9290" style="mask-type:alpha" maskUnits="userSpaceOnUse" x="48" y="5" width="52" height="65">
<path d="M68.7258 5.88708L97.1333 12.8272C98.6348 13.194 99.5546 14.7085 99.1878 16.21L89.1183 57.4268C88.9676 58.0437 88.3453 58.4216 87.7284 58.2709C86.8376 58.0533 85.9154 58.486 85.5135 59.3103L82.2867 65.9281C82.0023 66.5113 82.1214 67.2109 82.5827 67.6673C83.0918 68.171 82.6248 69.027 81.9257 68.8716L51.5216 62.1115C49.9538 61.7629 49.0003 60.1692 49.4346 58.6229L60.5383 19.0852C60.8356 18.0266 61.9184 17.394 62.9865 17.655C64.51 18.0272 66.0467 17.0939 66.4189 15.5704L67.8189 9.83995C67.9768 9.19379 67.8212 8.51102 67.399 7.99704C66.5977 7.02153 67.4995 5.58748 68.7258 5.88708Z" fill="#C4C4C4" stroke="black" stroke-width="0.799611"/>
</mask>
<g mask="url(#mask2_1504_9290)">
<rect x="64.8113" y="6.98861" width="34.3833" height="55.1732" rx="2.79864" transform="rotate(13.7287 64.8113 6.98861)" stroke="black" stroke-width="0.799611"/>
</g>
<path d="M76.94 44.9346L69.9647 43.2305C73.1599 42.1868 73.9923 40.9122 74.8862 38.2134L69.6624 39.425C67.5589 37.0033 67.6761 35.9444 70.8095 34.7296L74.8862 38.2134L73.9947 31.7763C76.2121 29.0883 77.6178 29.5517 78.6449 32.9123L74.8862 38.2134L80.6912 37.1438C82.2825 39.4758 81.58 40.3933 79.5441 41.8391L74.8862 38.2134C74.6365 41.07 74.9068 42.5804 76.94 44.9346Z" fill="black"/>
<path d="M74.8862 38.2134C73.9923 40.9122 73.1599 42.1868 69.9647 43.2305L76.94 44.9346C74.9068 42.5804 74.6365 41.07 74.8862 38.2134ZM74.8862 38.2134L69.6624 39.425C67.5589 37.0033 67.6761 35.9444 70.8095 34.7296L74.8862 38.2134ZM74.8862 38.2134L78.6449 32.9123C77.6178 29.5517 76.2121 29.0883 73.9947 31.7763L74.8862 38.2134ZM74.8862 38.2134L80.6912 37.1438C82.2825 39.4758 81.58 40.3933 79.5441 41.8391L74.8862 38.2134Z" stroke="black" stroke-width="0.799611"/>
<path d="M69.7103 17.6514L66.4279 16.8495C67.9205 16.4033 68.3033 15.8399 68.7064 14.6419L66.2631 15.1507C65.2617 14.0581 65.3103 13.5867 66.773 13.0639L68.7064 14.6419L68.2494 11.7661C69.2734 10.5809 69.9356 10.796 70.4377 12.3007L68.7064 14.6419L71.4232 14.1999C72.1837 15.2494 71.8597 15.6543 70.9133 16.2868L68.7064 14.6419C68.6064 15.9142 68.7424 16.5894 69.7103 17.6514Z" fill="black"/>
<path d="M68.7064 14.6419C68.3033 15.8399 67.9205 16.4033 66.4279 16.8495L69.7103 17.6514C68.7424 16.5894 68.6064 15.9142 68.7064 14.6419ZM68.7064 14.6419L66.2631 15.1507C65.2617 14.0581 65.3103 13.5867 66.773 13.0639L68.7064 14.6419ZM68.7064 14.6419L70.4377 12.3007C69.9356 10.796 69.2734 10.5809 68.2494 11.7661L68.7064 14.6419ZM68.7064 14.6419L71.4232 14.1999C72.1837 15.2494 71.8597 15.6543 70.9133 16.2868L68.7064 14.6419Z" stroke="black" stroke-width="0.799611"/>
<path d="M79.4427 57.8929L82.7252 58.6948C81.2326 59.141 80.8498 59.7044 80.4467 60.9024L82.8899 60.3936C83.8914 61.4862 83.8427 61.9577 82.3801 62.4804L80.4467 60.9024L80.9037 63.7782C79.8797 64.9635 79.2174 64.7483 78.7154 63.2436L80.4467 60.9024L77.7299 61.3444C76.9694 60.2949 77.2934 59.89 78.2397 59.2576L80.4467 60.9024C80.5466 59.6301 80.4107 58.9549 79.4427 57.8929Z" fill="black"/>
<path d="M80.4467 60.9024C80.8498 59.7044 81.2326 59.141 82.7252 58.6948L79.4427 57.8929C80.4107 58.9549 80.5466 59.6301 80.4467 60.9024ZM80.4467 60.9024L82.8899 60.3936C83.8914 61.4862 83.8427 61.9577 82.3801 62.4804L80.4467 60.9024ZM80.4467 60.9024L78.7154 63.2436C79.2174 64.7483 79.8797 64.9635 80.9037 63.7782L80.4467 60.9024ZM80.4467 60.9024L77.7299 61.3444C76.9694 60.2949 77.2934 59.89 78.2397 59.2576L80.4467 60.9024Z" stroke="black" stroke-width="0.799611"/>
<path d="M60.7033 12.7764C60.7651 12.5233 60.8204 12.2686 60.8691 12.0122C60.921 11.7567 60.9714 11.5008 61.0201 11.2445C61.0696 10.9849 61.119 10.7253 61.1685 10.4657C61.2221 10.2036 61.2814 9.93942 61.3465 9.67316C61.4147 9.39376 61.492 9.11307 61.5783 8.83111C61.6687 8.54667 61.7727 8.27774 61.8904 8.02433C62.0088 7.76764 62.1426 7.53384 62.2916 7.32295C62.4415 7.10876 62.6116 6.93263 62.8021 6.79455C62.9926 6.65647 63.2071 6.56258 63.4457 6.51288C63.6842 6.46318 63.9481 6.47366 64.2374 6.54433C64.5135 6.61179 64.7426 6.71478 64.9248 6.85333C65.1077 6.98858 65.2513 7.14907 65.3558 7.33481C65.4634 7.52135 65.5368 7.72737 65.5757 7.95285C65.618 8.17913 65.6349 8.41663 65.6263 8.66535C65.6211 8.91487 65.597 9.17024 65.5541 9.43145C65.5112 9.69266 65.4588 9.94982 65.397 10.2029C65.3809 10.2687 65.3652 10.3258 65.3499 10.3743C65.3379 10.4236 65.323 10.4774 65.3052 10.5358C65.2916 10.5917 65.2718 10.6583 65.246 10.7355C65.2234 10.8136 65.1932 10.916 65.1553 11.0426C65.1182 11.1659 65.0722 11.3184 65.0174 11.5C64.9659 11.6825 64.9022 11.9073 64.8265 12.1744C64.7508 12.4416 64.6614 12.7576 64.5583 13.1225C64.456 13.4842 64.3385 13.9083 64.2057 14.3949L62.7447 13.9805C62.8921 13.6194 63.033 13.2567 63.1672 12.8924C63.3056 12.5256 63.4293 12.1832 63.5384 11.865C63.2901 11.7834 63.0575 11.7161 62.8406 11.6631C62.7288 11.6358 62.6232 11.6118 62.5238 11.591C62.4244 11.5702 62.3361 11.5538 62.2589 11.5419C62.227 11.7153 62.1943 11.8989 62.1609 12.0927C62.1274 12.2866 62.0953 12.4825 62.0643 12.6804C62.0334 12.8784 62.0045 13.0751 61.9776 13.2706C61.9516 13.4628 61.9308 13.6475 61.9153 13.8249L60.5103 13.5234C60.5466 13.4034 60.58 13.281 60.6105 13.156C60.6419 13.0278 60.6728 12.9013 60.7033 12.7764ZM62.4539 10.4871C62.5509 10.5178 62.647 10.5447 62.7424 10.568C62.8377 10.5913 62.9314 10.6142 63.0234 10.6367C63.3751 10.7226 63.6602 10.7818 63.8787 10.8143C63.9554 10.5857 64.0326 10.3555 64.1101 10.1237C64.191 9.89261 64.2643 9.64232 64.3301 9.37277C64.4691 8.80411 64.5155 8.3574 64.4695 8.03265C64.4275 7.70542 64.2931 7.51409 64.0663 7.45868C63.9414 7.42817 63.8155 7.44444 63.6886 7.50749C63.5617 7.57054 63.436 7.68612 63.3113 7.85421C63.1907 8.01982 63.0729 8.23834 62.9578 8.50979C62.846 8.78204 62.7432 9.11046 62.6492 9.49505C62.6163 9.62982 62.5842 9.77526 62.5531 9.93136C62.526 10.085 62.4929 10.2702 62.4539 10.4871Z" fill="black"/>
<path d="M88.4495 62.7679C88.3877 63.021 88.3324 63.2758 88.2838 63.5321C88.2318 63.7876 88.1815 64.0435 88.1328 64.2998C88.0833 64.5594 88.0338 64.819 87.9843 65.0786C87.9307 65.3407 87.8714 65.6049 87.8064 65.8712C87.7381 66.1506 87.6608 66.4313 87.5745 66.7132C87.4841 66.9977 87.3801 67.2666 87.2625 67.52C87.144 67.7767 87.0103 68.0105 86.8612 68.2214C86.7114 68.4356 86.5412 68.6117 86.3507 68.7498C86.1602 68.8879 85.9457 68.9817 85.7072 69.0314C85.4686 69.0811 85.2047 69.0707 84.9154 69C84.6393 68.9325 84.4102 68.8295 84.2281 68.691C84.0451 68.5557 83.9015 68.3953 83.7971 68.2095C83.6894 68.023 83.6161 67.817 83.5771 67.5915C83.5348 67.3652 83.518 67.1277 83.5265 66.879C83.5317 66.6295 83.5558 66.3741 83.5987 66.1129C83.6416 65.8517 83.694 65.5945 83.7558 65.3414C83.7719 65.2757 83.7876 65.2185 83.8029 65.17C83.815 65.1207 83.8299 65.0669 83.8476 65.0085C83.8613 64.9526 83.881 64.8861 83.9069 64.8088C83.9294 64.7307 83.9596 64.6284 83.9975 64.5018C84.0346 64.3785 84.0806 64.226 84.1354 64.0443C84.187 63.8618 84.2506 63.637 84.3263 63.3699C84.402 63.1028 84.4914 62.7867 84.5945 62.4218C84.6968 62.0601 84.8143 61.636 84.9471 61.1495L86.4082 61.5639C86.2607 61.9249 86.1199 62.2876 85.9856 62.6519C85.8472 63.0187 85.7235 63.3612 85.6144 63.6794C85.8627 63.7609 86.0953 63.8282 86.3123 63.8812C86.424 63.9085 86.5296 63.9326 86.629 63.9534C86.7284 63.9742 86.8168 63.9905 86.894 64.0024C86.9259 63.8291 86.9585 63.6455 86.992 63.4516C87.0254 63.2577 87.0576 63.0618 87.0885 62.8639C87.1195 62.6659 87.1484 62.4692 87.1752 62.2737C87.2013 62.0816 87.222 61.8968 87.2375 61.7194L88.6425 62.0209C88.6062 62.1409 88.5728 62.2634 88.5423 62.3883C88.511 62.5165 88.4801 62.643 88.4495 62.7679ZM86.699 65.0572C86.602 65.0266 86.5058 64.9996 86.4105 64.9763C86.3151 64.953 86.2215 64.9301 86.1294 64.9076C85.7777 64.8217 85.4926 64.7625 85.2741 64.73C85.1974 64.9586 85.1202 65.1888 85.0427 65.4207C84.9619 65.6517 84.8885 65.902 84.8227 66.1716C84.6838 66.7402 84.6373 67.1869 84.6834 67.5117C84.7254 67.8389 84.8597 68.0302 85.0866 68.0856C85.2115 68.1162 85.3374 68.0999 85.4642 68.0368C85.5911 67.9738 85.7169 67.8582 85.8415 67.6901C85.9621 67.5245 86.0799 67.306 86.195 67.0345C86.3068 66.7623 86.4097 66.4339 86.5036 66.0493C86.5366 65.9145 86.5686 65.7691 86.5998 65.613C86.6269 65.4594 86.6599 65.2741 86.699 65.0572Z" fill="black"/>
</g>
<defs>
<filter id="filter0_d_1504_9290" x="-0.385773" y="0.948181" width="67.096" height="81.4752" filterUnits="userSpaceOnUse" color-interpolation-filters="sRGB">
<feFlood flood-opacity="0" result="BackgroundImageFix"/>
<feColorMatrix in="SourceAlpha" type="matrix" values="0 0 0 0 0 0 0 0 0 0 0 0 0 0 0 0 0 0 127 0" result="hardAlpha"/>
<feOffset dy="5.08621"/>
<feGaussianBlur stdDeviation="2.54311"/>
<feColorMatrix type="matrix" values="0 0 0 0 0 0 0 0 0 0 0 0 0 0 0 0 0 0 0.25 0"/>
<feBlend mode="normal" in2="BackgroundImageFix" result="effect1_dropShadow_1504_9290"/>
<feBlend mode="normal" in="SourceGraphic" in2="effect1_dropShadow_1504_9290" result="shape"/>
</filter>
<filter id="filter1_d_1504_9290" x="26.6452" y="2.95047" width="51.7523" height="72.5421" filterUnits="userSpaceOnUse" color-interpolation-filters="sRGB">
<feFlood flood-opacity="0" result="BackgroundImageFix"/>
<feColorMatrix in="SourceAlpha" type="matrix" values="0 0 0 0 0 0 0 0 0 0 0 0 0 0 0 0 0 0 127 0" result="hardAlpha"/>
<feOffset dy="5.08621"/>
<feGaussianBlur stdDeviation="2.54311"/>
<feColorMatrix type="matrix" values="0 0 0 0 0 0 0 0 0 0 0 0 0 0 0 0 0 0 0.25 0"/>
<feBlend mode="normal" in2="BackgroundImageFix" result="effect1_dropShadow_1504_9290"/>
<feBlend mode="normal" in="SourceGraphic" in2="effect1_dropShadow_1504_9290" result="shape"/>
</filter>
<filter id="filter2_d_1504_9290" x="41.8933" y="2.54431" width="65.3663" height="80.6281" filterUnits="userSpaceOnUse" color-interpolation-filters="sRGB">
<feFlood flood-opacity="0" result="BackgroundImageFix"/>
<feColorMatrix in="SourceAlpha" type="matrix" values="0 0 0 0 0 0 0 0 0 0 0 0 0 0 0 0 0 0 127 0" result="hardAlpha"/>
<feOffset dy="5.08621"/>
<feGaussianBlur stdDeviation="2.54311"/>
<feColorMatrix type="matrix" values="0 0 0 0 0 0 0 0 0 0 0 0 0 0 0 0 0 0 0.25 0"/>
<feBlend mode="normal" in2="BackgroundImageFix" result="effect1_dropShadow_1504_9290"/>
<feBlend mode="normal" in="SourceGraphic" in2="effect1_dropShadow_1504_9290" result="shape"/>
</filter>
</defs>
</svg>
