<svg width="61" height="91" fill="none" xmlns="http://www.w3.org/2000/svg"><rect x=".39" y=".05" width="60.06" height="90.09" rx="4.62" fill="#fff"/><mask id="a" style="mask-type:alpha" maskUnits="userSpaceOnUse" x="1" y="1" width="58" height="87"><path d="M11.28 2.36h42.24a4.04 4.04 0 0 1 4.04 4.04V67.7c0 .91-.74 1.66-1.66 1.66-1.32 0-2.47.92-2.75 2.21l-2.26 10.4c-.2.91.2 1.85 1.01 2.33.89.54.53 1.9-.5 1.92l-44.98.94a4.04 4.04 0 0 1-4.13-4.18l2.03-59.29a2.95 2.95 0 0 1 2.94-2.84 4.1 4.1 0 0 0 4.1-4.1V8.22c0-.96-.45-1.87-1.22-2.44a1.9 1.9 0 0 1 1.14-3.42Z" fill="#C4C4C4" stroke="#000" stroke-width="1.15"/></mask><g mask="url(#a)"><rect x="6.17" y="5.25" width="49.66" height="79.69" rx="4.04" stroke="#000" stroke-width="1.15"/></g><path d="M6.17 45.1h49.66" stroke="#000" stroke-width="1.15"/><path d="M16.7 18.53h-4.88c1.94-1.14 2.28-2.06 2.44-3.88L11 16.2c-1.78-1.19-1.87-1.87 0-3.1l3.26 1.55-1.63-3.88c1.03-2.01 2.03-1.94 3.25 0l-1.62 3.88 3.66-1.55c1.42 1.21 1.1 1.89 0 3.1l-3.66-1.55c.3 1.82.71 2.72 2.44 3.88Z" fill="#000"/><path d="M14.26 14.65c-.16 1.82-.5 2.74-2.44 3.88h4.88c-1.73-1.16-2.15-2.06-2.44-3.88Zm0 0L11 16.2c-1.78-1.19-1.87-1.87 0-3.1l3.26 1.55Zm0 0 1.62-3.88c-1.22-1.94-2.22-2.01-3.25 0l1.63 3.88Zm0 0 3.66-1.55c1.42 1.21 1.1 1.89 0 3.1l-3.66-1.55Z" stroke="#000" stroke-width="1.15"/><path d="M44.15 71.66h4.88c-1.94 1.13-2.29 2.06-2.44 3.87l3.25-1.55c1.78 1.2 1.87 1.87 0 3.1l-3.25-1.55 1.62 3.88c-1.03 2.02-2.03 1.94-3.25 0l1.63-3.88-3.66 1.56c-1.43-1.22-1.12-1.9 0-3.1l3.66 1.54c-.3-1.81-.72-2.72-2.44-3.87Z" fill="#000"/><path d="M46.59 75.53c.15-1.81.5-2.74 2.44-3.87h-4.88c1.72 1.15 2.14 2.06 2.44 3.87Zm0 0 3.25-1.55c1.78 1.2 1.87 1.87 0 3.1l-3.25-1.55Zm0 0-1.63 3.88c1.22 1.94 2.22 2.02 3.25 0l-1.62-3.88Zm0 0-3.66 1.56c-1.43-1.22-1.12-1.9 0-3.1l3.66 1.54Z" stroke="#000" stroke-width="1.15"/><path d="M7.77 6.83a115.33 115.33 0 0 0-.17 3.3 30.05 30.05 0 0 0 .05 2.01 36.11 36.11 0 0 1 .04 1.93c0 .49-.05.96-.15 1.41-.1.46-.26.86-.5 1.21-.23.35-.55.63-.94.84-.4.2-.9.31-1.5.31-.34 0-.66-.04-.93-.12a2.26 2.26 0 0 1-1.22-.84 3.04 3.04 0 0 1-.58-1.9c0-.27.05-.5.13-.68a1.25 1.25 0 0 1 1.1-.73c.11 0 .24.03.38.07.15.04.28.11.42.22a1.17 1.17 0 0 1 .47.98c-.01.18-.05.35-.12.5a1.4 1.4 0 0 1-.28.4c-.12.13-.3.22-.54.27.1.14.19.26.3.35a1.47 1.47 0 0 0 .92.3c.26 0 .47-.06.62-.16.16-.1.28-.25.36-.44.09-.19.14-.4.17-.66.02-.25.04-.53.04-.82a262.18 262.18 0 0 0-.03-3.91 61.97 61.97 0 0 0-.23-3.8 3.42 3.42 0 0 0 .82.04 14.38 14.38 0 0 0 1.37-.08ZM53.07 82.2a114.42 114.42 0 0 0 .17-3.3 30.6 30.6 0 0 0-.05-2.01 36.06 36.06 0 0 1-.03-1.93c0-.49.04-.96.14-1.41.1-.46.27-.86.5-1.21.23-.35.55-.63.95-.84.4-.2.89-.31 1.48-.31.36 0 .67.04.94.12a2.26 2.26 0 0 1 1.22.84 3.04 3.04 0 0 1 .58 1.9c0 .27-.05.5-.13.68a1.25 1.25 0 0 1-1.1.73c-.11 0-.23-.03-.38-.07a1.17 1.17 0 0 1-.41-.22 1.17 1.17 0 0 1-.47-.98c0-.18.05-.35.11-.5.06-.14.16-.27.28-.4.12-.13.3-.22.54-.27a1.38 1.38 0 0 0-.3-.35 1.48 1.48 0 0 0-.92-.3c-.26 0-.47.06-.62.16-.16.1-.28.25-.36.44-.09.19-.14.4-.16.66-.03.25-.05.53-.05.82a261.66 261.66 0 0 0 .03 3.91 62.14 62.14 0 0 0 .23 3.8 3.41 3.41 0 0 0-.81-.04 14.34 14.34 0 0 0-1.38.08Z" fill="#000"/><path d="M39.08 61.84c0 2.38.58-2.89 4.05-1.16 3.12 1.57-1.16 2.31-1.74 6.36-1.42 3-3.33 8.02-4.04 8.66l-8.66-.58 4.62-9.82 3.46-4.62c2.31-1.15 2.31 0 2.31 1.16Z" fill="#FFDC22"/><path d="m48.9 54.33-5.2 6.35c-.92-1.84-2.7-.38-3.46.58 0-.2-.35-.7-1.73-1.15-1.39-.47-2.9.57-3.47 1.15l-8.08-12.13-7.51 9.82-6.35-4.62-.58-10.4h36.96l-.58 10.4Z" fill="#D1B167"/><path d="m33.3 65.88-5.19 9.82-8.08-.58.57-4.62-1.73-3.46 1.73-1.16.58-1.73V60.1c.58.19 2.31.46 4.62 0 2.31-.47 4.43 1.34 5.2 2.3v1.74c1.25.06 1.7.53 2.3 1.73Z" fill="#FFDBB0"/><path d="m21.18 60.1 5.78-7.5 6.93 11.55-1.16 1.15c-3.46-4.04-4.05-6.05-11.55-5.2Z" fill="#3076FF"/><path d="m34.46 63.57 1.16-1.73-8.66-12.7-6.93 9.81 1.15 1.16 6.35-7.51 6.93 10.97Z" fill="#B02929"/><path d="M22.73 74.05c.2.28 1.38.53 4.52-.68" stroke="#000" stroke-width="1.15"/><path d="M22.2 65.52c.71-.48 2.3-1.45 2.88-1.45.72 0 2.16 1.45.72 2.17-1.15.58-1.44-.24-1.44-.72" stroke="#000" stroke-width=".58"/><path d="M23.64 71.3h1.44" stroke="#000" stroke-width="1.15"/><path d="m38.8 79.95-.73-5.05c-4.09.96-13.42 2.31-18.04 0 0 5.05-4.33 3.61 0 5.78 3.46 1.73 13.95.24 18.76-.73Z" fill="#000" stroke="#000" stroke-width="1.15" stroke-linejoin="bevel"/><path d="M50.06 44.52H11.94" stroke="#000" stroke-width="1.15" stroke-linejoin="bevel"/><path d="M22.2 66.08c-.73 0-3.62 0-3.62.72 0 .58 1.45 2.65 2.17 3.61l-.72 4.33c1.4.84 4.53 1.04 7.94.93m-7.22-9.59c-.32-.97-.06-1.68.36-2.17m1.08-.72c-.32.1-.75.34-1.08.72m0 0v-3.6m0 0c1.13-.04 3.87-.1 6.13 0a5.32 5.32 0 0 1 4.34 2.88M21.1 60.31l-1.66-1.07m1.66 1.07 6.13-7.71 7.12 11.31M12.52 45.1l.58 9.44 6.35 4.71m20.07 9c-1.77-.18-2.9-.72-2.17-2.16 1.3-2.61 3.1-1.7 3.92-.72m0 0a2 2 0 0 1 .41.72c.58 1.15-2.16 6.26-3.6 8.66-2.5.38-6.46.83-10.11.93m13.3-10.31 1.13-1.45c1.37-.39 2.14-1.76 1.45-2.88m0 0c-.16-.26-.4-.5-.72-.72-.57-.54-3.44.52-2.9 1.53m3.62-.81 5.05-6.5.58-9.44M27.97 75.67l3.6-7.42a4.64 4.64 0 0 0 1.57-1.85m-3 .4c-1.21-1.2-.66-3.41 1.44-2.89 1.72.44 1.99 1.47 1.56 2.49m1.32-2.49 1.45-2.88c1.44-1.45 5.05-1.45 2.88 2.16m-4.33 5.06c1.2-.49 3.49-2.26 1.45-3.61-1.36-.9-2.57.45-2.77 1.76m-13.7-7.16 7.8-10.1 7.8 12.7" stroke="#000" stroke-width="1.15"/><path d="M20.6 74.54c.54-1.65 1.04-3.7.58-4.62-.58-1.15-1.15-1.73-2.3-2.88m2.3-1.16c.08-1.33-.14-1.71.58-2.3v-2.9" stroke="#FFCB8D" stroke-opacity=".46" stroke-width="1.15" style="mix-blend-mode:multiply"/><path d="M22.91 27.77c0-2.38-.57 2.89-4.04 1.15-3.13-1.56 1.16-2.3 1.73-6.35 1.43-3 3.34-8.02 4.05-8.66l8.66.58-4.62 9.81-3.47 4.62c-2.3 1.16-2.3 0-2.3-1.15Z" fill="#FFDC22"/><path d="m13.1 35.28 5.2-6.36c.92 1.85 2.69.39 3.46-.57 0 .19.35.69 1.73 1.15 1.39.46 2.89-.58 3.47-1.15l8.08 12.12 7.5-9.81 6.36 4.62.58 10.39H12.52l.58-10.4Z" fill="#D1B167"/><path d="m28.69 23.73 5.2-9.82 8.08.58-.58 4.62 1.74 3.46-1.74 1.16-.57 1.73v4.04c-.58-.2-2.31-.46-4.62 0s-4.43-1.35-5.2-2.3v-1.74c-1.25-.06-1.7-.53-2.31-1.73Z" fill="#FFDBB0"/><path d="M40.82 29.5 35.04 37l-6.93-11.54 1.16-1.16c3.46 4.05 4.05 6.05 11.55 5.2Z" fill="#3076FF"/><path d="m27.53 26.04-1.15 1.73 8.66 12.7 6.93-9.81-1.15-1.16-6.36 7.5-6.93-10.96Z" fill="#B02929"/><path d="M39.26 15.56c-.2-.28-1.37-.53-4.5.68" stroke="#000" stroke-width="1.15"/><path d="M39.8 24.09c-.72.48-2.3 1.44-2.88 1.44-.72 0-2.17-1.44-.72-2.16 1.15-.58 1.44.24 1.44.72" stroke="#000" stroke-width=".58"/><path d="M38.36 18.32h-1.44" stroke="#000" stroke-width="1.15"/><path d="m23.2 9.65.72 5.06c4.1-.97 13.43-2.31 18.05 0 0-5.06 4.33-3.61 0-5.78-3.46-1.73-13.96-.24-18.77.72Z" fill="#000" stroke="#000" stroke-width="1.15" stroke-linejoin="bevel"/><path d="M11.94 45.1h38.12" stroke="#000" stroke-width="1.15" stroke-linejoin="bevel"/><path d="M39.8 23.53c.73 0 3.61 0 3.61-.72 0-.58-1.44-2.65-2.16-3.61l.72-4.33c-1.4-.84-4.53-1.04-7.94-.94m7.22 9.6c.32.97.06 1.68-.37 2.16m-1.08.73c.32-.11.75-.35 1.08-.73m0 0v3.61m0 0c-1.12.04-3.86.1-6.13 0a5.32 5.32 0 0 1-4.33-2.88m10.46 2.88 1.67 1.07m-1.67-1.07L34.75 37l-7.11-11.3m21.84 18.82-.58-9.44-6.35-4.71m-20.07-9c1.76.17 2.89.71 2.17 2.16-1.31 2.61-3.1 1.7-3.92.72m0 0a2 2 0 0 1-.41-.72c-.58-1.16 2.16-6.26 3.6-8.66 2.5-.38 6.46-.83 10.11-.94m-13.3 10.32-1.14 1.44c-1.36.4-2.13 1.77-1.44 2.89m0 0c.16.26.4.5.72.72.57.54 3.44-.52 2.89-1.53m-3.61.81-5.05 6.5-.58 9.44m21.51-30.59-3.6 7.43a4.64 4.64 0 0 0-1.57 1.85m3-.4c1.2 1.2.66 3.4-1.44 2.88-1.72-.43-1.99-1.46-1.56-2.48m-1.33 2.48-1.44 2.89c-1.44 1.44-5.05 1.44-2.89-2.16m4.33-5.06c-1.2.48-3.48 2.26-1.44 3.61 1.35.9 2.57-.45 2.77-1.76m13.69 7.16-7.8 10.1-7.8-12.7" stroke="#000" stroke-width="1.15"/><path d="M41.4 15.06c-.54 1.66-1.04 3.72-.58 4.62.57 1.16 1.15 1.74 2.3 2.9m-2.3 1.15c-.08 1.33.14 1.71-.58 2.3v2.9" stroke="#FFCB8D" stroke-opacity=".46" stroke-width="1.15" style="mix-blend-mode:multiply"/></svg>