<svg width="137" height="29" viewBox="0 0 137 29" fill="none" xmlns="http://www.w3.org/2000/svg">
<mask id="path-1-outside-1_1623_9711" maskUnits="userSpaceOnUse" x="0" y="0.000488281" width="137" height="29" fill="black">
<rect fill="white" y="0.000488281" width="137" height="29"/>
<path d="M8.71875 20.1333C8.73438 19.4849 8.75 18.813 8.76562 18.1177C8.78125 17.4145 8.78906 16.6958 8.78906 15.9614H3.04688L3 14.1099C3.10156 13.9771 3.25 13.7192 3.44531 13.3364C3.64062 12.9536 3.86328 12.4966 4.11328 11.9653C4.37109 11.4263 4.64453 10.8364 4.93359 10.1958C5.23047 9.55518 5.52344 8.91064 5.8125 8.26221C6.49219 6.74658 7.23438 5.06689 8.03906 3.22314H11.543C11.5273 3.70752 11.5117 4.20361 11.4961 4.71143C11.4883 5.21143 11.4805 5.70752 11.4727 6.19971C11.4648 6.68408 11.457 7.15283 11.4492 7.60596C11.4492 8.05908 11.4492 8.47705 11.4492 8.85986C11.4492 9.76611 11.4531 10.5825 11.4609 11.3091C11.4688 12.0356 11.4805 12.7466 11.4961 13.4419H12.6328V15.9614H11.6016C11.625 16.5708 11.6523 17.2036 11.6836 17.8599C11.7227 18.5161 11.7656 19.1724 11.8125 19.8286L8.71875 20.1333ZM8.8125 11.6138C8.8125 10.9028 8.8125 10.2075 8.8125 9.52783C8.8125 8.84033 8.80469 8.17627 8.78906 7.53564L6.12891 13.4419H8.8125V11.6138Z"/>
<path d="M18.21 9.64502C18.21 9.85596 18.167 10.0552 18.0811 10.2427C18.003 10.4302 17.8936 10.5942 17.753 10.7349C17.6202 10.8677 17.46 10.9771 17.2725 11.063C17.085 11.1411 16.8858 11.1802 16.6748 11.1802C16.4561 11.1802 16.253 11.1411 16.0655 11.063C15.878 10.9771 15.7139 10.8677 15.5733 10.7349C15.4327 10.5942 15.3194 10.4302 15.2334 10.2427C15.1553 10.0552 15.1163 9.85596 15.1163 9.64502C15.1163 9.43408 15.1553 9.23486 15.2334 9.04736C15.3194 8.85205 15.4327 8.68408 15.5733 8.54346C15.7139 8.40283 15.878 8.29346 16.0655 8.21533C16.253 8.12939 16.4561 8.08643 16.6748 8.08643C16.8858 8.08643 17.085 8.12939 17.2725 8.21533C17.46 8.29346 17.6202 8.40283 17.753 8.54346C17.8936 8.68408 18.003 8.85205 18.0811 9.04736C18.167 9.23486 18.21 9.43408 18.21 9.64502ZM18.21 18.8442C18.21 19.0552 18.167 19.2544 18.0811 19.4419C18.003 19.6216 17.8936 19.7817 17.753 19.9224C17.6202 20.063 17.46 20.1724 17.2725 20.2505C17.085 20.3364 16.8858 20.3794 16.6748 20.3794C16.4561 20.3794 16.253 20.3364 16.0655 20.2505C15.878 20.1724 15.7139 20.063 15.5733 19.9224C15.4327 19.7817 15.3194 19.6216 15.2334 19.4419C15.1553 19.2544 15.1163 19.0552 15.1163 18.8442C15.1163 18.6255 15.1553 18.4224 15.2334 18.2349C15.3194 18.0474 15.4327 17.8833 15.5733 17.7427C15.7139 17.6021 15.878 17.4927 16.0655 17.4146C16.253 17.3286 16.4561 17.2856 16.6748 17.2856C16.8858 17.2856 17.085 17.3286 17.2725 17.4146C17.46 17.4927 17.6202 17.6021 17.753 17.7427C17.8936 17.8833 18.003 18.0474 18.0811 18.2349C18.167 18.4224 18.21 18.6255 18.21 18.8442Z"/>
<path d="M35.3409 20.2153C34.7081 20.1997 34.1183 20.188 33.5714 20.1802C33.0323 20.1802 32.5206 20.1802 32.0362 20.1802C31.0909 20.1802 30.298 20.188 29.6573 20.2036C29.0245 20.227 28.5089 20.2466 28.1105 20.2622C27.6417 20.2856 27.2706 20.3091 26.9972 20.3325C27.0519 19.8091 27.0987 19.2817 27.1378 18.7505C27.1847 18.2192 27.2237 17.6958 27.255 17.1802C27.2862 16.6646 27.3136 16.1685 27.337 15.6919C27.3605 15.2153 27.38 14.7661 27.3956 14.3442C27.4269 13.3599 27.4464 12.4185 27.4542 11.52C27.4464 10.5825 27.4269 9.62158 27.3956 8.63721C27.38 8.21533 27.3605 7.77393 27.337 7.31299C27.3136 6.84424 27.2862 6.36768 27.255 5.8833C27.2237 5.39893 27.1847 4.91455 27.1378 4.43018C27.0987 3.93799 27.0519 3.46143 26.9972 3.00049C27.9737 3.03955 28.8448 3.0708 29.6105 3.09424C30.3839 3.10986 31.0714 3.11768 31.673 3.11768C32.2667 3.11768 32.7784 3.11377 33.2081 3.10596C33.6378 3.09033 33.9894 3.07471 34.2628 3.05908C34.5831 3.04346 34.8956 3.08262 35.1066 3.05918C35.1066 3.05137 35.0597 3.06299 35.0597 3.21143C35.0597 3.35986 35.0636 3.55518 35.0714 3.79736C35.0792 4.03955 35.0909 4.31299 35.1066 4.61768C35.13 4.92236 35.1612 5.23096 35.2003 5.54346C34.2941 5.45752 33.5011 5.40283 32.8214 5.37939C32.1417 5.34814 31.5597 5.33252 31.0753 5.33252C30.8722 5.33252 30.6925 5.33252 30.5362 5.33252C30.3878 5.33252 30.2472 5.34033 30.1144 5.35596C30.0987 6.22314 30.087 7.03955 30.0792 7.80518C30.0714 8.56299 30.0675 9.28174 30.0675 9.96143C30.6144 9.9458 31.1027 9.92627 31.5323 9.90283C31.962 9.87158 32.3292 9.83643 32.6339 9.79736C32.9855 9.7583 33.298 9.71533 33.5714 9.66846C33.5636 9.72314 33.5597 9.78564 33.5597 9.85596C33.5519 9.91846 33.548 9.99268 33.548 10.0786C33.548 10.1646 33.548 10.2622 33.548 10.3716C33.548 10.6216 33.5558 10.9224 33.5714 11.2739C33.587 11.6177 33.6183 11.9888 33.6652 12.3872C32.8214 12.2778 32.0948 12.2114 31.4855 12.188C30.8761 12.1567 30.4034 12.1411 30.0675 12.1411C30.0675 12.9536 30.0714 13.6802 30.0792 14.3208C30.087 14.9536 30.0948 15.5122 30.1027 15.9966C30.1183 16.481 30.13 16.895 30.1378 17.2388C30.1534 17.5825 30.1691 17.8677 30.1847 18.0942C30.9816 18.0786 31.6925 18.0396 32.3175 17.9771C32.9425 17.9146 33.4698 17.8521 33.8995 17.7896C34.3292 17.7192 34.6573 17.6567 34.8839 17.6021C35.1105 17.5474 35.2237 17.5122 35.2237 17.4966C35.2159 17.5356 35.212 17.5786 35.212 17.6255C35.2042 17.6646 35.2003 17.7153 35.2003 17.7778C35.2003 17.8403 35.2003 17.9145 35.2003 18.0005C35.2003 18.2192 35.2081 18.5122 35.2237 18.8794C35.2394 19.2466 35.2784 19.6919 35.3409 20.2153Z"/>
<path d="M40.4728 20.4263L37.3439 20.6606C37.4689 19.2622 37.5588 17.9146 37.6134 16.6177C37.6759 15.313 37.7072 14.0083 37.7072 12.7036C37.7072 11.7817 37.6916 10.8599 37.6603 9.93799C37.6369 9.0083 37.59 8.05518 37.5197 7.07861L40.1564 6.93799C40.1408 7.10986 40.1291 7.27783 40.1213 7.44189C40.1134 7.60596 40.1095 7.76611 40.1095 7.92236C40.383 7.50049 40.6798 7.17236 41.0002 6.93799C41.3283 6.6958 41.633 6.52002 41.9142 6.41064C42.2345 6.27783 42.5588 6.1958 42.8869 6.16455C43.4572 6.16455 43.9455 6.25439 44.3517 6.43408C44.758 6.60596 45.09 6.83252 45.3478 7.11377C45.6056 7.38721 45.7931 7.6958 45.9103 8.03955C46.0275 8.37549 46.0861 8.70361 46.0861 9.02393C46.0861 9.35205 46.0509 9.68408 45.9806 10.02C45.9103 10.356 45.7892 10.6606 45.6173 10.9341C45.4533 11.1997 45.2306 11.4185 44.9494 11.5903C44.6759 11.7544 44.3361 11.8364 43.9298 11.8364C43.5236 11.8364 43.2033 11.7622 42.9689 11.6138C42.7345 11.4653 42.5548 11.2896 42.4298 11.0864C42.3127 10.8755 42.2345 10.6606 42.1955 10.4419C42.1642 10.2153 42.1486 10.0239 42.1486 9.86768C42.1486 9.7583 42.1681 9.63721 42.2072 9.50439C42.2463 9.36377 42.3048 9.22314 42.383 9.08252C42.4611 8.94189 42.5588 8.80518 42.6759 8.67236C42.7931 8.53174 42.9298 8.40283 43.0861 8.28564C43.0392 8.27002 42.9884 8.2583 42.9338 8.25049C42.8869 8.24268 42.84 8.23877 42.7931 8.23877C42.4025 8.23877 42.0548 8.36377 41.7502 8.61377C41.4455 8.85596 41.1798 9.1958 40.9533 9.6333C40.7345 10.0708 40.5509 10.5864 40.4025 11.1802C40.2619 11.7739 40.1564 12.4224 40.0861 13.1255C40.1252 14.3364 40.1798 15.5356 40.2502 16.7231C40.3205 17.9106 40.3947 19.145 40.4728 20.4263Z"/>
<path d="M51.0656 6.96143L50.9953 7.92236C51.2531 7.49268 51.5266 7.16455 51.8156 6.93799C52.1125 6.71143 52.3859 6.55127 52.6359 6.45752C52.8859 6.36377 53.093 6.31299 53.257 6.30518C53.4289 6.29736 53.5227 6.29346 53.5383 6.29346C54.1164 6.29346 54.6203 6.42627 55.05 6.6919C55.4797 6.95752 55.8352 7.34424 56.1164 7.85205C56.3977 8.35205 56.6047 8.96533 56.7375 9.69189C56.8781 10.4106 56.9484 11.2271 56.9484 12.1411C56.9484 12.813 56.9367 13.5005 56.9133 14.2036C56.8977 14.8989 56.8586 15.5942 56.7961 16.2896C56.7414 16.9771 56.6633 17.6489 56.5617 18.3052C56.468 18.9614 56.3391 19.5864 56.175 20.1802L53.4445 19.852C53.6242 18.9224 53.7648 18.0552 53.8664 17.2505C53.968 16.4458 54.0422 15.7427 54.0891 15.1411C54.1437 14.438 54.175 13.7935 54.1828 13.2075C54.1828 12.4653 54.1594 11.8208 54.1125 11.2739C54.0656 10.7192 53.9797 10.2622 53.8547 9.90283C53.7375 9.53564 53.5734 9.26221 53.3625 9.08252C53.1516 8.90283 52.882 8.81299 52.5539 8.81299C52.3352 8.85986 52.1164 9.01611 51.8977 9.28174C51.7102 9.5083 51.5109 9.87158 51.3 10.3716C51.0891 10.8638 50.9055 11.5591 50.7492 12.4575C50.7258 13.0669 50.7102 13.6724 50.7023 14.2739C50.7023 14.8677 50.7023 15.5005 50.7023 16.1724C50.7023 16.7427 50.7023 17.356 50.7023 18.0122C50.7023 18.6685 50.7102 19.4106 50.7258 20.2388L48.0656 20.1802C48.0891 19.3833 48.1047 18.5396 48.1125 17.6489C48.1281 16.7505 48.1359 15.7544 48.1359 14.6606C48.1359 13.5747 48.1281 12.3989 48.1125 11.1333C48.0969 9.86768 48.0656 8.46143 48.0187 6.91455L51.0656 6.96143Z"/>
<path d="M67.7756 17.4263C67.7756 17.8872 67.6702 18.3208 67.4592 18.7271C67.2483 19.1333 66.9631 19.4849 66.6037 19.7817C66.2444 20.0786 65.8225 20.313 65.3381 20.4849C64.8537 20.6567 64.3381 20.7427 63.7912 20.7427C63.4241 20.7427 63.053 20.6919 62.678 20.5903C62.303 20.4888 61.9436 20.3208 61.5998 20.0864C61.2561 19.852 60.9319 19.5435 60.6272 19.1606C60.3225 18.7778 60.0569 18.3091 59.8303 17.7544C59.6116 17.1997 59.4358 16.5513 59.303 15.8091C59.178 15.0591 59.1155 14.1997 59.1155 13.231C59.1155 12.3169 59.178 11.5083 59.303 10.8052C59.4358 10.1021 59.6116 9.48877 59.8303 8.96533C60.0569 8.44189 60.3186 8.00439 60.6155 7.65283C60.9123 7.29346 61.2287 7.00439 61.5647 6.78564C61.9084 6.55908 62.26 6.39893 62.6194 6.30518C62.9866 6.21143 63.3459 6.16455 63.6975 6.16455C64.2209 6.16455 64.717 6.25049 65.1858 6.42236C65.6545 6.58643 66.0647 6.83252 66.4162 7.16064C66.7678 7.48877 67.0452 7.89502 67.2483 8.37939C67.4592 8.85596 67.5647 9.40674 67.5647 10.0317C67.5647 10.5942 67.4475 11.1646 67.2131 11.7427C66.9866 12.313 66.6467 12.856 66.1936 13.3716C65.7405 13.8794 65.178 14.3442 64.5061 14.7661C63.842 15.1802 63.0764 15.5083 62.2092 15.7505C62.2561 16.2349 62.3225 16.6763 62.4084 17.0747C62.5022 17.4731 62.6155 17.813 62.7483 18.0942C62.8889 18.3755 63.0491 18.5942 63.2287 18.7505C63.4162 18.9067 63.6311 18.9849 63.8733 18.9849C64.0295 18.9771 64.178 18.9497 64.3186 18.9028C64.4436 18.8638 64.5686 18.8013 64.6936 18.7153C64.8264 18.6294 64.9358 18.5044 65.0217 18.3403C64.8186 18.2466 64.6623 18.1255 64.553 17.9771C64.4436 17.8286 64.3616 17.688 64.3069 17.5552C64.2444 17.3989 64.2092 17.2349 64.2014 17.063C64.2014 16.688 64.2756 16.3833 64.4241 16.1489C64.5725 15.9146 64.7483 15.731 64.9514 15.5981C65.1545 15.4653 65.3616 15.3755 65.5725 15.3286C65.7834 15.2739 65.9514 15.2466 66.0764 15.2466C66.2092 15.2466 66.3694 15.2739 66.5569 15.3286C66.7522 15.3833 66.9397 15.4888 67.1194 15.645C67.2991 15.8013 67.4514 16.0239 67.5764 16.313C67.7092 16.5942 67.7756 16.9653 67.7756 17.4263ZM64.8811 10.0552C64.8811 9.77393 64.8537 9.5083 64.7991 9.2583C64.7522 9.00049 64.678 8.77783 64.5764 8.59033C64.4827 8.40283 64.3616 8.25439 64.2131 8.14502C64.0725 8.02783 63.9084 7.96924 63.7209 7.96924C63.4006 7.96924 63.1389 8.11768 62.9358 8.41455C62.7327 8.70361 62.5686 9.09033 62.4436 9.57471C62.3186 10.0591 62.2327 10.6177 62.1858 11.2505C62.1389 11.8833 62.1155 12.5435 62.1155 13.231V14.0864C62.5139 13.8755 62.8811 13.6255 63.217 13.3364C63.5608 13.0474 63.8537 12.731 64.0959 12.3872C64.3459 12.0356 64.5373 11.6646 64.6702 11.2739C64.8108 10.8833 64.8811 10.4771 64.8811 10.0552Z"/>
<path d="M75.7552 20.063C75.7708 19.7505 75.7864 19.4536 75.802 19.1724C75.8255 18.8833 75.8489 18.606 75.8723 18.3403C75.6067 18.8091 75.3216 19.1685 75.0169 19.4185C74.72 19.6685 74.4427 19.856 74.1848 19.981C73.8802 20.1216 73.5794 20.2075 73.2825 20.2388C72.7044 20.2388 72.2005 20.0942 71.7708 19.8052C71.3411 19.5161 70.9856 19.106 70.7044 18.5747C70.4231 18.0435 70.2122 17.4067 70.0716 16.6646C69.9388 15.9146 69.8723 15.0786 69.8723 14.1567C69.8723 12.8677 69.9114 11.6177 69.9895 10.4067C70.0755 9.1958 70.2122 8.0083 70.3997 6.84424L73.3763 7.17236C73.1888 8.10205 73.0442 8.93408 72.9427 9.66846C72.8489 10.395 72.7786 11.0161 72.7317 11.5317C72.677 12.1333 72.6458 12.6567 72.638 13.1021C72.638 13.8442 72.6614 14.4927 72.7083 15.0474C72.7552 15.5942 72.8372 16.0513 72.9544 16.4185C73.0794 16.7778 73.2473 17.0474 73.4583 17.2271C73.6692 17.4067 73.9388 17.4966 74.2669 17.4966C74.4934 17.4575 74.7161 17.3013 74.9348 17.0278C75.0286 16.9106 75.1263 16.7622 75.2278 16.5825C75.3294 16.395 75.4309 16.1685 75.5325 15.9028C75.6341 15.6372 75.7317 15.3247 75.8255 14.9653C75.9192 14.606 76.0091 14.188 76.095 13.7114C76.1106 13.2505 76.1184 12.7935 76.1184 12.3403C76.1184 11.8794 76.1184 11.3833 76.1184 10.8521C76.1184 10.2896 76.1184 9.67627 76.1184 9.01221C76.1184 8.34814 76.1106 7.60205 76.095 6.77393L78.7552 6.8208C78.7161 7.41455 78.6848 7.96533 78.6614 8.47314C78.638 8.97314 78.6184 9.4458 78.6028 9.89111C78.595 10.3286 78.5872 10.7427 78.5794 11.1333C78.5716 11.5239 78.5677 11.9028 78.5677 12.27C78.5677 12.8325 78.5716 13.3833 78.5794 13.9224C78.595 14.4614 78.6145 15.0356 78.638 15.645C78.6614 16.2466 78.6848 16.9106 78.7083 17.6372C78.7395 18.356 78.7708 19.1802 78.802 20.1099L75.7552 20.063Z"/>
<path d="M89.805 17.4263C89.805 17.8872 89.6995 18.3208 89.4886 18.7271C89.2777 19.1333 88.9925 19.4849 88.6331 19.7817C88.2738 20.0786 87.8519 20.313 87.3675 20.4849C86.8831 20.6567 86.3675 20.7427 85.8206 20.7427C85.4534 20.7427 85.0823 20.6919 84.7073 20.5903C84.3323 20.4888 83.973 20.3208 83.6292 20.0864C83.2855 19.852 82.9613 19.5435 82.6566 19.1606C82.3519 18.7778 82.0863 18.3091 81.8597 17.7544C81.6409 17.1997 81.4652 16.5513 81.3323 15.8091C81.2073 15.0591 81.1448 14.1997 81.1448 13.231C81.1448 12.3169 81.2073 11.5083 81.3323 10.8052C81.4652 10.1021 81.6409 9.48877 81.8597 8.96533C82.0863 8.44189 82.348 8.00439 82.6448 7.65283C82.9417 7.29346 83.2581 7.00439 83.5941 6.78564C83.9378 6.55908 84.2894 6.39893 84.6488 6.30518C85.0159 6.21143 85.3753 6.16455 85.7269 6.16455C86.2503 6.16455 86.7464 6.25049 87.2152 6.42236C87.6839 6.58643 88.0941 6.83252 88.4456 7.16064C88.7972 7.48877 89.0745 7.89502 89.2777 8.37939C89.4886 8.85596 89.5941 9.40674 89.5941 10.0317C89.5941 10.5942 89.4769 11.1646 89.2425 11.7427C89.0159 12.313 88.6761 12.856 88.223 13.3716C87.7698 13.8794 87.2073 14.3442 86.5355 14.7661C85.8714 15.1802 85.1058 15.5083 84.2386 15.7505C84.2855 16.2349 84.3519 16.6763 84.4378 17.0747C84.5316 17.4731 84.6448 17.813 84.7777 18.0942C84.9183 18.3755 85.0784 18.5942 85.2581 18.7505C85.4456 18.9067 85.6605 18.9849 85.9027 18.9849C86.0589 18.9771 86.2073 18.9497 86.348 18.9028C86.473 18.8638 86.598 18.8013 86.723 18.7153C86.8558 18.6294 86.9652 18.5044 87.0511 18.3403C86.848 18.2466 86.6917 18.1255 86.5823 17.9771C86.473 17.8286 86.3909 17.688 86.3363 17.5552C86.2738 17.3989 86.2386 17.2349 86.2308 17.063C86.2308 16.688 86.305 16.3833 86.4534 16.1489C86.6019 15.9146 86.7777 15.731 86.9808 15.5981C87.1839 15.4653 87.3909 15.3755 87.6019 15.3286C87.8128 15.2739 87.9808 15.2466 88.1058 15.2466C88.2386 15.2466 88.3988 15.2739 88.5863 15.3286C88.7816 15.3833 88.9691 15.4888 89.1488 15.645C89.3284 15.8013 89.4808 16.0239 89.6058 16.313C89.7386 16.5942 89.805 16.9653 89.805 17.4263ZM86.9105 10.0552C86.9105 9.77393 86.8831 9.5083 86.8284 9.2583C86.7816 9.00049 86.7073 8.77783 86.6058 8.59033C86.512 8.40283 86.3909 8.25439 86.2425 8.14502C86.1019 8.02783 85.9378 7.96924 85.7503 7.96924C85.43 7.96924 85.1683 8.11768 84.9652 8.41455C84.762 8.70361 84.598 9.09033 84.473 9.57471C84.348 10.0591 84.262 10.6177 84.2152 11.2505C84.1683 11.8833 84.1448 12.5435 84.1448 13.231V14.0864C84.5433 13.8755 84.9105 13.6255 85.2464 13.3364C85.5902 13.0474 85.8831 12.731 86.1253 12.3872C86.3753 12.0356 86.5667 11.6646 86.6995 11.2739C86.8402 10.8833 86.9105 10.4771 86.9105 10.0552Z"/>
<path d="M95.0306 20.4263L91.9017 20.6606C92.0267 19.2622 92.1166 17.9146 92.1712 16.6177C92.2337 15.313 92.265 14.0083 92.265 12.7036C92.265 11.7817 92.2494 10.8599 92.2181 9.93799C92.1947 9.0083 92.1478 8.05518 92.0775 7.07861L94.7142 6.93799C94.6986 7.10986 94.6869 7.27783 94.6791 7.44189C94.6712 7.60596 94.6673 7.76611 94.6673 7.92236C94.9408 7.50049 95.2377 7.17236 95.558 6.93799C95.8861 6.6958 96.1908 6.52002 96.472 6.41064C96.7923 6.27783 97.1166 6.1958 97.4447 6.16455C98.015 6.16455 98.5033 6.25439 98.9095 6.43408C99.3158 6.60596 99.6478 6.83252 99.9056 7.11377C100.163 7.38721 100.351 7.6958 100.468 8.03955C100.585 8.37549 100.644 8.70361 100.644 9.02393C100.644 9.35205 100.609 9.68408 100.538 10.02C100.468 10.356 100.347 10.6606 100.175 10.9341C100.011 11.1997 99.7884 11.4185 99.5072 11.5903C99.2337 11.7544 98.8939 11.8364 98.4877 11.8364C98.0814 11.8364 97.7611 11.7622 97.5267 11.6138C97.2923 11.4653 97.1127 11.2896 96.9877 11.0864C96.8705 10.8755 96.7923 10.6606 96.7533 10.4419C96.722 10.2153 96.7064 10.0239 96.7064 9.86768C96.7064 9.7583 96.7259 9.63721 96.765 9.50439C96.8041 9.36377 96.8627 9.22314 96.9408 9.08252C97.0189 8.94189 97.1166 8.80518 97.2337 8.67236C97.3509 8.53174 97.4877 8.40283 97.6439 8.28564C97.597 8.27002 97.5462 8.2583 97.4916 8.25049C97.4447 8.24268 97.3978 8.23877 97.3509 8.23877C96.9603 8.23877 96.6127 8.36377 96.308 8.61377C96.0033 8.85596 95.7377 9.1958 95.5111 9.6333C95.2923 10.0708 95.1087 10.5864 94.9603 11.1802C94.8197 11.7739 94.7142 12.4224 94.6439 13.1255C94.683 14.3364 94.7377 15.5356 94.808 16.7231C94.8783 17.9106 94.9525 19.145 95.0306 20.4263Z"/>
<path d="M108.284 20.063C108.299 19.7505 108.315 19.4536 108.33 19.1724C108.354 18.8833 108.377 18.606 108.401 18.3403C108.135 18.8091 107.85 19.1685 107.545 19.4185C107.248 19.6685 106.971 19.856 106.713 19.981C106.409 20.1216 106.108 20.2075 105.811 20.2388C105.233 20.2388 104.729 20.0942 104.299 19.8052C103.87 19.5161 103.514 19.106 103.233 18.5747C102.952 18.0435 102.741 17.4067 102.6 16.6646C102.467 15.9146 102.401 15.0786 102.401 14.1567C102.401 12.8677 102.44 11.6177 102.518 10.4067C102.604 9.1958 102.741 8.0083 102.928 6.84424L105.905 7.17236C105.717 8.10205 105.573 8.93408 105.471 9.66846C105.377 10.395 105.307 11.0161 105.26 11.5317C105.205 12.1333 105.174 12.6567 105.166 13.1021C105.166 13.8442 105.19 14.4927 105.237 15.0474C105.284 15.5942 105.366 16.0513 105.483 16.4185C105.608 16.7778 105.776 17.0474 105.987 17.2271C106.198 17.4067 106.467 17.4966 106.795 17.4966C107.022 17.4575 107.245 17.3013 107.463 17.0278C107.557 16.9106 107.655 16.7622 107.756 16.5825C107.858 16.395 107.959 16.1685 108.061 15.9028C108.162 15.6372 108.26 15.3247 108.354 14.9653C108.448 14.606 108.537 14.188 108.623 13.7114C108.639 13.2505 108.647 12.7935 108.647 12.3403C108.647 11.8794 108.647 11.3833 108.647 10.8521C108.647 10.2896 108.647 9.67627 108.647 9.01221C108.647 8.34814 108.639 7.60205 108.623 6.77393L111.284 6.8208C111.245 7.41455 111.213 7.96533 111.19 8.47314C111.166 8.97314 111.147 9.4458 111.131 9.89111C111.123 10.3286 111.116 10.7427 111.108 11.1333C111.1 11.5239 111.096 11.9028 111.096 12.27C111.096 12.8325 111.1 13.3833 111.108 13.9224C111.123 14.4614 111.143 15.0356 111.166 15.645C111.19 16.2466 111.213 16.9106 111.237 17.6372C111.268 18.356 111.299 19.1802 111.33 20.1099L108.284 20.063Z"/>
<path d="M117.06 6.96143L116.99 7.92236C117.247 7.49268 117.521 7.16455 117.81 6.93799C118.107 6.71143 118.38 6.55127 118.63 6.45752C118.88 6.36377 119.087 6.31299 119.251 6.30518C119.423 6.29736 119.517 6.29346 119.533 6.29346C120.111 6.29346 120.615 6.42627 121.044 6.6919C121.474 6.95752 121.83 7.34424 122.111 7.85205C122.392 8.35205 122.599 8.96533 122.732 9.69189C122.872 10.4106 122.943 11.2271 122.943 12.1411C122.943 12.813 122.931 13.5005 122.908 14.2036C122.892 14.8989 122.853 15.5942 122.79 16.2896C122.736 16.9771 122.658 17.6489 122.556 18.3052C122.462 18.9614 122.333 19.5864 122.169 20.1802L119.439 19.852C119.619 18.9224 119.759 18.0552 119.861 17.2505C119.962 16.4458 120.037 15.7427 120.083 15.1411C120.138 14.438 120.169 13.7935 120.177 13.2075C120.177 12.4653 120.154 11.8208 120.107 11.2739C120.06 10.7192 119.974 10.2622 119.849 9.90283C119.732 9.53564 119.568 9.26221 119.357 9.08252C119.146 8.90283 118.876 8.81299 118.548 8.81299C118.33 8.85986 118.111 9.01611 117.892 9.28174C117.705 9.5083 117.505 9.87158 117.294 10.3716C117.083 10.8638 116.9 11.5591 116.744 12.4575C116.72 13.0669 116.705 13.6724 116.697 14.2739C116.697 14.8677 116.697 15.5005 116.697 16.1724C116.697 16.7427 116.697 17.356 116.697 18.0122C116.697 18.6685 116.705 19.4106 116.72 20.2388L114.06 20.1802C114.083 19.3833 114.099 18.5396 114.107 17.6489C114.122 16.7505 114.13 15.7544 114.13 14.6606C114.13 13.5747 114.122 12.3989 114.107 11.1333C114.091 9.86768 114.06 8.46143 114.013 6.91455L117.06 6.96143Z"/>
<path d="M134.297 6.8208C134.258 7.28174 134.219 7.7583 134.18 8.25049C134.149 8.73486 134.118 9.22314 134.086 9.71533C134.055 10.1997 134.028 10.6802 134.004 11.1567C133.989 11.6255 133.973 12.0708 133.957 12.4927C133.918 13.4927 133.891 14.4731 133.875 15.4341C133.829 16.356 133.801 17.27 133.793 18.1763C133.793 19.0747 133.766 19.9302 133.711 20.7427C133.657 21.563 133.551 22.3208 133.395 23.0161C133.247 23.7192 133 24.3247 132.657 24.8325C132.313 25.3481 131.848 25.7505 131.262 26.0395C130.684 26.3286 129.938 26.4731 129.024 26.4731C128.329 26.4731 127.774 26.3716 127.36 26.1685C126.954 25.9731 126.641 25.731 126.422 25.4419C126.211 25.1606 126.071 24.8599 126 24.5395C125.938 24.2192 125.907 23.9341 125.907 23.6841C125.907 23.4185 125.946 23.1685 126.024 22.9341C126.11 22.7075 126.227 22.5083 126.375 22.3364C126.524 22.1645 126.704 22.0278 126.915 21.9263C127.133 21.8247 127.379 21.7739 127.653 21.7739C127.942 21.7739 128.196 21.8286 128.415 21.938C128.641 22.0474 128.829 22.188 128.977 22.3599C129.133 22.5395 129.25 22.7388 129.329 22.9575C129.415 23.1763 129.457 23.395 129.457 23.6138C129.442 23.7388 129.411 23.8677 129.364 24.0005C129.317 24.1099 129.247 24.231 129.153 24.3638C129.067 24.5044 128.934 24.6411 128.754 24.7739C128.934 24.8364 129.102 24.8677 129.258 24.8677C129.461 24.8677 129.676 24.8052 129.903 24.6802C130.129 24.563 130.336 24.3755 130.524 24.1177C130.711 23.8599 130.868 23.5356 130.993 23.145C131.118 22.7544 131.188 22.2895 131.204 21.7505L131.25 18.5044C130.946 19.02 130.633 19.4224 130.313 19.7114C130 19.9927 129.715 20.1997 129.457 20.3325C129.153 20.4888 128.864 20.5825 128.59 20.6138C128.192 20.6138 127.79 20.5005 127.383 20.2739C126.977 20.0474 126.61 19.6567 126.282 19.102C125.954 18.5474 125.684 17.8091 125.473 16.8872C125.262 15.9575 125.157 14.7935 125.157 13.395C125.157 12.4731 125.211 11.6606 125.321 10.9575C125.43 10.2466 125.579 9.62939 125.766 9.10596C125.954 8.58252 126.172 8.14502 126.422 7.79346C126.68 7.43408 126.954 7.14502 127.243 6.92627C127.54 6.70752 127.848 6.55127 128.168 6.45752C128.489 6.36377 128.805 6.31689 129.118 6.31689C129.36 6.33252 129.61 6.38721 129.868 6.48096C130.094 6.56689 130.348 6.69971 130.629 6.87939C130.911 7.05908 131.192 7.31689 131.473 7.65283L131.543 6.52783L134.297 6.8208ZM131.403 9.79736C131.223 9.49268 131.012 9.22705 130.77 9.00049C130.536 8.77393 130.274 8.66064 129.985 8.66064C129.766 8.66064 129.543 8.73877 129.317 8.89502C129.098 9.04346 128.899 9.30518 128.719 9.68018C128.54 10.0474 128.391 10.5396 128.274 11.1567C128.165 11.7739 128.11 12.5513 128.11 13.4888C128.11 14.356 128.149 15.0747 128.227 15.645C128.305 16.2153 128.411 16.6724 128.543 17.0161C128.676 17.3521 128.829 17.5903 129 17.731C129.172 17.8638 129.356 17.9302 129.551 17.9302C129.809 17.9302 130.032 17.8521 130.219 17.6958C130.415 17.5396 130.579 17.3521 130.711 17.1333C130.844 16.9067 130.954 16.6724 131.04 16.4302C131.133 16.188 131.211 15.9771 131.274 15.7974C131.29 14.7739 131.305 13.7661 131.321 12.7739C131.336 11.7817 131.364 10.7896 131.403 9.79736Z"/>
</mask>
<path d="M8.71875 20.1333C8.73438 19.4849 8.75 18.813 8.76562 18.1177C8.78125 17.4145 8.78906 16.6958 8.78906 15.9614H3.04688L3 14.1099C3.10156 13.9771 3.25 13.7192 3.44531 13.3364C3.64062 12.9536 3.86328 12.4966 4.11328 11.9653C4.37109 11.4263 4.64453 10.8364 4.93359 10.1958C5.23047 9.55518 5.52344 8.91064 5.8125 8.26221C6.49219 6.74658 7.23438 5.06689 8.03906 3.22314H11.543C11.5273 3.70752 11.5117 4.20361 11.4961 4.71143C11.4883 5.21143 11.4805 5.70752 11.4727 6.19971C11.4648 6.68408 11.457 7.15283 11.4492 7.60596C11.4492 8.05908 11.4492 8.47705 11.4492 8.85986C11.4492 9.76611 11.4531 10.5825 11.4609 11.3091C11.4688 12.0356 11.4805 12.7466 11.4961 13.4419H12.6328V15.9614H11.6016C11.625 16.5708 11.6523 17.2036 11.6836 17.8599C11.7227 18.5161 11.7656 19.1724 11.8125 19.8286L8.71875 20.1333ZM8.8125 11.6138C8.8125 10.9028 8.8125 10.2075 8.8125 9.52783C8.8125 8.84033 8.80469 8.17627 8.78906 7.53564L6.12891 13.4419H8.8125V11.6138Z" fill="white"/>
<path d="M18.21 9.64502C18.21 9.85596 18.167 10.0552 18.0811 10.2427C18.003 10.4302 17.8936 10.5942 17.753 10.7349C17.6202 10.8677 17.46 10.9771 17.2725 11.063C17.085 11.1411 16.8858 11.1802 16.6748 11.1802C16.4561 11.1802 16.253 11.1411 16.0655 11.063C15.878 10.9771 15.7139 10.8677 15.5733 10.7349C15.4327 10.5942 15.3194 10.4302 15.2334 10.2427C15.1553 10.0552 15.1163 9.85596 15.1163 9.64502C15.1163 9.43408 15.1553 9.23486 15.2334 9.04736C15.3194 8.85205 15.4327 8.68408 15.5733 8.54346C15.7139 8.40283 15.878 8.29346 16.0655 8.21533C16.253 8.12939 16.4561 8.08643 16.6748 8.08643C16.8858 8.08643 17.085 8.12939 17.2725 8.21533C17.46 8.29346 17.6202 8.40283 17.753 8.54346C17.8936 8.68408 18.003 8.85205 18.0811 9.04736C18.167 9.23486 18.21 9.43408 18.21 9.64502ZM18.21 18.8442C18.21 19.0552 18.167 19.2544 18.0811 19.4419C18.003 19.6216 17.8936 19.7817 17.753 19.9224C17.6202 20.063 17.46 20.1724 17.2725 20.2505C17.085 20.3364 16.8858 20.3794 16.6748 20.3794C16.4561 20.3794 16.253 20.3364 16.0655 20.2505C15.878 20.1724 15.7139 20.063 15.5733 19.9224C15.4327 19.7817 15.3194 19.6216 15.2334 19.4419C15.1553 19.2544 15.1163 19.0552 15.1163 18.8442C15.1163 18.6255 15.1553 18.4224 15.2334 18.2349C15.3194 18.0474 15.4327 17.8833 15.5733 17.7427C15.7139 17.6021 15.878 17.4927 16.0655 17.4146C16.253 17.3286 16.4561 17.2856 16.6748 17.2856C16.8858 17.2856 17.085 17.3286 17.2725 17.4146C17.46 17.4927 17.6202 17.6021 17.753 17.7427C17.8936 17.8833 18.003 18.0474 18.0811 18.2349C18.167 18.4224 18.21 18.6255 18.21 18.8442Z" fill="white"/>
<path d="M35.3409 20.2153C34.7081 20.1997 34.1183 20.188 33.5714 20.1802C33.0323 20.1802 32.5206 20.1802 32.0362 20.1802C31.0909 20.1802 30.298 20.188 29.6573 20.2036C29.0245 20.227 28.5089 20.2466 28.1105 20.2622C27.6417 20.2856 27.2706 20.3091 26.9972 20.3325C27.0519 19.8091 27.0987 19.2817 27.1378 18.7505C27.1847 18.2192 27.2237 17.6958 27.255 17.1802C27.2862 16.6646 27.3136 16.1685 27.337 15.6919C27.3605 15.2153 27.38 14.7661 27.3956 14.3442C27.4269 13.3599 27.4464 12.4185 27.4542 11.52C27.4464 10.5825 27.4269 9.62158 27.3956 8.63721C27.38 8.21533 27.3605 7.77393 27.337 7.31299C27.3136 6.84424 27.2862 6.36768 27.255 5.8833C27.2237 5.39893 27.1847 4.91455 27.1378 4.43018C27.0987 3.93799 27.0519 3.46143 26.9972 3.00049C27.9737 3.03955 28.8448 3.0708 29.6105 3.09424C30.3839 3.10986 31.0714 3.11768 31.673 3.11768C32.2667 3.11768 32.7784 3.11377 33.2081 3.10596C33.6378 3.09033 33.9894 3.07471 34.2628 3.05908C34.5831 3.04346 34.8956 3.08262 35.1066 3.05918C35.1066 3.05137 35.0597 3.06299 35.0597 3.21143C35.0597 3.35986 35.0636 3.55518 35.0714 3.79736C35.0792 4.03955 35.0909 4.31299 35.1066 4.61768C35.13 4.92236 35.1612 5.23096 35.2003 5.54346C34.2941 5.45752 33.5011 5.40283 32.8214 5.37939C32.1417 5.34814 31.5597 5.33252 31.0753 5.33252C30.8722 5.33252 30.6925 5.33252 30.5362 5.33252C30.3878 5.33252 30.2472 5.34033 30.1144 5.35596C30.0987 6.22314 30.087 7.03955 30.0792 7.80518C30.0714 8.56299 30.0675 9.28174 30.0675 9.96143C30.6144 9.9458 31.1027 9.92627 31.5323 9.90283C31.962 9.87158 32.3292 9.83643 32.6339 9.79736C32.9855 9.7583 33.298 9.71533 33.5714 9.66846C33.5636 9.72314 33.5597 9.78564 33.5597 9.85596C33.5519 9.91846 33.548 9.99268 33.548 10.0786C33.548 10.1646 33.548 10.2622 33.548 10.3716C33.548 10.6216 33.5558 10.9224 33.5714 11.2739C33.587 11.6177 33.6183 11.9888 33.6652 12.3872C32.8214 12.2778 32.0948 12.2114 31.4855 12.188C30.8761 12.1567 30.4034 12.1411 30.0675 12.1411C30.0675 12.9536 30.0714 13.6802 30.0792 14.3208C30.087 14.9536 30.0948 15.5122 30.1027 15.9966C30.1183 16.481 30.13 16.895 30.1378 17.2388C30.1534 17.5825 30.1691 17.8677 30.1847 18.0942C30.9816 18.0786 31.6925 18.0396 32.3175 17.9771C32.9425 17.9146 33.4698 17.8521 33.8995 17.7896C34.3292 17.7192 34.6573 17.6567 34.8839 17.6021C35.1105 17.5474 35.2237 17.5122 35.2237 17.4966C35.2159 17.5356 35.212 17.5786 35.212 17.6255C35.2042 17.6646 35.2003 17.7153 35.2003 17.7778C35.2003 17.8403 35.2003 17.9145 35.2003 18.0005C35.2003 18.2192 35.2081 18.5122 35.2237 18.8794C35.2394 19.2466 35.2784 19.6919 35.3409 20.2153Z" fill="white"/>
<path d="M40.4728 20.4263L37.3439 20.6606C37.4689 19.2622 37.5588 17.9146 37.6134 16.6177C37.6759 15.313 37.7072 14.0083 37.7072 12.7036C37.7072 11.7817 37.6916 10.8599 37.6603 9.93799C37.6369 9.0083 37.59 8.05518 37.5197 7.07861L40.1564 6.93799C40.1408 7.10986 40.1291 7.27783 40.1213 7.44189C40.1134 7.60596 40.1095 7.76611 40.1095 7.92236C40.383 7.50049 40.6798 7.17236 41.0002 6.93799C41.3283 6.6958 41.633 6.52002 41.9142 6.41064C42.2345 6.27783 42.5588 6.1958 42.8869 6.16455C43.4572 6.16455 43.9455 6.25439 44.3517 6.43408C44.758 6.60596 45.09 6.83252 45.3478 7.11377C45.6056 7.38721 45.7931 7.6958 45.9103 8.03955C46.0275 8.37549 46.0861 8.70361 46.0861 9.02393C46.0861 9.35205 46.0509 9.68408 45.9806 10.02C45.9103 10.356 45.7892 10.6606 45.6173 10.9341C45.4533 11.1997 45.2306 11.4185 44.9494 11.5903C44.6759 11.7544 44.3361 11.8364 43.9298 11.8364C43.5236 11.8364 43.2033 11.7622 42.9689 11.6138C42.7345 11.4653 42.5548 11.2896 42.4298 11.0864C42.3127 10.8755 42.2345 10.6606 42.1955 10.4419C42.1642 10.2153 42.1486 10.0239 42.1486 9.86768C42.1486 9.7583 42.1681 9.63721 42.2072 9.50439C42.2463 9.36377 42.3048 9.22314 42.383 9.08252C42.4611 8.94189 42.5588 8.80518 42.6759 8.67236C42.7931 8.53174 42.9298 8.40283 43.0861 8.28564C43.0392 8.27002 42.9884 8.2583 42.9338 8.25049C42.8869 8.24268 42.84 8.23877 42.7931 8.23877C42.4025 8.23877 42.0548 8.36377 41.7502 8.61377C41.4455 8.85596 41.1798 9.1958 40.9533 9.6333C40.7345 10.0708 40.5509 10.5864 40.4025 11.1802C40.2619 11.7739 40.1564 12.4224 40.0861 13.1255C40.1252 14.3364 40.1798 15.5356 40.2502 16.7231C40.3205 17.9106 40.3947 19.145 40.4728 20.4263Z" fill="white"/>
<path d="M51.0656 6.96143L50.9953 7.92236C51.2531 7.49268 51.5266 7.16455 51.8156 6.93799C52.1125 6.71143 52.3859 6.55127 52.6359 6.45752C52.8859 6.36377 53.093 6.31299 53.257 6.30518C53.4289 6.29736 53.5227 6.29346 53.5383 6.29346C54.1164 6.29346 54.6203 6.42627 55.05 6.6919C55.4797 6.95752 55.8352 7.34424 56.1164 7.85205C56.3977 8.35205 56.6047 8.96533 56.7375 9.69189C56.8781 10.4106 56.9484 11.2271 56.9484 12.1411C56.9484 12.813 56.9367 13.5005 56.9133 14.2036C56.8977 14.8989 56.8586 15.5942 56.7961 16.2896C56.7414 16.9771 56.6633 17.6489 56.5617 18.3052C56.468 18.9614 56.3391 19.5864 56.175 20.1802L53.4445 19.852C53.6242 18.9224 53.7648 18.0552 53.8664 17.2505C53.968 16.4458 54.0422 15.7427 54.0891 15.1411C54.1437 14.438 54.175 13.7935 54.1828 13.2075C54.1828 12.4653 54.1594 11.8208 54.1125 11.2739C54.0656 10.7192 53.9797 10.2622 53.8547 9.90283C53.7375 9.53564 53.5734 9.26221 53.3625 9.08252C53.1516 8.90283 52.882 8.81299 52.5539 8.81299C52.3352 8.85986 52.1164 9.01611 51.8977 9.28174C51.7102 9.5083 51.5109 9.87158 51.3 10.3716C51.0891 10.8638 50.9055 11.5591 50.7492 12.4575C50.7258 13.0669 50.7102 13.6724 50.7023 14.2739C50.7023 14.8677 50.7023 15.5005 50.7023 16.1724C50.7023 16.7427 50.7023 17.356 50.7023 18.0122C50.7023 18.6685 50.7102 19.4106 50.7258 20.2388L48.0656 20.1802C48.0891 19.3833 48.1047 18.5396 48.1125 17.6489C48.1281 16.7505 48.1359 15.7544 48.1359 14.6606C48.1359 13.5747 48.1281 12.3989 48.1125 11.1333C48.0969 9.86768 48.0656 8.46143 48.0187 6.91455L51.0656 6.96143Z" fill="white"/>
<path d="M67.7756 17.4263C67.7756 17.8872 67.6702 18.3208 67.4592 18.7271C67.2483 19.1333 66.9631 19.4849 66.6037 19.7817C66.2444 20.0786 65.8225 20.313 65.3381 20.4849C64.8537 20.6567 64.3381 20.7427 63.7912 20.7427C63.4241 20.7427 63.053 20.6919 62.678 20.5903C62.303 20.4888 61.9436 20.3208 61.5998 20.0864C61.2561 19.852 60.9319 19.5435 60.6272 19.1606C60.3225 18.7778 60.0569 18.3091 59.8303 17.7544C59.6116 17.1997 59.4358 16.5513 59.303 15.8091C59.178 15.0591 59.1155 14.1997 59.1155 13.231C59.1155 12.3169 59.178 11.5083 59.303 10.8052C59.4358 10.1021 59.6116 9.48877 59.8303 8.96533C60.0569 8.44189 60.3186 8.00439 60.6155 7.65283C60.9123 7.29346 61.2287 7.00439 61.5647 6.78564C61.9084 6.55908 62.26 6.39893 62.6194 6.30518C62.9866 6.21143 63.3459 6.16455 63.6975 6.16455C64.2209 6.16455 64.717 6.25049 65.1858 6.42236C65.6545 6.58643 66.0647 6.83252 66.4162 7.16064C66.7678 7.48877 67.0452 7.89502 67.2483 8.37939C67.4592 8.85596 67.5647 9.40674 67.5647 10.0317C67.5647 10.5942 67.4475 11.1646 67.2131 11.7427C66.9866 12.313 66.6467 12.856 66.1936 13.3716C65.7405 13.8794 65.178 14.3442 64.5061 14.7661C63.842 15.1802 63.0764 15.5083 62.2092 15.7505C62.2561 16.2349 62.3225 16.6763 62.4084 17.0747C62.5022 17.4731 62.6155 17.813 62.7483 18.0942C62.8889 18.3755 63.0491 18.5942 63.2287 18.7505C63.4162 18.9067 63.6311 18.9849 63.8733 18.9849C64.0295 18.9771 64.178 18.9497 64.3186 18.9028C64.4436 18.8638 64.5686 18.8013 64.6936 18.7153C64.8264 18.6294 64.9358 18.5044 65.0217 18.3403C64.8186 18.2466 64.6623 18.1255 64.553 17.9771C64.4436 17.8286 64.3616 17.688 64.3069 17.5552C64.2444 17.3989 64.2092 17.2349 64.2014 17.063C64.2014 16.688 64.2756 16.3833 64.4241 16.1489C64.5725 15.9146 64.7483 15.731 64.9514 15.5981C65.1545 15.4653 65.3616 15.3755 65.5725 15.3286C65.7834 15.2739 65.9514 15.2466 66.0764 15.2466C66.2092 15.2466 66.3694 15.2739 66.5569 15.3286C66.7522 15.3833 66.9397 15.4888 67.1194 15.645C67.2991 15.8013 67.4514 16.0239 67.5764 16.313C67.7092 16.5942 67.7756 16.9653 67.7756 17.4263ZM64.8811 10.0552C64.8811 9.77393 64.8537 9.5083 64.7991 9.2583C64.7522 9.00049 64.678 8.77783 64.5764 8.59033C64.4827 8.40283 64.3616 8.25439 64.2131 8.14502C64.0725 8.02783 63.9084 7.96924 63.7209 7.96924C63.4006 7.96924 63.1389 8.11768 62.9358 8.41455C62.7327 8.70361 62.5686 9.09033 62.4436 9.57471C62.3186 10.0591 62.2327 10.6177 62.1858 11.2505C62.1389 11.8833 62.1155 12.5435 62.1155 13.231V14.0864C62.5139 13.8755 62.8811 13.6255 63.217 13.3364C63.5608 13.0474 63.8537 12.731 64.0959 12.3872C64.3459 12.0356 64.5373 11.6646 64.6702 11.2739C64.8108 10.8833 64.8811 10.4771 64.8811 10.0552Z" fill="white"/>
<path d="M75.7552 20.063C75.7708 19.7505 75.7864 19.4536 75.802 19.1724C75.8255 18.8833 75.8489 18.606 75.8723 18.3403C75.6067 18.8091 75.3216 19.1685 75.0169 19.4185C74.72 19.6685 74.4427 19.856 74.1848 19.981C73.8802 20.1216 73.5794 20.2075 73.2825 20.2388C72.7044 20.2388 72.2005 20.0942 71.7708 19.8052C71.3411 19.5161 70.9856 19.106 70.7044 18.5747C70.4231 18.0435 70.2122 17.4067 70.0716 16.6646C69.9388 15.9146 69.8723 15.0786 69.8723 14.1567C69.8723 12.8677 69.9114 11.6177 69.9895 10.4067C70.0755 9.1958 70.2122 8.0083 70.3997 6.84424L73.3763 7.17236C73.1888 8.10205 73.0442 8.93408 72.9427 9.66846C72.8489 10.395 72.7786 11.0161 72.7317 11.5317C72.677 12.1333 72.6458 12.6567 72.638 13.1021C72.638 13.8442 72.6614 14.4927 72.7083 15.0474C72.7552 15.5942 72.8372 16.0513 72.9544 16.4185C73.0794 16.7778 73.2473 17.0474 73.4583 17.2271C73.6692 17.4067 73.9388 17.4966 74.2669 17.4966C74.4934 17.4575 74.7161 17.3013 74.9348 17.0278C75.0286 16.9106 75.1263 16.7622 75.2278 16.5825C75.3294 16.395 75.4309 16.1685 75.5325 15.9028C75.6341 15.6372 75.7317 15.3247 75.8255 14.9653C75.9192 14.606 76.0091 14.188 76.095 13.7114C76.1106 13.2505 76.1184 12.7935 76.1184 12.3403C76.1184 11.8794 76.1184 11.3833 76.1184 10.8521C76.1184 10.2896 76.1184 9.67627 76.1184 9.01221C76.1184 8.34814 76.1106 7.60205 76.095 6.77393L78.7552 6.8208C78.7161 7.41455 78.6848 7.96533 78.6614 8.47314C78.638 8.97314 78.6184 9.4458 78.6028 9.89111C78.595 10.3286 78.5872 10.7427 78.5794 11.1333C78.5716 11.5239 78.5677 11.9028 78.5677 12.27C78.5677 12.8325 78.5716 13.3833 78.5794 13.9224C78.595 14.4614 78.6145 15.0356 78.638 15.645C78.6614 16.2466 78.6848 16.9106 78.7083 17.6372C78.7395 18.356 78.7708 19.1802 78.802 20.1099L75.7552 20.063Z" fill="white"/>
<path d="M89.805 17.4263C89.805 17.8872 89.6995 18.3208 89.4886 18.7271C89.2777 19.1333 88.9925 19.4849 88.6331 19.7817C88.2738 20.0786 87.8519 20.313 87.3675 20.4849C86.8831 20.6567 86.3675 20.7427 85.8206 20.7427C85.4534 20.7427 85.0823 20.6919 84.7073 20.5903C84.3323 20.4888 83.973 20.3208 83.6292 20.0864C83.2855 19.852 82.9613 19.5435 82.6566 19.1606C82.3519 18.7778 82.0863 18.3091 81.8597 17.7544C81.6409 17.1997 81.4652 16.5513 81.3323 15.8091C81.2073 15.0591 81.1448 14.1997 81.1448 13.231C81.1448 12.3169 81.2073 11.5083 81.3323 10.8052C81.4652 10.1021 81.6409 9.48877 81.8597 8.96533C82.0863 8.44189 82.348 8.00439 82.6448 7.65283C82.9417 7.29346 83.2581 7.00439 83.5941 6.78564C83.9378 6.55908 84.2894 6.39893 84.6488 6.30518C85.0159 6.21143 85.3753 6.16455 85.7269 6.16455C86.2503 6.16455 86.7464 6.25049 87.2152 6.42236C87.6839 6.58643 88.0941 6.83252 88.4456 7.16064C88.7972 7.48877 89.0745 7.89502 89.2777 8.37939C89.4886 8.85596 89.5941 9.40674 89.5941 10.0317C89.5941 10.5942 89.4769 11.1646 89.2425 11.7427C89.0159 12.313 88.6761 12.856 88.223 13.3716C87.7698 13.8794 87.2073 14.3442 86.5355 14.7661C85.8714 15.1802 85.1058 15.5083 84.2386 15.7505C84.2855 16.2349 84.3519 16.6763 84.4378 17.0747C84.5316 17.4731 84.6448 17.813 84.7777 18.0942C84.9183 18.3755 85.0784 18.5942 85.2581 18.7505C85.4456 18.9067 85.6605 18.9849 85.9027 18.9849C86.0589 18.9771 86.2073 18.9497 86.348 18.9028C86.473 18.8638 86.598 18.8013 86.723 18.7153C86.8558 18.6294 86.9652 18.5044 87.0511 18.3403C86.848 18.2466 86.6917 18.1255 86.5823 17.9771C86.473 17.8286 86.3909 17.688 86.3363 17.5552C86.2738 17.3989 86.2386 17.2349 86.2308 17.063C86.2308 16.688 86.305 16.3833 86.4534 16.1489C86.6019 15.9146 86.7777 15.731 86.9808 15.5981C87.1839 15.4653 87.3909 15.3755 87.6019 15.3286C87.8128 15.2739 87.9808 15.2466 88.1058 15.2466C88.2386 15.2466 88.3988 15.2739 88.5863 15.3286C88.7816 15.3833 88.9691 15.4888 89.1488 15.645C89.3284 15.8013 89.4808 16.0239 89.6058 16.313C89.7386 16.5942 89.805 16.9653 89.805 17.4263ZM86.9105 10.0552C86.9105 9.77393 86.8831 9.5083 86.8284 9.2583C86.7816 9.00049 86.7073 8.77783 86.6058 8.59033C86.512 8.40283 86.3909 8.25439 86.2425 8.14502C86.1019 8.02783 85.9378 7.96924 85.7503 7.96924C85.43 7.96924 85.1683 8.11768 84.9652 8.41455C84.762 8.70361 84.598 9.09033 84.473 9.57471C84.348 10.0591 84.262 10.6177 84.2152 11.2505C84.1683 11.8833 84.1448 12.5435 84.1448 13.231V14.0864C84.5433 13.8755 84.9105 13.6255 85.2464 13.3364C85.5902 13.0474 85.8831 12.731 86.1253 12.3872C86.3753 12.0356 86.5667 11.6646 86.6995 11.2739C86.8402 10.8833 86.9105 10.4771 86.9105 10.0552Z" fill="white"/>
<path d="M95.0306 20.4263L91.9017 20.6606C92.0267 19.2622 92.1166 17.9146 92.1712 16.6177C92.2337 15.313 92.265 14.0083 92.265 12.7036C92.265 11.7817 92.2494 10.8599 92.2181 9.93799C92.1947 9.0083 92.1478 8.05518 92.0775 7.07861L94.7142 6.93799C94.6986 7.10986 94.6869 7.27783 94.6791 7.44189C94.6712 7.60596 94.6673 7.76611 94.6673 7.92236C94.9408 7.50049 95.2377 7.17236 95.558 6.93799C95.8861 6.6958 96.1908 6.52002 96.472 6.41064C96.7923 6.27783 97.1166 6.1958 97.4447 6.16455C98.015 6.16455 98.5033 6.25439 98.9095 6.43408C99.3158 6.60596 99.6478 6.83252 99.9056 7.11377C100.163 7.38721 100.351 7.6958 100.468 8.03955C100.585 8.37549 100.644 8.70361 100.644 9.02393C100.644 9.35205 100.609 9.68408 100.538 10.02C100.468 10.356 100.347 10.6606 100.175 10.9341C100.011 11.1997 99.7884 11.4185 99.5072 11.5903C99.2337 11.7544 98.8939 11.8364 98.4877 11.8364C98.0814 11.8364 97.7611 11.7622 97.5267 11.6138C97.2923 11.4653 97.1127 11.2896 96.9877 11.0864C96.8705 10.8755 96.7923 10.6606 96.7533 10.4419C96.722 10.2153 96.7064 10.0239 96.7064 9.86768C96.7064 9.7583 96.7259 9.63721 96.765 9.50439C96.8041 9.36377 96.8627 9.22314 96.9408 9.08252C97.0189 8.94189 97.1166 8.80518 97.2337 8.67236C97.3509 8.53174 97.4877 8.40283 97.6439 8.28564C97.597 8.27002 97.5462 8.2583 97.4916 8.25049C97.4447 8.24268 97.3978 8.23877 97.3509 8.23877C96.9603 8.23877 96.6127 8.36377 96.308 8.61377C96.0033 8.85596 95.7377 9.1958 95.5111 9.6333C95.2923 10.0708 95.1087 10.5864 94.9603 11.1802C94.8197 11.7739 94.7142 12.4224 94.6439 13.1255C94.683 14.3364 94.7377 15.5356 94.808 16.7231C94.8783 17.9106 94.9525 19.145 95.0306 20.4263Z" fill="white"/>
<path d="M108.284 20.063C108.299 19.7505 108.315 19.4536 108.33 19.1724C108.354 18.8833 108.377 18.606 108.401 18.3403C108.135 18.8091 107.85 19.1685 107.545 19.4185C107.248 19.6685 106.971 19.856 106.713 19.981C106.409 20.1216 106.108 20.2075 105.811 20.2388C105.233 20.2388 104.729 20.0942 104.299 19.8052C103.87 19.5161 103.514 19.106 103.233 18.5747C102.952 18.0435 102.741 17.4067 102.6 16.6646C102.467 15.9146 102.401 15.0786 102.401 14.1567C102.401 12.8677 102.44 11.6177 102.518 10.4067C102.604 9.1958 102.741 8.0083 102.928 6.84424L105.905 7.17236C105.717 8.10205 105.573 8.93408 105.471 9.66846C105.377 10.395 105.307 11.0161 105.26 11.5317C105.205 12.1333 105.174 12.6567 105.166 13.1021C105.166 13.8442 105.19 14.4927 105.237 15.0474C105.284 15.5942 105.366 16.0513 105.483 16.4185C105.608 16.7778 105.776 17.0474 105.987 17.2271C106.198 17.4067 106.467 17.4966 106.795 17.4966C107.022 17.4575 107.245 17.3013 107.463 17.0278C107.557 16.9106 107.655 16.7622 107.756 16.5825C107.858 16.395 107.959 16.1685 108.061 15.9028C108.162 15.6372 108.26 15.3247 108.354 14.9653C108.448 14.606 108.537 14.188 108.623 13.7114C108.639 13.2505 108.647 12.7935 108.647 12.3403C108.647 11.8794 108.647 11.3833 108.647 10.8521C108.647 10.2896 108.647 9.67627 108.647 9.01221C108.647 8.34814 108.639 7.60205 108.623 6.77393L111.284 6.8208C111.245 7.41455 111.213 7.96533 111.19 8.47314C111.166 8.97314 111.147 9.4458 111.131 9.89111C111.123 10.3286 111.116 10.7427 111.108 11.1333C111.1 11.5239 111.096 11.9028 111.096 12.27C111.096 12.8325 111.1 13.3833 111.108 13.9224C111.123 14.4614 111.143 15.0356 111.166 15.645C111.19 16.2466 111.213 16.9106 111.237 17.6372C111.268 18.356 111.299 19.1802 111.33 20.1099L108.284 20.063Z" fill="white"/>
<path d="M117.06 6.96143L116.99 7.92236C117.247 7.49268 117.521 7.16455 117.81 6.93799C118.107 6.71143 118.38 6.55127 118.63 6.45752C118.88 6.36377 119.087 6.31299 119.251 6.30518C119.423 6.29736 119.517 6.29346 119.533 6.29346C120.111 6.29346 120.615 6.42627 121.044 6.6919C121.474 6.95752 121.83 7.34424 122.111 7.85205C122.392 8.35205 122.599 8.96533 122.732 9.69189C122.872 10.4106 122.943 11.2271 122.943 12.1411C122.943 12.813 122.931 13.5005 122.908 14.2036C122.892 14.8989 122.853 15.5942 122.79 16.2896C122.736 16.9771 122.658 17.6489 122.556 18.3052C122.462 18.9614 122.333 19.5864 122.169 20.1802L119.439 19.852C119.619 18.9224 119.759 18.0552 119.861 17.2505C119.962 16.4458 120.037 15.7427 120.083 15.1411C120.138 14.438 120.169 13.7935 120.177 13.2075C120.177 12.4653 120.154 11.8208 120.107 11.2739C120.06 10.7192 119.974 10.2622 119.849 9.90283C119.732 9.53564 119.568 9.26221 119.357 9.08252C119.146 8.90283 118.876 8.81299 118.548 8.81299C118.33 8.85986 118.111 9.01611 117.892 9.28174C117.705 9.5083 117.505 9.87158 117.294 10.3716C117.083 10.8638 116.9 11.5591 116.744 12.4575C116.72 13.0669 116.705 13.6724 116.697 14.2739C116.697 14.8677 116.697 15.5005 116.697 16.1724C116.697 16.7427 116.697 17.356 116.697 18.0122C116.697 18.6685 116.705 19.4106 116.72 20.2388L114.06 20.1802C114.083 19.3833 114.099 18.5396 114.107 17.6489C114.122 16.7505 114.13 15.7544 114.13 14.6606C114.13 13.5747 114.122 12.3989 114.107 11.1333C114.091 9.86768 114.06 8.46143 114.013 6.91455L117.06 6.96143Z" fill="white"/>
<path d="M134.297 6.8208C134.258 7.28174 134.219 7.7583 134.18 8.25049C134.149 8.73486 134.118 9.22314 134.086 9.71533C134.055 10.1997 134.028 10.6802 134.004 11.1567C133.989 11.6255 133.973 12.0708 133.957 12.4927C133.918 13.4927 133.891 14.4731 133.875 15.4341C133.829 16.356 133.801 17.27 133.793 18.1763C133.793 19.0747 133.766 19.9302 133.711 20.7427C133.657 21.563 133.551 22.3208 133.395 23.0161C133.247 23.7192 133 24.3247 132.657 24.8325C132.313 25.3481 131.848 25.7505 131.262 26.0395C130.684 26.3286 129.938 26.4731 129.024 26.4731C128.329 26.4731 127.774 26.3716 127.36 26.1685C126.954 25.9731 126.641 25.731 126.422 25.4419C126.211 25.1606 126.071 24.8599 126 24.5395C125.938 24.2192 125.907 23.9341 125.907 23.6841C125.907 23.4185 125.946 23.1685 126.024 22.9341C126.11 22.7075 126.227 22.5083 126.375 22.3364C126.524 22.1645 126.704 22.0278 126.915 21.9263C127.133 21.8247 127.379 21.7739 127.653 21.7739C127.942 21.7739 128.196 21.8286 128.415 21.938C128.641 22.0474 128.829 22.188 128.977 22.3599C129.133 22.5395 129.25 22.7388 129.329 22.9575C129.415 23.1763 129.457 23.395 129.457 23.6138C129.442 23.7388 129.411 23.8677 129.364 24.0005C129.317 24.1099 129.247 24.231 129.153 24.3638C129.067 24.5044 128.934 24.6411 128.754 24.7739C128.934 24.8364 129.102 24.8677 129.258 24.8677C129.461 24.8677 129.676 24.8052 129.903 24.6802C130.129 24.563 130.336 24.3755 130.524 24.1177C130.711 23.8599 130.868 23.5356 130.993 23.145C131.118 22.7544 131.188 22.2895 131.204 21.7505L131.25 18.5044C130.946 19.02 130.633 19.4224 130.313 19.7114C130 19.9927 129.715 20.1997 129.457 20.3325C129.153 20.4888 128.864 20.5825 128.59 20.6138C128.192 20.6138 127.79 20.5005 127.383 20.2739C126.977 20.0474 126.61 19.6567 126.282 19.102C125.954 18.5474 125.684 17.8091 125.473 16.8872C125.262 15.9575 125.157 14.7935 125.157 13.395C125.157 12.4731 125.211 11.6606 125.321 10.9575C125.43 10.2466 125.579 9.62939 125.766 9.10596C125.954 8.58252 126.172 8.14502 126.422 7.79346C126.68 7.43408 126.954 7.14502 127.243 6.92627C127.54 6.70752 127.848 6.55127 128.168 6.45752C128.489 6.36377 128.805 6.31689 129.118 6.31689C129.36 6.33252 129.61 6.38721 129.868 6.48096C130.094 6.56689 130.348 6.69971 130.629 6.87939C130.911 7.05908 131.192 7.31689 131.473 7.65283L131.543 6.52783L134.297 6.8208ZM131.403 9.79736C131.223 9.49268 131.012 9.22705 130.77 9.00049C130.536 8.77393 130.274 8.66064 129.985 8.66064C129.766 8.66064 129.543 8.73877 129.317 8.89502C129.098 9.04346 128.899 9.30518 128.719 9.68018C128.54 10.0474 128.391 10.5396 128.274 11.1567C128.165 11.7739 128.11 12.5513 128.11 13.4888C128.11 14.356 128.149 15.0747 128.227 15.645C128.305 16.2153 128.411 16.6724 128.543 17.0161C128.676 17.3521 128.829 17.5903 129 17.731C129.172 17.8638 129.356 17.9302 129.551 17.9302C129.809 17.9302 130.032 17.8521 130.219 17.6958C130.415 17.5396 130.579 17.3521 130.711 17.1333C130.844 16.9067 130.954 16.6724 131.04 16.4302C131.133 16.188 131.211 15.9771 131.274 15.7974C131.29 14.7739 131.305 13.7661 131.321 12.7739C131.336 11.7817 131.364 10.7896 131.403 9.79736Z" fill="white"/>
<path d="M8.71875 20.1333C8.73438 19.4849 8.75 18.813 8.76562 18.1177C8.78125 17.4145 8.78906 16.6958 8.78906 15.9614H3.04688L3 14.1099C3.10156 13.9771 3.25 13.7192 3.44531 13.3364C3.64062 12.9536 3.86328 12.4966 4.11328 11.9653C4.37109 11.4263 4.64453 10.8364 4.93359 10.1958C5.23047 9.55518 5.52344 8.91064 5.8125 8.26221C6.49219 6.74658 7.23438 5.06689 8.03906 3.22314H11.543C11.5273 3.70752 11.5117 4.20361 11.4961 4.71143C11.4883 5.21143 11.4805 5.70752 11.4727 6.19971C11.4648 6.68408 11.457 7.15283 11.4492 7.60596C11.4492 8.05908 11.4492 8.47705 11.4492 8.85986C11.4492 9.76611 11.4531 10.5825 11.4609 11.3091C11.4688 12.0356 11.4805 12.7466 11.4961 13.4419H12.6328V15.9614H11.6016C11.625 16.5708 11.6523 17.2036 11.6836 17.8599C11.7227 18.5161 11.7656 19.1724 11.8125 19.8286L8.71875 20.1333ZM8.8125 11.6138C8.8125 10.9028 8.8125 10.2075 8.8125 9.52783C8.8125 8.84033 8.80469 8.17627 8.78906 7.53564L6.12891 13.4419H8.8125V11.6138Z" stroke="black" stroke-width="4.59152" stroke-linejoin="round" mask="url(#path-1-outside-1_1623_9711)"/>
<path d="M18.21 9.64502C18.21 9.85596 18.167 10.0552 18.0811 10.2427C18.003 10.4302 17.8936 10.5942 17.753 10.7349C17.6202 10.8677 17.46 10.9771 17.2725 11.063C17.085 11.1411 16.8858 11.1802 16.6748 11.1802C16.4561 11.1802 16.253 11.1411 16.0655 11.063C15.878 10.9771 15.7139 10.8677 15.5733 10.7349C15.4327 10.5942 15.3194 10.4302 15.2334 10.2427C15.1553 10.0552 15.1163 9.85596 15.1163 9.64502C15.1163 9.43408 15.1553 9.23486 15.2334 9.04736C15.3194 8.85205 15.4327 8.68408 15.5733 8.54346C15.7139 8.40283 15.878 8.29346 16.0655 8.21533C16.253 8.12939 16.4561 8.08643 16.6748 8.08643C16.8858 8.08643 17.085 8.12939 17.2725 8.21533C17.46 8.29346 17.6202 8.40283 17.753 8.54346C17.8936 8.68408 18.003 8.85205 18.0811 9.04736C18.167 9.23486 18.21 9.43408 18.21 9.64502ZM18.21 18.8442C18.21 19.0552 18.167 19.2544 18.0811 19.4419C18.003 19.6216 17.8936 19.7817 17.753 19.9224C17.6202 20.063 17.46 20.1724 17.2725 20.2505C17.085 20.3364 16.8858 20.3794 16.6748 20.3794C16.4561 20.3794 16.253 20.3364 16.0655 20.2505C15.878 20.1724 15.7139 20.063 15.5733 19.9224C15.4327 19.7817 15.3194 19.6216 15.2334 19.4419C15.1553 19.2544 15.1163 19.0552 15.1163 18.8442C15.1163 18.6255 15.1553 18.4224 15.2334 18.2349C15.3194 18.0474 15.4327 17.8833 15.5733 17.7427C15.7139 17.6021 15.878 17.4927 16.0655 17.4146C16.253 17.3286 16.4561 17.2856 16.6748 17.2856C16.8858 17.2856 17.085 17.3286 17.2725 17.4146C17.46 17.4927 17.6202 17.6021 17.753 17.7427C17.8936 17.8833 18.003 18.0474 18.0811 18.2349C18.167 18.4224 18.21 18.6255 18.21 18.8442Z" stroke="black" stroke-width="4.59152" stroke-linejoin="round" mask="url(#path-1-outside-1_1623_9711)"/>
<path d="M35.3409 20.2153C34.7081 20.1997 34.1183 20.188 33.5714 20.1802C33.0323 20.1802 32.5206 20.1802 32.0362 20.1802C31.0909 20.1802 30.298 20.188 29.6573 20.2036C29.0245 20.227 28.5089 20.2466 28.1105 20.2622C27.6417 20.2856 27.2706 20.3091 26.9972 20.3325C27.0519 19.8091 27.0987 19.2817 27.1378 18.7505C27.1847 18.2192 27.2237 17.6958 27.255 17.1802C27.2862 16.6646 27.3136 16.1685 27.337 15.6919C27.3605 15.2153 27.38 14.7661 27.3956 14.3442C27.4269 13.3599 27.4464 12.4185 27.4542 11.52C27.4464 10.5825 27.4269 9.62158 27.3956 8.63721C27.38 8.21533 27.3605 7.77393 27.337 7.31299C27.3136 6.84424 27.2862 6.36768 27.255 5.8833C27.2237 5.39893 27.1847 4.91455 27.1378 4.43018C27.0987 3.93799 27.0519 3.46143 26.9972 3.00049C27.9737 3.03955 28.8448 3.0708 29.6105 3.09424C30.3839 3.10986 31.0714 3.11768 31.673 3.11768C32.2667 3.11768 32.7784 3.11377 33.2081 3.10596C33.6378 3.09033 33.9894 3.07471 34.2628 3.05908C34.5831 3.04346 34.8956 3.08262 35.1066 3.05918C35.1066 3.05137 35.0597 3.06299 35.0597 3.21143C35.0597 3.35986 35.0636 3.55518 35.0714 3.79736C35.0792 4.03955 35.0909 4.31299 35.1066 4.61768C35.13 4.92236 35.1612 5.23096 35.2003 5.54346C34.2941 5.45752 33.5011 5.40283 32.8214 5.37939C32.1417 5.34814 31.5597 5.33252 31.0753 5.33252C30.8722 5.33252 30.6925 5.33252 30.5362 5.33252C30.3878 5.33252 30.2472 5.34033 30.1144 5.35596C30.0987 6.22314 30.087 7.03955 30.0792 7.80518C30.0714 8.56299 30.0675 9.28174 30.0675 9.96143C30.6144 9.9458 31.1027 9.92627 31.5323 9.90283C31.962 9.87158 32.3292 9.83643 32.6339 9.79736C32.9855 9.7583 33.298 9.71533 33.5714 9.66846C33.5636 9.72314 33.5597 9.78564 33.5597 9.85596C33.5519 9.91846 33.548 9.99268 33.548 10.0786C33.548 10.1646 33.548 10.2622 33.548 10.3716C33.548 10.6216 33.5558 10.9224 33.5714 11.2739C33.587 11.6177 33.6183 11.9888 33.6652 12.3872C32.8214 12.2778 32.0948 12.2114 31.4855 12.188C30.8761 12.1567 30.4034 12.1411 30.0675 12.1411C30.0675 12.9536 30.0714 13.6802 30.0792 14.3208C30.087 14.9536 30.0948 15.5122 30.1027 15.9966C30.1183 16.481 30.13 16.895 30.1378 17.2388C30.1534 17.5825 30.1691 17.8677 30.1847 18.0942C30.9816 18.0786 31.6925 18.0396 32.3175 17.9771C32.9425 17.9146 33.4698 17.8521 33.8995 17.7896C34.3292 17.7192 34.6573 17.6567 34.8839 17.6021C35.1105 17.5474 35.2237 17.5122 35.2237 17.4966C35.2159 17.5356 35.212 17.5786 35.212 17.6255C35.2042 17.6646 35.2003 17.7153 35.2003 17.7778C35.2003 17.8403 35.2003 17.9145 35.2003 18.0005C35.2003 18.2192 35.2081 18.5122 35.2237 18.8794C35.2394 19.2466 35.2784 19.6919 35.3409 20.2153Z" stroke="black" stroke-width="4.59152" stroke-linejoin="round" mask="url(#path-1-outside-1_1623_9711)"/>
<path d="M40.4728 20.4263L37.3439 20.6606C37.4689 19.2622 37.5588 17.9146 37.6134 16.6177C37.6759 15.313 37.7072 14.0083 37.7072 12.7036C37.7072 11.7817 37.6916 10.8599 37.6603 9.93799C37.6369 9.0083 37.59 8.05518 37.5197 7.07861L40.1564 6.93799C40.1408 7.10986 40.1291 7.27783 40.1213 7.44189C40.1134 7.60596 40.1095 7.76611 40.1095 7.92236C40.383 7.50049 40.6798 7.17236 41.0002 6.93799C41.3283 6.6958 41.633 6.52002 41.9142 6.41064C42.2345 6.27783 42.5588 6.1958 42.8869 6.16455C43.4572 6.16455 43.9455 6.25439 44.3517 6.43408C44.758 6.60596 45.09 6.83252 45.3478 7.11377C45.6056 7.38721 45.7931 7.6958 45.9103 8.03955C46.0275 8.37549 46.0861 8.70361 46.0861 9.02393C46.0861 9.35205 46.0509 9.68408 45.9806 10.02C45.9103 10.356 45.7892 10.6606 45.6173 10.9341C45.4533 11.1997 45.2306 11.4185 44.9494 11.5903C44.6759 11.7544 44.3361 11.8364 43.9298 11.8364C43.5236 11.8364 43.2033 11.7622 42.9689 11.6138C42.7345 11.4653 42.5548 11.2896 42.4298 11.0864C42.3127 10.8755 42.2345 10.6606 42.1955 10.4419C42.1642 10.2153 42.1486 10.0239 42.1486 9.86768C42.1486 9.7583 42.1681 9.63721 42.2072 9.50439C42.2463 9.36377 42.3048 9.22314 42.383 9.08252C42.4611 8.94189 42.5588 8.80518 42.6759 8.67236C42.7931 8.53174 42.9298 8.40283 43.0861 8.28564C43.0392 8.27002 42.9884 8.2583 42.9338 8.25049C42.8869 8.24268 42.84 8.23877 42.7931 8.23877C42.4025 8.23877 42.0548 8.36377 41.7502 8.61377C41.4455 8.85596 41.1798 9.1958 40.9533 9.6333C40.7345 10.0708 40.5509 10.5864 40.4025 11.1802C40.2619 11.7739 40.1564 12.4224 40.0861 13.1255C40.1252 14.3364 40.1798 15.5356 40.2502 16.7231C40.3205 17.9106 40.3947 19.145 40.4728 20.4263Z" stroke="black" stroke-width="4.59152" stroke-linejoin="round" mask="url(#path-1-outside-1_1623_9711)"/>
<path d="M51.0656 6.96143L50.9953 7.92236C51.2531 7.49268 51.5266 7.16455 51.8156 6.93799C52.1125 6.71143 52.3859 6.55127 52.6359 6.45752C52.8859 6.36377 53.093 6.31299 53.257 6.30518C53.4289 6.29736 53.5227 6.29346 53.5383 6.29346C54.1164 6.29346 54.6203 6.42627 55.05 6.6919C55.4797 6.95752 55.8352 7.34424 56.1164 7.85205C56.3977 8.35205 56.6047 8.96533 56.7375 9.69189C56.8781 10.4106 56.9484 11.2271 56.9484 12.1411C56.9484 12.813 56.9367 13.5005 56.9133 14.2036C56.8977 14.8989 56.8586 15.5942 56.7961 16.2896C56.7414 16.9771 56.6633 17.6489 56.5617 18.3052C56.468 18.9614 56.3391 19.5864 56.175 20.1802L53.4445 19.852C53.6242 18.9224 53.7648 18.0552 53.8664 17.2505C53.968 16.4458 54.0422 15.7427 54.0891 15.1411C54.1437 14.438 54.175 13.7935 54.1828 13.2075C54.1828 12.4653 54.1594 11.8208 54.1125 11.2739C54.0656 10.7192 53.9797 10.2622 53.8547 9.90283C53.7375 9.53564 53.5734 9.26221 53.3625 9.08252C53.1516 8.90283 52.882 8.81299 52.5539 8.81299C52.3352 8.85986 52.1164 9.01611 51.8977 9.28174C51.7102 9.5083 51.5109 9.87158 51.3 10.3716C51.0891 10.8638 50.9055 11.5591 50.7492 12.4575C50.7258 13.0669 50.7102 13.6724 50.7023 14.2739C50.7023 14.8677 50.7023 15.5005 50.7023 16.1724C50.7023 16.7427 50.7023 17.356 50.7023 18.0122C50.7023 18.6685 50.7102 19.4106 50.7258 20.2388L48.0656 20.1802C48.0891 19.3833 48.1047 18.5396 48.1125 17.6489C48.1281 16.7505 48.1359 15.7544 48.1359 14.6606C48.1359 13.5747 48.1281 12.3989 48.1125 11.1333C48.0969 9.86768 48.0656 8.46143 48.0187 6.91455L51.0656 6.96143Z" stroke="black" stroke-width="4.59152" stroke-linejoin="round" mask="url(#path-1-outside-1_1623_9711)"/>
<path d="M67.7756 17.4263C67.7756 17.8872 67.6702 18.3208 67.4592 18.7271C67.2483 19.1333 66.9631 19.4849 66.6037 19.7817C66.2444 20.0786 65.8225 20.313 65.3381 20.4849C64.8537 20.6567 64.3381 20.7427 63.7912 20.7427C63.4241 20.7427 63.053 20.6919 62.678 20.5903C62.303 20.4888 61.9436 20.3208 61.5998 20.0864C61.2561 19.852 60.9319 19.5435 60.6272 19.1606C60.3225 18.7778 60.0569 18.3091 59.8303 17.7544C59.6116 17.1997 59.4358 16.5513 59.303 15.8091C59.178 15.0591 59.1155 14.1997 59.1155 13.231C59.1155 12.3169 59.178 11.5083 59.303 10.8052C59.4358 10.1021 59.6116 9.48877 59.8303 8.96533C60.0569 8.44189 60.3186 8.00439 60.6155 7.65283C60.9123 7.29346 61.2287 7.00439 61.5647 6.78564C61.9084 6.55908 62.26 6.39893 62.6194 6.30518C62.9866 6.21143 63.3459 6.16455 63.6975 6.16455C64.2209 6.16455 64.717 6.25049 65.1858 6.42236C65.6545 6.58643 66.0647 6.83252 66.4162 7.16064C66.7678 7.48877 67.0452 7.89502 67.2483 8.37939C67.4592 8.85596 67.5647 9.40674 67.5647 10.0317C67.5647 10.5942 67.4475 11.1646 67.2131 11.7427C66.9866 12.313 66.6467 12.856 66.1936 13.3716C65.7405 13.8794 65.178 14.3442 64.5061 14.7661C63.842 15.1802 63.0764 15.5083 62.2092 15.7505C62.2561 16.2349 62.3225 16.6763 62.4084 17.0747C62.5022 17.4731 62.6155 17.813 62.7483 18.0942C62.8889 18.3755 63.0491 18.5942 63.2287 18.7505C63.4162 18.9067 63.6311 18.9849 63.8733 18.9849C64.0295 18.9771 64.178 18.9497 64.3186 18.9028C64.4436 18.8638 64.5686 18.8013 64.6936 18.7153C64.8264 18.6294 64.9358 18.5044 65.0217 18.3403C64.8186 18.2466 64.6623 18.1255 64.553 17.9771C64.4436 17.8286 64.3616 17.688 64.3069 17.5552C64.2444 17.3989 64.2092 17.2349 64.2014 17.063C64.2014 16.688 64.2756 16.3833 64.4241 16.1489C64.5725 15.9146 64.7483 15.731 64.9514 15.5981C65.1545 15.4653 65.3616 15.3755 65.5725 15.3286C65.7834 15.2739 65.9514 15.2466 66.0764 15.2466C66.2092 15.2466 66.3694 15.2739 66.5569 15.3286C66.7522 15.3833 66.9397 15.4888 67.1194 15.645C67.2991 15.8013 67.4514 16.0239 67.5764 16.313C67.7092 16.5942 67.7756 16.9653 67.7756 17.4263ZM64.8811 10.0552C64.8811 9.77393 64.8537 9.5083 64.7991 9.2583C64.7522 9.00049 64.678 8.77783 64.5764 8.59033C64.4827 8.40283 64.3616 8.25439 64.2131 8.14502C64.0725 8.02783 63.9084 7.96924 63.7209 7.96924C63.4006 7.96924 63.1389 8.11768 62.9358 8.41455C62.7327 8.70361 62.5686 9.09033 62.4436 9.57471C62.3186 10.0591 62.2327 10.6177 62.1858 11.2505C62.1389 11.8833 62.1155 12.5435 62.1155 13.231V14.0864C62.5139 13.8755 62.8811 13.6255 63.217 13.3364C63.5608 13.0474 63.8537 12.731 64.0959 12.3872C64.3459 12.0356 64.5373 11.6646 64.6702 11.2739C64.8108 10.8833 64.8811 10.4771 64.8811 10.0552Z" stroke="black" stroke-width="4.59152" stroke-linejoin="round" mask="url(#path-1-outside-1_1623_9711)"/>
<path d="M75.7552 20.063C75.7708 19.7505 75.7864 19.4536 75.802 19.1724C75.8255 18.8833 75.8489 18.606 75.8723 18.3403C75.6067 18.8091 75.3216 19.1685 75.0169 19.4185C74.72 19.6685 74.4427 19.856 74.1848 19.981C73.8802 20.1216 73.5794 20.2075 73.2825 20.2388C72.7044 20.2388 72.2005 20.0942 71.7708 19.8052C71.3411 19.5161 70.9856 19.106 70.7044 18.5747C70.4231 18.0435 70.2122 17.4067 70.0716 16.6646C69.9388 15.9146 69.8723 15.0786 69.8723 14.1567C69.8723 12.8677 69.9114 11.6177 69.9895 10.4067C70.0755 9.1958 70.2122 8.0083 70.3997 6.84424L73.3763 7.17236C73.1888 8.10205 73.0442 8.93408 72.9427 9.66846C72.8489 10.395 72.7786 11.0161 72.7317 11.5317C72.677 12.1333 72.6458 12.6567 72.638 13.1021C72.638 13.8442 72.6614 14.4927 72.7083 15.0474C72.7552 15.5942 72.8372 16.0513 72.9544 16.4185C73.0794 16.7778 73.2473 17.0474 73.4583 17.2271C73.6692 17.4067 73.9388 17.4966 74.2669 17.4966C74.4934 17.4575 74.7161 17.3013 74.9348 17.0278C75.0286 16.9106 75.1263 16.7622 75.2278 16.5825C75.3294 16.395 75.4309 16.1685 75.5325 15.9028C75.6341 15.6372 75.7317 15.3247 75.8255 14.9653C75.9192 14.606 76.0091 14.188 76.095 13.7114C76.1106 13.2505 76.1184 12.7935 76.1184 12.3403C76.1184 11.8794 76.1184 11.3833 76.1184 10.8521C76.1184 10.2896 76.1184 9.67627 76.1184 9.01221C76.1184 8.34814 76.1106 7.60205 76.095 6.77393L78.7552 6.8208C78.7161 7.41455 78.6848 7.96533 78.6614 8.47314C78.638 8.97314 78.6184 9.4458 78.6028 9.89111C78.595 10.3286 78.5872 10.7427 78.5794 11.1333C78.5716 11.5239 78.5677 11.9028 78.5677 12.27C78.5677 12.8325 78.5716 13.3833 78.5794 13.9224C78.595 14.4614 78.6145 15.0356 78.638 15.645C78.6614 16.2466 78.6848 16.9106 78.7083 17.6372C78.7395 18.356 78.7708 19.1802 78.802 20.1099L75.7552 20.063Z" stroke="black" stroke-width="4.59152" stroke-linejoin="round" mask="url(#path-1-outside-1_1623_9711)"/>
<path d="M89.805 17.4263C89.805 17.8872 89.6995 18.3208 89.4886 18.7271C89.2777 19.1333 88.9925 19.4849 88.6331 19.7817C88.2738 20.0786 87.8519 20.313 87.3675 20.4849C86.8831 20.6567 86.3675 20.7427 85.8206 20.7427C85.4534 20.7427 85.0823 20.6919 84.7073 20.5903C84.3323 20.4888 83.973 20.3208 83.6292 20.0864C83.2855 19.852 82.9613 19.5435 82.6566 19.1606C82.3519 18.7778 82.0863 18.3091 81.8597 17.7544C81.6409 17.1997 81.4652 16.5513 81.3323 15.8091C81.2073 15.0591 81.1448 14.1997 81.1448 13.231C81.1448 12.3169 81.2073 11.5083 81.3323 10.8052C81.4652 10.1021 81.6409 9.48877 81.8597 8.96533C82.0863 8.44189 82.348 8.00439 82.6448 7.65283C82.9417 7.29346 83.2581 7.00439 83.5941 6.78564C83.9378 6.55908 84.2894 6.39893 84.6488 6.30518C85.0159 6.21143 85.3753 6.16455 85.7269 6.16455C86.2503 6.16455 86.7464 6.25049 87.2152 6.42236C87.6839 6.58643 88.0941 6.83252 88.4456 7.16064C88.7972 7.48877 89.0745 7.89502 89.2777 8.37939C89.4886 8.85596 89.5941 9.40674 89.5941 10.0317C89.5941 10.5942 89.4769 11.1646 89.2425 11.7427C89.0159 12.313 88.6761 12.856 88.223 13.3716C87.7698 13.8794 87.2073 14.3442 86.5355 14.7661C85.8714 15.1802 85.1058 15.5083 84.2386 15.7505C84.2855 16.2349 84.3519 16.6763 84.4378 17.0747C84.5316 17.4731 84.6448 17.813 84.7777 18.0942C84.9183 18.3755 85.0784 18.5942 85.2581 18.7505C85.4456 18.9067 85.6605 18.9849 85.9027 18.9849C86.0589 18.9771 86.2073 18.9497 86.348 18.9028C86.473 18.8638 86.598 18.8013 86.723 18.7153C86.8558 18.6294 86.9652 18.5044 87.0511 18.3403C86.848 18.2466 86.6917 18.1255 86.5823 17.9771C86.473 17.8286 86.3909 17.688 86.3363 17.5552C86.2738 17.3989 86.2386 17.2349 86.2308 17.063C86.2308 16.688 86.305 16.3833 86.4534 16.1489C86.6019 15.9146 86.7777 15.731 86.9808 15.5981C87.1839 15.4653 87.3909 15.3755 87.6019 15.3286C87.8128 15.2739 87.9808 15.2466 88.1058 15.2466C88.2386 15.2466 88.3988 15.2739 88.5863 15.3286C88.7816 15.3833 88.9691 15.4888 89.1488 15.645C89.3284 15.8013 89.4808 16.0239 89.6058 16.313C89.7386 16.5942 89.805 16.9653 89.805 17.4263ZM86.9105 10.0552C86.9105 9.77393 86.8831 9.5083 86.8284 9.2583C86.7816 9.00049 86.7073 8.77783 86.6058 8.59033C86.512 8.40283 86.3909 8.25439 86.2425 8.14502C86.1019 8.02783 85.9378 7.96924 85.7503 7.96924C85.43 7.96924 85.1683 8.11768 84.9652 8.41455C84.762 8.70361 84.598 9.09033 84.473 9.57471C84.348 10.0591 84.262 10.6177 84.2152 11.2505C84.1683 11.8833 84.1448 12.5435 84.1448 13.231V14.0864C84.5433 13.8755 84.9105 13.6255 85.2464 13.3364C85.5902 13.0474 85.8831 12.731 86.1253 12.3872C86.3753 12.0356 86.5667 11.6646 86.6995 11.2739C86.8402 10.8833 86.9105 10.4771 86.9105 10.0552Z" stroke="black" stroke-width="4.59152" stroke-linejoin="round" mask="url(#path-1-outside-1_1623_9711)"/>
<path d="M95.0306 20.4263L91.9017 20.6606C92.0267 19.2622 92.1166 17.9146 92.1712 16.6177C92.2337 15.313 92.265 14.0083 92.265 12.7036C92.265 11.7817 92.2494 10.8599 92.2181 9.93799C92.1947 9.0083 92.1478 8.05518 92.0775 7.07861L94.7142 6.93799C94.6986 7.10986 94.6869 7.27783 94.6791 7.44189C94.6712 7.60596 94.6673 7.76611 94.6673 7.92236C94.9408 7.50049 95.2377 7.17236 95.558 6.93799C95.8861 6.6958 96.1908 6.52002 96.472 6.41064C96.7923 6.27783 97.1166 6.1958 97.4447 6.16455C98.015 6.16455 98.5033 6.25439 98.9095 6.43408C99.3158 6.60596 99.6478 6.83252 99.9056 7.11377C100.163 7.38721 100.351 7.6958 100.468 8.03955C100.585 8.37549 100.644 8.70361 100.644 9.02393C100.644 9.35205 100.609 9.68408 100.538 10.02C100.468 10.356 100.347 10.6606 100.175 10.9341C100.011 11.1997 99.7884 11.4185 99.5072 11.5903C99.2337 11.7544 98.8939 11.8364 98.4877 11.8364C98.0814 11.8364 97.7611 11.7622 97.5267 11.6138C97.2923 11.4653 97.1127 11.2896 96.9877 11.0864C96.8705 10.8755 96.7923 10.6606 96.7533 10.4419C96.722 10.2153 96.7064 10.0239 96.7064 9.86768C96.7064 9.7583 96.7259 9.63721 96.765 9.50439C96.8041 9.36377 96.8627 9.22314 96.9408 9.08252C97.0189 8.94189 97.1166 8.80518 97.2337 8.67236C97.3509 8.53174 97.4877 8.40283 97.6439 8.28564C97.597 8.27002 97.5462 8.2583 97.4916 8.25049C97.4447 8.24268 97.3978 8.23877 97.3509 8.23877C96.9603 8.23877 96.6127 8.36377 96.308 8.61377C96.0033 8.85596 95.7377 9.1958 95.5111 9.6333C95.2923 10.0708 95.1087 10.5864 94.9603 11.1802C94.8197 11.7739 94.7142 12.4224 94.6439 13.1255C94.683 14.3364 94.7377 15.5356 94.808 16.7231C94.8783 17.9106 94.9525 19.145 95.0306 20.4263Z" stroke="black" stroke-width="4.59152" stroke-linejoin="round" mask="url(#path-1-outside-1_1623_9711)"/>
<path d="M108.284 20.063C108.299 19.7505 108.315 19.4536 108.33 19.1724C108.354 18.8833 108.377 18.606 108.401 18.3403C108.135 18.8091 107.85 19.1685 107.545 19.4185C107.248 19.6685 106.971 19.856 106.713 19.981C106.409 20.1216 106.108 20.2075 105.811 20.2388C105.233 20.2388 104.729 20.0942 104.299 19.8052C103.87 19.5161 103.514 19.106 103.233 18.5747C102.952 18.0435 102.741 17.4067 102.6 16.6646C102.467 15.9146 102.401 15.0786 102.401 14.1567C102.401 12.8677 102.44 11.6177 102.518 10.4067C102.604 9.1958 102.741 8.0083 102.928 6.84424L105.905 7.17236C105.717 8.10205 105.573 8.93408 105.471 9.66846C105.377 10.395 105.307 11.0161 105.26 11.5317C105.205 12.1333 105.174 12.6567 105.166 13.1021C105.166 13.8442 105.19 14.4927 105.237 15.0474C105.284 15.5942 105.366 16.0513 105.483 16.4185C105.608 16.7778 105.776 17.0474 105.987 17.2271C106.198 17.4067 106.467 17.4966 106.795 17.4966C107.022 17.4575 107.245 17.3013 107.463 17.0278C107.557 16.9106 107.655 16.7622 107.756 16.5825C107.858 16.395 107.959 16.1685 108.061 15.9028C108.162 15.6372 108.26 15.3247 108.354 14.9653C108.448 14.606 108.537 14.188 108.623 13.7114C108.639 13.2505 108.647 12.7935 108.647 12.3403C108.647 11.8794 108.647 11.3833 108.647 10.8521C108.647 10.2896 108.647 9.67627 108.647 9.01221C108.647 8.34814 108.639 7.60205 108.623 6.77393L111.284 6.8208C111.245 7.41455 111.213 7.96533 111.19 8.47314C111.166 8.97314 111.147 9.4458 111.131 9.89111C111.123 10.3286 111.116 10.7427 111.108 11.1333C111.1 11.5239 111.096 11.9028 111.096 12.27C111.096 12.8325 111.1 13.3833 111.108 13.9224C111.123 14.4614 111.143 15.0356 111.166 15.645C111.19 16.2466 111.213 16.9106 111.237 17.6372C111.268 18.356 111.299 19.1802 111.33 20.1099L108.284 20.063Z" stroke="black" stroke-width="4.59152" stroke-linejoin="round" mask="url(#path-1-outside-1_1623_9711)"/>
<path d="M117.06 6.96143L116.99 7.92236C117.247 7.49268 117.521 7.16455 117.81 6.93799C118.107 6.71143 118.38 6.55127 118.63 6.45752C118.88 6.36377 119.087 6.31299 119.251 6.30518C119.423 6.29736 119.517 6.29346 119.533 6.29346C120.111 6.29346 120.615 6.42627 121.044 6.6919C121.474 6.95752 121.83 7.34424 122.111 7.85205C122.392 8.35205 122.599 8.96533 122.732 9.69189C122.872 10.4106 122.943 11.2271 122.943 12.1411C122.943 12.813 122.931 13.5005 122.908 14.2036C122.892 14.8989 122.853 15.5942 122.79 16.2896C122.736 16.9771 122.658 17.6489 122.556 18.3052C122.462 18.9614 122.333 19.5864 122.169 20.1802L119.439 19.852C119.619 18.9224 119.759 18.0552 119.861 17.2505C119.962 16.4458 120.037 15.7427 120.083 15.1411C120.138 14.438 120.169 13.7935 120.177 13.2075C120.177 12.4653 120.154 11.8208 120.107 11.2739C120.06 10.7192 119.974 10.2622 119.849 9.90283C119.732 9.53564 119.568 9.26221 119.357 9.08252C119.146 8.90283 118.876 8.81299 118.548 8.81299C118.33 8.85986 118.111 9.01611 117.892 9.28174C117.705 9.5083 117.505 9.87158 117.294 10.3716C117.083 10.8638 116.9 11.5591 116.744 12.4575C116.72 13.0669 116.705 13.6724 116.697 14.2739C116.697 14.8677 116.697 15.5005 116.697 16.1724C116.697 16.7427 116.697 17.356 116.697 18.0122C116.697 18.6685 116.705 19.4106 116.72 20.2388L114.06 20.1802C114.083 19.3833 114.099 18.5396 114.107 17.6489C114.122 16.7505 114.13 15.7544 114.13 14.6606C114.13 13.5747 114.122 12.3989 114.107 11.1333C114.091 9.86768 114.06 8.46143 114.013 6.91455L117.06 6.96143Z" stroke="black" stroke-width="4.59152" stroke-linejoin="round" mask="url(#path-1-outside-1_1623_9711)"/>
<path d="M134.297 6.8208C134.258 7.28174 134.219 7.7583 134.18 8.25049C134.149 8.73486 134.118 9.22314 134.086 9.71533C134.055 10.1997 134.028 10.6802 134.004 11.1567C133.989 11.6255 133.973 12.0708 133.957 12.4927C133.918 13.4927 133.891 14.4731 133.875 15.4341C133.829 16.356 133.801 17.27 133.793 18.1763C133.793 19.0747 133.766 19.9302 133.711 20.7427C133.657 21.563 133.551 22.3208 133.395 23.0161C133.247 23.7192 133 24.3247 132.657 24.8325C132.313 25.3481 131.848 25.7505 131.262 26.0395C130.684 26.3286 129.938 26.4731 129.024 26.4731C128.329 26.4731 127.774 26.3716 127.36 26.1685C126.954 25.9731 126.641 25.731 126.422 25.4419C126.211 25.1606 126.071 24.8599 126 24.5395C125.938 24.2192 125.907 23.9341 125.907 23.6841C125.907 23.4185 125.946 23.1685 126.024 22.9341C126.11 22.7075 126.227 22.5083 126.375 22.3364C126.524 22.1645 126.704 22.0278 126.915 21.9263C127.133 21.8247 127.379 21.7739 127.653 21.7739C127.942 21.7739 128.196 21.8286 128.415 21.938C128.641 22.0474 128.829 22.188 128.977 22.3599C129.133 22.5395 129.25 22.7388 129.329 22.9575C129.415 23.1763 129.457 23.395 129.457 23.6138C129.442 23.7388 129.411 23.8677 129.364 24.0005C129.317 24.1099 129.247 24.231 129.153 24.3638C129.067 24.5044 128.934 24.6411 128.754 24.7739C128.934 24.8364 129.102 24.8677 129.258 24.8677C129.461 24.8677 129.676 24.8052 129.903 24.6802C130.129 24.563 130.336 24.3755 130.524 24.1177C130.711 23.8599 130.868 23.5356 130.993 23.145C131.118 22.7544 131.188 22.2895 131.204 21.7505L131.25 18.5044C130.946 19.02 130.633 19.4224 130.313 19.7114C130 19.9927 129.715 20.1997 129.457 20.3325C129.153 20.4888 128.864 20.5825 128.59 20.6138C128.192 20.6138 127.79 20.5005 127.383 20.2739C126.977 20.0474 126.61 19.6567 126.282 19.102C125.954 18.5474 125.684 17.8091 125.473 16.8872C125.262 15.9575 125.157 14.7935 125.157 13.395C125.157 12.4731 125.211 11.6606 125.321 10.9575C125.43 10.2466 125.579 9.62939 125.766 9.10596C125.954 8.58252 126.172 8.14502 126.422 7.79346C126.68 7.43408 126.954 7.14502 127.243 6.92627C127.54 6.70752 127.848 6.55127 128.168 6.45752C128.489 6.36377 128.805 6.31689 129.118 6.31689C129.36 6.33252 129.61 6.38721 129.868 6.48096C130.094 6.56689 130.348 6.69971 130.629 6.87939C130.911 7.05908 131.192 7.31689 131.473 7.65283L131.543 6.52783L134.297 6.8208ZM131.403 9.79736C131.223 9.49268 131.012 9.22705 130.77 9.00049C130.536 8.77393 130.274 8.66064 129.985 8.66064C129.766 8.66064 129.543 8.73877 129.317 8.89502C129.098 9.04346 128.899 9.30518 128.719 9.68018C128.54 10.0474 128.391 10.5396 128.274 11.1567C128.165 11.7739 128.11 12.5513 128.11 13.4888C128.11 14.356 128.149 15.0747 128.227 15.645C128.305 16.2153 128.411 16.6724 128.543 17.0161C128.676 17.3521 128.829 17.5903 129 17.731C129.172 17.8638 129.356 17.9302 129.551 17.9302C129.809 17.9302 130.032 17.8521 130.219 17.6958C130.415 17.5396 130.579 17.3521 130.711 17.1333C130.844 16.9067 130.954 16.6724 131.04 16.4302C131.133 16.188 131.211 15.9771 131.274 15.7974C131.29 14.7739 131.305 13.7661 131.321 12.7739C131.336 11.7817 131.364 10.7896 131.403 9.79736Z" stroke="black" stroke-width="4.59152" stroke-linejoin="round" mask="url(#path-1-outside-1_1623_9711)"/>
</svg>
