<svg width="61" height="91" viewBox="0 0 61 91" fill="none" xmlns="http://www.w3.org/2000/svg">
<rect x="0.392578" y="0.0498047" width="60.057" height="90.0855" rx="4.61977" fill="white"/>
<mask id="mask0_1592_9465" style="mask-type:alpha" maskUnits="userSpaceOnUse" x="1" y="1" width="58" height="87">
<path d="M11.2824 2.3597H53.5203C55.7528 2.3597 57.5626 4.1695 57.5626 6.402L57.5625 70.5625C57.5625 71.8044 56.5557 72.8112 55.3138 72.8112C53.6623 72.8112 52.249 73.9969 51.962 75.6233L50.8353 82.008C50.6771 82.9045 51.0881 83.8058 51.8687 84.2741C52.7655 84.8122 52.3997 86.1884 51.3541 86.2102L6.4077 87.1466C4.09103 87.1949 2.20803 85.2897 2.28334 82.9738L4.3241 20.222C4.37573 18.6343 5.67773 17.374 7.26623 17.374C9.52984 17.374 11.3649 15.5389 11.3649 13.2753L11.3649 8.21691C11.3649 7.25616 10.9125 6.35148 10.1439 5.77503C8.68518 4.68097 9.45894 2.3597 11.2824 2.3597Z" fill="#C4C4C4" stroke="black" stroke-width="1.15494"/>
</mask>
<g mask="url(#mask0_1592_9465)">
<rect x="6.1678" y="5.24715" width="49.6625" height="79.691" rx="4.0423" stroke="black" stroke-width="1.15494"/>
</g>
<path d="M33.7483 49.7123H28.2576C30.4417 48.2902 30.8287 47.1381 31.0029 44.8641L27.3425 46.8034C25.3404 45.3163 25.2353 44.4685 27.3425 42.9249L31.0029 44.8641L29.1726 40.0161C30.3319 37.4985 31.4602 37.5921 32.833 40.0161L31.0029 44.8641L35.1209 42.9249C36.7262 44.4397 36.3709 45.2886 35.1209 46.8034L31.0029 44.8641C31.3358 47.1385 31.8107 48.2643 33.7483 49.7123Z" fill="black"/>
<path d="M31.0029 44.8641C30.8287 47.1381 30.4417 48.2902 28.2576 49.7123H33.7483C31.8107 48.2643 31.3358 47.1385 31.0029 44.8641ZM31.0029 44.8641L27.3425 46.8034C25.3404 45.3163 25.2353 44.4685 27.3425 42.9249L31.0029 44.8641ZM31.0029 44.8641L32.833 40.0161C31.4602 37.5921 30.3319 37.4985 29.1726 40.0161L31.0029 44.8641ZM31.0029 44.8641L35.1209 42.9249C36.7262 44.4397 36.3709 45.2886 35.1209 46.8034L31.0029 44.8641Z" stroke="black" stroke-width="1.15494"/>
<path d="M16.6963 19.6839H11.8157C13.7571 18.5462 14.1011 17.6245 14.256 15.8054L11.0023 17.3568C9.22266 16.1671 9.12927 15.4889 11.0023 14.254L14.256 15.8054L12.629 11.9269C13.6595 9.91289 14.6625 9.98775 15.8828 11.9269L14.256 15.8054L17.9165 14.254C19.3434 15.4658 19.0275 16.145 17.9165 17.3568L14.256 15.8054C14.5519 17.6248 14.9741 18.5255 16.6963 19.6839Z" fill="black"/>
<path d="M14.256 15.8054C14.1011 17.6245 13.7571 18.5462 11.8157 19.6839H16.6963C14.9741 18.5255 14.5519 17.6248 14.256 15.8054ZM14.256 15.8054L11.0023 17.3568C9.22266 16.1671 9.12927 15.4889 11.0023 14.254L14.256 15.8054ZM14.256 15.8054L15.8828 11.9269C14.6625 9.98775 13.6595 9.91289 12.629 11.9269L14.256 15.8054ZM14.256 15.8054L17.9165 14.254C19.3434 15.4658 19.0275 16.145 17.9165 17.3568L14.256 15.8054Z" stroke="black" stroke-width="1.15494"/>
<path d="M33.137 24.3036H28.8665C30.5652 23.3082 30.8663 22.5017 31.0018 20.9099L28.1548 22.2674C26.5976 21.2264 26.5159 20.6329 28.1548 19.5524L31.0018 20.9099L29.5782 17.5163C30.4799 15.754 31.3574 15.8195 32.4252 17.5163L31.0018 20.9099L34.2047 19.5524C35.4532 20.6128 35.1769 21.207 34.2047 22.2674L31.0018 20.9099C31.2607 22.5019 31.6301 23.29 33.137 24.3036Z" fill="black"/>
<path d="M31.0018 20.9099C30.8663 22.5017 30.5652 23.3082 28.8665 24.3036H33.137C31.6301 23.29 31.2607 22.5019 31.0018 20.9099ZM31.0018 20.9099L28.1548 22.2674C26.5976 21.2264 26.5159 20.6329 28.1548 19.5524L31.0018 20.9099ZM31.0018 20.9099L32.4252 17.5163C31.3574 15.8195 30.4799 15.754 29.5782 17.5163L31.0018 20.9099ZM31.0018 20.9099L34.2047 19.5524C35.4532 20.6128 35.1769 21.207 34.2047 22.2674L31.0018 20.9099Z" stroke="black" stroke-width="1.15494"/>
<path d="M21.5877 32.3883H17.3172C19.0159 31.3929 19.3169 30.5864 19.4525 28.9946L16.6055 30.3521C15.0483 29.3111 14.9666 28.7177 16.6055 27.6371L19.4525 28.9946L18.0289 25.601C18.9305 23.8387 19.8081 23.9042 20.8759 25.601L19.4525 28.9946L22.6554 27.6371C23.9039 28.6975 23.6275 29.2918 22.6554 30.3521L19.4525 28.9946C19.7114 30.5866 20.0808 31.3748 21.5877 32.3883Z" fill="black"/>
<path d="M19.4525 28.9946C19.3169 30.5864 19.0159 31.3929 17.3172 32.3883H21.5877C20.0808 31.3748 19.7114 30.5866 19.4525 28.9946ZM19.4525 28.9946L16.6055 30.3521C15.0483 29.3111 14.9666 28.7177 16.6055 27.6371L19.4525 28.9946ZM19.4525 28.9946L20.8759 25.601C19.8081 23.9042 18.9305 23.8387 18.0289 25.601L19.4525 28.9946ZM19.4525 28.9946L22.6554 27.6371C23.9039 28.6975 23.6275 29.2918 22.6554 30.3521L19.4525 28.9946Z" stroke="black" stroke-width="1.15494"/>
<path d="M40.4093 32.3883H44.6799C42.9811 31.3929 42.6801 30.5864 42.5446 28.9946L45.3916 30.3521C46.9488 29.3111 47.0305 28.7177 45.3916 27.6371L42.5446 28.9946L43.9682 25.601C43.0665 23.8387 42.1889 23.9042 41.1212 25.601L42.5446 28.9946L39.3417 27.6371C38.0932 28.6975 38.3695 29.2918 39.3417 30.3521L42.5446 28.9946C42.2857 30.5866 41.9163 31.3748 40.4093 32.3883Z" fill="black"/>
<path d="M42.5446 28.9946C42.6801 30.5864 42.9811 31.3929 44.6799 32.3883H40.4093C41.9163 31.3748 42.2857 30.5866 42.5446 28.9946ZM42.5446 28.9946L45.3916 30.3521C46.9488 29.3111 47.0305 28.7177 45.3916 27.6371L42.5446 28.9946ZM42.5446 28.9946L41.1212 25.601C42.1889 23.9042 43.0665 23.8387 43.9682 25.601L42.5446 28.9946ZM42.5446 28.9946L39.3417 27.6371C38.0932 28.6975 38.3695 29.2918 39.3417 30.3521L42.5446 28.9946Z" stroke="black" stroke-width="1.15494"/>
<path d="M21.5877 42.7826H17.3172C19.0159 41.7872 19.3169 40.9807 19.4525 39.3889L16.6055 40.7464C15.0483 39.7054 14.9666 39.112 16.6055 38.0314L19.4525 39.3889L18.0289 35.9953C18.9305 34.233 19.8081 34.2985 20.8759 35.9953L19.4525 39.3889L22.6554 38.0314C23.9039 39.0918 23.6275 39.686 22.6554 40.7464L19.4525 39.3889C19.7114 40.9809 20.0808 41.7691 21.5877 42.7826Z" fill="black"/>
<path d="M19.4525 39.3889C19.3169 40.9807 19.0159 41.7872 17.3172 42.7826H21.5877C20.0808 41.7691 19.7114 40.9809 19.4525 39.3889ZM19.4525 39.3889L16.6055 40.7464C15.0483 39.7054 14.9666 39.112 16.6055 38.0314L19.4525 39.3889ZM19.4525 39.3889L20.8759 35.9953C19.8081 34.2985 18.9305 34.233 18.0289 35.9953L19.4525 39.3889ZM19.4525 39.3889L22.6554 38.0314C23.9039 39.0918 23.6275 39.686 22.6554 40.7464L19.4525 39.3889Z" stroke="black" stroke-width="1.15494"/>
<path d="M40.4093 42.7826H44.6799C42.9811 41.7872 42.6801 40.9807 42.5446 39.3889L45.3916 40.7464C46.9488 39.7054 47.0305 39.112 45.3916 38.0314L42.5446 39.3889L43.9682 35.9953C43.0665 34.233 42.1889 34.2985 41.1212 35.9953L42.5446 39.3889L39.3417 38.0314C38.0932 39.0918 38.3695 39.686 39.3417 40.7464L42.5446 39.3889C42.2857 40.9809 41.9163 41.7691 40.4093 42.7826Z" fill="black"/>
<path d="M42.5446 39.3889C42.6801 40.9807 42.9811 41.7872 44.6799 42.7826H40.4093C41.9163 41.7691 42.2857 40.9809 42.5446 39.3889ZM42.5446 39.3889L45.3916 40.7464C46.9488 39.7054 47.0305 39.112 45.3916 38.0314L42.5446 39.3889ZM42.5446 39.3889L41.1212 35.9953C42.1889 34.2985 43.0665 34.233 43.9682 35.9953L42.5446 39.3889ZM42.5446 39.3889L39.3417 38.0314C38.0932 39.0918 38.3695 39.686 39.3417 40.7464L42.5446 39.3889Z" stroke="black" stroke-width="1.15494"/>
<path d="M33.1371 65.8815H28.8665C30.5653 66.8769 30.8663 67.6834 31.0018 69.2752L28.1548 67.9177C26.5976 68.9587 26.5159 69.5521 28.1548 70.6326L31.0018 69.2752L29.5782 72.6688C30.4799 74.4311 31.3574 74.3656 32.4252 72.6688L31.0018 69.2752L34.2047 70.6326C35.4532 69.5723 35.1769 68.978 34.2047 67.9177L31.0018 69.2752C31.2607 67.6831 31.6301 66.895 33.1371 65.8815Z" fill="black"/>
<path d="M31.0018 69.2752C30.8663 67.6834 30.5653 66.8769 28.8665 65.8815H33.1371C31.6301 66.895 31.2607 67.6831 31.0018 69.2752ZM31.0018 69.2752L28.1548 67.9177C26.5976 68.9587 26.5159 69.5521 28.1548 70.6326L31.0018 69.2752ZM31.0018 69.2752L32.4252 72.6688C31.3574 74.3656 30.4799 74.4311 29.5782 72.6688L31.0018 69.2752ZM31.0018 69.2752L34.2047 70.6326C35.4532 69.5723 35.1769 68.978 34.2047 67.9177L31.0018 69.2752Z" stroke="black" stroke-width="1.15494"/>
<path d="M21.5877 57.797H17.3172C19.0159 58.7924 19.3169 59.5989 19.4525 61.1907L16.6055 59.8332C15.0483 60.8742 14.9666 61.4676 16.6055 62.5482L19.4525 61.1907L18.0289 64.5843C18.9305 66.3466 19.8081 66.2811 20.8759 64.5843L19.4525 61.1907L22.6554 62.5482C23.9039 61.4878 23.6276 60.8935 22.6554 59.8332L19.4525 61.1907C19.7114 59.5987 20.0808 58.8105 21.5877 57.797Z" fill="black"/>
<path d="M19.4525 61.1907C19.3169 59.5989 19.0159 58.7924 17.3172 57.797H21.5877C20.0808 58.8105 19.7114 59.5987 19.4525 61.1907ZM19.4525 61.1907L16.6055 59.8332C15.0483 60.8742 14.9666 61.4676 16.6055 62.5482L19.4525 61.1907ZM19.4525 61.1907L20.8759 64.5843C19.8081 66.2811 18.9305 66.3466 18.0289 64.5843L19.4525 61.1907ZM19.4525 61.1907L22.6554 62.5482C23.9039 61.4878 23.6276 60.8935 22.6554 59.8332L19.4525 61.1907Z" stroke="black" stroke-width="1.15494"/>
<path d="M40.4093 57.797H44.6799C42.9811 58.7924 42.6801 59.5989 42.5446 61.1907L45.3916 59.8332C46.9488 60.8742 47.0305 61.4676 45.3916 62.5482L42.5446 61.1907L43.9682 64.5843C43.0665 66.3466 42.1889 66.2811 41.1212 64.5843L42.5446 61.1907L39.3417 62.5482C38.0932 61.4878 38.3695 60.8935 39.3417 59.8332L42.5446 61.1907C42.2857 59.5987 41.9163 58.8105 40.4093 57.797Z" fill="black"/>
<path d="M42.5446 61.1907C42.6801 59.5989 42.9811 58.7924 44.6799 57.797H40.4093C41.9163 58.8105 42.2857 59.5987 42.5446 61.1907ZM42.5446 61.1907L45.3916 59.8332C46.9488 60.8742 47.0305 61.4676 45.3916 62.5482L42.5446 61.1907ZM42.5446 61.1907L41.1212 64.5843C42.1889 66.2811 43.0665 66.3466 43.9682 64.5843L42.5446 61.1907ZM42.5446 61.1907L39.3417 62.5482C38.0932 61.4878 38.3695 60.8935 39.3417 59.8332L42.5446 61.1907Z" stroke="black" stroke-width="1.15494"/>
<path d="M21.5877 47.4025H17.3172C19.0159 48.3979 19.3169 49.2044 19.4525 50.7962L16.6055 49.4387C15.0483 50.4797 14.9666 51.0731 16.6055 52.1536L19.4525 50.7962L18.0289 54.1898C18.9305 55.9521 19.8081 55.8866 20.8759 54.1898L19.4525 50.7962L22.6554 52.1536C23.9039 51.0933 23.6276 50.499 22.6554 49.4387L19.4525 50.7962C19.7114 49.2041 20.0808 48.416 21.5877 47.4025Z" fill="black"/>
<path d="M19.4525 50.7962C19.3169 49.2044 19.0159 48.3979 17.3172 47.4025H21.5877C20.0808 48.416 19.7114 49.2041 19.4525 50.7962ZM19.4525 50.7962L16.6055 49.4387C15.0483 50.4797 14.9666 51.0731 16.6055 52.1536L19.4525 50.7962ZM19.4525 50.7962L20.8759 54.1898C19.8081 55.8866 18.9305 55.9521 18.0289 54.1898L19.4525 50.7962ZM19.4525 50.7962L22.6554 52.1536C23.9039 51.0933 23.6276 50.499 22.6554 49.4387L19.4525 50.7962Z" stroke="black" stroke-width="1.15494"/>
<path d="M40.4093 47.4025H44.6799C42.9811 48.3979 42.6801 49.2044 42.5446 50.7962L45.3916 49.4387C46.9488 50.4797 47.0305 51.0731 45.3916 52.1536L42.5446 50.7962L43.9682 54.1898C43.0665 55.9521 42.1889 55.8866 41.1212 54.1898L42.5446 50.7962L39.3417 52.1536C38.0932 51.0933 38.3695 50.499 39.3417 49.4387L42.5446 50.7962C42.2857 49.2041 41.9163 48.416 40.4093 47.4025Z" fill="black"/>
<path d="M42.5446 50.7962C42.6801 49.2044 42.9811 48.3979 44.6799 47.4025H40.4093C41.9163 48.416 42.2857 49.2041 42.5446 50.7962ZM42.5446 50.7962L45.3916 49.4387C46.9488 50.4797 47.0305 51.0731 45.3916 52.1536L42.5446 50.7962ZM42.5446 50.7962L41.1212 54.1898C42.1889 55.8866 43.0665 55.9521 43.9682 54.1898L42.5446 50.7962ZM42.5446 50.7962L39.3417 52.1536C38.0932 51.0933 38.3695 50.499 39.3417 49.4387L42.5446 50.7962Z" stroke="black" stroke-width="1.15494"/>
<path d="M44.146 70.5012L49.0266 70.5012C47.0852 71.6388 46.7412 72.5605 46.5863 74.3797L49.84 72.8283C51.6196 74.018 51.713 74.6962 49.84 75.9311L46.5863 74.3797L48.2133 78.2581C47.1828 80.2722 46.1798 80.1973 44.9595 78.2581L46.5863 74.3797L42.9258 75.9311C41.4989 74.7193 41.8148 74.0401 42.9258 72.8283L46.5863 74.3797C46.2903 72.5602 45.8682 71.6595 44.146 70.5012Z" fill="black"/>
<path d="M46.5863 74.3797C46.7412 72.5605 47.0852 71.6388 49.0266 70.5012L44.146 70.5012C45.8682 71.6595 46.2903 72.5602 46.5863 74.3797ZM46.5863 74.3797L49.84 72.8283C51.6196 74.018 51.713 74.6962 49.84 75.9311L46.5863 74.3797ZM46.5863 74.3797L44.9595 78.2581C46.1798 80.1973 47.1828 80.2722 48.2133 78.2581L46.5863 74.3797ZM46.5863 74.3797L42.9258 75.9311C41.4989 74.7193 41.8148 74.0401 42.9258 72.8283L46.5863 74.3797Z" stroke="black" stroke-width="1.15494"/>
<path d="M3.56259 14.2976L1.92492 14.4589C1.93319 14.1818 1.9394 13.8964 1.94353 13.6028C1.9518 13.3051 1.95801 13.0114 1.96214 12.7219C1.96628 12.4283 1.97041 12.143 1.97455 11.8659C1.97869 11.5847 1.98075 11.32 1.98075 11.0719C1.98489 10.4846 1.98696 9.91185 1.98696 9.35355L1.96215 7.65385L1.47829 8.5037L0.398914 7.58561C0.44854 7.51531 0.508505 7.4326 0.57881 7.33748C0.649114 7.24236 0.723554 7.14104 0.802129 7.03352C0.880704 6.92599 0.961347 6.8164 1.04406 6.70474C1.12677 6.58895 1.20741 6.47729 1.28599 6.36976C1.46795 6.11749 1.65819 5.85489 1.85669 5.58194L3.41992 5.5075C3.41165 5.76391 3.40338 6.02651 3.39511 6.29532C3.39098 6.56 3.38684 6.8226 3.3827 7.08314C3.37857 7.33955 3.37443 7.58768 3.3703 7.82754C3.3703 8.0674 3.3703 8.28865 3.3703 8.49129C3.3703 8.65258 3.3703 8.79939 3.3703 8.93173C3.3703 9.06406 3.37236 9.17779 3.3765 9.27291C3.3765 9.38457 3.37857 9.48382 3.3827 9.57067C3.3827 10.0504 3.39097 10.5549 3.40751 11.0843C3.41165 11.3076 3.41785 11.5495 3.42612 11.8101C3.43853 12.0665 3.45094 12.3332 3.46334 12.6103C3.47575 12.8832 3.49022 13.1624 3.50677 13.4477C3.52331 13.7331 3.54192 14.0164 3.56259 14.2976ZM9.96441 9.91185C9.96441 10.5735 9.90858 11.1877 9.79692 11.7542C9.68526 12.3208 9.5157 12.8129 9.28825 13.2306C9.06079 13.6442 8.77337 13.9709 8.42599 14.2107C8.0786 14.4465 7.66918 14.5643 7.19773 14.5643C6.71801 14.5643 6.30239 14.4465 5.95087 14.2107C5.60348 13.9709 5.31606 13.6442 5.08861 13.2306C4.86529 12.8129 4.6978 12.3208 4.58614 11.7542C4.47862 11.1877 4.42486 10.5735 4.42486 9.91185C4.42486 9.2543 4.47655 8.64431 4.57994 8.08187C4.68747 7.51531 4.85289 7.02524 5.07621 6.61169C5.29953 6.194 5.58488 5.86729 5.93226 5.63157C6.28378 5.39584 6.70561 5.27798 7.19774 5.27798C7.70227 5.27798 8.1303 5.39584 8.48182 5.63157C8.83334 5.86729 9.11869 6.194 9.33788 6.61169C9.55706 7.02524 9.71628 7.51531 9.81553 8.08187C9.91478 8.64431 9.96441 9.2543 9.96441 9.91185ZM8.33914 9.91185C8.33914 9.26257 8.31019 8.71048 8.2523 8.25557C8.19854 7.79652 8.12203 7.42432 8.02278 7.13897C7.92352 6.85362 7.80359 6.64684 7.66298 6.51864C7.52238 6.3863 7.36729 6.32014 7.19774 6.32014C7.04059 6.32014 6.89377 6.39871 6.7573 6.55586C6.62083 6.70888 6.49883 6.93633 6.39131 7.23823C6.28792 7.54012 6.20521 7.91645 6.14317 8.36723C6.08528 8.81386 6.05633 9.32874 6.05633 9.91185C6.05633 10.5487 6.08321 11.0946 6.13697 11.5495C6.19073 12.0044 6.26724 12.3787 6.36649 12.6723C6.46574 12.9618 6.58567 13.1769 6.72628 13.3175C6.86689 13.4539 7.02404 13.5222 7.19773 13.5222C7.35902 13.5222 7.5079 13.4581 7.64437 13.3299C7.78498 13.2017 7.90698 12.9949 8.01036 12.7095C8.11375 12.4242 8.1944 12.052 8.25229 11.5929C8.31019 11.1339 8.33914 10.5735 8.33914 9.91185Z" fill="black"/>
<path d="M57.2797 75.8875L58.9174 75.7262C58.9091 76.0033 58.9029 76.2886 58.8988 76.5822C58.8905 76.88 58.8843 77.1736 58.8801 77.4631C58.876 77.7567 58.8719 78.0421 58.8677 78.3192C58.8636 78.6004 58.8615 78.8651 58.8615 79.1132C58.8574 79.7004 58.8553 80.2732 58.8553 80.8315L58.8801 82.5312L59.364 81.6814L60.4434 82.5994C60.3937 82.6698 60.3338 82.7525 60.2635 82.8476C60.1932 82.9427 60.1187 83.044 60.0402 83.1515C59.9616 83.2591 59.8809 83.3687 59.7982 83.4803C59.7155 83.5961 59.6349 83.7078 59.5563 83.8153C59.3743 84.0676 59.1841 84.3302 58.9856 84.6031L57.4224 84.6776C57.4306 84.4212 57.4389 84.1585 57.4472 83.8897C57.4513 83.6251 57.4554 83.3625 57.4596 83.1019C57.4637 82.8455 57.4679 82.5974 57.472 82.3575C57.472 82.1177 57.472 81.8964 57.472 81.6938C57.472 81.5325 57.472 81.3857 57.472 81.2533C57.472 81.121 57.4699 81.0073 57.4658 80.9121C57.4658 80.8005 57.4637 80.7012 57.4596 80.6144C57.4596 80.1347 57.4513 79.6301 57.4348 79.1008C57.4306 78.8775 57.4244 78.6355 57.4162 78.375C57.4038 78.1186 57.3913 77.8519 57.3789 77.5748C57.3665 77.3018 57.3521 77.0227 57.3355 76.7373C57.319 76.452 57.3004 76.1687 57.2797 75.8875ZM50.8779 80.2732C50.8779 79.6115 50.9337 78.9974 51.0454 78.4308C51.157 77.8643 51.3266 77.3721 51.554 76.9544C51.7815 76.5409 52.0689 76.2142 52.4163 75.9743C52.7637 75.7386 53.1731 75.6207 53.6446 75.6207C54.1243 75.6207 54.5399 75.7386 54.8914 75.9743C55.2388 76.2142 55.5262 76.5409 55.7537 76.9544C55.977 77.3721 56.1445 77.8643 56.2561 78.4308C56.3637 78.9974 56.4174 79.6115 56.4174 80.2732C56.4174 80.9308 56.3657 81.5408 56.2623 82.1032C56.1548 82.6698 55.9894 83.1598 55.7661 83.5734C55.5428 83.9911 55.2574 84.3178 54.91 84.5535C54.5585 84.7892 54.1367 84.9071 53.6445 84.9071C53.14 84.9071 52.712 84.7892 52.3605 84.5535C52.0089 84.3178 51.7236 83.9911 51.5044 83.5734C51.2852 83.1598 51.126 82.6698 51.0268 82.1032C50.9275 81.5408 50.8779 80.9308 50.8779 80.2732ZM52.5031 80.2732C52.5031 80.9225 52.5321 81.4746 52.59 81.9295C52.6438 82.3885 52.7203 82.7607 52.8195 83.0461C52.9188 83.3314 53.0387 83.5382 53.1793 83.6664C53.3199 83.7988 53.475 83.8649 53.6445 83.8649C53.8017 83.8649 53.9485 83.7863 54.085 83.6292C54.2215 83.4762 54.3435 83.2487 54.451 82.9468C54.5544 82.6449 54.6371 82.2686 54.6991 81.8178C54.757 81.3712 54.786 80.8563 54.786 80.2732C54.786 79.6363 54.7591 79.0904 54.7053 78.6355C54.6516 78.1806 54.575 77.8064 54.4758 77.5127C54.3765 77.2233 54.2566 77.0082 54.116 76.8676C53.9754 76.7311 53.8182 76.6629 53.6446 76.6629C53.4833 76.6629 53.3344 76.727 53.1979 76.8552C53.0573 76.9834 52.9353 77.1902 52.8319 77.4755C52.7285 77.7609 52.6479 78.1331 52.59 78.5921C52.5321 79.0512 52.5031 79.6115 52.5031 80.2732Z" fill="black"/>
</svg>
