<svg width="61" height="91" fill="none" xmlns="http://www.w3.org/2000/svg"><rect x=".39" y=".05" width="60.06" height="90.09" rx="4.62" fill="#fff"/><mask id="a" style="mask-type:alpha" maskUnits="userSpaceOnUse" x="1" y="1" width="58" height="87"><path d="M11.28 2.36h42.24a4.04 4.04 0 0 1 4.04 4.04v63.94c0 1.37-1.1 2.47-2.46 2.47-1.54 0-2.9.97-3.42 2.42l-2.26 6.4a2.65 2.65 0 0 0 .85 2.95 1.5 1.5 0 0 1-.94 2.67H6.32a4.04 4.04 0 0 1-4.04-4.18l2.04-62.85a2.94 2.94 0 0 1 2.95-2.85 4.1 4.1 0 0 0 4.1-4.1V8.23c0-.96-.46-1.87-1.23-2.44a1.9 1.9 0 0 1 1.14-3.42Z" fill="#C4C4C4" stroke="#000" stroke-width="1.15"/></mask><g mask="url(#a)"><rect x="6.17" y="5.25" width="49.66" height="79.69" rx="4.04" stroke="#000" stroke-width="1.15"/></g><path d="M16.7 19.68h-4.88c1.94-1.13 2.28-2.06 2.44-3.87L11 17.36c-1.78-1.2-1.87-1.87 0-3.1l3.26 1.55-1.63-3.88c1.03-2.02 2.03-1.94 3.25 0l-1.62 3.88 3.66-1.56c1.42 1.22 1.1 1.9 0 3.1l-3.66-1.54c.3 1.81.71 2.72 2.44 3.87Z" fill="#000"/><path d="M14.26 15.8c-.16 1.82-.5 2.75-2.44 3.88h4.88c-1.73-1.15-2.15-2.06-2.44-3.87Zm0 0L11 17.37c-1.78-1.2-1.87-1.87 0-3.1l3.26 1.55Zm0 0 1.62-3.87c-1.22-1.94-2.22-2.02-3.25 0l1.63 3.88Zm0 0 3.66-1.55c1.42 1.22 1.1 1.9 0 3.1l-3.66-1.54Z" stroke="#000" stroke-width="1.15"/><path d="M44.15 70.5h4.88c-1.94 1.14-2.29 2.06-2.44 3.88l3.25-1.55c1.78 1.19 1.87 1.87 0 3.1l-3.25-1.55 1.62 3.88c-1.03 2.01-2.03 1.94-3.25 0l1.63-3.88-3.66 1.55c-1.43-1.21-1.12-1.89 0-3.1l3.66 1.55c-.3-1.82-.72-2.72-2.44-3.88Z" fill="#000"/><path d="M46.59 74.38c.15-1.82.5-2.74 2.44-3.88h-4.88c1.72 1.16 2.14 2.06 2.44 3.88Zm0 0 3.25-1.55c1.78 1.19 1.87 1.87 0 3.1l-3.25-1.55Zm0 0-1.63 3.88c1.22 1.94 2.22 2.01 3.25 0l-1.62-3.88Zm0 0-3.66 1.55c-1.43-1.21-1.12-1.89 0-3.1l3.66 1.55Z" stroke="#000" stroke-width="1.15"/><path d="M8.08 12.94v.27a11.9 11.9 0 0 0 .07 1.16l-.95-.01h-.83a59.95 59.95 0 0 0-2.9.07v-.05l-.01-.06v-.08a4.99 4.99 0 0 1 .26-1.47 5.54 5.54 0 0 1 1.43-2.12c.23-.21.44-.43.64-.66.2-.22.37-.46.52-.7a3.4 3.4 0 0 0 .48-1.73c0-.27-.03-.5-.08-.68a1.07 1.07 0 0 0-.23-.42.71.71 0 0 0-.32-.23 1.1 1.1 0 0 0-.39-.06.97.97 0 0 0-.19.03 1.2 1.2 0 0 0-.18.07.82.82 0 0 0-.19.14 1 1 0 0 1 .14.26l.1.25.03.27c0 .15-.03.28-.09.38a.9.9 0 0 1-.22.28.96.96 0 0 1-.6.22l-.33-.03a1.04 1.04 0 0 1-.7-.53c-.09-.16-.13-.38-.13-.66 0-.27.06-.52.18-.73.13-.23.3-.42.51-.58a2.99 2.99 0 0 1 2.54-.33 2.36 2.36 0 0 1 1.4 1.29c.14.32.22.7.22 1.12a4 4 0 0 1-.75 2.43c-.22.3-.45.6-.71.85l-.71.73a4.46 4.46 0 0 0-1.03 1.63 19.75 19.75 0 0 0 3.02-.32ZM52.76 77.25v-.07l.01-.08v-.12a11.83 11.83 0 0 0-.07-1.17l.95.02h.83a59.33 59.33 0 0 0 2.9-.08v.2a4.99 4.99 0 0 1-.26 1.46 5.54 5.54 0 0 1-1.43 2.13c-.23.21-.44.43-.64.65-.2.23-.37.46-.52.71a3.4 3.4 0 0 0-.48 1.72c0 .28.03.5.09.68.05.18.12.33.22.43.09.1.2.18.32.22.12.05.25.07.4.07l.18-.03.18-.08a.82.82 0 0 0 .19-.13 1 1 0 0 1-.14-.26l-.09-.26-.04-.27c0-.14.03-.27.09-.38a.9.9 0 0 1 .22-.27.96.96 0 0 1 .6-.22c.09 0 .2 0 .33.03a1.04 1.04 0 0 1 .7.52c.09.17.14.38.14.66 0 .27-.07.52-.2.74-.12.22-.29.41-.5.57-.21.16-.46.28-.74.37a2.99 2.99 0 0 1-1.8-.03 2.36 2.36 0 0 1-1.4-1.3c-.14-.31-.22-.69-.22-1.11a4 4 0 0 1 .75-2.43c.22-.31.46-.6.71-.85l.72-.74a4.46 4.46 0 0 0 1.03-1.62 19.74 19.74 0 0 0-3.03.32ZM33.14 30.08h-4.27c1.7-1 2-1.8 2.13-3.4l-2.84 1.36c-1.56-1.04-1.64-1.63 0-2.71L31 26.68l-1.42-3.39c.9-1.76 1.78-1.7 2.85 0L31 26.7l3.2-1.36c1.25 1.06.98 1.65 0 2.71L31 26.68c.26 1.6.63 2.38 2.14 3.4Z" fill="#000"/><path d="M31 26.68c-.13 1.6-.43 2.4-2.13 3.4h4.27c-1.5-1.02-1.88-1.8-2.14-3.4Zm0 0-2.84 1.36c-1.56-1.04-1.64-1.63 0-2.71L31 26.68Zm0 0 1.43-3.39c-1.07-1.7-1.95-1.76-2.85 0L31 26.7Zm0 0 3.2-1.35c1.25 1.06.98 1.65 0 2.71L31 26.68Z" stroke="#000" stroke-width="1.15"/><path d="M33.14 60.1h-4.27c1.7 1 2 1.8 2.13 3.4l-2.84-1.36c-1.56 1.04-1.64 1.64 0 2.72L31 63.5l-1.42 3.4c.9 1.76 1.78 1.7 2.85 0L31 63.5l3.2 1.36c1.25-1.06.98-1.66 0-2.72L31 63.5c.26-1.6.63-2.38 2.14-3.4Z" fill="#000"/><path d="M31 63.5c-.13-1.6-.43-2.4-2.13-3.4h4.27c-1.5 1.02-1.88 1.8-2.14 3.4Zm0 0-2.84-1.36c-1.56 1.04-1.64 1.64 0 2.72L31 63.5Zm0 0 1.43 3.4c-1.07 1.7-1.95 1.76-2.85 0L31 63.5Zm0 0 3.2 1.36c1.25-1.06.98-1.66 0-2.72L31 63.5Z" stroke="#000" stroke-width="1.15"/></svg>