<svg width="91" height="25" viewBox="0 0 91 25" fill="none" xmlns="http://www.w3.org/2000/svg">
<mask id="path-1-outside-1_1623_9713" maskUnits="userSpaceOnUse" x="-0.332031" y="0.1875" width="91" height="25" fill="black">
<rect fill="white" x="-0.332031" y="0.1875" width="91" height="25"/>
<path d="M12.8516 16.3945C12.8516 17.2539 12.75 18.0195 12.5469 18.6914C12.3438 19.3555 12.043 19.918 11.6445 20.3789C11.2539 20.832 10.7695 21.1758 10.1914 21.4102C9.61328 21.6523 8.94531 21.7734 8.1875 21.7734C7.34375 21.7734 6.58203 21.5781 5.90234 21.1875C5.22266 20.8047 4.64062 20.2266 4.15625 19.4531C3.67969 18.6797 3.3125 17.7148 3.05469 16.5586C2.79688 15.3945 2.66797 14.0352 2.66797 12.4805C2.66797 10.9258 2.83203 9.59766 3.16016 8.49609C3.49609 7.39453 3.9375 6.49609 4.48438 5.80078C5.03125 5.09766 5.65234 4.58594 6.34766 4.26562C7.05078 3.9375 7.76953 3.77344 8.50391 3.77344C9.23828 3.77344 9.85938 3.88281 10.3672 4.10156C10.8828 4.3125 11.3008 4.58203 11.6211 4.91016C11.9414 5.23828 12.1719 5.60156 12.3125 6C12.4609 6.39062 12.5352 6.76562 12.5352 7.125C12.5352 7.48438 12.4805 7.80078 12.3711 8.07422C12.2695 8.33984 12.1328 8.5625 11.9609 8.74219C11.7891 8.91406 11.5938 9.04688 11.375 9.14062C11.1641 9.22656 10.9492 9.26953 10.7305 9.26953C10.5195 9.26953 10.3086 9.24219 10.0977 9.1875C9.89453 9.13281 9.71484 9.03906 9.55859 8.90625C9.40234 8.76562 9.27344 8.58594 9.17188 8.36719C9.07812 8.14062 9.03125 7.86328 9.03125 7.53516C9.03906 7.37109 9.05859 7.21094 9.08984 7.05469C9.12109 6.92188 9.16797 6.77734 9.23047 6.62109C9.30078 6.45703 9.40234 6.30469 9.53516 6.16406C9.41797 6.03125 9.28906 5.92969 9.14844 5.85938C9.00781 5.78906 8.87109 5.73438 8.73828 5.69531C8.58984 5.65625 8.44141 5.62891 8.29297 5.61328C7.98828 5.61328 7.67969 5.74609 7.36719 6.01172C7.0625 6.27734 6.78125 6.6875 6.52344 7.24219C6.26562 7.78906 6.05078 8.48828 5.87891 9.33984C5.71484 10.1836 5.62891 11.1914 5.62109 12.3633C6.04297 11.8086 6.51953 11.3945 7.05078 11.1211C7.58984 10.8398 8.13672 10.6992 8.69141 10.6992C9.22266 10.6992 9.73828 10.8203 10.2383 11.0625C10.7383 11.3047 11.1797 11.6641 11.5625 12.1406C11.9531 12.6172 12.2656 13.2109 12.5 13.9219C12.7344 14.6328 12.8516 15.457 12.8516 16.3945ZM8.26953 19.8516C8.84766 19.8516 9.29688 19.5508 9.61719 18.9492C9.94531 18.3398 10.1094 17.4883 10.1094 16.3945C10.1094 15.8867 10.0586 15.4258 9.95703 15.0117C9.85547 14.5898 9.71484 14.2305 9.53516 13.9336C9.35547 13.6289 9.14453 13.3945 8.90234 13.2305C8.66016 13.0664 8.39844 12.9844 8.11719 12.9844C7.74219 12.9844 7.34766 13.1289 6.93359 13.418C6.52734 13.707 6.11328 14.1797 5.69141 14.8359C5.76953 15.6875 5.88672 16.4297 6.04297 17.0625C6.20703 17.6875 6.40234 18.207 6.62891 18.6211C6.85547 19.0352 7.10547 19.3438 7.37891 19.5469C7.66016 19.75 7.95703 19.8516 8.26953 19.8516Z"/>
<path d="M18.4991 10.6992C18.4991 10.9102 18.4561 11.1094 18.3702 11.2969C18.292 11.4844 18.1827 11.6484 18.042 11.7891C17.9092 11.9219 17.7491 12.0312 17.5616 12.1172C17.3741 12.1953 17.1748 12.2344 16.9639 12.2344C16.7452 12.2344 16.542 12.1953 16.3545 12.1172C16.167 12.0312 16.003 11.9219 15.8623 11.7891C15.7217 11.6484 15.6084 11.4844 15.5225 11.2969C15.4444 11.1094 15.4053 10.9102 15.4053 10.6992C15.4053 10.4883 15.4444 10.2891 15.5225 10.1016C15.6084 9.90625 15.7217 9.73828 15.8623 9.59766C16.003 9.45703 16.167 9.34766 16.3545 9.26953C16.542 9.18359 16.7452 9.14062 16.9639 9.14062C17.1748 9.14062 17.3741 9.18359 17.5616 9.26953C17.7491 9.34766 17.9092 9.45703 18.042 9.59766C18.1827 9.73828 18.292 9.90625 18.3702 10.1016C18.4561 10.2891 18.4991 10.4883 18.4991 10.6992ZM18.4991 19.8984C18.4991 20.1094 18.4561 20.3086 18.3702 20.4961C18.292 20.6758 18.1827 20.8359 18.042 20.9766C17.9092 21.1172 17.7491 21.2266 17.5616 21.3047C17.3741 21.3906 17.1748 21.4336 16.9639 21.4336C16.7452 21.4336 16.542 21.3906 16.3545 21.3047C16.167 21.2266 16.003 21.1172 15.8623 20.9766C15.7217 20.8359 15.6084 20.6758 15.5225 20.4961C15.4444 20.3086 15.4053 20.1094 15.4053 19.8984C15.4053 19.6797 15.4444 19.4766 15.5225 19.2891C15.6084 19.1016 15.7217 18.9375 15.8623 18.7969C16.003 18.6562 16.167 18.5469 16.3545 18.4688C16.542 18.3828 16.7452 18.3398 16.9639 18.3398C17.1748 18.3398 17.3741 18.3828 17.5616 18.4688C17.7491 18.5469 17.9092 18.6562 18.042 18.7969C18.1827 18.9375 18.292 19.1016 18.3702 19.2891C18.4561 19.4766 18.4991 19.6797 18.4991 19.8984Z"/>
<path d="M36.5206 16.9688C36.4425 17.8516 36.2394 18.5859 35.9112 19.1719C35.5909 19.75 35.1964 20.2148 34.7277 20.5664C34.2589 20.9102 33.7394 21.1523 33.1691 21.293C32.6066 21.4336 32.0441 21.5039 31.4816 21.5039C30.8956 21.5039 30.3292 21.4219 29.7823 21.2578C29.2433 21.1016 28.7667 20.8633 28.3527 20.543C27.9386 20.2227 27.6066 19.8203 27.3566 19.3359C27.1144 18.8516 26.9933 18.2852 26.9933 17.6367C26.9933 17.1367 27.0675 16.7188 27.2159 16.3828C27.3722 16.0469 27.5636 15.7773 27.7902 15.5742C28.0167 15.3711 28.2589 15.2305 28.5167 15.1523C28.7745 15.0664 29.0128 15.0234 29.2316 15.0234C29.4581 15.0234 29.6925 15.0586 29.9347 15.1289C30.1769 15.1992 30.3995 15.3164 30.6027 15.4805C30.8058 15.6445 30.9698 15.8672 31.0948 16.1484C31.2277 16.4219 31.2941 16.7656 31.2941 17.1797C31.2941 17.1875 31.2862 17.2617 31.2706 17.4023C31.2628 17.5352 31.2198 17.6914 31.1417 17.8711C31.0636 18.043 30.9425 18.2148 30.7784 18.3867C30.6222 18.5508 30.3917 18.668 30.087 18.7383C30.3058 19.0117 30.5597 19.2188 30.8487 19.3594C31.1456 19.4922 31.3956 19.5586 31.5987 19.5586C31.8019 19.5586 32.0323 19.5234 32.2902 19.4531C32.5558 19.3828 32.8019 19.2656 33.0284 19.1016C33.2628 18.9297 33.4581 18.707 33.6144 18.4336C33.7784 18.1523 33.8605 17.8008 33.8605 17.3789C33.8605 16.8867 33.7745 16.4492 33.6027 16.0664C33.4386 15.6836 33.2237 15.3477 32.9581 15.0586C32.7003 14.7617 32.4073 14.5039 32.0792 14.2852C31.7589 14.0586 31.4464 13.8555 31.1417 13.6758C30.9386 13.5586 30.6964 13.4219 30.4152 13.2656C30.1339 13.1016 29.8409 12.9102 29.5362 12.6914C29.2316 12.4648 28.9308 12.2109 28.6339 11.9297C28.337 11.6406 28.0675 11.3164 27.8253 10.957C27.5909 10.5898 27.3995 10.1836 27.2511 9.73828C27.1105 9.29297 27.0402 8.80078 27.0402 8.26172C27.0402 7.45703 27.1808 6.75391 27.462 6.15234C27.7433 5.54297 28.1066 5.03516 28.5519 4.62891C29.005 4.22266 29.5167 3.91797 30.087 3.71484C30.6573 3.51172 31.2355 3.41016 31.8214 3.41016C32.4073 3.41016 32.9659 3.49219 33.4972 3.65625C34.0284 3.8125 34.4933 4.04297 34.8917 4.34766C35.298 4.64453 35.6183 5.00391 35.8527 5.42578C36.0948 5.83984 36.2159 6.30469 36.2159 6.82031C36.2159 7.34375 36.13 7.75781 35.9581 8.0625C35.7862 8.36719 35.5792 8.59766 35.337 8.75391C35.1027 8.91016 34.8605 9.01172 34.6105 9.05859C34.3683 9.09766 34.173 9.11719 34.0245 9.11719C33.837 9.11719 33.6417 9.08203 33.4386 9.01172C33.2355 8.94141 33.048 8.83594 32.8761 8.69531C32.712 8.55469 32.5753 8.38281 32.4659 8.17969C32.3566 7.97656 32.3019 7.73828 32.3019 7.46484C32.3097 7.29297 32.3292 7.12109 32.3605 6.94922C32.3917 6.80078 32.4386 6.64062 32.5011 6.46875C32.5636 6.29688 32.6573 6.13281 32.7823 5.97656C32.6573 5.86719 32.5362 5.78125 32.4191 5.71875C32.3019 5.65625 32.1925 5.60938 32.0909 5.57812C31.9737 5.54688 31.8605 5.52734 31.7511 5.51953C31.5323 5.51953 31.3097 5.55859 31.0831 5.63672C30.8644 5.71484 30.6612 5.83203 30.4737 5.98828C30.2941 6.14453 30.1456 6.34375 30.0284 6.58594C29.9112 6.82031 29.8527 7.09766 29.8527 7.41797C29.8527 7.79297 29.9112 8.13281 30.0284 8.4375C30.1456 8.73438 30.3292 9.02344 30.5792 9.30469C30.8292 9.58594 31.1456 9.87109 31.5284 10.1602C31.9191 10.4492 32.3839 10.7656 32.923 11.1094C33.5558 11.5078 34.0987 11.9062 34.5519 12.3047C35.0128 12.7031 35.3878 13.1133 35.6769 13.5352C35.9737 13.957 36.1925 14.4023 36.3331 14.8711C36.4737 15.332 36.5441 15.832 36.5441 16.3711C36.5441 16.4648 36.5441 16.5625 36.5441 16.6641C36.5441 16.7578 36.5362 16.8594 36.5206 16.9688Z"/>
<path d="M42.9416 3.1875C42.8791 3.99219 42.8283 4.78516 42.7892 5.56641C42.7502 6.33984 42.7111 7.11719 42.672 7.89844C43.0158 7.88281 43.3556 7.87109 43.6916 7.86328C44.0275 7.84766 44.3713 7.82812 44.7228 7.80469L44.7697 10.8047C44.3947 10.7422 44.0236 10.6914 43.6564 10.6523C43.2892 10.6133 42.9298 10.582 42.5783 10.5586C42.5548 11.2227 42.5392 11.8789 42.5314 12.5273C42.5314 13.1758 42.5314 13.832 42.5314 14.4961C42.5314 15.6836 42.5431 16.8633 42.5666 18.0352C42.5978 19.207 42.6447 20.3867 42.7072 21.5742L39.6486 21.5273C39.7502 19.6914 39.8322 17.8594 39.8947 16.0312C39.965 14.1953 40.0119 12.3477 40.0353 10.4883C39.7072 10.5039 39.3791 10.5234 39.0509 10.5469C38.7228 10.5625 38.3869 10.582 38.0431 10.6055L38.1369 7.82812C38.4572 7.85156 38.7736 7.87109 39.0861 7.88672C39.4064 7.89453 39.7228 7.90625 40.0353 7.92188C40.0353 7.14062 40.0275 6.36328 40.0119 5.58984C39.9963 4.80859 39.9806 4.02344 39.965 3.23438L42.9416 3.1875Z"/>
<path d="M55.0109 18.4805C55.0109 18.9414 54.9055 19.375 54.6945 19.7812C54.4836 20.1875 54.1984 20.5391 53.8391 20.8359C53.4797 21.1328 53.0578 21.3672 52.5734 21.5391C52.0891 21.7109 51.5734 21.7969 51.0266 21.7969C50.6594 21.7969 50.2883 21.7461 49.9133 21.6445C49.5383 21.543 49.1789 21.375 48.8352 21.1406C48.4914 20.9062 48.1672 20.5977 47.8625 20.2148C47.5578 19.832 47.2922 19.3633 47.0656 18.8086C46.8469 18.2539 46.6711 17.6055 46.5383 16.8633C46.4133 16.1133 46.3508 15.2539 46.3508 14.2852C46.3508 13.3711 46.4133 12.5625 46.5383 11.8594C46.6711 11.1562 46.8469 10.543 47.0656 10.0195C47.2922 9.49609 47.5539 9.05859 47.8508 8.70703C48.1477 8.34766 48.4641 8.05859 48.8 7.83984C49.1437 7.61328 49.4953 7.45312 49.8547 7.35938C50.2219 7.26562 50.5812 7.21875 50.9328 7.21875C51.4562 7.21875 51.9523 7.30469 52.4211 7.47656C52.8898 7.64062 53.3 7.88672 53.6516 8.21484C54.0031 8.54297 54.2805 8.94922 54.4836 9.43359C54.6945 9.91016 54.8 10.4609 54.8 11.0859C54.8 11.6484 54.6828 12.2188 54.4484 12.7969C54.2219 13.3672 53.882 13.9102 53.4289 14.4258C52.9758 14.9336 52.4133 15.3984 51.7414 15.8203C51.0773 16.2344 50.3117 16.5625 49.4445 16.8047C49.4914 17.2891 49.5578 17.7305 49.6437 18.1289C49.7375 18.5273 49.8508 18.8672 49.9836 19.1484C50.1242 19.4297 50.2844 19.6484 50.4641 19.8047C50.6516 19.9609 50.8664 20.0391 51.1086 20.0391C51.2648 20.0312 51.4133 20.0039 51.5539 19.957C51.6789 19.918 51.8039 19.8555 51.9289 19.7695C52.0617 19.6836 52.1711 19.5586 52.257 19.3945C52.0539 19.3008 51.8977 19.1797 51.7883 19.0312C51.6789 18.8828 51.5969 18.7422 51.5422 18.6094C51.4797 18.4531 51.4445 18.2891 51.4367 18.1172C51.4367 17.7422 51.5109 17.4375 51.6594 17.2031C51.8078 16.9688 51.9836 16.7852 52.1867 16.6523C52.3898 16.5195 52.5969 16.4297 52.8078 16.3828C53.0187 16.3281 53.1867 16.3008 53.3117 16.3008C53.4445 16.3008 53.6047 16.3281 53.7922 16.3828C53.9875 16.4375 54.175 16.543 54.3547 16.6992C54.5344 16.8555 54.6867 17.0781 54.8117 17.3672C54.9445 17.6484 55.0109 18.0195 55.0109 18.4805ZM52.1164 11.1094C52.1164 10.8281 52.0891 10.5625 52.0344 10.3125C51.9875 10.0547 51.9133 9.83203 51.8117 9.64453C51.718 9.45703 51.5969 9.30859 51.4484 9.19922C51.3078 9.08203 51.1437 9.02344 50.9562 9.02344C50.6359 9.02344 50.3742 9.17188 50.1711 9.46875C49.968 9.75781 49.8039 10.1445 49.6789 10.6289C49.5539 11.1133 49.468 11.6719 49.4211 12.3047C49.3742 12.9375 49.3508 13.5977 49.3508 14.2852V15.1406C49.7492 14.9297 50.1164 14.6797 50.4523 14.3906C50.7961 14.1016 51.0891 13.7852 51.3312 13.4414C51.5812 13.0898 51.7727 12.7188 51.9055 12.3281C52.0461 11.9375 52.1164 11.5312 52.1164 11.1094Z"/>
<path d="M62.9905 21.1172C63.0061 20.8047 63.0217 20.5078 63.0373 20.2266C63.0608 19.9375 63.0842 19.6602 63.1077 19.3945C62.842 19.8633 62.5569 20.2227 62.2522 20.4727C61.9553 20.7227 61.678 20.9102 61.4202 21.0352C61.1155 21.1758 60.8147 21.2617 60.5178 21.293C59.9397 21.293 59.4358 21.1484 59.0061 20.8594C58.5764 20.5703 58.2209 20.1602 57.9397 19.6289C57.6584 19.0977 57.4475 18.4609 57.3069 17.7188C57.1741 16.9688 57.1077 16.1328 57.1077 15.2109C57.1077 13.9219 57.1467 12.6719 57.2248 11.4609C57.3108 10.25 57.4475 9.0625 57.635 7.89844L60.6116 8.22656C60.4241 9.15625 60.2795 9.98828 60.178 10.7227C60.0842 11.4492 60.0139 12.0703 59.967 12.5859C59.9123 13.1875 59.8811 13.7109 59.8733 14.1562C59.8733 14.8984 59.8967 15.5469 59.9436 16.1016C59.9905 16.6484 60.0725 17.1055 60.1897 17.4727C60.3147 17.832 60.4827 18.1016 60.6936 18.2812C60.9045 18.4609 61.1741 18.5508 61.5022 18.5508C61.7287 18.5117 61.9514 18.3555 62.1702 18.082C62.2639 17.9648 62.3616 17.8164 62.4631 17.6367C62.5647 17.4492 62.6662 17.2227 62.7678 16.957C62.8694 16.6914 62.967 16.3789 63.0608 16.0195C63.1545 15.6602 63.2444 15.2422 63.3303 14.7656C63.3459 14.3047 63.3537 13.8477 63.3537 13.3945C63.3537 12.9336 63.3537 12.4375 63.3537 11.9062C63.3537 11.3438 63.3537 10.7305 63.3537 10.0664C63.3537 9.40234 63.3459 8.65625 63.3303 7.82812L65.9905 7.875C65.9514 8.46875 65.9202 9.01953 65.8967 9.52734C65.8733 10.0273 65.8537 10.5 65.8381 10.9453C65.8303 11.3828 65.8225 11.7969 65.8147 12.1875C65.8069 12.5781 65.803 12.957 65.803 13.3242C65.803 13.8867 65.8069 14.4375 65.8147 14.9766C65.8303 15.5156 65.8498 16.0898 65.8733 16.6992C65.8967 17.3008 65.9202 17.9648 65.9436 18.6914C65.9748 19.4102 66.0061 20.2344 66.0373 21.1641L62.9905 21.1172Z"/>
<path d="M77.0403 18.4805C77.0403 18.9414 76.9348 19.375 76.7239 19.7812C76.513 20.1875 76.2278 20.5391 75.8684 20.8359C75.5091 21.1328 75.0872 21.3672 74.6028 21.5391C74.1184 21.7109 73.6028 21.7969 73.0559 21.7969C72.6888 21.7969 72.3177 21.7461 71.9427 21.6445C71.5677 21.543 71.2083 21.375 70.8645 21.1406C70.5208 20.9062 70.1966 20.5977 69.8919 20.2148C69.5872 19.832 69.3216 19.3633 69.095 18.8086C68.8763 18.2539 68.7005 17.6055 68.5677 16.8633C68.4427 16.1133 68.3802 15.2539 68.3802 14.2852C68.3802 13.3711 68.4427 12.5625 68.5677 11.8594C68.7005 11.1562 68.8763 10.543 69.095 10.0195C69.3216 9.49609 69.5833 9.05859 69.8802 8.70703C70.177 8.34766 70.4934 8.05859 70.8294 7.83984C71.1731 7.61328 71.5247 7.45312 71.8841 7.35938C72.2513 7.26562 72.6106 7.21875 72.9622 7.21875C73.4856 7.21875 73.9817 7.30469 74.4505 7.47656C74.9192 7.64062 75.3294 7.88672 75.6809 8.21484C76.0325 8.54297 76.3098 8.94922 76.513 9.43359C76.7239 9.91016 76.8294 10.4609 76.8294 11.0859C76.8294 11.6484 76.7122 12.2188 76.4778 12.7969C76.2513 13.3672 75.9114 13.9102 75.4583 14.4258C75.0052 14.9336 74.4427 15.3984 73.7708 15.8203C73.1067 16.2344 72.3411 16.5625 71.4739 16.8047C71.5208 17.2891 71.5872 17.7305 71.6731 18.1289C71.7669 18.5273 71.8802 18.8672 72.013 19.1484C72.1536 19.4297 72.3138 19.6484 72.4934 19.8047C72.6809 19.9609 72.8958 20.0391 73.138 20.0391C73.2942 20.0312 73.4427 20.0039 73.5833 19.957C73.7083 19.918 73.8333 19.8555 73.9583 19.7695C74.0911 19.6836 74.2005 19.5586 74.2864 19.3945C74.0833 19.3008 73.927 19.1797 73.8177 19.0312C73.7083 18.8828 73.6263 18.7422 73.5716 18.6094C73.5091 18.4531 73.4739 18.2891 73.4661 18.1172C73.4661 17.7422 73.5403 17.4375 73.6888 17.2031C73.8372 16.9688 74.013 16.7852 74.2161 16.6523C74.4192 16.5195 74.6263 16.4297 74.8372 16.3828C75.0481 16.3281 75.2161 16.3008 75.3411 16.3008C75.4739 16.3008 75.6341 16.3281 75.8216 16.3828C76.0169 16.4375 76.2044 16.543 76.3841 16.6992C76.5638 16.8555 76.7161 17.0781 76.8411 17.3672C76.9739 17.6484 77.0403 18.0195 77.0403 18.4805ZM74.1458 11.1094C74.1458 10.8281 74.1184 10.5625 74.0638 10.3125C74.0169 10.0547 73.9427 9.83203 73.8411 9.64453C73.7473 9.45703 73.6263 9.30859 73.4778 9.19922C73.3372 9.08203 73.1731 9.02344 72.9856 9.02344C72.6653 9.02344 72.4036 9.17188 72.2005 9.46875C71.9973 9.75781 71.8333 10.1445 71.7083 10.6289C71.5833 11.1133 71.4973 11.6719 71.4505 12.3047C71.4036 12.9375 71.3802 13.5977 71.3802 14.2852V15.1406C71.7786 14.9297 72.1458 14.6797 72.4817 14.3906C72.8255 14.1016 73.1184 13.7852 73.3606 13.4414C73.6106 13.0898 73.802 12.7188 73.9348 12.3281C74.0755 11.9375 74.1458 11.5312 74.1458 11.1094Z"/>
<path d="M82.2659 21.4805L79.137 21.7148C79.262 20.3164 79.3519 18.9688 79.4066 17.6719C79.4691 16.3672 79.5003 15.0625 79.5003 13.7578C79.5003 12.8359 79.4847 11.9141 79.4534 10.9922C79.43 10.0625 79.3831 9.10938 79.3128 8.13281L81.9495 7.99219C81.9339 8.16406 81.9222 8.33203 81.9144 8.49609C81.9066 8.66016 81.9027 8.82031 81.9027 8.97656C82.1761 8.55469 82.473 8.22656 82.7933 7.99219C83.1214 7.75 83.4261 7.57422 83.7073 7.46484C84.0277 7.33203 84.3519 7.25 84.68 7.21875C85.2503 7.21875 85.7386 7.30859 86.1448 7.48828C86.5511 7.66016 86.8831 7.88672 87.1409 8.16797C87.3988 8.44141 87.5863 8.75 87.7034 9.09375C87.8206 9.42969 87.8792 9.75781 87.8792 10.0781C87.8792 10.4062 87.8441 10.7383 87.7738 11.0742C87.7034 11.4102 87.5823 11.7148 87.4105 11.9883C87.2464 12.2539 87.0238 12.4727 86.7425 12.6445C86.4691 12.8086 86.1292 12.8906 85.723 12.8906C85.3167 12.8906 84.9964 12.8164 84.762 12.668C84.5277 12.5195 84.348 12.3438 84.223 12.1406C84.1058 11.9297 84.0277 11.7148 83.9886 11.4961C83.9573 11.2695 83.9417 11.0781 83.9417 10.9219C83.9417 10.8125 83.9613 10.6914 84.0003 10.5586C84.0394 10.418 84.098 10.2773 84.1761 10.1367C84.2542 9.99609 84.3519 9.85938 84.4691 9.72656C84.5863 9.58594 84.723 9.45703 84.8792 9.33984C84.8323 9.32422 84.7816 9.3125 84.7269 9.30469C84.68 9.29688 84.6331 9.29297 84.5863 9.29297C84.1956 9.29297 83.848 9.41797 83.5433 9.66797C83.2386 9.91016 82.973 10.25 82.7464 10.6875C82.5277 11.125 82.3441 11.6406 82.1956 12.2344C82.055 12.8281 81.9495 13.4766 81.8792 14.1797C81.9183 15.3906 81.973 16.5898 82.0433 17.7773C82.1136 18.9648 82.1878 20.1992 82.2659 21.4805Z"/>
</mask>
<path d="M12.8516 16.3945C12.8516 17.2539 12.75 18.0195 12.5469 18.6914C12.3438 19.3555 12.043 19.918 11.6445 20.3789C11.2539 20.832 10.7695 21.1758 10.1914 21.4102C9.61328 21.6523 8.94531 21.7734 8.1875 21.7734C7.34375 21.7734 6.58203 21.5781 5.90234 21.1875C5.22266 20.8047 4.64062 20.2266 4.15625 19.4531C3.67969 18.6797 3.3125 17.7148 3.05469 16.5586C2.79688 15.3945 2.66797 14.0352 2.66797 12.4805C2.66797 10.9258 2.83203 9.59766 3.16016 8.49609C3.49609 7.39453 3.9375 6.49609 4.48438 5.80078C5.03125 5.09766 5.65234 4.58594 6.34766 4.26562C7.05078 3.9375 7.76953 3.77344 8.50391 3.77344C9.23828 3.77344 9.85938 3.88281 10.3672 4.10156C10.8828 4.3125 11.3008 4.58203 11.6211 4.91016C11.9414 5.23828 12.1719 5.60156 12.3125 6C12.4609 6.39062 12.5352 6.76562 12.5352 7.125C12.5352 7.48438 12.4805 7.80078 12.3711 8.07422C12.2695 8.33984 12.1328 8.5625 11.9609 8.74219C11.7891 8.91406 11.5938 9.04688 11.375 9.14062C11.1641 9.22656 10.9492 9.26953 10.7305 9.26953C10.5195 9.26953 10.3086 9.24219 10.0977 9.1875C9.89453 9.13281 9.71484 9.03906 9.55859 8.90625C9.40234 8.76562 9.27344 8.58594 9.17188 8.36719C9.07812 8.14062 9.03125 7.86328 9.03125 7.53516C9.03906 7.37109 9.05859 7.21094 9.08984 7.05469C9.12109 6.92188 9.16797 6.77734 9.23047 6.62109C9.30078 6.45703 9.40234 6.30469 9.53516 6.16406C9.41797 6.03125 9.28906 5.92969 9.14844 5.85938C9.00781 5.78906 8.87109 5.73438 8.73828 5.69531C8.58984 5.65625 8.44141 5.62891 8.29297 5.61328C7.98828 5.61328 7.67969 5.74609 7.36719 6.01172C7.0625 6.27734 6.78125 6.6875 6.52344 7.24219C6.26562 7.78906 6.05078 8.48828 5.87891 9.33984C5.71484 10.1836 5.62891 11.1914 5.62109 12.3633C6.04297 11.8086 6.51953 11.3945 7.05078 11.1211C7.58984 10.8398 8.13672 10.6992 8.69141 10.6992C9.22266 10.6992 9.73828 10.8203 10.2383 11.0625C10.7383 11.3047 11.1797 11.6641 11.5625 12.1406C11.9531 12.6172 12.2656 13.2109 12.5 13.9219C12.7344 14.6328 12.8516 15.457 12.8516 16.3945ZM8.26953 19.8516C8.84766 19.8516 9.29688 19.5508 9.61719 18.9492C9.94531 18.3398 10.1094 17.4883 10.1094 16.3945C10.1094 15.8867 10.0586 15.4258 9.95703 15.0117C9.85547 14.5898 9.71484 14.2305 9.53516 13.9336C9.35547 13.6289 9.14453 13.3945 8.90234 13.2305C8.66016 13.0664 8.39844 12.9844 8.11719 12.9844C7.74219 12.9844 7.34766 13.1289 6.93359 13.418C6.52734 13.707 6.11328 14.1797 5.69141 14.8359C5.76953 15.6875 5.88672 16.4297 6.04297 17.0625C6.20703 17.6875 6.40234 18.207 6.62891 18.6211C6.85547 19.0352 7.10547 19.3438 7.37891 19.5469C7.66016 19.75 7.95703 19.8516 8.26953 19.8516Z" fill="white"/>
<path d="M18.4991 10.6992C18.4991 10.9102 18.4561 11.1094 18.3702 11.2969C18.292 11.4844 18.1827 11.6484 18.042 11.7891C17.9092 11.9219 17.7491 12.0312 17.5616 12.1172C17.3741 12.1953 17.1748 12.2344 16.9639 12.2344C16.7452 12.2344 16.542 12.1953 16.3545 12.1172C16.167 12.0312 16.003 11.9219 15.8623 11.7891C15.7217 11.6484 15.6084 11.4844 15.5225 11.2969C15.4444 11.1094 15.4053 10.9102 15.4053 10.6992C15.4053 10.4883 15.4444 10.2891 15.5225 10.1016C15.6084 9.90625 15.7217 9.73828 15.8623 9.59766C16.003 9.45703 16.167 9.34766 16.3545 9.26953C16.542 9.18359 16.7452 9.14062 16.9639 9.14062C17.1748 9.14062 17.3741 9.18359 17.5616 9.26953C17.7491 9.34766 17.9092 9.45703 18.042 9.59766C18.1827 9.73828 18.292 9.90625 18.3702 10.1016C18.4561 10.2891 18.4991 10.4883 18.4991 10.6992ZM18.4991 19.8984C18.4991 20.1094 18.4561 20.3086 18.3702 20.4961C18.292 20.6758 18.1827 20.8359 18.042 20.9766C17.9092 21.1172 17.7491 21.2266 17.5616 21.3047C17.3741 21.3906 17.1748 21.4336 16.9639 21.4336C16.7452 21.4336 16.542 21.3906 16.3545 21.3047C16.167 21.2266 16.003 21.1172 15.8623 20.9766C15.7217 20.8359 15.6084 20.6758 15.5225 20.4961C15.4444 20.3086 15.4053 20.1094 15.4053 19.8984C15.4053 19.6797 15.4444 19.4766 15.5225 19.2891C15.6084 19.1016 15.7217 18.9375 15.8623 18.7969C16.003 18.6562 16.167 18.5469 16.3545 18.4688C16.542 18.3828 16.7452 18.3398 16.9639 18.3398C17.1748 18.3398 17.3741 18.3828 17.5616 18.4688C17.7491 18.5469 17.9092 18.6562 18.042 18.7969C18.1827 18.9375 18.292 19.1016 18.3702 19.2891C18.4561 19.4766 18.4991 19.6797 18.4991 19.8984Z" fill="white"/>
<path d="M36.5206 16.9688C36.4425 17.8516 36.2394 18.5859 35.9112 19.1719C35.5909 19.75 35.1964 20.2148 34.7277 20.5664C34.2589 20.9102 33.7394 21.1523 33.1691 21.293C32.6066 21.4336 32.0441 21.5039 31.4816 21.5039C30.8956 21.5039 30.3292 21.4219 29.7823 21.2578C29.2433 21.1016 28.7667 20.8633 28.3527 20.543C27.9386 20.2227 27.6066 19.8203 27.3566 19.3359C27.1144 18.8516 26.9933 18.2852 26.9933 17.6367C26.9933 17.1367 27.0675 16.7188 27.2159 16.3828C27.3722 16.0469 27.5636 15.7773 27.7902 15.5742C28.0167 15.3711 28.2589 15.2305 28.5167 15.1523C28.7745 15.0664 29.0128 15.0234 29.2316 15.0234C29.4581 15.0234 29.6925 15.0586 29.9347 15.1289C30.1769 15.1992 30.3995 15.3164 30.6027 15.4805C30.8058 15.6445 30.9698 15.8672 31.0948 16.1484C31.2277 16.4219 31.2941 16.7656 31.2941 17.1797C31.2941 17.1875 31.2862 17.2617 31.2706 17.4023C31.2628 17.5352 31.2198 17.6914 31.1417 17.8711C31.0636 18.043 30.9425 18.2148 30.7784 18.3867C30.6222 18.5508 30.3917 18.668 30.087 18.7383C30.3058 19.0117 30.5597 19.2188 30.8487 19.3594C31.1456 19.4922 31.3956 19.5586 31.5987 19.5586C31.8019 19.5586 32.0323 19.5234 32.2902 19.4531C32.5558 19.3828 32.8019 19.2656 33.0284 19.1016C33.2628 18.9297 33.4581 18.707 33.6144 18.4336C33.7784 18.1523 33.8605 17.8008 33.8605 17.3789C33.8605 16.8867 33.7745 16.4492 33.6027 16.0664C33.4386 15.6836 33.2237 15.3477 32.9581 15.0586C32.7003 14.7617 32.4073 14.5039 32.0792 14.2852C31.7589 14.0586 31.4464 13.8555 31.1417 13.6758C30.9386 13.5586 30.6964 13.4219 30.4152 13.2656C30.1339 13.1016 29.8409 12.9102 29.5362 12.6914C29.2316 12.4648 28.9308 12.2109 28.6339 11.9297C28.337 11.6406 28.0675 11.3164 27.8253 10.957C27.5909 10.5898 27.3995 10.1836 27.2511 9.73828C27.1105 9.29297 27.0402 8.80078 27.0402 8.26172C27.0402 7.45703 27.1808 6.75391 27.462 6.15234C27.7433 5.54297 28.1066 5.03516 28.5519 4.62891C29.005 4.22266 29.5167 3.91797 30.087 3.71484C30.6573 3.51172 31.2355 3.41016 31.8214 3.41016C32.4073 3.41016 32.9659 3.49219 33.4972 3.65625C34.0284 3.8125 34.4933 4.04297 34.8917 4.34766C35.298 4.64453 35.6183 5.00391 35.8527 5.42578C36.0948 5.83984 36.2159 6.30469 36.2159 6.82031C36.2159 7.34375 36.13 7.75781 35.9581 8.0625C35.7862 8.36719 35.5792 8.59766 35.337 8.75391C35.1027 8.91016 34.8605 9.01172 34.6105 9.05859C34.3683 9.09766 34.173 9.11719 34.0245 9.11719C33.837 9.11719 33.6417 9.08203 33.4386 9.01172C33.2355 8.94141 33.048 8.83594 32.8761 8.69531C32.712 8.55469 32.5753 8.38281 32.4659 8.17969C32.3566 7.97656 32.3019 7.73828 32.3019 7.46484C32.3097 7.29297 32.3292 7.12109 32.3605 6.94922C32.3917 6.80078 32.4386 6.64062 32.5011 6.46875C32.5636 6.29688 32.6573 6.13281 32.7823 5.97656C32.6573 5.86719 32.5362 5.78125 32.4191 5.71875C32.3019 5.65625 32.1925 5.60938 32.0909 5.57812C31.9737 5.54688 31.8605 5.52734 31.7511 5.51953C31.5323 5.51953 31.3097 5.55859 31.0831 5.63672C30.8644 5.71484 30.6612 5.83203 30.4737 5.98828C30.2941 6.14453 30.1456 6.34375 30.0284 6.58594C29.9112 6.82031 29.8527 7.09766 29.8527 7.41797C29.8527 7.79297 29.9112 8.13281 30.0284 8.4375C30.1456 8.73438 30.3292 9.02344 30.5792 9.30469C30.8292 9.58594 31.1456 9.87109 31.5284 10.1602C31.9191 10.4492 32.3839 10.7656 32.923 11.1094C33.5558 11.5078 34.0987 11.9062 34.5519 12.3047C35.0128 12.7031 35.3878 13.1133 35.6769 13.5352C35.9737 13.957 36.1925 14.4023 36.3331 14.8711C36.4737 15.332 36.5441 15.832 36.5441 16.3711C36.5441 16.4648 36.5441 16.5625 36.5441 16.6641C36.5441 16.7578 36.5362 16.8594 36.5206 16.9688Z" fill="white"/>
<path d="M42.9416 3.1875C42.8791 3.99219 42.8283 4.78516 42.7892 5.56641C42.7502 6.33984 42.7111 7.11719 42.672 7.89844C43.0158 7.88281 43.3556 7.87109 43.6916 7.86328C44.0275 7.84766 44.3713 7.82812 44.7228 7.80469L44.7697 10.8047C44.3947 10.7422 44.0236 10.6914 43.6564 10.6523C43.2892 10.6133 42.9298 10.582 42.5783 10.5586C42.5548 11.2227 42.5392 11.8789 42.5314 12.5273C42.5314 13.1758 42.5314 13.832 42.5314 14.4961C42.5314 15.6836 42.5431 16.8633 42.5666 18.0352C42.5978 19.207 42.6447 20.3867 42.7072 21.5742L39.6486 21.5273C39.7502 19.6914 39.8322 17.8594 39.8947 16.0312C39.965 14.1953 40.0119 12.3477 40.0353 10.4883C39.7072 10.5039 39.3791 10.5234 39.0509 10.5469C38.7228 10.5625 38.3869 10.582 38.0431 10.6055L38.1369 7.82812C38.4572 7.85156 38.7736 7.87109 39.0861 7.88672C39.4064 7.89453 39.7228 7.90625 40.0353 7.92188C40.0353 7.14062 40.0275 6.36328 40.0119 5.58984C39.9963 4.80859 39.9806 4.02344 39.965 3.23438L42.9416 3.1875Z" fill="white"/>
<path d="M55.0109 18.4805C55.0109 18.9414 54.9055 19.375 54.6945 19.7812C54.4836 20.1875 54.1984 20.5391 53.8391 20.8359C53.4797 21.1328 53.0578 21.3672 52.5734 21.5391C52.0891 21.7109 51.5734 21.7969 51.0266 21.7969C50.6594 21.7969 50.2883 21.7461 49.9133 21.6445C49.5383 21.543 49.1789 21.375 48.8352 21.1406C48.4914 20.9062 48.1672 20.5977 47.8625 20.2148C47.5578 19.832 47.2922 19.3633 47.0656 18.8086C46.8469 18.2539 46.6711 17.6055 46.5383 16.8633C46.4133 16.1133 46.3508 15.2539 46.3508 14.2852C46.3508 13.3711 46.4133 12.5625 46.5383 11.8594C46.6711 11.1562 46.8469 10.543 47.0656 10.0195C47.2922 9.49609 47.5539 9.05859 47.8508 8.70703C48.1477 8.34766 48.4641 8.05859 48.8 7.83984C49.1437 7.61328 49.4953 7.45312 49.8547 7.35938C50.2219 7.26562 50.5812 7.21875 50.9328 7.21875C51.4562 7.21875 51.9523 7.30469 52.4211 7.47656C52.8898 7.64062 53.3 7.88672 53.6516 8.21484C54.0031 8.54297 54.2805 8.94922 54.4836 9.43359C54.6945 9.91016 54.8 10.4609 54.8 11.0859C54.8 11.6484 54.6828 12.2188 54.4484 12.7969C54.2219 13.3672 53.882 13.9102 53.4289 14.4258C52.9758 14.9336 52.4133 15.3984 51.7414 15.8203C51.0773 16.2344 50.3117 16.5625 49.4445 16.8047C49.4914 17.2891 49.5578 17.7305 49.6437 18.1289C49.7375 18.5273 49.8508 18.8672 49.9836 19.1484C50.1242 19.4297 50.2844 19.6484 50.4641 19.8047C50.6516 19.9609 50.8664 20.0391 51.1086 20.0391C51.2648 20.0312 51.4133 20.0039 51.5539 19.957C51.6789 19.918 51.8039 19.8555 51.9289 19.7695C52.0617 19.6836 52.1711 19.5586 52.257 19.3945C52.0539 19.3008 51.8977 19.1797 51.7883 19.0312C51.6789 18.8828 51.5969 18.7422 51.5422 18.6094C51.4797 18.4531 51.4445 18.2891 51.4367 18.1172C51.4367 17.7422 51.5109 17.4375 51.6594 17.2031C51.8078 16.9688 51.9836 16.7852 52.1867 16.6523C52.3898 16.5195 52.5969 16.4297 52.8078 16.3828C53.0187 16.3281 53.1867 16.3008 53.3117 16.3008C53.4445 16.3008 53.6047 16.3281 53.7922 16.3828C53.9875 16.4375 54.175 16.543 54.3547 16.6992C54.5344 16.8555 54.6867 17.0781 54.8117 17.3672C54.9445 17.6484 55.0109 18.0195 55.0109 18.4805ZM52.1164 11.1094C52.1164 10.8281 52.0891 10.5625 52.0344 10.3125C51.9875 10.0547 51.9133 9.83203 51.8117 9.64453C51.718 9.45703 51.5969 9.30859 51.4484 9.19922C51.3078 9.08203 51.1437 9.02344 50.9562 9.02344C50.6359 9.02344 50.3742 9.17188 50.1711 9.46875C49.968 9.75781 49.8039 10.1445 49.6789 10.6289C49.5539 11.1133 49.468 11.6719 49.4211 12.3047C49.3742 12.9375 49.3508 13.5977 49.3508 14.2852V15.1406C49.7492 14.9297 50.1164 14.6797 50.4523 14.3906C50.7961 14.1016 51.0891 13.7852 51.3312 13.4414C51.5812 13.0898 51.7727 12.7188 51.9055 12.3281C52.0461 11.9375 52.1164 11.5312 52.1164 11.1094Z" fill="white"/>
<path d="M62.9905 21.1172C63.0061 20.8047 63.0217 20.5078 63.0373 20.2266C63.0608 19.9375 63.0842 19.6602 63.1077 19.3945C62.842 19.8633 62.5569 20.2227 62.2522 20.4727C61.9553 20.7227 61.678 20.9102 61.4202 21.0352C61.1155 21.1758 60.8147 21.2617 60.5178 21.293C59.9397 21.293 59.4358 21.1484 59.0061 20.8594C58.5764 20.5703 58.2209 20.1602 57.9397 19.6289C57.6584 19.0977 57.4475 18.4609 57.3069 17.7188C57.1741 16.9688 57.1077 16.1328 57.1077 15.2109C57.1077 13.9219 57.1467 12.6719 57.2248 11.4609C57.3108 10.25 57.4475 9.0625 57.635 7.89844L60.6116 8.22656C60.4241 9.15625 60.2795 9.98828 60.178 10.7227C60.0842 11.4492 60.0139 12.0703 59.967 12.5859C59.9123 13.1875 59.8811 13.7109 59.8733 14.1562C59.8733 14.8984 59.8967 15.5469 59.9436 16.1016C59.9905 16.6484 60.0725 17.1055 60.1897 17.4727C60.3147 17.832 60.4827 18.1016 60.6936 18.2812C60.9045 18.4609 61.1741 18.5508 61.5022 18.5508C61.7287 18.5117 61.9514 18.3555 62.1702 18.082C62.2639 17.9648 62.3616 17.8164 62.4631 17.6367C62.5647 17.4492 62.6662 17.2227 62.7678 16.957C62.8694 16.6914 62.967 16.3789 63.0608 16.0195C63.1545 15.6602 63.2444 15.2422 63.3303 14.7656C63.3459 14.3047 63.3537 13.8477 63.3537 13.3945C63.3537 12.9336 63.3537 12.4375 63.3537 11.9062C63.3537 11.3438 63.3537 10.7305 63.3537 10.0664C63.3537 9.40234 63.3459 8.65625 63.3303 7.82812L65.9905 7.875C65.9514 8.46875 65.9202 9.01953 65.8967 9.52734C65.8733 10.0273 65.8537 10.5 65.8381 10.9453C65.8303 11.3828 65.8225 11.7969 65.8147 12.1875C65.8069 12.5781 65.803 12.957 65.803 13.3242C65.803 13.8867 65.8069 14.4375 65.8147 14.9766C65.8303 15.5156 65.8498 16.0898 65.8733 16.6992C65.8967 17.3008 65.9202 17.9648 65.9436 18.6914C65.9748 19.4102 66.0061 20.2344 66.0373 21.1641L62.9905 21.1172Z" fill="white"/>
<path d="M77.0403 18.4805C77.0403 18.9414 76.9348 19.375 76.7239 19.7812C76.513 20.1875 76.2278 20.5391 75.8684 20.8359C75.5091 21.1328 75.0872 21.3672 74.6028 21.5391C74.1184 21.7109 73.6028 21.7969 73.0559 21.7969C72.6888 21.7969 72.3177 21.7461 71.9427 21.6445C71.5677 21.543 71.2083 21.375 70.8645 21.1406C70.5208 20.9062 70.1966 20.5977 69.8919 20.2148C69.5872 19.832 69.3216 19.3633 69.095 18.8086C68.8763 18.2539 68.7005 17.6055 68.5677 16.8633C68.4427 16.1133 68.3802 15.2539 68.3802 14.2852C68.3802 13.3711 68.4427 12.5625 68.5677 11.8594C68.7005 11.1562 68.8763 10.543 69.095 10.0195C69.3216 9.49609 69.5833 9.05859 69.8802 8.70703C70.177 8.34766 70.4934 8.05859 70.8294 7.83984C71.1731 7.61328 71.5247 7.45312 71.8841 7.35938C72.2513 7.26562 72.6106 7.21875 72.9622 7.21875C73.4856 7.21875 73.9817 7.30469 74.4505 7.47656C74.9192 7.64062 75.3294 7.88672 75.6809 8.21484C76.0325 8.54297 76.3098 8.94922 76.513 9.43359C76.7239 9.91016 76.8294 10.4609 76.8294 11.0859C76.8294 11.6484 76.7122 12.2188 76.4778 12.7969C76.2513 13.3672 75.9114 13.9102 75.4583 14.4258C75.0052 14.9336 74.4427 15.3984 73.7708 15.8203C73.1067 16.2344 72.3411 16.5625 71.4739 16.8047C71.5208 17.2891 71.5872 17.7305 71.6731 18.1289C71.7669 18.5273 71.8802 18.8672 72.013 19.1484C72.1536 19.4297 72.3138 19.6484 72.4934 19.8047C72.6809 19.9609 72.8958 20.0391 73.138 20.0391C73.2942 20.0312 73.4427 20.0039 73.5833 19.957C73.7083 19.918 73.8333 19.8555 73.9583 19.7695C74.0911 19.6836 74.2005 19.5586 74.2864 19.3945C74.0833 19.3008 73.927 19.1797 73.8177 19.0312C73.7083 18.8828 73.6263 18.7422 73.5716 18.6094C73.5091 18.4531 73.4739 18.2891 73.4661 18.1172C73.4661 17.7422 73.5403 17.4375 73.6888 17.2031C73.8372 16.9688 74.013 16.7852 74.2161 16.6523C74.4192 16.5195 74.6263 16.4297 74.8372 16.3828C75.0481 16.3281 75.2161 16.3008 75.3411 16.3008C75.4739 16.3008 75.6341 16.3281 75.8216 16.3828C76.0169 16.4375 76.2044 16.543 76.3841 16.6992C76.5638 16.8555 76.7161 17.0781 76.8411 17.3672C76.9739 17.6484 77.0403 18.0195 77.0403 18.4805ZM74.1458 11.1094C74.1458 10.8281 74.1184 10.5625 74.0638 10.3125C74.0169 10.0547 73.9427 9.83203 73.8411 9.64453C73.7473 9.45703 73.6263 9.30859 73.4778 9.19922C73.3372 9.08203 73.1731 9.02344 72.9856 9.02344C72.6653 9.02344 72.4036 9.17188 72.2005 9.46875C71.9973 9.75781 71.8333 10.1445 71.7083 10.6289C71.5833 11.1133 71.4973 11.6719 71.4505 12.3047C71.4036 12.9375 71.3802 13.5977 71.3802 14.2852V15.1406C71.7786 14.9297 72.1458 14.6797 72.4817 14.3906C72.8255 14.1016 73.1184 13.7852 73.3606 13.4414C73.6106 13.0898 73.802 12.7188 73.9348 12.3281C74.0755 11.9375 74.1458 11.5312 74.1458 11.1094Z" fill="white"/>
<path d="M82.2659 21.4805L79.137 21.7148C79.262 20.3164 79.3519 18.9688 79.4066 17.6719C79.4691 16.3672 79.5003 15.0625 79.5003 13.7578C79.5003 12.8359 79.4847 11.9141 79.4534 10.9922C79.43 10.0625 79.3831 9.10938 79.3128 8.13281L81.9495 7.99219C81.9339 8.16406 81.9222 8.33203 81.9144 8.49609C81.9066 8.66016 81.9027 8.82031 81.9027 8.97656C82.1761 8.55469 82.473 8.22656 82.7933 7.99219C83.1214 7.75 83.4261 7.57422 83.7073 7.46484C84.0277 7.33203 84.3519 7.25 84.68 7.21875C85.2503 7.21875 85.7386 7.30859 86.1448 7.48828C86.5511 7.66016 86.8831 7.88672 87.1409 8.16797C87.3988 8.44141 87.5863 8.75 87.7034 9.09375C87.8206 9.42969 87.8792 9.75781 87.8792 10.0781C87.8792 10.4062 87.8441 10.7383 87.7738 11.0742C87.7034 11.4102 87.5823 11.7148 87.4105 11.9883C87.2464 12.2539 87.0238 12.4727 86.7425 12.6445C86.4691 12.8086 86.1292 12.8906 85.723 12.8906C85.3167 12.8906 84.9964 12.8164 84.762 12.668C84.5277 12.5195 84.348 12.3438 84.223 12.1406C84.1058 11.9297 84.0277 11.7148 83.9886 11.4961C83.9573 11.2695 83.9417 11.0781 83.9417 10.9219C83.9417 10.8125 83.9613 10.6914 84.0003 10.5586C84.0394 10.418 84.098 10.2773 84.1761 10.1367C84.2542 9.99609 84.3519 9.85938 84.4691 9.72656C84.5863 9.58594 84.723 9.45703 84.8792 9.33984C84.8323 9.32422 84.7816 9.3125 84.7269 9.30469C84.68 9.29688 84.6331 9.29297 84.5863 9.29297C84.1956 9.29297 83.848 9.41797 83.5433 9.66797C83.2386 9.91016 82.973 10.25 82.7464 10.6875C82.5277 11.125 82.3441 11.6406 82.1956 12.2344C82.055 12.8281 81.9495 13.4766 81.8792 14.1797C81.9183 15.3906 81.973 16.5898 82.0433 17.7773C82.1136 18.9648 82.1878 20.1992 82.2659 21.4805Z" fill="white"/>
<path d="M12.8516 16.3945C12.8516 17.2539 12.75 18.0195 12.5469 18.6914C12.3438 19.3555 12.043 19.918 11.6445 20.3789C11.2539 20.832 10.7695 21.1758 10.1914 21.4102C9.61328 21.6523 8.94531 21.7734 8.1875 21.7734C7.34375 21.7734 6.58203 21.5781 5.90234 21.1875C5.22266 20.8047 4.64062 20.2266 4.15625 19.4531C3.67969 18.6797 3.3125 17.7148 3.05469 16.5586C2.79688 15.3945 2.66797 14.0352 2.66797 12.4805C2.66797 10.9258 2.83203 9.59766 3.16016 8.49609C3.49609 7.39453 3.9375 6.49609 4.48438 5.80078C5.03125 5.09766 5.65234 4.58594 6.34766 4.26562C7.05078 3.9375 7.76953 3.77344 8.50391 3.77344C9.23828 3.77344 9.85938 3.88281 10.3672 4.10156C10.8828 4.3125 11.3008 4.58203 11.6211 4.91016C11.9414 5.23828 12.1719 5.60156 12.3125 6C12.4609 6.39062 12.5352 6.76562 12.5352 7.125C12.5352 7.48438 12.4805 7.80078 12.3711 8.07422C12.2695 8.33984 12.1328 8.5625 11.9609 8.74219C11.7891 8.91406 11.5938 9.04688 11.375 9.14062C11.1641 9.22656 10.9492 9.26953 10.7305 9.26953C10.5195 9.26953 10.3086 9.24219 10.0977 9.1875C9.89453 9.13281 9.71484 9.03906 9.55859 8.90625C9.40234 8.76562 9.27344 8.58594 9.17188 8.36719C9.07812 8.14062 9.03125 7.86328 9.03125 7.53516C9.03906 7.37109 9.05859 7.21094 9.08984 7.05469C9.12109 6.92188 9.16797 6.77734 9.23047 6.62109C9.30078 6.45703 9.40234 6.30469 9.53516 6.16406C9.41797 6.03125 9.28906 5.92969 9.14844 5.85938C9.00781 5.78906 8.87109 5.73438 8.73828 5.69531C8.58984 5.65625 8.44141 5.62891 8.29297 5.61328C7.98828 5.61328 7.67969 5.74609 7.36719 6.01172C7.0625 6.27734 6.78125 6.6875 6.52344 7.24219C6.26562 7.78906 6.05078 8.48828 5.87891 9.33984C5.71484 10.1836 5.62891 11.1914 5.62109 12.3633C6.04297 11.8086 6.51953 11.3945 7.05078 11.1211C7.58984 10.8398 8.13672 10.6992 8.69141 10.6992C9.22266 10.6992 9.73828 10.8203 10.2383 11.0625C10.7383 11.3047 11.1797 11.6641 11.5625 12.1406C11.9531 12.6172 12.2656 13.2109 12.5 13.9219C12.7344 14.6328 12.8516 15.457 12.8516 16.3945ZM8.26953 19.8516C8.84766 19.8516 9.29688 19.5508 9.61719 18.9492C9.94531 18.3398 10.1094 17.4883 10.1094 16.3945C10.1094 15.8867 10.0586 15.4258 9.95703 15.0117C9.85547 14.5898 9.71484 14.2305 9.53516 13.9336C9.35547 13.6289 9.14453 13.3945 8.90234 13.2305C8.66016 13.0664 8.39844 12.9844 8.11719 12.9844C7.74219 12.9844 7.34766 13.1289 6.93359 13.418C6.52734 13.707 6.11328 14.1797 5.69141 14.8359C5.76953 15.6875 5.88672 16.4297 6.04297 17.0625C6.20703 17.6875 6.40234 18.207 6.62891 18.6211C6.85547 19.0352 7.10547 19.3438 7.37891 19.5469C7.66016 19.75 7.95703 19.8516 8.26953 19.8516Z" stroke="black" stroke-width="4.59152" mask="url(#path-1-outside-1_1623_9713)"/>
<path d="M18.4991 10.6992C18.4991 10.9102 18.4561 11.1094 18.3702 11.2969C18.292 11.4844 18.1827 11.6484 18.042 11.7891C17.9092 11.9219 17.7491 12.0312 17.5616 12.1172C17.3741 12.1953 17.1748 12.2344 16.9639 12.2344C16.7452 12.2344 16.542 12.1953 16.3545 12.1172C16.167 12.0312 16.003 11.9219 15.8623 11.7891C15.7217 11.6484 15.6084 11.4844 15.5225 11.2969C15.4444 11.1094 15.4053 10.9102 15.4053 10.6992C15.4053 10.4883 15.4444 10.2891 15.5225 10.1016C15.6084 9.90625 15.7217 9.73828 15.8623 9.59766C16.003 9.45703 16.167 9.34766 16.3545 9.26953C16.542 9.18359 16.7452 9.14062 16.9639 9.14062C17.1748 9.14062 17.3741 9.18359 17.5616 9.26953C17.7491 9.34766 17.9092 9.45703 18.042 9.59766C18.1827 9.73828 18.292 9.90625 18.3702 10.1016C18.4561 10.2891 18.4991 10.4883 18.4991 10.6992ZM18.4991 19.8984C18.4991 20.1094 18.4561 20.3086 18.3702 20.4961C18.292 20.6758 18.1827 20.8359 18.042 20.9766C17.9092 21.1172 17.7491 21.2266 17.5616 21.3047C17.3741 21.3906 17.1748 21.4336 16.9639 21.4336C16.7452 21.4336 16.542 21.3906 16.3545 21.3047C16.167 21.2266 16.003 21.1172 15.8623 20.9766C15.7217 20.8359 15.6084 20.6758 15.5225 20.4961C15.4444 20.3086 15.4053 20.1094 15.4053 19.8984C15.4053 19.6797 15.4444 19.4766 15.5225 19.2891C15.6084 19.1016 15.7217 18.9375 15.8623 18.7969C16.003 18.6562 16.167 18.5469 16.3545 18.4688C16.542 18.3828 16.7452 18.3398 16.9639 18.3398C17.1748 18.3398 17.3741 18.3828 17.5616 18.4688C17.7491 18.5469 17.9092 18.6562 18.042 18.7969C18.1827 18.9375 18.292 19.1016 18.3702 19.2891C18.4561 19.4766 18.4991 19.6797 18.4991 19.8984Z" stroke="black" stroke-width="4.59152" mask="url(#path-1-outside-1_1623_9713)"/>
<path d="M36.5206 16.9688C36.4425 17.8516 36.2394 18.5859 35.9112 19.1719C35.5909 19.75 35.1964 20.2148 34.7277 20.5664C34.2589 20.9102 33.7394 21.1523 33.1691 21.293C32.6066 21.4336 32.0441 21.5039 31.4816 21.5039C30.8956 21.5039 30.3292 21.4219 29.7823 21.2578C29.2433 21.1016 28.7667 20.8633 28.3527 20.543C27.9386 20.2227 27.6066 19.8203 27.3566 19.3359C27.1144 18.8516 26.9933 18.2852 26.9933 17.6367C26.9933 17.1367 27.0675 16.7188 27.2159 16.3828C27.3722 16.0469 27.5636 15.7773 27.7902 15.5742C28.0167 15.3711 28.2589 15.2305 28.5167 15.1523C28.7745 15.0664 29.0128 15.0234 29.2316 15.0234C29.4581 15.0234 29.6925 15.0586 29.9347 15.1289C30.1769 15.1992 30.3995 15.3164 30.6027 15.4805C30.8058 15.6445 30.9698 15.8672 31.0948 16.1484C31.2277 16.4219 31.2941 16.7656 31.2941 17.1797C31.2941 17.1875 31.2862 17.2617 31.2706 17.4023C31.2628 17.5352 31.2198 17.6914 31.1417 17.8711C31.0636 18.043 30.9425 18.2148 30.7784 18.3867C30.6222 18.5508 30.3917 18.668 30.087 18.7383C30.3058 19.0117 30.5597 19.2188 30.8487 19.3594C31.1456 19.4922 31.3956 19.5586 31.5987 19.5586C31.8019 19.5586 32.0323 19.5234 32.2902 19.4531C32.5558 19.3828 32.8019 19.2656 33.0284 19.1016C33.2628 18.9297 33.4581 18.707 33.6144 18.4336C33.7784 18.1523 33.8605 17.8008 33.8605 17.3789C33.8605 16.8867 33.7745 16.4492 33.6027 16.0664C33.4386 15.6836 33.2237 15.3477 32.9581 15.0586C32.7003 14.7617 32.4073 14.5039 32.0792 14.2852C31.7589 14.0586 31.4464 13.8555 31.1417 13.6758C30.9386 13.5586 30.6964 13.4219 30.4152 13.2656C30.1339 13.1016 29.8409 12.9102 29.5362 12.6914C29.2316 12.4648 28.9308 12.2109 28.6339 11.9297C28.337 11.6406 28.0675 11.3164 27.8253 10.957C27.5909 10.5898 27.3995 10.1836 27.2511 9.73828C27.1105 9.29297 27.0402 8.80078 27.0402 8.26172C27.0402 7.45703 27.1808 6.75391 27.462 6.15234C27.7433 5.54297 28.1066 5.03516 28.5519 4.62891C29.005 4.22266 29.5167 3.91797 30.087 3.71484C30.6573 3.51172 31.2355 3.41016 31.8214 3.41016C32.4073 3.41016 32.9659 3.49219 33.4972 3.65625C34.0284 3.8125 34.4933 4.04297 34.8917 4.34766C35.298 4.64453 35.6183 5.00391 35.8527 5.42578C36.0948 5.83984 36.2159 6.30469 36.2159 6.82031C36.2159 7.34375 36.13 7.75781 35.9581 8.0625C35.7862 8.36719 35.5792 8.59766 35.337 8.75391C35.1027 8.91016 34.8605 9.01172 34.6105 9.05859C34.3683 9.09766 34.173 9.11719 34.0245 9.11719C33.837 9.11719 33.6417 9.08203 33.4386 9.01172C33.2355 8.94141 33.048 8.83594 32.8761 8.69531C32.712 8.55469 32.5753 8.38281 32.4659 8.17969C32.3566 7.97656 32.3019 7.73828 32.3019 7.46484C32.3097 7.29297 32.3292 7.12109 32.3605 6.94922C32.3917 6.80078 32.4386 6.64062 32.5011 6.46875C32.5636 6.29688 32.6573 6.13281 32.7823 5.97656C32.6573 5.86719 32.5362 5.78125 32.4191 5.71875C32.3019 5.65625 32.1925 5.60938 32.0909 5.57812C31.9737 5.54688 31.8605 5.52734 31.7511 5.51953C31.5323 5.51953 31.3097 5.55859 31.0831 5.63672C30.8644 5.71484 30.6612 5.83203 30.4737 5.98828C30.2941 6.14453 30.1456 6.34375 30.0284 6.58594C29.9112 6.82031 29.8527 7.09766 29.8527 7.41797C29.8527 7.79297 29.9112 8.13281 30.0284 8.4375C30.1456 8.73438 30.3292 9.02344 30.5792 9.30469C30.8292 9.58594 31.1456 9.87109 31.5284 10.1602C31.9191 10.4492 32.3839 10.7656 32.923 11.1094C33.5558 11.5078 34.0987 11.9062 34.5519 12.3047C35.0128 12.7031 35.3878 13.1133 35.6769 13.5352C35.9737 13.957 36.1925 14.4023 36.3331 14.8711C36.4737 15.332 36.5441 15.832 36.5441 16.3711C36.5441 16.4648 36.5441 16.5625 36.5441 16.6641C36.5441 16.7578 36.5362 16.8594 36.5206 16.9688Z" stroke="black" stroke-width="4.59152" mask="url(#path-1-outside-1_1623_9713)"/>
<path d="M42.9416 3.1875C42.8791 3.99219 42.8283 4.78516 42.7892 5.56641C42.7502 6.33984 42.7111 7.11719 42.672 7.89844C43.0158 7.88281 43.3556 7.87109 43.6916 7.86328C44.0275 7.84766 44.3713 7.82812 44.7228 7.80469L44.7697 10.8047C44.3947 10.7422 44.0236 10.6914 43.6564 10.6523C43.2892 10.6133 42.9298 10.582 42.5783 10.5586C42.5548 11.2227 42.5392 11.8789 42.5314 12.5273C42.5314 13.1758 42.5314 13.832 42.5314 14.4961C42.5314 15.6836 42.5431 16.8633 42.5666 18.0352C42.5978 19.207 42.6447 20.3867 42.7072 21.5742L39.6486 21.5273C39.7502 19.6914 39.8322 17.8594 39.8947 16.0312C39.965 14.1953 40.0119 12.3477 40.0353 10.4883C39.7072 10.5039 39.3791 10.5234 39.0509 10.5469C38.7228 10.5625 38.3869 10.582 38.0431 10.6055L38.1369 7.82812C38.4572 7.85156 38.7736 7.87109 39.0861 7.88672C39.4064 7.89453 39.7228 7.90625 40.0353 7.92188C40.0353 7.14062 40.0275 6.36328 40.0119 5.58984C39.9963 4.80859 39.9806 4.02344 39.965 3.23438L42.9416 3.1875Z" stroke="black" stroke-width="4.59152" mask="url(#path-1-outside-1_1623_9713)"/>
<path d="M55.0109 18.4805C55.0109 18.9414 54.9055 19.375 54.6945 19.7812C54.4836 20.1875 54.1984 20.5391 53.8391 20.8359C53.4797 21.1328 53.0578 21.3672 52.5734 21.5391C52.0891 21.7109 51.5734 21.7969 51.0266 21.7969C50.6594 21.7969 50.2883 21.7461 49.9133 21.6445C49.5383 21.543 49.1789 21.375 48.8352 21.1406C48.4914 20.9062 48.1672 20.5977 47.8625 20.2148C47.5578 19.832 47.2922 19.3633 47.0656 18.8086C46.8469 18.2539 46.6711 17.6055 46.5383 16.8633C46.4133 16.1133 46.3508 15.2539 46.3508 14.2852C46.3508 13.3711 46.4133 12.5625 46.5383 11.8594C46.6711 11.1562 46.8469 10.543 47.0656 10.0195C47.2922 9.49609 47.5539 9.05859 47.8508 8.70703C48.1477 8.34766 48.4641 8.05859 48.8 7.83984C49.1437 7.61328 49.4953 7.45312 49.8547 7.35938C50.2219 7.26562 50.5812 7.21875 50.9328 7.21875C51.4562 7.21875 51.9523 7.30469 52.4211 7.47656C52.8898 7.64062 53.3 7.88672 53.6516 8.21484C54.0031 8.54297 54.2805 8.94922 54.4836 9.43359C54.6945 9.91016 54.8 10.4609 54.8 11.0859C54.8 11.6484 54.6828 12.2188 54.4484 12.7969C54.2219 13.3672 53.882 13.9102 53.4289 14.4258C52.9758 14.9336 52.4133 15.3984 51.7414 15.8203C51.0773 16.2344 50.3117 16.5625 49.4445 16.8047C49.4914 17.2891 49.5578 17.7305 49.6437 18.1289C49.7375 18.5273 49.8508 18.8672 49.9836 19.1484C50.1242 19.4297 50.2844 19.6484 50.4641 19.8047C50.6516 19.9609 50.8664 20.0391 51.1086 20.0391C51.2648 20.0312 51.4133 20.0039 51.5539 19.957C51.6789 19.918 51.8039 19.8555 51.9289 19.7695C52.0617 19.6836 52.1711 19.5586 52.257 19.3945C52.0539 19.3008 51.8977 19.1797 51.7883 19.0312C51.6789 18.8828 51.5969 18.7422 51.5422 18.6094C51.4797 18.4531 51.4445 18.2891 51.4367 18.1172C51.4367 17.7422 51.5109 17.4375 51.6594 17.2031C51.8078 16.9688 51.9836 16.7852 52.1867 16.6523C52.3898 16.5195 52.5969 16.4297 52.8078 16.3828C53.0187 16.3281 53.1867 16.3008 53.3117 16.3008C53.4445 16.3008 53.6047 16.3281 53.7922 16.3828C53.9875 16.4375 54.175 16.543 54.3547 16.6992C54.5344 16.8555 54.6867 17.0781 54.8117 17.3672C54.9445 17.6484 55.0109 18.0195 55.0109 18.4805ZM52.1164 11.1094C52.1164 10.8281 52.0891 10.5625 52.0344 10.3125C51.9875 10.0547 51.9133 9.83203 51.8117 9.64453C51.718 9.45703 51.5969 9.30859 51.4484 9.19922C51.3078 9.08203 51.1437 9.02344 50.9562 9.02344C50.6359 9.02344 50.3742 9.17188 50.1711 9.46875C49.968 9.75781 49.8039 10.1445 49.6789 10.6289C49.5539 11.1133 49.468 11.6719 49.4211 12.3047C49.3742 12.9375 49.3508 13.5977 49.3508 14.2852V15.1406C49.7492 14.9297 50.1164 14.6797 50.4523 14.3906C50.7961 14.1016 51.0891 13.7852 51.3312 13.4414C51.5812 13.0898 51.7727 12.7188 51.9055 12.3281C52.0461 11.9375 52.1164 11.5312 52.1164 11.1094Z" stroke="black" stroke-width="4.59152" mask="url(#path-1-outside-1_1623_9713)"/>
<path d="M62.9905 21.1172C63.0061 20.8047 63.0217 20.5078 63.0373 20.2266C63.0608 19.9375 63.0842 19.6602 63.1077 19.3945C62.842 19.8633 62.5569 20.2227 62.2522 20.4727C61.9553 20.7227 61.678 20.9102 61.4202 21.0352C61.1155 21.1758 60.8147 21.2617 60.5178 21.293C59.9397 21.293 59.4358 21.1484 59.0061 20.8594C58.5764 20.5703 58.2209 20.1602 57.9397 19.6289C57.6584 19.0977 57.4475 18.4609 57.3069 17.7188C57.1741 16.9688 57.1077 16.1328 57.1077 15.2109C57.1077 13.9219 57.1467 12.6719 57.2248 11.4609C57.3108 10.25 57.4475 9.0625 57.635 7.89844L60.6116 8.22656C60.4241 9.15625 60.2795 9.98828 60.178 10.7227C60.0842 11.4492 60.0139 12.0703 59.967 12.5859C59.9123 13.1875 59.8811 13.7109 59.8733 14.1562C59.8733 14.8984 59.8967 15.5469 59.9436 16.1016C59.9905 16.6484 60.0725 17.1055 60.1897 17.4727C60.3147 17.832 60.4827 18.1016 60.6936 18.2812C60.9045 18.4609 61.1741 18.5508 61.5022 18.5508C61.7287 18.5117 61.9514 18.3555 62.1702 18.082C62.2639 17.9648 62.3616 17.8164 62.4631 17.6367C62.5647 17.4492 62.6662 17.2227 62.7678 16.957C62.8694 16.6914 62.967 16.3789 63.0608 16.0195C63.1545 15.6602 63.2444 15.2422 63.3303 14.7656C63.3459 14.3047 63.3537 13.8477 63.3537 13.3945C63.3537 12.9336 63.3537 12.4375 63.3537 11.9062C63.3537 11.3438 63.3537 10.7305 63.3537 10.0664C63.3537 9.40234 63.3459 8.65625 63.3303 7.82812L65.9905 7.875C65.9514 8.46875 65.9202 9.01953 65.8967 9.52734C65.8733 10.0273 65.8537 10.5 65.8381 10.9453C65.8303 11.3828 65.8225 11.7969 65.8147 12.1875C65.8069 12.5781 65.803 12.957 65.803 13.3242C65.803 13.8867 65.8069 14.4375 65.8147 14.9766C65.8303 15.5156 65.8498 16.0898 65.8733 16.6992C65.8967 17.3008 65.9202 17.9648 65.9436 18.6914C65.9748 19.4102 66.0061 20.2344 66.0373 21.1641L62.9905 21.1172Z" stroke="black" stroke-width="4.59152" mask="url(#path-1-outside-1_1623_9713)"/>
<path d="M77.0403 18.4805C77.0403 18.9414 76.9348 19.375 76.7239 19.7812C76.513 20.1875 76.2278 20.5391 75.8684 20.8359C75.5091 21.1328 75.0872 21.3672 74.6028 21.5391C74.1184 21.7109 73.6028 21.7969 73.0559 21.7969C72.6888 21.7969 72.3177 21.7461 71.9427 21.6445C71.5677 21.543 71.2083 21.375 70.8645 21.1406C70.5208 20.9062 70.1966 20.5977 69.8919 20.2148C69.5872 19.832 69.3216 19.3633 69.095 18.8086C68.8763 18.2539 68.7005 17.6055 68.5677 16.8633C68.4427 16.1133 68.3802 15.2539 68.3802 14.2852C68.3802 13.3711 68.4427 12.5625 68.5677 11.8594C68.7005 11.1562 68.8763 10.543 69.095 10.0195C69.3216 9.49609 69.5833 9.05859 69.8802 8.70703C70.177 8.34766 70.4934 8.05859 70.8294 7.83984C71.1731 7.61328 71.5247 7.45312 71.8841 7.35938C72.2513 7.26562 72.6106 7.21875 72.9622 7.21875C73.4856 7.21875 73.9817 7.30469 74.4505 7.47656C74.9192 7.64062 75.3294 7.88672 75.6809 8.21484C76.0325 8.54297 76.3098 8.94922 76.513 9.43359C76.7239 9.91016 76.8294 10.4609 76.8294 11.0859C76.8294 11.6484 76.7122 12.2188 76.4778 12.7969C76.2513 13.3672 75.9114 13.9102 75.4583 14.4258C75.0052 14.9336 74.4427 15.3984 73.7708 15.8203C73.1067 16.2344 72.3411 16.5625 71.4739 16.8047C71.5208 17.2891 71.5872 17.7305 71.6731 18.1289C71.7669 18.5273 71.8802 18.8672 72.013 19.1484C72.1536 19.4297 72.3138 19.6484 72.4934 19.8047C72.6809 19.9609 72.8958 20.0391 73.138 20.0391C73.2942 20.0312 73.4427 20.0039 73.5833 19.957C73.7083 19.918 73.8333 19.8555 73.9583 19.7695C74.0911 19.6836 74.2005 19.5586 74.2864 19.3945C74.0833 19.3008 73.927 19.1797 73.8177 19.0312C73.7083 18.8828 73.6263 18.7422 73.5716 18.6094C73.5091 18.4531 73.4739 18.2891 73.4661 18.1172C73.4661 17.7422 73.5403 17.4375 73.6888 17.2031C73.8372 16.9688 74.013 16.7852 74.2161 16.6523C74.4192 16.5195 74.6263 16.4297 74.8372 16.3828C75.0481 16.3281 75.2161 16.3008 75.3411 16.3008C75.4739 16.3008 75.6341 16.3281 75.8216 16.3828C76.0169 16.4375 76.2044 16.543 76.3841 16.6992C76.5638 16.8555 76.7161 17.0781 76.8411 17.3672C76.9739 17.6484 77.0403 18.0195 77.0403 18.4805ZM74.1458 11.1094C74.1458 10.8281 74.1184 10.5625 74.0638 10.3125C74.0169 10.0547 73.9427 9.83203 73.8411 9.64453C73.7473 9.45703 73.6263 9.30859 73.4778 9.19922C73.3372 9.08203 73.1731 9.02344 72.9856 9.02344C72.6653 9.02344 72.4036 9.17188 72.2005 9.46875C71.9973 9.75781 71.8333 10.1445 71.7083 10.6289C71.5833 11.1133 71.4973 11.6719 71.4505 12.3047C71.4036 12.9375 71.3802 13.5977 71.3802 14.2852V15.1406C71.7786 14.9297 72.1458 14.6797 72.4817 14.3906C72.8255 14.1016 73.1184 13.7852 73.3606 13.4414C73.6106 13.0898 73.802 12.7188 73.9348 12.3281C74.0755 11.9375 74.1458 11.5312 74.1458 11.1094Z" stroke="black" stroke-width="4.59152" mask="url(#path-1-outside-1_1623_9713)"/>
<path d="M82.2659 21.4805L79.137 21.7148C79.262 20.3164 79.3519 18.9688 79.4066 17.6719C79.4691 16.3672 79.5003 15.0625 79.5003 13.7578C79.5003 12.8359 79.4847 11.9141 79.4534 10.9922C79.43 10.0625 79.3831 9.10938 79.3128 8.13281L81.9495 7.99219C81.9339 8.16406 81.9222 8.33203 81.9144 8.49609C81.9066 8.66016 81.9027 8.82031 81.9027 8.97656C82.1761 8.55469 82.473 8.22656 82.7933 7.99219C83.1214 7.75 83.4261 7.57422 83.7073 7.46484C84.0277 7.33203 84.3519 7.25 84.68 7.21875C85.2503 7.21875 85.7386 7.30859 86.1448 7.48828C86.5511 7.66016 86.8831 7.88672 87.1409 8.16797C87.3988 8.44141 87.5863 8.75 87.7034 9.09375C87.8206 9.42969 87.8792 9.75781 87.8792 10.0781C87.8792 10.4062 87.8441 10.7383 87.7738 11.0742C87.7034 11.4102 87.5823 11.7148 87.4105 11.9883C87.2464 12.2539 87.0238 12.4727 86.7425 12.6445C86.4691 12.8086 86.1292 12.8906 85.723 12.8906C85.3167 12.8906 84.9964 12.8164 84.762 12.668C84.5277 12.5195 84.348 12.3438 84.223 12.1406C84.1058 11.9297 84.0277 11.7148 83.9886 11.4961C83.9573 11.2695 83.9417 11.0781 83.9417 10.9219C83.9417 10.8125 83.9613 10.6914 84.0003 10.5586C84.0394 10.418 84.098 10.2773 84.1761 10.1367C84.2542 9.99609 84.3519 9.85938 84.4691 9.72656C84.5863 9.58594 84.723 9.45703 84.8792 9.33984C84.8323 9.32422 84.7816 9.3125 84.7269 9.30469C84.68 9.29688 84.6331 9.29297 84.5863 9.29297C84.1956 9.29297 83.848 9.41797 83.5433 9.66797C83.2386 9.91016 82.973 10.25 82.7464 10.6875C82.5277 11.125 82.3441 11.6406 82.1956 12.2344C82.055 12.8281 81.9495 13.4766 81.8792 14.1797C81.9183 15.3906 81.973 16.5898 82.0433 17.7773C82.1136 18.9648 82.1878 20.1992 82.2659 21.4805Z" stroke="black" stroke-width="4.59152" mask="url(#path-1-outside-1_1623_9713)"/>
</svg>
