<svg width="61" height="91" fill="none" xmlns="http://www.w3.org/2000/svg"><rect x=".39" y=".05" width="60.06" height="90.09" rx="4.62" fill="#fff"/><path d="M5.01 45.1h49.66" stroke="#000" stroke-width="1.15"/><mask id="a" style="mask-type:alpha" maskUnits="userSpaceOnUse" x="1" y="1" width="57" height="87"><path d="M10.7 2.36h42.24a4.04 4.04 0 0 1 4.04 4.04V67.7c0 .91-.74 1.66-1.66 1.66-1.32 0-2.47.92-2.75 2.21l-2.26 10.4c-.2.91.21 1.85 1.01 2.33.9.54.53 1.9-.5 1.92l-44.98.94a4.04 4.04 0 0 1-4.13-4.18l2.03-59.29a2.95 2.95 0 0 1 2.95-2.84 4.1 4.1 0 0 0 4.1-4.1V8.22c0-.96-.46-1.87-1.22-2.44a1.9 1.9 0 0 1 1.13-3.42Z" fill="#C4C4C4" stroke="#000" stroke-width="1.15"/></mask><g mask="url(#a)"><rect x="5.59" y="5.25" width="49.66" height="79.69" rx="4.04" stroke="#000" stroke-width="1.15"/></g><path d="M16.7 18.53h-4.88c1.94-1.14 2.28-2.06 2.44-3.88L11 16.2c-1.78-1.19-1.87-1.87 0-3.1l3.26 1.55-1.63-3.88c1.03-2.01 2.03-1.94 3.25 0l-1.62 3.88 3.66-1.55c1.42 1.21 1.1 1.89 0 3.1l-3.66-1.55c.3 1.82.71 2.72 2.44 3.88Z" fill="#000"/><path d="M14.26 14.65c-.16 1.82-.5 2.74-2.44 3.88h4.88c-1.73-1.16-2.15-2.06-2.44-3.88Zm0 0L11 16.2c-1.78-1.19-1.87-1.87 0-3.1l3.26 1.55Zm0 0 1.62-3.88c-1.22-1.94-2.22-2.01-3.25 0l1.63 3.88Zm0 0 3.66-1.55c1.42 1.21 1.1 1.89 0 3.1l-3.66-1.55Z" stroke="#000" stroke-width="1.15"/><path d="M8.58 17.84a1.63 1.63 0 0 1 .03.27 1.2 1.2 0 0 1-.45.94c-.14.12-.3.2-.5.27a2.2 2.2 0 0 1-2.07-.42c-.2-.16-.35-.36-.47-.6-.12-.23-.17-.49-.17-.78 0-.08 0-.2.02-.38s.07-.37.14-.58c-.5-.07-.93-.26-1.3-.58a3.94 3.94 0 0 1-.94-1.23 6.86 6.86 0 0 1-.56-1.73 11.22 11.22 0 0 1 .02-4.26c.14-.69.35-1.28.64-1.8.28-.5.64-.9 1.07-1.2.43-.3.93-.44 1.5-.44.6 0 1.12.15 1.55.45.43.29.79.69 1.07 1.2.28.5.48 1.1.61 1.79a11.57 11.57 0 0 1 .05 4.01c-.1.58-.25 1.1-.44 1.58-.2.47-.43.88-.72 1.23-.29.34-.62.6-1 .77-.15.11-.29.25-.4.42-.11.17-.17.4-.17.68v.1l.03.15.06.2.12.24a1.47 1.47 0 0 1 .38-.87c.11-.11.24-.2.38-.26s.3-.09.47-.09c.24 0 .46.06.65.2.19.16.32.4.4.72Zm-1.53-6.9c0-.6-.02-1.17-.07-1.7a7.3 7.3 0 0 0-.25-1.4c-.11-.4-.27-.72-.46-.95a.9.9 0 0 0-.72-.34.88.88 0 0 0-.7.34c-.2.23-.35.55-.47.95-.12.4-.2.86-.25 1.4a17.05 17.05 0 0 0 0 3.43c.05.53.13 1 .25 1.4.12.4.28.71.47.95.2.23.42.34.7.34.27 0 .5-.11.69-.34.19-.24.34-.55.47-.95.12-.4.2-.87.26-1.4.05-.54.08-1.11.08-1.72ZM52.26 72.35a1.67 1.67 0 0 1-.03-.28 1.2 1.2 0 0 1 .45-.93c.14-.12.31-.21.51-.28a2.2 2.2 0 0 1 2.07.42c.19.16.34.36.46.6.12.23.18.5.18.78l-.03.39c-.02.18-.06.37-.14.57.5.07.93.27 1.3.59.38.32.7.73.94 1.23.25.5.44 1.08.56 1.72a11.22 11.22 0 0 1-.02 4.27 6.26 6.26 0 0 1-.63 1.79c-.29.5-.65.9-1.08 1.2-.43.3-.93.45-1.5.45-.6 0-1.11-.15-1.55-.45-.43-.3-.79-.7-1.07-1.2-.27-.51-.48-1.1-.61-1.8a11.57 11.57 0 0 1-.05-4c.1-.59.25-1.11.44-1.58.2-.48.43-.89.72-1.24.3-.34.62-.6 1-.77a1.23 1.23 0 0 0 .57-1.1v-.1l-.03-.15a1.32 1.32 0 0 0-.18-.44 1.47 1.47 0 0 1-.38.88 1.21 1.21 0 0 1-.84.34.97.97 0 0 1-.66-.2c-.19-.15-.32-.4-.4-.71Zm1.53 6.89c0 .6.03 1.17.07 1.7.05.54.14 1.01.25 1.4.12.4.27.72.47.95.19.23.43.35.71.35.28 0 .52-.12.7-.35.2-.23.35-.54.47-.94.12-.4.2-.87.26-1.4a17.04 17.04 0 0 0 0-3.44c-.06-.53-.14-1-.26-1.4a2.8 2.8 0 0 0-.47-.94.87.87 0 0 0-1.39 0c-.19.23-.34.55-.46.94-.13.4-.21.87-.27 1.4-.05.54-.08 1.12-.08 1.73Z" fill="#000"/><path d="m24.26 58.1-11.55-4.67c14.17-4.97 24.38-1.55 27.72.78l-7.7 4.67-1.54 3.89c.51 1.3 1.23 5.29 0 10.89-1.23 5.6-5.13 9.07-6.93 10.1-2.05-.51-5.85-3.26-4.62-10.1 1.54-8.56 2.31-9.34 4.62-10.9V58.1Z" fill="#FFDBB0"/><path d="M24.26 62.77V58.1l-11.55-4.67c14.17-4.97 24.38-1.55 27.72.78l-7.7 4.67-1.54 3.89c.51 1.3 1.23 5.29 0 10.89-1.23 5.6-5.13 9.07-6.93 10.1m0-21c-2.3 1.56-3.08 2.34-4.62 10.9-1.23 6.84 2.57 9.59 4.62 10.1m0-21c.77 0 2.46.16 3.08.79m-3.08 20.22c-2.82.52-1.54 2.33 3.85 1.55 7.96-1.14 10.78-10.1 9.24-10.88l1.16-13.76" stroke="#000" stroke-width="1.15" stroke-linejoin="bevel"/><path d="M24.65 83.2c-2.47-.73-4.46-3.85-4.62-6.92-.13-2.43.71-4.53 2.3-10.4.66-1.38 1.92-2.64 4.05-1.73" stroke="#FFCB8D" stroke-opacity=".46" stroke-width="1.15" style="mix-blend-mode:multiply"/><path d="M23.2 73.97c0-.98-.17-3.09-.86-3.67m3.46-2.94a4.83 4.83 0 0 0-3.46 0" stroke="#000" stroke-width=".58"/><path d="M25.42 75.57c.25.53 1.38 1.28 3.85 0m-6.93 0c-.26.53-1.08 1.28-2.31 0m.77-1.6h.77m5.39 0h.77" stroke="#000" stroke-width="1.15"/><path d="M37.35 73.57c-1.14-6.77.92-14.68 1.16-17.5l-5.2 2.88-1.69 3.08.72 6.92-2.86 9.23c-3.68 6.63-6.13 6.76-5.41 6.76 11.55 0 12.8-8.55 13.28-11.37Z" fill="#000" stroke="#000" stroke-width="1.15"/><path d="m37.59 76.8 3.8 5.25-3.7-.44-.47 3.64-3.2-1.79-.48 3.64-3.21-1.79-2.07 2.52-2.03-5.32 11.36-5.7Z" fill="#FFDC22" stroke="#000" stroke-width="1.15" stroke-linejoin="round"/><path d="m12.71 53.43-1.54-8.34h38.3c-2.32 7.06-5.77 10.97-10.96 15.6l.57-5.2 1.16-1.16c-2.95-2.33-12.6-5.77-27.53-.9Z" fill="#B02929" stroke="#000" stroke-width="1.15" stroke-linejoin="bevel"/><path d="m36.58 32.08 11.55 4.67c-14.17 4.98-24.38 1.56-27.72-.78l7.7-4.66 1.54-3.9c-.51-1.29-1.23-5.28 0-10.88 1.23-5.6 5.13-9.08 6.93-10.11 2.05.51 5.85 3.26 4.62 10.1-1.54 8.56-2.3 9.34-4.62 10.9v4.66Z" fill="#FFDBB0"/><path d="M36.58 27.42v4.66l11.55 4.67c-14.17 4.98-24.38 1.56-27.72-.78l7.7-4.66 1.54-3.9c-.51-1.29-1.23-5.28 0-10.88 1.23-5.6 5.13-9.08 6.93-10.11m0 21c2.31-1.56 3.08-2.34 4.62-10.9 1.23-6.84-2.57-9.59-4.62-10.1m0 21c-.77 0-2.46-.16-3.08-.78m3.08-20.22c2.82-.52 1.54-2.34-3.85-1.56-7.96 1.15-10.78 10.11-9.24 10.89L22.34 29.5" stroke="#000" stroke-width="1.15" stroke-linejoin="bevel"/><path d="M36.2 6.98c2.47.74 4.45 3.85 4.62 6.93.12 2.43-.72 4.53-2.31 10.4-.66 1.38-1.91 2.63-4.05 1.73" stroke="#FFCB8D" stroke-opacity=".46" stroke-width="1.15" style="mix-blend-mode:multiply"/><path d="M37.64 16.22c0 .98.17 3.08.87 3.67m-3.47 2.93c.58.25 2.08.6 3.47 0" stroke="#000" stroke-width=".58"/><path d="M35.43 14.62c-.26-.54-1.39-1.28-3.85 0m6.93 0c.25-.54 1.07-1.28 2.3 0m-.76 1.6h-.77m-5.4 0h-.76" stroke="#000" stroke-width="1.15"/><path d="M23.5 16.62c1.14 6.77-.92 14.68-1.16 17.5l5.2-2.89 1.68-3.07-.72-6.93L31.37 12c3.67-6.62 6.12-6.75 5.4-6.75-11.55 0-12.8 8.55-13.28 11.37Z" fill="#000" stroke="#000" stroke-width="1.15"/><path d="m23.26 13.38-3.81-5.25 3.7.45.47-3.65 3.21 1.8.48-3.65 3.2 1.8 2.07-2.52 2.03 5.32-11.35 5.7Z" fill="#FFDC22" stroke="#000" stroke-width="1.15" stroke-linejoin="round"/><path d="m48.13 36.75 1.54 8.34h-38.3c2.32-7.05 5.77-10.97 10.97-15.59l-.58 5.2-1.16 1.15c2.96 2.33 12.6 5.78 27.53.9Z" fill="#B02929" stroke="#000" stroke-width="1.15" stroke-linejoin="bevel"/><path d="M49.03 71.66h-4.88c1.95 1.13 2.29 2.06 2.44 3.87l-3.25-1.55c-1.78 1.2-1.87 1.87 0 3.1l3.25-1.55-1.62 3.88c1.03 2.02 2.03 1.94 3.25 0l-1.63-3.88 3.66 1.56c1.43-1.22 1.12-1.9 0-3.1l-3.66 1.54c.3-1.81.72-2.72 2.44-3.87Z" fill="#000"/><path d="M46.6 75.53c-.16-1.81-.5-2.74-2.45-3.87h4.88c-1.72 1.15-2.14 2.06-2.44 3.87Zm0 0-3.26-1.55c-1.78 1.2-1.87 1.87 0 3.1l3.25-1.55Zm0 0 1.62 3.88c-1.22 1.94-2.22 2.02-3.25 0l1.62-3.88Zm0 0 3.65 1.56c1.43-1.22 1.12-1.9 0-3.1l-3.66 1.54Z" stroke="#000" stroke-width="1.15"/></svg>