<svg width="61" height="91" fill="none" xmlns="http://www.w3.org/2000/svg"><rect x=".39" y=".05" width="60.06" height="90.09" rx="4.62" fill="#fff"/><mask id="a" style="mask-type:alpha" maskUnits="userSpaceOnUse" x="1" y="1" width="58" height="87"><path d="M11.28 2.36h42.24a4.04 4.04 0 0 1 4.04 4.04V67.7c0 .91-.74 1.66-1.66 1.66-1.32 0-2.47.92-2.75 2.21l-2.26 10.4c-.2.91.2 1.85 1.01 2.33.89.54.53 1.9-.5 1.92l-44.98.94a4.04 4.04 0 0 1-4.13-4.18l2.03-59.29a2.95 2.95 0 0 1 2.94-2.84 4.1 4.1 0 0 0 4.1-4.1V8.22c0-.96-.45-1.87-1.22-2.44a1.9 1.9 0 0 1 1.14-3.42Z" fill="#C4C4C4" stroke="#000" stroke-width="1.15"/></mask><g mask="url(#a)"><rect x="6.17" y="5.25" width="49.66" height="79.69" rx="4.04" stroke="#000" stroke-width="1.15"/></g><path d="M36.2 54.33H25.81c4.13-2.56 4.86-4.63 5.19-8.72l-6.92 3.49c-3.78-2.68-3.98-4.2 0-6.99l6.92 3.5-3.46-8.73c2.19-4.53 4.32-4.36 6.91 0l-3.45 8.73 7.78-3.5c3.03 2.73 2.36 4.26 0 6.99L31 45.6c.63 4.1 1.52 6.13 5.18 8.73Z" fill="#000"/><path d="M31 45.6c-.32 4.1-1.05 6.17-5.18 8.73H36.2c-3.66-2.6-4.55-4.63-5.18-8.72Zm0 0-6.9 3.5c-3.79-2.68-3.99-4.2 0-6.99l6.9 3.5Zm0 0 3.46-8.72c-2.59-4.36-4.72-4.53-6.91 0l3.46 8.73Zm0 0 7.79-3.49c3.03 2.73 2.36 4.26 0 6.99L31 45.6Z" stroke="#000" stroke-width="1.15"/><path d="M16.7 18.53h-4.88c1.94-1.14 2.28-2.06 2.44-3.88L11 16.2c-1.78-1.19-1.87-1.87 0-3.1l3.26 1.55-1.63-3.88c1.03-2.01 2.03-1.94 3.25 0l-1.62 3.88 3.66-1.55c1.42 1.21 1.1 1.89 0 3.1l-3.66-1.55c.3 1.82.71 2.72 2.44 3.88Z" fill="#000"/><path d="M14.26 14.65c-.16 1.82-.5 2.74-2.44 3.88h4.88c-1.73-1.16-2.15-2.06-2.44-3.88Zm0 0L11 16.2c-1.78-1.19-1.87-1.87 0-3.1l3.26 1.55Zm0 0 1.62-3.88c-1.22-1.94-2.22-2.01-3.25 0l1.63 3.88Zm0 0 3.66-1.55c1.42 1.21 1.1 1.89 0 3.1l-3.66-1.55Z" stroke="#000" stroke-width="1.15"/><path d="M44.15 71.66h4.88c-1.94 1.13-2.29 2.06-2.44 3.87l3.25-1.55c1.78 1.2 1.87 1.87 0 3.1l-3.25-1.55 1.62 3.88c-1.03 2.02-2.03 1.94-3.25 0l1.63-3.88-3.66 1.56c-1.43-1.22-1.12-1.9 0-3.1l3.66 1.54c-.3-1.81-.72-2.72-2.44-3.87Z" fill="#000"/><path d="M46.59 75.53c.15-1.81.5-2.74 2.44-3.87h-4.88c1.72 1.15 2.14 2.06 2.44 3.87Zm0 0 3.25-1.55c1.78 1.2 1.87 1.87 0 3.1l-3.25-1.55Zm0 0-1.63 3.88c1.22 1.94 2.22 2.02 3.25 0l-1.62-3.88Zm0 0-3.66 1.56c-1.43-1.22-1.12-1.9 0-3.1l3.66 1.54Z" stroke="#000" stroke-width="1.15"/><path d="m2.28 15.33-.03-1.13-.05-1.13-.06-1.14a30.92 30.92 0 0 1 .01-2.43c.03-.43.08-.85.16-1.24.08-.4.19-.78.33-1.12.13-.36.31-.66.53-.92a2.4 2.4 0 0 1 1.93-.84c.4 0 .77.06 1.07.2.3.12.56.3.77.52.21.23.39.5.52.8a7.83 7.83 0 0 1 .48 2.08 14.8 14.8 0 0 1-.01 2.4 755.7 755.7 0 0 1-.07 1.7 1639.31 1639.31 0 0 0-.11 3.32l-2.2-.08a48.85 48.85 0 0 0 .4-3.24 13.52 13.52 0 0 0-1.91-.01 72.18 72.18 0 0 0 .2 2.52c.02.28.06.54.1.8l-2.08.06.02-.55v-.57Zm1.67-3.81.43.01h.42c.52 0 .94-.01 1.26-.04l.09-1.05c.03-.35.05-.73.05-1.13 0-.84-.09-1.48-.27-1.92-.17-.45-.42-.67-.76-.67a.78.78 0 0 0-.51.2c-.16.13-.3.33-.41.61-.11.28-.2.62-.27 1.04a10.1 10.1 0 0 0-.08 2.14l.05.81ZM58.57 74.85a85.32 85.32 0 0 0 .08 2.26l.05 1.14a30.84 30.84 0 0 1-.01 2.44c-.03.43-.08.84-.16 1.24s-.19.77-.32 1.12c-.14.35-.32.66-.54.92a2.4 2.4 0 0 1-1.93.84c-.4 0-.76-.07-1.07-.2a2.2 2.2 0 0 1-.77-.53 2.68 2.68 0 0 1-.52-.79 7.83 7.83 0 0 1-.48-2.08 14.77 14.77 0 0 1 .01-2.4 1249.22 1249.22 0 0 1 .08-1.7 1377.29 1377.29 0 0 0 .1-3.33l2.2.08a48.73 48.73 0 0 0-.39 3.24 13.57 13.57 0 0 0 1.9.02 69.63 69.63 0 0 0-.2-2.52c-.02-.28-.06-.55-.1-.8l2.08-.06-.01.55v.56Zm-1.68 3.82-.43-.02h-.42c-.52 0-.94.02-1.26.04l-.09 1.05c-.03.35-.05.73-.05 1.13 0 .85.1 1.49.27 1.93.17.44.42.67.76.67.19 0 .36-.07.51-.2.16-.13.3-.34.41-.62.12-.27.2-.62.27-1.04a10.1 10.1 0 0 0 .09-2.13l-.06-.81Z" fill="#000"/></svg>