<svg width="82" height="80" viewBox="0 0 82 80" fill="none" xmlns="http://www.w3.org/2000/svg">
<g filter="url(#filter0_d_1421_12538)">
<path fill-rule="evenodd" clip-rule="evenodd" d="M35.081 19.8805L35.0817 19.8816L35.081 19.8805Z" fill="#4C29B0"/>
<path d="M19.0166 24.0017C19.5968 23.3723 20.0022 22.6974 20.2981 22.1573C20.4411 21.8963 20.5403 21.706 20.622 21.547C20.764 22.0184 20.9682 22.6155 21.2663 23.1563C21.7521 24.0376 22.6078 25.0043 24.0528 25.3611C25.3585 25.6836 26.5545 25.4783 27.5738 24.8996C28.4695 24.3911 29.1182 23.6505 29.5405 23.1434C29.7209 22.9266 29.8678 22.7439 29.9984 22.5814C30.2435 22.2764 30.4314 22.0425 30.6769 21.7886C30.995 21.4596 31.2204 21.3141 31.404 21.2437C31.9903 21.0188 32.5547 20.7554 33.0144 20.5409L33.1921 20.458C33.7239 20.2109 34.0992 20.0463 34.4271 19.9423C34.7408 19.8429 34.8884 19.8411 34.9425 19.8456L34.9453 19.8458C34.9634 19.8471 35.0063 19.8503 35.0974 19.9076C35.1175 19.9443 35.1538 20.0219 35.1941 20.161C35.2897 20.4909 35.3436 20.9539 35.345 21.5037C35.3463 22.0364 35.2986 22.5522 35.2479 22.9431C35.2229 23.1353 35.1982 23.2896 35.1807 23.3912C35.1807 23.3912 35.1651 23.4788 35.161 23.5003L35.1573 23.5196L35.1578 23.5171L37.6067 24.0204L40.0555 24.5236L40.0563 24.5194L40.108 24.2408C40.1357 24.0802 40.1712 23.8568 40.2062 23.587C40.2755 23.0539 40.347 22.3082 40.345 21.4913C40.343 20.6914 40.271 19.7165 39.9966 18.7694C39.7261 17.8361 39.187 16.6886 38.0742 15.8873C36.2415 14.5676 34.3801 14.7121 32.9165 15.176C32.2452 15.3887 31.6028 15.683 31.0849 15.9238L30.8982 16.0106C30.4216 16.2327 30.0246 16.4176 29.6138 16.5751C28.5018 17.0015 27.6841 17.6906 27.0821 18.3133C26.6704 18.7392 26.2516 19.2594 25.949 19.6351C25.852 19.7556 25.7669 19.8613 25.6979 19.9442C25.6017 20.0597 25.5195 20.1538 25.4496 20.2304C25.4022 20.0779 25.3464 19.8865 25.2761 19.641L25.2572 19.5747C25.1145 19.0745 24.8604 18.1831 24.3637 17.4303C23.7161 16.4487 22.6288 15.6438 21.0873 15.6159C19.9871 15.5961 19.0123 15.9189 18.2054 16.528C17.4676 17.0849 16.9961 17.7887 16.6866 18.3148C16.5181 18.6012 16.2903 19.0372 16.116 19.3707C16.0315 19.5324 15.9596 19.6701 15.9131 19.7549C15.6909 20.1605 15.5144 20.4239 15.3401 20.6129L19.0166 24.0017Z" fill="#4C29B0"/>
<path d="M25.2572 19.5747C25.1145 19.0745 24.8604 18.1831 24.3637 17.4303C23.7161 16.4487 22.6288 15.6438 21.0873 15.6159C19.9871 15.5961 19.0123 15.9189 18.2054 16.528C17.4676 17.0849 16.9961 17.7887 16.6866 18.3148C16.5181 18.6012 16.2903 19.0372 16.116 19.3707C16.0315 19.5324 15.9596 19.6701 15.9131 19.7549C15.6909 20.1605 15.5144 20.4239 15.3401 20.6129L19.0166 24.0017C19.5968 23.3723 20.0022 22.6974 20.2981 22.1573C20.4411 21.8963 20.5403 21.706 20.622 21.547C20.764 22.0184 20.9682 22.6155 21.2663 23.1563C21.7521 24.0376 22.6078 25.0043 24.0528 25.3611C25.3585 25.6836 26.5545 25.4783 27.5738 24.8996C28.4695 24.3911 29.1182 23.6505 29.5405 23.1434C29.7209 22.9266 29.8678 22.7439 29.9984 22.5814C30.2435 22.2764 30.4314 22.0425 30.6769 21.7886C30.995 21.4596 31.2204 21.3141 31.404 21.2437C31.9903 21.0188 32.5547 20.7554 33.0144 20.5409M25.2572 19.5747C25.2637 19.5977 25.27 19.6198 25.2761 19.641M25.2572 19.5747L25.2761 19.641M25.2761 19.641C25.3464 19.8865 25.4022 20.0779 25.4496 20.2304C25.5195 20.1538 25.6017 20.0597 25.6979 19.9442C25.7669 19.8613 25.852 19.7556 25.949 19.6351C26.2516 19.2594 26.6704 18.7392 27.0821 18.3133C27.6841 17.6906 28.5018 17.0015 29.6138 16.5751C30.0246 16.4176 30.4216 16.2327 30.8982 16.0106M30.8982 16.0106C30.9591 15.9823 31.0212 15.9533 31.0849 15.9238M30.8982 16.0106L31.0849 15.9238M31.0849 15.9238C31.6028 15.683 32.2452 15.3887 32.9165 15.176C34.3801 14.7121 36.2415 14.5676 38.0742 15.8873C39.187 16.6886 39.7261 17.8361 39.9966 18.7694C40.271 19.7165 40.343 20.6914 40.345 21.4913C40.347 22.3082 40.2755 23.0539 40.2062 23.587C40.1712 23.8568 40.1357 24.0802 40.108 24.2408L40.0563 24.5194L40.0555 24.5236L37.6067 24.0204L35.1578 23.5171L35.1573 23.5196L35.161 23.5003C35.1651 23.4788 35.1807 23.3912 35.1807 23.3912C35.1982 23.2896 35.2229 23.1353 35.2479 22.9431C35.2986 22.5522 35.3463 22.0364 35.345 21.5037C35.3436 20.9539 35.2897 20.4909 35.1941 20.161C35.1538 20.0219 35.1175 19.9443 35.0974 19.9076C35.0063 19.8503 34.9634 19.8471 34.9453 19.8458L34.9425 19.8456C34.8884 19.8411 34.7408 19.8429 34.4271 19.9423C34.0992 20.0463 33.7239 20.2109 33.1921 20.458M33.1921 20.458C33.1349 20.4846 33.0755 20.5123 33.0144 20.5409M33.1921 20.458L33.0144 20.5409M35.081 19.8805L35.0817 19.8816" stroke="black" stroke-linejoin="round"/>
<path d="M13.426 62.6727L32.8251 26.7779L53.9272 53.3672L16.4598 67.7742C16.3955 67.7675 16.3048 67.7571 16.1944 67.7418C15.9584 67.7093 15.6359 67.6554 15.2882 67.5703C14.5582 67.3917 13.8495 67.1057 13.5052 66.7015C13.3738 66.5472 13.2642 66.2507 13.2088 65.8051C13.1553 65.3756 13.1603 64.8791 13.1944 64.3967C13.2283 63.9171 13.2899 63.4674 13.3433 63.1364C13.37 62.9714 13.3944 62.8369 13.4121 62.7444C13.4174 62.7166 13.422 62.6926 13.426 62.6727Z" fill="#C62222" stroke="black"/>
<mask id="mask0_1421_12538" style="mask-type:alpha" maskUnits="userSpaceOnUse" x="12" y="25" width="43" height="44">
<path d="M13.4262 62.6727L32.8254 26.7779L53.9274 53.3672L16.4601 67.7742C16.3957 67.7675 16.3051 67.7571 16.1947 67.7418C15.9587 67.7093 15.6361 67.6554 15.2885 67.5703C14.5585 67.3917 13.8498 67.1057 13.5055 66.7015C13.374 66.5472 13.2645 66.2507 13.209 65.8051C13.1556 65.3756 13.1605 64.8791 13.1946 64.3967C13.2286 63.9171 13.2902 63.4674 13.3436 63.1364C13.3702 62.9714 13.3947 62.8369 13.4123 62.7444C13.4176 62.7166 13.4223 62.6926 13.4262 62.6727Z" fill="#C62222" stroke="black"/>
</mask>
<g mask="url(#mask0_1421_12538)">
<rect x="42.207" y="28" width="7.66052" height="62.3077" transform="rotate(43.9037 42.207 28)" fill="white" fill-opacity="0.42"/>
</g>
<path d="M13.426 62.6727L32.8251 26.7779L53.9272 53.3672L16.4598 67.7742C16.3955 67.7675 16.3048 67.7571 16.1944 67.7418C15.9584 67.7093 15.6359 67.6554 15.2882 67.5703C14.5582 67.3917 13.8495 67.1057 13.5052 66.7015C13.3738 66.5472 13.2642 66.2507 13.2088 65.8051C13.1553 65.3756 13.1603 64.8791 13.1944 64.3967C13.2283 63.9171 13.2899 63.4674 13.3433 63.1364C13.37 62.9714 13.3944 62.8369 13.4121 62.7444C13.4174 62.7166 13.422 62.6926 13.426 62.6727Z" stroke="black"/>
<path d="M55.4719 52.567C55.0003 52.9579 54.257 53.0969 53.202 52.8771C52.1532 52.6587 50.8802 52.1 49.4616 51.2238C46.629 49.4742 43.3141 46.5197 40.2054 42.7683C37.0966 39.0168 34.8092 35.2109 33.6162 32.1026C33.0187 30.546 32.7061 29.1913 32.6863 28.1202C32.6664 27.0427 32.941 26.3382 33.4127 25.9474C33.8844 25.5565 34.6276 25.4175 35.6826 25.6372C36.7314 25.8556 38.0045 26.4144 39.423 27.2906C42.2556 29.0402 45.5705 31.9946 48.6793 35.7461C51.788 39.4975 54.0754 43.3035 55.2684 46.4117C55.8659 47.9684 56.1785 49.323 56.1983 50.3942C56.2183 51.4716 55.9436 52.1761 55.4719 52.567Z" fill="#861616" stroke="black"/>
<path fill-rule="evenodd" clip-rule="evenodd" d="M63.0772 49.8306L63.8041 44.8838C66.7968 45.3235 68.1118 48.0487 68.4272 50.1351C68.7616 52.3475 68.257 55.0127 66.5754 57.0209C65.8749 57.8574 65.0529 58.3827 64.1546 58.6562C63.3471 58.902 62.5807 58.9049 62.144 58.9065L62.1338 58.9066C61.2186 58.91 61.181 58.9451 61.0956 59.025C61.0885 59.0316 61.0812 59.0384 61.073 59.0456C59.1713 60.7139 58.4875 63.0347 58.8694 65.4198C58.9285 65.7891 59.2165 66.3781 59.6892 67.0294C59.9 67.32 60.1058 67.5663 60.2576 67.7382C60.3326 67.8232 60.3923 67.8876 60.4299 67.9273C60.4486 67.9472 60.4617 67.9607 60.4683 67.9674C60.4683 67.9674 60.4673 67.9666 58.6992 69.734C56.9311 71.5014 56.9304 71.5007 56.9304 71.5007L56.9279 71.4982L56.924 71.4943L56.9139 71.4841L56.8853 71.4549C56.8626 71.4316 56.8326 71.4004 56.7963 71.3621C56.7239 71.2854 56.6257 71.1792 56.5094 71.0475C56.2785 70.786 55.9675 70.4141 55.6424 69.966C55.043 69.14 54.1818 67.7694 53.9322 66.2101C53.3111 62.3305 54.4345 58.218 57.7757 55.2869C59.3647 53.893 61.0991 53.9019 61.9535 53.9062C62.0115 53.9065 62.0654 53.9068 62.115 53.9066C62.5015 53.9051 62.6293 53.889 62.6793 53.8779C62.6921 53.8662 62.7132 53.8452 62.7419 53.8109C63.3625 53.0698 63.6386 51.9098 63.4833 50.8823C63.3522 50.0151 63.1195 49.851 63.0772 49.8306ZM60.4683 67.9674C60.4715 67.9708 60.473 67.9723 60.473 67.9723L60.4715 67.9708L60.4698 67.969L60.4683 67.9674Z" fill="#3076FF"/>
<path d="M60.4683 67.9674C60.4617 67.9607 60.4486 67.9472 60.4299 67.9273C60.3923 67.8876 60.3326 67.8232 60.2576 67.7382C60.1058 67.5663 59.9 67.32 59.6892 67.0294C59.2165 66.3781 58.9285 65.7891 58.8694 65.4198C58.4875 63.0347 59.1713 60.7139 61.073 59.0456C61.0812 59.0384 61.0885 59.0316 61.0956 59.025C61.181 58.9451 61.2186 58.91 62.1338 58.9066L62.144 58.9065C62.5807 58.9049 63.3471 58.902 64.1546 58.6562C65.0529 58.3827 65.8749 57.8574 66.5754 57.0209C68.257 55.0127 68.7616 52.3475 68.4272 50.1351C68.1118 48.0487 66.7968 45.3235 63.8041 44.8838L63.0772 49.8306C63.1195 49.851 63.3522 50.0151 63.4833 50.8823C63.6386 51.9098 63.3625 53.0698 62.7419 53.8109C62.7132 53.8452 62.6921 53.8662 62.6793 53.8779C62.6293 53.889 62.5015 53.9051 62.115 53.9066C62.0654 53.9068 62.0115 53.9065 61.9535 53.9062C61.0991 53.9019 59.3647 53.893 57.7757 55.2869C54.4345 58.218 53.3111 62.3305 53.9322 66.2101C54.1818 67.7694 55.043 69.14 55.6424 69.966C55.9675 70.4141 56.2785 70.786 56.5094 71.0475C56.6257 71.1792 56.7239 71.2854 56.7963 71.3621C56.8326 71.4004 56.8626 71.4316 56.8853 71.4549L56.9139 71.4841L56.924 71.4943L56.9279 71.4982L56.9304 71.5007C56.9304 71.5007 56.9311 71.5014 58.6992 69.734C60.4673 67.9666 60.4683 67.9674 60.4683 67.9674ZM60.4683 67.9674C60.4715 67.9708 60.473 67.9723 60.473 67.9723L60.4715 67.9708L60.4698 67.969L60.4683 67.9674Z" stroke="black" stroke-linejoin="round"/>
<path fill-rule="evenodd" clip-rule="evenodd" d="M45.251 14.644C45.0097 12.4542 44.755 10.1436 44 7.72749L48.7724 6.23611C49.6863 9.16052 49.9981 12.0288 50.2364 14.2203C50.2818 14.6384 50.3246 15.0318 50.3684 15.3963C50.5147 16.6153 50.6574 17.4073 50.8464 17.9295C50.9045 18.0903 50.9517 18.1831 50.981 18.232L53.0114 19.1203L48.7458 31.3077L44.0266 29.6559L46.9762 21.2285C46.5997 20.714 46.3351 20.1569 46.1448 19.631C45.74 18.5125 45.5493 17.2025 45.404 15.9923C45.3507 15.5482 45.3012 15.0987 45.251 14.644ZM51.014 18.2784C51.0138 18.279 51.0096 18.2749 51.0018 18.2641C51.0103 18.2724 51.0142 18.2778 51.014 18.2784Z" fill="#FFEF60" stroke="black" stroke-linejoin="round"/>
<circle cx="71" cy="16.2361" r="2.5" fill="#4C29B0" stroke="black"/>
<circle cx="62" cy="21.2361" r="2.5" fill="#3076FF" stroke="black"/>
<circle cx="35" cy="46" r="2.5" fill="#3076FF" stroke="black"/>
<circle cx="75" cy="49.2361" r="2.5" fill="#FFEF60" stroke="black"/>
<circle cx="21" cy="33.2361" r="2.5" fill="#4C29B0" stroke="black"/>
<path d="M74.5 28.7361C74.5 29.9506 73.7301 30.7361 73 30.7361C72.2699 30.7361 71.5 29.9506 71.5 28.7361C71.5 27.5217 72.2699 26.7361 73 26.7361C73.7301 26.7361 74.5 27.5217 74.5 28.7361Z" fill="#3076FF" stroke="black"/>
<path d="M58.5 29.7361C58.5 30.9506 57.7301 31.7361 57 31.7361C56.2699 31.7361 55.5 30.9506 55.5 29.7361C55.5 28.5217 56.2699 27.7361 57 27.7361C57.7301 27.7361 58.5 28.5217 58.5 29.7361Z" fill="#3076FF" stroke="black"/>
<circle cx="42.5" cy="21.7361" r="1" fill="#FFEF60" stroke="black"/>
<circle cx="45" cy="35.2361" r="1.5" fill="#FFEF60" stroke="black"/>
<path fill-rule="evenodd" clip-rule="evenodd" d="M67.081 38.8805L67.0817 38.8816L67.081 38.8805Z" fill="#4C29B0"/>
<path d="M51.0166 43.0017C51.5968 42.3723 52.0022 41.6974 52.2981 41.1573C52.4411 40.8963 52.5403 40.706 52.622 40.547C52.764 41.0184 52.9682 41.6155 53.2663 42.1563C53.7521 43.0376 54.6078 44.0043 56.0528 44.3611C57.3585 44.6836 58.5545 44.4783 59.5738 43.8996C60.4695 43.3911 61.1182 42.6505 61.5405 42.1434C61.7209 41.9266 61.8678 41.7439 61.9984 41.5814C62.2435 41.2764 62.4314 41.0425 62.6769 40.7886C62.995 40.4596 63.2204 40.3141 63.404 40.2437C63.9903 40.0188 64.5547 39.7554 65.0144 39.5409L65.1921 39.458C65.7239 39.2109 66.0992 39.0463 66.4271 38.9423C66.7408 38.8429 66.8884 38.8411 66.9425 38.8456L66.9453 38.8458C66.9634 38.8471 67.0063 38.8503 67.0974 38.9076C67.1175 38.9443 67.1538 39.0219 67.1941 39.161C67.2897 39.4909 67.3436 39.9539 67.345 40.5037C67.3463 41.0364 67.2986 41.5522 67.2479 41.9431C67.2229 42.1353 67.1982 42.2896 67.1807 42.3912C67.172 42.4418 67.1651 42.4788 67.161 42.5003L67.1573 42.5196L67.1578 42.5171C67.1578 42.5171 67.1581 42.516 69.6067 43.0204L72.0563 43.5194L72.2062 42.587C72.2755 42.0539 72.347 41.3082 72.345 40.4913C72.343 39.6914 72.271 38.7165 71.9966 37.7694C71.7261 36.8361 71.187 35.6886 70.0742 34.8873C68.2415 33.5676 66.3801 33.7121 64.9165 34.176C64.2452 34.3887 63.6028 34.683 63.0849 34.9238L62.8982 35.0106C62.4216 35.2327 62.0246 35.4176 61.6138 35.5751C60.5018 36.0015 59.6841 36.6906 59.0821 37.3133C58.6704 37.7392 58.2516 38.2594 57.949 38.6351C57.852 38.7556 57.7669 38.8613 57.6979 38.9442C57.6017 39.0597 57.5195 39.1538 57.4496 39.2304C57.4022 39.0779 57.3464 38.8865 57.2761 38.641L57.2572 38.5747C57.1145 38.0745 56.8604 37.1831 56.3637 36.4303C55.7161 35.4487 54.6288 34.6438 53.0873 34.6159C51.9871 34.5961 51.0123 34.9189 50.2054 35.528C49.4676 36.0849 48.9961 36.7887 48.6866 37.3148C48.5181 37.6012 48.2903 38.0372 48.116 38.3707C48.0315 38.5324 47.9596 38.6701 47.9131 38.7549C47.6909 39.1605 47.5144 39.4239 47.3401 39.6129L51.0166 43.0017Z" fill="#4C29B0"/>
<path d="M57.2572 38.5747C57.1145 38.0745 56.8604 37.1831 56.3637 36.4303C55.7161 35.4487 54.6288 34.6438 53.0873 34.6159C51.9871 34.5961 51.0123 34.9189 50.2054 35.528C49.4676 36.0849 48.9961 36.7887 48.6866 37.3148C48.5181 37.6012 48.2903 38.0372 48.116 38.3707C48.0315 38.5324 47.9596 38.6701 47.9131 38.7549C47.6909 39.1605 47.5144 39.4239 47.3401 39.6129L51.0166 43.0017C51.5968 42.3723 52.0022 41.6974 52.2981 41.1573C52.4411 40.8963 52.5403 40.706 52.622 40.547C52.764 41.0184 52.9682 41.6155 53.2663 42.1563C53.7521 43.0376 54.6078 44.0043 56.0528 44.3611C57.3585 44.6836 58.5545 44.4783 59.5738 43.8996C60.4695 43.3911 61.1182 42.6505 61.5405 42.1434C61.7209 41.9266 61.8678 41.7439 61.9984 41.5814C62.2435 41.2764 62.4314 41.0425 62.6769 40.7886C62.995 40.4596 63.2204 40.3141 63.404 40.2437C63.9903 40.0188 64.5547 39.7554 65.0144 39.5409M57.2572 38.5747C57.2637 38.5977 57.27 38.6198 57.2761 38.641M57.2572 38.5747L57.2761 38.641M57.2761 38.641C57.3464 38.8865 57.4022 39.0779 57.4496 39.2304C57.5195 39.1538 57.6017 39.0597 57.6979 38.9442C57.7669 38.8613 57.852 38.7556 57.949 38.6351C58.2516 38.2594 58.6704 37.7392 59.0821 37.3133C59.6841 36.6906 60.5018 36.0015 61.6138 35.5751C62.0246 35.4176 62.4216 35.2327 62.8982 35.0106M62.8982 35.0106C62.9591 34.9823 63.0212 34.9533 63.0849 34.9238M62.8982 35.0106L63.0849 34.9238M63.0849 34.9238C63.6028 34.683 64.2452 34.3887 64.9165 34.176C66.3801 33.7121 68.2415 33.5676 70.0742 34.8873C71.187 35.6886 71.7261 36.8361 71.9966 37.7694C72.271 38.7165 72.343 39.6914 72.345 40.4913C72.347 41.3082 72.2755 42.0539 72.2062 42.587L72.0563 43.5194L69.6067 43.0204C67.1581 42.516 67.1578 42.5171 67.1578 42.5171L67.1573 42.5196L67.161 42.5003C67.1651 42.4788 67.172 42.4418 67.1807 42.3912C67.1982 42.2896 67.2229 42.1353 67.2479 41.9431C67.2986 41.5522 67.3463 41.0364 67.345 40.5037C67.3436 39.9539 67.2897 39.4909 67.1941 39.161C67.1538 39.0219 67.1175 38.9443 67.0974 38.9076C67.0063 38.8503 66.9634 38.8471 66.9453 38.8458L66.9425 38.8456C66.8884 38.8411 66.7408 38.8429 66.4271 38.9423C66.0992 39.0463 65.7239 39.2109 65.1921 39.458M65.1921 39.458C65.1349 39.4846 65.0755 39.5123 65.0144 39.5409M65.1921 39.458L65.0144 39.5409M67.081 38.8805L67.0817 38.8816" stroke="black" stroke-linejoin="round"/>
</g>
<defs>
<filter id="filter0_d_1421_12538" x="-4" y="0" width="88" height="84.7639" filterUnits="userSpaceOnUse" color-interpolation-filters="sRGB">
<feFlood flood-opacity="0" result="BackgroundImageFix"/>
<feColorMatrix in="SourceAlpha" type="matrix" values="0 0 0 0 0 0 0 0 0 0 0 0 0 0 0 0 0 0 127 0" result="hardAlpha"/>
<feOffset dy="4"/>
<feGaussianBlur stdDeviation="2"/>
<feComposite in2="hardAlpha" operator="out"/>
<feColorMatrix type="matrix" values="0 0 0 0 0 0 0 0 0 0 0 0 0 0 0 0 0 0 0.25 0"/>
<feBlend mode="normal" in2="BackgroundImageFix" result="effect1_dropShadow_1421_12538"/>
<feBlend mode="normal" in="SourceGraphic" in2="effect1_dropShadow_1421_12538" result="shape"/>
</filter>
</defs>
</svg>
