<svg width="82" height="80" fill="none" xmlns="http://www.w3.org/2000/svg"><g filter="url(#a)"><path fill-rule="evenodd" clip-rule="evenodd" d="M35.08 19.88Z" fill="#4C29B0"/><path d="M19.02 24c.58-.63.98-1.3 1.28-1.84l.32-.61c.14.47.35 1.07.65 1.6a4.34 4.34 0 0 0 2.78 2.21c1.3.32 2.5.12 3.52-.46.9-.5 1.55-1.25 1.97-1.76l.46-.56c.24-.3.43-.54.68-.8.32-.32.54-.47.72-.54.59-.22 1.15-.48 1.61-.7l.18-.08c.53-.25.9-.41 1.24-.52.31-.1.46-.1.51-.1.02 0 .07.01.16.07l.1.25c.09.33.14.8.14 1.34a11.25 11.25 0 0 1-.16 1.9l-.02.1v.02l2.45.5 2.45.5.05-.28a15.94 15.94 0 0 0 .23-2.75 10 10 0 0 0-.34-2.72 5.28 5.28 0 0 0-1.93-2.88 5.55 5.55 0 0 0-5.15-.71c-.67.2-1.32.5-1.84.74l-.18.1c-.48.21-.88.4-1.29.56a7.02 7.02 0 0 0-2.53 1.73c-.41.43-.83.95-1.13 1.33a26.56 26.56 0 0 1-.5.59l-.17-.59-.02-.07c-.15-.5-.4-1.39-.9-2.14a3.91 3.91 0 0 0-3.27-1.81c-1.1-.02-2.08.3-2.88.9a5.99 5.99 0 0 0-1.52 1.8c-.17.28-.4.72-.57 1.05l-.2.38c-.23.41-.4.67-.58.86l3.68 3.4Z" fill="#4C29B0"/><path d="M25.26 19.57c-.15-.5-.4-1.39-.9-2.14a3.91 3.91 0 0 0-3.27-1.81c-1.1-.02-2.08.3-2.88.9a5.99 5.99 0 0 0-1.52 1.8c-.17.28-.4.72-.57 1.05l-.2.38c-.23.41-.4.67-.58.86l3.68 3.4c.58-.64.98-1.31 1.28-1.85l.32-.61c.14.47.35 1.07.65 1.6a4.34 4.34 0 0 0 2.78 2.21c1.3.32 2.5.12 3.52-.46.9-.5 1.55-1.25 1.97-1.76l.46-.56c.24-.3.43-.54.68-.8.32-.32.54-.47.72-.54.59-.22 1.15-.48 1.61-.7m-7.75-.97.02.07m-.02-.07.02.07m0 0 .17.59a8.43 8.43 0 0 0 .5-.6c.3-.37.72-.9 1.13-1.32a7.02 7.02 0 0 1 2.53-1.73c.41-.16.81-.35 1.29-.57m0 0 .18-.09m-.18.1.18-.1m0 0a15.5 15.5 0 0 1 1.84-.74 5.55 5.55 0 0 1 5.15.7A5.28 5.28 0 0 1 40 18.78a10 10 0 0 1 .34 2.72 16.21 16.21 0 0 1-.23 2.75l-.05.28-2.45-.5-2.45-.5v-.02a18.7 18.7 0 0 0 .09-.56c.05-.39.1-.9.1-1.44a5.1 5.1 0 0 0-.16-1.34 1.28 1.28 0 0 0-.1-.25c-.08-.06-.13-.06-.14-.06-.06 0-.2 0-.52.1-.33.1-.7.26-1.24.5m0 0-.18.1m.18-.1-.18.1m2.07-.67" stroke="#000" stroke-linejoin="round"/><path d="m13.43 62.67 19.4-35.9 21.1 26.6-37.47 14.4a7.94 7.94 0 0 1-1.17-.2c-.73-.18-1.44-.46-1.78-.87a1.78 1.78 0 0 1-.3-.9 7.51 7.51 0 0 1-.02-1.4 14.49 14.49 0 0 1 .24-1.73Z" fill="#C62222" stroke="#000"/><mask id="b" style="mask-type:alpha" maskUnits="userSpaceOnUse" x="12" y="25" width="43" height="44"><path d="m13.43 62.67 19.4-35.9 21.1 26.6-37.47 14.4a7.9 7.9 0 0 1-1.17-.2c-.73-.18-1.44-.46-1.78-.87a1.78 1.78 0 0 1-.3-.9 7.52 7.52 0 0 1-.02-1.4 14.52 14.52 0 0 1 .24-1.73Z" fill="#C62222" stroke="#000"/></mask><g mask="url(#b)"><path fill="#fff" fill-opacity=".42" d="m42.2 28 5.53 5.31-43.21 44.9L-1 72.9z"/></g><path d="m13.43 62.67 19.4-35.9 21.1 26.6-37.47 14.4a7.94 7.94 0 0 1-1.17-.2c-.73-.18-1.44-.46-1.78-.87a1.78 1.78 0 0 1-.3-.9 7.51 7.51 0 0 1-.02-1.4 14.49 14.49 0 0 1 .24-1.73Z" stroke="#000"/><path d="M55.47 52.57c-.47.39-1.21.53-2.27.3a12.26 12.26 0 0 1-3.74-1.65c-2.83-1.75-6.15-4.7-9.25-8.45-3.11-3.75-5.4-7.56-6.6-10.67-.6-1.55-.9-2.9-.92-3.98-.02-1.08.25-1.78.72-2.17.47-.4 1.22-.53 2.27-.31 1.05.22 2.32.77 3.74 1.65 2.84 1.75 6.15 4.7 9.26 8.46 3.1 3.75 5.4 7.55 6.59 10.66.6 1.56.9 2.91.93 3.98.02 1.08-.26 1.79-.73 2.18Z" fill="#861616" stroke="#000"/><path fill-rule="evenodd" clip-rule="evenodd" d="m63.08 49.83.72-4.95c3 .44 4.31 3.17 4.63 5.26a8.84 8.84 0 0 1-1.85 6.88 5.03 5.03 0 0 1-2.43 1.64c-.8.24-1.57.24-2 .25h-.02c-.91 0-.95.04-1.03.12a6.79 6.79 0 0 0-2.23 6.4c.06.36.35.95.82 1.6a9.64 9.64 0 0 0 .78.94l-1.77 1.76-1.77 1.77-.02-.02-.02-.03a9.58 9.58 0 0 1-.38-.4c-.23-.26-.54-.64-.87-1.08a9.16 9.16 0 0 1-1.7-3.76c-.63-3.88.5-8 3.84-10.92 1.58-1.4 3.32-1.39 4.17-1.38h.16c.4 0 .52-.02.57-.03a3.85 3.85 0 0 0 .8-3c-.13-.86-.36-1.03-.4-1.05Zm-2.61 18.14Z" fill="#3076FF"/><path d="M60.47 67.97a2.48 2.48 0 0 1-.21-.23 9.64 9.64 0 0 1-.57-.71 4.42 4.42 0 0 1-.82-1.61c-.38-2.39.3-4.7 2.2-6.37l.03-.02c.08-.08.12-.12 1.03-.12h.01c.44 0 1.2 0 2.01-.25.9-.28 1.72-.8 2.43-1.64a8.84 8.84 0 0 0 1.85-6.88c-.32-2.1-1.63-4.82-4.63-5.26l-.72 4.95c.04.02.27.19.4 1.05a3.85 3.85 0 0 1-.8 3 3.2 3.2 0 0 1-.56.03h-.17c-.85 0-2.59-.02-4.17 1.38a11.78 11.78 0 0 0-3.85 10.92 9.16 9.16 0 0 0 1.71 3.76 14.65 14.65 0 0 0 1.25 1.48l.02.03.01.01.01.01 1.77-1.77 1.77-1.76Zm0 0Z" stroke="#000" stroke-linejoin="round"/><path fill-rule="evenodd" clip-rule="evenodd" d="M45.25 14.64c-.24-2.19-.5-4.5-1.25-6.91l4.77-1.5c.92 2.93 1.23 5.8 1.47 7.99l.13 1.18c.14 1.22.29 2 .48 2.53.05.16.1.25.13.3l2.03.89-4.26 12.19-4.72-1.65 2.95-8.43a6.37 6.37 0 0 1-.84-1.6c-.4-1.12-.6-2.43-.74-3.64l-.15-1.35Zm5.76 3.64v-.02.02Z" fill="#FFEF60" stroke="#000" stroke-linejoin="round"/><circle cx="71" cy="16.24" r="2.5" fill="#4C29B0" stroke="#000"/><circle cx="62" cy="21.24" r="2.5" fill="#3076FF" stroke="#000"/><circle cx="35" cy="46" r="2.5" fill="#3076FF" stroke="#000"/><circle cx="75" cy="49.24" r="2.5" fill="#FFEF60" stroke="#000"/><circle cx="21" cy="33.24" r="2.5" fill="#4C29B0" stroke="#000"/><path d="M74.5 28.74c0 1.21-.77 2-1.5 2s-1.5-.79-1.5-2c0-1.22.77-2 1.5-2s1.5.78 1.5 2ZM58.5 29.74c0 1.21-.77 2-1.5 2s-1.5-.79-1.5-2c0-1.22.77-2 1.5-2s1.5.78 1.5 2Z" fill="#3076FF" stroke="#000"/><circle cx="42.5" cy="21.74" r="1" fill="#FFEF60" stroke="#000"/><circle cx="45" cy="35.24" r="1.5" fill="#FFEF60" stroke="#000"/><path fill-rule="evenodd" clip-rule="evenodd" d="M67.08 38.88Z" fill="#4C29B0"/><path d="M51.02 43c.58-.63.98-1.3 1.28-1.84l.32-.61c.14.47.35 1.07.65 1.6a4.34 4.34 0 0 0 2.78 2.21c1.3.32 2.5.12 3.52-.46.9-.5 1.55-1.25 1.97-1.76l.46-.56c.24-.3.43-.54.68-.8.31-.32.54-.47.72-.54.59-.22 1.15-.48 1.61-.7l.18-.08c.53-.25.9-.41 1.24-.52.31-.1.46-.1.51-.1.02 0 .07.01.16.07l.1.25c.09.33.14.8.14 1.34a11.25 11.25 0 0 1-.18 2v.02l2.45.5 2.45.5.15-.93c.07-.54.14-1.28.14-2.1a10 10 0 0 0-.35-2.72 5.28 5.28 0 0 0-1.93-2.88 5.55 5.55 0 0 0-5.15-.71c-.67.2-1.32.5-1.84.74l-.18.1c-.48.21-.88.4-1.29.56a7.02 7.02 0 0 0-2.53 1.73c-.41.43-.83.95-1.13 1.33a26.56 26.56 0 0 1-.5.59l-.17-.59-.02-.07c-.15-.5-.4-1.39-.9-2.14a3.91 3.91 0 0 0-3.27-1.81c-1.1-.02-2.08.3-2.88.9a5.99 5.99 0 0 0-1.52 1.8c-.17.28-.4.72-.57 1.05l-.2.38c-.23.41-.4.67-.58.86l3.68 3.4Z" fill="#4C29B0"/><path d="M57.26 38.57c-.15-.5-.4-1.39-.9-2.14a3.91 3.91 0 0 0-3.27-1.81c-1.1-.02-2.08.3-2.88.9a5.99 5.99 0 0 0-1.52 1.8c-.17.28-.4.72-.57 1.05l-.2.38c-.23.41-.4.67-.58.86l3.68 3.4c.58-.64.98-1.31 1.28-1.85l.32-.61c.14.47.35 1.07.65 1.6a4.34 4.34 0 0 0 2.78 2.21c1.3.32 2.5.12 3.52-.46.9-.5 1.55-1.25 1.97-1.76l.46-.56c.24-.3.43-.54.68-.8.31-.32.54-.47.72-.54.59-.22 1.15-.48 1.61-.7m-7.75-.97.02.07m-.02-.07.02.07m0 0 .17.59a8.43 8.43 0 0 0 .5-.6c.3-.37.72-.9 1.13-1.32a7.02 7.02 0 0 1 2.53-1.73c.41-.16.81-.35 1.29-.57m0 0 .18-.09m-.18.1.18-.1m0 0a15.5 15.5 0 0 1 1.84-.74 5.55 5.55 0 0 1 5.15.7A5.28 5.28 0 0 1 72 37.78a10 10 0 0 1 .34 2.72c0 .82-.06 1.56-.13 2.1l-.15.93-2.45-.5-2.45-.5v-.02a6.1 6.1 0 0 0 .09-.56c.05-.39.1-.9.1-1.44a5.1 5.1 0 0 0-.16-1.34 1.28 1.28 0 0 0-.1-.25c-.08-.06-.13-.06-.14-.06-.06 0-.2 0-.52.1-.33.1-.7.26-1.24.5m0 0-.18.1m.18-.1-.18.1m2.07-.67" stroke="#000" stroke-linejoin="round"/></g><defs><filter id="a" x="-4" y="0" width="88" height="84.76" filterUnits="userSpaceOnUse" color-interpolation-filters="sRGB"><feFlood flood-opacity="0" result="BackgroundImageFix"/><feColorMatrix in="SourceAlpha" values="0 0 0 0 0 0 0 0 0 0 0 0 0 0 0 0 0 0 127 0" result="hardAlpha"/><feOffset dy="4"/><feGaussianBlur stdDeviation="2"/><feComposite in2="hardAlpha" operator="out"/><feColorMatrix values="0 0 0 0 0 0 0 0 0 0 0 0 0 0 0 0 0 0 0.25 0"/><feBlend in2="BackgroundImageFix" result="effect1_dropShadow_1421_12538"/><feBlend in="SourceGraphic" in2="effect1_dropShadow_1421_12538" result="shape"/></filter></defs></svg>