<svg width="459" height="634" fill="none" xmlns="http://www.w3.org/2000/svg"><g filter="url(#a)"><rect x="364.11" y="449.49" width="94.52" height="141.78" rx="7.27" transform="rotate(22.75 364.11 449.5)" fill="#fff"/><mask id="b" style="mask-type:alpha" maskUnits="userSpaceOnUse" x="314" y="458" width="131" height="149"><path d="m378.5 459.47 61.31 25.71a6.36 6.36 0 0 1 3.41 8.33l-37.3 88.95a2.61 2.61 0 0 1-3.42 1.4 4.43 4.43 0 0 0-5.34 1.54l-9.6 13.7a3.44 3.44 0 0 0 .04 4.02c.96 1.31-.4 3.07-1.9 2.47l-65.86-26.02a6.36 6.36 0 0 1-3.44-8.57l39.02-84.81a4.64 4.64 0 0 1 6-2.34 6.45 6.45 0 0 0 8.46-3.46l5.18-12.36a4.8 4.8 0 0 0-.28-4.3 2.99 2.99 0 0 1 3.73-4.26Z" fill="#C4C4C4" stroke="#000" stroke-width="1.82"/></mask><g mask="url(#b)"><rect x="369.33" y="460.55" width="78.16" height="125.42" rx="6.36" transform="rotate(22.75 369.33 460.55)" stroke="#000" stroke-width="1.82"/></g><path d="m345.08 518.38 72.08 30.23" stroke="#000" stroke-width="1.82"/><path d="m376.53 486.24-7.09-2.97c3.51-.47 4.57-1.6 5.9-4.15l-5.66.27c-1.86-2.8-1.58-3.85 1.89-4.5l3.78 4.23v-6.62c2.72-2.3 4.13-1.57 4.72 1.98l-4.72 4.64 6.25-.02c1.34 2.63.46 3.42-1.89 4.5l-4.36-4.48c-.68 2.82-.62 4.39 1.18 7.12Z" fill="#000"/><path d="M375.35 479.12c-1.34 2.55-2.4 3.68-5.9 4.15l7.08 2.97c-1.8-2.73-1.86-4.3-1.18-7.12Zm0 0-5.67.27c-1.86-2.8-1.58-3.85 1.89-4.5l3.78 4.23Zm0 0 4.72-4.64c-.6-3.55-2-4.27-4.73-1.98v6.62Zm0 0 6.25-.02c1.34 2.63.46 3.42-1.89 4.5l-4.36-4.48Z" stroke="#000" stroke-width="1.82"/><path d="m384.03 580.05 7.09 2.98c-3.51.46-4.57 1.6-5.9 4.14l5.66-.27c1.86 2.8 1.58 3.85-1.89 4.5l-3.78-4.23v6.62c-2.72 2.3-4.13 1.58-4.72-1.98l4.72-4.64-6.25.02c-1.34-2.62-.46-3.42 1.89-4.5l4.36 4.48c.68-2.82.62-4.39-1.18-7.12Z" fill="#000"/><path d="M385.21 587.17c1.34-2.55 2.4-3.68 5.9-4.14l-7.08-2.98c1.8 2.73 1.86 4.3 1.19 7.12Zm0 0 5.67-.27c1.86 2.8 1.58 3.85-1.89 4.5l-3.78-4.23Zm0 0-4.72 4.64c.6 3.56 2 4.27 4.73 1.98v-6.62Zm0 0-6.25.02c-1.34-2.62-.46-3.42 1.89-4.5l4.36 4.48Z" stroke="#000" stroke-width="1.82"/><path d="M370.92 463.27a176.34 176.34 0 0 0-1.72 3.49l-.53 1.18a46.24 46.24 0 0 0-1.16 2.95c-.13.37-.3.79-.48 1.24-.17.45-.38.98-.64 1.59-.3.7-.65 1.36-1.07 1.96-.42.6-.9 1.08-1.46 1.45-.55.36-1.18.58-1.88.64-.7.06-1.49-.08-2.36-.45a5.07 5.07 0 0 1-1.28-.75 3.56 3.56 0 0 1-1.27-1.96 4.84 4.84 0 0 1 .33-3.1c.16-.4.37-.7.6-.91a1.96 1.96 0 0 1 2.04-.38c.16.06.32.17.5.32.2.14.35.33.48.56a1.84 1.84 0 0 1 .08 1.71c-.12.26-.28.48-.47.67-.17.15-.39.29-.65.4-.25.11-.57.13-.94.07.04.26.11.48.21.68a2.3 2.3 0 0 0 1.16 1c.38.15.71.2 1 .15.3-.06.55-.2.79-.42.24-.23.45-.51.63-.86.2-.35.39-.74.57-1.16a407.64 407.64 0 0 0 2.34-5.7c.37-.94.72-1.88 1.06-2.82.33-.95.64-1.9.92-2.84a5.34 5.34 0 0 0 1.15.56 21.78 21.78 0 0 0 2.05.73ZM390.34 601.35a176.34 176.34 0 0 0 1.73-3.5l.53-1.17a51.78 51.78 0 0 0 1.15-2.96 60.43 60.43 0 0 1 1.12-2.82c.3-.7.66-1.36 1.07-1.96.42-.6.9-1.09 1.46-1.46a4.05 4.05 0 0 1 1.89-.63c.7-.07 1.48.08 2.35.44.5.22.94.47 1.28.76a3.56 3.56 0 0 1 1.27 1.96 4.78 4.78 0 0 1-.32 3.1 2.18 2.18 0 0 1-1.35 1.34 1.97 1.97 0 0 1-1.3-.05 2.05 2.05 0 0 1-.5-.32 1.83 1.83 0 0 1-.48-.57 1.84 1.84 0 0 1-.08-1.71c.12-.25.28-.47.48-.66.16-.15.38-.29.64-.4.26-.11.57-.14.94-.07a2.14 2.14 0 0 0-.21-.68 2.3 2.3 0 0 0-1.16-1c-.38-.16-.7-.2-1-.15-.29.06-.55.2-.79.41-.23.23-.44.52-.63.87-.2.35-.39.73-.57 1.16a407.2 407.2 0 0 0-2.34 5.7 98.3 98.3 0 0 0-1.05 2.82c-.34.94-.65 1.9-.93 2.84a5.34 5.34 0 0 0-1.15-.57 21.78 21.78 0 0 0-2.05-.72Z" fill="#000"/><path d="M382.66 562.72c-1.45 3.46 2.6-3.84 6.57.79 3.59 4.17-3.08 2.65-6.38 8.16-3.9 3.5-9.72 9.62-11.14 10.12l-12.22-6.11 12.68-11.44 7.84-4.6c4.06-.27 3.35 1.4 2.65 3.08Z" fill="#FFDC22"/><path d="m401.48 557.8-11.41 6.06c-.22-3.25-3.68-2.2-5.38-1.27.12-.28-.08-1.22-1.81-2.73s-4.55-.92-5.74-.43l-4.35-22.53-16.87 9.68-6.4-10.57 5.48-15.43 53.64 22.49-7.16 14.73Z" fill="#D1B167"/><path d="m371.82 565.08-13.52 11.08-11.38-5.76 3.65-6.35-.4-6.08 3.2-.63 1.9-2.16 2.46-5.86c.72.63 3.07 2.07 6.7 2.8 3.64.74 5.61 4.66 6.14 6.52l-1.05 2.52c1.78.84 2.15 1.8 2.3 3.92Z" fill="#FFDBB0"/><path d="m357.73 549.32 12.95-7.39 3.03 20.98-2.38.98c-2.57-7.98-2.2-11.25-13.6-14.57Z" fill="#3076FF"/><path d="m374.9 562.43 2.73-1.81-4.84-23.72-16.03 10.04.97 2.38 13.79-7.04 3.38 20.15Z" fill="#B02929"/><path d="M351.5 570.5c.12.52 1.67 1.6 6.96 1.75" stroke="#000" stroke-width="1.82"/><path d="M355.9 557.78c1.35-.26 4.24-.69 5.08-.33 1.04.43 2.26 3.4-.28 3.58-2.02.13-1.94-1.23-1.65-1.93" stroke="#000" stroke-width=".91"/><path d="m354.49 567.04 2.1.88" stroke="#000" stroke-width="1.82"/><path d="m371.22 588.84 2.02-7.77c-6.52-1.1-20.89-4.82-26.19-10.98-3.07 7.33-8.48 2.6-3.51 8.38 3.97 4.62 20.1 8.84 27.68 10.37Z" fill="#000" stroke="#000" stroke-width="1.82" stroke-linejoin="bevel"/><path d="m409.13 544.26-55.32-23.2" stroke="#000" stroke-width="1.82" stroke-linejoin="bevel"/><path d="M355.56 558.6c-1.04-.44-5.24-2.2-5.67-1.15-.36.84.48 4.72.94 6.56l-3.68 5.84c1.51 2.07 5.94 4.26 10.96 6.19m-4.64-18.32c.12-1.6.94-2.48 1.84-2.92m2.01-.4c-.52-.03-1.3.05-2 .4m0 0 2.2-5.24m0 0c1.65.63 5.66 2.22 8.9 3.73 3.38 1.6 4.4 5.14 4.52 6.83m-13.43-10.56-1.77-2.56m1.77 2.56 13.6-7.45 3.43 20.75m-20.24-40.6-4.9 14.04 6.34 10.7m23.65 25.29c-2.45-1.34-3.75-2.8-1.82-4.46 3.48-3 5.53-.58 6.12 1.33m0 0c.16.5.21.98.16 1.3.14 2.03-6.95 7.76-10.5 10.38-3.85-.98-9.88-2.74-15.24-4.8m25.58-6.88 2.53-1.4c2.22.26 4.17-1.27 3.85-3.31m0 0a3.74 3.74 0 0 0-.6-1.5c-.5-1.12-5.32-1.32-5.13.48m5.73 1.02 11.29-6.36 6.58-13.35m-49.83 31.3 9.75-8.59a7.32 7.32 0 0 0 3.4-1.73m-4.61-1.24c-1.01-2.48 1.12-5.35 3.85-3.31 2.24 1.67 2 3.33.76 4.55m3.43-2.8 3.86-3.3c2.97-1.22 8.2.97 2.87 4.9m-9.36 4.7c2.04.02 6.42-1.16 4.29-4.37-1.42-2.13-4-.9-5.09.87M355.74 547l17.47-9.92 3.58 23.18" stroke="#000" stroke-width="1.82"/><path d="M348.1 569.92c1.79-2.08 3.76-4.76 3.66-6.36-.14-2.02-.63-3.21-1.6-5.6m4.06-.26c.92-1.89.83-2.58 2.24-3l1.76-4.2" stroke="#FFCB8D" stroke-opacity=".46" stroke-width="1.82" style="mix-blend-mode:multiply"/><path d="M379.93 503.43c1.45-3.45-2.6 3.84-6.57-.78-3.59-4.17 3.08-2.65 6.38-8.17 3.9-3.5 9.72-9.61 11.14-10.1l12.22 6.1-12.68 11.44-7.84 4.6c-4.06.27-3.35-1.41-2.65-3.09Z" fill="#FFDC22"/><path d="m361.11 508.35 11.41-6.05c.22 3.24 3.68 2.2 5.38 1.27-.12.28.08 1.21 1.81 2.73 1.73 1.51 4.54.92 5.73.43l4.36 22.52 16.87-9.68 6.4 10.57-5.48 15.44-53.64-22.5 7.16-14.73Z" fill="#D1B167"/><path d="m390.77 501.08 13.52-11.09 11.38 5.76-3.65 6.36.4 6.08-3.21.62-1.9 2.17-2.45 5.86c-.73-.63-3.07-2.07-6.7-2.81-3.64-.74-5.62-4.65-6.15-6.51l1.06-2.52c-1.78-.84-2.15-1.8-2.3-3.92Z" fill="#FFDBB0"/><path d="m404.86 516.84-12.95 7.38-3.03-20.98 2.38-.97c2.56 7.98 2.2 11.25 13.6 14.57Z" fill="#3076FF"/><path d="m387.69 503.73-2.73 1.81 4.84 23.71 16.03-10.03-.97-2.38-13.8 7.03-3.37-20.14Z" fill="#B02929"/><path d="M411.09 495.66c-.12-.52-1.67-1.6-6.96-1.76" stroke="#000" stroke-width="1.82"/><path d="M406.68 508.37c-1.34.26-4.23.7-5.07.34-1.04-.44-2.26-3.41.27-3.58 2.03-.14 1.95 1.23 1.66 1.93" stroke="#000" stroke-width=".91"/><path d="m408.1 499.11-2.1-.88" stroke="#000" stroke-width="1.82"/><path d="m391.37 477.31-2.02 7.78c6.52 1.1 20.89 4.82 26.19 10.98 3.07-7.33 8.48-2.6 3.51-8.38-3.97-4.62-20.1-8.84-27.68-10.38Z" fill="#000" stroke="#000" stroke-width="1.82" stroke-linejoin="bevel"/><path d="m353.46 521.9 55.32 23.2" stroke="#000" stroke-width="1.82" stroke-linejoin="bevel"/><path d="M407.02 507.56c1.05.44 5.24 2.2 5.68 1.15.35-.84-.48-4.72-.94-6.56l3.68-5.85c-1.51-2.06-5.94-4.25-10.96-6.18m4.64 18.32c-.12 1.6-.94 2.48-1.85 2.92m-2 .39c.52.04 1.3-.04 2-.4m0 0-2.2 5.25m0 0c-1.65-.63-5.66-2.22-8.9-3.74-3.39-1.59-4.41-5.13-4.52-6.82m13.43 10.56 1.76 2.55m-1.76-2.55-13.6 7.45-3.43-20.75m20.24 40.6 4.9-14.04-6.35-10.7m-23.64-25.29c2.44 1.33 3.75 2.8 1.82 4.46-3.49 3-5.53.57-6.12-1.33m0 0c-.16-.51-.21-.98-.16-1.3-.14-2.03 6.95-7.77 10.5-10.38 3.84.97 9.88 2.73 15.24 4.8M378.9 497l-2.53 1.4c-2.22-.27-4.17 1.27-3.85 3.31m0 0c.07.48.27.98.6 1.49.5 1.13 5.32 1.33 5.13-.47m-5.73-1.02-11.29 6.36-6.58 13.34m49.83-31.3-9.76 8.6c-1.28.28-2.56.9-3.4 1.72m4.62 1.25c1.01 2.48-1.12 5.35-3.85 3.31-2.25-1.68-2-3.34-.76-4.56m-3.43 2.8-3.86 3.31c-2.97 1.22-8.2-.98-2.87-4.9m9.36-4.7c-2.04-.03-6.43 1.16-4.29 4.37 1.42 2.13 4 .9 5.09-.88m15.51 18.72-17.46 9.93-3.58-23.19" stroke="#000" stroke-width="1.82"/><path d="M414.48 496.24c-1.78 2.08-3.76 4.76-3.65 6.35.14 2.03.62 3.22 1.6 5.6m-4.06.27c-.92 1.88-.84 2.58-2.24 3l-1.76 4.2" stroke="#FFCB8D" stroke-opacity=".46" stroke-width="1.82" style="mix-blend-mode:multiply"/></g><g filter="url(#c)"><rect x="275.37" y="293.89" width="145.49" height="218.24" rx="11.19" transform="rotate(12.22 275.37 293.9)" fill="#fff"/><mask id="d" style="mask-type:alpha" maskUnits="userSpaceOnUse" x="235" y="303" width="175" height="223"><path d="m299.97 304.94 100 21.66a9.8 9.8 0 0 1 7.5 11.64l-31.4 145.1a4.02 4.02 0 0 1-4.8 3.08 6.82 6.82 0 0 0-7.64 3.84l-10.68 23.45a5.3 5.3 0 0 0 1.2 6.06c1.83 1.71.27 4.75-2.19 4.27L245 503.2a9.8 9.8 0 0 1-7.63-12l35.2-139.33a7.14 7.14 0 0 1 8.42-5.23 9.94 9.94 0 0 0 11.82-7.61l4.37-20.17a7.4 7.4 0 0 0-1.65-6.41 4.6 4.6 0 0 1 4.45-7.5Z" fill="#C4C4C4" stroke="#000" stroke-width="2.8"/></mask><g mask="url(#d)"><rect x="286.38" y="309.16" width="120.31" height="193.06" rx="9.79" transform="rotate(12.22 286.38 309.16)" stroke="#000" stroke-width="2.8"/></g><path d="m265.96 403.5 117.58 25.46" stroke="#000" stroke-width="2.8"/><path d="m304.5 346-11.55-2.5c5.18-1.7 6.46-3.7 7.76-7.93l-8.5 2c-3.6-3.72-3.47-5.38 1.6-7.34l6.9 5.34-1.86-10.02c3.47-4.24 5.8-3.55 7.7 1.67l-5.84 8.35 9.47-1.8c2.75 3.6 1.66 5.05-1.6 7.35l-7.87-5.55c-.23 4.46.3 6.8 3.8 10.44Z" fill="#000"/><path d="M300.71 335.57c-1.3 4.23-2.58 6.23-7.76 7.93l11.55 2.5c-3.48-3.62-4.02-5.97-3.79-10.43Zm0 0-8.5 2c-3.6-3.72-3.47-5.38 1.6-7.34l6.9 5.34Zm0 0 5.84-8.35c-1.9-5.22-4.23-5.9-7.7-1.67l1.86 10.02Zm0 0 9.47-1.8c2.75 3.6 1.66 5.05-1.6 7.35l-7.87-5.55Z" stroke="#000" stroke-width="2.8"/><path d="m342.26 485.87 11.56 2.5c-5.18 1.7-6.47 3.7-7.77 7.93l8.5-2c3.6 3.72 3.48 5.38-1.59 7.34l-6.9-5.34 1.86 10.02c-3.48 4.24-5.81 3.55-7.7-1.67l5.83-8.35-9.46 1.8c-2.76-3.6-1.66-5.05 1.59-7.35l7.87 5.55c.23-4.46-.3-6.8-3.79-10.43Z" fill="#000"/><path d="M346.05 496.3c1.3-4.23 2.59-6.23 7.77-7.93l-11.56-2.5c3.49 3.62 4.02 5.97 3.8 10.43Zm0 0 8.5-2c3.6 3.72 3.48 5.38-1.59 7.34l-6.9-5.34Zm0 0-5.84 8.35c1.9 5.22 4.23 5.9 7.7 1.67l-1.86-10.02Zm0 0-9.46 1.8c-2.76-3.6-1.66-5.05 1.59-7.35l7.87 5.55Z" stroke="#000" stroke-width="2.8"/><path d="M276.48 338.96a17.7 17.7 0 0 1-.78-.18 52.1 52.1 0 0 0-4.28-.8c.54-1.7 1.04-3.37 1.48-4.99.45-1.62.84-3.08 1.17-4.36a125.75 125.75 0 0 0 3-16.34 32.05 32.05 0 0 0 2.5.6l1 .23a63.87 63.87 0 0 0 1.42.23 143.7 143.7 0 0 0-2.1 7.92c-.31 1.3-.6 2.52-.85 3.7l-.23 1.05a22.2 22.2 0 0 0 2.58-2.42 21.07 21.07 0 0 0 3.94-5.94c.48-1.07.85-2.15 1.08-3.24l.12-.56 5.79 1.8c-1.4 1.57-2.63 2.97-3.69 4.18l-2.7 3.12a147.03 147.03 0 0 0-2.97 3.6c.78.4 1.37.84 1.79 1.34.42.5.72 1.03.9 1.6.18.57.26 1.18.25 1.81 0 .63-.04 1.28-.11 1.94l-.24 2c-.07.68-.09 1.35-.05 2.01.01.38.07.78.16 1.2.07.37.2.79.34 1.26.16.45.38.94.65 1.44l-4.91-.95c-.21-.32-.36-.72-.44-1.2a11.25 11.25 0 0 1 0-3.02c.08-.65.18-1.28.28-1.88.13-.62.22-1.2.28-1.76.07-.56.1-1.07.08-1.55a3.16 3.16 0 0 0-.3-1.3c-.19-.39-.47-.72-.86-1a4.1 4.1 0 0 0-1.94-.7 5.6 5.6 0 0 0-.4-.03c-.25 1.26-.54 2.85-.9 4.77-.34 1.91-.7 4.06-1.06 6.42ZM370.45 492.13l.78.19.74.17a53.12 53.12 0 0 0 3.54.63c-.54 1.7-1.03 3.36-1.48 4.98a200.01 200.01 0 0 0-2.18 8.63 125.14 125.14 0 0 0-1.98 12.08 32.12 32.12 0 0 0-2.5-.62l-1-.22a40.77 40.77 0 0 0-1.43-.23 142.9 142.9 0 0 0 2.1-7.92c.32-1.3.6-2.52.85-3.69l.23-1.06c-.9.73-1.76 1.53-2.57 2.42a21.12 21.12 0 0 0-3.94 5.94 15.98 15.98 0 0 0-1.09 3.24l-.12.56-5.79-1.8c1.41-1.57 2.64-2.97 3.69-4.18l2.71-3.12a153.11 153.11 0 0 0 2.96-3.6 5.55 5.55 0 0 1-1.78-1.34 4.45 4.45 0 0 1-.91-1.6 5.54 5.54 0 0 1-.24-1.81c0-.63.04-1.28.1-1.94l.24-2c.07-.68.1-1.35.05-2.01a6.94 6.94 0 0 0-.15-1.2 9.25 9.25 0 0 0-1-2.7l4.92.95c.2.33.35.73.43 1.2a11.27 11.27 0 0 1 0 3.02c-.08.65-.17 1.28-.28 1.88-.12.62-.21 1.2-.27 1.76a9.4 9.4 0 0 0-.08 1.55c.01.49.11.92.3 1.3.18.39.46.72.85 1a4.08 4.08 0 0 0 1.94.7l.41.03.89-4.77c.34-1.91.7-4.05 1.06-6.42Z" fill="#000"/><path d="m343.84 473.96 1-.1c2.79-1.4 1.22-12.59-.77-14.16-3.49-2.75-3.2-22.36-2.28-29.12-13.06-5.34-19.78-8.4-26.94-14.42l39.95 7.21c2.26 7.17 5.38 24.24 5.2 35.48-.21 13.3-10.24 14.52-15.16 15.01-.29.14-.62.19-1 .1Z" fill="#B02929"/><path d="M272.35 414.11c-.6 2.74-1.48 6.84 11 15.27l8.25-18.26c-6.31.54-17.74-3.98-19.25 3Z" fill="#B02929" stroke="#000" stroke-width="2.8"/><path d="M305.57 412.72c2.45.53 20.4 11.57 33.48 17.26 1.26 7.43 1.03 21.7 6.87 34.41.62 2.43.18 5.77-2.08 9.57l-13.37-4.32c-1.74-11.83-4.9-36.85-14.66-44.69-7.13-.11-15.4-.44-23.1 20.76-4.44 12.22-5.45 10.35-7.2 7.11l-.05-.09c-1.2-2.2-2.97-14.95-2.4-21.99l8.84-20.98c4.4-.48 9.57 2.07 13.67 2.96Z" fill="#3076FF"/><path d="M320.8 430.63c4.13 3.35 7.48 26.16 8.64 37.15l-49.86-7.73c.32-1.47 7.92-3.9 10.27-5.44 2.24-5.66 7.6-18.3 11.19-23.66 3.58-5.35 11.44-6.2 14.93-5.96-.1.49.71 2.3 4.84 5.64Z" fill="#6A5A50" stroke="#000" stroke-width="2.8"/><path d="m263.56 467.01.15-.2c8.7-12.3 9.2-13 13.2-32.28l5.74-2.39c.42-1.04-.87-1.85-2.63-2.46-2.07-.48-4.26-.82-6.85-1.44 0 0 4.02.46 6.85 1.44 1.76.6 3.05 1.42 2.63 2.46l2.39 5.73c-8.92 14.97-9.53 15.62-13.36 32.48l-11.85 17.28 3.73-20.62Z" fill="#6E86C4"/><path d="m282.65 432.14-5.73 2.4c-4.03 19.38-4.51 19.98-13.36 32.47l-3.73 20.62 11.85-17.28c3.83-16.86 4.44-17.5 13.36-32.48l-2.4-5.73Zm0 0c1.1-2.7-9.48-3.9-9.48-3.9 7.39 1.75 11.52 1.35 18.95 7.8m-8.92-5.25 1.12-2.71 6.67-16.24" stroke="#B7B7B7" stroke-width="2.8"/><path d="m259.4 487.17 3.07-20.8c9.13-12.5 10.97-19.81 12.87-33l4.7-1.85-6.84-1.48.59-2.74" stroke="#767676" stroke-width="1.4" stroke-linejoin="round"/><path d="M328.07 505.06c1.54.52 2.31.91 1.2.67a3.01 3.01 0 0 1-1.2-.67c-2.45-.84-6.87-2.01-8.82-1.5-3.19.84-6.2 7.82-6.51 9.28-.32 1.46-7.65-6.24-10.83-5.4-2.02.07-6.78 2.2-8.43 4.29-.98-2.18-8.96-10.6-14.23-8.12a51.64 51.64 0 0 0 6.43-4.26c2.06-1.66 3.37-3.25 2.36-4.07 17.22 5.77 23.2 3.9 33.1-.47.49.96 1.16 2.18 1.91 3.47 1.55 2.62 3.47 5.48 5.02 6.78Z" fill="#FFDC22"/><path d="M323.05 498.28a68.07 68.07 0 0 1-1.91-3.47c-9.9 4.36-15.88 6.24-33.1.47 2.04 1.66-5.4 6.47-9.37 8.66 5.24-3.45 13.8 5.53 14.81 7.79 1.65-2.09 6.41-4.22 8.43-4.29 3.18-.83 10.51 6.86 10.83 5.4.31-1.46 3.32-8.44 6.5-9.28 3.19-.83 12.9 2.8 10.03 2.17-1.65-.35-4.24-4.1-6.22-7.45Zm0 0c-5.61 3.36-20.95 8.29-37.39 1.07M339.54 475.9c1.5-.21 4.1-1.36 2.4-4.3-1.71-2.92-5.15-3.24-6.65-3.03-1.4-.3-4.32-.3-4.85 2.15-.67 3.06.26-7.95-3.2-5.5l-6.9 4.91M320.6 468.93c.03-2.46-.47-7.5-2.75-7.99-2.86-.62-1.43-.3-3.11.56-1.68.87-.4-5.01-6.88-2.72-6.47 2.3 1.24-2.48-5.7-1.23-3.12.55-2.6-1.8-5.97-.06-3.1.56-3.36 1.73-4.28-.93l-2.6-1.8M305.08 474.52l-4.1-.9m19.62-4.69-11.73 7.9c-5.03 3.39-10.5 2.2-11.56.48-1.05-1.72-6.66-8.9-8.02-9.2" stroke="#000" stroke-width="2.8"/><path d="m285.53 465.63 3.65 29.42 8.98 4.8 12.9-.06 9.38-3.7 2.9-26.57-37.81-3.89Z" fill="#FFDBB0"/><path d="M334.94 482.05c-.05-1.86 4.41-3.63 6.65-4.28-.16-1.47-.7-4.73-1.55-6.06-1.07-1.67-3.8-2.26-6.55-1.42-2.74.84.78 1.6-2.13 2.85-2.92 1.25-2.26-3.8-3.33-5.46-1.07-1.67-3.03.77-3.33 2.14-.3 1.37-3.62 3.5-3.92 4.88-.3 1.36.93 2.33 2.44 1.95 1.51-.37-1.78 8.2-2.37 10.94-.47 2.2-.07 4.76.19 5.77.15-.92.55-3.03.88-4.1.42-1.34 4.4-.48 5.77-.19 1.37.3 1.1-4.05 1.39-5.42.3-1.37 5.9.74 5.86-1.6Z" fill="#0F0000"/><path d="m341.79 452.99 1.37-.24-1.37.24Zm-.3 22.35-.63-1.25-1.38.71.85 1.3 1.17-.76Zm-4.13 5.08 1.09.88-1.09-.88Zm-2.37 3.97.34 1.35-.34-1.35Zm-7.34 5.88.34 1.36-.34-1.36Zm-4.97 1.91-1.35.36 1.35-.36Zm-2.37 3.97-.34-1.36-.14.03-.12.06.6 1.27Zm-31.67-.88-1.37-.3-.23 1.07.99.49.61-1.26Zm.62-2.85 1.37.3.03-.18v-.17l-1.4.05Zm-.21-6.03 1.4-.05v-.05l-.01-.06-1.4.16Zm-.53-4.6 1.4-.15-1.4.16Zm-3.94-9.81-1.17.76 1.17-.76Zm.62-2.86-1.17.77 1.17-.76Zm-4.04-2.36-1.35.35 1.35-.35Zm60.43 11 .39 1.35 1.13-.33-.13-1.16-1.4.15Zm-6.65 4.3-1.4.02 1.4-.03Zm-13.02 7.2-1.33-.42 1.33.42Zm-.88 4.1-1.36.34 2.74-.1-1.38-.24Zm2.18-16.7.34 1.35-.34-1.36Zm4.8-8.98 1.18-.76-1.17.76Zm3.34 5.46.55 1.29-.56-1.29Zm2.13-2.85.4 1.34-.4-1.34Zm6.55 1.42 1.17-.76-1.17.76Zm-1.02-41.45c-.1 7.47.01 15.07 1.39 22.97l2.75-.48c-1.33-7.63-1.44-15.02-1.34-22.45l-2.8-.04Zm1.39 22.97c.28 1.65 1.11 3.61 1.91 5.52.83 1.98 1.68 4 2.19 5.98.5 1.99.63 3.77.16 5.3-.46 1.48-1.53 2.9-3.81 4.06l1.28 2.5c2.84-1.46 4.49-3.42 5.2-5.72.7-2.24.45-4.62-.12-6.83-.57-2.22-1.5-4.44-2.32-6.37-.84-2.02-1.51-3.65-1.74-4.92l-2.75.48Zm-.08 22.87c.55.85 1.3 2.08 1.75 3.04a7.2 7.2 0 0 1 .33.8l.01.07v-.15c.02-.1.06-.3.22-.52a1.15 1.15 0 0 1 1.12-.46l-.59 2.73c.39.09 1.19.12 1.71-.6.4-.53.35-1.14.32-1.36a6.24 6.24 0 0 0-.6-1.71 31.5 31.5 0 0 0-1.93-3.37l-2.34 1.53Zm3.43 2.78c-.2-.05-.49-.17-1.03-.4-.48-.19-1.1-.44-1.79-.59-.69-.14-1.5-.2-2.34.04-.86.25-1.65.78-2.32 1.6l2.17 1.77c.36-.44.67-.6.92-.68.27-.08.58-.08.98 0 .41.1.83.26 1.31.46.41.17 1 .42 1.51.53l.6-2.73Zm-7.48.66a4.74 4.74 0 0 0-1.09 2.23c-.1.68 0 1.27.02 1.44.03.21-.05-.14.22-.41.1-.1.03.03-.78.23l.68 2.71c.8-.2 1.57-.45 2.08-.96.7-.7.62-1.52.58-1.88-.04-.4-.07-.5-.04-.68.03-.14.1-.44.5-.92l-2.17-1.76Zm-1.63 3.49c-1.42.35-2.03.11-3.15.14-.55.02-1.29.14-1.9.76-.52.55-.78 1.3-.95 2.07l2.74.6c.14-.66.26-.76.22-.72-.12.13-.25.1-.04.1.4-.02 1.97.2 3.76-.24l-.68-2.71Zm-6 2.97c-.18.84-.2 1.5-.2 2v.58l-.01.18c0-.03.03-.11.1-.2.05-.07.1-.09.05-.06-.14.08-.48.21-1.28.41l.68 2.71c.8-.2 1.48-.4 2-.7.27-.16.54-.37.76-.66.23-.3.36-.61.42-.91.06-.28.07-.54.07-.74v-.6c0-.38.02-.83.15-1.41l-2.74-.6Zm-1.34 2.91c-.62.15-1.24.18-1.85.15l-.9-.06c-.27-.03-.6-.06-.88-.06-.45-.01-1.56-.01-2.19.94-.3.45-.37.95-.36 1.36 0 .4.08.84.2 1.3l2.7-.71a2.8 2.8 0 0 1-.1-.62c0-.09.01.04-.1.22-.29.42-.7.3-.2.3.17 0 .4.03.7.05l1 .08c.76.03 1.67 0 2.66-.24l-.68-2.71Zm-5.98 3.63c.21.82 0 1.27-.25 1.57-.32.37-.8.6-1.11.68l.67 2.72c.75-.2 1.8-.68 2.57-1.6a4.38 4.38 0 0 0 .83-4.08l-2.71.7Zm-1.62 2.34c-4.8 2.26-17.77 5.33-30.45-.87l-1.23 2.52c13.65 6.67 27.54 3.4 32.87.88l-1.2-2.53Zm-29.7.69.62-2.86-2.74-.6-.62 2.86 2.74.6Zm.65-3.2-.22-6.03-2.8.1.22 6.02 2.8-.1Zm-.22-6.13-.53-4.6-2.78.31.53 4.6 2.78-.31Zm-.53-4.6c-.56-4.95-3.01-8.68-4.16-10.43l-2.34 1.54c1.14 1.73 3.24 4.97 3.72 9.2l2.78-.31Zm-4.16-10.43c-.18-.28.08-.04-.11.4a.76.76 0 0 1-.16.23l.03-.02.13-.09c.1-.06.29-.17.46-.32.2-.16.44-.41.6-.79.38-.86.06-1.68-.33-2.26l-2.34 1.53c.19.29-.08.04.11-.4a.8.8 0 0 1 .17-.23l-.04.03-.13.08c-.09.06-.28.18-.46.33-.19.15-.44.4-.6.78-.38.86-.05 1.68.33 2.26l2.34-1.53Zm.62-2.85a2.77 2.77 0 0 0-1.95-1.28 4.22 4.22 0 0 0-.84-.03l-.55.03c-.3 0-.29-.04-.23 0 .04.03-.12-.04-.28-.68l-2.71.71c.25.95.66 1.74 1.36 2.25.71.5 1.47.53 1.94.51l.6-.03h.28c.01.01 0-.02.04.05l2.34-1.53Zm-3.85-1.96c-.37-1.37-.35-3.03-.37-4.79 0-.83-.02-1.7-.12-2.5a5.45 5.45 0 0 0-.74-2.31l-2.34 1.53c.1.17.23.5.3 1.13.08.6.1 1.33.1 2.18.02 1.6-.01 3.68.46 5.47l2.7-.7Zm58.68 10.03c-1.18.34-2.96.98-4.46 1.8-.75.4-1.5.9-2.08 1.46a3.31 3.31 0 0 0-1.12 2.4l2.8-.07c0 .11-.06 0 .28-.33.32-.31.81-.66 1.46-1 1.27-.7 2.84-1.27 3.9-1.58l-.78-2.69Zm-7.66 5.65.02-.09a.53.53 0 0 1 .1-.18c.1-.1.15-.1.03-.06-.27.08-.75.1-1.49.06-.62-.02-1.5-.1-2.15-.06-.34.02-.77.07-1.18.25-.45.2-1 .6-1.16 1.35l2.74.6a.9.9 0 0 1-.48.62c-.05.02 0-.01.23-.02.48-.03 1.06.02 1.88.06.7.03 1.62.05 2.4-.17.4-.12.9-.34 1.28-.78.41-.47.59-1.05.57-1.64l-2.8.06Zm-5.83 1.27c-.1.47-.14 1.12-.18 1.68-.03.61-.07 1.23-.13 1.8-.07.6-.16.97-.24 1.15-.04.08-.02 0 .13-.12.2-.15.47-.2.7-.15l-.6 2.73c.57.12 1.13 0 1.58-.34.4-.3.62-.7.75-1a7 7 0 0 0 .46-1.96c.07-.65.11-1.36.15-1.94.04-.63.07-1.04.12-1.25l-2.74-.6Zm.28 4.36c-.68-.15-2.1-.46-3.44-.56a7.31 7.31 0 0 0-2.05.1c-.6.14-1.58.52-1.91 1.6l2.67.82c-.12.4-.45.38-.14.31.25-.05.67-.07 1.23-.03 1.1.07 2.35.34 3.04.49l.6-2.73Zm-7.4 1.13a43.06 43.06 0 0 0-.93 4.28l2.75.47c.16-.93.55-2.95.85-3.92l-2.67-.83Zm1.8 4.17c-.23-.9-.58-3.23-.17-5.12l-2.73-.6c-.54 2.5-.1 5.3.2 6.41l2.7-.69Zm-.17-5.12c.13-.61.43-1.6.8-2.8.37-1.17.8-2.5 1.15-3.74.35-1.22.67-2.44.79-3.35.05-.41.1-.96-.03-1.45a1.66 1.66 0 0 0-2.05-1.25l.68 2.71a1.14 1.14 0 0 1-1.33-.75c-.03-.08 0 0-.05.38-.08.68-.34 1.7-.7 2.93-.35 1.2-.76 2.5-1.13 3.7-.36 1.16-.7 2.27-.86 3.03l2.73.59Zm.66-12.6c-.4.1-.62 0-.68-.06a.14.14 0 0 1-.05-.06c0-.02-.02-.07 0-.18l-2.73-.6a2.98 2.98 0 0 0 1.03 3.03c.85.68 2 .87 3.1.6l-.67-2.72Zm-.73-.3c0 .03.04-.13.39-.53.3-.35.71-.75 1.17-1.2.45-.43.95-.91 1.35-1.38.37-.43.85-1.05 1-1.77l-2.73-.59c.01-.03-.04.13-.38.53-.31.36-.72.75-1.18 1.2-.44.43-.94.91-1.35 1.38a4.23 4.23 0 0 0-1 1.77l2.73.6Zm3.92-4.88a3.25 3.25 0 0 1 .92-1.45c.23-.19.29-.15.17-.15a.5.5 0 0 1-.27-.06c-.07-.05-.08-.08-.04-.02l2.35-1.51a2.42 2.42 0 0 0-2.17-1.2c-.8.04-1.44.46-1.87.83a6.02 6.02 0 0 0-1.83 2.97l2.74.6Zm.78-1.68c.1.16.23.54.37 1.25.11.58.24 1.46.42 2.17a4.4 4.4 0 0 0 1.19 2.25c.4.35.89.58 1.47.63.56.04 1.1-.09 1.6-.3l-1.1-2.57c-.22.1-.3.08-.27.08a.3.3 0 0 1 .15.06c.01.01-.04-.03-.1-.19a3.83 3.83 0 0 1-.22-.65c-.16-.61-.24-1.23-.4-2.02a6.51 6.51 0 0 0-.76-2.22l-2.35 1.51Zm5.06 6c.78-.34 1.53-.8 1.89-1.55.4-.85.07-1.62 0-1.82-.07-.17-.06-.14-.05-.1.02.09.04.31-.08.56-.1.22-.25.3-.22.28.04-.02.16-.09.45-.17l-.82-2.68c-.4.12-.76.27-1.07.45-.31.19-.65.47-.86.9-.22.46-.2.9-.14 1.2.05.26.15.5.17.56.1.25-.07-.04.09-.37.1-.23.2-.12-.47.17l1.1 2.57Zm1.99-2.8c1.17-.36 2.3-.4 3.2-.2.9.2 1.48.6 1.76 1.03l2.35-1.51a5.47 5.47 0 0 0-3.52-2.26 9.25 9.25 0 0 0-4.61.26l.82 2.68Zm4.96.83c.28.44.59 1.37.85 2.53.25 1.11.41 2.24.49 2.93l2.78-.3c-.09-.78-.27-2.01-.54-3.24a11.43 11.43 0 0 0-1.23-3.43l-2.35 1.51Z" fill="#000"/><path d="M286.9 465.93c1.36.3-.3 1.37.48 4.4.62 2.42.9 6.87.95 8.8-1.13-3.6-3.67-10.82-4.76-11.06-1.37-.3-.77-3.03-.48-4.4.3-1.37-.77-3.03-.48-4.4.3-1.36 4.7-1.84 6.06-1.55 1.37.3 1.07 1.67 2.44 1.96 1.1.24 3.39-.22 4.4-.48 6.06-1.55 9.57 2.08 11.23 1 1.67-1.07 8.2 1.78 10.94 2.37 2.74.6.78 3.03 1.85 4.7 1.07 1.66-2.26 3.8-5.29 4.58-3.03.77-1.66 1.07-4.4.48-2.73-.6-4.4.48-8.5-.41-4.1-.89-1.07-1.67-3.8-2.26-2.74-.59-1.37-.3-5.17-2.55-3.81-2.25-6.84-1.48-5.47-1.18Z" fill="#000"/><path d="M288.33 479.12Zm0 0c-.06-1.92-.33-6.37-.95-8.8-.78-3.02.88-4.1-.48-4.4-1.37-.29 1.66-1.06 5.47 1.2 3.8 2.25 2.44 1.95 5.17 2.54 2.73.6-.3 1.37 3.8 2.26 4.1.89 5.77-.19 8.5.4 2.74.6 1.37.3 4.4-.47 3.03-.78 6.36-2.92 5.29-4.58-1.07-1.67.89-4.1-1.85-4.7-2.73-.59-9.27-3.44-10.94-2.37-1.66 1.08-5.17-2.55-11.23-1-1.01.26-3.3.72-4.4.48-1.37-.3-1.07-1.66-2.44-1.96-1.36-.3-5.76.19-6.06 1.55-.3 1.37.78 3.04.48 4.4-.3 1.37-.89 4.1.48 4.4 1.1.24 3.63 7.47 4.76 11.05ZM320.44 496.1c-.45-.1-1.4-1.46-1.55-6.07-.18-5.76 3.15-7.9 2.37-10.94-.77-3.03-1.07-1.66-2.14-3.32-1.07-1.67 3.33-2.15 2.85-6.54" stroke="#000" stroke-width="2.8"/><path d="M301.69 493.64c-.33 1.53.58 4.29 6.87 3.09m-11.52-2.5c-1.55.2-4.87.23-5.76-1.24m29.32-24.06c-4.46 4.37-13.96 12.98-16.26 12.48-2.88-.62-5.76-1.25-6.87-3.09l-5.54-9.2" stroke="#000" stroke-width="2.8"/><path d="M300.23 490.29c.22-1.02.89-4.1-1.48-6.73" stroke="#000" stroke-width="1.4"/><path d="m305.7 491.47-1.37-.3m-6.83-1.48-1.37-.3M286.23 455.76c-1.14-1.3-4.08-7.56-2.5-14.85" stroke="#000" stroke-width="2.8"/><path d="M276.8 421.97c1.85 1.65 5.94 3.89 7.15 4.67l.1.03 7.56-15.55c-2.2-.47-7.75-1.36-6.96.06.8 1.42 2.75 2.16 3.63 2.34-2.2-.47-6.91-1.18-8.22-.21-1.31.96 4.28 3.53 7.25 4.69-2.63-.57-8.23-1.47-9.54-.5-1.3.96 4.29 3.53 7.25 4.69-3.5-.76-10.06-1.87-8.22-.22Z" fill="#AA702C" stroke="#000" stroke-width="2.8"/><path d="m287.98 414.63 2.26-3.8M345.23 474.26c4.1.9 6.1-1.59 9.15-2.57 6.09-1.95 6.29-21.66 4.9-29.27-.58-3.23-4.15-17.62-4.48-19.05M341.49 431.94c-3.51-3.62-12.46-7.2-14.72-7.8-3.2-.83-4.67-4.13-3.42-7.57" stroke="#000" stroke-width="2.8"/><path d="M323.53 422.33c-2.73-.6-11.9-7.16-13.85-8.73m13.08 5.7c-1.83-.4-5.63-1.8-6.25-4.22" stroke="#000" stroke-width="2.8"/><path d="M318.27 459.84c1.15-3.1 2.56-9.18-.95-8.8m0 0c-1.77.2-1.74 5.83-.41 8.5m.4-8.5c1.42-4.1-3.47-10.41-4.28-6.65-.3 1.37 1.55 6.06 4.29 6.65Zm-25.01 3.17c3.13-1.23 8.19-3.48 6.94-5.65-1.94-3.4-5.44 1.13-6.94 5.65ZM299.25 448.56c2.83.14 8.66-2.99 6.94-5.65-1.71-2.66-7.42 1.25-6.94 5.65Z" stroke="#B0B0B0" stroke-width="2.8"/><path d="M313.03 444.39c-2.36 1-7.56 1.04-6.84-1.48 1.26-4.34 6.02-2.1 6.84 1.48Z" stroke="#B0B0B0" stroke-width="2.8"/><path d="m311.82 444.13-5.78-1.25c2.6-.85 3.24-1.86 3.89-3.97l-4.25 1c-1.8-1.86-1.74-2.69.8-3.67l3.45 2.67-.94-5c1.74-2.13 2.91-1.78 3.86.83l-2.92 4.17 4.73-.9c1.38 1.8.83 2.53-.8 3.68l-3.93-2.78c-.12 2.23.15 3.4 1.9 5.22Z" fill="#000"/><path d="M309.93 438.91c-.65 2.11-1.3 3.12-3.89 3.97l5.78 1.25c-1.74-1.81-2-2.99-1.9-5.22Zm0 0-4.25 1c-1.8-1.86-1.74-2.69.8-3.67l3.45 2.67Zm0 0 2.92-4.17c-.95-2.61-2.12-2.96-3.86-.84l.94 5.01Zm0 0 4.73-.9c1.38 1.8.83 2.53-.8 3.68l-3.93-2.78Z" stroke="#000" stroke-width="2.8" stroke-linejoin="bevel"/><path d="M290.25 496.71c.11-7.13.74-5.47-.07-12.9-.64-5.86-.66-10.16-3.28-17.88" stroke="#FFCB8D" stroke-opacity=".46" stroke-width="2.8" style="mix-blend-mode:multiply"/><path d="m304.26 478.28-2.73-.6" stroke="#000" stroke-width="1.4"/><circle cx="282.77" cy="432.11" r="2.8" transform="rotate(-167.78 282.77 432.11)" fill="#6E86C4"/><path d="m356.16 423.67-64.26-13.91" stroke="#000" stroke-width="2.8"/><path d="m305.92 357.76-1 .1c-2.79 1.4-1.22 12.6.77 14.17 3.49 2.75 3.2 22.35 2.29 29.12 13.05 5.33 19.77 8.4 26.93 14.42l-39.95-7.22c-2.26-7.17-5.37-24.23-5.2-35.48.21-13.29 10.24-14.51 15.16-15 .29-.15.62-.19 1-.1Z" fill="#B02929"/><path d="M377.41 417.61c.6-2.73 1.48-6.83-11-15.26l-8.25 18.25c6.32-.54 17.74 3.98 19.25-2.99Z" fill="#B02929" stroke="#000" stroke-width="2.8"/><path d="M344.19 419c-2.45-.52-20.4-11.56-33.48-17.26-1.25-7.43-1.03-21.7-6.86-34.4-.62-2.43-.19-5.77 2.07-9.58l13.38 4.33c1.73 11.83 4.9 36.85 14.65 44.68 7.14.12 15.4.44 23.1-20.76 4.44-12.21 5.45-10.34 7.2-7.1l.05.08c1.2 2.2 2.97 14.96 2.4 22l-8.84 20.98c-4.4.48-9.57-2.07-13.67-2.96Z" fill="#3076FF"/><path d="M328.95 401.09c-4.12-3.35-7.47-26.16-8.63-37.14l49.86 7.73c-.32 1.46-7.92 3.9-10.27 5.44-2.24 5.65-7.6 18.3-11.19 23.65-3.58 5.36-11.44 6.21-14.93 5.97.1-.49-.71-2.3-4.84-5.65Z" fill="#6A5A50" stroke="#000" stroke-width="2.8"/><path d="m386.2 364.71-.15.21c-8.7 12.3-9.2 13-13.2 32.27l-5.74 2.4c-.42 1.03.87 1.85 2.63 2.46 2.07.47 4.26.82 6.85 1.43 0 0-4.02-.45-6.85-1.43-1.76-.61-3.05-1.43-2.63-2.47l-2.39-5.72c8.92-14.98 9.53-15.63 13.36-32.48l11.85-17.28-3.73 20.61Z" fill="#6E86C4"/><path d="m367.12 399.58 5.72-2.39c4.03-19.38 4.51-19.98 13.36-32.48l3.73-20.61-11.85 17.28c-3.83 16.86-4.44 17.5-13.36 32.48l2.4 5.72Zm0 0c-1.12 2.71 9.47 3.9 9.47 3.9-7.39-1.75-11.52-1.35-18.95-7.79m8.92 5.25-1.12 2.7-6.67 16.25" stroke="#B7B7B7" stroke-width="2.8"/><path d="m390.37 344.56-3.08 20.8c-9.13 12.49-10.97 19.8-12.87 33l-4.7 1.84 6.84 1.49-.59 2.73" stroke="#767676" stroke-width="1.4" stroke-linejoin="round"/><path d="M321.69 326.67c-1.54-.53-2.3-.92-1.2-.68.36.08.76.32 1.2.68 2.45.84 6.87 2 8.83 1.5 3.18-.85 6.19-7.83 6.5-9.29.32-1.45 7.65 6.24 10.83 5.4 2.02-.07 6.78-2.2 8.43-4.28.98 2.17 8.96 10.59 14.23 8.11a51.65 51.65 0 0 0-6.43 4.26c-2.06 1.66-3.37 3.25-2.36 4.07-17.22-5.76-23.2-3.89-33.1.47a69.2 69.2 0 0 0-1.91-3.47c-1.55-2.61-3.47-5.48-5.02-6.77Z" fill="#FFDC22"/><path d="M326.7 333.44a69.2 69.2 0 0 1 1.92 3.47c9.9-4.36 15.88-6.23 33.1-.47-2.04-1.66 5.4-6.46 9.37-8.65-5.24 3.44-13.8-5.54-14.8-7.79-1.66 2.08-6.42 4.21-8.44 4.28-3.18.84-10.51-6.85-10.83-5.4-.31 1.46-3.32 8.44-6.5 9.28-3.19.84-12.9-2.79-10.03-2.17 1.65.36 4.24 4.1 6.22 7.45Zm0 0c5.62-3.36 20.97-8.28 37.4-1.06M310.22 355.83c-1.5.2-4.1 1.36-2.39 4.29 1.7 2.93 5.14 3.25 6.65 3.04 1.4.3 4.31.3 4.84-2.16.67-3.05-.26 7.95 3.2 5.5l6.9-4.91M329.16 362.8c-.03 2.45.47 7.49 2.75 7.98 2.86.62 1.43.31 3.11-.56 1.68-.87.4 5.02 6.88 2.72 6.47-2.29-1.24 2.49 5.7 1.24 3.11-.56 2.6 1.8 5.97.06 3.1-.56 3.36-1.74 4.28.93l2.6 1.79M344.69 357.2l4.1.9m-19.63 4.7c5.03-3.4 10.4-7 11.73-7.9 5.03-3.4 10.5-2.2 11.56-.49 1.06 1.72 6.66 8.9 8.03 9.2" stroke="#000" stroke-width="2.8"/><path d="m364.23 366.1-3.65-29.42-8.98-4.81-12.9.07-9.38 3.7-2.9 26.56 37.81 3.9Z" fill="#FFDBB0"/><path d="M314.83 349.67c.04 1.87-4.42 3.64-6.66 4.29.16 1.46.7 4.73 1.55 6.06 1.07 1.66 3.8 2.25 6.55 1.42 2.75-.84-.78-1.6 2.14-2.86 2.91-1.25 2.25 3.8 3.32 5.47 1.07 1.66 3.03-.78 3.33-2.14.3-1.37 3.62-3.51 3.92-4.88.3-1.37-.93-2.33-2.44-1.96-1.51.37 1.78-8.2 2.37-10.94.47-2.19.07-4.75-.19-5.76-.15.92-.55 3.03-.88 4.1-.42 1.34-4.4.48-5.77.18-1.37-.3-1.1 4.06-1.39 5.43-.3 1.36-5.9-.74-5.85 1.6Z" fill="#0F0000"/><path d="m307.98 378.74-1.38.24 1.38-.24Zm.28-22.35.64 1.24 1.39-.7-.86-1.3-1.17.76Zm4.14-5.08-1.09-.89 1.09.89Zm2.37-3.97-.33-1.36.33 1.36Zm7.34-5.88-.33-1.36.33 1.36Zm4.97-1.91 1.35-.36-1.35.36Zm2.38-3.97.33 1.35.14-.03.12-.06-.6-1.26Zm31.66.88 1.37.3.23-1.08-.99-.48-.61 1.26Zm-.62 2.85-1.37-.3-.03.18v.17l1.4-.05Zm.21 6.02-1.4.05v.06l.01.05 1.4-.16Zm.53 4.6-1.4.16 1.4-.16Zm3.94 9.82 1.17-.77-1.17.77Zm-.62 2.85 1.17-.77-1.17.77Zm4.04 2.37 1.35-.36-1.35.36Zm-60.43-11.01-.39-1.35-1.13.33.13 1.17 1.4-.15Zm6.66-4.29 1.4-.03-1.4.03Zm13-7.2 1.34.41-1.33-.41Zm.9-4.1 1.35-.35-2.73.11 1.38.24Zm-2.19 16.7-.34-1.36.34 1.36Zm-4.8 8.98-1.18.76 1.17-.76Zm-3.33-5.47-.56-1.28.56 1.28Zm-2.14 2.86-.4-1.34.4 1.34Zm-6.55-1.42-1.17.75 1.17-.75Zm1.02 41.44c.1-7.46-.01-15.07-1.39-22.96l-2.75.48c1.33 7.63 1.44 15.02 1.34 22.45l2.8.03Zm-1.39-22.96c-.28-1.65-1.11-3.62-1.9-5.52-.84-1.98-1.69-4-2.2-5.99-.5-1.98-.63-3.77-.16-5.3.46-1.47 1.53-2.89 3.81-4.06l-1.27-2.49c-2.84 1.46-4.5 3.42-5.21 5.72-.7 2.24-.45 4.62.12 6.83.57 2.22 1.5 4.43 2.32 6.37.84 2.01 1.51 3.65 1.74 4.92l2.75-.48Zm.08-22.88a29 29 0 0 1-1.75-3.03 7.06 7.06 0 0 1-.32-.8l-.02-.08v.16c-.02.1-.06.3-.22.51-.42.57-1.03.49-1.12.47l.59-2.74a1.66 1.66 0 0 0-1.71.6c-.4.54-.34 1.15-.32 1.37.08.55.34 1.18.6 1.7a31.8 31.8 0 0 0 1.93 3.38l2.34-1.54Zm-3.43-2.77c.2.04.49.16 1.03.39.48.2 1.11.44 1.79.6.69.14 1.5.2 2.34-.05a4.63 4.63 0 0 0 2.32-1.6l-2.17-1.77c-.36.44-.67.61-.92.69-.27.07-.58.07-.98-.01-.41-.1-.83-.25-1.31-.45-.41-.17-1-.43-1.51-.54l-.6 2.74Zm7.48-.66c.64-.79.98-1.53 1.1-2.24.1-.67-.01-1.26-.03-1.44-.03-.2.05.15-.22.42-.1.09-.03-.03.78-.23l-.68-2.72c-.8.2-1.56.46-2.08.97-.7.7-.62 1.51-.58 1.88.04.4.07.49.04.68-.02.14-.1.43-.5.91l2.17 1.77Zm1.63-3.5c1.42-.35 2.03-.1 3.16-.14a2.62 2.62 0 0 0 1.88-.76c.54-.54.79-1.3.96-2.07l-2.74-.59c-.14.66-.26.75-.22.71.12-.13.26-.1.04-.09-.4.02-1.97-.21-3.75.23l.67 2.72Zm6-2.97c.18-.84.2-1.5.2-2v-.58l.01-.17c0 .03-.03.11-.1.2-.05.07-.1.08-.05.06.14-.08.48-.22 1.28-.42l-.67-2.71c-.8.2-1.49.4-2 .7-.28.16-.55.37-.77.66-.23.3-.36.62-.42.92-.06.27-.07.54-.07.73v.6c0 .38-.02.83-.15 1.42l2.74.6Zm1.34-2.9a6.37 6.37 0 0 1 1.85-.16l.9.07.88.06c.45 0 1.56 0 2.2-.95.29-.45.36-.94.36-1.35 0-.41-.09-.85-.2-1.3l-2.71.7c.08.35.1.54.1.63 0 .09-.01-.04.1-.23.29-.42.7-.29.2-.3-.17 0-.39-.02-.7-.05l-1-.07a9.15 9.15 0 0 0-2.65.23l.67 2.71Zm5.98-3.63c-.21-.82 0-1.28.25-1.58.32-.36.8-.6 1.11-.68l-.67-2.71c-.75.19-1.8.67-2.57 1.59a4.38 4.38 0 0 0-.82 4.09l2.7-.71Zm1.62-2.35c4.8-2.26 17.77-5.33 30.45.87l1.23-2.51c-13.65-6.67-27.53-3.4-32.87-.89l1.2 2.53Zm29.7-.68-.62 2.85 2.74.6.62-2.86-2.74-.59Zm-.65 3.2.22 6.02 2.8-.1-.22-6.02-2.8.1Zm.22 6.13.53 4.6 2.78-.32-.53-4.6-2.78.32Zm.53 4.6c.56 4.95 3.01 8.67 4.16 10.42l2.34-1.53c-1.14-1.73-3.24-4.97-3.72-9.21l-2.78.32ZM364 360.5c.18.29-.08.04.11-.4a.8.8 0 0 1 .17-.23l-.04.03-.13.08c-.1.06-.29.18-.46.33-.19.16-.44.4-.6.78-.38.86-.05 1.68.33 2.27l2.34-1.54c-.19-.28.08-.03-.11.4a.73.73 0 0 1-.11.18l-.06.05.04-.02.13-.08c.1-.06.28-.18.46-.33.19-.16.44-.41.6-.79.38-.86.05-1.67-.33-2.26l-2.34 1.53Zm-.62 2.86c.52.8 1.23 1.16 1.95 1.27.32.05.62.05.84.04.31-.02.34-.03.56-.03.3-.01.28.03.22 0-.04-.04.12.04.29.67l2.7-.7a3.81 3.81 0 0 0-1.36-2.25 3.07 3.07 0 0 0-1.93-.52l-.6.03h-.3l-.03-.05-2.34 1.54Zm3.86 1.95c.36 1.38.34 3.03.36 4.8 0 .83.02 1.7.12 2.49.1.76.28 1.61.74 2.32l2.34-1.54c-.1-.16-.23-.5-.3-1.13-.08-.6-.1-1.33-.1-2.17-.02-1.61.01-3.68-.46-5.48l-2.7.71Zm-58.69-10.02c1.18-.34 2.96-.98 4.46-1.8.75-.4 1.5-.9 2.08-1.46a3.32 3.32 0 0 0 1.13-2.4l-2.8.06c0-.1.05 0-.3.34-.3.3-.8.65-1.45 1a21.2 21.2 0 0 1-3.9 1.57l.78 2.69Zm7.67-5.66-.03.1a.55.55 0 0 1-.1.18c-.09.1-.15.09-.03.05.27-.08.75-.1 1.5-.06.61.03 1.48.1 2.14.06a3.5 3.5 0 0 0 1.18-.24c.46-.2 1-.6 1.16-1.36l-2.74-.59a.9.9 0 0 1 .48-.62c.05-.02 0 0-.23.02-.48.02-1.06-.03-1.88-.07a7.79 7.79 0 0 0-2.4.18c-.4.12-.9.34-1.28.77a2.35 2.35 0 0 0-.57 1.64l2.8-.06Zm5.82-1.27c.1-.47.14-1.11.18-1.67.04-.62.07-1.23.13-1.8.07-.6.16-.97.24-1.15.04-.09.02 0-.13.11-.2.15-.47.2-.7.16l.6-2.73c-.57-.13-1.13 0-1.58.34-.4.3-.62.69-.75.99-.26.6-.38 1.34-.46 1.96-.07.66-.1 1.37-.14 1.94a10.7 10.7 0 0 1-.13 1.26l2.74.6Zm-.28-4.35c.68.15 2.1.46 3.44.55.66.05 1.4.05 2.05-.1.6-.14 1.58-.52 1.91-1.59l-2.67-.83c.13-.4.45-.38.14-.3-.25.05-.67.07-1.23.03-1.1-.08-2.35-.34-3.04-.5l-.6 2.74Zm7.4-1.14c.37-1.17.78-3.37.93-4.28l-2.75-.47c-.16.93-.55 2.95-.85 3.92l2.67.83Zm-1.8-4.17c.23.9.58 3.24.17 5.13l2.73.59c.54-2.49.1-5.3-.19-6.41l-2.71.7Zm.17 5.13c-.13.6-.43 1.6-.8 2.8-.36 1.16-.8 2.5-1.15 3.74a25.26 25.26 0 0 0-.79 3.34c-.05.41-.1.97.03 1.46a1.66 1.66 0 0 0 2.05 1.25l-.68-2.72a1.14 1.14 0 0 1 1.34.75c.02.09-.02 0 .03-.37.1-.68.35-1.71.7-2.93l1.14-3.7c.36-1.16.7-2.27.86-3.03l-2.73-.6Zm-.66 12.59c.4-.1.62 0 .68.06.04.03.05.05.05.06 0 .02.02.07 0 .18l2.74.6a2.98 2.98 0 0 0-1.04-3.03c-.85-.68-2-.86-3.1-.59l.67 2.72Zm.73.3c0-.03-.04.13-.39.53-.3.36-.71.75-1.18 1.2-.44.43-.94.92-1.34 1.39a4.23 4.23 0 0 0-1 1.76l2.73.6c-.01.03.04-.13.38-.53.31-.36.72-.76 1.18-1.2.44-.43.94-.92 1.35-1.39.37-.43.85-1.05 1-1.76l-2.73-.6Zm-3.92 4.88a3.25 3.25 0 0 1-.92 1.45c-.23.2-.29.16-.17.15.08 0 .18.02.27.07.07.04.08.07.04.01l-2.35 1.52a2.42 2.42 0 0 0 2.17 1.2c.8-.04 1.44-.46 1.87-.84a6.02 6.02 0 0 0 1.83-2.97l-2.74-.59Zm-.78 1.68a4.2 4.2 0 0 1-.37-1.24c-.11-.59-.24-1.47-.42-2.17a4.41 4.41 0 0 0-1.19-2.25c-.4-.35-.89-.58-1.47-.63-.56-.05-1.1.08-1.6.3l1.1 2.57c.22-.1.3-.08.27-.08a.3.3 0 0 1-.15-.07c-.01 0 .04.03.1.2.08.15.15.36.23.65.15.61.23 1.23.39 2.02.13.66.32 1.55.76 2.22l2.35-1.52Zm-5.06-6c-.78.35-1.53.8-1.89 1.55-.4.86-.07 1.62 0 1.83l.05.1a.92.92 0 0 1 .08-.56c.11-.23.25-.3.22-.28-.04.02-.16.08-.45.17l.82 2.67c.4-.12.76-.26 1.07-.45.31-.19.65-.47.86-.9.22-.46.2-.9.14-1.2-.05-.25-.15-.5-.17-.56-.1-.25.07.04-.09.38-.1.23-.2.12.47-.17l-1.1-2.57Zm-1.99 2.8c-1.17.36-2.3.4-3.2.2-.9-.2-1.48-.6-1.76-1.03l-2.35 1.51a5.47 5.47 0 0 0 3.52 2.26c1.42.3 3.04.22 4.61-.26l-.82-2.67Zm-4.96-.83a9.12 9.12 0 0 1-.85-2.53c-.25-1.1-.41-2.24-.49-2.93l-2.78.3c.09.78.27 2.02.54 3.24.26 1.17.65 2.54 1.23 3.44l2.35-1.52Z" fill="#000"/><path d="M362.86 365.8c-1.36-.3.3-1.37-.48-4.4-.62-2.42-.9-6.87-.95-8.8 1.13 3.59 3.67 10.82 4.76 11.05 1.37.3.78 3.04.48 4.4-.3 1.37.77 3.03.48 4.4-.3 1.37-4.7 1.85-6.06 1.55-1.37-.3-1.07-1.66-2.44-1.96-1.1-.24-3.39.22-4.4.48-6.06 1.55-9.57-2.07-11.23-1-1.67 1.07-8.2-1.78-10.94-2.37-2.73-.59-.78-3.03-1.85-4.7-1.07-1.65 2.26-3.8 5.29-4.57 3.03-.78 1.66-1.07 4.4-.48 2.73.59 4.4-.48 8.5.4 4.1.9 1.07 1.67 3.8 2.26 2.74.6 1.37.3 5.17 2.55 3.81 2.26 6.84 1.48 5.47 1.19Z" fill="#000"/><path d="M361.43 352.6Zm0 0c.06 1.93.33 6.38.95 8.8.78 3.03-.88 4.1.48 4.4 1.37.3-1.66 1.07-5.47-1.19-3.8-2.25-2.43-1.96-5.17-2.55-2.73-.59.3-1.37-3.8-2.25-4.1-.9-5.77.18-8.5-.41-2.74-.6-1.37-.3-4.4.48-3.03.77-6.36 2.92-5.29 4.58 1.07 1.66-.88 4.1 1.85 4.7 2.73.58 9.27 3.43 10.94 2.36 1.66-1.07 5.17 2.55 11.23 1 1.01-.26 3.3-.71 4.4-.48 1.37.3 1.07 1.66 2.44 1.96 1.37.3 5.76-.18 6.06-1.55.3-1.37-.78-3.03-.48-4.4.3-1.36.89-4.1-.48-4.4-1.1-.23-3.63-7.46-4.76-11.05ZM329.32 335.63c.45.1 1.4 1.45 1.55 6.06.18 5.77-3.15 7.91-2.37 10.94.77 3.03 1.07 1.67 2.14 3.33 1.07 1.66-3.32 2.14-2.85 6.54" stroke="#000" stroke-width="2.8"/><path d="M348.07 338.08c.33-1.52-.58-4.28-6.86-3.08m11.51 2.5c1.55-.2 4.87-.23 5.76 1.24m-29.32 24.06c4.46-4.37 13.96-12.99 16.26-12.49 2.88.63 5.76 1.25 6.87 3.09l5.54 9.2" stroke="#000" stroke-width="2.8"/><path d="M349.53 341.44c-.22 1.02-.89 4.1 1.48 6.72" stroke="#000" stroke-width="1.4"/><path d="m344.06 340.26 1.37.3m6.83 1.47 1.37.3M363.53 375.96c1.14 1.3 4.08 7.56 2.5 14.86" stroke="#000" stroke-width="2.8"/><path d="M372.96 409.75c-1.85-1.65-5.94-3.88-7.15-4.67l-.1-.02-7.55 15.54c2.19.48 7.74 1.37 6.95-.05-.8-1.43-2.75-2.16-3.63-2.35 2.2.47 6.91 1.18 8.22.22 1.31-.97-4.28-3.53-7.25-4.7 2.63.57 8.23 1.47 9.54.5 1.3-.96-4.29-3.52-7.25-4.69 3.5.77 10.06 1.87 8.22.22Z" fill="#AA702C" stroke="#000" stroke-width="2.8"/><path d="m361.78 417.1-2.26 3.8M304.53 357.46c-4.1-.89-6.09 1.6-9.15 2.57-6.09 1.95-6.28 21.67-4.9 29.27.58 3.24 4.15 17.62 4.48 19.05M308.27 399.78c3.51 3.63 12.46 7.21 14.72 7.8 3.2.84 4.67 4.14 3.42 7.58M326.23 409.4c2.73.59 11.9 7.15 13.86 8.72m-13.08-5.7c1.82.4 5.62 1.8 6.24 4.22" stroke="#000" stroke-width="2.8"/><path d="M331.49 371.89c-1.15 3.09-2.56 9.18.96 8.8m0 0c1.76-.2 1.73-5.83.4-8.5m-.4 8.5c-1.42 4.1 3.47 10.4 4.28 6.65.3-1.37-1.55-6.07-4.28-6.66Zm25.02-3.18c-3.13 1.23-8.2 3.48-6.95 5.65 1.94 3.4 5.44-1.13 6.95-5.65Z" stroke="#B0B0B0" stroke-width="2.8"/><path d="M350.52 383.16c-2.84-.13-8.67 3-6.95 5.66 1.71 2.66 7.43-1.26 6.95-5.66Z" stroke="#B0B0B0" stroke-width="2.8"/><path d="M336.73 387.34c2.36-1 7.57-1.04 6.84 1.48-1.26 4.34-6.02 2.09-6.84-1.48Z" stroke="#B0B0B0" stroke-width="2.8"/><path d="m337.94 387.6 5.78 1.25c-2.6.85-3.24 1.85-3.89 3.96l4.25-1c1.8 1.87 1.74 2.7-.8 3.68l-3.45-2.68.94 5.01c-1.74 2.12-2.9 1.78-3.86-.83l2.92-4.18-4.73.9c-1.38-1.8-.83-2.52.8-3.67l3.93 2.77c.12-2.23-.15-3.4-1.9-5.21Z" fill="#000"/><path d="M339.83 392.81c.65-2.11 1.3-3.11 3.89-3.96l-5.78-1.25c1.74 1.81 2.01 2.98 1.9 5.21Zm0 0 4.25-1c1.8 1.87 1.74 2.7-.8 3.68l-3.45-2.68Zm0 0-2.92 4.18c.95 2.6 2.12 2.95 3.86.83l-.94-5Zm0 0-4.73.9c-1.38-1.8-.83-2.52.8-3.67l3.93 2.77Z" stroke="#000" stroke-width="2.8" stroke-linejoin="bevel"/><path d="M359.51 335.01c-.11 7.13-.74 5.48.07 12.9.64 5.86.66 10.16 3.28 17.89" stroke="#FFCB8D" stroke-opacity=".46" stroke-width="2.8" style="mix-blend-mode:multiply"/><path d="m345.5 353.45 2.73.6" stroke="#000" stroke-width="1.4"/><circle cx="366.99" cy="399.61" r="2.8" transform="rotate(12.22 367 399.61)" fill="#6E86C4"/><path d="m293.6 408.06 64.26 13.9" stroke="#000" stroke-width="2.8"/></g><g filter="url(#e)"><rect x="6" y="305.6" width="184.66" height="276.99" rx="14.2" transform="rotate(-19.82 6 305.6)" fill="#fff"/><path d="m66.31 431.08 143.66-51.76" stroke="#000" stroke-width="3.55"/><mask id="f" style="mask-type:alpha" maskUnits="userSpaceOnUse" x="32" y="254" width="214" height="301"><path d="m38.24 301.53 122.18-44.02a12.43 12.43 0 0 1 15.9 7.48l63.88 177.27a5.1 5.1 0 0 1-3.07 6.54 8.66 8.66 0 0 0-5.65 9.28l4.3 32.41a6.72 6.72 0 0 0 5.36 5.72c3.13.61 3.5 4.93.53 6.07l-129.13 49.59c-6.66 2.56-14.1-1-16.29-7.8l-55.93-173.6a9.06 9.06 0 0 1 5.55-11.3 12.61 12.61 0 0 0 7.6-16.13l-8.89-24.65a9.39 9.39 0 0 0-6.08-5.8 5.83 5.83 0 0 1-.26-11.06Z" fill="#C4C4C4" stroke="#000" stroke-width="3.55"/></mask><g mask="url(#f)"><rect x="26.45" y="315.22" width="152.7" height="245.03" rx="12.43" transform="rotate(-19.82 26.45 315.22)" stroke="#000" stroke-width="3.55"/></g><path d="m72.42 342.06-14.12 5.09c4.43-5.32 4.47-8.34 3.02-13.76l-7.8 7.87c-6.38-1.58-7.36-3.45-3.23-8.97l11.03 1.1-8.75-9.53c.88-6.9 3.86-7.73 9.41-3.39l-.66 12.91 8.97-8.3c5.4 2.02 5.19 4.31 3.24 8.98l-12.2-.68c2.74 4.96 4.9 7.13 11.1 8.68Z" fill="#000"/><path d="M61.32 333.38c1.45 5.43 1.41 8.45-3.02 13.77l14.12-5.09c-6.19-1.56-8.35-3.72-11.1-8.68Zm0 0-7.8 7.88c-6.38-1.58-7.36-3.45-3.23-8.97l11.03 1.1Zm0 0 .66-12.91c-5.55-4.34-8.53-3.5-9.4 3.4l8.74 9.51Zm0 0 8.97-8.3c5.4 2.02 5.19 4.31 3.24 8.98l-12.2-.68Z" stroke="#000" stroke-width="3.55"/><path d="M47.91 348.51a4.94 4.94 0 0 1 .37.75 3.67 3.67 0 0 1-.32 3.19c-.28.48-.68.92-1.2 1.31a6.76 6.76 0 0 1-6.42.95 5.7 5.7 0 0 1-1.95-1.24 5.32 5.32 0 0 1-1.33-2.08 7.22 7.22 0 0 1-.51-2.95c-1.52.3-2.99.2-4.4-.33a12.1 12.1 0 0 1-3.98-2.6 21.06 21.06 0 0 1-3.43-4.4 34.53 34.53 0 0 1-2.7-5.8 34.34 34.34 0 0 1-1.69-6.56c-.3-2.12-.3-4.07-.01-5.84.29-1.76.9-3.3 1.84-4.59a7.94 7.94 0 0 1 3.9-2.87 8.1 8.1 0 0 1 4.92-.3c1.56.39 3.01 1.17 4.35 2.35a18.8 18.8 0 0 1 3.65 4.54 35.58 35.58 0 0 1 4.31 11.57c.32 1.77.44 3.44.37 5.02-.06 1.57-.32 3-.8 4.31a8.7 8.7 0 0 1-2.08 3.27 5.04 5.04 0 0 0-.73 1.63c-.14.6-.07 1.33.23 2.15l.1.27.24.42.38.53a4 4 0 0 0 .59.55 4.52 4.52 0 0 1 .21-2.92c.2-.43.47-.8.82-1.14.35-.31.77-.56 1.26-.74a3 3 0 0 1 2.1-.09c.71.24 1.35.79 1.91 1.64ZM36.3 330.17a57.59 57.59 0 0 0-2-4.86c-.7-1.5-1.42-2.77-2.18-3.8a7.61 7.61 0 0 0-2.32-2.25c-.79-.46-1.6-.55-2.44-.24a2.7 2.7 0 0 0-1.67 1.73 8.08 8.08 0 0 0-.35 3.21c.07 1.27.31 2.71.71 4.32.4 1.6.92 3.27 1.55 5.03.64 1.76 1.31 3.4 2.03 4.9a24.02 24.02 0 0 0 2.2 3.78 8.61 8.61 0 0 0 2.35 2.25 2.66 2.66 0 0 0 4-1.44c.31-.89.43-1.96.38-3.23-.07-1.29-.3-2.73-.7-4.33-.4-1.61-.93-3.3-1.56-5.07ZM231.72 460.68a5.3 5.3 0 0 1-.37-.75 3.67 3.67 0 0 1 .31-3.19c.3-.48.7-.92 1.2-1.31a6.73 6.73 0 0 1 6.42-.95 5.7 5.7 0 0 1 1.96 1.24 5.3 5.3 0 0 1 1.32 2.08 7.23 7.23 0 0 1 .51 2.95c1.52-.3 3-.2 4.41.33 1.41.55 2.74 1.41 3.98 2.6a21.1 21.1 0 0 1 3.43 4.4 34.57 34.57 0 0 1 2.7 5.8 34.4 34.4 0 0 1 1.68 6.56c.3 2.12.31 4.07.02 5.84-.29 1.76-.9 3.3-1.84 4.59a7.95 7.95 0 0 1-3.9 2.87 8.1 8.1 0 0 1-4.92.3 10.36 10.36 0 0 1-4.35-2.35 18.8 18.8 0 0 1-3.65-4.54 35.58 35.58 0 0 1-4.31-11.57 22.64 22.64 0 0 1-.37-5.02c.05-1.57.32-3 .8-4.31a8.68 8.68 0 0 1 2.07-3.27c.34-.49.58-1.03.73-1.63.15-.6.08-1.33-.22-2.15l-.1-.27a7.07 7.07 0 0 0-.63-.95c-.16-.2-.36-.38-.58-.55a4.53 4.53 0 0 1-.22 2.93c-.2.42-.47.8-.81 1.13-.35.31-.77.56-1.27.74a3 3 0 0 1-2.1.09 3.84 3.84 0 0 1-1.9-1.64Zm11.61 18.34c.63 1.75 1.3 3.37 2 4.86.7 1.5 1.42 2.77 2.17 3.8a7.62 7.62 0 0 0 2.32 2.25c.8.46 1.6.55 2.44.25.8-.3 1.37-.87 1.68-1.74.31-.86.43-1.93.35-3.21-.07-1.27-.31-2.71-.72-4.32a52.4 52.4 0 0 0-1.54-5.03 53.23 53.23 0 0 0-2.03-4.9 24.05 24.05 0 0 0-2.2-3.78 8.64 8.64 0 0 0-2.35-2.25 2.67 2.67 0 0 0-4 1.44c-.31.89-.44 1.96-.38 3.23.07 1.29.3 2.73.7 4.33.4 1.61.92 3.3 1.56 5.07Z" fill="#000"/><path d="m135.56 448.65-38.28-1.46c35.8-29.17 68.91-29.92 81-26.65l-17.41 21.53-.4 12.85c2.83 3.22 9.07 14.02 11.35 31.5 2.27 17.49-5.4 31.6-9.51 36.47-6.48.64-20.33-3.35-23.9-24.43-4.47-26.35-3.05-29.4 2.01-36.31l-4.86-13.5Z" fill="#FFDBB0"/><path d="m140.42 462.15-4.86-13.5-38.28-1.46c35.8-29.17 68.91-29.92 81-26.65l-17.41 21.53-.4 12.85c2.83 3.22 9.07 14.02 11.35 31.5 2.27 17.49-5.4 31.6-9.51 36.47m-21.89-60.74c-5.06 6.9-6.48 9.96-2.01 36.31 3.57 21.08 17.42 25.07 23.9 24.44m-21.89-60.75c2.23-.8 7.29-2.12 9.72-.96m12.17 61.7c-7.63 4.45-2.02 8.36 12.76.5 21.82-11.63 20.64-40.5 15.37-41.14l-10.99-40.98" stroke="#000" stroke-width="3.55" stroke-linejoin="bevel"/><path d="M162.84 520.86c-7.92.44-16.9-6.5-20.59-15.23-2.9-6.88-2.65-13.84-4.15-32.47.46-4.69 2.77-9.62 9.88-9.23" stroke="#FFCB8D" stroke-opacity=".46" stroke-width="3.55" style="mix-blend-mode:multiply"/><path d="M149.03 495.64c-1.02-2.83-3.72-8.73-6.33-9.71m6.96-12.1c-1.92-.11-6.62.46-10.02 3.6" stroke="#000" stroke-width="1.78"/><path d="M157.1 497.97c1.3 1.28 5.35 2.26 11.14-4.01m-20.05 7.22c-.18 1.81-1.78 4.83-6.68 2.4m.56-5.43 2.23-.8m15.59-5.62 2.22-.8" stroke="#000" stroke-width="3.55"/><path d="M189.54 479.74c-10.37-18.4-12.65-43.43-14.9-51.83l-12.03 13.77-1.67 10.65 9.29 19.28 1.34 29.69c-3.72 23-10.67 25.92-8.6 25.18 33.41-12.04 28.13-38.09 26.57-46.74Z" fill="#000" stroke="#000" stroke-width="3.55"/><path d="m193.6 488.85 16.47 11.22-11.15 2.58 2.42 11.03-11.15-1.84 2.42 11.03-11.14-1.84-3.36 9.43-11.42-13.26 26.9-28.35Z" fill="#FFDC22" stroke="#000" stroke-width="3.55" stroke-linejoin="round"/><path d="m97.28 447.18-13.15-22.52 110.8-39.93c.63 22.83-5.26 37.76-15.48 56.54l-3.74-15.63 2.13-4.55c-10.97-3.67-42.43-3.58-80.56 26.1Z" fill="#B02929" stroke="#000" stroke-width="3.55" stroke-linejoin="bevel"/><path d="m144.07 360.55 38.28 1.46c-35.8 29.16-68.91 29.91-81 26.64l17.41-21.53.4-12.85c-2.83-3.22-9.08-14.02-11.35-31.5-2.27-17.48 5.4-31.6 9.5-36.47 6.49-.64 20.34 3.35 23.91 24.43 4.46 26.35 3.05 29.4-2.01 36.31l4.86 13.5Z" fill="#FFDBB0"/><path d="m139.2 347.05 4.87 13.5 38.28 1.46c-35.8 29.16-68.91 29.91-81 26.64l17.41-21.53.4-12.85c-2.83-3.22-9.08-14.02-11.35-31.5-2.27-17.48 5.4-31.6 9.5-36.47m21.9 60.75c5.06-6.91 6.47-9.97 2.01-36.32-3.57-21.08-17.42-25.07-23.9-24.43m21.89 60.75c-2.23.8-7.3 2.11-9.72.95m-12.17-61.7c7.62-4.45 2.02-8.36-12.76-.5-21.82 11.63-20.64 40.5-15.38 41.14l11 40.98" stroke="#000" stroke-width="3.55" stroke-linejoin="bevel"/><path d="M116.8 288.33c7.9-.44 16.9 6.5 20.58 15.23 2.9 6.88 2.64 13.84 4.15 32.47-.46 4.69-2.77 9.62-9.89 9.23" stroke="#FFCB8D" stroke-opacity=".46" stroke-width="3.55" style="mix-blend-mode:multiply"/><path d="M130.6 313.55c1.02 2.83 3.71 8.74 6.33 9.71m-6.96 12.1c1.92.11 6.62-.46 10.02-3.6" stroke="#000" stroke-width="1.78"/><path d="M122.53 311.22c-1.3-1.28-5.35-2.26-11.14 4.01m20.04-7.22c.19-1.81 1.79-4.83 6.69-2.4m-.56 5.43-2.23.8m-15.59 5.62-2.23.8" stroke="#000" stroke-width="3.55"/><path d="M90.09 329.45c10.37 18.4 12.65 43.43 14.9 51.83l12.03-13.77 1.67-10.65-9.3-19.28-1.33-29.69c3.72-23 10.67-25.92 8.6-25.18-33.41 12.04-28.13 38.09-26.57 46.74Z" fill="#000" stroke="#000" stroke-width="3.55"/><path d="m86.03 320.34-16.48-11.22 11.16-2.57-2.42-11.04 11.14 1.84-2.41-11.03 11.14 1.84 3.36-9.43L112.94 292l-26.9 28.35Z" fill="#FFDC22" stroke="#000" stroke-width="3.55" stroke-linejoin="round"/><path d="m182.34 362 13.16 22.53-110.81 39.93c-.62-22.83 5.27-37.76 15.48-56.54l3.75 15.64-2.14 4.54c10.97 3.67 42.44 3.58 80.56-26.1Z" fill="#B02929" stroke="#000" stroke-width="3.55" stroke-linejoin="bevel"/><path d="m221.34 462.03-14.11 5.1c6.8 1.26 8.75 3.57 11.1 8.67l-11.03-1.1c-3.9 5.3-3.47 7.36 3.23 8.98l7.8-7.88-.67 12.91c5.09 4.75 7.9 3.5 9.42-3.39l-8.75-9.52 12.2.67c2.87-5 1.25-6.63-3.23-8.98l-8.97 8.3c-1.04-5.56-.76-8.61 3.01-13.76Z" fill="#000"/><path d="M218.33 475.8c-2.35-5.1-4.3-7.41-11.1-8.68l14.12-5.09c-3.78 5.15-4.06 8.2-3.02 13.77Zm0 0-11.03-1.1c-3.9 5.3-3.47 7.36 3.23 8.98l7.8-7.88Zm0 0 8.75 9.52c-1.51 6.88-4.34 8.14-9.42 3.4l.67-12.92Zm0 0 12.2.67c2.87-5 1.25-6.63-3.23-8.98l-8.97 8.3Z" stroke="#000" stroke-width="3.55"/></g><g filter="url(#g)"><path d="m219.26 151.22 30.6-.28 6.12 253.1-19.87 119.63-20.27-121.15 3.42-251.3ZM219.53 16.02l30.1.02v128.01l-30.1-.01V16.02Z" fill="#C4C4C4" stroke="#000" stroke-width="1.92"/><path d="m235.17 129.11.17.03.18-.03 46.36-8.85 7.08 16.9-7.14 17.04-94.87.02-7.14-17.04 7.09-16.91 48.27 8.84Z" fill="#444" stroke="#000" stroke-width="1.92"/><path d="m249.35 32.18-29.47-9.5-.04-4.38 29.46 8.51.05 5.37Zm-.06 6.12h-29.37l.06-4.85 29.37-.7-.06 5.55Zm-29.32 6.36-.05-5.81 29.44 7.09.06 6.24-29.45-7.52Zm0 13.82 29.35-5.73.25 5.07-29.6 6.55v-5.89Zm-.02 6.45 29.73 3.32.05 5.93-29.96-4.57.18-4.68Zm-.2 26.96.18-4.67 29.72 3.31.06 5.94-29.97-4.58Zm29.47 11.53.04 5.1-28.93.26-.05-5.1 28.94-.26Zm-29.6 9.46 29.66-3.86.27 4.67-29.88 5.12-.05-5.93Zm.1 11.54-.04-5.09 28.94-.26.04 5.09-28.94.26Zm.59-43.02 28.93-.26.05 5.09-28.94.26-.04-5.09Z" fill="#8B5C29" stroke="#000" stroke-width=".48"/><path d="m224.15 141.5 3.9-8.46 14.61-.02 3.91 8.47-3.9 8.47-14.62.02-3.9-8.47Z" fill="#C62222" stroke="#780000" stroke-width="1.91"/><path d="m236.01 518.99-1.41-364.1" stroke="#000" stroke-width="1.91"/><path d="m210.67 9.25 5.08-7.9 37.2-.33 5.36 7.8-5.22 7.9-37.2.33-5.22-7.8Z" fill="#444" stroke="#000" stroke-width="1.91"/><path d="m248.15 403.8-7.4-248.59h8.46l5.99 248.59-18.16 108.25 11.1-108.25Z" fill="#939393"/></g><g filter="url(#h)"><path d="M80.92 173.25c149.42 10.55 216.81 11.14 309.92.35l-29.66 34.31 24.66 32.24c-108.74 10.83-172.1 8.45-302.04 0L115 207.9l-34.08-34.66Z" fill="#C62222"/><path d="m348.47 209.16 20.48 22.96c-103.27 8.33-162.5 7.99-261.2-.2l25.53-22.77 2.25-2.01-2.29-1.97-23.8-20.43c95.21 8.14 154.44 8.64 258.48.14l-19.4 20.72-1.66 1.76 1.6 1.8Z" fill="#C62222" stroke="#FFEF60" stroke-width="5.28"/><path d="M159.8 203.85v18c0 .18-1.17.72-3.52 1.64-2.33.9-3.76 1.35-4.3 1.35-.5 0-1.1-.46-1.79-1.38-.66-.92-1-2.02-1-3.3v-15.38c0-1.15-.43-1.82-1.3-2.02v-.7l3.23-1.83c.47.2.9.52 1.31.96.41.43.61.84.61 1.22l3.98-2.24c.38 0 .94.44 1.66 1.31.75.88 1.12 1.67 1.12 2.37Zm-5.12 18.04c.4 0 .82-.17 1.25-.51v-15.13c0-1.51-.55-2.27-1.64-2.27a2 2 0 0 0-1.25.48v15.06c0 1.58.55 2.37 1.64 2.37Zm18.25-11.09v9.07c0 .8.12 1.35.38 1.67.26.3.65.5 1.19.64v.7l-3.5 1.96c-.47-.2-.9-.5-1.3-.93-.41-.45-.62-.86-.62-1.22l-4 2.15c-.07-.05-.16-.1-.3-.16l-.66-.49c-.3-.25-.57-.52-.8-.8-.64-.7-.97-1.5-.97-2.4v-5.25c0-.34.56-.78 1.67-1.32 1.11-.53 2.22-.97 3.33-1.3l1.7-.55c0-1.22-.32-2.06-.96-2.53-.64-.5-1.88-.74-3.72-.74v-.96c3.31-1.18 5.17-1.76 5.58-1.76.7 0 1.38.45 2.02 1.37.64.92.96 1.87.96 2.85Zm-6.73 9.04a2 2 0 0 0 .48 1.38c.34.34.72.5 1.12.5.4 0 .83-.15 1.28-.47V214c-.53.19-.94.35-1.22.48a3.7 3.7 0 0 0-.83.6c-.55.52-.83 1.4-.83 2.67v2.08Zm11.4-2.02c-.53 0-.98-.4-1.37-1.22a6.93 6.93 0 0 1-.58-2.98v-3.46c0-.4 1.13-1.1 3.37-2.08 2.24-1 3.53-1.5 3.87-1.5.2 0 .37.11.52.35a7.3 7.3 0 0 1 .73 1.25c.2.32.36.58.48.8.28.51.63.77 1.06.77v.64c-.34.15-.79.37-1.34.67a17.1 17.1 0 0 1-2.22 1.12c-.31 0-.67-.52-1.05-1.57-.36-1.04-.7-1.57-1-1.57-.38 0-.57.32-.57.96v3.94c0 .86.2 1.28.57 1.28.1 0 .75-.27 2-.83a9.43 9.43 0 0 1 2.23-.83c.52 0 .96.42 1.35 1.25.4.81.6 1.86.6 3.14v3.62c0 .4-1.22 1.1-3.68 2.11-2.43.98-3.83 1.48-4.2 1.48-.14 0-.3-.13-.44-.39l-.58-1.25c-.23-.55-.47-1.02-.7-1.4-.28-.52-.63-.78-1.06-.78v-.64c.34-.15.8-.37 1.38-.67a16.46 16.46 0 0 1 2.18-1.12c.32 0 .71.63 1.18 1.89.5 1.26.89 1.89 1.19 1.89a.9.9 0 0 0 .6-.26.9.9 0 0 0 .3-.7v-4c0-.97-.27-1.45-.8-1.45-.18 0-.85.26-2.03.77-1.17.51-1.83.77-1.98.77Zm28.19-7.2c.04.14-1.11.69-3.46 1.63 0 .44.15 1.2.45 2.24.3 1.02.68 2.1 1.15 3.23.5 1.14 1.1 2.13 1.83 2.98.72.86 1.45 1.29 2.18 1.29v.96c-1.99 1.26-3.25 1.89-3.78 1.89-.75 0-1.77-1.64-3.05-4.9-1.26-3.27-1.89-5.47-1.89-6.6l-.16.06v6.5c0 .8.09 1.36.26 1.7.17.34.52.51 1.06.51v1l-6.57 2.75-.51-1.02c.47 0 .91-.28 1.34-.84.39-.53.58-1.34.58-2.43v-16.6c0-1.3-.44-2.04-1.31-2.2v-.71l3.23-1.83c.47.2.9.52 1.31.96.41.43.61.83.61 1.19v9.51c.56 0 1.18-.17 1.86-.5.68-.37 1.03-.75 1.03-1.13v-4.16c0-.8-.09-1.36-.26-1.7-.17-.34-.52-.52-1.06-.52v-.99l6.57-2.75.51 1.02c-.47 0-.92.28-1.34.84a4.17 4.17 0 0 0-.58 2.43v6.18Zm13 .18v9.07c0 .8.13 1.35.38 1.67.26.3.66.5 1.19.64v.7l-3.5 1.96c-.46-.2-.9-.5-1.3-.93-.41-.45-.62-.86-.62-1.22l-4 2.15c-.06-.05-.16-.1-.29-.16l-.67-.49c-.3-.25-.57-.52-.8-.8-.64-.7-.96-1.5-.96-2.4v-5.25c0-.34.55-.78 1.66-1.32 1.11-.53 2.22-.97 3.34-1.3l1.7-.55c0-1.22-.33-2.06-.97-2.53-.64-.5-1.88-.74-3.71-.74v-.96c3.3-1.18 5.16-1.76 5.57-1.76.7 0 1.38.45 2.02 1.37.64.92.96 1.87.96 2.85Zm-6.73 9.04a2 2 0 0 0 .48 1.38c.34.34.72.5 1.12.5.4 0 .84-.15 1.28-.47V214c-.53.19-.94.35-1.21.48a3.7 3.7 0 0 0-.83.6c-.56.52-.84 1.4-.84 2.67v2.08Zm8.37-11.34 3.52-1.92c.15.04.32.1.52.19.2.06.49.26.83.6.36.35.54.73.54 1.16.1-.04.61-.37 1.5-1 .93-.63 1.51-.95 1.77-.95.68 0 1.32.44 1.92 1.34.6.9.9 1.72.9 2.47v1.57l-3.3 1.86-.54-.45c0-1.8-.18-2.82-.52-3.08a2.95 2.95 0 0 0-1.73-.41v10.22c0 1.3.44 2.03 1.32 2.2v.71l-3.24 1.83c-.47-.2-.9-.5-1.31-.93-.4-.45-.61-.87-.61-1.25v-10.64c0-.94-.17-1.64-.51-2.11-.33-.47-.68-.7-1.06-.7v-.71Zm17.58-5.26v3.82h1.64l-.33 1.57h-1.3v11.47c0 1.3.43 2.03 1.3 2.2v.71l-3.23 1.83c-.47-.2-.9-.5-1.31-.93-.41-.45-.61-.87-.61-1.25v-14h-1.32l.32-1.35c.65 0 1.41-.43 2.31-1.28a5.09 5.09 0 0 0 1.64-2.79h.9Zm11.05 3.34c.1 0 .37.17.8.5.42.33.85.79 1.28 1.39.43.57.64 1.14.64 1.7v5.38c0 .38-.57.85-1.7 1.4a27.85 27.85 0 0 1-5 1.9c0 1.64.72 2.65 2.15 3.04.7.17 1.55.26 2.53.26v.92a65.64 65.64 0 0 1-5.6 1.77c-.65 0-1.3-.45-1.96-1.35-.66-.92-1-1.99-1-3.2v-10.77c0-.15 1.22-.67 3.66-1.57 2.43-.91 3.83-1.37 4.2-1.37Zm-1.13 5.09c0-.6-.14-1.1-.41-1.5-.28-.43-.63-.65-1.06-.65-.43 0-.9.16-1.4.48v7.4c1.91-.53 2.87-1.68 2.87-3.46v-2.27Zm6.88 10.99V211.8c0-.7-.14-1.32-.44-1.83s-.68-.77-1.12-.77v-.7c.15-.02 1.3-.68 3.49-1.96.15.05.33.11.54.2.22.06.5.26.84.6.36.35.54.74.54 1.19.13-.06.5-.27 1.09-.6 1.58-.9 2.52-1.35 2.82-1.35.68 0 1.32.44 1.92 1.34.6.9.9 1.72.9 2.47v9.7c0 1.18.52 1.87 1.57 2.09v.7l-3.5 1.96c-.46-.2-.9-.5-1.3-.93-.41-.45-.62-.87-.62-1.25v-9.3c0-1.19-.14-2.1-.41-2.72a1.4 1.4 0 0 0-1.41-.96l-1.06.2v10.22c0 1.3.44 2.03 1.31 2.2v.71l-3.23 1.83c-.47-.2-.91-.5-1.32-.93-.4-.45-.6-.87-.6-1.25Zm15.24-4.84c-.53 0-.99-.4-1.37-1.22a6.92 6.92 0 0 1-.58-2.98v-3.46c0-.4 1.12-1.1 3.36-2.08 2.25-1 3.54-1.5 3.88-1.5.2 0 .36.11.51.35a7.35 7.35 0 0 1 .74 1.25l.48.8c.28.51.63.77 1.06.77v.64c-.34.15-.8.37-1.35.67-1.36.75-2.1 1.12-2.2 1.12-.33 0-.68-.52-1.07-1.57-.36-1.04-.69-1.57-.99-1.57-.38 0-.58.32-.58.96v3.94c0 .86.2 1.28.58 1.28.09 0 .75-.27 1.99-.83a9.43 9.43 0 0 1 2.24-.83c.51 0 .96.42 1.35 1.25.4.81.6 1.86.6 3.14v3.62c0 .4-1.22 1.1-3.68 2.11-2.44.98-3.83 1.48-4.2 1.48-.15 0-.3-.13-.45-.39l-.57-1.25c-.24-.55-.47-1.02-.7-1.4-.29-.52-.64-.78-1.06-.78v-.64c.34-.15.8-.37 1.37-.67a16.5 16.5 0 0 1 2.18-1.12c.32 0 .72.63 1.19 1.89.49 1.26.88 1.89 1.18 1.89a.9.9 0 0 0 .61-.26.9.9 0 0 0 .29-.7v-4c0-.97-.27-1.45-.8-1.45-.17 0-.85.26-2.02.77a11.7 11.7 0 0 1-1.99.77Zm16.64-8.26c-.4 0-.82.17-1.25.5v12.73c.56 0 1.17-.19 1.86-.55.68-.36 1.02-.75 1.02-1.15v-9.16c0-1.59-.54-2.38-1.63-2.38Zm-5.13 18.8v-16.85c0-.5-.13-.97-.41-1.44a1.44 1.44 0 0 0-1.12-.8v-.7c.15-.03 1.3-.68 3.49-1.96.49.21.93.53 1.31.96.4.4.61.79.61 1.15 2.29-1.4 3.62-2.11 4-2.11.15 0 .43.17.84.51.42.32.84.8 1.25 1.44.42.62.64 1.26.64 1.92v11.4c0 .16-.95.6-2.85 1.35a45.51 45.51 0 0 1-3.91 1.38v1.19c0 1.3.44 2.04 1.31 2.2v.71l-3.23 1.83c-.47-.2-.91-.51-1.32-.96-.4-.43-.6-.84-.6-1.22Zm17.61-19.6v11.34c0 1.3.44 2.03 1.32 2.2v.71l-3.24 1.83c-.47-.2-.9-.5-1.31-.93-.4-.45-.61-.87-.61-1.25v-11.34c0-1.3-.44-2.04-1.31-2.21v-.7l3.23-1.83c.47.19.9.5 1.31.96.41.42.61.83.61 1.21Zm-4.32-6.19v-1.95c0-.07.44-.26 1.31-.58a9.2 9.2 0 0 1 1.54-.51c.15 0 .35.18.6.54.29.37.42.74.42 1.12v2.34c0 .07-.42.27-1.28.61-.85.32-1.38.48-1.57.48-.19 0-.41-.18-.67-.54a2.86 2.86 0 0 1-.35-1.5Zm15.37 4a6.28 6.28 0 0 1 2.08 1.89c.43.58.64 1.15.64 1.7v5.39c0 .38-.57.85-1.7 1.4a27.78 27.78 0 0 1-5 1.9c0 1.64.72 2.65 2.15 3.04.7.17 1.55.26 2.53.26v.92a65.51 65.51 0 0 1-5.6 1.77c-.65 0-1.3-.45-1.96-1.35-.66-.92-1-1.99-1-3.2v-10.77c0-.15 1.22-.67 3.66-1.57 2.43-.91 3.83-1.37 4.2-1.37Zm-1.13 5.1c0-.6-.13-1.1-.41-1.5-.28-.43-.63-.65-1.06-.65-.43 0-.9.16-1.4.48v7.4c1.91-.53 2.88-1.68 2.88-3.46v-2.27Zm10.73-9.3v17.72c0 1.3.44 2.04 1.31 2.22v.7l-3.23 1.83c-.47-.2-.9-.5-1.31-.93-.41-.45-.61-.87-.61-1.25v-17.72c0-1.3-.44-2.04-1.32-2.2v-.71l3.24-1.83c.47.2.9.51 1.31.96.4.43.61.84.61 1.22Z" fill="#fff"/></g><g filter="url(#i)"><mask id="j" maskUnits="userSpaceOnUse" x="53.86" y="77.9" width="363" height="98" fill="#000"><path fill="#fff" d="M53.86 77.9h363v98h-363z"/><path d="M76.9 165.44c-2.72-.01-4.92 0-6.61.03-1.66.05-2.97.11-3.94.17-1.13.1-1.96.17-2.5.23.26-1.75.49-3.61.68-5.58.2-2 .37-4.04.53-6.1.17-2.06.3-4.11.4-6.15.1-2.03.18-3.97.25-5.81.13-4.35.22-8.7.27-13.05-.02-4.35-.1-8.56-.2-12.62a371.9 371.9 0 0 0-.54-10.84c-.12-1.79-.27-3.5-.46-5.12-.15-1.63-.33-3.1-.55-4.41h3.05c1.7 0 3.15 0 4.37-.03 1.22-.06 2.24-.12 3.05-.18.94-.06 1.74-.14 2.4-.23a907.7 907.7 0 0 0-.46 9.43 1142.92 1142.92 0 0 0-.42 16.9 468.1 468.1 0 0 0-.06 5.95c1 .07 1.97.1 2.91.1l2.77.01c1.97 0 3.7-.02 5.2-.08 1.54-.09 2.8-.18 3.81-.27l-.04-2.02a263.03 263.03 0 0 0-.2-10.46 254.54 254.54 0 0 0-.72-13.38 68.52 68.52 0 0 0-.7-5.68l3.01.01c1.6 0 2.97 0 4.13-.03 1.19-.06 2.18-.12 2.96-.18.9-.06 1.67-.14 2.3-.23l-.3 6.2-.2 6.14-.11 5.86-.11 5.35a711.2 711.2 0 0 0 .02 27.55l.08 5.4.17 5.44.27 5.26c-2.63-.01-4.76.01-6.38.07-1.63.03-2.9.07-3.8.13l-2.4.23c.29-1.9.53-3.94.72-6.1.2-2.16.36-4.34.49-6.57.16-2.22.28-4.4.34-6.56.1-2.16.19-4.18.25-6.06a86.79 86.79 0 0 0-11.82-.36c-1.03.03-1.92.07-2.68.14a423.33 423.33 0 0 0 .16 12.85l.26 7.42c.09 2.5.2 4.91.36 7.23ZM134.27 166.62c-3.1 0-5.77-.69-8.02-2.04a16.46 16.46 0 0 1-5.52-5.64 27.54 27.54 0 0 1-3.17-8.6 53.36 53.36 0 0 1-1-10.84c.01-4.54.43-8.7 1.25-12.48a33.73 33.73 0 0 1 3.6-9.75 18.55 18.55 0 0 1 5.88-6.32 14.43 14.43 0 0 1 8.08-2.28c3.06.01 5.7.66 7.92 1.95a15.63 15.63 0 0 1 5.48 5.4 25.17 25.17 0 0 1 3.21 8.32 51.07 51.07 0 0 1 1 10.66c0 2-.13 4.17-.38 6.52-.23 2.35-.63 4.7-1.2 7.04a41.98 41.98 0 0 1-2.17 6.8 23.48 23.48 0 0 1-3.44 5.76 15.7 15.7 0 0 1-4.94 4.02c-1.88 1-4.07 1.49-6.58 1.48Zm7.42-35.13c0-2.37-.1-4.5-.31-6.38-.22-1.9-.57-3.52-1.07-4.83a7.33 7.33 0 0 0-1.82-3.01 3.57 3.57 0 0 0-2.63-1.09c-1.12 0-2.17.59-3.15 1.78a16.46 16.46 0 0 0-2.59 5.15c-.73 2.25-1.31 5-1.76 8.26a88.1 88.1 0 0 0-.64 10.93c0 2.63.11 4.99.36 7.08.24 2.07.61 3.84 1.11 5.31a9.5 9.5 0 0 0 1.82 3.34 3.6 3.6 0 0 0 2.63 1.13c1 0 1.89-.4 2.67-1.21.79-.84 1.46-1.97 2.03-3.38.6-1.4 1.1-3.03 1.52-4.87.44-1.88.79-3.83 1.04-5.86a102.03 102.03 0 0 0 .79-12.34ZM199.8 97.44c0 1.28-.19 2.49-.56 3.61a9.14 9.14 0 0 1-1.47 2.86 6.9 6.9 0 0 1-2.16 1.87c-.82.44-1.7.66-2.68.65-.97 0-1.88-.16-2.72-.47a6.82 6.82 0 0 1-3.65-3.25 5.58 5.58 0 0 1-.51-2.35v-.6a15.79 15.79 0 0 1 .76-3.14 7.9 7.9 0 0 1 1.09-1.93c-1.54 0-2.74.37-3.62 1.11a6.8 6.8 0 0 0-1.98 3.1 19.99 19.99 0 0 0-.81 4.6c-.1 1.75-.15 3.62-.16 5.62v3.43a113.75 113.75 0 0 0 11.4-.53l-.6 11.16a76.81 76.81 0 0 0-5.39-.48c-1.81-.1-3.63-.18-5.44-.25-.01 3.6 0 7.18.02 10.75l.06 10.23c.03 3.25.03 6.29.03 9.1.02 2.79.03 5.21.02 7.28.03 2.03.04 3.62.04 4.78v1.78l-10.7.54c.15-2.25.27-4.75.34-7.5a392.01 392.01 0 0 0 .09-15.82c-.03-2.41-.07-4.8-.12-7.18l-.17-7.09c-.06-2.31-.1-4.55-.12-6.71-.97.06-1.93.14-2.87.23-.9.06-1.84.15-2.81.27l-.44-11.17 2.95.3 3 .19.02-5.26c0-3.03.31-5.79.91-8.26.64-2.5 1.61-4.64 2.93-6.42a13.4 13.4 0 0 1 5.17-4.11c2.13-1 4.7-1.5 7.7-1.48 2.07 0 3.88.32 5.44.95a11.4 11.4 0 0 1 3.9 2.5c1.02 1 1.8 2.13 2.33 3.38s.8 2.5.79 3.71ZM237.4 121.94a7.73 7.73 0 0 1-2.74 6.1 7.5 7.5 0 0 1-4.41 1.77 6.94 6.94 0 0 1-4.27-1.42 7.03 7.03 0 0 1-1.77-2.12 7.02 7.02 0 0 1-.32-5.63c.22-.62.55-1.26 1-1.92a6.58 6.58 0 0 1 1.97-1.83 8.47 8.47 0 0 0-3.19-2.87 5.16 5.16 0 0 0-1.45-.47 6.1 6.1 0 0 0-4.65 2.15 7.25 7.25 0 0 0-1.7 4.83c0 1.15.07 2.2.22 3.14.16.94.51 1.9 1.07 2.87.57.97 1.4 2.02 2.53 3.15a49.64 49.64 0 0 0 4.59 3.95 53.34 53.34 0 0 1 5.06 4.43 27.85 27.85 0 0 1 3.55 4.18 16.9 16.9 0 0 1 2.1 4.18c.47 1.38.7 2.82.7 4.32 0 1-.12 2.1-.34 3.29-.2 1.15-.54 2.34-1.05 3.56a15.92 15.92 0 0 1-1.93 3.47 13.23 13.23 0 0 1-2.96 2.95 13.45 13.45 0 0 1-4.14 2.05c-1.56.53-3.36.79-5.4.78a20.2 20.2 0 0 1-7.83-1.38 18.5 18.5 0 0 1-5.34-3.3 13.53 13.53 0 0 1-3.04-4.14 9.76 9.76 0 0 1-.93-3.8c0-1.16.15-2.24.43-3.24a6.21 6.21 0 0 1 3.67-4.35 8.37 8.37 0 0 1 3.48-.65c1.13 0 2.14.18 3.05.53.93.34 1.73.86 2.39 1.55a6.63 6.63 0 0 1 1.59 2.45c.37.97.55 2.06.55 3.28a6.4 6.4 0 0 1-2.69 4.78c.44.35.86.61 1.27.8a7.6 7.6 0 0 0 2.3.48c.4 0 .87-.1 1.4-.33.57-.25 1.1-.62 1.6-1.12a5.94 5.94 0 0 0 1.8-4.4c0-1-.1-1.91-.28-2.73a7.22 7.22 0 0 0-1.07-2.58c-.53-.91-1.3-1.9-2.34-2.96a78.8 78.8 0 0 0-4.07-3.86 67.66 67.66 0 0 1-4.5-4.38 27.12 27.12 0 0 1-3.31-4.47 21.07 21.07 0 0 1-2-4.84c-.47-1.69-.7-3.55-.7-5.58a14.99 14.99 0 0 1 4.63-10.78 15.84 15.84 0 0 1 5.36-3.46 18.1 18.1 0 0 1 7.04-1.3c2.63.01 4.9.43 6.8 1.24a12.94 12.94 0 0 1 7.4 8c.59 1.79.88 3.66.87 5.63ZM268.1 92.98c-.25 3.22-.47 6.4-.63 9.52l-.5 9.34c1.38-.06 2.74-.1 4.09-.13 1.34-.06 2.72-.13 4.13-.22l.15 12.01c-1.5-.25-2.98-.46-4.45-.62-1.47-.16-2.91-.29-4.32-.39a338.1 338.1 0 0 0-.23 15.77c-.01 4.75.02 9.48.1 14.17.12 4.7.29 9.42.53 14.17l-12.25-.22c.43-7.35.78-14.68 1.04-22 .3-7.35.51-14.75.63-22.2-1.32.06-2.63.14-3.94.23-1.32.06-2.66.13-4.04.22l.4-11.12c1.29.1 2.55.18 3.8.24 1.29.04 2.55.09 3.8.16.01-3.13-.01-6.24-.06-9.34l-.17-9.44 11.92-.15ZM310.4 166.34c-.18-.97-.35-1.95-.5-2.95-.16-1-.28-2.04-.37-3.1a15.28 15.28 0 0 1-5.18 4.87 12.9 12.9 0 0 1-10.33 1.1 8.9 8.9 0 0 1-3.51-2.03 11.22 11.22 0 0 1-2.57-3.95c-.65-1.7-.98-3.82-.97-6.39 0-2.12.32-3.97.95-5.53a14.8 14.8 0 0 1 2.46-4.17 17.6 17.6 0 0 1 3.38-3.09c1.26-.87 2.5-1.65 3.72-2.34a238.9 238.9 0 0 1 3.57-1.91c1.13-.6 2.05-1.18 2.77-1.78a23.6 23.6 0 0 0 3.58-3.46 18.14 18.14 0 0 0 2.5-3.89 29.54 29.54 0 0 0-.7-5.3c-.3-1.41-.72-2.52-1.25-3.34a4.17 4.17 0 0 0-1.97-1.74 6.12 6.12 0 0 0-2.58-.52c-1.44 0-2.66.3-3.66.93a8.68 8.68 0 0 0-2.4 2.24 7.17 7.17 0 0 1 2.76 3.25c.25.6.39 1.2.42 1.83 0 2.13-.62 3.75-1.85 4.88a6.41 6.41 0 0 1-4.6 1.67c-.97 0-1.86-.22-2.67-.66a7.37 7.37 0 0 1-2.16-1.93 9.69 9.69 0 0 1-1.4-2.91 12.46 12.46 0 0 1-.5-3.67 11.71 11.71 0 0 1 3.78-8.25 15.04 15.04 0 0 1 5.07-3.13 19.83 19.83 0 0 1 7.51-1.24 14.78 14.78 0 0 1 12.7 6.32 18.46 18.46 0 0 1 2.9 6.53c.61 2.47.92 5.02.91 7.65 0 1.97-.02 4.12-.06 6.43a544.16 544.16 0 0 0-.04 13.23c.03 2.04.09 4 .17 5.92.1 1.88.21 3.66.37 5.35.15 1.66.35 3.14.6 4.46l-10.85.63Zm-.63-27.5a21 21 0 0 1-3.53 3.37c-.94.66-1.96 1.4-3.05 2.2a34.26 34.26 0 0 0-3.01 2.57c-.91.9-1.68 1.86-2.31 2.86a6.22 6.22 0 0 0 .12 6.62c.69 1 1.66 1.5 2.9 1.5 1.17.01 2.2-.3 3.1-.92.92-.63 1.72-1.4 2.4-2.3.73-.93 1.33-1.93 1.8-3 .5-1.06.9-2.03 1.18-2.9l.4-10ZM358.3 166.47c-.2-.97-.36-1.95-.51-2.95-.16-1-.28-2.04-.37-3.1a15.3 15.3 0 0 1-5.18 4.87 12.9 12.9 0 0 1-10.32 1.1 8.9 8.9 0 0 1-3.52-2.03 11.22 11.22 0 0 1-2.57-3.95c-.65-1.7-.97-3.82-.97-6.39 0-2.13.33-3.97.96-5.53.63-1.6 1.44-2.99 2.45-4.17 1-1.19 2.13-2.22 3.38-3.09 1.26-.87 2.5-1.65 3.72-2.34a234.3 234.3 0 0 1 3.57-1.91c1.13-.6 2.05-1.18 2.77-1.78a23.46 23.46 0 0 0 3.58-3.46 18.18 18.18 0 0 0 2.5-3.89 29.56 29.56 0 0 0-.7-5.3c-.3-1.41-.72-2.52-1.25-3.34a4.17 4.17 0 0 0-1.97-1.74 6.13 6.13 0 0 0-2.58-.52c-1.44 0-2.66.3-3.66.93a8.7 8.7 0 0 0-2.4 2.24 7.17 7.17 0 0 1 2.76 3.25c.25.6.39 1.2.42 1.83 0 2.13-.62 3.75-1.85 4.87a6.41 6.41 0 0 1-4.6 1.68c-.97 0-1.86-.22-2.67-.66a7.37 7.37 0 0 1-2.16-1.93 9.71 9.71 0 0 1-1.4-2.92 12.5 12.5 0 0 1-.5-3.66 11.72 11.72 0 0 1 3.78-8.25 15.05 15.05 0 0 1 5.07-3.13 19.83 19.83 0 0 1 7.51-1.24 14.78 14.78 0 0 1 12.7 6.32 18.5 18.5 0 0 1 2.9 6.53c.62 2.47.92 5.02.91 7.65 0 1.97-.02 4.11-.06 6.43a544.33 544.33 0 0 0-.04 13.23c.03 2.04.09 4 .18 5.92.08 1.87.2 3.66.36 5.35.15 1.66.35 3.14.6 4.46l-10.85.62Zm-.64-27.5a20.96 20.96 0 0 1-3.53 3.37c-.94.66-1.95 1.39-3.05 2.2a34.1 34.1 0 0 0-3.01 2.57c-.91.9-1.68 1.86-2.3 2.86a6.22 6.22 0 0 0 .12 6.62c.68 1 1.65 1.5 2.9 1.5 1.16 0 2.19-.3 3.1-.93.9-.62 1.7-1.38 2.4-2.29.72-.93 1.32-1.93 1.79-3 .5-1.06.9-2.03 1.18-2.9l.4-10ZM400.9 93.34c-.27 3.22-.48 6.4-.64 9.52l-.5 9.34c1.38-.06 2.74-.1 4.08-.13 1.35-.06 2.73-.14 4.13-.23l.16 12.02c-1.5-.26-2.99-.46-4.46-.63-1.47-.16-2.9-.28-4.31-.38a338.04 338.04 0 0 0-.23 15.77c-.02 4.75.02 9.47.1 14.17.11 4.69.29 9.42.52 14.17l-12.24-.22c.42-7.35.77-14.69 1.04-22 .3-7.36.51-14.75.62-22.2-1.31.06-2.62.13-3.94.22-1.31.06-2.66.14-4.03.23l.4-11.12a167 167 0 0 0 3.8.24c1.28.04 2.55.09 3.8.15.01-3.13-.01-6.24-.07-9.34l-.16-9.43 11.92-.15Z"/></mask><path d="M76.9 165.44c-2.72-.01-4.92 0-6.61.03-1.66.05-2.97.11-3.94.17-1.13.1-1.96.17-2.5.23.26-1.75.49-3.61.68-5.58.2-2 .37-4.04.53-6.1.17-2.06.3-4.11.4-6.15.1-2.03.18-3.97.25-5.81.13-4.35.22-8.7.27-13.05-.02-4.35-.1-8.56-.2-12.62a371.9 371.9 0 0 0-.54-10.84c-.12-1.79-.27-3.5-.46-5.12-.15-1.63-.33-3.1-.55-4.41h3.05c1.7 0 3.15 0 4.37-.03 1.22-.06 2.24-.12 3.05-.18.94-.06 1.74-.14 2.4-.23a907.7 907.7 0 0 0-.46 9.43 1142.92 1142.92 0 0 0-.42 16.9 468.1 468.1 0 0 0-.06 5.95c1 .07 1.97.1 2.91.1l2.77.01c1.97 0 3.7-.02 5.2-.08 1.54-.09 2.8-.18 3.81-.27l-.04-2.02a263.03 263.03 0 0 0-.2-10.46 254.54 254.54 0 0 0-.72-13.38 68.52 68.52 0 0 0-.7-5.68l3.01.01c1.6 0 2.97 0 4.13-.03 1.19-.06 2.18-.12 2.96-.18.9-.06 1.67-.14 2.3-.23l-.3 6.2-.2 6.14-.11 5.86-.11 5.35a711.2 711.2 0 0 0 .02 27.55l.08 5.4.17 5.44.27 5.26c-2.63-.01-4.76.01-6.38.07-1.63.03-2.9.07-3.8.13l-2.4.23c.29-1.9.53-3.94.72-6.1.2-2.16.36-4.34.49-6.57.16-2.22.28-4.4.34-6.56.1-2.16.19-4.18.25-6.06a86.79 86.79 0 0 0-11.82-.36c-1.03.03-1.92.07-2.68.14a423.33 423.33 0 0 0 .16 12.85l.26 7.42c.09 2.5.2 4.91.36 7.23ZM134.27 166.62c-3.1 0-5.77-.69-8.02-2.04a16.46 16.46 0 0 1-5.52-5.64 27.54 27.54 0 0 1-3.17-8.6 53.36 53.36 0 0 1-1-10.84c.01-4.54.43-8.7 1.25-12.48a33.73 33.73 0 0 1 3.6-9.75 18.55 18.55 0 0 1 5.88-6.32 14.43 14.43 0 0 1 8.08-2.28c3.06.01 5.7.66 7.92 1.95a15.63 15.63 0 0 1 5.48 5.4 25.17 25.17 0 0 1 3.21 8.32 51.07 51.07 0 0 1 1 10.66c0 2-.13 4.17-.38 6.52-.23 2.35-.63 4.7-1.2 7.04a41.98 41.98 0 0 1-2.17 6.8 23.48 23.48 0 0 1-3.44 5.76 15.7 15.7 0 0 1-4.94 4.02c-1.88 1-4.07 1.49-6.58 1.48Zm7.42-35.13c0-2.37-.1-4.5-.31-6.38-.22-1.9-.57-3.52-1.07-4.83a7.33 7.33 0 0 0-1.82-3.01 3.57 3.57 0 0 0-2.63-1.09c-1.12 0-2.17.59-3.15 1.78a16.46 16.46 0 0 0-2.59 5.15c-.73 2.25-1.31 5-1.76 8.26a88.1 88.1 0 0 0-.64 10.93c0 2.63.11 4.99.36 7.08.24 2.07.61 3.84 1.11 5.31a9.5 9.5 0 0 0 1.82 3.34 3.6 3.6 0 0 0 2.63 1.13c1 0 1.89-.4 2.67-1.21.79-.84 1.46-1.97 2.03-3.38.6-1.4 1.1-3.03 1.52-4.87.44-1.88.79-3.83 1.04-5.86a102.03 102.03 0 0 0 .79-12.34ZM199.8 97.44c0 1.28-.19 2.49-.56 3.61a9.14 9.14 0 0 1-1.47 2.86 6.9 6.9 0 0 1-2.16 1.87c-.82.44-1.7.66-2.68.65-.97 0-1.88-.16-2.72-.47a6.82 6.82 0 0 1-3.65-3.25 5.58 5.58 0 0 1-.51-2.35v-.6a15.79 15.79 0 0 1 .76-3.14 7.9 7.9 0 0 1 1.09-1.93c-1.54 0-2.74.37-3.62 1.11a6.8 6.8 0 0 0-1.98 3.1 19.99 19.99 0 0 0-.81 4.6c-.1 1.75-.15 3.62-.16 5.62v3.43a113.75 113.75 0 0 0 11.4-.53l-.6 11.16a76.81 76.81 0 0 0-5.39-.48c-1.81-.1-3.63-.18-5.44-.25-.01 3.6 0 7.18.02 10.75l.06 10.23c.03 3.25.03 6.29.03 9.1.02 2.79.03 5.21.02 7.28.03 2.03.04 3.62.04 4.78v1.78l-10.7.54c.15-2.25.27-4.75.34-7.5a392.01 392.01 0 0 0 .09-15.82c-.03-2.41-.07-4.8-.12-7.18l-.17-7.09c-.06-2.31-.1-4.55-.12-6.71-.97.06-1.93.14-2.87.23-.9.06-1.84.15-2.81.27l-.44-11.17 2.95.3 3 .19.02-5.26c0-3.03.31-5.79.91-8.26.64-2.5 1.61-4.64 2.93-6.42a13.4 13.4 0 0 1 5.17-4.11c2.13-1 4.7-1.5 7.7-1.48 2.07 0 3.88.32 5.44.95a11.4 11.4 0 0 1 3.9 2.5c1.02 1 1.8 2.13 2.33 3.38s.8 2.5.79 3.71ZM237.4 121.94a7.73 7.73 0 0 1-2.74 6.1 7.5 7.5 0 0 1-4.41 1.77 6.94 6.94 0 0 1-4.27-1.42 7.03 7.03 0 0 1-1.77-2.12 7.02 7.02 0 0 1-.32-5.63c.22-.62.55-1.26 1-1.92a6.58 6.58 0 0 1 1.97-1.83 8.47 8.47 0 0 0-3.19-2.87 5.16 5.16 0 0 0-1.45-.47 6.1 6.1 0 0 0-4.65 2.15 7.25 7.25 0 0 0-1.7 4.83c0 1.15.07 2.2.22 3.14.16.94.51 1.9 1.07 2.87.57.97 1.4 2.02 2.53 3.15a49.64 49.64 0 0 0 4.59 3.95 53.34 53.34 0 0 1 5.06 4.43 27.85 27.85 0 0 1 3.55 4.18 16.9 16.9 0 0 1 2.1 4.18c.47 1.38.7 2.82.7 4.32 0 1-.12 2.1-.34 3.29-.2 1.15-.54 2.34-1.05 3.56a15.92 15.92 0 0 1-1.93 3.47 13.23 13.23 0 0 1-2.96 2.95 13.45 13.45 0 0 1-4.14 2.05c-1.56.53-3.36.79-5.4.78a20.2 20.2 0 0 1-7.83-1.38 18.5 18.5 0 0 1-5.34-3.3 13.53 13.53 0 0 1-3.04-4.14 9.76 9.76 0 0 1-.93-3.8c0-1.16.15-2.24.43-3.24a6.21 6.21 0 0 1 3.67-4.35 8.37 8.37 0 0 1 3.48-.65c1.13 0 2.14.18 3.05.53.93.34 1.73.86 2.39 1.55a6.63 6.63 0 0 1 1.59 2.45c.37.97.55 2.06.55 3.28a6.4 6.4 0 0 1-2.69 4.78c.44.35.86.61 1.27.8a7.6 7.6 0 0 0 2.3.48c.4 0 .87-.1 1.4-.33.57-.25 1.1-.62 1.6-1.12a5.94 5.94 0 0 0 1.8-4.4c0-1-.1-1.91-.28-2.73a7.22 7.22 0 0 0-1.07-2.58c-.53-.91-1.3-1.9-2.34-2.96a78.8 78.8 0 0 0-4.07-3.86 67.66 67.66 0 0 1-4.5-4.38 27.12 27.12 0 0 1-3.31-4.47 21.07 21.07 0 0 1-2-4.84c-.47-1.69-.7-3.55-.7-5.58a14.99 14.99 0 0 1 4.63-10.78 15.84 15.84 0 0 1 5.36-3.46 18.1 18.1 0 0 1 7.04-1.3c2.63.01 4.9.43 6.8 1.24a12.94 12.94 0 0 1 7.4 8c.59 1.79.88 3.66.87 5.63ZM268.1 92.98c-.25 3.22-.47 6.4-.63 9.52l-.5 9.34c1.38-.06 2.74-.1 4.09-.13 1.34-.06 2.72-.13 4.13-.22l.15 12.01c-1.5-.25-2.98-.46-4.45-.62-1.47-.16-2.91-.29-4.32-.39a338.1 338.1 0 0 0-.23 15.77c-.01 4.75.02 9.48.1 14.17.12 4.7.29 9.42.53 14.17l-12.25-.22c.43-7.35.78-14.68 1.04-22 .3-7.35.51-14.75.63-22.2-1.32.06-2.63.14-3.94.23-1.32.06-2.66.13-4.04.22l.4-11.12c1.29.1 2.55.18 3.8.24 1.29.04 2.55.09 3.8.16.01-3.13-.01-6.24-.06-9.34l-.17-9.44 11.92-.15ZM310.4 166.34c-.18-.97-.35-1.95-.5-2.95-.16-1-.28-2.04-.37-3.1a15.28 15.28 0 0 1-5.18 4.87 12.9 12.9 0 0 1-10.33 1.1 8.9 8.9 0 0 1-3.51-2.03 11.22 11.22 0 0 1-2.57-3.95c-.65-1.7-.98-3.82-.97-6.39 0-2.12.32-3.97.95-5.53a14.8 14.8 0 0 1 2.46-4.17 17.6 17.6 0 0 1 3.38-3.09c1.26-.87 2.5-1.65 3.72-2.34a238.9 238.9 0 0 1 3.57-1.91c1.13-.6 2.05-1.18 2.77-1.78a23.6 23.6 0 0 0 3.58-3.46 18.14 18.14 0 0 0 2.5-3.89 29.54 29.54 0 0 0-.7-5.3c-.3-1.41-.72-2.52-1.25-3.34a4.17 4.17 0 0 0-1.97-1.74 6.12 6.12 0 0 0-2.58-.52c-1.44 0-2.66.3-3.66.93a8.68 8.68 0 0 0-2.4 2.24 7.17 7.17 0 0 1 2.76 3.25c.25.6.39 1.2.42 1.83 0 2.13-.62 3.75-1.85 4.88a6.41 6.41 0 0 1-4.6 1.67c-.97 0-1.86-.22-2.67-.66a7.37 7.37 0 0 1-2.16-1.93 9.69 9.69 0 0 1-1.4-2.91 12.46 12.46 0 0 1-.5-3.67 11.71 11.71 0 0 1 3.78-8.25 15.04 15.04 0 0 1 5.07-3.13 19.83 19.83 0 0 1 7.51-1.24 14.78 14.78 0 0 1 12.7 6.32 18.46 18.46 0 0 1 2.9 6.53c.61 2.47.92 5.02.91 7.65 0 1.97-.02 4.12-.06 6.43a544.16 544.16 0 0 0-.04 13.23c.03 2.04.09 4 .17 5.92.1 1.88.21 3.66.37 5.35.15 1.66.35 3.14.6 4.46l-10.85.63Zm-.63-27.5a21 21 0 0 1-3.53 3.37c-.94.66-1.96 1.4-3.05 2.2a34.26 34.26 0 0 0-3.01 2.57c-.91.9-1.68 1.86-2.31 2.86a6.22 6.22 0 0 0 .12 6.62c.69 1 1.66 1.5 2.9 1.5 1.17.01 2.2-.3 3.1-.92.92-.63 1.72-1.4 2.4-2.3.73-.93 1.33-1.93 1.8-3 .5-1.06.9-2.03 1.18-2.9l.4-10ZM358.3 166.47c-.2-.97-.36-1.95-.51-2.95-.16-1-.28-2.04-.37-3.1a15.3 15.3 0 0 1-5.18 4.87 12.9 12.9 0 0 1-10.32 1.1 8.9 8.9 0 0 1-3.52-2.03 11.22 11.22 0 0 1-2.57-3.95c-.65-1.7-.97-3.82-.97-6.39 0-2.13.33-3.97.96-5.53.63-1.6 1.44-2.99 2.45-4.17 1-1.19 2.13-2.22 3.38-3.09 1.26-.87 2.5-1.65 3.72-2.34a234.3 234.3 0 0 1 3.57-1.91c1.13-.6 2.05-1.18 2.77-1.78a23.46 23.46 0 0 0 3.58-3.46 18.18 18.18 0 0 0 2.5-3.89 29.56 29.56 0 0 0-.7-5.3c-.3-1.41-.72-2.52-1.25-3.34a4.17 4.17 0 0 0-1.97-1.74 6.13 6.13 0 0 0-2.58-.52c-1.44 0-2.66.3-3.66.93a8.7 8.7 0 0 0-2.4 2.24 7.17 7.17 0 0 1 2.76 3.25c.25.6.39 1.2.42 1.83 0 2.13-.62 3.75-1.85 4.87a6.41 6.41 0 0 1-4.6 1.68c-.97 0-1.86-.22-2.67-.66a7.37 7.37 0 0 1-2.16-1.93 9.71 9.71 0 0 1-1.4-2.92 12.5 12.5 0 0 1-.5-3.66 11.72 11.72 0 0 1 3.78-8.25 15.05 15.05 0 0 1 5.07-3.13 19.83 19.83 0 0 1 7.51-1.24 14.78 14.78 0 0 1 12.7 6.32 18.5 18.5 0 0 1 2.9 6.53c.62 2.47.92 5.02.91 7.65 0 1.97-.02 4.11-.06 6.43a544.33 544.33 0 0 0-.04 13.23c.03 2.04.09 4 .18 5.92.08 1.87.2 3.66.36 5.35.15 1.66.35 3.14.6 4.46l-10.85.62Zm-.64-27.5a20.96 20.96 0 0 1-3.53 3.37c-.94.66-1.95 1.39-3.05 2.2a34.1 34.1 0 0 0-3.01 2.57c-.91.9-1.68 1.86-2.3 2.86a6.22 6.22 0 0 0 .12 6.62c.68 1 1.65 1.5 2.9 1.5 1.16 0 2.19-.3 3.1-.93.9-.62 1.7-1.38 2.4-2.29.72-.93 1.32-1.93 1.79-3 .5-1.06.9-2.03 1.18-2.9l.4-10ZM400.9 93.34c-.27 3.22-.48 6.4-.64 9.52l-.5 9.34c1.38-.06 2.74-.1 4.08-.13 1.35-.06 2.73-.14 4.13-.23l.16 12.02c-1.5-.26-2.99-.46-4.46-.63-1.47-.16-2.9-.28-4.31-.38a338.04 338.04 0 0 0-.23 15.77c-.02 4.75.02 9.47.1 14.17.11 4.69.29 9.42.52 14.17l-12.24-.22c.42-7.35.77-14.69 1.04-22 .3-7.36.51-14.75.62-22.2-1.31.06-2.62.13-3.94.22-1.31.06-2.66.14-4.03.23l.4-11.12a167 167 0 0 0 3.8.24c1.28.04 2.55.09 3.8.15.01-3.13-.01-6.24-.07-9.34l-.16-9.43 11.92-.15Z" fill="#fff"/><path d="M76.9 165.44c-2.72-.01-4.92 0-6.61.03-1.66.05-2.97.11-3.94.17-1.13.1-1.96.17-2.5.23.26-1.75.49-3.61.68-5.58.2-2 .37-4.04.53-6.1.17-2.06.3-4.11.4-6.15.1-2.03.18-3.97.25-5.81.13-4.35.22-8.7.27-13.05-.02-4.35-.1-8.56-.2-12.62a371.9 371.9 0 0 0-.54-10.84c-.12-1.79-.27-3.5-.46-5.12-.15-1.63-.33-3.1-.55-4.41h3.05c1.7 0 3.15 0 4.37-.03 1.22-.06 2.24-.12 3.05-.18.94-.06 1.74-.14 2.4-.23a907.7 907.7 0 0 0-.46 9.43 1142.92 1142.92 0 0 0-.42 16.9 468.1 468.1 0 0 0-.06 5.95c1 .07 1.97.1 2.91.1l2.77.01c1.97 0 3.7-.02 5.2-.08 1.54-.09 2.8-.18 3.81-.27l-.04-2.02a263.03 263.03 0 0 0-.2-10.46 254.54 254.54 0 0 0-.72-13.38 68.52 68.52 0 0 0-.7-5.68l3.01.01c1.6 0 2.97 0 4.13-.03 1.19-.06 2.18-.12 2.96-.18.9-.06 1.67-.14 2.3-.23l-.3 6.2-.2 6.14-.11 5.86-.11 5.35a711.2 711.2 0 0 0 .02 27.55l.08 5.4.17 5.44.27 5.26c-2.63-.01-4.76.01-6.38.07-1.63.03-2.9.07-3.8.13l-2.4.23c.29-1.9.53-3.94.72-6.1.2-2.16.36-4.34.49-6.57.16-2.22.28-4.4.34-6.56.1-2.16.19-4.18.25-6.06a86.79 86.79 0 0 0-11.82-.36c-1.03.03-1.92.07-2.68.14a423.33 423.33 0 0 0 .16 12.85l.26 7.42c.09 2.5.2 4.91.36 7.23ZM134.27 166.62c-3.1 0-5.77-.69-8.02-2.04a16.46 16.46 0 0 1-5.52-5.64 27.54 27.54 0 0 1-3.17-8.6 53.36 53.36 0 0 1-1-10.84c.01-4.54.43-8.7 1.25-12.48a33.73 33.73 0 0 1 3.6-9.75 18.55 18.55 0 0 1 5.88-6.32 14.43 14.43 0 0 1 8.08-2.28c3.06.01 5.7.66 7.92 1.95a15.63 15.63 0 0 1 5.48 5.4 25.17 25.17 0 0 1 3.21 8.32 51.07 51.07 0 0 1 1 10.66c0 2-.13 4.17-.38 6.52-.23 2.35-.63 4.7-1.2 7.04a41.98 41.98 0 0 1-2.17 6.8 23.48 23.48 0 0 1-3.44 5.76 15.7 15.7 0 0 1-4.94 4.02c-1.88 1-4.07 1.49-6.58 1.48Zm7.42-35.13c0-2.37-.1-4.5-.31-6.38-.22-1.9-.57-3.52-1.07-4.83a7.33 7.33 0 0 0-1.82-3.01 3.57 3.57 0 0 0-2.63-1.09c-1.12 0-2.17.59-3.15 1.78a16.46 16.46 0 0 0-2.59 5.15c-.73 2.25-1.31 5-1.76 8.26a88.1 88.1 0 0 0-.64 10.93c0 2.63.11 4.99.36 7.08.24 2.07.61 3.84 1.11 5.31a9.5 9.5 0 0 0 1.82 3.34 3.6 3.6 0 0 0 2.63 1.13c1 0 1.89-.4 2.67-1.21.79-.84 1.46-1.97 2.03-3.38.6-1.4 1.1-3.03 1.52-4.87.44-1.88.79-3.83 1.04-5.86a102.03 102.03 0 0 0 .79-12.34ZM199.8 97.44c0 1.28-.19 2.49-.56 3.61a9.14 9.14 0 0 1-1.47 2.86 6.9 6.9 0 0 1-2.16 1.87c-.82.44-1.7.66-2.68.65-.97 0-1.88-.16-2.72-.47a6.82 6.82 0 0 1-3.65-3.25 5.58 5.58 0 0 1-.51-2.35v-.6a15.79 15.79 0 0 1 .76-3.14 7.9 7.9 0 0 1 1.09-1.93c-1.54 0-2.74.37-3.62 1.11a6.8 6.8 0 0 0-1.98 3.1 19.99 19.99 0 0 0-.81 4.6c-.1 1.75-.15 3.62-.16 5.62v3.43a113.75 113.75 0 0 0 11.4-.53l-.6 11.16a76.81 76.81 0 0 0-5.39-.48c-1.81-.1-3.63-.18-5.44-.25-.01 3.6 0 7.18.02 10.75l.06 10.23c.03 3.25.03 6.29.03 9.1.02 2.79.03 5.21.02 7.28.03 2.03.04 3.62.04 4.78v1.78l-10.7.54c.15-2.25.27-4.75.34-7.5a392.01 392.01 0 0 0 .09-15.82c-.03-2.41-.07-4.8-.12-7.18l-.17-7.09c-.06-2.31-.1-4.55-.12-6.71-.97.06-1.93.14-2.87.23-.9.06-1.84.15-2.81.27l-.44-11.17 2.95.3 3 .19.02-5.26c0-3.03.31-5.79.91-8.26.64-2.5 1.61-4.64 2.93-6.42a13.4 13.4 0 0 1 5.17-4.11c2.13-1 4.7-1.5 7.7-1.48 2.07 0 3.88.32 5.44.95a11.4 11.4 0 0 1 3.9 2.5c1.02 1 1.8 2.13 2.33 3.38s.8 2.5.79 3.71ZM237.4 121.94a7.73 7.73 0 0 1-2.74 6.1 7.5 7.5 0 0 1-4.41 1.77 6.94 6.94 0 0 1-4.27-1.42 7.03 7.03 0 0 1-1.77-2.12 7.02 7.02 0 0 1-.32-5.63c.22-.62.55-1.26 1-1.92a6.58 6.58 0 0 1 1.97-1.83 8.47 8.47 0 0 0-3.19-2.87 5.16 5.16 0 0 0-1.45-.47 6.1 6.1 0 0 0-4.65 2.15 7.25 7.25 0 0 0-1.7 4.83c0 1.15.07 2.2.22 3.14.16.94.51 1.9 1.07 2.87.57.97 1.4 2.02 2.53 3.15a49.64 49.64 0 0 0 4.59 3.95 53.34 53.34 0 0 1 5.06 4.43 27.85 27.85 0 0 1 3.55 4.18 16.9 16.9 0 0 1 2.1 4.18c.47 1.38.7 2.82.7 4.32 0 1-.12 2.1-.34 3.29-.2 1.15-.54 2.34-1.05 3.56a15.92 15.92 0 0 1-1.93 3.47 13.23 13.23 0 0 1-2.96 2.95 13.45 13.45 0 0 1-4.14 2.05c-1.56.53-3.36.79-5.4.78a20.2 20.2 0 0 1-7.83-1.38 18.5 18.5 0 0 1-5.34-3.3 13.53 13.53 0 0 1-3.04-4.14 9.76 9.76 0 0 1-.93-3.8c0-1.16.15-2.24.43-3.24a6.21 6.21 0 0 1 3.67-4.35 8.37 8.37 0 0 1 3.48-.65c1.13 0 2.14.18 3.05.53.93.34 1.73.86 2.39 1.55a6.63 6.63 0 0 1 1.59 2.45c.37.97.55 2.06.55 3.28a6.4 6.4 0 0 1-2.69 4.78c.44.35.86.61 1.27.8a7.6 7.6 0 0 0 2.3.48c.4 0 .87-.1 1.4-.33.57-.25 1.1-.62 1.6-1.12a5.94 5.94 0 0 0 1.8-4.4c0-1-.1-1.91-.28-2.73a7.22 7.22 0 0 0-1.07-2.58c-.53-.91-1.3-1.9-2.34-2.96a78.8 78.8 0 0 0-4.07-3.86 67.66 67.66 0 0 1-4.5-4.38 27.12 27.12 0 0 1-3.31-4.47 21.07 21.07 0 0 1-2-4.84c-.47-1.69-.7-3.55-.7-5.58a14.99 14.99 0 0 1 4.63-10.78 15.84 15.84 0 0 1 5.36-3.46 18.1 18.1 0 0 1 7.04-1.3c2.63.01 4.9.43 6.8 1.24a12.94 12.94 0 0 1 7.4 8c.59 1.79.88 3.66.87 5.63ZM268.1 92.98c-.25 3.22-.47 6.4-.63 9.52l-.5 9.34c1.38-.06 2.74-.1 4.09-.13 1.34-.06 2.72-.13 4.13-.22l.15 12.01c-1.5-.25-2.98-.46-4.45-.62-1.47-.16-2.91-.29-4.32-.39a338.1 338.1 0 0 0-.23 15.77c-.01 4.75.02 9.48.1 14.17.12 4.7.29 9.42.53 14.17l-12.25-.22c.43-7.35.78-14.68 1.04-22 .3-7.35.51-14.75.63-22.2-1.32.06-2.63.14-3.94.23-1.32.06-2.66.13-4.04.22l.4-11.12c1.29.1 2.55.18 3.8.24 1.29.04 2.55.09 3.8.16.01-3.13-.01-6.24-.06-9.34l-.17-9.44 11.92-.15ZM310.4 166.34c-.18-.97-.35-1.95-.5-2.95-.16-1-.28-2.04-.37-3.1a15.28 15.28 0 0 1-5.18 4.87 12.9 12.9 0 0 1-10.33 1.1 8.9 8.9 0 0 1-3.51-2.03 11.22 11.22 0 0 1-2.57-3.95c-.65-1.7-.98-3.82-.97-6.39 0-2.12.32-3.97.95-5.53a14.8 14.8 0 0 1 2.46-4.17 17.6 17.6 0 0 1 3.38-3.09c1.26-.87 2.5-1.65 3.72-2.34a238.9 238.9 0 0 1 3.57-1.91c1.13-.6 2.05-1.18 2.77-1.78a23.6 23.6 0 0 0 3.58-3.46 18.14 18.14 0 0 0 2.5-3.89 29.54 29.54 0 0 0-.7-5.3c-.3-1.41-.72-2.52-1.25-3.34a4.17 4.17 0 0 0-1.97-1.74 6.12 6.12 0 0 0-2.58-.52c-1.44 0-2.66.3-3.66.93a8.68 8.68 0 0 0-2.4 2.24 7.17 7.17 0 0 1 2.76 3.25c.25.6.39 1.2.42 1.83 0 2.13-.62 3.75-1.85 4.88a6.41 6.41 0 0 1-4.6 1.67c-.97 0-1.86-.22-2.67-.66a7.37 7.37 0 0 1-2.16-1.93 9.69 9.69 0 0 1-1.4-2.91 12.46 12.46 0 0 1-.5-3.67 11.71 11.71 0 0 1 3.78-8.25 15.04 15.04 0 0 1 5.07-3.13 19.83 19.83 0 0 1 7.51-1.24 14.78 14.78 0 0 1 12.7 6.32 18.46 18.46 0 0 1 2.9 6.53c.61 2.47.92 5.02.91 7.65 0 1.97-.02 4.12-.06 6.43a544.16 544.16 0 0 0-.04 13.23c.03 2.04.09 4 .17 5.92.1 1.88.21 3.66.37 5.35.15 1.66.35 3.14.6 4.46l-10.85.63Zm-.63-27.5a21 21 0 0 1-3.53 3.37c-.94.66-1.96 1.4-3.05 2.2a34.26 34.26 0 0 0-3.01 2.57c-.91.9-1.68 1.86-2.31 2.86a6.22 6.22 0 0 0 .12 6.62c.69 1 1.66 1.5 2.9 1.5 1.17.01 2.2-.3 3.1-.92.92-.63 1.72-1.4 2.4-2.3.73-.93 1.33-1.93 1.8-3 .5-1.06.9-2.03 1.18-2.9l.4-10ZM358.3 166.47c-.2-.97-.36-1.95-.51-2.95-.16-1-.28-2.04-.37-3.1a15.3 15.3 0 0 1-5.18 4.87 12.9 12.9 0 0 1-10.32 1.1 8.9 8.9 0 0 1-3.52-2.03 11.22 11.22 0 0 1-2.57-3.95c-.65-1.7-.97-3.82-.97-6.39 0-2.13.33-3.97.96-5.53.63-1.6 1.44-2.99 2.45-4.17 1-1.19 2.13-2.22 3.38-3.09 1.26-.87 2.5-1.65 3.72-2.34a234.3 234.3 0 0 1 3.57-1.91c1.13-.6 2.05-1.18 2.77-1.78a23.46 23.46 0 0 0 3.58-3.46 18.18 18.18 0 0 0 2.5-3.89 29.56 29.56 0 0 0-.7-5.3c-.3-1.41-.72-2.52-1.25-3.34a4.17 4.17 0 0 0-1.97-1.74 6.13 6.13 0 0 0-2.58-.52c-1.44 0-2.66.3-3.66.93a8.7 8.7 0 0 0-2.4 2.24 7.17 7.17 0 0 1 2.76 3.25c.25.6.39 1.2.42 1.83 0 2.13-.62 3.75-1.85 4.87a6.41 6.41 0 0 1-4.6 1.68c-.97 0-1.86-.22-2.67-.66a7.37 7.37 0 0 1-2.16-1.93 9.71 9.71 0 0 1-1.4-2.92 12.5 12.5 0 0 1-.5-3.66 11.72 11.72 0 0 1 3.78-8.25 15.05 15.05 0 0 1 5.07-3.13 19.83 19.83 0 0 1 7.51-1.24 14.78 14.78 0 0 1 12.7 6.32 18.5 18.5 0 0 1 2.9 6.53c.62 2.47.92 5.02.91 7.65 0 1.97-.02 4.11-.06 6.43a544.33 544.33 0 0 0-.04 13.23c.03 2.04.09 4 .18 5.92.08 1.87.2 3.66.36 5.35.15 1.66.35 3.14.6 4.46l-10.85.62Zm-.64-27.5a20.96 20.96 0 0 1-3.53 3.37c-.94.66-1.95 1.39-3.05 2.2a34.1 34.1 0 0 0-3.01 2.57c-.91.9-1.68 1.86-2.3 2.86a6.22 6.22 0 0 0 .12 6.62c.68 1 1.65 1.5 2.9 1.5 1.16 0 2.19-.3 3.1-.93.9-.62 1.7-1.38 2.4-2.29.72-.93 1.32-1.93 1.79-3 .5-1.06.9-2.03 1.18-2.9l.4-10ZM400.9 93.34c-.27 3.22-.48 6.4-.64 9.52l-.5 9.34c1.38-.06 2.74-.1 4.08-.13 1.35-.06 2.73-.14 4.13-.23l.16 12.02c-1.5-.26-2.99-.46-4.46-.63-1.47-.16-2.9-.28-4.31-.38a338.04 338.04 0 0 0-.23 15.77c-.02 4.75.02 9.47.1 14.17.11 4.69.29 9.42.52 14.17l-12.24-.22c.42-7.35.77-14.69 1.04-22 .3-7.36.51-14.75.62-22.2-1.31.06-2.62.13-3.94.22-1.31.06-2.66.14-4.03.23l.4-11.12a167 167 0 0 0 3.8.24c1.28.04 2.55.09 3.8.15.01-3.13-.01-6.24-.07-9.34l-.16-9.43 11.92-.15Z" stroke="#000" stroke-width="16.02" mask="url(#j)"/></g><g filter="url(#k)"><path d="M46.26 41.33 64.1 23.5l17.84 17.83-17.84 17.83-17.83-17.83ZM293.2 58.8c-7.51-6.94-11.29-11.3-15.94-21.35-.6-4.04.25-8.21 6.2-10.17 9.09 0 9.74 7.07 9.74 7.07s.65-7.07 9.73-7.07c5.96 1.96 6.8 6.13 6.2 10.17-4.65 10.05-8.43 14.41-15.93 21.35Z" fill="#C62222"/><path d="m404.65 22.24 15.43 19.54c0 5.74-1.13 7.93-5.56 9.59-5.3 1.34-9.87-4.33-9.87-4.33s-4.57 5.67-9.86 4.33c-4.43-1.66-5.56-3.85-5.56-9.59l15.42-19.54Z" fill="#000"/><path d="M399.22 60.72c3.27-4.64 4.37-7.66 5.44-13.55 1.08 5.89 2.18 8.91 5.44 13.55h-10.88ZM188.85 58.8H170.2c7.42-4.5 8.73-8.15 9.33-15.35l-12.44 6.14c-6.8-4.7-7.16-7.39 0-12.28l12.44 6.14-6.22-15.35c3.94-7.97 7.77-7.67 12.43 0l-6.21 15.35 13.98-6.14c5.46 4.8 4.25 7.49 0 12.28l-13.98-6.14c1.13 7.2 2.74 10.77 9.32 15.35Z" fill="#000"/><path d="M179.53 43.45c-.6 7.2-1.91 10.85-9.33 15.35h18.65c-6.58-4.58-8.2-8.15-9.32-15.35Zm0 0-12.44 6.14c-6.8-4.7-7.16-7.39 0-12.28l12.44 6.14Zm0 0 6.21-15.35c-4.66-7.67-8.5-7.97-12.43 0l6.22 15.35Zm0 0 13.98-6.14c5.46 4.8 4.25 7.49 0 12.28l-13.98-6.14Z" stroke="#000" stroke-width="2.29"/></g><defs><filter id="a" x="299.78" y="449.49" width="161" height="186.31" filterUnits="userSpaceOnUse" color-interpolation-filters="sRGB"><feFlood flood-opacity="0" result="BackgroundImageFix"/><feColorMatrix in="SourceAlpha" values="0 0 0 0 0 0 0 0 0 0 0 0 0 0 0 0 0 0 127 0" result="hardAlpha"/><feOffset dy="9.5"/><feGaussianBlur stdDeviation="4.75"/><feColorMatrix values="0 0 0 0 0 0 0 0 0 0 0 0 0 0 0 0 0 0 0.25 0"/><feBlend in2="BackgroundImageFix" result="effect1_dropShadow_1485_8933"/><feBlend in="SourceGraphic" in2="effect1_dropShadow_1485_8933" result="shape"/></filter><filter id="c" x="221.6" y="293.89" width="203.57" height="259.28" filterUnits="userSpaceOnUse" color-interpolation-filters="sRGB"><feFlood flood-opacity="0" result="BackgroundImageFix"/><feColorMatrix in="SourceAlpha" values="0 0 0 0 0 0 0 0 0 0 0 0 0 0 0 0 0 0 127 0" result="hardAlpha"/><feOffset dy="7.6"/><feGaussianBlur stdDeviation="3.8"/><feColorMatrix values="0 0 0 0 0 0 0 0 0 0 0 0 0 0 0 0 0 0 0.25 0"/><feBlend in2="BackgroundImageFix" result="effect1_dropShadow_1485_8933"/><feBlend in="SourceGraphic" in2="effect1_dropShadow_1485_8933" result="shape"/></filter><filter id="e" x="-2.99" y="243" width="285.6" height="341.16" filterUnits="userSpaceOnUse" color-interpolation-filters="sRGB"><feFlood flood-opacity="0" result="BackgroundImageFix"/><feColorMatrix in="SourceAlpha" values="0 0 0 0 0 0 0 0 0 0 0 0 0 0 0 0 0 0 127 0" result="hardAlpha"/><feOffset dy="8.99"/><feGaussianBlur stdDeviation="4.49"/><feColorMatrix values="0 0 0 0 0 0 0 0 0 0 0 0 0 0 0 0 0 0 0.25 0"/><feBlend in2="BackgroundImageFix" result="effect1_dropShadow_1485_8933"/><feBlend in="SourceGraphic" in2="effect1_dropShadow_1485_8933" result="shape"/></filter><filter id="g" x="170.37" y=".06" width="128.04" height="546.25" filterUnits="userSpaceOnUse" color-interpolation-filters="sRGB"><feFlood flood-opacity="0" result="BackgroundImageFix"/><feColorMatrix in="SourceAlpha" values="0 0 0 0 0 0 0 0 0 0 0 0 0 0 0 0 0 0 127 0" result="hardAlpha"/><feOffset dy="8.4"/><feGaussianBlur stdDeviation="4.2"/><feColorMatrix values="0 0 0 0 0 0 0 0 0 0 0 0 0 0 0 0 0 0 0.25 0"/><feBlend in2="BackgroundImageFix" result="effect1_dropShadow_1485_8933"/><feBlend in="SourceGraphic" in2="effect1_dropShadow_1485_8933" result="shape"/></filter><filter id="h" x="68.07" y="164.98" width="331.03" height="95.27" filterUnits="userSpaceOnUse" color-interpolation-filters="sRGB"><feFlood flood-opacity="0" result="BackgroundImageFix"/><feColorMatrix in="SourceAlpha" values="0 0 0 0 0 0 0 0 0 0 0 0 0 0 0 0 0 0 127 0" result="hardAlpha"/><feOffset dx="-2.29" dy="2.29"/><feGaussianBlur stdDeviation="5.28"/><feColorMatrix values="0 0 0 0 0 0 0 0 0 0 0 0 0 0 0 0 0 0 0.25 0"/><feBlend in2="BackgroundImageFix" result="effect1_dropShadow_1485_8933"/><feBlend in="SourceGraphic" in2="effect1_dropShadow_1485_8933" result="shape"/></filter><filter id="i" x="45.28" y="78.89" width="380.13" height="114.78" filterUnits="userSpaceOnUse" color-interpolation-filters="sRGB"><feFlood flood-opacity="0" result="BackgroundImageFix"/><feColorMatrix in="SourceAlpha" values="0 0 0 0 0 0 0 0 0 0 0 0 0 0 0 0 0 0 127 0" result="hardAlpha"/><feOffset dy="9.15"/><feGaussianBlur stdDeviation="4.58"/><feColorMatrix values="0 0 0 0 0 0 0 0 0 0 0 0 0 0 0 0 0 0 0.25 0"/><feBlend in2="BackgroundImageFix" result="effect1_dropShadow_1485_8933"/><feBlend in="SourceGraphic" in2="effect1_dropShadow_1485_8933" result="shape"/></filter><filter id="k" x="46.26" y="21.09" width="373.82" height="41.91" filterUnits="userSpaceOnUse" color-interpolation-filters="sRGB"><feFlood flood-opacity="0" result="BackgroundImageFix"/><feColorMatrix in="SourceAlpha" values="0 0 0 0 0 0 0 0 0 0 0 0 0 0 0 0 0 0 127 0" result="hardAlpha"/><feOffset dy="2.29"/><feColorMatrix values="0 0 0 0 0 0 0 0 0 0 0 0 0 0 0 0 0 0 0.25 0"/><feBlend in2="BackgroundImageFix" result="effect1_dropShadow_1485_8933"/><feBlend in="SourceGraphic" in2="effect1_dropShadow_1485_8933" result="shape"/></filter></defs></svg>