<svg width="123" height="67" fill="none" xmlns="http://www.w3.org/2000/svg"><path d="M122.47 29.73a1.5 1.5 0 0 0-.33-2.1l-10.88-7.98a1.5 1.5 0 0 0-1.78 2.42l9.68 7.1-7.1 9.67a1.5 1.5 0 1 0 2.42 1.78l7.99-10.9ZM90.39 35.1l31.1-4.79-.46-2.96-31.1 4.79.46 2.96Z" fill="#C62222"/><path transform="matrix(.47493 -.88002 .92004 .39183 2.77 44.52)" fill="#fff" stroke="#000" stroke-width="2.51" d="M1.75-.61h20.18v38.56H1.75z"/><path transform="matrix(.83759 -.5463 .63671 .7711 11.76 26.29)" fill="#fff" stroke="#000" stroke-width="2.51" d="M1.85.28H23.3v36.46H1.85z"/><path transform="matrix(.95573 -.29425 .36388 .93145 26.42 15.45)" fill="#fff" stroke="#000" stroke-width="2.51" d="M1.66.8h22.09v35.32H1.66z"/><path transform="matrix(.98811 .15373 -.19028 .98173 48.05 9.32)" fill="#fff" stroke="#000" stroke-width="2.51" d="M1 1.43h22.29v34.93H1z"/><path transform="matrix(.93904 .3438 -.41711 .90886 62.83 9.05)" fill="#fff" stroke="#000" stroke-width="2.51" d="M.66 1.57h21.99v35.48H.66z"/><g filter="url(#a)"><path fill="#D57575" d="m81.56 8.25 24.2 11.15-20.28 34.67-24.2-11.16z"/><path transform="matrix(.90804 .41889 -.50481 .86323 82.5 8.25)" stroke="#000" stroke-width="2.75" d="M.55 1.76h23.89v37.41H.55z"/></g><path d="m13.93 38.96-1.16.11a37.68 37.68 0 0 0 .02-1.23 454.38 454.38 0 0 1 .02-2.39l-.02-1.2-.34.6-.76-.65a9.91 9.91 0 0 1 .45-.62 27.32 27.32 0 0 1 .58-.8l1.1-.05a374.63 374.63 0 0 0-.03 1.64v.78a5.73 5.73 0 0 0 .01.46 34.45 34.45 0 0 0 .09 2.74l.04.6ZM26.58 30v.04a.3.3 0 0 0-.01.06v.08a8.35 8.35 0 0 0 .05.83l-.67-.01h-.59a41.9 41.9 0 0 0-2.05.05v-.14a3.55 3.55 0 0 1 .18-1.04 3.93 3.93 0 0 1 1.01-1.5c.16-.15.31-.3.45-.46.14-.16.27-.33.37-.5a2.41 2.41 0 0 0 .34-1.23c0-.19-.02-.35-.06-.48a.76.76 0 0 0-.15-.3.5.5 0 0 0-.23-.16.77.77 0 0 0-.28-.05.7.7 0 0 0-.13.03.85.85 0 0 0-.13.05.58.58 0 0 0-.14.1c.05.05.08.12.1.18l.07.18.02.2c0 .1-.02.19-.06.26a.64.64 0 0 1-.16.2.68.68 0 0 1-.43.16l-.22-.03a.73.73 0 0 1-.5-.37.95.95 0 0 1-.1-.47c0-.2.05-.37.14-.52.09-.16.2-.3.36-.4.15-.12.33-.2.52-.26a2.12 2.12 0 0 1 1.28.02 1.67 1.67 0 0 1 .98.91c.1.23.16.5.16.8a2.83 2.83 0 0 1-.53 1.72c-.15.22-.32.42-.5.6l-.5.52a3.16 3.16 0 0 0-.74 1.15 13.96 13.96 0 0 0 2.15-.23ZM38.5 18.38h.02l.05.01.17-.01a.98.98 0 0 0 .69-.45c.06-.1.12-.23.16-.39.04-.15.06-.33.06-.55a.83.83 0 0 0-.47-.74.55.55 0 0 0-.24-.06.7.7 0 0 0-.13.03.85.85 0 0 0-.13.05.58.58 0 0 0-.14.1c.05.05.08.12.1.18l.07.18.02.2c0 .1-.02.19-.06.26a.64.64 0 0 1-.16.2.67.67 0 0 1-.43.16l-.22-.03a.73.73 0 0 1-.5-.37.95.95 0 0 1-.1-.47c0-.2.05-.37.14-.52.09-.16.2-.3.36-.4.15-.12.33-.2.52-.26a2.12 2.12 0 0 1 1.28.02 1.67 1.67 0 0 1 .99.91c.1.23.16.5.16.8a1.77 1.77 0 0 1-.32 1.03 1.83 1.83 0 0 1-.66.6 1.81 1.81 0 0 1 .66.52c.1.12.17.26.23.41a1.88 1.88 0 0 1-.07 1.34 1.74 1.74 0 0 1-1.64 1.02 2.12 2.12 0 0 1-1.15-.34 1.39 1.39 0 0 1-.36-.4 1.07 1.07 0 0 1-.13-.54c0-.2.03-.35.1-.46a.74.74 0 0 1 .49-.37l.23-.03c.07 0 .14.01.22.04.07.03.14.07.2.12.07.05.12.12.16.2.04.08.06.16.06.26 0 .07 0 .13-.02.2l-.06.18a.75.75 0 0 1-.1.18.53.53 0 0 0 .26.15l.13.02c.08 0 .16-.02.25-.05a.85.85 0 0 0 .4-.42.8.8 0 0 0 .06-.33c0-.22-.02-.4-.06-.56-.05-.15-.1-.28-.18-.38a.92.92 0 0 0-.23-.24 1.1 1.1 0 0 0-.64-.2h-.04v-.8ZM53.27 21.07a619.51 619.51 0 0 0 .03-1.56h-2.15l-.02-.7a18.03 18.03 0 0 0 .73-1.47l.32-.72.84-1.9h1.31l-.01.57-.01.56-.01.52v.47a86.98 86.98 0 0 0 .02 1.72h.42v.95h-.39a79.19 79.19 0 0 0 .08 1.45l-1.16.11Zm.04-3.2v-.78l-.01-.74-1 2.21h1v-.68ZM66.9 21.19c-.21 0-.42-.03-.62-.1-.2-.05-.39-.14-.54-.26a1.34 1.34 0 0 1-.38-.45 1.4 1.4 0 0 1-.13-.64c0-.19.02-.35.08-.47a.92.92 0 0 1 .21-.3.85.85 0 0 1 .8-.17.67.67 0 0 1 .44.38c.05.1.08.23.08.39a.8.8 0 0 1-.06.25.75.75 0 0 1-.13.2.54.54 0 0 1-.26.14c.08.1.18.17.29.22.1.05.2.08.28.08.08 0 .17-.02.27-.07s.19-.13.27-.24c.09-.1.16-.25.21-.42a2 2 0 0 0 .04-1.06 1.07 1.07 0 0 0-.42-.67 2.02 2.02 0 0 0-1.14-.42 9.2 9.2 0 0 0-.83-.05l.2-2.63a9.13 9.13 0 0 1 1.18-.14l.5-.04 1.3-.07-.04 1.04h-.19a8.04 8.04 0 0 0-.62 0l-.36-.02c-.29 0-.6 0-.93-.02l-.07 1.01a22.2 22.2 0 0 0 .68.08 2.06 2.06 0 0 1 .68.27c.38.23.66.5.84.8.19.3.28.66.28 1.07a2.66 2.66 0 0 1-.53 1.58c-.16.22-.36.4-.6.53-.23.13-.49.2-.77.2ZM86.92 19.27c0 .33-.04.61-.11.86-.08.25-.2.46-.34.64-.15.17-.33.3-.55.38a1.93 1.93 0 0 1-1.6-.08 1.85 1.85 0 0 1-.66-.65 3.53 3.53 0 0 1-.41-1.09 7.13 7.13 0 0 1 .04-3.02c.12-.41.29-.75.5-1.01a1.9 1.9 0 0 1 2.2-.64c.2.08.35.18.47.3.12.13.2.27.26.41.06.15.08.3.08.43s-.02.25-.06.35a.74.74 0 0 1-.15.25.63.63 0 0 1-.46.2.94.94 0 0 1-.24-.03.51.51 0 0 1-.35-.3.82.82 0 0 1-.03-.5l.05-.16a.59.59 0 0 1 .12-.17.48.48 0 0 0-.15-.12.94.94 0 0 0-.32-.09.54.54 0 0 0-.34.15c-.12.1-.22.25-.32.46-.1.2-.18.47-.24.79-.06.31-.1.7-.1 1.13.16-.2.34-.36.54-.46a1.32 1.32 0 0 1 1.69.38c.14.18.26.4.35.67.09.26.13.57.13.92Zm-1.72 1.3c.22 0 .39-.11.5-.34.13-.23.2-.55.2-.96 0-.19-.03-.36-.06-.52-.04-.15-.1-.29-.16-.4a.8.8 0 0 0-.24-.26.52.52 0 0 0-.3-.1.78.78 0 0 0-.44.17c-.15.1-.3.28-.46.53.03.32.07.6.13.83.06.24.13.43.22.59.08.15.18.27.28.35.1.07.22.1.33.1Z" fill="#000"/><defs><filter id="a" x="56.91" y="8.25" width="53.23" height="54.59" filterUnits="userSpaceOnUse" color-interpolation-filters="sRGB"><feFlood flood-opacity="0" result="BackgroundImageFix"/><feColorMatrix in="SourceAlpha" values="0 0 0 0 0 0 0 0 0 0 0 0 0 0 0 0 0 0 127 0" result="hardAlpha"/><feOffset dy="4.38"/><feGaussianBlur stdDeviation="2.19"/><feComposite in2="hardAlpha" operator="out"/><feColorMatrix values="0 0 0 0 0 0 0 0 0 0 0 0 0 0 0 0 0 0 0.25 0"/><feBlend in2="BackgroundImageFix" result="effect1_dropShadow_1570_9280"/><feBlend in="SourceGraphic" in2="effect1_dropShadow_1570_9280" result="shape"/></filter></defs></svg>