<svg width="316" height="76" fill="none" xmlns="http://www.w3.org/2000/svg"><rect x="1.93" y="1.93" width="311.93" height="72.14" rx="7.07" fill="#3076FF"/><mask id="a" maskUnits="userSpaceOnUse" x="30" y="7.38" width="190" height="61" fill="#000"><path fill="#fff" d="M30 7.38h190v61H30z"/><path d="M43.7 12.06a214.13 214.13 0 0 0-.19 4.61l-.01 1.53a55.66 55.66 0 0 0 .1 2.48l.07 1.28.07 1.57.07 2.03c.02.9-.06 1.79-.22 2.63-.17.85-.46 1.6-.89 2.26-.42.65-1 1.17-1.73 1.56a5.8 5.8 0 0 1-2.76.59c-.66 0-1.25-.08-1.76-.24a4.34 4.34 0 0 1-2.31-1.56A5.82 5.82 0 0 1 33 27.27c0-.5.06-.93.22-1.27a2.26 2.26 0 0 1 2.02-1.35c.2 0 .44.04.7.12.28.08.54.2.8.4a2.25 2.25 0 0 1 .9 1.83c0 .34-.07.65-.2.94-.1.25-.27.5-.5.74-.22.24-.55.4-.99.5.17.27.36.49.56.65a2.81 2.81 0 0 0 1.73.56c.49 0 .87-.1 1.16-.29.29-.2.5-.47.65-.82a4 4 0 0 0 .28-1.23c.05-.47.06-.98.05-1.53a493.43 493.43 0 0 0-.2-7.3c-.05-1.19-.12-2.38-.2-3.56-.09-1.19-.2-2.36-.36-3.53a6.51 6.51 0 0 0 1.52.1 26.65 26.65 0 0 0 2.57-.16ZM58.39 28.75a3.2 3.2 0 0 1-.34 1.52c-.24.48-.57.89-.98 1.23a5.3 5.3 0 0 1-4.56.94 4.25 4.25 0 0 1-1.27-.58 5.4 5.4 0 0 1-1.15-1.08c-.37-.45-.69-1-.97-1.64-.26-.65-.48-1.4-.66-2.27-.16-.88-.25-1.88-.27-3-.03-1.07.03-2.02.16-2.84.14-.82.33-1.53.57-2.14.25-.62.55-1.13.89-1.54.34-.41.7-.75 1.09-1 .4-.27.8-.46 1.21-.57a5.04 5.04 0 0 1 3 .14 4.13 4.13 0 0 1 2.45 2.28 5.23 5.23 0 0 1 .04 3.92c-.25.67-.64 1.3-1.15 1.9a8.84 8.84 0 0 1-1.94 1.63c-.77.48-1.65.87-2.66 1.15.07.56.16 1.08.27 1.54.11.47.25.87.42 1.2.17.32.36.58.57.76.22.18.48.27.76.27.18 0 .35-.04.52-.1.14-.04.29-.11.43-.21.15-.1.28-.25.37-.44-.24-.1-.42-.25-.55-.42a2.42 2.42 0 0 1-.3-.5 1.94 1.94 0 0 1 .1-1.64 2.02 2.02 0 0 1 1.33-.95c.24-.07.44-.1.58-.1.16 0 .35.03.57.1.22.06.45.18.66.37.21.18.4.44.55.78.16.32.24.76.26 1.3Zm-3.55-8.6a4.36 4.36 0 0 0-.39-1.7c-.11-.22-.26-.4-.43-.52a.89.89 0 0 0-.58-.2c-.38 0-.68.17-.9.51-.24.34-.42.8-.56 1.36-.13.56-.22 1.21-.26 1.95-.04.74-.05 1.5-.03 2.31l.02 1a6.75 6.75 0 0 0 2.27-1.98 4.9 4.9 0 0 0 .86-2.72ZM67.04 10.92c-.06.94-.1 1.86-.12 2.77l-.09 2.72 1.2-.04 1.2-.07.12 3.5a22.38 22.38 0 0 0-2.57-.29v2.3c0 .76.02 1.52.04 2.3a159.88 159.88 0 0 0 .37 8.26l-3.57-.06a303.57 303.57 0 0 0 .2-12.88l-1.15.07-1.18.07.05-3.24a48.33 48.33 0 0 0 2.22.1l-.08-2.71-.11-2.75 3.47-.05ZM81.85 19.21a41.06 41.06 0 0 0-2.9 5.09 48.74 48.74 0 0 0-2.16 5.15 65.18 65.18 0 0 0 5.28-.5l.15 3.22a69.1 69.1 0 0 0-6.27-.03c-.96.04-1.94.1-2.92.17l-.13-2.63a58.42 58.42 0 0 0 2.97-5.12 75.15 75.15 0 0 0 2.33-5.2c-.9 0-1.77.07-2.6.17-.83.1-1.7.23-2.62.4l-.23-3.27c.38.02.76.02 1.14.02h1.13a72.89 72.89 0 0 0 6.6-.27l.23 2.8ZM90.82 10.92c-.06.94-.1 1.86-.13 2.77l-.08 2.72 1.19-.04 1.2-.07.12 3.5a22.39 22.39 0 0 0-2.56-.29v2.3c0 .76.02 1.52.04 2.3a159.43 159.43 0 0 0 .37 8.26l-3.58-.06a303.57 303.57 0 0 0 .2-12.88l-1.14.07-1.18.07.05-3.24a48.3 48.3 0 0 0 2.21.1c-.01-.9-.04-1.8-.08-2.71l-.1-2.75 3.47-.05ZM105.97 30.07a165.16 165.16 0 0 0-.38-6.34 57.68 57.68 0 0 1-.06-4.54c.03-.8.12-1.58.25-2.31.13-.75.32-1.45.56-2.1a5.8 5.8 0 0 1 .97-1.7 4.34 4.34 0 0 1 3.56-1.58c.77 0 1.44.13 2 .37.57.24 1.06.57 1.46.99.4.42.74.9 1 1.47.27.57.47 1.18.62 1.84.16.65.28 1.33.34 2.05a27.62 27.62 0 0 1 .08 4.47l-.04 1.28-.03 1.89a1517.17 1517.17 0 0 0-.09 6.2l-4.09-.15a94.25 94.25 0 0 0 .6-6.04 25.36 25.36 0 0 0-3.55-.03 170.56 170.56 0 0 0 .28 3.1 86.51 86.51 0 0 0 .4 3.1l-3.86.1v-1.02l-.02-1.05Zm2.98-7.11.8.03h.79c.97 0 1.75-.03 2.35-.09l.12-1.95c.05-.66.07-1.36.06-2.1a10.22 10.22 0 0 0-.57-3.6c-.33-.83-.81-1.24-1.44-1.24-.35 0-.67.12-.95.36-.29.25-.54.63-.75 1.15-.2.51-.35 1.16-.46 1.94a18.78 18.78 0 0 0-.08 3.98l.13 1.52ZM124.56 16.55l-.06 1.12c.29-.5.6-.88.93-1.15.34-.26.66-.45.94-.56a2.48 2.48 0 0 1 1.05-.2 3.33 3.33 0 0 1 3.05 1.83c.34.58.6 1.3.76 2.14.19.84.29 1.8.3 2.86a73.94 73.94 0 0 1-.08 4.84c-.04.8-.12 1.58-.22 2.35s-.23 1.5-.41 2.19l-3.2-.39a46.99 46.99 0 0 0 .72-7.75c-.02-.86-.06-1.61-.13-2.25a6.73 6.73 0 0 0-.33-1.6 2.09 2.09 0 0 0-.6-.96 1.43 1.43 0 0 0-.95-.31c-.25.05-.5.23-.75.54-.22.27-.44.7-.67 1.28-.24.57-.44 1.38-.6 2.43a79 79 0 0 0-.01 2.12l.04 2.21.04 2.15.08 2.6-3.1-.07V29a209.88 209.88 0 0 0-.16-7.6c-.04-1.47-.11-3.11-.2-4.92l3.56.06ZM139.27 10.67a2602.2 2602.2 0 0 0-.16 5.77l-.02 2.4-.02 2.23.02 2.23.05 2.35.06 2.93a254 254 0 0 0 .1 3.46l-3.11-.07a154 154 0 0 0 .03-4.06 310.47 310.47 0 0 0-.37-13.52l-.14-3.8 3.56.08ZM153.74 28.75a3.2 3.2 0 0 1-.34 1.52c-.24.48-.56.89-.97 1.23a5.3 5.3 0 0 1-4.56.94 4.24 4.24 0 0 1-1.27-.58c-.41-.28-.8-.64-1.16-1.08-.37-.45-.69-1-.96-1.64-.27-.65-.49-1.4-.66-2.27-.16-.88-.26-1.88-.28-3-.02-1.07.03-2.02.16-2.84.14-.82.33-1.53.58-2.14.25-.62.54-1.13.88-1.54.34-.41.7-.75 1.09-1 .4-.27.8-.46 1.22-.57a5.04 5.04 0 0 1 3 .14 4.13 4.13 0 0 1 2.45 2.28 5.23 5.23 0 0 1 .04 3.92c-.26.67-.64 1.3-1.16 1.9a8.84 8.84 0 0 1-1.94 1.63c-.76.48-1.65.87-2.65 1.15.06.56.15 1.08.26 1.54.12.47.26.87.42 1.2.17.32.36.58.58.76.22.18.47.27.75.27.19 0 .36-.04.52-.1.14-.04.29-.11.43-.21.16-.1.28-.25.38-.44-.24-.1-.43-.25-.56-.42a2.42 2.42 0 0 1-.3-.5 1.94 1.94 0 0 1 .1-1.64 2.03 2.03 0 0 1 1.33-.95c.25-.07.44-.1.59-.1.15 0 .34.03.56.1.23.06.45.18.66.37.22.18.4.44.55.78.16.32.25.76.26 1.3Zm-3.55-8.6a4.44 4.44 0 0 0-.38-1.7c-.12-.22-.26-.4-.44-.52a.89.89 0 0 0-.58-.2c-.37 0-.67.17-.9.51a4.1 4.1 0 0 0-.55 1.36c-.14.56-.22 1.21-.26 1.95-.04.74-.06 1.5-.04 2.31l.02 1a6.78 6.78 0 0 0 2.27-1.98 4.9 4.9 0 0 0 .86-2.72ZM161.38 12.52a2.05 2.05 0 0 1-1.26 1.97 2.18 2.18 0 0 1-1.65 0 2.4 2.4 0 0 1-1.16-1.14 2.2 2.2 0 0 1-.03-1.65 2.06 2.06 0 0 1 1.11-1.13 2 2 0 0 1 1.66 0 2.14 2.14 0 0 1 1.33 1.95Zm.09 4.14a66.88 66.88 0 0 0-.22 4.9 256.2 256.2 0 0 0 0 5.16v2.25l.04 1.8.03 1.54-3.1.1V30.6l-.04-1.78a162.58 162.58 0 0 0-.24-5.96 119.94 119.94 0 0 0-.5-6.14l4.03-.05ZM170.63 10.92c-.05.94-.1 1.86-.12 2.77l-.09 2.72 1.2-.04 1.2-.07.12 3.5a22.4 22.4 0 0 0-2.56-.29c-.02.78-.02 1.54-.01 2.3l.04 2.3a158.98 158.98 0 0 0 .37 8.26l-3.57-.06a306.28 306.28 0 0 0 .2-12.88l-1.15.07-1.17.07.04-3.24a48.52 48.52 0 0 0 2.22.1l-.08-2.71-.11-2.75 3.47-.05ZM183.67 31.83l.03-1.04.07-.97a4.3 4.3 0 0 1-1.94 1.91c-.35.17-.7.27-1.04.3-.68 0-1.27-.16-1.78-.5-.5-.34-.93-.82-1.27-1.44a8.04 8.04 0 0 1-.78-2.22c-.17-.88-.27-1.85-.29-2.93-.03-1.5-.01-2.96.05-4.37.07-1.42.2-2.8.4-4.16l3.48.38a47.92 47.92 0 0 0-.65 5.09c-.05.7-.08 1.31-.08 1.83.02.87.06 1.62.13 2.27.07.64.17 1.17.32 1.6.15.42.35.73.6.94.25.21.57.32.95.32.27-.05.52-.23.77-.55.1-.14.22-.31.33-.52a10.44 10.44 0 0 0 .66-1.89c.1-.41.2-.9.29-1.46v-1.6l-.04-1.73-.04-2.15c-.02-.77-.04-1.64-.08-2.61l3.1.05a93.1 93.1 0 0 0 .07 10.3l.13 2.32.16 2.89-3.55-.06ZM195.15 16.55l-.06 1.12c.29-.5.6-.88.93-1.15.34-.26.66-.45.95-.56a2.47 2.47 0 0 1 1.05-.2 3.34 3.34 0 0 1 3.04 1.83 7 7 0 0 1 .77 2.14c.18.84.28 1.8.3 2.86a73.94 73.94 0 0 1-.08 4.84c-.05.8-.13 1.58-.23 2.35s-.23 1.5-.4 2.19l-3.2-.39a46.99 46.99 0 0 0 .7-7.75c-.01-.86-.05-1.61-.12-2.25a6.73 6.73 0 0 0-.33-1.6 2.09 2.09 0 0 0-.6-.96 1.43 1.43 0 0 0-.94-.31c-.26.05-.51.23-.76.54-.21.27-.44.7-.67 1.28-.24.57-.43 1.38-.6 2.43v2.12l.03 2.21.05 2.15c.01.76.04 1.63.08 2.6l-3.1-.07-.01-2.96a198.87 198.87 0 0 0-.15-7.6l-.2-4.92 3.55.06ZM216.8 16.38a286.39 286.39 0 0 0-.19 3.38 109.05 109.05 0 0 0-.11 6.67 74.46 74.46 0 0 0-.03 3.2c.02 1.05 0 2.05-.04 3-.05.95-.15 1.83-.32 2.64a5.8 5.8 0 0 1-.82 2.12c-.39.6-.92 1.07-1.6 1.41-.66.34-1.53.5-2.6.5a4.5 4.5 0 0 1-1.94-.35 2.79 2.79 0 0 1-1.62-1.9c-.09-.37-.13-.7-.14-1 0-.3.04-.6.12-.87.1-.27.23-.5.4-.7a1.87 1.87 0 0 1 1.48-.65 2.06 2.06 0 0 1 1.56.68c.18.2.32.44.42.7.1.25.16.5.16.76-.01.15-.05.3-.1.45a2.33 2.33 0 0 1-.69.9c.21.08.4.11.59.11.24 0 .49-.07.75-.21.26-.14.5-.36.7-.66.22-.3.4-.68.53-1.13.14-.46.21-1 .22-1.63L213.5 30c-.35.6-.7 1.07-1.07 1.41-.36.33-.68.57-.98.72-.35.19-.69.3-1 .33-.47 0-.94-.13-1.42-.4a3.7 3.7 0 0 1-1.31-1.36c-.4-.65-.73-1.5-1-2.58a18.96 18.96 0 0 1-.45-4.08c-.02-1.07.03-2.02.14-2.84.1-.83.27-1.55.47-2.16.21-.61.46-1.12.74-1.53.3-.42.6-.76.94-1.01.34-.26.7-.44 1.07-.55.37-.1.74-.16 1.1-.16.28.01.58.08.88.19a4.55 4.55 0 0 1 1.9 1.37l.05-1.32 3.22.34Zm-3.31 3.48a4.27 4.27 0 0 0-.76-.93c-.28-.27-.59-.4-.92-.4-.26 0-.52.1-.78.27a2.2 2.2 0 0 0-.68.92c-.2.43-.36 1-.48 1.72s-.16 1.63-.14 2.72c.02 1.01.08 1.85.19 2.52.1.66.23 1.2.4 1.6.16.39.34.67.55.83.2.16.41.23.64.23.3 0 .56-.09.78-.27.22-.18.4-.4.56-.66.15-.26.27-.53.36-.82.1-.28.2-.53.26-.74l-.01-3.52c0-1.16 0-2.32.03-3.47ZM37.73 43.88a506.7 506.7 0 0 0-.23 7.06 4.48 4.48 0 0 1 2.13-2.14c.4-.18.8-.29 1.21-.32.66 0 1.22.16 1.7.47.46.32.86.78 1.17 1.37.31.6.54 1.3.7 2.15.15.83.24 1.76.26 2.79.03 1.72 0 3.39-.08 5-.08 1.6-.29 3.17-.62 4.7l-3.2-.38a52.38 52.38 0 0 0 .63-5.5 35.34 35.34 0 0 0-.03-4.5 7.36 7.36 0 0 0-.22-1.6c-.1-.44-.28-.75-.5-.96a1.3 1.3 0 0 0-.92-.32c-.3.05-.6.23-.88.55a3.1 3.1 0 0 0-.37.52 6.62 6.62 0 0 0-.73 1.84c-.11.41-.2.89-.29 1.42a141.81 141.81 0 0 0 .06 5.53l.03 1.73c.01.59.03 1.16.06 1.74l-3.1-.07c.07-1.67.1-3.33.12-5a153.63 153.63 0 0 0-.22-10.58c-.1-1.84-.23-3.7-.39-5.55l3.71.05ZM59.03 61.75a3.2 3.2 0 0 1-.33 1.52c-.24.47-.57.88-.98 1.23a5.3 5.3 0 0 1-4.56.94 4.25 4.25 0 0 1-1.27-.59 5.4 5.4 0 0 1-1.16-1.08c-.36-.45-.68-1-.96-1.64-.27-.65-.49-1.4-.66-2.27-.16-.87-.25-1.88-.28-3-.02-1.07.04-2.01.17-2.83.14-.82.33-1.54.57-2.15.25-.61.55-1.12.89-1.53.33-.42.7-.76 1.08-1.01.4-.27.8-.45 1.22-.56a5.03 5.03 0 0 1 3 .13 4.13 4.13 0 0 1 2.45 2.29 5.23 5.23 0 0 1 .04 3.92c-.25.66-.64 1.3-1.15 1.9a8.83 8.83 0 0 1-1.94 1.63c-.77.48-1.65.86-2.66 1.14.07.57.16 1.08.26 1.55.12.46.26.86.42 1.19.18.33.37.58.58.76.22.19.48.28.76.28.18-.01.35-.04.52-.1.14-.04.28-.12.43-.22.15-.1.28-.24.37-.44-.24-.1-.42-.25-.55-.42a2.41 2.41 0 0 1-.3-.5 1.94 1.94 0 0 1 .1-1.64 2.02 2.02 0 0 1 1.33-.95c.24-.06.44-.1.58-.1.16 0 .34.04.56.1.23.07.45.19.67.37.21.18.4.44.55.78.16.33.24.76.25 1.3Zm-3.54-8.6a4.38 4.38 0 0 0-.4-1.7c-.1-.23-.25-.4-.42-.53a.89.89 0 0 0-.58-.2c-.38 0-.68.17-.9.52-.24.33-.42.78-.56 1.35a11.1 11.1 0 0 0-.26 1.95c-.04.74-.05 1.51-.04 2.31l.02 1a6.75 6.75 0 0 0 2.28-1.98 4.9 4.9 0 0 0 .86-2.72ZM66.74 65.25l-3.64.27a100.45 100.45 0 0 0 .12-12.5 71.9 71.9 0 0 0-.23-3.34l3.07-.17a13.69 13.69 0 0 0-.03 1.15 4.17 4.17 0 0 1 2.07-1.76c.37-.16.75-.25 1.13-.29.66 0 1.24.1 1.71.32.48.2.87.46 1.18.79.3.32.53.68.68 1.08.14.4.22.77.23 1.15 0 .38-.03.77-.1 1.16-.08.4-.21.75-.4 1.07-.2.3-.45.56-.77.76-.32.2-.71.29-1.18.29-.48 0-.85-.09-1.13-.26a2 2 0 0 1-.64-.62c-.14-.24-.24-.5-.29-.75a5.07 5.07 0 0 1-.07-.67 2.21 2.21 0 0 1 .26-.92c.09-.16.2-.32.33-.47.13-.17.3-.32.47-.45a1.02 1.02 0 0 0-.34-.06c-.46 0-.86.15-1.21.44a3.5 3.5 0 0 0-.9 1.19 8.67 8.67 0 0 0-.61 1.8c-.15.7-.26 1.45-.33 2.27.07 1.41.17 2.81.28 4.2l.34 4.32ZM83.73 64.82l.04-1.03.06-.98a4.3 4.3 0 0 1-1.93 1.92c-.35.16-.7.26-1.05.3-.67 0-1.26-.17-1.77-.5-.5-.34-.93-.82-1.27-1.44a8.04 8.04 0 0 1-.79-2.23c-.17-.88-.26-1.85-.29-2.93a67.9 67.9 0 0 1 .06-4.37c.07-1.41.2-2.8.4-4.16l3.47.39a47.97 47.97 0 0 0-.65 5.08c-.05.7-.07 1.32-.07 1.83.01.87.06 1.63.12 2.27.07.64.18 1.17.32 1.6.16.42.36.74.6.95.26.2.58.31.96.31.26-.05.52-.23.77-.55.1-.13.21-.3.33-.52a10.37 10.37 0 0 0 .66-1.89c.1-.41.2-.9.28-1.45v-1.6l-.03-1.74-.05-2.15c-.01-.77-.04-1.64-.08-2.6l3.11.05a98.46 98.46 0 0 0 .2 12.61l.16 2.89-3.56-.06ZM95.21 49.54l-.06 1.12a3.76 3.76 0 0 1 1.88-1.7 2.47 2.47 0 0 1 1.05-.2 3.33 3.33 0 0 1 3.05 1.82c.34.58.59 1.3.76 2.15.18.84.28 1.79.3 2.85a68.68 68.68 0 0 1-.08 4.84c-.05.8-.12 1.59-.23 2.35-.09.77-.23 1.5-.4 2.2l-3.2-.4a46.8 46.8 0 0 0 .71-7.74c-.02-.87-.06-1.62-.12-2.26a6.74 6.74 0 0 0-.34-1.6 2.09 2.09 0 0 0-.59-.95 1.43 1.43 0 0 0-.95-.32c-.25.06-.5.24-.75.55-.22.26-.44.69-.68 1.27-.23.57-.43 1.38-.6 2.43a83.4 83.4 0 0 0 0 2.12L95 60.3l.04 2.14c.02.77.04 1.63.08 2.6l-3.1-.07v-2.95a201.98 201.98 0 0 0-.16-7.6c-.04-1.48-.11-3.12-.2-4.92l3.55.05ZM111.24 43.91c-.05.94-.1 1.86-.12 2.77l-.09 2.73 1.2-.05 1.2-.06.12 3.5a22.4 22.4 0 0 0-2.56-.3c-.02.78-.02 1.55-.01 2.3l.04 2.3a158.96 158.96 0 0 0 .37 8.26l-3.57-.06a306.3 306.3 0 0 0 .2-12.87l-1.15.06-1.17.07.04-3.24a47.61 47.61 0 0 0 2.22.11c-.02-.9-.04-1.82-.08-2.72l-.11-2.75 3.47-.05ZM127.21 61.75a3.2 3.2 0 0 1-.34 1.52c-.23.47-.56.88-.97 1.23a5.3 5.3 0 0 1-4.56.94 4.25 4.25 0 0 1-1.27-.59c-.4-.27-.8-.63-1.16-1.08-.36-.45-.68-1-.96-1.64-.27-.65-.49-1.4-.66-2.27-.16-.87-.25-1.88-.28-3-.02-1.07.04-2.01.17-2.83.14-.82.33-1.54.57-2.15.25-.61.55-1.12.89-1.53.33-.42.7-.76 1.08-1.01.4-.27.8-.45 1.22-.56a5.03 5.03 0 0 1 3 .13 4.13 4.13 0 0 1 2.45 2.29 5.23 5.23 0 0 1 .04 3.92c-.25.66-.64 1.3-1.16 1.9a8.84 8.84 0 0 1-1.93 1.63c-.77.48-1.65.86-2.66 1.14.07.57.15 1.08.26 1.55.12.46.26.86.42 1.19.17.33.37.58.58.76.22.19.47.28.76.28.18-.01.35-.04.51-.1.15-.04.3-.12.44-.22.15-.1.27-.24.37-.44-.24-.1-.42-.25-.55-.42a2.37 2.37 0 0 1-.3-.5 1.94 1.94 0 0 1 .1-1.64 2.02 2.02 0 0 1 1.33-.95c.24-.06.44-.1.58-.1.16 0 .34.04.56.1.23.07.45.19.67.37.21.18.4.44.55.78.16.33.24.76.25 1.3Zm-3.54-8.6a4.31 4.31 0 0 0-.4-1.7c-.1-.23-.25-.4-.43-.53a.88.88 0 0 0-.57-.2c-.38 0-.68.17-.91.52-.23.33-.41.78-.55 1.35-.13.56-.22 1.22-.26 1.95-.04.74-.05 1.51-.04 2.31l.02 1a6.75 6.75 0 0 0 2.28-1.98 4.92 4.92 0 0 0 .86-2.72ZM134.92 65.25l-3.65.27a99.92 99.92 0 0 0 .13-12.5 71.5 71.5 0 0 0-.23-3.34l3.07-.17a13.52 13.52 0 0 0-.03 1.15 4.15 4.15 0 0 1 2.07-1.76c.37-.16.75-.25 1.13-.29.66 0 1.24.1 1.71.32.48.2.87.46 1.18.79a3.49 3.49 0 0 1 .9 2.23c.01.38-.02.77-.1 1.16-.07.4-.2.75-.4 1.07-.18.3-.44.56-.76.76-.32.2-.71.29-1.19.29a2.1 2.1 0 0 1-1.12-.26c-.28-.17-.5-.38-.64-.62s-.24-.5-.29-.75a4.91 4.91 0 0 1-.07-.67 2.19 2.19 0 0 1 .25-.92c.1-.16.2-.32.34-.47.13-.17.29-.32.47-.45a1.01 1.01 0 0 0-.34-.06c-.46 0-.86.15-1.21.44a3.5 3.5 0 0 0-.9 1.19 8.65 8.65 0 0 0-.62 1.8c-.15.7-.25 1.45-.32 2.27.07 1.41.16 2.81.27 4.2l.35 4.32ZM148.34 43.66a2602.2 2602.2 0 0 0-.16 5.77l-.02 2.4-.01 2.24.01 2.22.05 2.36.06 2.92c.02 1.04.05 2.2.1 3.46l-3.11-.07a158.45 158.45 0 0 0-.03-8.17 312.59 312.59 0 0 0-.3-9.4l-.15-3.8 3.56.07ZM159.59 65.25a24.27 24.27 0 0 1-.3-1.77c-.4.62-.9 1.1-1.48 1.43a3.7 3.7 0 0 1-3 .32c-.37-.1-.72-.3-1.03-.58-.31-.29-.57-.67-.78-1.15-.2-.5-.3-1.11-.32-1.86a4.28 4.28 0 0 1 1.9-3.73c.35-.26.7-.49 1.06-.69l1.03-.56a6.62 6.62 0 0 0 1.81-1.53c.3-.36.53-.74.7-1.13a8.7 8.7 0 0 0-.23-1.55c-.1-.4-.23-.73-.39-.97a1.25 1.25 0 0 0-.58-.5c-.22-.1-.47-.15-.76-.15-.42 0-.77.09-1.06.27-.28.18-.5.4-.68.66a2.13 2.13 0 0 1 .83.94c.07.17.11.35.13.53 0 .62-.16 1.1-.5 1.42-.35.33-.8.5-1.34.5-.28 0-.54-.07-.78-.2a2.2 2.2 0 0 1-.64-.56 2.89 2.89 0 0 1-.43-.84 3.22 3.22 0 0 1 .06-2.28c.17-.43.44-.83.82-1.2.37-.37.86-.67 1.45-.91.6-.25 1.33-.37 2.18-.37a4.43 4.43 0 0 1 3.74 1.83c.4.55.7 1.18.9 1.9.19.72.3 1.46.3 2.23.02.57.03 1.2.03 1.87a151.33 151.33 0 0 0 .08 3.86 49.9 49.9 0 0 0 .23 3.28c.05.48.12.91.2 1.3l-3.16.19Zm-.37-8.01c-.31.38-.65.7-1 .98-.27.2-.57.4-.88.64-.3.24-.6.5-.86.76s-.48.54-.65.83c-.17.28-.25.57-.25.87.01.41.12.77.32 1.06.21.29.5.43.86.43.34 0 .64-.09.9-.27.26-.18.49-.4.68-.67a7.16 7.16 0 0 0 .83-1.72l.05-2.91ZM177.24 44.17a213.22 213.22 0 0 0-.33 15.84c.03 1.78.1 3.56.18 5.35l-3.11.05.04-2.7a5.51 5.51 0 0 1-2.13 2.4 2.8 2.8 0 0 1-1.1.36c-.46 0-.93-.14-1.41-.4a3.71 3.71 0 0 1-1.31-1.37c-.4-.64-.73-1.5-1-2.58a18.89 18.89 0 0 1-.45-4.07c-.02-1.08.03-2.03.14-2.85.1-.83.27-1.55.48-2.16.2-.6.45-1.12.73-1.53.3-.42.6-.75.94-1 .34-.26.7-.45 1.07-.56.37-.1.74-.16 1.1-.16.25.02.51.08.8.18a5.3 5.3 0 0 1 1.77 1.19c-.1-2.03-.22-4.04-.36-6.04l3.95.05Zm-3.25 13.97c-.04-1.76-.1-3.52-.19-5.29a12.93 12.93 0 0 0-.72-.88 1.87 1.87 0 0 0-.44-.32 1.05 1.05 0 0 0-.5-.13c-.25 0-.5.1-.77.28a2.2 2.2 0 0 0-.68.91c-.2.43-.36 1-.48 1.73-.12.72-.16 1.62-.14 2.72.02 1 .08 1.85.19 2.51.1.67.23 1.2.4 1.6.16.4.34.67.55.83.2.16.41.24.64.24.35 0 .64-.12.89-.35.25-.23.45-.52.6-.84.17-.33.3-.67.41-1.01l.26-.9-.02-1.1ZM191.54 61.75c0 .54-.1 1.04-.34 1.52-.24.47-.56.88-.98 1.23a5.3 5.3 0 0 1-4.56.94 4.24 4.24 0 0 1-1.27-.59c-.4-.27-.79-.63-1.15-1.08-.37-.45-.69-1-.97-1.64-.26-.65-.48-1.4-.66-2.27-.16-.87-.25-1.88-.27-3-.02-1.07.03-2.01.16-2.83.14-.82.33-1.54.57-2.15a6 6 0 0 1 .89-1.53c.34-.42.7-.76 1.09-1.01.4-.27.8-.45 1.22-.56a5.04 5.04 0 0 1 3 .13 4.12 4.12 0 0 1 2.44 2.29 5.23 5.23 0 0 1 .04 3.92c-.25.66-.63 1.3-1.15 1.9a8.82 8.82 0 0 1-1.94 1.63c-.76.48-1.65.86-2.66 1.14.07.57.16 1.08.27 1.55.12.46.26.86.42 1.19.17.33.36.58.57.76.23.19.48.28.76.28.18-.01.35-.04.52-.1.14-.04.29-.12.43-.22.15-.1.28-.24.38-.44-.24-.1-.43-.25-.56-.42a2.42 2.42 0 0 1-.3-.5 1.94 1.94 0 0 1 .1-1.64 2.02 2.02 0 0 1 1.33-.95c.24-.06.44-.1.58-.1.16 0 .35.04.57.1.23.07.45.19.66.37.21.18.4.44.55.78.16.33.25.76.26 1.3Zm-3.55-8.6a4.44 4.44 0 0 0-.39-1.7c-.11-.23-.26-.4-.43-.53a.89.89 0 0 0-.58-.2c-.37 0-.68.17-.9.52-.24.33-.42.78-.55 1.35-.14.56-.23 1.22-.27 1.95-.04.74-.05 1.51-.03 2.31l.02 1a6.78 6.78 0 0 0 2.27-1.98 4.9 4.9 0 0 0 .86-2.72ZM199.04 49.54l-.06 1.12a3.76 3.76 0 0 1 1.88-1.7 2.47 2.47 0 0 1 1.05-.2 3.33 3.33 0 0 1 3.05 1.82c.33.58.6 1.3.76 2.15.18.84.28 1.79.3 2.85a73.94 73.94 0 0 1-.08 4.84c-.05.8-.12 1.59-.22 2.35-.1.77-.23 1.5-.41 2.2l-3.2-.4a46.99 46.99 0 0 0 .71-7.74c-.01-.87-.06-1.62-.12-2.26a6.73 6.73 0 0 0-.34-1.6 2.09 2.09 0 0 0-.59-.95 1.43 1.43 0 0 0-.95-.32c-.25.06-.5.24-.75.55-.22.26-.44.69-.68 1.27-.23.57-.43 1.38-.59 2.43a79 79 0 0 0-.01 2.12l.04 2.22.04 2.14c.02.77.04 1.63.08 2.6l-3.1-.07v-2.95a199.52 199.52 0 0 0-.16-7.6c-.04-1.48-.11-3.12-.2-4.92l3.55.05Z"/></mask><path d="M43.7 12.06a214.13 214.13 0 0 0-.19 4.61l-.01 1.53a55.66 55.66 0 0 0 .1 2.48l.07 1.28.07 1.57.07 2.03c.02.9-.06 1.79-.22 2.63-.17.85-.46 1.6-.89 2.26-.42.65-1 1.17-1.73 1.56a5.8 5.8 0 0 1-2.76.59c-.66 0-1.25-.08-1.76-.24a4.34 4.34 0 0 1-2.31-1.56A5.82 5.82 0 0 1 33 27.27c0-.5.06-.93.22-1.27a2.26 2.26 0 0 1 2.02-1.35c.2 0 .44.04.7.12.28.08.54.2.8.4a2.25 2.25 0 0 1 .9 1.83c0 .34-.07.65-.2.94-.1.25-.27.5-.5.74-.22.24-.55.4-.99.5.17.27.36.49.56.65a2.81 2.81 0 0 0 1.73.56c.49 0 .87-.1 1.16-.29.29-.2.5-.47.65-.82a4 4 0 0 0 .28-1.23c.05-.47.06-.98.05-1.53a493.43 493.43 0 0 0-.2-7.3c-.05-1.19-.12-2.38-.2-3.56-.09-1.19-.2-2.36-.36-3.53a6.51 6.51 0 0 0 1.52.1 26.65 26.65 0 0 0 2.57-.16ZM58.39 28.75a3.2 3.2 0 0 1-.34 1.52c-.24.48-.57.89-.98 1.23a5.3 5.3 0 0 1-4.56.94 4.25 4.25 0 0 1-1.27-.58 5.4 5.4 0 0 1-1.15-1.08c-.37-.45-.69-1-.97-1.64-.26-.65-.48-1.4-.66-2.27-.16-.88-.25-1.88-.27-3-.03-1.07.03-2.02.16-2.84.14-.82.33-1.53.57-2.14.25-.62.55-1.13.89-1.54.34-.41.7-.75 1.09-1 .4-.27.8-.46 1.21-.57a5.04 5.04 0 0 1 3 .14 4.13 4.13 0 0 1 2.45 2.28 5.23 5.23 0 0 1 .04 3.92c-.25.67-.64 1.3-1.15 1.9a8.84 8.84 0 0 1-1.94 1.63c-.77.48-1.65.87-2.66 1.15.07.56.16 1.08.27 1.54.11.47.25.87.42 1.2.17.32.36.58.57.76.22.18.48.27.76.27.18 0 .35-.04.52-.1.14-.04.29-.11.43-.21.15-.1.28-.25.37-.44-.24-.1-.42-.25-.55-.42a2.42 2.42 0 0 1-.3-.5 1.94 1.94 0 0 1 .1-1.64 2.02 2.02 0 0 1 1.33-.95c.24-.07.44-.1.58-.1.16 0 .35.03.57.1.22.06.45.18.66.37.21.18.4.44.55.78.16.32.24.76.26 1.3Zm-3.55-8.6a4.36 4.36 0 0 0-.39-1.7c-.11-.22-.26-.4-.43-.52a.89.89 0 0 0-.58-.2c-.38 0-.68.17-.9.51-.24.34-.42.8-.56 1.36-.13.56-.22 1.21-.26 1.95-.04.74-.05 1.5-.03 2.31l.02 1a6.75 6.75 0 0 0 2.27-1.98 4.9 4.9 0 0 0 .86-2.72ZM67.04 10.92c-.06.94-.1 1.86-.12 2.77l-.09 2.72 1.2-.04 1.2-.07.12 3.5a22.38 22.38 0 0 0-2.57-.29v2.3c0 .76.02 1.52.04 2.3a159.88 159.88 0 0 0 .37 8.26l-3.57-.06a303.57 303.57 0 0 0 .2-12.88l-1.15.07-1.18.07.05-3.24a48.33 48.33 0 0 0 2.22.1l-.08-2.71-.11-2.75 3.47-.05ZM81.85 19.21a41.06 41.06 0 0 0-2.9 5.09 48.74 48.74 0 0 0-2.16 5.15 65.18 65.18 0 0 0 5.28-.5l.15 3.22a69.1 69.1 0 0 0-6.27-.03c-.96.04-1.94.1-2.92.17l-.13-2.63a58.42 58.42 0 0 0 2.97-5.12 75.15 75.15 0 0 0 2.33-5.2c-.9 0-1.77.07-2.6.17-.83.1-1.7.23-2.62.4l-.23-3.27c.38.02.76.02 1.14.02h1.13a72.89 72.89 0 0 0 6.6-.27l.23 2.8ZM90.82 10.92c-.06.94-.1 1.86-.13 2.77l-.08 2.72 1.19-.04 1.2-.07.12 3.5a22.39 22.39 0 0 0-2.56-.29v2.3c0 .76.02 1.52.04 2.3a159.43 159.43 0 0 0 .37 8.26l-3.58-.06a303.57 303.57 0 0 0 .2-12.88l-1.14.07-1.18.07.05-3.24a48.3 48.3 0 0 0 2.21.1c-.01-.9-.04-1.8-.08-2.71l-.1-2.75 3.47-.05ZM105.97 30.07a165.16 165.16 0 0 0-.38-6.34 57.68 57.68 0 0 1-.06-4.54c.03-.8.12-1.58.25-2.31.13-.75.32-1.45.56-2.1a5.8 5.8 0 0 1 .97-1.7 4.34 4.34 0 0 1 3.56-1.58c.77 0 1.44.13 2 .37.57.24 1.06.57 1.46.99.4.42.74.9 1 1.47.27.57.47 1.18.62 1.84.16.65.28 1.33.34 2.05a27.62 27.62 0 0 1 .08 4.47l-.04 1.28-.03 1.89a1517.17 1517.17 0 0 0-.09 6.2l-4.09-.15a94.25 94.25 0 0 0 .6-6.04 25.36 25.36 0 0 0-3.55-.03 170.56 170.56 0 0 0 .28 3.1 86.51 86.51 0 0 0 .4 3.1l-3.86.1v-1.02l-.02-1.05Zm2.98-7.11.8.03h.79c.97 0 1.75-.03 2.35-.09l.12-1.95c.05-.66.07-1.36.06-2.1a10.22 10.22 0 0 0-.57-3.6c-.33-.83-.81-1.24-1.44-1.24-.35 0-.67.12-.95.36-.29.25-.54.63-.75 1.15-.2.51-.35 1.16-.46 1.94a18.78 18.78 0 0 0-.08 3.98l.13 1.52ZM124.56 16.55l-.06 1.12c.29-.5.6-.88.93-1.15.34-.26.66-.45.94-.56a2.48 2.48 0 0 1 1.05-.2 3.33 3.33 0 0 1 3.05 1.83c.34.58.6 1.3.76 2.14.19.84.29 1.8.3 2.86a73.94 73.94 0 0 1-.08 4.84c-.04.8-.12 1.58-.22 2.35s-.23 1.5-.41 2.19l-3.2-.39a46.99 46.99 0 0 0 .72-7.75c-.02-.86-.06-1.61-.13-2.25a6.73 6.73 0 0 0-.33-1.6 2.09 2.09 0 0 0-.6-.96 1.43 1.43 0 0 0-.95-.31c-.25.05-.5.23-.75.54-.22.27-.44.7-.67 1.28-.24.57-.44 1.38-.6 2.43a79 79 0 0 0-.01 2.12l.04 2.21.04 2.15.08 2.6-3.1-.07V29a209.88 209.88 0 0 0-.16-7.6c-.04-1.47-.11-3.11-.2-4.92l3.56.06ZM139.27 10.67a2602.2 2602.2 0 0 0-.16 5.77l-.02 2.4-.02 2.23.02 2.23.05 2.35.06 2.93a254 254 0 0 0 .1 3.46l-3.11-.07a154 154 0 0 0 .03-4.06 310.47 310.47 0 0 0-.37-13.52l-.14-3.8 3.56.08ZM153.74 28.75a3.2 3.2 0 0 1-.34 1.52c-.24.48-.56.89-.97 1.23a5.3 5.3 0 0 1-4.56.94 4.24 4.24 0 0 1-1.27-.58c-.41-.28-.8-.64-1.16-1.08-.37-.45-.69-1-.96-1.64-.27-.65-.49-1.4-.66-2.27-.16-.88-.26-1.88-.28-3-.02-1.07.03-2.02.16-2.84.14-.82.33-1.53.58-2.14.25-.62.54-1.13.88-1.54.34-.41.7-.75 1.09-1 .4-.27.8-.46 1.22-.57a5.04 5.04 0 0 1 3 .14 4.13 4.13 0 0 1 2.45 2.28 5.23 5.23 0 0 1 .04 3.92c-.26.67-.64 1.3-1.16 1.9a8.84 8.84 0 0 1-1.94 1.63c-.76.48-1.65.87-2.65 1.15.06.56.15 1.08.26 1.54.12.47.26.87.42 1.2.17.32.36.58.58.76.22.18.47.27.75.27.19 0 .36-.04.52-.1.14-.04.29-.11.43-.21.16-.1.28-.25.38-.44-.24-.1-.43-.25-.56-.42a2.42 2.42 0 0 1-.3-.5 1.94 1.94 0 0 1 .1-1.64 2.03 2.03 0 0 1 1.33-.95c.25-.07.44-.1.59-.1.15 0 .34.03.56.1.23.06.45.18.66.37.22.18.4.44.55.78.16.32.25.76.26 1.3Zm-3.55-8.6a4.44 4.44 0 0 0-.38-1.7c-.12-.22-.26-.4-.44-.52a.89.89 0 0 0-.58-.2c-.37 0-.67.17-.9.51a4.1 4.1 0 0 0-.55 1.36c-.14.56-.22 1.21-.26 1.95-.04.74-.06 1.5-.04 2.31l.02 1a6.78 6.78 0 0 0 2.27-1.98 4.9 4.9 0 0 0 .86-2.72ZM161.38 12.52a2.05 2.05 0 0 1-1.26 1.97 2.18 2.18 0 0 1-1.65 0 2.4 2.4 0 0 1-1.16-1.14 2.2 2.2 0 0 1-.03-1.65 2.06 2.06 0 0 1 1.11-1.13 2 2 0 0 1 1.66 0 2.14 2.14 0 0 1 1.33 1.95Zm.09 4.14a66.88 66.88 0 0 0-.22 4.9 256.2 256.2 0 0 0 0 5.16v2.25l.04 1.8.03 1.54-3.1.1V30.6l-.04-1.78a162.58 162.58 0 0 0-.24-5.96 119.94 119.94 0 0 0-.5-6.14l4.03-.05ZM170.63 10.92c-.05.94-.1 1.86-.12 2.77l-.09 2.72 1.2-.04 1.2-.07.12 3.5a22.4 22.4 0 0 0-2.56-.29c-.02.78-.02 1.54-.01 2.3l.04 2.3a158.98 158.98 0 0 0 .37 8.26l-3.57-.06a306.28 306.28 0 0 0 .2-12.88l-1.15.07-1.17.07.04-3.24a48.52 48.52 0 0 0 2.22.1l-.08-2.71-.11-2.75 3.47-.05ZM183.67 31.83l.03-1.04.07-.97a4.3 4.3 0 0 1-1.94 1.91c-.35.17-.7.27-1.04.3-.68 0-1.27-.16-1.78-.5-.5-.34-.93-.82-1.27-1.44a8.04 8.04 0 0 1-.78-2.22c-.17-.88-.27-1.85-.29-2.93-.03-1.5-.01-2.96.05-4.37.07-1.42.2-2.8.4-4.16l3.48.38a47.92 47.92 0 0 0-.65 5.09c-.05.7-.08 1.31-.08 1.83.02.87.06 1.62.13 2.27.07.64.17 1.17.32 1.6.15.42.35.73.6.94.25.21.57.32.95.32.27-.05.52-.23.77-.55.1-.14.22-.31.33-.52a10.44 10.44 0 0 0 .66-1.89c.1-.41.2-.9.29-1.46v-1.6l-.04-1.73-.04-2.15c-.02-.77-.04-1.64-.08-2.61l3.1.05a93.1 93.1 0 0 0 .07 10.3l.13 2.32.16 2.89-3.55-.06ZM195.15 16.55l-.06 1.12c.29-.5.6-.88.93-1.15.34-.26.66-.45.95-.56a2.47 2.47 0 0 1 1.05-.2 3.34 3.34 0 0 1 3.04 1.83 7 7 0 0 1 .77 2.14c.18.84.28 1.8.3 2.86a73.94 73.94 0 0 1-.08 4.84c-.05.8-.13 1.58-.23 2.35s-.23 1.5-.4 2.19l-3.2-.39a46.99 46.99 0 0 0 .7-7.75c-.01-.86-.05-1.61-.12-2.25a6.73 6.73 0 0 0-.33-1.6 2.09 2.09 0 0 0-.6-.96 1.43 1.43 0 0 0-.94-.31c-.26.05-.51.23-.76.54-.21.27-.44.7-.67 1.28-.24.57-.43 1.38-.6 2.43v2.12l.03 2.21.05 2.15c.01.76.04 1.63.08 2.6l-3.1-.07-.01-2.96a198.87 198.87 0 0 0-.15-7.6l-.2-4.92 3.55.06ZM216.8 16.38a286.39 286.39 0 0 0-.19 3.38 109.05 109.05 0 0 0-.11 6.67 74.46 74.46 0 0 0-.03 3.2c.02 1.05 0 2.05-.04 3-.05.95-.15 1.83-.32 2.64a5.8 5.8 0 0 1-.82 2.12c-.39.6-.92 1.07-1.6 1.41-.66.34-1.53.5-2.6.5a4.5 4.5 0 0 1-1.94-.35 2.79 2.79 0 0 1-1.62-1.9c-.09-.37-.13-.7-.14-1 0-.3.04-.6.12-.87.1-.27.23-.5.4-.7a1.87 1.87 0 0 1 1.48-.65 2.06 2.06 0 0 1 1.56.68c.18.2.32.44.42.7.1.25.16.5.16.76-.01.15-.05.3-.1.45a2.33 2.33 0 0 1-.69.9c.21.08.4.11.59.11.24 0 .49-.07.75-.21.26-.14.5-.36.7-.66.22-.3.4-.68.53-1.13.14-.46.21-1 .22-1.63L213.5 30c-.35.6-.7 1.07-1.07 1.41-.36.33-.68.57-.98.72-.35.19-.69.3-1 .33-.47 0-.94-.13-1.42-.4a3.7 3.7 0 0 1-1.31-1.36c-.4-.65-.73-1.5-1-2.58a18.96 18.96 0 0 1-.45-4.08c-.02-1.07.03-2.02.14-2.84.1-.83.27-1.55.47-2.16.21-.61.46-1.12.74-1.53.3-.42.6-.76.94-1.01.34-.26.7-.44 1.07-.55.37-.1.74-.16 1.1-.16.28.01.58.08.88.19a4.55 4.55 0 0 1 1.9 1.37l.05-1.32 3.22.34Zm-3.31 3.48a4.27 4.27 0 0 0-.76-.93c-.28-.27-.59-.4-.92-.4-.26 0-.52.1-.78.27a2.2 2.2 0 0 0-.68.92c-.2.43-.36 1-.48 1.72s-.16 1.63-.14 2.72c.02 1.01.08 1.85.19 2.52.1.66.23 1.2.4 1.6.16.39.34.67.55.83.2.16.41.23.64.23.3 0 .56-.09.78-.27.22-.18.4-.4.56-.66.15-.26.27-.53.36-.82.1-.28.2-.53.26-.74l-.01-3.52c0-1.16 0-2.32.03-3.47ZM37.73 43.88a506.7 506.7 0 0 0-.23 7.06 4.48 4.48 0 0 1 2.13-2.14c.4-.18.8-.29 1.21-.32.66 0 1.22.16 1.7.47.46.32.86.78 1.17 1.37.31.6.54 1.3.7 2.15.15.83.24 1.76.26 2.79.03 1.72 0 3.39-.08 5-.08 1.6-.29 3.17-.62 4.7l-3.2-.38a52.38 52.38 0 0 0 .63-5.5 35.34 35.34 0 0 0-.03-4.5 7.36 7.36 0 0 0-.22-1.6c-.1-.44-.28-.75-.5-.96a1.3 1.3 0 0 0-.92-.32c-.3.05-.6.23-.88.55a3.1 3.1 0 0 0-.37.52 6.62 6.62 0 0 0-.73 1.84c-.11.41-.2.89-.29 1.42a141.81 141.81 0 0 0 .06 5.53l.03 1.73c.01.59.03 1.16.06 1.74l-3.1-.07c.07-1.67.1-3.33.12-5a153.63 153.63 0 0 0-.22-10.58c-.1-1.84-.23-3.7-.39-5.55l3.71.05ZM59.03 61.75a3.2 3.2 0 0 1-.33 1.52c-.24.47-.57.88-.98 1.23a5.3 5.3 0 0 1-4.56.94 4.25 4.25 0 0 1-1.27-.59 5.4 5.4 0 0 1-1.16-1.08c-.36-.45-.68-1-.96-1.64-.27-.65-.49-1.4-.66-2.27-.16-.87-.25-1.88-.28-3-.02-1.07.04-2.01.17-2.83.14-.82.33-1.54.57-2.15.25-.61.55-1.12.89-1.53.33-.42.7-.76 1.08-1.01.4-.27.8-.45 1.22-.56a5.03 5.03 0 0 1 3 .13 4.13 4.13 0 0 1 2.45 2.29 5.23 5.23 0 0 1 .04 3.92c-.25.66-.64 1.3-1.15 1.9a8.83 8.83 0 0 1-1.94 1.63c-.77.48-1.65.86-2.66 1.14.07.57.16 1.08.26 1.55.12.46.26.86.42 1.19.18.33.37.58.58.76.22.19.48.28.76.28.18-.01.35-.04.52-.1.14-.04.28-.12.43-.22.15-.1.28-.24.37-.44-.24-.1-.42-.25-.55-.42a2.41 2.41 0 0 1-.3-.5 1.94 1.94 0 0 1 .1-1.64 2.02 2.02 0 0 1 1.33-.95c.24-.06.44-.1.58-.1.16 0 .34.04.56.1.23.07.45.19.67.37.21.18.4.44.55.78.16.33.24.76.25 1.3Zm-3.54-8.6a4.38 4.38 0 0 0-.4-1.7c-.1-.23-.25-.4-.42-.53a.89.89 0 0 0-.58-.2c-.38 0-.68.17-.9.52-.24.33-.42.78-.56 1.35a11.1 11.1 0 0 0-.26 1.95c-.04.74-.05 1.51-.04 2.31l.02 1a6.75 6.75 0 0 0 2.28-1.98 4.9 4.9 0 0 0 .86-2.72ZM66.74 65.25l-3.64.27a100.45 100.45 0 0 0 .12-12.5 71.9 71.9 0 0 0-.23-3.34l3.07-.17a13.69 13.69 0 0 0-.03 1.15 4.17 4.17 0 0 1 2.07-1.76c.37-.16.75-.25 1.13-.29.66 0 1.24.1 1.71.32.48.2.87.46 1.18.79.3.32.53.68.68 1.08.14.4.22.77.23 1.15 0 .38-.03.77-.1 1.16-.08.4-.21.75-.4 1.07-.2.3-.45.56-.77.76-.32.2-.71.29-1.18.29-.48 0-.85-.09-1.13-.26a2 2 0 0 1-.64-.62c-.14-.24-.24-.5-.29-.75a5.07 5.07 0 0 1-.07-.67 2.21 2.21 0 0 1 .26-.92c.09-.16.2-.32.33-.47.13-.17.3-.32.47-.45a1.02 1.02 0 0 0-.34-.06c-.46 0-.86.15-1.21.44a3.5 3.5 0 0 0-.9 1.19 8.67 8.67 0 0 0-.61 1.8c-.15.7-.26 1.45-.33 2.27.07 1.41.17 2.81.28 4.2l.34 4.32ZM83.73 64.82l.04-1.03.06-.98a4.3 4.3 0 0 1-1.93 1.92c-.35.16-.7.26-1.05.3-.67 0-1.26-.17-1.77-.5-.5-.34-.93-.82-1.27-1.44a8.04 8.04 0 0 1-.79-2.23c-.17-.88-.26-1.85-.29-2.93a67.9 67.9 0 0 1 .06-4.37c.07-1.41.2-2.8.4-4.16l3.47.39a47.97 47.97 0 0 0-.65 5.08c-.05.7-.07 1.32-.07 1.83.01.87.06 1.63.12 2.27.07.64.18 1.17.32 1.6.16.42.36.74.6.95.26.2.58.31.96.31.26-.05.52-.23.77-.55.1-.13.21-.3.33-.52a10.37 10.37 0 0 0 .66-1.89c.1-.41.2-.9.28-1.45v-1.6l-.03-1.74-.05-2.15c-.01-.77-.04-1.64-.08-2.6l3.11.05a98.46 98.46 0 0 0 .2 12.61l.16 2.89-3.56-.06ZM95.21 49.54l-.06 1.12a3.76 3.76 0 0 1 1.88-1.7 2.47 2.47 0 0 1 1.05-.2 3.33 3.33 0 0 1 3.05 1.82c.34.58.59 1.3.76 2.15.18.84.28 1.79.3 2.85a68.68 68.68 0 0 1-.08 4.84c-.05.8-.12 1.59-.23 2.35-.09.77-.23 1.5-.4 2.2l-3.2-.4a46.8 46.8 0 0 0 .71-7.74c-.02-.87-.06-1.62-.12-2.26a6.74 6.74 0 0 0-.34-1.6 2.09 2.09 0 0 0-.59-.95 1.43 1.43 0 0 0-.95-.32c-.25.06-.5.24-.75.55-.22.26-.44.69-.68 1.27-.23.57-.43 1.38-.6 2.43a83.4 83.4 0 0 0 0 2.12L95 60.3l.04 2.14c.02.77.04 1.63.08 2.6l-3.1-.07v-2.95a201.98 201.98 0 0 0-.16-7.6c-.04-1.48-.11-3.12-.2-4.92l3.55.05ZM111.24 43.91c-.05.94-.1 1.86-.12 2.77l-.09 2.73 1.2-.05 1.2-.06.12 3.5a22.4 22.4 0 0 0-2.56-.3c-.02.78-.02 1.55-.01 2.3l.04 2.3a158.96 158.96 0 0 0 .37 8.26l-3.57-.06a306.3 306.3 0 0 0 .2-12.87l-1.15.06-1.17.07.04-3.24a47.61 47.61 0 0 0 2.22.11c-.02-.9-.04-1.82-.08-2.72l-.11-2.75 3.47-.05ZM127.21 61.75a3.2 3.2 0 0 1-.34 1.52c-.23.47-.56.88-.97 1.23a5.3 5.3 0 0 1-4.56.94 4.25 4.25 0 0 1-1.27-.59c-.4-.27-.8-.63-1.16-1.08-.36-.45-.68-1-.96-1.64-.27-.65-.49-1.4-.66-2.27-.16-.87-.25-1.88-.28-3-.02-1.07.04-2.01.17-2.83.14-.82.33-1.54.57-2.15.25-.61.55-1.12.89-1.53.33-.42.7-.76 1.08-1.01.4-.27.8-.45 1.22-.56a5.03 5.03 0 0 1 3 .13 4.13 4.13 0 0 1 2.45 2.29 5.23 5.23 0 0 1 .04 3.92c-.25.66-.64 1.3-1.16 1.9a8.84 8.84 0 0 1-1.93 1.63c-.77.48-1.65.86-2.66 1.14.07.57.15 1.08.26 1.55.12.46.26.86.42 1.19.17.33.37.58.58.76.22.19.47.28.76.28.18-.01.35-.04.51-.1.15-.04.3-.12.44-.22.15-.1.27-.24.37-.44-.24-.1-.42-.25-.55-.42a2.37 2.37 0 0 1-.3-.5 1.94 1.94 0 0 1 .1-1.64 2.02 2.02 0 0 1 1.33-.95c.24-.06.44-.1.58-.1.16 0 .34.04.56.1.23.07.45.19.67.37.21.18.4.44.55.78.16.33.24.76.25 1.3Zm-3.54-8.6a4.31 4.31 0 0 0-.4-1.7c-.1-.23-.25-.4-.43-.53a.88.88 0 0 0-.57-.2c-.38 0-.68.17-.91.52-.23.33-.41.78-.55 1.35-.13.56-.22 1.22-.26 1.95-.04.74-.05 1.51-.04 2.31l.02 1a6.75 6.75 0 0 0 2.28-1.98 4.92 4.92 0 0 0 .86-2.72ZM134.92 65.25l-3.65.27a99.92 99.92 0 0 0 .13-12.5 71.5 71.5 0 0 0-.23-3.34l3.07-.17a13.52 13.52 0 0 0-.03 1.15 4.15 4.15 0 0 1 2.07-1.76c.37-.16.75-.25 1.13-.29.66 0 1.24.1 1.71.32.48.2.87.46 1.18.79a3.49 3.49 0 0 1 .9 2.23c.01.38-.02.77-.1 1.16-.07.4-.2.75-.4 1.07-.18.3-.44.56-.76.76-.32.2-.71.29-1.19.29a2.1 2.1 0 0 1-1.12-.26c-.28-.17-.5-.38-.64-.62s-.24-.5-.29-.75a4.91 4.91 0 0 1-.07-.67 2.19 2.19 0 0 1 .25-.92c.1-.16.2-.32.34-.47.13-.17.29-.32.47-.45a1.01 1.01 0 0 0-.34-.06c-.46 0-.86.15-1.21.44a3.5 3.5 0 0 0-.9 1.19 8.65 8.65 0 0 0-.62 1.8c-.15.7-.25 1.45-.32 2.27.07 1.41.16 2.81.27 4.2l.35 4.32ZM148.34 43.66a2602.2 2602.2 0 0 0-.16 5.77l-.02 2.4-.01 2.24.01 2.22.05 2.36.06 2.92c.02 1.04.05 2.2.1 3.46l-3.11-.07a158.45 158.45 0 0 0-.03-8.17 312.59 312.59 0 0 0-.3-9.4l-.15-3.8 3.56.07ZM159.59 65.25a24.27 24.27 0 0 1-.3-1.77c-.4.62-.9 1.1-1.48 1.43a3.7 3.7 0 0 1-3 .32c-.37-.1-.72-.3-1.03-.58-.31-.29-.57-.67-.78-1.15-.2-.5-.3-1.11-.32-1.86a4.28 4.28 0 0 1 1.9-3.73c.35-.26.7-.49 1.06-.69l1.03-.56a6.62 6.62 0 0 0 1.81-1.53c.3-.36.53-.74.7-1.13a8.7 8.7 0 0 0-.23-1.55c-.1-.4-.23-.73-.39-.97a1.25 1.25 0 0 0-.58-.5c-.22-.1-.47-.15-.76-.15-.42 0-.77.09-1.06.27-.28.18-.5.4-.68.66a2.13 2.13 0 0 1 .83.94c.07.17.11.35.13.53 0 .62-.16 1.1-.5 1.42-.35.33-.8.5-1.34.5-.28 0-.54-.07-.78-.2a2.2 2.2 0 0 1-.64-.56 2.89 2.89 0 0 1-.43-.84 3.22 3.22 0 0 1 .06-2.28c.17-.43.44-.83.82-1.2.37-.37.86-.67 1.45-.91.6-.25 1.33-.37 2.18-.37a4.43 4.43 0 0 1 3.74 1.83c.4.55.7 1.18.9 1.9.19.72.3 1.46.3 2.23.02.57.03 1.2.03 1.87a151.33 151.33 0 0 0 .08 3.86 49.9 49.9 0 0 0 .23 3.28c.05.48.12.91.2 1.3l-3.16.19Zm-.37-8.01c-.31.38-.65.7-1 .98-.27.2-.57.4-.88.64-.3.24-.6.5-.86.76s-.48.54-.65.83c-.17.28-.25.57-.25.87.01.41.12.77.32 1.06.21.29.5.43.86.43.34 0 .64-.09.9-.27.26-.18.49-.4.68-.67a7.16 7.16 0 0 0 .83-1.72l.05-2.91ZM177.24 44.17a213.22 213.22 0 0 0-.33 15.84c.03 1.78.1 3.56.18 5.35l-3.11.05.04-2.7a5.51 5.51 0 0 1-2.13 2.4 2.8 2.8 0 0 1-1.1.36c-.46 0-.93-.14-1.41-.4a3.71 3.71 0 0 1-1.31-1.37c-.4-.64-.73-1.5-1-2.58a18.89 18.89 0 0 1-.45-4.07c-.02-1.08.03-2.03.14-2.85.1-.83.27-1.55.48-2.16.2-.6.45-1.12.73-1.53.3-.42.6-.75.94-1 .34-.26.7-.45 1.07-.56.37-.1.74-.16 1.1-.16.25.02.51.08.8.18a5.3 5.3 0 0 1 1.77 1.19c-.1-2.03-.22-4.04-.36-6.04l3.95.05Zm-3.25 13.97c-.04-1.76-.1-3.52-.19-5.29a12.93 12.93 0 0 0-.72-.88 1.87 1.87 0 0 0-.44-.32 1.05 1.05 0 0 0-.5-.13c-.25 0-.5.1-.77.28a2.2 2.2 0 0 0-.68.91c-.2.43-.36 1-.48 1.73-.12.72-.16 1.62-.14 2.72.02 1 .08 1.85.19 2.51.1.67.23 1.2.4 1.6.16.4.34.67.55.83.2.16.41.24.64.24.35 0 .64-.12.89-.35.25-.23.45-.52.6-.84.17-.33.3-.67.41-1.01l.26-.9-.02-1.1ZM191.54 61.75c0 .54-.1 1.04-.34 1.52-.24.47-.56.88-.98 1.23a5.3 5.3 0 0 1-4.56.94 4.24 4.24 0 0 1-1.27-.59c-.4-.27-.79-.63-1.15-1.08-.37-.45-.69-1-.97-1.64-.26-.65-.48-1.4-.66-2.27-.16-.87-.25-1.88-.27-3-.02-1.07.03-2.01.16-2.83.14-.82.33-1.54.57-2.15a6 6 0 0 1 .89-1.53c.34-.42.7-.76 1.09-1.01.4-.27.8-.45 1.22-.56a5.04 5.04 0 0 1 3 .13 4.12 4.12 0 0 1 2.44 2.29 5.23 5.23 0 0 1 .04 3.92c-.25.66-.63 1.3-1.15 1.9a8.82 8.82 0 0 1-1.94 1.63c-.76.48-1.65.86-2.66 1.14.07.57.16 1.08.27 1.55.12.46.26.86.42 1.19.17.33.36.58.57.76.23.19.48.28.76.28.18-.01.35-.04.52-.1.14-.04.29-.12.43-.22.15-.1.28-.24.38-.44-.24-.1-.43-.25-.56-.42a2.42 2.42 0 0 1-.3-.5 1.94 1.94 0 0 1 .1-1.64 2.02 2.02 0 0 1 1.33-.95c.24-.06.44-.1.58-.1.16 0 .35.04.57.1.23.07.45.19.66.37.21.18.4.44.55.78.16.33.25.76.26 1.3Zm-3.55-8.6a4.44 4.44 0 0 0-.39-1.7c-.11-.23-.26-.4-.43-.53a.89.89 0 0 0-.58-.2c-.37 0-.68.17-.9.52-.24.33-.42.78-.55 1.35-.14.56-.23 1.22-.27 1.95-.04.74-.05 1.51-.03 2.31l.02 1a6.78 6.78 0 0 0 2.27-1.98 4.9 4.9 0 0 0 .86-2.72ZM199.04 49.54l-.06 1.12a3.76 3.76 0 0 1 1.88-1.7 2.47 2.47 0 0 1 1.05-.2 3.33 3.33 0 0 1 3.05 1.82c.33.58.6 1.3.76 2.15.18.84.28 1.79.3 2.85a73.94 73.94 0 0 1-.08 4.84c-.05.8-.12 1.59-.22 2.35-.1.77-.23 1.5-.41 2.2l-3.2-.4a46.99 46.99 0 0 0 .71-7.74c-.01-.87-.06-1.62-.12-2.26a6.73 6.73 0 0 0-.34-1.6 2.09 2.09 0 0 0-.59-.95 1.43 1.43 0 0 0-.95-.32c-.25.06-.5.24-.75.55-.22.26-.44.69-.68 1.27-.23.57-.43 1.38-.59 2.43a79 79 0 0 0-.01 2.12l.04 2.22.04 2.14c.02.77.04 1.63.08 2.6l-3.1-.07v-2.95a199.52 199.52 0 0 0-.16-7.6c-.04-1.48-.11-3.12-.2-4.92l3.55.05Z" fill="#fff"/><path d="M43.7 12.06a214.13 214.13 0 0 0-.19 4.61l-.01 1.53a55.66 55.66 0 0 0 .1 2.48l.07 1.28.07 1.57.07 2.03c.02.9-.06 1.79-.22 2.63-.17.85-.46 1.6-.89 2.26-.42.65-1 1.17-1.73 1.56a5.8 5.8 0 0 1-2.76.59c-.66 0-1.25-.08-1.76-.24a4.34 4.34 0 0 1-2.31-1.56A5.82 5.82 0 0 1 33 27.27c0-.5.06-.93.22-1.27a2.26 2.26 0 0 1 2.02-1.35c.2 0 .44.04.7.12.28.08.54.2.8.4a2.25 2.25 0 0 1 .9 1.83c0 .34-.07.65-.2.94-.1.25-.27.5-.5.74-.22.24-.55.4-.99.5.17.27.36.49.56.65a2.81 2.81 0 0 0 1.73.56c.49 0 .87-.1 1.16-.29.29-.2.5-.47.65-.82a4 4 0 0 0 .28-1.23c.05-.47.06-.98.05-1.53a493.43 493.43 0 0 0-.2-7.3c-.05-1.19-.12-2.38-.2-3.56-.09-1.19-.2-2.36-.36-3.53a6.51 6.51 0 0 0 1.52.1 26.65 26.65 0 0 0 2.57-.16ZM58.39 28.75a3.2 3.2 0 0 1-.34 1.52c-.24.48-.57.89-.98 1.23a5.3 5.3 0 0 1-4.56.94 4.25 4.25 0 0 1-1.27-.58 5.4 5.4 0 0 1-1.15-1.08c-.37-.45-.69-1-.97-1.64-.26-.65-.48-1.4-.66-2.27-.16-.88-.25-1.88-.27-3-.03-1.07.03-2.02.16-2.84.14-.82.33-1.53.57-2.14.25-.62.55-1.13.89-1.54.34-.41.7-.75 1.09-1 .4-.27.8-.46 1.21-.57a5.04 5.04 0 0 1 3 .14 4.13 4.13 0 0 1 2.45 2.28 5.23 5.23 0 0 1 .04 3.92c-.25.67-.64 1.3-1.15 1.9a8.84 8.84 0 0 1-1.94 1.63c-.77.48-1.65.87-2.66 1.15.07.56.16 1.08.27 1.54.11.47.25.87.42 1.2.17.32.36.58.57.76.22.18.48.27.76.27.18 0 .35-.04.52-.1.14-.04.29-.11.43-.21.15-.1.28-.25.37-.44-.24-.1-.42-.25-.55-.42a2.42 2.42 0 0 1-.3-.5 1.94 1.94 0 0 1 .1-1.64 2.02 2.02 0 0 1 1.33-.95c.24-.07.44-.1.58-.1.16 0 .35.03.57.1.22.06.45.18.66.37.21.18.4.44.55.78.16.32.24.76.26 1.3Zm-3.55-8.6a4.36 4.36 0 0 0-.39-1.7c-.11-.22-.26-.4-.43-.52a.89.89 0 0 0-.58-.2c-.38 0-.68.17-.9.51-.24.34-.42.8-.56 1.36-.13.56-.22 1.21-.26 1.95-.04.74-.05 1.5-.03 2.31l.02 1a6.75 6.75 0 0 0 2.27-1.98 4.9 4.9 0 0 0 .86-2.72ZM67.04 10.92c-.06.94-.1 1.86-.12 2.77l-.09 2.72 1.2-.04 1.2-.07.12 3.5a22.38 22.38 0 0 0-2.57-.29v2.3c0 .76.02 1.52.04 2.3a159.88 159.88 0 0 0 .37 8.26l-3.57-.06a303.57 303.57 0 0 0 .2-12.88l-1.15.07-1.18.07.05-3.24a48.33 48.33 0 0 0 2.22.1l-.08-2.71-.11-2.75 3.47-.05ZM81.85 19.21a41.06 41.06 0 0 0-2.9 5.09 48.74 48.74 0 0 0-2.16 5.15 65.18 65.18 0 0 0 5.28-.5l.15 3.22a69.1 69.1 0 0 0-6.27-.03c-.96.04-1.94.1-2.92.17l-.13-2.63a58.42 58.42 0 0 0 2.97-5.12 75.15 75.15 0 0 0 2.33-5.2c-.9 0-1.77.07-2.6.17-.83.1-1.7.23-2.62.4l-.23-3.27c.38.02.76.02 1.14.02h1.13a72.89 72.89 0 0 0 6.6-.27l.23 2.8ZM90.82 10.92c-.06.94-.1 1.86-.13 2.77l-.08 2.72 1.19-.04 1.2-.07.12 3.5a22.39 22.39 0 0 0-2.56-.29v2.3c0 .76.02 1.52.04 2.3a159.43 159.43 0 0 0 .37 8.26l-3.58-.06a303.57 303.57 0 0 0 .2-12.88l-1.14.07-1.18.07.05-3.24a48.3 48.3 0 0 0 2.21.1c-.01-.9-.04-1.8-.08-2.71l-.1-2.75 3.47-.05ZM105.97 30.07a165.16 165.16 0 0 0-.38-6.34 57.68 57.68 0 0 1-.06-4.54c.03-.8.12-1.58.25-2.31.13-.75.32-1.45.56-2.1a5.8 5.8 0 0 1 .97-1.7 4.34 4.34 0 0 1 3.56-1.58c.77 0 1.44.13 2 .37.57.24 1.06.57 1.46.99.4.42.74.9 1 1.47.27.57.47 1.18.62 1.84.16.65.28 1.33.34 2.05a27.62 27.62 0 0 1 .08 4.47l-.04 1.28-.03 1.89a1517.17 1517.17 0 0 0-.09 6.2l-4.09-.15a94.25 94.25 0 0 0 .6-6.04 25.36 25.36 0 0 0-3.55-.03 170.56 170.56 0 0 0 .28 3.1 86.51 86.51 0 0 0 .4 3.1l-3.86.1v-1.02l-.02-1.05Zm2.98-7.11.8.03h.79c.97 0 1.75-.03 2.35-.09l.12-1.95c.05-.66.07-1.36.06-2.1a10.22 10.22 0 0 0-.57-3.6c-.33-.83-.81-1.24-1.44-1.24-.35 0-.67.12-.95.36-.29.25-.54.63-.75 1.15-.2.51-.35 1.16-.46 1.94a18.78 18.78 0 0 0-.08 3.98l.13 1.52ZM124.56 16.55l-.06 1.12c.29-.5.6-.88.93-1.15.34-.26.66-.45.94-.56a2.48 2.48 0 0 1 1.05-.2 3.33 3.33 0 0 1 3.05 1.83c.34.58.6 1.3.76 2.14.19.84.29 1.8.3 2.86a73.94 73.94 0 0 1-.08 4.84c-.04.8-.12 1.58-.22 2.35s-.23 1.5-.41 2.19l-3.2-.39a46.99 46.99 0 0 0 .72-7.75c-.02-.86-.06-1.61-.13-2.25a6.73 6.73 0 0 0-.33-1.6 2.09 2.09 0 0 0-.6-.96 1.43 1.43 0 0 0-.95-.31c-.25.05-.5.23-.75.54-.22.27-.44.7-.67 1.28-.24.57-.44 1.38-.6 2.43a79 79 0 0 0-.01 2.12l.04 2.21.04 2.15.08 2.6-3.1-.07V29a209.88 209.88 0 0 0-.16-7.6c-.04-1.47-.11-3.11-.2-4.92l3.56.06ZM139.27 10.67a2602.2 2602.2 0 0 0-.16 5.77l-.02 2.4-.02 2.23.02 2.23.05 2.35.06 2.93a254 254 0 0 0 .1 3.46l-3.11-.07a154 154 0 0 0 .03-4.06 310.47 310.47 0 0 0-.37-13.52l-.14-3.8 3.56.08ZM153.74 28.75a3.2 3.2 0 0 1-.34 1.52c-.24.48-.56.89-.97 1.23a5.3 5.3 0 0 1-4.56.94 4.24 4.24 0 0 1-1.27-.58c-.41-.28-.8-.64-1.16-1.08-.37-.45-.69-1-.96-1.64-.27-.65-.49-1.4-.66-2.27-.16-.88-.26-1.88-.28-3-.02-1.07.03-2.02.16-2.84.14-.82.33-1.53.58-2.14.25-.62.54-1.13.88-1.54.34-.41.7-.75 1.09-1 .4-.27.8-.46 1.22-.57a5.04 5.04 0 0 1 3 .14 4.13 4.13 0 0 1 2.45 2.28 5.23 5.23 0 0 1 .04 3.92c-.26.67-.64 1.3-1.16 1.9a8.84 8.84 0 0 1-1.94 1.63c-.76.48-1.65.87-2.65 1.15.06.56.15 1.08.26 1.54.12.47.26.87.42 1.2.17.32.36.58.58.76.22.18.47.27.75.27.19 0 .36-.04.52-.1.14-.04.29-.11.43-.21.16-.1.28-.25.38-.44-.24-.1-.43-.25-.56-.42a2.42 2.42 0 0 1-.3-.5 1.94 1.94 0 0 1 .1-1.64 2.03 2.03 0 0 1 1.33-.95c.25-.07.44-.1.59-.1.15 0 .34.03.56.1.23.06.45.18.66.37.22.18.4.44.55.78.16.32.25.76.26 1.3Zm-3.55-8.6a4.44 4.44 0 0 0-.38-1.7c-.12-.22-.26-.4-.44-.52a.89.89 0 0 0-.58-.2c-.37 0-.67.17-.9.51a4.1 4.1 0 0 0-.55 1.36c-.14.56-.22 1.21-.26 1.95-.04.74-.06 1.5-.04 2.31l.02 1a6.78 6.78 0 0 0 2.27-1.98 4.9 4.9 0 0 0 .86-2.72ZM161.38 12.52a2.05 2.05 0 0 1-1.26 1.97 2.18 2.18 0 0 1-1.65 0 2.4 2.4 0 0 1-1.16-1.14 2.2 2.2 0 0 1-.03-1.65 2.06 2.06 0 0 1 1.11-1.13 2 2 0 0 1 1.66 0 2.14 2.14 0 0 1 1.33 1.95Zm.09 4.14a66.88 66.88 0 0 0-.22 4.9 256.2 256.2 0 0 0 0 5.16v2.25l.04 1.8.03 1.54-3.1.1V30.6l-.04-1.78a162.58 162.58 0 0 0-.24-5.96 119.94 119.94 0 0 0-.5-6.14l4.03-.05ZM170.63 10.92c-.05.94-.1 1.86-.12 2.77l-.09 2.72 1.2-.04 1.2-.07.12 3.5a22.4 22.4 0 0 0-2.56-.29c-.02.78-.02 1.54-.01 2.3l.04 2.3a158.98 158.98 0 0 0 .37 8.26l-3.57-.06a306.28 306.28 0 0 0 .2-12.88l-1.15.07-1.17.07.04-3.24a48.52 48.52 0 0 0 2.22.1l-.08-2.71-.11-2.75 3.47-.05ZM183.67 31.83l.03-1.04.07-.97a4.3 4.3 0 0 1-1.94 1.91c-.35.17-.7.27-1.04.3-.68 0-1.27-.16-1.78-.5-.5-.34-.93-.82-1.27-1.44a8.04 8.04 0 0 1-.78-2.22c-.17-.88-.27-1.85-.29-2.93-.03-1.5-.01-2.96.05-4.37.07-1.42.2-2.8.4-4.16l3.48.38a47.92 47.92 0 0 0-.65 5.09c-.05.7-.08 1.31-.08 1.83.02.87.06 1.62.13 2.27.07.64.17 1.17.32 1.6.15.42.35.73.6.94.25.21.57.32.95.32.27-.05.52-.23.77-.55.1-.14.22-.31.33-.52a10.44 10.44 0 0 0 .66-1.89c.1-.41.2-.9.29-1.46v-1.6l-.04-1.73-.04-2.15c-.02-.77-.04-1.64-.08-2.61l3.1.05a93.1 93.1 0 0 0 .07 10.3l.13 2.32.16 2.89-3.55-.06ZM195.15 16.55l-.06 1.12c.29-.5.6-.88.93-1.15.34-.26.66-.45.95-.56a2.47 2.47 0 0 1 1.05-.2 3.34 3.34 0 0 1 3.04 1.83 7 7 0 0 1 .77 2.14c.18.84.28 1.8.3 2.86a73.94 73.94 0 0 1-.08 4.84c-.05.8-.13 1.58-.23 2.35s-.23 1.5-.4 2.19l-3.2-.39a46.99 46.99 0 0 0 .7-7.75c-.01-.86-.05-1.61-.12-2.25a6.73 6.73 0 0 0-.33-1.6 2.09 2.09 0 0 0-.6-.96 1.43 1.43 0 0 0-.94-.31c-.26.05-.51.23-.76.54-.21.27-.44.7-.67 1.28-.24.57-.43 1.38-.6 2.43v2.12l.03 2.21.05 2.15c.01.76.04 1.63.08 2.6l-3.1-.07-.01-2.96a198.87 198.87 0 0 0-.15-7.6l-.2-4.92 3.55.06ZM216.8 16.38a286.39 286.39 0 0 0-.19 3.38 109.05 109.05 0 0 0-.11 6.67 74.46 74.46 0 0 0-.03 3.2c.02 1.05 0 2.05-.04 3-.05.95-.15 1.83-.32 2.64a5.8 5.8 0 0 1-.82 2.12c-.39.6-.92 1.07-1.6 1.41-.66.34-1.53.5-2.6.5a4.5 4.5 0 0 1-1.94-.35 2.79 2.79 0 0 1-1.62-1.9c-.09-.37-.13-.7-.14-1 0-.3.04-.6.12-.87.1-.27.23-.5.4-.7a1.87 1.87 0 0 1 1.48-.65 2.06 2.06 0 0 1 1.56.68c.18.2.32.44.42.7.1.25.16.5.16.76-.01.15-.05.3-.1.45a2.33 2.33 0 0 1-.69.9c.21.08.4.11.59.11.24 0 .49-.07.75-.21.26-.14.5-.36.7-.66.22-.3.4-.68.53-1.13.14-.46.21-1 .22-1.63L213.5 30c-.35.6-.7 1.07-1.07 1.41-.36.33-.68.57-.98.72-.35.19-.69.3-1 .33-.47 0-.94-.13-1.42-.4a3.7 3.7 0 0 1-1.31-1.36c-.4-.65-.73-1.5-1-2.58a18.96 18.96 0 0 1-.45-4.08c-.02-1.07.03-2.02.14-2.84.1-.83.27-1.55.47-2.16.21-.61.46-1.12.74-1.53.3-.42.6-.76.94-1.01.34-.26.7-.44 1.07-.55.37-.1.74-.16 1.1-.16.28.01.58.08.88.19a4.55 4.55 0 0 1 1.9 1.37l.05-1.32 3.22.34Zm-3.31 3.48a4.27 4.27 0 0 0-.76-.93c-.28-.27-.59-.4-.92-.4-.26 0-.52.1-.78.27a2.2 2.2 0 0 0-.68.92c-.2.43-.36 1-.48 1.72s-.16 1.63-.14 2.72c.02 1.01.08 1.85.19 2.52.1.66.23 1.2.4 1.6.16.39.34.67.55.83.2.16.41.23.64.23.3 0 .56-.09.78-.27.22-.18.4-.4.56-.66.15-.26.27-.53.36-.82.1-.28.2-.53.26-.74l-.01-3.52c0-1.16 0-2.32.03-3.47ZM37.73 43.88a506.7 506.7 0 0 0-.23 7.06 4.48 4.48 0 0 1 2.13-2.14c.4-.18.8-.29 1.21-.32.66 0 1.22.16 1.7.47.46.32.86.78 1.17 1.37.31.6.54 1.3.7 2.15.15.83.24 1.76.26 2.79.03 1.72 0 3.39-.08 5-.08 1.6-.29 3.17-.62 4.7l-3.2-.38a52.38 52.38 0 0 0 .63-5.5 35.34 35.34 0 0 0-.03-4.5 7.36 7.36 0 0 0-.22-1.6c-.1-.44-.28-.75-.5-.96a1.3 1.3 0 0 0-.92-.32c-.3.05-.6.23-.88.55a3.1 3.1 0 0 0-.37.52 6.62 6.62 0 0 0-.73 1.84c-.11.41-.2.89-.29 1.42a141.81 141.81 0 0 0 .06 5.53l.03 1.73c.01.59.03 1.16.06 1.74l-3.1-.07c.07-1.67.1-3.33.12-5a153.63 153.63 0 0 0-.22-10.58c-.1-1.84-.23-3.7-.39-5.55l3.71.05ZM59.03 61.75a3.2 3.2 0 0 1-.33 1.52c-.24.47-.57.88-.98 1.23a5.3 5.3 0 0 1-4.56.94 4.25 4.25 0 0 1-1.27-.59 5.4 5.4 0 0 1-1.16-1.08c-.36-.45-.68-1-.96-1.64-.27-.65-.49-1.4-.66-2.27-.16-.87-.25-1.88-.28-3-.02-1.07.04-2.01.17-2.83.14-.82.33-1.54.57-2.15.25-.61.55-1.12.89-1.53.33-.42.7-.76 1.08-1.01.4-.27.8-.45 1.22-.56a5.03 5.03 0 0 1 3 .13 4.13 4.13 0 0 1 2.45 2.29 5.23 5.23 0 0 1 .04 3.92c-.25.66-.64 1.3-1.15 1.9a8.83 8.83 0 0 1-1.94 1.63c-.77.48-1.65.86-2.66 1.14.07.57.16 1.08.26 1.55.12.46.26.86.42 1.19.18.33.37.58.58.76.22.19.48.28.76.28.18-.01.35-.04.52-.1.14-.04.28-.12.43-.22.15-.1.28-.24.37-.44-.24-.1-.42-.25-.55-.42a2.41 2.41 0 0 1-.3-.5 1.94 1.94 0 0 1 .1-1.64 2.02 2.02 0 0 1 1.33-.95c.24-.06.44-.1.58-.1.16 0 .34.04.56.1.23.07.45.19.67.37.21.18.4.44.55.78.16.33.24.76.25 1.3Zm-3.54-8.6a4.38 4.38 0 0 0-.4-1.7c-.1-.23-.25-.4-.42-.53a.89.89 0 0 0-.58-.2c-.38 0-.68.17-.9.52-.24.33-.42.78-.56 1.35a11.1 11.1 0 0 0-.26 1.95c-.04.74-.05 1.51-.04 2.31l.02 1a6.75 6.75 0 0 0 2.28-1.98 4.9 4.9 0 0 0 .86-2.72ZM66.74 65.25l-3.64.27a100.45 100.45 0 0 0 .12-12.5 71.9 71.9 0 0 0-.23-3.34l3.07-.17a13.69 13.69 0 0 0-.03 1.15 4.17 4.17 0 0 1 2.07-1.76c.37-.16.75-.25 1.13-.29.66 0 1.24.1 1.71.32.48.2.87.46 1.18.79.3.32.53.68.68 1.08.14.4.22.77.23 1.15 0 .38-.03.77-.1 1.16-.08.4-.21.75-.4 1.07-.2.3-.45.56-.77.76-.32.2-.71.29-1.18.29-.48 0-.85-.09-1.13-.26a2 2 0 0 1-.64-.62c-.14-.24-.24-.5-.29-.75a5.07 5.07 0 0 1-.07-.67 2.21 2.21 0 0 1 .26-.92c.09-.16.2-.32.33-.47.13-.17.3-.32.47-.45a1.02 1.02 0 0 0-.34-.06c-.46 0-.86.15-1.21.44a3.5 3.5 0 0 0-.9 1.19 8.67 8.67 0 0 0-.61 1.8c-.15.7-.26 1.45-.33 2.27.07 1.41.17 2.81.28 4.2l.34 4.32ZM83.73 64.82l.04-1.03.06-.98a4.3 4.3 0 0 1-1.93 1.92c-.35.16-.7.26-1.05.3-.67 0-1.26-.17-1.77-.5-.5-.34-.93-.82-1.27-1.44a8.04 8.04 0 0 1-.79-2.23c-.17-.88-.26-1.85-.29-2.93a67.9 67.9 0 0 1 .06-4.37c.07-1.41.2-2.8.4-4.16l3.47.39a47.97 47.97 0 0 0-.65 5.08c-.05.7-.07 1.32-.07 1.83.01.87.06 1.63.12 2.27.07.64.18 1.17.32 1.6.16.42.36.74.6.95.26.2.58.31.96.31.26-.05.52-.23.77-.55.1-.13.21-.3.33-.52a10.37 10.37 0 0 0 .66-1.89c.1-.41.2-.9.28-1.45v-1.6l-.03-1.74-.05-2.15c-.01-.77-.04-1.64-.08-2.6l3.11.05a98.46 98.46 0 0 0 .2 12.61l.16 2.89-3.56-.06ZM95.21 49.54l-.06 1.12a3.76 3.76 0 0 1 1.88-1.7 2.47 2.47 0 0 1 1.05-.2 3.33 3.33 0 0 1 3.05 1.82c.34.58.59 1.3.76 2.15.18.84.28 1.79.3 2.85a68.68 68.68 0 0 1-.08 4.84c-.05.8-.12 1.59-.23 2.35-.09.77-.23 1.5-.4 2.2l-3.2-.4a46.8 46.8 0 0 0 .71-7.74c-.02-.87-.06-1.62-.12-2.26a6.74 6.74 0 0 0-.34-1.6 2.09 2.09 0 0 0-.59-.95 1.43 1.43 0 0 0-.95-.32c-.25.06-.5.24-.75.55-.22.26-.44.69-.68 1.27-.23.57-.43 1.38-.6 2.43a83.4 83.4 0 0 0 0 2.12L95 60.3l.04 2.14c.02.77.04 1.63.08 2.6l-3.1-.07v-2.95a201.98 201.98 0 0 0-.16-7.6c-.04-1.48-.11-3.12-.2-4.92l3.55.05ZM111.24 43.91c-.05.94-.1 1.86-.12 2.77l-.09 2.73 1.2-.05 1.2-.06.12 3.5a22.4 22.4 0 0 0-2.56-.3c-.02.78-.02 1.55-.01 2.3l.04 2.3a158.96 158.96 0 0 0 .37 8.26l-3.57-.06a306.3 306.3 0 0 0 .2-12.87l-1.15.06-1.17.07.04-3.24a47.61 47.61 0 0 0 2.22.11c-.02-.9-.04-1.82-.08-2.72l-.11-2.75 3.47-.05ZM127.21 61.75a3.2 3.2 0 0 1-.34 1.52c-.23.47-.56.88-.97 1.23a5.3 5.3 0 0 1-4.56.94 4.25 4.25 0 0 1-1.27-.59c-.4-.27-.8-.63-1.16-1.08-.36-.45-.68-1-.96-1.64-.27-.65-.49-1.4-.66-2.27-.16-.87-.25-1.88-.28-3-.02-1.07.04-2.01.17-2.83.14-.82.33-1.54.57-2.15.25-.61.55-1.12.89-1.53.33-.42.7-.76 1.08-1.01.4-.27.8-.45 1.22-.56a5.03 5.03 0 0 1 3 .13 4.13 4.13 0 0 1 2.45 2.29 5.23 5.23 0 0 1 .04 3.92c-.25.66-.64 1.3-1.16 1.9a8.84 8.84 0 0 1-1.93 1.63c-.77.48-1.65.86-2.66 1.14.07.57.15 1.08.26 1.55.12.46.26.86.42 1.19.17.33.37.58.58.76.22.19.47.28.76.28.18-.01.35-.04.51-.1.15-.04.3-.12.44-.22.15-.1.27-.24.37-.44-.24-.1-.42-.25-.55-.42a2.37 2.37 0 0 1-.3-.5 1.94 1.94 0 0 1 .1-1.64 2.02 2.02 0 0 1 1.33-.95c.24-.06.44-.1.58-.1.16 0 .34.04.56.1.23.07.45.19.67.37.21.18.4.44.55.78.16.33.24.76.25 1.3Zm-3.54-8.6a4.31 4.31 0 0 0-.4-1.7c-.1-.23-.25-.4-.43-.53a.88.88 0 0 0-.57-.2c-.38 0-.68.17-.91.52-.23.33-.41.78-.55 1.35-.13.56-.22 1.22-.26 1.95-.04.74-.05 1.51-.04 2.31l.02 1a6.75 6.75 0 0 0 2.28-1.98 4.92 4.92 0 0 0 .86-2.72ZM134.92 65.25l-3.65.27a99.92 99.92 0 0 0 .13-12.5 71.5 71.5 0 0 0-.23-3.34l3.07-.17a13.52 13.52 0 0 0-.03 1.15 4.15 4.15 0 0 1 2.07-1.76c.37-.16.75-.25 1.13-.29.66 0 1.24.1 1.71.32.48.2.87.46 1.18.79a3.49 3.49 0 0 1 .9 2.23c.01.38-.02.77-.1 1.16-.07.4-.2.75-.4 1.07-.18.3-.44.56-.76.76-.32.2-.71.29-1.19.29a2.1 2.1 0 0 1-1.12-.26c-.28-.17-.5-.38-.64-.62s-.24-.5-.29-.75a4.91 4.91 0 0 1-.07-.67 2.19 2.19 0 0 1 .25-.92c.1-.16.2-.32.34-.47.13-.17.29-.32.47-.45a1.01 1.01 0 0 0-.34-.06c-.46 0-.86.15-1.21.44a3.5 3.5 0 0 0-.9 1.19 8.65 8.65 0 0 0-.62 1.8c-.15.7-.25 1.45-.32 2.27.07 1.41.16 2.81.27 4.2l.35 4.32ZM148.34 43.66a2602.2 2602.2 0 0 0-.16 5.77l-.02 2.4-.01 2.24.01 2.22.05 2.36.06 2.92c.02 1.04.05 2.2.1 3.46l-3.11-.07a158.45 158.45 0 0 0-.03-8.17 312.59 312.59 0 0 0-.3-9.4l-.15-3.8 3.56.07ZM159.59 65.25a24.27 24.27 0 0 1-.3-1.77c-.4.62-.9 1.1-1.48 1.43a3.7 3.7 0 0 1-3 .32c-.37-.1-.72-.3-1.03-.58-.31-.29-.57-.67-.78-1.15-.2-.5-.3-1.11-.32-1.86a4.28 4.28 0 0 1 1.9-3.73c.35-.26.7-.49 1.06-.69l1.03-.56a6.62 6.62 0 0 0 1.81-1.53c.3-.36.53-.74.7-1.13a8.7 8.7 0 0 0-.23-1.55c-.1-.4-.23-.73-.39-.97a1.25 1.25 0 0 0-.58-.5c-.22-.1-.47-.15-.76-.15-.42 0-.77.09-1.06.27-.28.18-.5.4-.68.66a2.13 2.13 0 0 1 .83.94c.07.17.11.35.13.53 0 .62-.16 1.1-.5 1.42-.35.33-.8.5-1.34.5-.28 0-.54-.07-.78-.2a2.2 2.2 0 0 1-.64-.56 2.89 2.89 0 0 1-.43-.84 3.22 3.22 0 0 1 .06-2.28c.17-.43.44-.83.82-1.2.37-.37.86-.67 1.45-.91.6-.25 1.33-.37 2.18-.37a4.43 4.43 0 0 1 3.74 1.83c.4.55.7 1.18.9 1.9.19.72.3 1.46.3 2.23.02.57.03 1.2.03 1.87a151.33 151.33 0 0 0 .08 3.86 49.9 49.9 0 0 0 .23 3.28c.05.48.12.91.2 1.3l-3.16.19Zm-.37-8.01c-.31.38-.65.7-1 .98-.27.2-.57.4-.88.64-.3.24-.6.5-.86.76s-.48.54-.65.83c-.17.28-.25.57-.25.87.01.41.12.77.32 1.06.21.29.5.43.86.43.34 0 .64-.09.9-.27.26-.18.49-.4.68-.67a7.16 7.16 0 0 0 .83-1.72l.05-2.91ZM177.24 44.17a213.22 213.22 0 0 0-.33 15.84c.03 1.78.1 3.56.18 5.35l-3.11.05.04-2.7a5.51 5.51 0 0 1-2.13 2.4 2.8 2.8 0 0 1-1.1.36c-.46 0-.93-.14-1.41-.4a3.71 3.71 0 0 1-1.31-1.37c-.4-.64-.73-1.5-1-2.58a18.89 18.89 0 0 1-.45-4.07c-.02-1.08.03-2.03.14-2.85.1-.83.27-1.55.48-2.16.2-.6.45-1.12.73-1.53.3-.42.6-.75.94-1 .34-.26.7-.45 1.07-.56.37-.1.74-.16 1.1-.16.25.02.51.08.8.18a5.3 5.3 0 0 1 1.77 1.19c-.1-2.03-.22-4.04-.36-6.04l3.95.05Zm-3.25 13.97c-.04-1.76-.1-3.52-.19-5.29a12.93 12.93 0 0 0-.72-.88 1.87 1.87 0 0 0-.44-.32 1.05 1.05 0 0 0-.5-.13c-.25 0-.5.1-.77.28a2.2 2.2 0 0 0-.68.91c-.2.43-.36 1-.48 1.73-.12.72-.16 1.62-.14 2.72.02 1 .08 1.85.19 2.51.1.67.23 1.2.4 1.6.16.4.34.67.55.83.2.16.41.24.64.24.35 0 .64-.12.89-.35.25-.23.45-.52.6-.84.17-.33.3-.67.41-1.01l.26-.9-.02-1.1ZM191.54 61.75c0 .54-.1 1.04-.34 1.52-.24.47-.56.88-.98 1.23a5.3 5.3 0 0 1-4.56.94 4.24 4.24 0 0 1-1.27-.59c-.4-.27-.79-.63-1.15-1.08-.37-.45-.69-1-.97-1.64-.26-.65-.48-1.4-.66-2.27-.16-.87-.25-1.88-.27-3-.02-1.07.03-2.01.16-2.83.14-.82.33-1.54.57-2.15a6 6 0 0 1 .89-1.53c.34-.42.7-.76 1.09-1.01.4-.27.8-.45 1.22-.56a5.04 5.04 0 0 1 3 .13 4.12 4.12 0 0 1 2.44 2.29 5.23 5.23 0 0 1 .04 3.92c-.25.66-.63 1.3-1.15 1.9a8.82 8.82 0 0 1-1.94 1.63c-.76.48-1.65.86-2.66 1.14.07.57.16 1.08.27 1.55.12.46.26.86.42 1.19.17.33.36.58.57.76.23.19.48.28.76.28.18-.01.35-.04.52-.1.14-.04.29-.12.43-.22.15-.1.28-.24.38-.44-.24-.1-.43-.25-.56-.42a2.42 2.42 0 0 1-.3-.5 1.94 1.94 0 0 1 .1-1.64 2.02 2.02 0 0 1 1.33-.95c.24-.06.44-.1.58-.1.16 0 .35.04.57.1.23.07.45.19.66.37.21.18.4.44.55.78.16.33.25.76.26 1.3Zm-3.55-8.6a4.44 4.44 0 0 0-.39-1.7c-.11-.23-.26-.4-.43-.53a.89.89 0 0 0-.58-.2c-.37 0-.68.17-.9.52-.24.33-.42.78-.55 1.35-.14.56-.23 1.22-.27 1.95-.04.74-.05 1.51-.03 2.31l.02 1a6.78 6.78 0 0 0 2.27-1.98 4.9 4.9 0 0 0 .86-2.72ZM199.04 49.54l-.06 1.12a3.76 3.76 0 0 1 1.88-1.7 2.47 2.47 0 0 1 1.05-.2 3.33 3.33 0 0 1 3.05 1.82c.33.58.6 1.3.76 2.15.18.84.28 1.79.3 2.85a73.94 73.94 0 0 1-.08 4.84c-.05.8-.12 1.59-.22 2.35-.1.77-.23 1.5-.41 2.2l-3.2-.4a46.99 46.99 0 0 0 .71-7.74c-.01-.87-.06-1.62-.12-2.26a6.73 6.73 0 0 0-.34-1.6 2.09 2.09 0 0 0-.59-.95 1.43 1.43 0 0 0-.95-.32c-.25.06-.5.24-.75.55-.22.26-.44.69-.68 1.27-.23.57-.43 1.38-.59 2.43a79 79 0 0 0-.01 2.12l.04 2.22.04 2.14c.02.77.04 1.63.08 2.6l-3.1-.07v-2.95a199.52 199.52 0 0 0-.16-7.6c-.04-1.48-.11-3.12-.2-4.92l3.55.05Z" stroke="#000" stroke-width="5" stroke-linejoin="round" mask="url(#a)"/><path fill-rule="evenodd" clip-rule="evenodd" d="M282.8 38a30 30 0 1 1-60 0 30 30 0 0 1 60 0Zm-27.5-10.83c0-3.34-1.53-4.17-2.5-4.17-.98 0-2.5.83-2.5 4.17v17.08l-6.67-5.83c-2.77-2.8-6.1.53-2.92 3.33l9.58 9.58c1.83 1.71 4.08 1.62 5.84 0l8.75-9.58c3.19-2.8-.15-6.13-2.92-3.33l-6.67 5.83V27.17Z" fill="#000"/><path d="M252.8 23c.97 0 2.5.83 2.5 4.17v17.08l6.66-5.83c2.77-2.8 6.1.53 2.92 3.33l-8.75 9.58c-1.76 1.62-4.01 1.71-5.84 0l-9.58-9.58c-3.19-2.8.15-6.13 2.92-3.33l6.66 5.83V27.17c0-3.34 1.53-4.17 2.5-4.17Z" fill="#fff"/><rect x="1.93" y="1.93" width="311.93" height="72.14" rx="7.07" stroke="#000" stroke-width="3.86"/></svg>