<svg width="200" height="136" fill="none" xmlns="http://www.w3.org/2000/svg"><mask id="a" maskUnits="userSpaceOnUse" x="-.3" y=".1" width="200" height="108" fill="#000"><path fill="#fff" d="M-.3.1h200v108H-.3z"/><path d="M19.9 13c0 1-.1 2-.3 2.9-.2.8-.5 1.5-.8 2a5.4 5.4 0 0 1-4.4 2.7 13.6 13.6 0 0 1-3-.3A1852.8 1852.8 0 0 1 11.2 6l-.1-.8a30.3 30.3 0 0 1 2.6-.1 7 7 0 0 1 2 .3A5 5 0 0 1 19.5 9l.4 1.9v2Zm-2.7-.4-.1-3c-.2-.7-.3-1.3-.6-1.7-.2-.4-.6-.7-1-.9a4 4 0 0 0-1.4-.2h-.3l.1 12 .4.2h.3a2 2 0 0 0 1.2-.3c.3-.2.6-.6.8-1l.5-2 .1-3ZM24.8 5.6a1.6 1.6 0 0 1-.4 1.1l-.5.4-.7.1-.6-.1a1.7 1.7 0 0 1-.8-.9 1.6 1.6 0 0 1 .3-1.7 1.6 1.6 0 0 1 1.1-.5l.7.1a1.6 1.6 0 0 1 1 1.5Zm0 3.1a49.5 49.5 0 0 0-.3 7.6v4.2h-2.3v-2.7a120.5 120.5 0 0 0-.4-9h3ZM29.6 20.4l-2.7.2A75.4 75.4 0 0 0 27 8.7h2.3a10.3 10.3 0 0 0 0 .8 3.2 3.2 0 0 1 1.6-1.3l.8-.3c.5 0 1 .1 1.3.3.4.1.7.3.9.6l.5.8.1.8v1l-.4.7-.6.6-.9.2c-.3 0-.6 0-.8-.2l-.5-.5-.2-.5v-.8l.2-.4.2-.4.4-.3a.8.8 0 0 0-.3 0c-.3 0-.6 0-.9.3l-.7.9-.5 1.3-.2 1.7a117 117 0 0 0 .3 6.4ZM44.3 5.6a1.6 1.6 0 0 1-.5 1.1l-.5.4-.6.1-.6-.1a1.7 1.7 0 0 1-.9-.9 1.6 1.6 0 0 1 .4-1.7 1.6 1.6 0 0 1 1.1-.5l.6.1a1.6 1.6 0 0 1 1 1.5Zm0 3.1a49.3 49.3 0 0 0-.3 7.6v4.2h-2.4v-2.7a120.5 120.5 0 0 0-.3-9h3ZM53.5 10.8a1.7 1.7 0 0 1-1 1.6H52a1.5 1.5 0 0 1-1-.3l-.4-.4a1.5 1.5 0 0 1 0-1.2c0-.2 0-.3.2-.4 0-.2.2-.3.4-.4a1.8 1.8 0 0 0-.7-.7H49.6l-.4.4a1.6 1.6 0 0 0-.4 1v.8l.3.6.6.7 1 .8a11.7 11.7 0 0 1 1.8 1.9c.3.3.4.6.5 1l.2.9a4 4 0 0 1-.8 2.2 2.9 2.9 0 0 1-1.5 1.1l-1.2.2a4 4 0 0 1-2.9-1 3 3 0 0 1-.6-1 2.1 2.1 0 0 1-.1-1.5l.2-.5.6-.4.7-.2.7.1.5.4.4.5v.7a1.4 1.4 0 0 1-.5 1c0 .2.2.2.3.3a1.7 1.7 0 0 0 .5 0h.3l.3-.3.3-.4.1-.5v-.6l-.3-.6-.5-.6-.9-.9-1-1a4.6 4.6 0 0 1-1.3-3.3 3.3 3.3 0 0 1 1-2.2c.3-.4.7-.6 1.2-.8a4 4 0 0 1 1.5-.3c.6 0 1 .1 1.5.3a2.8 2.8 0 0 1 1.6 1.7c.2.4.2.8.2 1.3ZM59 4.4a75.7 75.7 0 0 0-.2 4.1 40.3 40.3 0 0 1 1.8 0V11a16.6 16.6 0 0 0-1.9-.2v3.4a155 155 0 0 0 .2 6.2h-2.7a228.1 228.1 0 0 0 .3-9.7 36.6 36.6 0 0 0-1.7.1V8.5a36 36 0 0 0 1.7 0 101.6 101.6 0 0 0 0-4H59ZM70.4 20.4a82 82 0 0 0-2.8 0 26.2 26.2 0 0 0 .3-3.8 105 105 0 0 0-.3-11.4h.7a38 38 0 0 0 2.1 0 199.9 199.9 0 0 0-.2 7H71.5a27.7 27.7 0 0 0 2 0 29.7 29.7 0 0 0-.1-2.8 56 56 0 0 0-.3-4.2h.6a34 34 0 0 0 2 0 983.8 983.8 0 0 0 0 7.6 145 145 0 0 0 0 7 38 38 0 0 0-2.7.1 22.5 22.5 0 0 0 .3-2.8 34.8 34.8 0 0 0 .1-2.7 11.7 11.7 0 0 0-1.8 0 26.9 26.9 0 0 0-1.4 0 92.8 92.8 0 0 0 .2 6ZM81.8 20.6c-.7 0-1.3-.2-1.8-.5L78.8 19a6 6 0 0 1-.7-1.9l-.2-2.3c0-1 .1-2 .3-2.8.2-.8.4-1.5.8-2 .3-.7.7-1.1 1.2-1.5.6-.3 1.1-.5 1.8-.5s1.3.2 1.7.4c.5.3 1 .7 1.2 1.2.4.5.6 1.1.7 1.8a11.2 11.2 0 0 1 .2 3.8 11 11 0 0 1-.7 3l-.8 1.3-1 .9a3 3 0 0 1-1.5.3Zm1.6-7.7v-1.4l-.3-1c-.1-.3-.2-.6-.4-.7a.8.8 0 0 0-.6-.2c-.2 0-.5 0-.7.4l-.5 1-.4 1.9a19.2 19.2 0 0 0 0 4c0 .4 0 .8.2 1 0 .4.2.6.4.8.1.2.3.3.6.3.2 0 .4-.1.5-.3.2-.2.4-.4.5-.8l.3-1a12.2 12.2 0 0 0 .4-2.7V13ZM95 5.4a2.5 2.5 0 0 1-.5 1.4l-.5.5-.6.1-.6-.1-.4-.3-.4-.4V5.3l.3-.5c-.3 0-.6.1-.8.3-.2.1-.3.4-.4.7l-.2 1v1.9a24.6 24.6 0 0 0 2.5 0l-.1 2.4a16.8 16.8 0 0 0-2.4-.2 269.1 269.1 0 0 0 0 9.2v.4l-2.3.1a35.5 35.5 0 0 0 .1-5 116.7 116.7 0 0 0-.1-4.7 17.9 17.9 0 0 0-1.2.2l-.1-2.5h.6l.7.1V7.6l.1-1.8.7-1.4a3 3 0 0 1 1.1-1 4 4 0 0 1 1.7-.3l1.2.2a2.5 2.5 0 0 1 1.3 1.3c.2.3.2.6.2.8ZM102 10.8a1.7 1.7 0 0 1-1.1 1.6h-.5a1.5 1.5 0 0 1-1-.3l-.3-.4a1.5 1.5 0 0 1 0-1.2c0-.2 0-.3.2-.4 0-.2.2-.3.4-.4A1.8 1.8 0 0 0 99 9H98l-.4.4a1.6 1.6 0 0 0-.4 1v.8l.3.6.5.7 1 .8a11.6 11.6 0 0 1 2 1.9l.4 1 .1.9a4 4 0 0 1-.7 2.2 2.9 2.9 0 0 1-1.5 1.1l-1.2.2a4 4 0 0 1-2.9-1 3 3 0 0 1-.7-1 2.1 2.1 0 0 1 0-1.5c0-.2 0-.4.2-.5l.5-.4.8-.2.7.1.5.4.3.5.2.7a1.4 1.4 0 0 1-.6 1c0 .2.2.2.2.3a1.7 1.7 0 0 0 .5 0h.4l.3-.3.3-.4v-1.1c0-.2 0-.4-.2-.6l-.5-.6-1-.9-.9-1a4.6 4.6 0 0 1-1.3-3.3 3.3 3.3 0 0 1 1-2.2c.3-.4.7-.6 1.2-.8a4 4 0 0 1 1.5-.3c.6 0 1 .1 1.5.3a2.8 2.8 0 0 1 1.6 1.7l.2 1.3ZM107.5 4.4a73.8 73.8 0 0 0-.2 4.1 40.3 40.3 0 0 1 1.8 0V11a16.5 16.5 0 0 0-1.9-.2v3.4a151.3 151.3 0 0 0 .1 6.2h-2.6a236.5 236.5 0 0 0 .3-9.7 36.5 36.5 0 0 0-1.8.1l.1-2.4a36 36 0 0 0 1.7 0v-4h2.5ZM115.7 20.4a17.7 17.7 0 0 1-.2-1.3c-.3.5-.7.8-1.2 1a2.8 2.8 0 0 1-2.2.3 2 2 0 0 1-.8-.4c-.2-.2-.4-.5-.5-.9-.2-.4-.3-.8-.3-1.4A3.2 3.2 0 0 1 112 15a9.7 9.7 0 0 1 1.6-1l.6-.3.8-.8.5-.8-.1-1.2c0-.3-.2-.5-.3-.7a1 1 0 0 0-.4-.4l-.6-.1c-.3 0-.6 0-.8.2l-.5.5.4.3.2.4v.4c0 .5 0 .8-.3 1-.3.3-.6.4-1 .4l-.6-.1-.5-.4-.3-.7-.1-.8c0-.2 0-.5.2-.9l.6-.9c.3-.2.7-.5 1.1-.6.5-.2 1-.3 1.7-.3.6 0 1.2.1 1.6.4.5.2.9.5 1.1 1 .3.4.6.8.7 1.4l.2 1.6a101.6 101.6 0 0 1 0 5.6 27.2 27.2 0 0 0 .2 2.2l-2.3.1Zm-.2-6-.8.7a27.1 27.1 0 0 0-1.3 1.1l-.5.6-.2.7.2.8c.2.2.4.3.7.3.2 0 .5 0 .7-.2l.5-.5.4-.7.2-.6.1-2.2ZM125 20.4a20.2 20.2 0 0 1-.2-1.3c-.3.5-.7.8-1.1 1a2.8 2.8 0 0 1-2.3.3 2 2 0 0 1-.8-.4c-.2-.2-.4-.5-.5-.9-.2-.4-.3-.8-.3-1.4a3.3 3.3 0 0 1 1.5-2.8 9.7 9.7 0 0 1 1.6-1c.3 0 .5-.2.6-.3a5 5 0 0 0 1.3-1.6l-.1-1.2c0-.3-.2-.5-.3-.7a1 1 0 0 0-.4-.4l-.6-.1c-.3 0-.6 0-.8.2l-.5.5.4.3.2.4v.4c0 .5 0 .8-.3 1-.3.3-.6.4-1 .4l-.6-.1-.5-.4-.3-.7v-.8l.1-.9.6-.9c.3-.2.7-.5 1.1-.6a4.3 4.3 0 0 1 3.3 0c.5.3.9.6 1.2 1l.6 1.5.2 1.6a102.5 102.5 0 0 1 0 5.6 28.9 28.9 0 0 0 .2 2.2l-2.3.1Zm-.2-6-.8.7a29.2 29.2 0 0 0-1.3 1.1l-.5.6-.2.7c0 .3.1.5.3.8.1.2.3.3.6.3.2 0 .5 0 .7-.2l.5-.5.4-.7.2-.6.1-2.2ZM133 4.4v2.1l-.2 2a40.3 40.3 0 0 1 1.8 0V11a16.6 16.6 0 0 0-1.8-.2v3.4a158.8 158.8 0 0 0 0 6.2h-2.6a229.4 229.4 0 0 0 .3-9.7 36.5 36.5 0 0 0-1.7.1V8.5a35.8 35.8 0 0 0 1.7 0 106.2 106.2 0 0 0 0-4h2.6ZM144.3 8.6v.9c.2-.4.4-.7.7-.9l.7-.4a1.9 1.9 0 0 1 .8-.1c.5 0 1 0 1.3.3.4.2.7.6 1 1l.5 1.6.2 2.2a52.9 52.9 0 0 1-.7 7l-2.4-.3a34.3 34.3 0 0 0 .6-7.5 5 5 0 0 0-.2-1.2l-.5-.7a1 1 0 0 0-.7-.2c-.2 0-.4.1-.6.4a4 4 0 0 0-.5 1l-.5 1.7v6.9h-2.3a112.6 112.6 0 0 0 0-11.7h2.6ZM154.5 5.6a1.6 1.6 0 0 1-.5 1.1l-.5.4-.6.1-.6-.1a1.7 1.7 0 0 1-.9-.9 1.6 1.6 0 0 1 .4-1.7 1.6 1.6 0 0 1 1.1-.5l.6.1a1.6 1.6 0 0 1 1 1.5Zm0 3.1a48.5 48.5 0 0 0-.3 7.6v4.2h-2.4v-2.7a118 118 0 0 0-.3-9h3ZM164.2 11.3l-.2 1.1-.5.6c-.2.2-.3.3-.5.3a2 2 0 0 1-.5 0h-.4l-.5-.2-.4-.5a1.9 1.9 0 0 1 0-1.4l.2-.4.5-.4a1.9 1.9 0 0 0-.8-1h-.4c-.3 0-.5 0-.7.3-.2.2-.4.5-.5 1l-.4 1.5a15.5 15.5 0 0 0 0 3.9l.2 1.6.5 1c.2.3.5.5.8.5.1 0 .3 0 .4-.2a1.7 1.7 0 0 0 .9-.8c-.3 0-.5-.2-.6-.4a2 2 0 0 1-.4-1l.2-.9.5-.4.5-.3h.9c.2 0 .3.2.5.3.2.1.3.3.4.6l.2 1-.3 1.2a4.2 4.2 0 0 1-2 2c-.4.3-.8.4-1.3.4l-1-.1-1-.5a4 4 0 0 1-.8-.8 5 5 0 0 1-.7-1.2 9 9 0 0 1-.4-1.7 13.9 13.9 0 0 1 0-4.5c0-.6.3-1.2.5-1.7.2-.4.4-.8.7-1 .3-.4.6-.6 1-.8.2-.2.6-.3.9-.4h1c.4 0 .9 0 1.3.2l1.1.7a3.3 3.3 0 0 1 1 2.4ZM168.8 4.4a378 378 0 0 0-.3 5.3A3.4 3.4 0 0 1 170 8c.3-.2.6-.2 1-.3.4 0 .8.2 1.2.4l.9 1 .4 1.6.2 2.1a51.2 51.2 0 0 1-.7 7.3l-2.4-.3a30.5 30.5 0 0 0 .5-8.7c0-.3-.2-.5-.4-.7a1 1 0 0 0-.7-.2c-.2 0-.4.1-.6.4l-.3.4a5.1 5.1 0 0 0-.6 1.3l-.2 1.1v6.8H166a114.8 114.8 0 0 0 0-16h2.8ZM179.7 4.4a77.7 77.7 0 0 0-.3 4.1 40.1 40.1 0 0 1 1.8 0V11a16.6 16.6 0 0 0-1.9-.2v3.4a158.8 158.8 0 0 0 .1 6.2h-2.6a222.8 222.8 0 0 0 .3-9.7 36.5 36.5 0 0 0-1.7.1V8.5a36.1 36.1 0 0 0 1.7 0v-4h2.6ZM24.4 31.4a294.3 294.3 0 0 0-.4 9.3 10.8 10.8 0 0 0 2.3-3.8l.4-1.3 2.8.2a20.6 20.6 0 0 1-2.6 4.1l-.7.7a3.6 3.6 0 0 1 1.7 1.1l.3.7.2.9a26.3 26.3 0 0 1 .4 2l.4.9.5.9H27a8.6 8.6 0 0 1-.5-2l-.2-1c0-.4-.1-.8-.3-1.1a2 2 0 0 0-.3-.5l-.4-.3-.5-.3a2 2 0 0 0-.7 0H24a319.1 319.1 0 0 0 0 5.4h-2.5A785.3 785.3 0 0 0 22 37a71 71 0 0 0-.2-5.6h2.7ZM34.7 47.6c-.6 0-1.2-.2-1.7-.5s-.9-.7-1.2-1.2A6 6 0 0 1 31 44c-.2-.7-.2-1.5-.2-2.3 0-1 0-2 .2-2.8.2-.8.5-1.5.8-2 .4-.7.8-1.1 1.3-1.5.5-.3 1-.5 1.8-.5.6 0 1.2.2 1.7.4.5.3.9.7 1.2 1.2l.7 1.8a11.2 11.2 0 0 1 .1 3.8 11 11 0 0 1-.7 3c-.2.5-.4 1-.7 1.3l-1.1.9a3 3 0 0 1-1.5.3Zm1.6-7.7v-1.4c0-.4-.2-.8-.3-1 0-.3-.2-.6-.4-.7a.8.8 0 0 0-.5-.2c-.3 0-.5 0-.7.4l-.6 1-.4 1.9a19.2 19.2 0 0 0 0 4l.2 1 .4.8.6.3.6-.3.4-.8.4-1a12.2 12.2 0 0 0 .3-2.7V40ZM47.5 41.6a49.4 49.4 0 0 1-.3 5.3h-2.3a68.8 68.8 0 0 0 0-8.3c-.2-.4-.4-.6-.8-.6l-.4.3-.4.5-.3 1V43a69.5 69.5 0 0 1 0 4.3h-2.3a398.6 398.6 0 0 0 .3-9 98.4 98.4 0 0 0 0-2.7h2.2v1l.6-.9.6-.5a1.5 1.5 0 0 1 .8-.1h.5l.6.3.4.7c.2.2.3.6.4 1 .2-.5.4-1 .7-1.2.3-.3.5-.5.8-.6l.7-.2h.4c.4 0 .8 0 1 .4.4.2.6.6.8 1.2l.4 2a30 30 0 0 1-.4 8.6h-2.3a32.8 32.8 0 0 0 .2-8.4c0-.3-.2-.5-.3-.7a.7.7 0 0 0-.6-.2 1 1 0 0 0-.4.2 2 2 0 0 0-.3.5 3 3 0 0 0-.4.7v2.2ZM54 51.1a113.6 113.6 0 0 0 .3-15.2h2.4l-.1 1c.3-.5.6-1 1-1.3.4-.3.8-.5 1.2-.5.6 0 1 .1 1.4.4.4.2.7.5 1 1 .3.5.5 1.1.6 1.9a14.3 14.3 0 0 1 0 5.7c-.2.8-.5 1.4-.8 2a3 3 0 0 1-1.1 1l-1.3.3-.7-.1-.7-.4-.7-.7a147 147 0 0 0 .2 5h-2.8Zm2.5-7a6 6 0 0 0 .5.9l.4.3.4.1c.2 0 .4 0 .6-.2l.5-.8.4-1.4a11.9 11.9 0 0 0-.2-5c0-.3-.2-.5-.4-.6-.1-.2-.3-.3-.4-.3-.2 0-.3 0-.4.2a2 2 0 0 0-.4.4l-.3.5a11.3 11.3 0 0 0-.7 1.5 251.5 251.5 0 0 0 0 4.3v.1ZM66.8 31.2a2206.3 2206.3 0 0 0-.3 9.5v6.6h-2.3a117.3 117.3 0 0 0 0-13.3v-2.8h2.6ZM71.8 32.6a1.6 1.6 0 0 1-.5 1.1l-.5.4-.6.1-.6-.1a1.7 1.7 0 0 1-.9-.9 1.6 1.6 0 0 1 .4-1.7 1.6 1.6 0 0 1 1-.5l.7.1a1.6 1.6 0 0 1 1 1.5Zm0 3.1a49.5 49.5 0 0 0-.3 7.6v4.2H69v-2.7a120.5 120.5 0 0 0-.3-9h3ZM80.5 37.6a31.6 31.6 0 0 0-4 7.7 49.1 49.1 0 0 0 4-.4v2.5a51.8 51.8 0 0 0-6.8 0v-2a45 45 0 0 0 4-7.7 19.9 19.9 0 0 0-3.9.5l-.1-2.5H75.4a72.8 72.8 0 0 0 5-.2v2.1ZM85.4 32.6a1.6 1.6 0 0 1-.5 1.1l-.5.4-.6.1-.6-.1a1.7 1.7 0 0 1-.9-.9 1.6 1.6 0 0 1 .4-1.7 1.6 1.6 0 0 1 1.1-.5l.6.1a1.6 1.6 0 0 1 1 1.5Zm0 3.1a49.3 49.3 0 0 0-.3 7.6v4.2h-2.4v-2.7a120.5 120.5 0 0 0-.3-9h3ZM94.9 44.8c0 .4-.1.8-.3 1.1a3 3 0 0 1-.8 1l-1 .6a4 4 0 0 1-2.4 0c-.3 0-.6-.2-1-.4a4 4 0 0 1-.8-.8 5 5 0 0 1-.7-1.2 9 9 0 0 1-.4-1.7 13.8 13.8 0 0 1 0-4.4 8 8 0 0 1 .4-1.6l.7-1.2.8-.7a3 3 0 0 1 1-.4 3.8 3.8 0 0 1 2.2 0 3 3 0 0 1 1.8 1.8c.2.4.3.9.3 1.4l-.3 1.5a5 5 0 0 1-1 1.4c-.3.5-.8.9-1.4 1.3-.6.3-1.2.6-2 .8l.2 1.2.3.9c0 .2.2.4.4.6l.6.2a1.5 1.5 0 0 0 .7-.3l.3-.3a1 1 0 0 1-.4-.3l-.3-.4v-.4l.1-.8a1.6 1.6 0 0 1 1-.7l.5-.1h.4l.5.3.4.6.2 1Zm-2.6-6.5a3.3 3.3 0 0 0-.2-1.2 1 1 0 0 0-.3-.4.7.7 0 0 0-.5-.2c-.3 0-.5.2-.7.4l-.4 1-.2 1.5v2.5a5.2 5.2 0 0 0 1.7-1.5 3.8 3.8 0 0 0 .6-2ZM99.4 47.4l-2.7.2a75.5 75.5 0 0 0 .2-11.9h2.3a10.3 10.3 0 0 0 0 .8 3.2 3.2 0 0 1 1.5-1.3l.9-.3c.5 0 .9.1 1.2.3a2.2 2.2 0 0 1 1.4 1.4l.2.8-.1 1-.4.7-.5.6-1 .2c-.3 0-.6 0-.8-.2l-.4-.5-.3-.5v-.8l.2-.4.3-.4.3-.3a.8.8 0 0 0-.2 0c-.4 0-.7 0-1 .3l-.6.9-.5 1.3L99 41a117.4 117.4 0 0 0 .3 6.4ZM109.7 31.4l-.2 2.1v2a40.5 40.5 0 0 1 1.7 0V38a16.6 16.6 0 0 0-1.9-.2v3.4a151.3 151.3 0 0 0 .2 6.2h-2.7a229.4 229.4 0 0 0 .3-9.7 36.5 36.5 0 0 0-1.7.1v-2.4a36.3 36.3 0 0 0 1.7 0 106.2 106.2 0 0 0 0-4h2.6ZM126 35.5a235.8 235.8 0 0 0-.3 3.8v1.2a116 116 0 0 0-.2 7.2c0 .7-.2 1.4-.3 2l-.7 1.6a3 3 0 0 1-1.2 1c-.5.3-1.1.4-2 .4-.6 0-1 0-1.4-.3-.4-.1-.6-.3-.8-.6a2 2 0 0 1-.4-.8v-1.4l.3-.5.5-.4.7-.1a1.5 1.5 0 0 1 1.1.5c.1.2.3.3.3.5l.1.6v.3a1.8 1.8 0 0 1-.6.7l.5.1c.1 0 .3 0 .5-.2.2 0 .4-.2.6-.4l.4-.9.2-1.2v-2.9c-.3.5-.5.8-.8 1-.3.3-.5.5-.8.6-.2.2-.5.3-.7.3-.4 0-.7-.1-1-.3-.4-.2-.8-.6-1-1-.3-.5-.6-1.2-.8-2a14.2 14.2 0 0 1 .3-6.8l.6-1.1.7-.8.8-.4.8-.1.7.1.7.4.7.6v-1l2.5.3Zm-2.6 2.6-.5-.7a1 1 0 0 0-.7-.3 1 1 0 0 0-.6.2l-.5.7c-.2.3-.3.8-.4 1.3a14.2 14.2 0 0 0 0 4l.2 1.1.4.7.5.1c.2 0 .4 0 .6-.2l.4-.5.3-.6.2-.5v-2.7l.1-2.6ZM135.4 44.8c0 .4 0 .8-.2 1.1a3 3 0 0 1-.8 1l-1.1.6a4 4 0 0 1-2.3 0c-.4 0-.7-.2-1-.4a4 4 0 0 1-.8-.8 5 5 0 0 1-.7-1.2 9 9 0 0 1-.5-1.7 13.9 13.9 0 0 1 0-4.4 8 8 0 0 1 .5-1.6l.7-1.2.8-.7c.3-.2.6-.4 1-.4a3.8 3.8 0 0 1 2.2 0A3 3 0 0 1 135 37c.2.4.2.9.2 1.4 0 .5 0 1-.3 1.5a5 5 0 0 1-.9 1.4 6.8 6.8 0 0 1-3.4 2.1l.1 1.2.3.9.5.6.5.2a1.5 1.5 0 0 0 .7-.3c.2 0 .2-.2.3-.3a1 1 0 0 1-.4-.3l-.2-.4-.1-.4c0-.4 0-.6.2-.8a1.6 1.6 0 0 1 1-.7l.4-.1h.5l.5.3.4.6.1 1Zm-2.5-6.5a3.2 3.2 0 0 0-.3-1.2 1 1 0 0 0-.3-.4.7.7 0 0 0-.4-.2c-.3 0-.5.2-.7.4l-.4 1-.3 1.5v2.5a5.2 5.2 0 0 0 1.7-1.5 3.8 3.8 0 0 0 .7-2ZM140 35.6v.9l.7-.9.8-.4a1.9 1.9 0 0 1 .7-.1c.6 0 1 0 1.4.3l1 1 .4 1.6a52.9 52.9 0 0 1-.5 9.2l-2.3-.3a35.7 35.7 0 0 0 .6-7.5 5 5 0 0 0-.3-1.2c0-.3-.2-.5-.4-.7a1 1 0 0 0-.7-.2c-.2 0-.4.1-.6.4a4 4 0 0 0-.5 1c-.2.4-.4 1-.5 1.7v6.9h-2.3a99 99 0 0 0 0-8v-3.7h2.6ZM152.4 47.1v-.8l.1-.7A3.3 3.3 0 0 1 151 47c-.2.2-.5.2-.7.3-.5 0-1-.2-1.4-.4-.3-.3-.7-.6-.9-1.1l-.6-1.7-.1-2.2a51.2 51.2 0 0 1 .4-6.4l2.6.3a36.5 36.5 0 0 0-.5 7c0 .4 0 .8.2 1.1 0 .3.2.6.4.7.2.2.4.3.7.3.2 0 .4-.2.6-.5l.3-.3a5.2 5.2 0 0 0 .5-1.5l.2-1v-6.2l2.3.1a71.9 71.9 0 0 0 0 11.6h-2.6ZM165.2 35.5l-.1 1.3-.1 1.2v1.3l-.1 1.2a110.3 110.3 0 0 0-.2 7.2c0 .7-.2 1.4-.3 2-.1.6-.4 1.1-.7 1.6a3 3 0 0 1-1.2 1c-.5.3-1.1.4-2 .4-.5 0-1 0-1.4-.3-.4-.1-.6-.3-.8-.6a2 2 0 0 1-.4-.8v-1.4l.3-.5a1.4 1.4 0 0 1 1.2-.5 1.5 1.5 0 0 1 1.1.5c.2.2.3.3.3.5l.1.6v.3a1.8 1.8 0 0 1-.6.7l.5.1c.1 0 .3 0 .5-.2.2 0 .4-.2.6-.4l.4-.9.2-1.2v-2.9c-.3.5-.5.8-.8 1-.3.3-.5.5-.8.6-.2.2-.5.3-.7.3-.4 0-.7-.1-1-.3-.4-.2-.8-.6-1-1-.3-.5-.6-1.2-.7-2a14 14 0 0 1 .2-6.8l.6-1.1.7-.8.8-.4.8-.1.7.1.7.4.7.6v-1l2.5.3Zm-2.6 2.6-.5-.7a1 1 0 0 0-.7-.3 1 1 0 0 0-.6.2l-.5.7c-.2.3-.3.8-.4 1.3a14.4 14.4 0 0 0 0 4l.2 1.1.4.7.5.1c.2 0 .4 0 .6-.2l.4-.5.3-.6.2-.5a1639.8 1639.8 0 0 1 .1-5.3ZM175.6 36.1c0 .6-.1 1-.3 1.4l-.6 1.2-.8 1a14 14 0 0 0-1.7 2.3l-.5 1.6H170a8.3 8.3 0 0 1 .8-3.3l.7-1.2a14.6 14.6 0 0 0 1.1-2.1l.2-1.4c0-.3 0-.6-.2-.9l-.5-.6a2.2 2.2 0 0 0-1.3-.5h-.2l-.3.1-.4.2.4.5.2.5a1.7 1.7 0 0 1 0 1.3 1.6 1.6 0 0 1-1 .9l-.7.1a1.8 1.8 0 0 1-1.7-1.1 2 2 0 0 1-.1-.8c0-.5.1-1 .3-1.4.3-.5.6-.8 1-1 .4-.4.8-.6 1.4-.7a6 6 0 0 1 3.1 0c.5.1 1 .3 1.4.6l1 1.3c.2.6.4 1.2.4 2Zm-3.2 9.9-.1.6-.3.4c-.2.2-.3.3-.5.3a1.3 1.3 0 0 1-1.1 0c-.2 0-.3-.1-.5-.3a1.4 1.4 0 0 1-.4-1 1.4 1.4 0 0 1 .4-1c.2-.2.3-.3.5-.3a1.4 1.4 0 0 1 1.6.3l.3.4.1.6ZM11.7 59a107.5 107.5 0 0 0-.3 8.3v2.3a104 104 0 0 0 .1 4.4H10a31.2 31.2 0 0 0-1.8 0l-.1-.6a26 26 0 0 0-.6-2.5 96.2 96.2 0 0 0-2.2-7.7 95 95 0 0 0 0 10.8 34.7 34.7 0 0 0-2 0h-.5a813.7 813.7 0 0 0 .1-8.1v-.4a86 86 0 0 0-.2-6.2 58.8 58.8 0 0 0 3.5-.1 18.8 18.8 0 0 0 .6 2.6A176 176 0 0 0 9.1 70a49.3 49.3 0 0 0 0-4.8v-.9A85 85 0 0 0 9 59h2.8ZM16.9 59.6a1.6 1.6 0 0 1-.5 1.1l-.5.4-.6.1-.6-.1a1.7 1.7 0 0 1-.9-.9 1.6 1.6 0 0 1 .4-1.7 1.6 1.6 0 0 1 1.1-.5l.6.1a1.6 1.6 0 0 1 1 1.5Zm0 3.1a49.3 49.3 0 0 0-.3 7.6v4.2h-2.4v-2.7a120.5 120.5 0 0 0-.3-9h3ZM25.7 68.6a49.5 49.5 0 0 1-.3 5.3h-2.3a68.8 68.8 0 0 0 0-8.3c-.2-.4-.4-.6-.8-.6l-.4.3-.3.5-.3 1V70a69.5 69.5 0 0 1 0 4.3H19a399.5 399.5 0 0 0 .2-9 98.3 98.3 0 0 0 0-2.7h2.3v1c.1-.4.3-.7.5-.9l.6-.5a1.5 1.5 0 0 1 .8-.1h.6c.2 0 .3.2.5.3l.5.7.3 1c.2-.5.4-1 .7-1.2l.8-.6.7-.2h.4c.4 0 .8 0 1 .4.4.2.6.6.8 1.2l.4 2a30 30 0 0 1-.4 8.6h-2.3a32.7 32.7 0 0 0 .2-8.4c0-.3-.2-.5-.3-.7a.7.7 0 0 0-.5-.2 1 1 0 0 0-.4.2 2 2 0 0 0-.4.5 3 3 0 0 0-.3.7v2.2ZM39.1 68.6a48.8 48.8 0 0 1-.3 5.3h-2.3a68.8 68.8 0 0 0 0-8.3c-.2-.4-.4-.6-.8-.6l-.4.3-.3.5c-.2.3-.3.6-.3 1V70a69.5 69.5 0 0 1 0 4.3h-2.3a399.5 399.5 0 0 0 .2-9 98.3 98.3 0 0 0 0-2.7h2.3l-.1 1 .6-.9.6-.5a1.5 1.5 0 0 1 .8-.1h.6c.2 0 .3.2.5.3l.5.7.3 1c.2-.5.4-1 .7-1.2l.8-.6.7-.2h.4c.4 0 .8 0 1 .4.4.2.6.6.8 1.2l.4 2a30 30 0 0 1-.4 8.6h-2.3a32.8 32.8 0 0 0 .2-8.4c0-.3-.2-.5-.3-.7a.7.7 0 0 0-.5-.2 1 1 0 0 0-.5.2 2 2 0 0 0-.3.5 3 3 0 0 0-.4.7l.1 2.2ZM59 58.6a161.2 161.2 0 0 0-.4 15.9h-2.4l.1-2c-.3.5-.5 1-.8 1.2l-.8.6-.8.3c-.4 0-.7-.1-1.1-.3-.4-.2-.7-.6-1-1l-.7-2a14.1 14.1 0 0 1 .3-6.8c.2-.4.3-.8.6-1.1l.7-.8.8-.4.8-.1.6.1a3.9 3.9 0 0 1 1.3.9c0-1.5 0-3-.2-4.5h3Zm-2.6 10.5a128.4 128.4 0 0 0-.3-4.3 2 2 0 0 0-.7-.6h-.3a1 1 0 0 0-.6.1l-.5.7c-.2.3-.3.8-.4 1.3a14.3 14.3 0 0 0 0 4l.2 1.1.4.7.5.1c.3 0 .5 0 .7-.2l.4-.7.4-.7.2-.7v-.8ZM63.9 59.6a1.6 1.6 0 0 1-.5 1.1l-.5.4-.6.1-.6-.1a1.7 1.7 0 0 1-.9-.9 1.6 1.6 0 0 1 .3-1.7 1.6 1.6 0 0 1 1.2-.5l.6.1a1.6 1.6 0 0 1 1 1.5Zm0 3.1a49.3 49.3 0 0 0-.4 7.6v4.2h-2.3v-2.7a120.5 120.5 0 0 0-.4-9h3ZM68.6 74.4l-2.7.2a75.5 75.5 0 0 0 .2-11.9h2.3a10.2 10.2 0 0 0 0 .8 3.2 3.2 0 0 1 1.5-1.3l.9-.3c.5 0 .9.1 1.2.3a2.2 2.2 0 0 1 1.4 1.4l.2.8-.1 1-.4.7-.5.6-1 .2c-.3 0-.6 0-.8-.2l-.4-.5-.2-.5v-.8l.1-.4.3-.4.3-.3a.8.8 0 0 0-.2 0c-.4 0-.7 0-1 .3l-.6.9-.5 1.3-.3 1.7a117.4 117.4 0 0 0 .3 6.4ZM87.8 71.8c0 .4-.1.8-.3 1.1a3 3 0 0 1-.7 1l-1.2.6a4 4 0 0 1-2.3 0c-.3 0-.6-.2-1-.4a4 4 0 0 1-.8-.8 5 5 0 0 1-.7-1.2 9 9 0 0 1-.4-1.7 13.8 13.8 0 0 1 0-4.4 8 8 0 0 1 .4-1.6l.7-1.2.8-.7a3 3 0 0 1 1-.4 3.8 3.8 0 0 1 2.2 0 3 3 0 0 1 1.8 1.8c.2.4.3.9.3 1.4l-.3 1.5a5 5 0 0 1-1 1.4c-.3.5-.8.9-1.4 1.3-.6.3-1.2.6-2 .8l.2 1.2.3.9.4.6.6.2a1.5 1.5 0 0 0 .7-.3l.3-.3a1 1 0 0 1-.4-.3l-.3-.4v-.4l.1-.8a1.6 1.6 0 0 1 1-.7l.5-.1h.4l.5.3.4.6.2 1Zm-2.6-6.5a3.3 3.3 0 0 0-.2-1.2 1 1 0 0 0-.3-.4.7.7 0 0 0-.5-.2c-.3 0-.5.2-.7.4l-.4 1-.2 1.5v2.5a5.2 5.2 0 0 0 1.7-1.5 3.8 3.8 0 0 0 .6-2ZM92.6 59.6a1.6 1.6 0 0 1-.5 1.1l-.5.4-.6.1-.6-.1a1.7 1.7 0 0 1-.9-.9 1.6 1.6 0 0 1 .4-1.7A1.6 1.6 0 0 1 91 58l.6.1a1.6 1.6 0 0 1 1 1.5Zm0 3.1a49.3 49.3 0 0 0-.3 7.6v4.2h-2.4v-2.7a121.4 121.4 0 0 0-.3-9h3ZM97.5 62.6l-.1.9.7-.9.7-.4a1.9 1.9 0 0 1 .8-.1c.5 0 1 0 1.3.3.4.2.7.6 1 1l.5 1.6.2 2.2a55.6 55.6 0 0 1-.7 7l-2.4-.3a35.5 35.5 0 0 0 .6-7.5 5 5 0 0 0-.2-1.2l-.4-.7a1 1 0 0 0-.7-.2c-.2 0-.4.1-.6.4a4 4 0 0 0-.5 1c-.2.4-.4 1-.5 1.7v6.9h-2.4a107.4 107.4 0 0 0 0-8v-3.7h2.7ZM118.4 63.9a5.5 5.5 0 0 1-1.8 4 5.5 5.5 0 0 1-3.7 1.5h-.2v1a105.6 105.6 0 0 0 .2 4.2 18.4 18.4 0 0 0-2 0h-.4a4 4 0 0 1-.5 0 142.9 142.9 0 0 0 .2-4.7v-1.4a193.3 193.3 0 0 0 0-9l1.5-.2a24 24 0 0 1 2.2 0 6.4 6.4 0 0 1 2.4.6 3.5 3.5 0 0 1 1.8 2c.2.6.3 1.2.3 2Zm-2.7 0-.1-1.3c-.2-.3-.3-.7-.6-.9-.2-.2-.5-.4-.9-.5-.3-.2-.8-.2-1.3-.3v3.9a182.7 182.7 0 0 0-.1 3 2.8 2.8 0 0 0 2.3-1.1l.5-1.2c.2-.5.2-1 .2-1.5ZM123.7 74.6c-.7 0-1.3-.2-1.8-.5s-.9-.7-1.2-1.2a6 6 0 0 1-.7-1.9l-.2-2.3c0-1 0-2 .3-2.8.1-.8.4-1.5.7-2 .4-.7.8-1.1 1.3-1.5.5-.3 1.1-.5 1.8-.5s1.2.2 1.7.4c.5.3.9.7 1.2 1.2.3.5.6 1.1.7 1.8a11.1 11.1 0 0 1 .2 3.8 11 11 0 0 1-.8 3c-.2.5-.4 1-.7 1.3l-1 .9a3 3 0 0 1-1.5.3Zm1.6-7.7v-1.4l-.3-1-.4-.7a.8.8 0 0 0-.6-.2c-.2 0-.5 0-.7.4l-.6 1-.3 1.9a19.2 19.2 0 0 0 0 4c0 .4 0 .8.2 1 0 .4.2.6.4.8.1.2.3.3.5.3.3 0 .5-.1.6-.3l.5-.8.3-1a12.2 12.2 0 0 0 .3-2.7V67ZM132.5 58.4a277 277 0 0 0-.4 9.3 10.8 10.8 0 0 0 2.3-3.8l.4-1.3 2.8.2A21 21 0 0 1 135 67l-.7.7a3.6 3.6 0 0 1 1.7 1.1l.3.7.2.9a25.9 25.9 0 0 1 .4 2l.4.9.5.9h-2.7a8.6 8.6 0 0 1-.5-2l-.2-1c0-.4-.2-.8-.3-1.1a2 2 0 0 0-.3-.5l-.4-.3-.5-.3a2 2 0 0 0-.7 0h-.1a310.8 310.8 0 0 0 0 5.4h-2.5A532.2 532.2 0 0 0 130 64a64.2 64.2 0 0 0-.2-5.6h2.7ZM146.5 71.8c0 .4 0 .8-.3 1.1a3 3 0 0 1-.7 1l-1.1.6a4 4 0 0 1-2.4 0c-.3 0-.6-.2-.9-.4a4 4 0 0 1-.8-.8 5 5 0 0 1-.7-1.2c-.2-.5-.4-1-.5-1.7a13.9 13.9 0 0 1 0-4.4 8 8 0 0 1 .5-1.6l.6-1.2.9-.7c.3-.2.6-.4.9-.4a3.8 3.8 0 0 1 2.2 0A3 3 0 0 1 146 64c.2.4.3.9.3 1.4 0 .5 0 1-.3 1.5a5 5 0 0 1-.9 1.4c-.4.5-.9.9-1.5 1.3-.5.3-1.2.6-2 .8l.2 1.2.3.9.4.6.6.2a1.5 1.5 0 0 0 .7-.3l.3-.3a1 1 0 0 1-.4-.3l-.2-.4-.1-.4c0-.4 0-.6.2-.8a1.6 1.6 0 0 1 1-.7l.4-.1h.4l.5.3.4.6.2 1Zm-2.5-6.5a3.2 3.2 0 0 0-.3-1.2 1 1 0 0 0-.3-.4.7.7 0 0 0-.4-.2c-.3 0-.6.2-.7.4l-.5 1-.2 1.5v2.5a5.2 5.2 0 0 0 1.7-1.5 3.8 3.8 0 0 0 .7-2ZM151 74.4l-2.7.2a74.9 74.9 0 0 0 .2-11.9h2.3a10 10 0 0 0 0 .8 3.2 3.2 0 0 1 1.5-1.3l.9-.3c.5 0 1 .1 1.3.3.3.1.6.3.8.6.3.2.4.5.5.8l.2.8-.1 1-.3.7-.6.6-.9.2c-.4 0-.6 0-.8-.2l-.5-.5-.2-.5v-.8l.1-.4.3-.4.4-.3a.8.8 0 0 0-.3 0c-.3 0-.6 0-1 .3l-.6.9-.5 1.3-.3 1.7a118.6 118.6 0 0 0 .4 6.4ZM165.5 58.6a161.6 161.6 0 0 0-.4 15.9h-2.3v-2a4.6 4.6 0 0 1-1.6 1.8l-.8.3c-.4 0-.7-.1-1-.3-.4-.2-.8-.6-1-1-.3-.5-.6-1.2-.8-2a14 14 0 0 1 .3-6.8l.6-1.1.7-.8.8-.4.8-.1.6.1a3.9 3.9 0 0 1 1.3.9l-.1-4.5h3ZM163 69.1a128.4 128.4 0 0 0-.3-4.3 2 2 0 0 0-.6-.6h-.4a1 1 0 0 0-.6.1l-.5.7c-.2.3-.3.8-.4 1.3l-.2 2 .1 2 .3 1.1.4.7.5.1c.3 0 .5 0 .7-.2l.4-.7.4-.7.2-.7v-.8ZM174.8 71.8c0 .4 0 .8-.3 1.1a3 3 0 0 1-.7 1l-1.1.6a4 4 0 0 1-2.3 0c-.4 0-.7-.2-1-.4a4 4 0 0 1-.8-.8 5 5 0 0 1-.7-1.2 9 9 0 0 1-.5-1.7 13.9 13.9 0 0 1 0-4.4 8 8 0 0 1 .5-1.6l.7-1.2.8-.7a3 3 0 0 1 1-.4 3.8 3.8 0 0 1 2.2 0 3 3 0 0 1 1.8 1.8l.2 1.4c0 .5 0 1-.3 1.5-.2.5-.5 1-.9 1.4-.4.5-.8.9-1.4 1.3l-2 .8.1 1.2.3.9.4.6.6.2a1.5 1.5 0 0 0 .7-.3l.3-.3a1 1 0 0 1-.4-.3l-.2-.4-.1-.4c0-.4 0-.6.2-.8a1.6 1.6 0 0 1 1-.7l.4-.1h.5l.4.3.4.6c.2.3.2.6.2 1Zm-2.5-6.5a3.2 3.2 0 0 0-.3-1.2 1 1 0 0 0-.3-.4.7.7 0 0 0-.4-.2c-.3 0-.5.2-.7.4l-.4 1c-.2.4-.2 1-.3 1.5v2.5a5.2 5.2 0 0 0 1.7-1.5 3.8 3.8 0 0 0 .7-2ZM184.3 65.3c0 .5 0 .8-.2 1.1-.1.3-.3.5-.5.6-.1.2-.3.3-.5.3a2 2 0 0 1-.4 0h-.5l-.4-.2-.4-.5a1.9 1.9 0 0 1 0-1.4c0-.1 0-.3.2-.4 0-.2.2-.3.4-.4a1.9 1.9 0 0 0-.7-1h-.5c-.3 0-.5 0-.7.3-.2.2-.4.5-.5 1a8 8 0 0 0-.3 1.5 15.5 15.5 0 0 0 0 3.9c0 .6 0 1.1.2 1.6 0 .5.2.8.4 1 .2.3.5.5.8.5.1 0 .3 0 .4-.2a1.7 1.7 0 0 0 .9-.8c-.2 0-.4-.2-.6-.4a2 2 0 0 1-.3-1c0-.4 0-.6.2-.9 0-.2.2-.3.4-.4l.6-.3h.8c.2 0 .4.2.5.3.2.1.3.3.4.6l.2 1c0 .4 0 .8-.3 1.2a4.2 4.2 0 0 1-2 2c-.4.3-.8.4-1.3.4l-1-.1-1-.5a4 4 0 0 1-.8-.8 5 5 0 0 1-.7-1.2 9 9 0 0 1-.4-1.7 13.8 13.8 0 0 1 0-4.5l.5-1.7c.2-.4.5-.8.8-1 .2-.4.5-.6.8-.8l1-.4h1c.5 0 1 0 1.3.2l1.1.7a3.3 3.3 0 0 1 1 2.4ZM189 58.4a277 277 0 0 0-.5 9.3 10.8 10.8 0 0 0 2.3-3.8l.5-1.3 2.7.2a21 21 0 0 1-2.6 4.1l-.6.7a3.6 3.6 0 0 1 1.7 1.1l.3.7.2.9a25.9 25.9 0 0 1 .4 2l.3.9.6.9h-2.7a8.8 8.8 0 0 1-.6-2l-.1-1c0-.4-.2-.8-.4-1.1a2 2 0 0 0-.3-.5l-.4-.3-.5-.3a2 2 0 0 0-.7 0 310.8 310.8 0 0 0 0 5.4h-2.5a532.2 532.2 0 0 0 .3-10.3 75.1 75.1 0 0 0-.2-5.6h2.7ZM53.4 101.1a148.3 148.3 0 0 1 0-1.5A3.3 3.3 0 0 1 52 101l-.8.3c-.5 0-1-.2-1.3-.4-.4-.3-.7-.6-1-1.1a6 6 0 0 1-.5-1.7l-.2-2.2a51 51 0 0 1 .5-6.4l2.6.3a36.4 36.4 0 0 0-.6 7l.2 1.1c.1.3.3.6.5.7.1.2.4.3.7.3.2 0 .4-.2.5-.5l.3-.3.3-.6a8 8 0 0 0 .5-3.2v-4.9l2.3.1a75 75 0 0 0 0 11.6h-2.6ZM61 89.6v.9c.2-.4.4-.7.7-.9l.7-.4a1.9 1.9 0 0 1 .8-.1c.5 0 1 0 1.3.3.4.2.7.6 1 1L66 92l.2 2.2a54.2 54.2 0 0 1-.7 7l-2.4-.3a35.5 35.5 0 0 0 .6-7.5 5 5 0 0 0-.2-1.2l-.4-.7a1 1 0 0 0-.8-.2c-.1 0-.3.1-.5.4a4 4 0 0 0-.5 1c-.2.4-.4 1-.5 1.7v6.9h-2.4a107.4 107.4 0 0 0 0-8v-3.7H61ZM76.3 85.6a161 161 0 0 0-.4 15.9h-2.4l.1-2-.8 1.2-.8.6-.9.3c-.3 0-.7-.1-1-.3-.4-.2-.7-.6-1-1-.3-.5-.5-1.2-.7-2a14.1 14.1 0 0 1 .3-6.8l.5-1.1.8-.8.8-.4.8-.1.6.1a3.9 3.9 0 0 1 1.3.9l-.2-4.5h3Zm-2.7 10.5a128.1 128.1 0 0 0-.3-4.3 2 2 0 0 0-.6-.6h-.3a1 1 0 0 0-.6.1l-.6.7-.3 1.3a14.3 14.3 0 0 0 0 4c0 .4 0 .8.2 1.1l.4.7.5.1c.2 0 .5 0 .6-.2l.5-.7.3-.7.2-.7v-.8ZM90.6 91.8a1.7 1.7 0 0 1-1.1 1.6H89a1.5 1.5 0 0 1-1-.3l-.3-.4a1.5 1.5 0 0 1 0-1.2c0-.2 0-.3.2-.4 0-.2.2-.3.4-.4a1.8 1.8 0 0 0-.7-.7H86.7l-.4.4a1.6 1.6 0 0 0-.4 1v.8l.3.6.5.7 1 .8a11.7 11.7 0 0 1 2 1.9l.4 1 .1.9a4 4 0 0 1-.7 2.2 2.9 2.9 0 0 1-1.5 1.1l-1.2.2a4 4 0 0 1-2.9-1 3 3 0 0 1-.7-1 2.1 2.1 0 0 1 0-1.5c0-.2 0-.4.2-.5l.5-.4.8-.2.7.1.5.4.3.5.2.7a1.4 1.4 0 0 1-.6 1c0 .2.2.2.2.3a1.7 1.7 0 0 0 .5 0h.4l.3-.3.3-.4v-1.1c0-.2 0-.4-.2-.6l-.5-.6-1-.9-.9-1a4.6 4.6 0 0 1-1.3-3.3 3.3 3.3 0 0 1 1-2.2c.3-.4.7-.6 1.2-.8a4 4 0 0 1 1.5-.3c.6 0 1 .1 1.5.3a2.8 2.8 0 0 1 1.6 1.7l.2 1.3ZM92.2 105.1a113.5 113.5 0 0 0 .4-15.2h2.3v1c.3-.5.6-1 1-1.3.4-.3.8-.5 1.2-.5.5 0 1 .1 1.4.4.4.2.7.5 1 1 .3.5.5 1.1.6 1.9a14.2 14.2 0 0 1 0 5.7c-.3.8-.5 1.4-.9 2a3 3 0 0 1-1 1l-1.3.3-.7-.1-.7-.4-.8-.7a149 149 0 0 0 .2 5h-2.7Zm2.5-7a6 6 0 0 0 .6.9l.4.3.4.1c.2 0 .4 0 .6-.2l.5-.8.4-1.4a12 12 0 0 0-.2-5c-.1-.3-.2-.5-.4-.6-.1-.2-.3-.3-.5-.3l-.4.2a2 2 0 0 0-.3.4l-.4.5a11.1 11.1 0 0 0-.6 1.5 251.5 251.5 0 0 0 0 4.3v.1ZM105.3 86.6a1.6 1.6 0 0 1-.5 1.1l-.5.4-.6.1-.6-.1a1.7 1.7 0 0 1-.9-.9 1.6 1.6 0 0 1 .4-1.7 1.6 1.6 0 0 1 1-.5l.7.1a1.6 1.6 0 0 1 1 1.5Zm0 3.1a48.5 48.5 0 0 0-.3 7.6v4.2h-2.4v-2.7a127 127 0 0 0-.3-9h3ZM114.8 98.8c0 .4-.1.8-.3 1.1a3 3 0 0 1-.8 1l-1 .6a4 4 0 0 1-2.4 0c-.3 0-.7-.2-1-.4a4 4 0 0 1-.8-.8 5 5 0 0 1-.7-1.2 9 9 0 0 1-.5-1.7 13.9 13.9 0 0 1 0-4.4 8 8 0 0 1 .5-1.6l.7-1.2.8-.7a3 3 0 0 1 1-.4 3.8 3.8 0 0 1 2.2 0 3 3 0 0 1 1.8 1.8c.2.4.3.9.3 1.4l-.3 1.5c-.2.5-.5 1-1 1.4-.3.5-.8.9-1.4 1.3l-2 .8c0 .5 0 .8.2 1.2l.3.9c0 .2.2.4.4.6l.5.2a1.5 1.5 0 0 0 .8-.3l.2-.3a1 1 0 0 1-.4-.3l-.2-.4v-.4l.1-.8a1.6 1.6 0 0 1 1-.7l.5-.1h.4l.5.3.4.6.2 1Zm-2.6-6.5a3.2 3.2 0 0 0-.2-1.2 1 1 0 0 0-.4-.4.7.7 0 0 0-.4-.2c-.3 0-.5.2-.7.4l-.4 1-.2 1.5-.1 1.7v.8a5.2 5.2 0 0 0 1.7-1.5 3.8 3.8 0 0 0 .7-2ZM119.4 85.2l-.1 2.3a415.6 415.6 0 0 0-.2 3.9v9.9h-2.4a118.6 118.6 0 0 0 0-13.3v-2.8h2.7ZM134.7 85.6a161.6 161.6 0 0 0-.5 15.9H132v-2c-.2.5-.5 1-.8 1.2-.3.3-.5.5-.8.6-.2.2-.5.3-.8.3-.3 0-.7-.1-1-.3-.4-.2-.7-.6-1-1-.3-.5-.5-1.2-.7-2a14.2 14.2 0 0 1 .2-6.8l.6-1.1.7-.8.8-.4.9-.1.6.1a4 4 0 0 1 1.3.9l-.2-4.5h3ZM132 96.1a128.4 128.4 0 0 0-.3-4.3 2 2 0 0 0-.6-.6h-.4a1 1 0 0 0-.5.1l-.6.7-.4 1.3a14.4 14.4 0 0 0 0 4c0 .4.2.8.3 1.1 0 .3.2.5.4.7l.5.1c.2 0 .4 0 .6-.2l.5-.7.3-.7.2-.7v-.8ZM139.5 86.6a1.6 1.6 0 0 1-.4 1.1l-.6.4-.6.1-.6-.1a1.7 1.7 0 0 1-.8-.9 1.6 1.6 0 0 1 .3-1.7 1.6 1.6 0 0 1 1.1-.5l.6.1a1.6 1.6 0 0 1 1 1.5Zm0 3.1a48.5 48.5 0 0 0-.3 7.6v4.2h-2.3v-2.7a127 127 0 0 0-.4-9h3ZM149 98.8c0 .4-.1.8-.3 1.1a3 3 0 0 1-.7 1l-1.1.6a4 4 0 0 1-2.4 0c-.3 0-.6-.2-1-.4a4 4 0 0 1-.8-.8 5 5 0 0 1-.7-1.2 9 9 0 0 1-.4-1.7 13.9 13.9 0 0 1 0-4.4 8 8 0 0 1 .4-1.6l.7-1.2.9-.7a3 3 0 0 1 .9-.4 3.8 3.8 0 0 1 2.2 0 3 3 0 0 1 1.8 1.8c.2.4.3.9.3 1.4 0 .5 0 1-.3 1.5-.2.5-.5 1-.9 1.4-.4.5-.9.9-1.5 1.3-.5.3-1.2.6-2 .8l.2 1.2.3.9.4.6.6.2a1.5 1.5 0 0 0 .7-.3l.3-.3a1 1 0 0 1-.4-.3l-.2-.4-.1-.4c0-.4 0-.6.2-.8a1.6 1.6 0 0 1 1-.7l.4-.1h.4l.5.3.4.6.2 1Zm-2.5-6.5a3.2 3.2 0 0 0-.3-1.2 1 1 0 0 0-.3-.4.7.7 0 0 0-.5-.2c-.2 0-.5.2-.6.4l-.5 1-.2 1.5v2.5a5.2 5.2 0 0 0 1.7-1.5 3.8 3.8 0 0 0 .7-2Z"/></mask><path d="M19.9 13c0 1-.1 2-.3 2.9-.2.8-.5 1.5-.8 2a5.4 5.4 0 0 1-4.4 2.7 13.6 13.6 0 0 1-3-.3A1852.8 1852.8 0 0 1 11.2 6l-.1-.8a30.3 30.3 0 0 1 2.6-.1 7 7 0 0 1 2 .3A5 5 0 0 1 19.5 9l.4 1.9v2Zm-2.7-.4-.1-3c-.2-.7-.3-1.3-.6-1.7-.2-.4-.6-.7-1-.9a4 4 0 0 0-1.4-.2h-.3l.1 12 .4.2h.3a2 2 0 0 0 1.2-.3c.3-.2.6-.6.8-1l.5-2 .1-3ZM24.8 5.6a1.6 1.6 0 0 1-.4 1.1l-.5.4-.7.1-.6-.1a1.7 1.7 0 0 1-.8-.9 1.6 1.6 0 0 1 .3-1.7 1.6 1.6 0 0 1 1.1-.5l.7.1a1.6 1.6 0 0 1 1 1.5Zm0 3.1a49.5 49.5 0 0 0-.3 7.6v4.2h-2.3v-2.7a120.5 120.5 0 0 0-.4-9h3ZM29.6 20.4l-2.7.2A75.4 75.4 0 0 0 27 8.7h2.3a10.3 10.3 0 0 0 0 .8 3.2 3.2 0 0 1 1.6-1.3l.8-.3c.5 0 1 .1 1.3.3.4.1.7.3.9.6l.5.8.1.8v1l-.4.7-.6.6-.9.2c-.3 0-.6 0-.8-.2l-.5-.5-.2-.5v-.8l.2-.4.2-.4.4-.3a.8.8 0 0 0-.3 0c-.3 0-.6 0-.9.3l-.7.9-.5 1.3-.2 1.7a117 117 0 0 0 .3 6.4ZM44.3 5.6a1.6 1.6 0 0 1-.5 1.1l-.5.4-.6.1-.6-.1a1.7 1.7 0 0 1-.9-.9 1.6 1.6 0 0 1 .4-1.7 1.6 1.6 0 0 1 1.1-.5l.6.1a1.6 1.6 0 0 1 1 1.5Zm0 3.1a49.3 49.3 0 0 0-.3 7.6v4.2h-2.4v-2.7a120.5 120.5 0 0 0-.3-9h3ZM53.5 10.8a1.7 1.7 0 0 1-1 1.6H52a1.5 1.5 0 0 1-1-.3l-.4-.4a1.5 1.5 0 0 1 0-1.2c0-.2 0-.3.2-.4 0-.2.2-.3.4-.4a1.8 1.8 0 0 0-.7-.7H49.6l-.4.4a1.6 1.6 0 0 0-.4 1v.8l.3.6.6.7 1 .8a11.7 11.7 0 0 1 1.8 1.9c.3.3.4.6.5 1l.2.9a4 4 0 0 1-.8 2.2 2.9 2.9 0 0 1-1.5 1.1l-1.2.2a4 4 0 0 1-2.9-1 3 3 0 0 1-.6-1 2.1 2.1 0 0 1-.1-1.5l.2-.5.6-.4.7-.2.7.1.5.4.4.5v.7a1.4 1.4 0 0 1-.5 1c0 .2.2.2.3.3a1.7 1.7 0 0 0 .5 0h.3l.3-.3.3-.4.1-.5v-.6l-.3-.6-.5-.6-.9-.9-1-1a4.6 4.6 0 0 1-1.3-3.3 3.3 3.3 0 0 1 1-2.2c.3-.4.7-.6 1.2-.8a4 4 0 0 1 1.5-.3c.6 0 1 .1 1.5.3a2.8 2.8 0 0 1 1.6 1.7c.2.4.2.8.2 1.3ZM59 4.4a75.7 75.7 0 0 0-.2 4.1 40.3 40.3 0 0 1 1.8 0V11a16.6 16.6 0 0 0-1.9-.2v3.4a155 155 0 0 0 .2 6.2h-2.7a228.1 228.1 0 0 0 .3-9.7 36.6 36.6 0 0 0-1.7.1V8.5a36 36 0 0 0 1.7 0 101.6 101.6 0 0 0 0-4H59ZM70.4 20.4a82 82 0 0 0-2.8 0 26.2 26.2 0 0 0 .3-3.8 105 105 0 0 0-.3-11.4h.7a38 38 0 0 0 2.1 0 199.9 199.9 0 0 0-.2 7H71.5a27.7 27.7 0 0 0 2 0 29.7 29.7 0 0 0-.1-2.8 56 56 0 0 0-.3-4.2h.6a34 34 0 0 0 2 0 983.8 983.8 0 0 0 0 7.6 145 145 0 0 0 0 7 38 38 0 0 0-2.7.1 22.5 22.5 0 0 0 .3-2.8 34.8 34.8 0 0 0 .1-2.7 11.7 11.7 0 0 0-1.8 0 26.9 26.9 0 0 0-1.4 0 92.8 92.8 0 0 0 .2 6ZM81.8 20.6c-.7 0-1.3-.2-1.8-.5L78.8 19a6 6 0 0 1-.7-1.9l-.2-2.3c0-1 .1-2 .3-2.8.2-.8.4-1.5.8-2 .3-.7.7-1.1 1.2-1.5.6-.3 1.1-.5 1.8-.5s1.3.2 1.7.4c.5.3 1 .7 1.2 1.2.4.5.6 1.1.7 1.8a11.2 11.2 0 0 1 .2 3.8 11 11 0 0 1-.7 3l-.8 1.3-1 .9a3 3 0 0 1-1.5.3Zm1.6-7.7v-1.4l-.3-1c-.1-.3-.2-.6-.4-.7a.8.8 0 0 0-.6-.2c-.2 0-.5 0-.7.4l-.5 1-.4 1.9a19.2 19.2 0 0 0 0 4c0 .4 0 .8.2 1 0 .4.2.6.4.8.1.2.3.3.6.3.2 0 .4-.1.5-.3.2-.2.4-.4.5-.8l.3-1a12.2 12.2 0 0 0 .4-2.7V13ZM95 5.4a2.5 2.5 0 0 1-.5 1.4l-.5.5-.6.1-.6-.1-.4-.3-.4-.4V5.3l.3-.5c-.3 0-.6.1-.8.3-.2.1-.3.4-.4.7l-.2 1v1.9a24.6 24.6 0 0 0 2.5 0l-.1 2.4a16.8 16.8 0 0 0-2.4-.2 269.1 269.1 0 0 0 0 9.2v.4l-2.3.1a35.5 35.5 0 0 0 .1-5 116.7 116.7 0 0 0-.1-4.7 17.9 17.9 0 0 0-1.2.2l-.1-2.5h.6l.7.1V7.6l.1-1.8.7-1.4a3 3 0 0 1 1.1-1 4 4 0 0 1 1.7-.3l1.2.2a2.5 2.5 0 0 1 1.3 1.3c.2.3.2.6.2.8ZM102 10.8a1.7 1.7 0 0 1-1.1 1.6h-.5a1.5 1.5 0 0 1-1-.3l-.3-.4a1.5 1.5 0 0 1 0-1.2c0-.2 0-.3.2-.4 0-.2.2-.3.4-.4A1.8 1.8 0 0 0 99 9H98l-.4.4a1.6 1.6 0 0 0-.4 1v.8l.3.6.5.7 1 .8a11.6 11.6 0 0 1 2 1.9l.4 1 .1.9a4 4 0 0 1-.7 2.2 2.9 2.9 0 0 1-1.5 1.1l-1.2.2a4 4 0 0 1-2.9-1 3 3 0 0 1-.7-1 2.1 2.1 0 0 1 0-1.5c0-.2 0-.4.2-.5l.5-.4.8-.2.7.1.5.4.3.5.2.7a1.4 1.4 0 0 1-.6 1c0 .2.2.2.2.3a1.7 1.7 0 0 0 .5 0h.4l.3-.3.3-.4v-1.1c0-.2 0-.4-.2-.6l-.5-.6-1-.9-.9-1a4.6 4.6 0 0 1-1.3-3.3 3.3 3.3 0 0 1 1-2.2c.3-.4.7-.6 1.2-.8a4 4 0 0 1 1.5-.3c.6 0 1 .1 1.5.3a2.8 2.8 0 0 1 1.6 1.7l.2 1.3ZM107.5 4.4a73.8 73.8 0 0 0-.2 4.1 40.3 40.3 0 0 1 1.8 0V11a16.5 16.5 0 0 0-1.9-.2v3.4a151.3 151.3 0 0 0 .1 6.2h-2.6a236.5 236.5 0 0 0 .3-9.7 36.5 36.5 0 0 0-1.8.1l.1-2.4a36 36 0 0 0 1.7 0v-4h2.5ZM115.7 20.4a17.7 17.7 0 0 1-.2-1.3c-.3.5-.7.8-1.2 1a2.8 2.8 0 0 1-2.2.3 2 2 0 0 1-.8-.4c-.2-.2-.4-.5-.5-.9-.2-.4-.3-.8-.3-1.4A3.2 3.2 0 0 1 112 15a9.7 9.7 0 0 1 1.6-1l.6-.3.8-.8.5-.8-.1-1.2c0-.3-.2-.5-.3-.7a1 1 0 0 0-.4-.4l-.6-.1c-.3 0-.6 0-.8.2l-.5.5.4.3.2.4v.4c0 .5 0 .8-.3 1-.3.3-.6.4-1 .4l-.6-.1-.5-.4-.3-.7-.1-.8c0-.2 0-.5.2-.9l.6-.9c.3-.2.7-.5 1.1-.6.5-.2 1-.3 1.7-.3.6 0 1.2.1 1.6.4.5.2.9.5 1.1 1 .3.4.6.8.7 1.4l.2 1.6a101.6 101.6 0 0 1 0 5.6 27.2 27.2 0 0 0 .2 2.2l-2.3.1Zm-.2-6-.8.7a27.1 27.1 0 0 0-1.3 1.1l-.5.6-.2.7.2.8c.2.2.4.3.7.3.2 0 .5 0 .7-.2l.5-.5.4-.7.2-.6.1-2.2ZM125 20.4a20.2 20.2 0 0 1-.2-1.3c-.3.5-.7.8-1.1 1a2.8 2.8 0 0 1-2.3.3 2 2 0 0 1-.8-.4c-.2-.2-.4-.5-.5-.9-.2-.4-.3-.8-.3-1.4a3.3 3.3 0 0 1 1.5-2.8 9.7 9.7 0 0 1 1.6-1c.3 0 .5-.2.6-.3a5 5 0 0 0 1.3-1.6l-.1-1.2c0-.3-.2-.5-.3-.7a1 1 0 0 0-.4-.4l-.6-.1c-.3 0-.6 0-.8.2l-.5.5.4.3.2.4v.4c0 .5 0 .8-.3 1-.3.3-.6.4-1 .4l-.6-.1-.5-.4-.3-.7v-.8l.1-.9.6-.9c.3-.2.7-.5 1.1-.6a4.3 4.3 0 0 1 3.3 0c.5.3.9.6 1.2 1l.6 1.5.2 1.6a102.5 102.5 0 0 1 0 5.6 28.9 28.9 0 0 0 .2 2.2l-2.3.1Zm-.2-6-.8.7a29.2 29.2 0 0 0-1.3 1.1l-.5.6-.2.7c0 .3.1.5.3.8.1.2.3.3.6.3.2 0 .5 0 .7-.2l.5-.5.4-.7.2-.6.1-2.2ZM133 4.4v2.1l-.2 2a40.3 40.3 0 0 1 1.8 0V11a16.6 16.6 0 0 0-1.8-.2v3.4a158.8 158.8 0 0 0 0 6.2h-2.6a229.4 229.4 0 0 0 .3-9.7 36.5 36.5 0 0 0-1.7.1V8.5a35.8 35.8 0 0 0 1.7 0 106.2 106.2 0 0 0 0-4h2.6ZM144.3 8.6v.9c.2-.4.4-.7.7-.9l.7-.4a1.9 1.9 0 0 1 .8-.1c.5 0 1 0 1.3.3.4.2.7.6 1 1l.5 1.6.2 2.2a52.9 52.9 0 0 1-.7 7l-2.4-.3a34.3 34.3 0 0 0 .6-7.5 5 5 0 0 0-.2-1.2l-.5-.7a1 1 0 0 0-.7-.2c-.2 0-.4.1-.6.4a4 4 0 0 0-.5 1l-.5 1.7v6.9h-2.3a112.6 112.6 0 0 0 0-11.7h2.6ZM154.5 5.6a1.6 1.6 0 0 1-.5 1.1l-.5.4-.6.1-.6-.1a1.7 1.7 0 0 1-.9-.9 1.6 1.6 0 0 1 .4-1.7 1.6 1.6 0 0 1 1.1-.5l.6.1a1.6 1.6 0 0 1 1 1.5Zm0 3.1a48.5 48.5 0 0 0-.3 7.6v4.2h-2.4v-2.7a118 118 0 0 0-.3-9h3ZM164.2 11.3l-.2 1.1-.5.6c-.2.2-.3.3-.5.3a2 2 0 0 1-.5 0h-.4l-.5-.2-.4-.5a1.9 1.9 0 0 1 0-1.4l.2-.4.5-.4a1.9 1.9 0 0 0-.8-1h-.4c-.3 0-.5 0-.7.3-.2.2-.4.5-.5 1l-.4 1.5a15.5 15.5 0 0 0 0 3.9l.2 1.6.5 1c.2.3.5.5.8.5.1 0 .3 0 .4-.2a1.7 1.7 0 0 0 .9-.8c-.3 0-.5-.2-.6-.4a2 2 0 0 1-.4-1l.2-.9.5-.4.5-.3h.9c.2 0 .3.2.5.3.2.1.3.3.4.6l.2 1-.3 1.2a4.2 4.2 0 0 1-2 2c-.4.3-.8.4-1.3.4l-1-.1-1-.5a4 4 0 0 1-.8-.8 5 5 0 0 1-.7-1.2 9 9 0 0 1-.4-1.7 13.9 13.9 0 0 1 0-4.5c0-.6.3-1.2.5-1.7.2-.4.4-.8.7-1 .3-.4.6-.6 1-.8.2-.2.6-.3.9-.4h1c.4 0 .9 0 1.3.2l1.1.7a3.3 3.3 0 0 1 1 2.4ZM168.8 4.4a378 378 0 0 0-.3 5.3A3.4 3.4 0 0 1 170 8c.3-.2.6-.2 1-.3.4 0 .8.2 1.2.4l.9 1 .4 1.6.2 2.1a51.2 51.2 0 0 1-.7 7.3l-2.4-.3a30.5 30.5 0 0 0 .5-8.7c0-.3-.2-.5-.4-.7a1 1 0 0 0-.7-.2c-.2 0-.4.1-.6.4l-.3.4a5.1 5.1 0 0 0-.6 1.3l-.2 1.1v6.8H166a114.8 114.8 0 0 0 0-16h2.8ZM179.7 4.4a77.7 77.7 0 0 0-.3 4.1 40.1 40.1 0 0 1 1.8 0V11a16.6 16.6 0 0 0-1.9-.2v3.4a158.8 158.8 0 0 0 .1 6.2h-2.6a222.8 222.8 0 0 0 .3-9.7 36.5 36.5 0 0 0-1.7.1V8.5a36.1 36.1 0 0 0 1.7 0v-4h2.6ZM24.4 31.4a294.3 294.3 0 0 0-.4 9.3 10.8 10.8 0 0 0 2.3-3.8l.4-1.3 2.8.2a20.6 20.6 0 0 1-2.6 4.1l-.7.7a3.6 3.6 0 0 1 1.7 1.1l.3.7.2.9a26.3 26.3 0 0 1 .4 2l.4.9.5.9H27a8.6 8.6 0 0 1-.5-2l-.2-1c0-.4-.1-.8-.3-1.1a2 2 0 0 0-.3-.5l-.4-.3-.5-.3a2 2 0 0 0-.7 0H24a319.1 319.1 0 0 0 0 5.4h-2.5A785.3 785.3 0 0 0 22 37a71 71 0 0 0-.2-5.6h2.7ZM34.7 47.6c-.6 0-1.2-.2-1.7-.5s-.9-.7-1.2-1.2A6 6 0 0 1 31 44c-.2-.7-.2-1.5-.2-2.3 0-1 0-2 .2-2.8.2-.8.5-1.5.8-2 .4-.7.8-1.1 1.3-1.5.5-.3 1-.5 1.8-.5.6 0 1.2.2 1.7.4.5.3.9.7 1.2 1.2l.7 1.8a11.2 11.2 0 0 1 .1 3.8 11 11 0 0 1-.7 3c-.2.5-.4 1-.7 1.3l-1.1.9a3 3 0 0 1-1.5.3Zm1.6-7.7v-1.4c0-.4-.2-.8-.3-1 0-.3-.2-.6-.4-.7a.8.8 0 0 0-.5-.2c-.3 0-.5 0-.7.4l-.6 1-.4 1.9a19.2 19.2 0 0 0 0 4l.2 1 .4.8.6.3.6-.3.4-.8.4-1a12.2 12.2 0 0 0 .3-2.7V40ZM47.5 41.6a49.4 49.4 0 0 1-.3 5.3h-2.3a68.8 68.8 0 0 0 0-8.3c-.2-.4-.4-.6-.8-.6l-.4.3-.4.5-.3 1V43a69.5 69.5 0 0 1 0 4.3h-2.3a398.6 398.6 0 0 0 .3-9 98.4 98.4 0 0 0 0-2.7h2.2v1l.6-.9.6-.5a1.5 1.5 0 0 1 .8-.1h.5l.6.3.4.7c.2.2.3.6.4 1 .2-.5.4-1 .7-1.2.3-.3.5-.5.8-.6l.7-.2h.4c.4 0 .8 0 1 .4.4.2.6.6.8 1.2l.4 2a30 30 0 0 1-.4 8.6h-2.3a32.8 32.8 0 0 0 .2-8.4c0-.3-.2-.5-.3-.7a.7.7 0 0 0-.6-.2 1 1 0 0 0-.4.2 2 2 0 0 0-.3.5 3 3 0 0 0-.4.7v2.2ZM54 51.1a113.6 113.6 0 0 0 .3-15.2h2.4l-.1 1c.3-.5.6-1 1-1.3.4-.3.8-.5 1.2-.5.6 0 1 .1 1.4.4.4.2.7.5 1 1 .3.5.5 1.1.6 1.9a14.3 14.3 0 0 1 0 5.7c-.2.8-.5 1.4-.8 2a3 3 0 0 1-1.1 1l-1.3.3-.7-.1-.7-.4-.7-.7a147 147 0 0 0 .2 5h-2.8Zm2.5-7a6 6 0 0 0 .5.9l.4.3.4.1c.2 0 .4 0 .6-.2l.5-.8.4-1.4a11.9 11.9 0 0 0-.2-5c0-.3-.2-.5-.4-.6-.1-.2-.3-.3-.4-.3-.2 0-.3 0-.4.2a2 2 0 0 0-.4.4l-.3.5a11.3 11.3 0 0 0-.7 1.5 251.5 251.5 0 0 0 0 4.3v.1ZM66.8 31.2a2206.3 2206.3 0 0 0-.3 9.5v6.6h-2.3a117.3 117.3 0 0 0 0-13.3v-2.8h2.6ZM71.8 32.6a1.6 1.6 0 0 1-.5 1.1l-.5.4-.6.1-.6-.1a1.7 1.7 0 0 1-.9-.9 1.6 1.6 0 0 1 .4-1.7 1.6 1.6 0 0 1 1-.5l.7.1a1.6 1.6 0 0 1 1 1.5Zm0 3.1a49.5 49.5 0 0 0-.3 7.6v4.2H69v-2.7a120.5 120.5 0 0 0-.3-9h3ZM80.5 37.6a31.6 31.6 0 0 0-4 7.7 49.1 49.1 0 0 0 4-.4v2.5a51.8 51.8 0 0 0-6.8 0v-2a45 45 0 0 0 4-7.7 19.9 19.9 0 0 0-3.9.5l-.1-2.5H75.4a72.8 72.8 0 0 0 5-.2v2.1ZM85.4 32.6a1.6 1.6 0 0 1-.5 1.1l-.5.4-.6.1-.6-.1a1.7 1.7 0 0 1-.9-.9 1.6 1.6 0 0 1 .4-1.7 1.6 1.6 0 0 1 1.1-.5l.6.1a1.6 1.6 0 0 1 1 1.5Zm0 3.1a49.3 49.3 0 0 0-.3 7.6v4.2h-2.4v-2.7a120.5 120.5 0 0 0-.3-9h3ZM94.9 44.8c0 .4-.1.8-.3 1.1a3 3 0 0 1-.8 1l-1 .6a4 4 0 0 1-2.4 0c-.3 0-.6-.2-1-.4a4 4 0 0 1-.8-.8 5 5 0 0 1-.7-1.2 9 9 0 0 1-.4-1.7 13.8 13.8 0 0 1 0-4.4 8 8 0 0 1 .4-1.6l.7-1.2.8-.7a3 3 0 0 1 1-.4 3.8 3.8 0 0 1 2.2 0 3 3 0 0 1 1.8 1.8c.2.4.3.9.3 1.4l-.3 1.5a5 5 0 0 1-1 1.4c-.3.5-.8.9-1.4 1.3-.6.3-1.2.6-2 .8l.2 1.2.3.9c0 .2.2.4.4.6l.6.2a1.5 1.5 0 0 0 .7-.3l.3-.3a1 1 0 0 1-.4-.3l-.3-.4v-.4l.1-.8a1.6 1.6 0 0 1 1-.7l.5-.1h.4l.5.3.4.6.2 1Zm-2.6-6.5a3.3 3.3 0 0 0-.2-1.2 1 1 0 0 0-.3-.4.7.7 0 0 0-.5-.2c-.3 0-.5.2-.7.4l-.4 1-.2 1.5v2.5a5.2 5.2 0 0 0 1.7-1.5 3.8 3.8 0 0 0 .6-2ZM99.4 47.4l-2.7.2a75.5 75.5 0 0 0 .2-11.9h2.3a10.3 10.3 0 0 0 0 .8 3.2 3.2 0 0 1 1.5-1.3l.9-.3c.5 0 .9.1 1.2.3a2.2 2.2 0 0 1 1.4 1.4l.2.8-.1 1-.4.7-.5.6-1 .2c-.3 0-.6 0-.8-.2l-.4-.5-.3-.5v-.8l.2-.4.3-.4.3-.3a.8.8 0 0 0-.2 0c-.4 0-.7 0-1 .3l-.6.9-.5 1.3L99 41a117.4 117.4 0 0 0 .3 6.4ZM109.7 31.4l-.2 2.1v2a40.5 40.5 0 0 1 1.7 0V38a16.6 16.6 0 0 0-1.9-.2v3.4a151.3 151.3 0 0 0 .2 6.2h-2.7a229.4 229.4 0 0 0 .3-9.7 36.5 36.5 0 0 0-1.7.1v-2.4a36.3 36.3 0 0 0 1.7 0 106.2 106.2 0 0 0 0-4h2.6ZM126 35.5a235.8 235.8 0 0 0-.3 3.8v1.2a116 116 0 0 0-.2 7.2c0 .7-.2 1.4-.3 2l-.7 1.6a3 3 0 0 1-1.2 1c-.5.3-1.1.4-2 .4-.6 0-1 0-1.4-.3-.4-.1-.6-.3-.8-.6a2 2 0 0 1-.4-.8v-1.4l.3-.5.5-.4.7-.1a1.5 1.5 0 0 1 1.1.5c.1.2.3.3.3.5l.1.6v.3a1.8 1.8 0 0 1-.6.7l.5.1c.1 0 .3 0 .5-.2.2 0 .4-.2.6-.4l.4-.9.2-1.2v-2.9c-.3.5-.5.8-.8 1-.3.3-.5.5-.8.6-.2.2-.5.3-.7.3-.4 0-.7-.1-1-.3-.4-.2-.8-.6-1-1-.3-.5-.6-1.2-.8-2a14.2 14.2 0 0 1 .3-6.8l.6-1.1.7-.8.8-.4.8-.1.7.1.7.4.7.6v-1l2.5.3Zm-2.6 2.6-.5-.7a1 1 0 0 0-.7-.3 1 1 0 0 0-.6.2l-.5.7c-.2.3-.3.8-.4 1.3a14.2 14.2 0 0 0 0 4l.2 1.1.4.7.5.1c.2 0 .4 0 .6-.2l.4-.5.3-.6.2-.5v-2.7l.1-2.6ZM135.4 44.8c0 .4 0 .8-.2 1.1a3 3 0 0 1-.8 1l-1.1.6a4 4 0 0 1-2.3 0c-.4 0-.7-.2-1-.4a4 4 0 0 1-.8-.8 5 5 0 0 1-.7-1.2 9 9 0 0 1-.5-1.7 13.9 13.9 0 0 1 0-4.4 8 8 0 0 1 .5-1.6l.7-1.2.8-.7c.3-.2.6-.4 1-.4a3.8 3.8 0 0 1 2.2 0A3 3 0 0 1 135 37c.2.4.2.9.2 1.4 0 .5 0 1-.3 1.5a5 5 0 0 1-.9 1.4 6.8 6.8 0 0 1-3.4 2.1l.1 1.2.3.9.5.6.5.2a1.5 1.5 0 0 0 .7-.3c.2 0 .2-.2.3-.3a1 1 0 0 1-.4-.3l-.2-.4-.1-.4c0-.4 0-.6.2-.8a1.6 1.6 0 0 1 1-.7l.4-.1h.5l.5.3.4.6.1 1Zm-2.5-6.5a3.2 3.2 0 0 0-.3-1.2 1 1 0 0 0-.3-.4.7.7 0 0 0-.4-.2c-.3 0-.5.2-.7.4l-.4 1-.3 1.5v2.5a5.2 5.2 0 0 0 1.7-1.5 3.8 3.8 0 0 0 .7-2ZM140 35.6v.9l.7-.9.8-.4a1.9 1.9 0 0 1 .7-.1c.6 0 1 0 1.4.3l1 1 .4 1.6a52.9 52.9 0 0 1-.5 9.2l-2.3-.3a35.7 35.7 0 0 0 .6-7.5 5 5 0 0 0-.3-1.2c0-.3-.2-.5-.4-.7a1 1 0 0 0-.7-.2c-.2 0-.4.1-.6.4a4 4 0 0 0-.5 1c-.2.4-.4 1-.5 1.7v6.9h-2.3a99 99 0 0 0 0-8v-3.7h2.6ZM152.4 47.1v-.8l.1-.7A3.3 3.3 0 0 1 151 47c-.2.2-.5.2-.7.3-.5 0-1-.2-1.4-.4-.3-.3-.7-.6-.9-1.1l-.6-1.7-.1-2.2a51.2 51.2 0 0 1 .4-6.4l2.6.3a36.5 36.5 0 0 0-.5 7c0 .4 0 .8.2 1.1 0 .3.2.6.4.7.2.2.4.3.7.3.2 0 .4-.2.6-.5l.3-.3a5.2 5.2 0 0 0 .5-1.5l.2-1v-6.2l2.3.1a71.9 71.9 0 0 0 0 11.6h-2.6ZM165.2 35.5l-.1 1.3-.1 1.2v1.3l-.1 1.2a110.3 110.3 0 0 0-.2 7.2c0 .7-.2 1.4-.3 2-.1.6-.4 1.1-.7 1.6a3 3 0 0 1-1.2 1c-.5.3-1.1.4-2 .4-.5 0-1 0-1.4-.3-.4-.1-.6-.3-.8-.6a2 2 0 0 1-.4-.8v-1.4l.3-.5a1.4 1.4 0 0 1 1.2-.5 1.5 1.5 0 0 1 1.1.5c.2.2.3.3.3.5l.1.6v.3a1.8 1.8 0 0 1-.6.7l.5.1c.1 0 .3 0 .5-.2.2 0 .4-.2.6-.4l.4-.9.2-1.2v-2.9c-.3.5-.5.8-.8 1-.3.3-.5.5-.8.6-.2.2-.5.3-.7.3-.4 0-.7-.1-1-.3-.4-.2-.8-.6-1-1-.3-.5-.6-1.2-.7-2a14 14 0 0 1 .2-6.8l.6-1.1.7-.8.8-.4.8-.1.7.1.7.4.7.6v-1l2.5.3Zm-2.6 2.6-.5-.7a1 1 0 0 0-.7-.3 1 1 0 0 0-.6.2l-.5.7c-.2.3-.3.8-.4 1.3a14.4 14.4 0 0 0 0 4l.2 1.1.4.7.5.1c.2 0 .4 0 .6-.2l.4-.5.3-.6.2-.5a1639.8 1639.8 0 0 1 .1-5.3ZM175.6 36.1c0 .6-.1 1-.3 1.4l-.6 1.2-.8 1a14 14 0 0 0-1.7 2.3l-.5 1.6H170a8.3 8.3 0 0 1 .8-3.3l.7-1.2a14.6 14.6 0 0 0 1.1-2.1l.2-1.4c0-.3 0-.6-.2-.9l-.5-.6a2.2 2.2 0 0 0-1.3-.5h-.2l-.3.1-.4.2.4.5.2.5a1.7 1.7 0 0 1 0 1.3 1.6 1.6 0 0 1-1 .9l-.7.1a1.8 1.8 0 0 1-1.7-1.1 2 2 0 0 1-.1-.8c0-.5.1-1 .3-1.4.3-.5.6-.8 1-1 .4-.4.8-.6 1.4-.7a6 6 0 0 1 3.1 0c.5.1 1 .3 1.4.6l1 1.3c.2.6.4 1.2.4 2Zm-3.2 9.9-.1.6-.3.4c-.2.2-.3.3-.5.3a1.3 1.3 0 0 1-1.1 0c-.2 0-.3-.1-.5-.3a1.4 1.4 0 0 1-.4-1 1.4 1.4 0 0 1 .4-1c.2-.2.3-.3.5-.3a1.4 1.4 0 0 1 1.6.3l.3.4.1.6ZM11.7 59a107.5 107.5 0 0 0-.3 8.3v2.3a104 104 0 0 0 .1 4.4H10a31.2 31.2 0 0 0-1.8 0l-.1-.6a26 26 0 0 0-.6-2.5 96.2 96.2 0 0 0-2.2-7.7 95 95 0 0 0 0 10.8 34.7 34.7 0 0 0-2 0h-.5a813.7 813.7 0 0 0 .1-8.1v-.4a86 86 0 0 0-.2-6.2 58.8 58.8 0 0 0 3.5-.1 18.8 18.8 0 0 0 .6 2.6A176 176 0 0 0 9.1 70a49.3 49.3 0 0 0 0-4.8v-.9A85 85 0 0 0 9 59h2.8ZM16.9 59.6a1.6 1.6 0 0 1-.5 1.1l-.5.4-.6.1-.6-.1a1.7 1.7 0 0 1-.9-.9 1.6 1.6 0 0 1 .4-1.7 1.6 1.6 0 0 1 1.1-.5l.6.1a1.6 1.6 0 0 1 1 1.5Zm0 3.1a49.3 49.3 0 0 0-.3 7.6v4.2h-2.4v-2.7a120.5 120.5 0 0 0-.3-9h3ZM25.7 68.6a49.5 49.5 0 0 1-.3 5.3h-2.3a68.8 68.8 0 0 0 0-8.3c-.2-.4-.4-.6-.8-.6l-.4.3-.3.5-.3 1V70a69.5 69.5 0 0 1 0 4.3H19a399.5 399.5 0 0 0 .2-9 98.3 98.3 0 0 0 0-2.7h2.3v1c.1-.4.3-.7.5-.9l.6-.5a1.5 1.5 0 0 1 .8-.1h.6c.2 0 .3.2.5.3l.5.7.3 1c.2-.5.4-1 .7-1.2l.8-.6.7-.2h.4c.4 0 .8 0 1 .4.4.2.6.6.8 1.2l.4 2a30 30 0 0 1-.4 8.6h-2.3a32.7 32.7 0 0 0 .2-8.4c0-.3-.2-.5-.3-.7a.7.7 0 0 0-.5-.2 1 1 0 0 0-.4.2 2 2 0 0 0-.4.5 3 3 0 0 0-.3.7v2.2ZM39.1 68.6a48.8 48.8 0 0 1-.3 5.3h-2.3a68.8 68.8 0 0 0 0-8.3c-.2-.4-.4-.6-.8-.6l-.4.3-.3.5c-.2.3-.3.6-.3 1V70a69.5 69.5 0 0 1 0 4.3h-2.3a399.5 399.5 0 0 0 .2-9 98.3 98.3 0 0 0 0-2.7h2.3l-.1 1 .6-.9.6-.5a1.5 1.5 0 0 1 .8-.1h.6c.2 0 .3.2.5.3l.5.7.3 1c.2-.5.4-1 .7-1.2l.8-.6.7-.2h.4c.4 0 .8 0 1 .4.4.2.6.6.8 1.2l.4 2a30 30 0 0 1-.4 8.6h-2.3a32.8 32.8 0 0 0 .2-8.4c0-.3-.2-.5-.3-.7a.7.7 0 0 0-.5-.2 1 1 0 0 0-.5.2 2 2 0 0 0-.3.5 3 3 0 0 0-.4.7l.1 2.2ZM59 58.6a161.2 161.2 0 0 0-.4 15.9h-2.4l.1-2c-.3.5-.5 1-.8 1.2l-.8.6-.8.3c-.4 0-.7-.1-1.1-.3-.4-.2-.7-.6-1-1l-.7-2a14.1 14.1 0 0 1 .3-6.8c.2-.4.3-.8.6-1.1l.7-.8.8-.4.8-.1.6.1a3.9 3.9 0 0 1 1.3.9c0-1.5 0-3-.2-4.5h3Zm-2.6 10.5a128.4 128.4 0 0 0-.3-4.3 2 2 0 0 0-.7-.6h-.3a1 1 0 0 0-.6.1l-.5.7c-.2.3-.3.8-.4 1.3a14.3 14.3 0 0 0 0 4l.2 1.1.4.7.5.1c.3 0 .5 0 .7-.2l.4-.7.4-.7.2-.7v-.8ZM63.9 59.6a1.6 1.6 0 0 1-.5 1.1l-.5.4-.6.1-.6-.1a1.7 1.7 0 0 1-.9-.9 1.6 1.6 0 0 1 .3-1.7 1.6 1.6 0 0 1 1.2-.5l.6.1a1.6 1.6 0 0 1 1 1.5Zm0 3.1a49.3 49.3 0 0 0-.4 7.6v4.2h-2.3v-2.7a120.5 120.5 0 0 0-.4-9h3ZM68.6 74.4l-2.7.2a75.5 75.5 0 0 0 .2-11.9h2.3a10.2 10.2 0 0 0 0 .8 3.2 3.2 0 0 1 1.5-1.3l.9-.3c.5 0 .9.1 1.2.3a2.2 2.2 0 0 1 1.4 1.4l.2.8-.1 1-.4.7-.5.6-1 .2c-.3 0-.6 0-.8-.2l-.4-.5-.2-.5v-.8l.1-.4.3-.4.3-.3a.8.8 0 0 0-.2 0c-.4 0-.7 0-1 .3l-.6.9-.5 1.3-.3 1.7a117.4 117.4 0 0 0 .3 6.4ZM87.8 71.8c0 .4-.1.8-.3 1.1a3 3 0 0 1-.7 1l-1.2.6a4 4 0 0 1-2.3 0c-.3 0-.6-.2-1-.4a4 4 0 0 1-.8-.8 5 5 0 0 1-.7-1.2 9 9 0 0 1-.4-1.7 13.8 13.8 0 0 1 0-4.4 8 8 0 0 1 .4-1.6l.7-1.2.8-.7a3 3 0 0 1 1-.4 3.8 3.8 0 0 1 2.2 0 3 3 0 0 1 1.8 1.8c.2.4.3.9.3 1.4l-.3 1.5a5 5 0 0 1-1 1.4c-.3.5-.8.9-1.4 1.3-.6.3-1.2.6-2 .8l.2 1.2.3.9.4.6.6.2a1.5 1.5 0 0 0 .7-.3l.3-.3a1 1 0 0 1-.4-.3l-.3-.4v-.4l.1-.8a1.6 1.6 0 0 1 1-.7l.5-.1h.4l.5.3.4.6.2 1Zm-2.6-6.5a3.3 3.3 0 0 0-.2-1.2 1 1 0 0 0-.3-.4.7.7 0 0 0-.5-.2c-.3 0-.5.2-.7.4l-.4 1-.2 1.5v2.5a5.2 5.2 0 0 0 1.7-1.5 3.8 3.8 0 0 0 .6-2ZM92.6 59.6a1.6 1.6 0 0 1-.5 1.1l-.5.4-.6.1-.6-.1a1.7 1.7 0 0 1-.9-.9 1.6 1.6 0 0 1 .4-1.7A1.6 1.6 0 0 1 91 58l.6.1a1.6 1.6 0 0 1 1 1.5Zm0 3.1a49.3 49.3 0 0 0-.3 7.6v4.2h-2.4v-2.7a121.4 121.4 0 0 0-.3-9h3ZM97.5 62.6l-.1.9.7-.9.7-.4a1.9 1.9 0 0 1 .8-.1c.5 0 1 0 1.3.3.4.2.7.6 1 1l.5 1.6.2 2.2a55.6 55.6 0 0 1-.7 7l-2.4-.3a35.5 35.5 0 0 0 .6-7.5 5 5 0 0 0-.2-1.2l-.4-.7a1 1 0 0 0-.7-.2c-.2 0-.4.1-.6.4a4 4 0 0 0-.5 1c-.2.4-.4 1-.5 1.7v6.9h-2.4a107.4 107.4 0 0 0 0-8v-3.7h2.7ZM118.4 63.9a5.5 5.5 0 0 1-1.8 4 5.5 5.5 0 0 1-3.7 1.5h-.2v1a105.6 105.6 0 0 0 .2 4.2 18.4 18.4 0 0 0-2 0h-.4a4 4 0 0 1-.5 0 142.9 142.9 0 0 0 .2-4.7v-1.4a193.3 193.3 0 0 0 0-9l1.5-.2a24 24 0 0 1 2.2 0 6.4 6.4 0 0 1 2.4.6 3.5 3.5 0 0 1 1.8 2c.2.6.3 1.2.3 2Zm-2.7 0-.1-1.3c-.2-.3-.3-.7-.6-.9-.2-.2-.5-.4-.9-.5-.3-.2-.8-.2-1.3-.3v3.9a182.7 182.7 0 0 0-.1 3 2.8 2.8 0 0 0 2.3-1.1l.5-1.2c.2-.5.2-1 .2-1.5ZM123.7 74.6c-.7 0-1.3-.2-1.8-.5s-.9-.7-1.2-1.2a6 6 0 0 1-.7-1.9l-.2-2.3c0-1 0-2 .3-2.8.1-.8.4-1.5.7-2 .4-.7.8-1.1 1.3-1.5.5-.3 1.1-.5 1.8-.5s1.2.2 1.7.4c.5.3.9.7 1.2 1.2.3.5.6 1.1.7 1.8a11.1 11.1 0 0 1 .2 3.8 11 11 0 0 1-.8 3c-.2.5-.4 1-.7 1.3l-1 .9a3 3 0 0 1-1.5.3Zm1.6-7.7v-1.4l-.3-1-.4-.7a.8.8 0 0 0-.6-.2c-.2 0-.5 0-.7.4l-.6 1-.3 1.9a19.2 19.2 0 0 0 0 4c0 .4 0 .8.2 1 0 .4.2.6.4.8.1.2.3.3.5.3.3 0 .5-.1.6-.3l.5-.8.3-1a12.2 12.2 0 0 0 .3-2.7V67ZM132.5 58.4a277 277 0 0 0-.4 9.3 10.8 10.8 0 0 0 2.3-3.8l.4-1.3 2.8.2A21 21 0 0 1 135 67l-.7.7a3.6 3.6 0 0 1 1.7 1.1l.3.7.2.9a25.9 25.9 0 0 1 .4 2l.4.9.5.9h-2.7a8.6 8.6 0 0 1-.5-2l-.2-1c0-.4-.2-.8-.3-1.1a2 2 0 0 0-.3-.5l-.4-.3-.5-.3a2 2 0 0 0-.7 0h-.1a310.8 310.8 0 0 0 0 5.4h-2.5A532.2 532.2 0 0 0 130 64a64.2 64.2 0 0 0-.2-5.6h2.7ZM146.5 71.8c0 .4 0 .8-.3 1.1a3 3 0 0 1-.7 1l-1.1.6a4 4 0 0 1-2.4 0c-.3 0-.6-.2-.9-.4a4 4 0 0 1-.8-.8 5 5 0 0 1-.7-1.2c-.2-.5-.4-1-.5-1.7a13.9 13.9 0 0 1 0-4.4 8 8 0 0 1 .5-1.6l.6-1.2.9-.7c.3-.2.6-.4.9-.4a3.8 3.8 0 0 1 2.2 0A3 3 0 0 1 146 64c.2.4.3.9.3 1.4 0 .5 0 1-.3 1.5a5 5 0 0 1-.9 1.4c-.4.5-.9.9-1.5 1.3-.5.3-1.2.6-2 .8l.2 1.2.3.9.4.6.6.2a1.5 1.5 0 0 0 .7-.3l.3-.3a1 1 0 0 1-.4-.3l-.2-.4-.1-.4c0-.4 0-.6.2-.8a1.6 1.6 0 0 1 1-.7l.4-.1h.4l.5.3.4.6.2 1Zm-2.5-6.5a3.2 3.2 0 0 0-.3-1.2 1 1 0 0 0-.3-.4.7.7 0 0 0-.4-.2c-.3 0-.6.2-.7.4l-.5 1-.2 1.5v2.5a5.2 5.2 0 0 0 1.7-1.5 3.8 3.8 0 0 0 .7-2ZM151 74.4l-2.7.2a74.9 74.9 0 0 0 .2-11.9h2.3a10 10 0 0 0 0 .8 3.2 3.2 0 0 1 1.5-1.3l.9-.3c.5 0 1 .1 1.3.3.3.1.6.3.8.6.3.2.4.5.5.8l.2.8-.1 1-.3.7-.6.6-.9.2c-.4 0-.6 0-.8-.2l-.5-.5-.2-.5v-.8l.1-.4.3-.4.4-.3a.8.8 0 0 0-.3 0c-.3 0-.6 0-1 .3l-.6.9-.5 1.3-.3 1.7a118.6 118.6 0 0 0 .4 6.4ZM165.5 58.6a161.6 161.6 0 0 0-.4 15.9h-2.3v-2a4.6 4.6 0 0 1-1.6 1.8l-.8.3c-.4 0-.7-.1-1-.3-.4-.2-.8-.6-1-1-.3-.5-.6-1.2-.8-2a14 14 0 0 1 .3-6.8l.6-1.1.7-.8.8-.4.8-.1.6.1a3.9 3.9 0 0 1 1.3.9l-.1-4.5h3ZM163 69.1a128.4 128.4 0 0 0-.3-4.3 2 2 0 0 0-.6-.6h-.4a1 1 0 0 0-.6.1l-.5.7c-.2.3-.3.8-.4 1.3l-.2 2 .1 2 .3 1.1.4.7.5.1c.3 0 .5 0 .7-.2l.4-.7.4-.7.2-.7v-.8ZM174.8 71.8c0 .4 0 .8-.3 1.1a3 3 0 0 1-.7 1l-1.1.6a4 4 0 0 1-2.3 0c-.4 0-.7-.2-1-.4a4 4 0 0 1-.8-.8 5 5 0 0 1-.7-1.2 9 9 0 0 1-.5-1.7 13.9 13.9 0 0 1 0-4.4 8 8 0 0 1 .5-1.6l.7-1.2.8-.7a3 3 0 0 1 1-.4 3.8 3.8 0 0 1 2.2 0 3 3 0 0 1 1.8 1.8l.2 1.4c0 .5 0 1-.3 1.5-.2.5-.5 1-.9 1.4-.4.5-.8.9-1.4 1.3l-2 .8.1 1.2.3.9.4.6.6.2a1.5 1.5 0 0 0 .7-.3l.3-.3a1 1 0 0 1-.4-.3l-.2-.4-.1-.4c0-.4 0-.6.2-.8a1.6 1.6 0 0 1 1-.7l.4-.1h.5l.4.3.4.6c.2.3.2.6.2 1Zm-2.5-6.5a3.2 3.2 0 0 0-.3-1.2 1 1 0 0 0-.3-.4.7.7 0 0 0-.4-.2c-.3 0-.5.2-.7.4l-.4 1c-.2.4-.2 1-.3 1.5v2.5a5.2 5.2 0 0 0 1.7-1.5 3.8 3.8 0 0 0 .7-2ZM184.3 65.3c0 .5 0 .8-.2 1.1-.1.3-.3.5-.5.6-.1.2-.3.3-.5.3a2 2 0 0 1-.4 0h-.5l-.4-.2-.4-.5a1.9 1.9 0 0 1 0-1.4c0-.1 0-.3.2-.4 0-.2.2-.3.4-.4a1.9 1.9 0 0 0-.7-1h-.5c-.3 0-.5 0-.7.3-.2.2-.4.5-.5 1a8 8 0 0 0-.3 1.5 15.5 15.5 0 0 0 0 3.9c0 .6 0 1.1.2 1.6 0 .5.2.8.4 1 .2.3.5.5.8.5.1 0 .3 0 .4-.2a1.7 1.7 0 0 0 .9-.8c-.2 0-.4-.2-.6-.4a2 2 0 0 1-.3-1c0-.4 0-.6.2-.9 0-.2.2-.3.4-.4l.6-.3h.8c.2 0 .4.2.5.3.2.1.3.3.4.6l.2 1c0 .4 0 .8-.3 1.2a4.2 4.2 0 0 1-2 2c-.4.3-.8.4-1.3.4l-1-.1-1-.5a4 4 0 0 1-.8-.8 5 5 0 0 1-.7-1.2 9 9 0 0 1-.4-1.7 13.8 13.8 0 0 1 0-4.5l.5-1.7c.2-.4.5-.8.8-1 .2-.4.5-.6.8-.8l1-.4h1c.5 0 1 0 1.3.2l1.1.7a3.3 3.3 0 0 1 1 2.4ZM189 58.4a277 277 0 0 0-.5 9.3 10.8 10.8 0 0 0 2.3-3.8l.5-1.3 2.7.2a21 21 0 0 1-2.6 4.1l-.6.7a3.6 3.6 0 0 1 1.7 1.1l.3.7.2.9a25.9 25.9 0 0 1 .4 2l.3.9.6.9h-2.7a8.8 8.8 0 0 1-.6-2l-.1-1c0-.4-.2-.8-.4-1.1a2 2 0 0 0-.3-.5l-.4-.3-.5-.3a2 2 0 0 0-.7 0 310.8 310.8 0 0 0 0 5.4h-2.5a532.2 532.2 0 0 0 .3-10.3 75.1 75.1 0 0 0-.2-5.6h2.7ZM53.4 101.1a148.3 148.3 0 0 1 0-1.5A3.3 3.3 0 0 1 52 101l-.8.3c-.5 0-1-.2-1.3-.4-.4-.3-.7-.6-1-1.1a6 6 0 0 1-.5-1.7l-.2-2.2a51 51 0 0 1 .5-6.4l2.6.3a36.4 36.4 0 0 0-.6 7l.2 1.1c.1.3.3.6.5.7.1.2.4.3.7.3.2 0 .4-.2.5-.5l.3-.3.3-.6a8 8 0 0 0 .5-3.2v-4.9l2.3.1a75 75 0 0 0 0 11.6h-2.6ZM61 89.6v.9c.2-.4.4-.7.7-.9l.7-.4a1.9 1.9 0 0 1 .8-.1c.5 0 1 0 1.3.3.4.2.7.6 1 1L66 92l.2 2.2a54.2 54.2 0 0 1-.7 7l-2.4-.3a35.5 35.5 0 0 0 .6-7.5 5 5 0 0 0-.2-1.2l-.4-.7a1 1 0 0 0-.8-.2c-.1 0-.3.1-.5.4a4 4 0 0 0-.5 1c-.2.4-.4 1-.5 1.7v6.9h-2.4a107.4 107.4 0 0 0 0-8v-3.7H61ZM76.3 85.6a161 161 0 0 0-.4 15.9h-2.4l.1-2-.8 1.2-.8.6-.9.3c-.3 0-.7-.1-1-.3-.4-.2-.7-.6-1-1-.3-.5-.5-1.2-.7-2a14.1 14.1 0 0 1 .3-6.8l.5-1.1.8-.8.8-.4.8-.1.6.1a3.9 3.9 0 0 1 1.3.9l-.2-4.5h3Zm-2.7 10.5a128.1 128.1 0 0 0-.3-4.3 2 2 0 0 0-.6-.6h-.3a1 1 0 0 0-.6.1l-.6.7-.3 1.3a14.3 14.3 0 0 0 0 4c0 .4 0 .8.2 1.1l.4.7.5.1c.2 0 .5 0 .6-.2l.5-.7.3-.7.2-.7v-.8ZM90.6 91.8a1.7 1.7 0 0 1-1.1 1.6H89a1.5 1.5 0 0 1-1-.3l-.3-.4a1.5 1.5 0 0 1 0-1.2c0-.2 0-.3.2-.4 0-.2.2-.3.4-.4a1.8 1.8 0 0 0-.7-.7H86.7l-.4.4a1.6 1.6 0 0 0-.4 1v.8l.3.6.5.7 1 .8a11.7 11.7 0 0 1 2 1.9l.4 1 .1.9a4 4 0 0 1-.7 2.2 2.9 2.9 0 0 1-1.5 1.1l-1.2.2a4 4 0 0 1-2.9-1 3 3 0 0 1-.7-1 2.1 2.1 0 0 1 0-1.5c0-.2 0-.4.2-.5l.5-.4.8-.2.7.1.5.4.3.5.2.7a1.4 1.4 0 0 1-.6 1c0 .2.2.2.2.3a1.7 1.7 0 0 0 .5 0h.4l.3-.3.3-.4v-1.1c0-.2 0-.4-.2-.6l-.5-.6-1-.9-.9-1a4.6 4.6 0 0 1-1.3-3.3 3.3 3.3 0 0 1 1-2.2c.3-.4.7-.6 1.2-.8a4 4 0 0 1 1.5-.3c.6 0 1 .1 1.5.3a2.8 2.8 0 0 1 1.6 1.7l.2 1.3ZM92.2 105.1a113.5 113.5 0 0 0 .4-15.2h2.3v1c.3-.5.6-1 1-1.3.4-.3.8-.5 1.2-.5.5 0 1 .1 1.4.4.4.2.7.5 1 1 .3.5.5 1.1.6 1.9a14.2 14.2 0 0 1 0 5.7c-.3.8-.5 1.4-.9 2a3 3 0 0 1-1 1l-1.3.3-.7-.1-.7-.4-.8-.7a149 149 0 0 0 .2 5h-2.7Zm2.5-7a6 6 0 0 0 .6.9l.4.3.4.1c.2 0 .4 0 .6-.2l.5-.8.4-1.4a12 12 0 0 0-.2-5c-.1-.3-.2-.5-.4-.6-.1-.2-.3-.3-.5-.3l-.4.2a2 2 0 0 0-.3.4l-.4.5a11.1 11.1 0 0 0-.6 1.5 251.5 251.5 0 0 0 0 4.3v.1ZM105.3 86.6a1.6 1.6 0 0 1-.5 1.1l-.5.4-.6.1-.6-.1a1.7 1.7 0 0 1-.9-.9 1.6 1.6 0 0 1 .4-1.7 1.6 1.6 0 0 1 1-.5l.7.1a1.6 1.6 0 0 1 1 1.5Zm0 3.1a48.5 48.5 0 0 0-.3 7.6v4.2h-2.4v-2.7a127 127 0 0 0-.3-9h3ZM114.8 98.8c0 .4-.1.8-.3 1.1a3 3 0 0 1-.8 1l-1 .6a4 4 0 0 1-2.4 0c-.3 0-.7-.2-1-.4a4 4 0 0 1-.8-.8 5 5 0 0 1-.7-1.2 9 9 0 0 1-.5-1.7 13.9 13.9 0 0 1 0-4.4 8 8 0 0 1 .5-1.6l.7-1.2.8-.7a3 3 0 0 1 1-.4 3.8 3.8 0 0 1 2.2 0 3 3 0 0 1 1.8 1.8c.2.4.3.9.3 1.4l-.3 1.5c-.2.5-.5 1-1 1.4-.3.5-.8.9-1.4 1.3l-2 .8c0 .5 0 .8.2 1.2l.3.9c0 .2.2.4.4.6l.5.2a1.5 1.5 0 0 0 .8-.3l.2-.3a1 1 0 0 1-.4-.3l-.2-.4v-.4l.1-.8a1.6 1.6 0 0 1 1-.7l.5-.1h.4l.5.3.4.6.2 1Zm-2.6-6.5a3.2 3.2 0 0 0-.2-1.2 1 1 0 0 0-.4-.4.7.7 0 0 0-.4-.2c-.3 0-.5.2-.7.4l-.4 1-.2 1.5-.1 1.7v.8a5.2 5.2 0 0 0 1.7-1.5 3.8 3.8 0 0 0 .7-2ZM119.4 85.2l-.1 2.3a415.6 415.6 0 0 0-.2 3.9v9.9h-2.4a118.6 118.6 0 0 0 0-13.3v-2.8h2.7ZM134.7 85.6a161.6 161.6 0 0 0-.5 15.9H132v-2c-.2.5-.5 1-.8 1.2-.3.3-.5.5-.8.6-.2.2-.5.3-.8.3-.3 0-.7-.1-1-.3-.4-.2-.7-.6-1-1-.3-.5-.5-1.2-.7-2a14.2 14.2 0 0 1 .2-6.8l.6-1.1.7-.8.8-.4.9-.1.6.1a4 4 0 0 1 1.3.9l-.2-4.5h3ZM132 96.1a128.4 128.4 0 0 0-.3-4.3 2 2 0 0 0-.6-.6h-.4a1 1 0 0 0-.5.1l-.6.7-.4 1.3a14.4 14.4 0 0 0 0 4c0 .4.2.8.3 1.1 0 .3.2.5.4.7l.5.1c.2 0 .4 0 .6-.2l.5-.7.3-.7.2-.7v-.8ZM139.5 86.6a1.6 1.6 0 0 1-.4 1.1l-.6.4-.6.1-.6-.1a1.7 1.7 0 0 1-.8-.9 1.6 1.6 0 0 1 .3-1.7 1.6 1.6 0 0 1 1.1-.5l.6.1a1.6 1.6 0 0 1 1 1.5Zm0 3.1a48.5 48.5 0 0 0-.3 7.6v4.2h-2.3v-2.7a127 127 0 0 0-.4-9h3ZM149 98.8c0 .4-.1.8-.3 1.1a3 3 0 0 1-.7 1l-1.1.6a4 4 0 0 1-2.4 0c-.3 0-.6-.2-1-.4a4 4 0 0 1-.8-.8 5 5 0 0 1-.7-1.2 9 9 0 0 1-.4-1.7 13.9 13.9 0 0 1 0-4.4 8 8 0 0 1 .4-1.6l.7-1.2.9-.7a3 3 0 0 1 .9-.4 3.8 3.8 0 0 1 2.2 0 3 3 0 0 1 1.8 1.8c.2.4.3.9.3 1.4 0 .5 0 1-.3 1.5-.2.5-.5 1-.9 1.4-.4.5-.9.9-1.5 1.3-.5.3-1.2.6-2 .8l.2 1.2.3.9.4.6.6.2a1.5 1.5 0 0 0 .7-.3l.3-.3a1 1 0 0 1-.4-.3l-.2-.4-.1-.4c0-.4 0-.6.2-.8a1.6 1.6 0 0 1 1-.7l.4-.1h.4l.5.3.4.6.2 1Zm-2.5-6.5a3.2 3.2 0 0 0-.3-1.2 1 1 0 0 0-.3-.4.7.7 0 0 0-.5-.2c-.2 0-.5.2-.6.4l-.5 1-.2 1.5v2.5a5.2 5.2 0 0 0 1.7-1.5 3.8 3.8 0 0 0 .7-2Z" fill="#fff"/><path d="M19.9 13c0 1-.1 2-.3 2.9-.2.8-.5 1.5-.8 2a5.4 5.4 0 0 1-4.4 2.7 13.6 13.6 0 0 1-3-.3A1852.8 1852.8 0 0 1 11.2 6l-.1-.8a30.3 30.3 0 0 1 2.6-.1 7 7 0 0 1 2 .3A5 5 0 0 1 19.5 9l.4 1.9v2Zm-2.7-.4-.1-3c-.2-.7-.3-1.3-.6-1.7-.2-.4-.6-.7-1-.9a4 4 0 0 0-1.4-.2h-.3l.1 12 .4.2h.3a2 2 0 0 0 1.2-.3c.3-.2.6-.6.8-1l.5-2 .1-3ZM24.8 5.6a1.6 1.6 0 0 1-.4 1.1l-.5.4-.7.1-.6-.1a1.7 1.7 0 0 1-.8-.9 1.6 1.6 0 0 1 .3-1.7 1.6 1.6 0 0 1 1.1-.5l.7.1a1.6 1.6 0 0 1 1 1.5Zm0 3.1a49.5 49.5 0 0 0-.3 7.6v4.2h-2.3v-2.7a120.5 120.5 0 0 0-.4-9h3ZM29.6 20.4l-2.7.2A75.4 75.4 0 0 0 27 8.7h2.3a10.3 10.3 0 0 0 0 .8 3.2 3.2 0 0 1 1.6-1.3l.8-.3c.5 0 1 .1 1.3.3.4.1.7.3.9.6l.5.8.1.8v1l-.4.7-.6.6-.9.2c-.3 0-.6 0-.8-.2l-.5-.5-.2-.5v-.8l.2-.4.2-.4.4-.3a.8.8 0 0 0-.3 0c-.3 0-.6 0-.9.3l-.7.9-.5 1.3-.2 1.7a117 117 0 0 0 .3 6.4ZM44.3 5.6a1.6 1.6 0 0 1-.5 1.1l-.5.4-.6.1-.6-.1a1.7 1.7 0 0 1-.9-.9 1.6 1.6 0 0 1 .4-1.7 1.6 1.6 0 0 1 1.1-.5l.6.1a1.6 1.6 0 0 1 1 1.5Zm0 3.1a49.3 49.3 0 0 0-.3 7.6v4.2h-2.4v-2.7a120.5 120.5 0 0 0-.3-9h3ZM53.5 10.8a1.7 1.7 0 0 1-1 1.6H52a1.5 1.5 0 0 1-1-.3l-.4-.4a1.5 1.5 0 0 1 0-1.2c0-.2 0-.3.2-.4 0-.2.2-.3.4-.4a1.8 1.8 0 0 0-.7-.7H49.6l-.4.4a1.6 1.6 0 0 0-.4 1v.8l.3.6.6.7 1 .8a11.7 11.7 0 0 1 1.8 1.9c.3.3.4.6.5 1l.2.9a4 4 0 0 1-.8 2.2 2.9 2.9 0 0 1-1.5 1.1l-1.2.2a4 4 0 0 1-2.9-1 3 3 0 0 1-.6-1 2.1 2.1 0 0 1-.1-1.5l.2-.5.6-.4.7-.2.7.1.5.4.4.5v.7a1.4 1.4 0 0 1-.5 1c0 .2.2.2.3.3a1.7 1.7 0 0 0 .5 0h.3l.3-.3.3-.4.1-.5v-.6l-.3-.6-.5-.6-.9-.9-1-1a4.6 4.6 0 0 1-1.3-3.3 3.3 3.3 0 0 1 1-2.2c.3-.4.7-.6 1.2-.8a4 4 0 0 1 1.5-.3c.6 0 1 .1 1.5.3a2.8 2.8 0 0 1 1.6 1.7c.2.4.2.8.2 1.3ZM59 4.4a75.7 75.7 0 0 0-.2 4.1 40.3 40.3 0 0 1 1.8 0V11a16.6 16.6 0 0 0-1.9-.2v3.4a155 155 0 0 0 .2 6.2h-2.7a228.1 228.1 0 0 0 .3-9.7 36.6 36.6 0 0 0-1.7.1V8.5a36 36 0 0 0 1.7 0 101.6 101.6 0 0 0 0-4H59ZM70.4 20.4a82 82 0 0 0-2.8 0 26.2 26.2 0 0 0 .3-3.8 105 105 0 0 0-.3-11.4h.7a38 38 0 0 0 2.1 0 199.9 199.9 0 0 0-.2 7H71.5a27.7 27.7 0 0 0 2 0 29.7 29.7 0 0 0-.1-2.8 56 56 0 0 0-.3-4.2h.6a34 34 0 0 0 2 0 983.8 983.8 0 0 0 0 7.6 145 145 0 0 0 0 7 38 38 0 0 0-2.7.1 22.5 22.5 0 0 0 .3-2.8 34.8 34.8 0 0 0 .1-2.7 11.7 11.7 0 0 0-1.8 0 26.9 26.9 0 0 0-1.4 0 92.8 92.8 0 0 0 .2 6ZM81.8 20.6c-.7 0-1.3-.2-1.8-.5L78.8 19a6 6 0 0 1-.7-1.9l-.2-2.3c0-1 .1-2 .3-2.8.2-.8.4-1.5.8-2 .3-.7.7-1.1 1.2-1.5.6-.3 1.1-.5 1.8-.5s1.3.2 1.7.4c.5.3 1 .7 1.2 1.2.4.5.6 1.1.7 1.8a11.2 11.2 0 0 1 .2 3.8 11 11 0 0 1-.7 3l-.8 1.3-1 .9a3 3 0 0 1-1.5.3Zm1.6-7.7v-1.4l-.3-1c-.1-.3-.2-.6-.4-.7a.8.8 0 0 0-.6-.2c-.2 0-.5 0-.7.4l-.5 1-.4 1.9a19.2 19.2 0 0 0 0 4c0 .4 0 .8.2 1 0 .4.2.6.4.8.1.2.3.3.6.3.2 0 .4-.1.5-.3.2-.2.4-.4.5-.8l.3-1a12.2 12.2 0 0 0 .4-2.7V13ZM95 5.4a2.5 2.5 0 0 1-.5 1.4l-.5.5-.6.1-.6-.1-.4-.3-.4-.4V5.3l.3-.5c-.3 0-.6.1-.8.3-.2.1-.3.4-.4.7l-.2 1v1.9a24.6 24.6 0 0 0 2.5 0l-.1 2.4a16.8 16.8 0 0 0-2.4-.2 269.1 269.1 0 0 0 0 9.2v.4l-2.3.1a35.5 35.5 0 0 0 .1-5 116.7 116.7 0 0 0-.1-4.7 17.9 17.9 0 0 0-1.2.2l-.1-2.5h.6l.7.1V7.6l.1-1.8.7-1.4a3 3 0 0 1 1.1-1 4 4 0 0 1 1.7-.3l1.2.2a2.5 2.5 0 0 1 1.3 1.3c.2.3.2.6.2.8ZM102 10.8a1.7 1.7 0 0 1-1.1 1.6h-.5a1.5 1.5 0 0 1-1-.3l-.3-.4a1.5 1.5 0 0 1 0-1.2c0-.2 0-.3.2-.4 0-.2.2-.3.4-.4A1.8 1.8 0 0 0 99 9H98l-.4.4a1.6 1.6 0 0 0-.4 1v.8l.3.6.5.7 1 .8a11.6 11.6 0 0 1 2 1.9l.4 1 .1.9a4 4 0 0 1-.7 2.2 2.9 2.9 0 0 1-1.5 1.1l-1.2.2a4 4 0 0 1-2.9-1 3 3 0 0 1-.7-1 2.1 2.1 0 0 1 0-1.5c0-.2 0-.4.2-.5l.5-.4.8-.2.7.1.5.4.3.5.2.7a1.4 1.4 0 0 1-.6 1c0 .2.2.2.2.3a1.7 1.7 0 0 0 .5 0h.4l.3-.3.3-.4v-1.1c0-.2 0-.4-.2-.6l-.5-.6-1-.9-.9-1a4.6 4.6 0 0 1-1.3-3.3 3.3 3.3 0 0 1 1-2.2c.3-.4.7-.6 1.2-.8a4 4 0 0 1 1.5-.3c.6 0 1 .1 1.5.3a2.8 2.8 0 0 1 1.6 1.7l.2 1.3ZM107.5 4.4a73.8 73.8 0 0 0-.2 4.1 40.3 40.3 0 0 1 1.8 0V11a16.5 16.5 0 0 0-1.9-.2v3.4a151.3 151.3 0 0 0 .1 6.2h-2.6a236.5 236.5 0 0 0 .3-9.7 36.5 36.5 0 0 0-1.8.1l.1-2.4a36 36 0 0 0 1.7 0v-4h2.5ZM115.7 20.4a17.7 17.7 0 0 1-.2-1.3c-.3.5-.7.8-1.2 1a2.8 2.8 0 0 1-2.2.3 2 2 0 0 1-.8-.4c-.2-.2-.4-.5-.5-.9-.2-.4-.3-.8-.3-1.4A3.2 3.2 0 0 1 112 15a9.7 9.7 0 0 1 1.6-1l.6-.3.8-.8.5-.8-.1-1.2c0-.3-.2-.5-.3-.7a1 1 0 0 0-.4-.4l-.6-.1c-.3 0-.6 0-.8.2l-.5.5.4.3.2.4v.4c0 .5 0 .8-.3 1-.3.3-.6.4-1 .4l-.6-.1-.5-.4-.3-.7-.1-.8c0-.2 0-.5.2-.9l.6-.9c.3-.2.7-.5 1.1-.6.5-.2 1-.3 1.7-.3.6 0 1.2.1 1.6.4.5.2.9.5 1.1 1 .3.4.6.8.7 1.4l.2 1.6a101.6 101.6 0 0 1 0 5.6 27.2 27.2 0 0 0 .2 2.2l-2.3.1Zm-.2-6-.8.7a27.1 27.1 0 0 0-1.3 1.1l-.5.6-.2.7.2.8c.2.2.4.3.7.3.2 0 .5 0 .7-.2l.5-.5.4-.7.2-.6.1-2.2ZM125 20.4a20.2 20.2 0 0 1-.2-1.3c-.3.5-.7.8-1.1 1a2.8 2.8 0 0 1-2.3.3 2 2 0 0 1-.8-.4c-.2-.2-.4-.5-.5-.9-.2-.4-.3-.8-.3-1.4a3.3 3.3 0 0 1 1.5-2.8 9.7 9.7 0 0 1 1.6-1c.3 0 .5-.2.6-.3a5 5 0 0 0 1.3-1.6l-.1-1.2c0-.3-.2-.5-.3-.7a1 1 0 0 0-.4-.4l-.6-.1c-.3 0-.6 0-.8.2l-.5.5.4.3.2.4v.4c0 .5 0 .8-.3 1-.3.3-.6.4-1 .4l-.6-.1-.5-.4-.3-.7v-.8l.1-.9.6-.9c.3-.2.7-.5 1.1-.6a4.3 4.3 0 0 1 3.3 0c.5.3.9.6 1.2 1l.6 1.5.2 1.6a102.5 102.5 0 0 1 0 5.6 28.9 28.9 0 0 0 .2 2.2l-2.3.1Zm-.2-6-.8.7a29.2 29.2 0 0 0-1.3 1.1l-.5.6-.2.7c0 .3.1.5.3.8.1.2.3.3.6.3.2 0 .5 0 .7-.2l.5-.5.4-.7.2-.6.1-2.2ZM133 4.4v2.1l-.2 2a40.3 40.3 0 0 1 1.8 0V11a16.6 16.6 0 0 0-1.8-.2v3.4a158.8 158.8 0 0 0 0 6.2h-2.6a229.4 229.4 0 0 0 .3-9.7 36.5 36.5 0 0 0-1.7.1V8.5a35.8 35.8 0 0 0 1.7 0 106.2 106.2 0 0 0 0-4h2.6ZM144.3 8.6v.9c.2-.4.4-.7.7-.9l.7-.4a1.9 1.9 0 0 1 .8-.1c.5 0 1 0 1.3.3.4.2.7.6 1 1l.5 1.6.2 2.2a52.9 52.9 0 0 1-.7 7l-2.4-.3a34.3 34.3 0 0 0 .6-7.5 5 5 0 0 0-.2-1.2l-.5-.7a1 1 0 0 0-.7-.2c-.2 0-.4.1-.6.4a4 4 0 0 0-.5 1l-.5 1.7v6.9h-2.3a112.6 112.6 0 0 0 0-11.7h2.6ZM154.5 5.6a1.6 1.6 0 0 1-.5 1.1l-.5.4-.6.1-.6-.1a1.7 1.7 0 0 1-.9-.9 1.6 1.6 0 0 1 .4-1.7 1.6 1.6 0 0 1 1.1-.5l.6.1a1.6 1.6 0 0 1 1 1.5Zm0 3.1a48.5 48.5 0 0 0-.3 7.6v4.2h-2.4v-2.7a118 118 0 0 0-.3-9h3ZM164.2 11.3l-.2 1.1-.5.6c-.2.2-.3.3-.5.3a2 2 0 0 1-.5 0h-.4l-.5-.2-.4-.5a1.9 1.9 0 0 1 0-1.4l.2-.4.5-.4a1.9 1.9 0 0 0-.8-1h-.4c-.3 0-.5 0-.7.3-.2.2-.4.5-.5 1l-.4 1.5a15.5 15.5 0 0 0 0 3.9l.2 1.6.5 1c.2.3.5.5.8.5.1 0 .3 0 .4-.2a1.7 1.7 0 0 0 .9-.8c-.3 0-.5-.2-.6-.4a2 2 0 0 1-.4-1l.2-.9.5-.4.5-.3h.9c.2 0 .3.2.5.3.2.1.3.3.4.6l.2 1-.3 1.2a4.2 4.2 0 0 1-2 2c-.4.3-.8.4-1.3.4l-1-.1-1-.5a4 4 0 0 1-.8-.8 5 5 0 0 1-.7-1.2 9 9 0 0 1-.4-1.7 13.9 13.9 0 0 1 0-4.5c0-.6.3-1.2.5-1.7.2-.4.4-.8.7-1 .3-.4.6-.6 1-.8.2-.2.6-.3.9-.4h1c.4 0 .9 0 1.3.2l1.1.7a3.3 3.3 0 0 1 1 2.4ZM168.8 4.4a378 378 0 0 0-.3 5.3A3.4 3.4 0 0 1 170 8c.3-.2.6-.2 1-.3.4 0 .8.2 1.2.4l.9 1 .4 1.6.2 2.1a51.2 51.2 0 0 1-.7 7.3l-2.4-.3a30.5 30.5 0 0 0 .5-8.7c0-.3-.2-.5-.4-.7a1 1 0 0 0-.7-.2c-.2 0-.4.1-.6.4l-.3.4a5.1 5.1 0 0 0-.6 1.3l-.2 1.1v6.8H166a114.8 114.8 0 0 0 0-16h2.8ZM179.7 4.4a77.7 77.7 0 0 0-.3 4.1 40.1 40.1 0 0 1 1.8 0V11a16.6 16.6 0 0 0-1.9-.2v3.4a158.8 158.8 0 0 0 .1 6.2h-2.6a222.8 222.8 0 0 0 .3-9.7 36.5 36.5 0 0 0-1.7.1V8.5a36.1 36.1 0 0 0 1.7 0v-4h2.6ZM24.4 31.4a294.3 294.3 0 0 0-.4 9.3 10.8 10.8 0 0 0 2.3-3.8l.4-1.3 2.8.2a20.6 20.6 0 0 1-2.6 4.1l-.7.7a3.6 3.6 0 0 1 1.7 1.1l.3.7.2.9a26.3 26.3 0 0 1 .4 2l.4.9.5.9H27a8.6 8.6 0 0 1-.5-2l-.2-1c0-.4-.1-.8-.3-1.1a2 2 0 0 0-.3-.5l-.4-.3-.5-.3a2 2 0 0 0-.7 0H24a319.1 319.1 0 0 0 0 5.4h-2.5A785.3 785.3 0 0 0 22 37a71 71 0 0 0-.2-5.6h2.7ZM34.7 47.6c-.6 0-1.2-.2-1.7-.5s-.9-.7-1.2-1.2A6 6 0 0 1 31 44c-.2-.7-.2-1.5-.2-2.3 0-1 0-2 .2-2.8.2-.8.5-1.5.8-2 .4-.7.8-1.1 1.3-1.5.5-.3 1-.5 1.8-.5.6 0 1.2.2 1.7.4.5.3.9.7 1.2 1.2l.7 1.8a11.2 11.2 0 0 1 .1 3.8 11 11 0 0 1-.7 3c-.2.5-.4 1-.7 1.3l-1.1.9a3 3 0 0 1-1.5.3Zm1.6-7.7v-1.4c0-.4-.2-.8-.3-1 0-.3-.2-.6-.4-.7a.8.8 0 0 0-.5-.2c-.3 0-.5 0-.7.4l-.6 1-.4 1.9a19.2 19.2 0 0 0 0 4l.2 1 .4.8.6.3.6-.3.4-.8.4-1a12.2 12.2 0 0 0 .3-2.7V40ZM47.5 41.6a49.4 49.4 0 0 1-.3 5.3h-2.3a68.8 68.8 0 0 0 0-8.3c-.2-.4-.4-.6-.8-.6l-.4.3-.4.5-.3 1V43a69.5 69.5 0 0 1 0 4.3h-2.3a398.6 398.6 0 0 0 .3-9 98.4 98.4 0 0 0 0-2.7h2.2v1l.6-.9.6-.5a1.5 1.5 0 0 1 .8-.1h.5l.6.3.4.7c.2.2.3.6.4 1 .2-.5.4-1 .7-1.2.3-.3.5-.5.8-.6l.7-.2h.4c.4 0 .8 0 1 .4.4.2.6.6.8 1.2l.4 2a30 30 0 0 1-.4 8.6h-2.3a32.8 32.8 0 0 0 .2-8.4c0-.3-.2-.5-.3-.7a.7.7 0 0 0-.6-.2 1 1 0 0 0-.4.2 2 2 0 0 0-.3.5 3 3 0 0 0-.4.7v2.2ZM54 51.1a113.6 113.6 0 0 0 .3-15.2h2.4l-.1 1c.3-.5.6-1 1-1.3.4-.3.8-.5 1.2-.5.6 0 1 .1 1.4.4.4.2.7.5 1 1 .3.5.5 1.1.6 1.9a14.3 14.3 0 0 1 0 5.7c-.2.8-.5 1.4-.8 2a3 3 0 0 1-1.1 1l-1.3.3-.7-.1-.7-.4-.7-.7a147 147 0 0 0 .2 5h-2.8Zm2.5-7a6 6 0 0 0 .5.9l.4.3.4.1c.2 0 .4 0 .6-.2l.5-.8.4-1.4a11.9 11.9 0 0 0-.2-5c0-.3-.2-.5-.4-.6-.1-.2-.3-.3-.4-.3-.2 0-.3 0-.4.2a2 2 0 0 0-.4.4l-.3.5a11.3 11.3 0 0 0-.7 1.5 251.5 251.5 0 0 0 0 4.3v.1ZM66.8 31.2a2206.3 2206.3 0 0 0-.3 9.5v6.6h-2.3a117.3 117.3 0 0 0 0-13.3v-2.8h2.6ZM71.8 32.6a1.6 1.6 0 0 1-.5 1.1l-.5.4-.6.1-.6-.1a1.7 1.7 0 0 1-.9-.9 1.6 1.6 0 0 1 .4-1.7 1.6 1.6 0 0 1 1-.5l.7.1a1.6 1.6 0 0 1 1 1.5Zm0 3.1a49.5 49.5 0 0 0-.3 7.6v4.2H69v-2.7a120.5 120.5 0 0 0-.3-9h3ZM80.5 37.6a31.6 31.6 0 0 0-4 7.7 49.1 49.1 0 0 0 4-.4v2.5a51.8 51.8 0 0 0-6.8 0v-2a45 45 0 0 0 4-7.7 19.9 19.9 0 0 0-3.9.5l-.1-2.5H75.4a72.8 72.8 0 0 0 5-.2v2.1ZM85.4 32.6a1.6 1.6 0 0 1-.5 1.1l-.5.4-.6.1-.6-.1a1.7 1.7 0 0 1-.9-.9 1.6 1.6 0 0 1 .4-1.7 1.6 1.6 0 0 1 1.1-.5l.6.1a1.6 1.6 0 0 1 1 1.5Zm0 3.1a49.3 49.3 0 0 0-.3 7.6v4.2h-2.4v-2.7a120.5 120.5 0 0 0-.3-9h3ZM94.9 44.8c0 .4-.1.8-.3 1.1a3 3 0 0 1-.8 1l-1 .6a4 4 0 0 1-2.4 0c-.3 0-.6-.2-1-.4a4 4 0 0 1-.8-.8 5 5 0 0 1-.7-1.2 9 9 0 0 1-.4-1.7 13.8 13.8 0 0 1 0-4.4 8 8 0 0 1 .4-1.6l.7-1.2.8-.7a3 3 0 0 1 1-.4 3.8 3.8 0 0 1 2.2 0 3 3 0 0 1 1.8 1.8c.2.4.3.9.3 1.4l-.3 1.5a5 5 0 0 1-1 1.4c-.3.5-.8.9-1.4 1.3-.6.3-1.2.6-2 .8l.2 1.2.3.9c0 .2.2.4.4.6l.6.2a1.5 1.5 0 0 0 .7-.3l.3-.3a1 1 0 0 1-.4-.3l-.3-.4v-.4l.1-.8a1.6 1.6 0 0 1 1-.7l.5-.1h.4l.5.3.4.6.2 1Zm-2.6-6.5a3.3 3.3 0 0 0-.2-1.2 1 1 0 0 0-.3-.4.7.7 0 0 0-.5-.2c-.3 0-.5.2-.7.4l-.4 1-.2 1.5v2.5a5.2 5.2 0 0 0 1.7-1.5 3.8 3.8 0 0 0 .6-2ZM99.4 47.4l-2.7.2a75.5 75.5 0 0 0 .2-11.9h2.3a10.3 10.3 0 0 0 0 .8 3.2 3.2 0 0 1 1.5-1.3l.9-.3c.5 0 .9.1 1.2.3a2.2 2.2 0 0 1 1.4 1.4l.2.8-.1 1-.4.7-.5.6-1 .2c-.3 0-.6 0-.8-.2l-.4-.5-.3-.5v-.8l.2-.4.3-.4.3-.3a.8.8 0 0 0-.2 0c-.4 0-.7 0-1 .3l-.6.9-.5 1.3L99 41a117.4 117.4 0 0 0 .3 6.4ZM109.7 31.4l-.2 2.1v2a40.5 40.5 0 0 1 1.7 0V38a16.6 16.6 0 0 0-1.9-.2v3.4a151.3 151.3 0 0 0 .2 6.2h-2.7a229.4 229.4 0 0 0 .3-9.7 36.5 36.5 0 0 0-1.7.1v-2.4a36.3 36.3 0 0 0 1.7 0 106.2 106.2 0 0 0 0-4h2.6ZM126 35.5a235.8 235.8 0 0 0-.3 3.8v1.2a116 116 0 0 0-.2 7.2c0 .7-.2 1.4-.3 2l-.7 1.6a3 3 0 0 1-1.2 1c-.5.3-1.1.4-2 .4-.6 0-1 0-1.4-.3-.4-.1-.6-.3-.8-.6a2 2 0 0 1-.4-.8v-1.4l.3-.5.5-.4.7-.1a1.5 1.5 0 0 1 1.1.5c.1.2.3.3.3.5l.1.6v.3a1.8 1.8 0 0 1-.6.7l.5.1c.1 0 .3 0 .5-.2.2 0 .4-.2.6-.4l.4-.9.2-1.2v-2.9c-.3.5-.5.8-.8 1-.3.3-.5.5-.8.6-.2.2-.5.3-.7.3-.4 0-.7-.1-1-.3-.4-.2-.8-.6-1-1-.3-.5-.6-1.2-.8-2a14.2 14.2 0 0 1 .3-6.8l.6-1.1.7-.8.8-.4.8-.1.7.1.7.4.7.6v-1l2.5.3Zm-2.6 2.6-.5-.7a1 1 0 0 0-.7-.3 1 1 0 0 0-.6.2l-.5.7c-.2.3-.3.8-.4 1.3a14.2 14.2 0 0 0 0 4l.2 1.1.4.7.5.1c.2 0 .4 0 .6-.2l.4-.5.3-.6.2-.5v-2.7l.1-2.6ZM135.4 44.8c0 .4 0 .8-.2 1.1a3 3 0 0 1-.8 1l-1.1.6a4 4 0 0 1-2.3 0c-.4 0-.7-.2-1-.4a4 4 0 0 1-.8-.8 5 5 0 0 1-.7-1.2 9 9 0 0 1-.5-1.7 13.9 13.9 0 0 1 0-4.4 8 8 0 0 1 .5-1.6l.7-1.2.8-.7c.3-.2.6-.4 1-.4a3.8 3.8 0 0 1 2.2 0A3 3 0 0 1 135 37c.2.4.2.9.2 1.4 0 .5 0 1-.3 1.5a5 5 0 0 1-.9 1.4 6.8 6.8 0 0 1-3.4 2.1l.1 1.2.3.9.5.6.5.2a1.5 1.5 0 0 0 .7-.3c.2 0 .2-.2.3-.3a1 1 0 0 1-.4-.3l-.2-.4-.1-.4c0-.4 0-.6.2-.8a1.6 1.6 0 0 1 1-.7l.4-.1h.5l.5.3.4.6.1 1Zm-2.5-6.5a3.2 3.2 0 0 0-.3-1.2 1 1 0 0 0-.3-.4.7.7 0 0 0-.4-.2c-.3 0-.5.2-.7.4l-.4 1-.3 1.5v2.5a5.2 5.2 0 0 0 1.7-1.5 3.8 3.8 0 0 0 .7-2ZM140 35.6v.9l.7-.9.8-.4a1.9 1.9 0 0 1 .7-.1c.6 0 1 0 1.4.3l1 1 .4 1.6a52.9 52.9 0 0 1-.5 9.2l-2.3-.3a35.7 35.7 0 0 0 .6-7.5 5 5 0 0 0-.3-1.2c0-.3-.2-.5-.4-.7a1 1 0 0 0-.7-.2c-.2 0-.4.1-.6.4a4 4 0 0 0-.5 1c-.2.4-.4 1-.5 1.7v6.9h-2.3a99 99 0 0 0 0-8v-3.7h2.6ZM152.4 47.1v-.8l.1-.7A3.3 3.3 0 0 1 151 47c-.2.2-.5.2-.7.3-.5 0-1-.2-1.4-.4-.3-.3-.7-.6-.9-1.1l-.6-1.7-.1-2.2a51.2 51.2 0 0 1 .4-6.4l2.6.3a36.5 36.5 0 0 0-.5 7c0 .4 0 .8.2 1.1 0 .3.2.6.4.7.2.2.4.3.7.3.2 0 .4-.2.6-.5l.3-.3a5.2 5.2 0 0 0 .5-1.5l.2-1v-6.2l2.3.1a71.9 71.9 0 0 0 0 11.6h-2.6ZM165.2 35.5l-.1 1.3-.1 1.2v1.3l-.1 1.2a110.3 110.3 0 0 0-.2 7.2c0 .7-.2 1.4-.3 2-.1.6-.4 1.1-.7 1.6a3 3 0 0 1-1.2 1c-.5.3-1.1.4-2 .4-.5 0-1 0-1.4-.3-.4-.1-.6-.3-.8-.6a2 2 0 0 1-.4-.8v-1.4l.3-.5a1.4 1.4 0 0 1 1.2-.5 1.5 1.5 0 0 1 1.1.5c.2.2.3.3.3.5l.1.6v.3a1.8 1.8 0 0 1-.6.7l.5.1c.1 0 .3 0 .5-.2.2 0 .4-.2.6-.4l.4-.9.2-1.2v-2.9c-.3.5-.5.8-.8 1-.3.3-.5.5-.8.6-.2.2-.5.3-.7.3-.4 0-.7-.1-1-.3-.4-.2-.8-.6-1-1-.3-.5-.6-1.2-.7-2a14 14 0 0 1 .2-6.8l.6-1.1.7-.8.8-.4.8-.1.7.1.7.4.7.6v-1l2.5.3Zm-2.6 2.6-.5-.7a1 1 0 0 0-.7-.3 1 1 0 0 0-.6.2l-.5.7c-.2.3-.3.8-.4 1.3a14.4 14.4 0 0 0 0 4l.2 1.1.4.7.5.1c.2 0 .4 0 .6-.2l.4-.5.3-.6.2-.5a1639.8 1639.8 0 0 1 .1-5.3ZM175.6 36.1c0 .6-.1 1-.3 1.4l-.6 1.2-.8 1a14 14 0 0 0-1.7 2.3l-.5 1.6H170a8.3 8.3 0 0 1 .8-3.3l.7-1.2a14.6 14.6 0 0 0 1.1-2.1l.2-1.4c0-.3 0-.6-.2-.9l-.5-.6a2.2 2.2 0 0 0-1.3-.5h-.2l-.3.1-.4.2.4.5.2.5a1.7 1.7 0 0 1 0 1.3 1.6 1.6 0 0 1-1 .9l-.7.1a1.8 1.8 0 0 1-1.7-1.1 2 2 0 0 1-.1-.8c0-.5.1-1 .3-1.4.3-.5.6-.8 1-1 .4-.4.8-.6 1.4-.7a6 6 0 0 1 3.1 0c.5.1 1 .3 1.4.6l1 1.3c.2.6.4 1.2.4 2Zm-3.2 9.9-.1.6-.3.4c-.2.2-.3.3-.5.3a1.3 1.3 0 0 1-1.1 0c-.2 0-.3-.1-.5-.3a1.4 1.4 0 0 1-.4-1 1.4 1.4 0 0 1 .4-1c.2-.2.3-.3.5-.3a1.4 1.4 0 0 1 1.6.3l.3.4.1.6ZM11.7 59a107.5 107.5 0 0 0-.3 8.3v2.3a104 104 0 0 0 .1 4.4H10a31.2 31.2 0 0 0-1.8 0l-.1-.6a26 26 0 0 0-.6-2.5 96.2 96.2 0 0 0-2.2-7.7 95 95 0 0 0 0 10.8 34.7 34.7 0 0 0-2 0h-.5a813.7 813.7 0 0 0 .1-8.1v-.4a86 86 0 0 0-.2-6.2 58.8 58.8 0 0 0 3.5-.1 18.8 18.8 0 0 0 .6 2.6A176 176 0 0 0 9.1 70a49.3 49.3 0 0 0 0-4.8v-.9A85 85 0 0 0 9 59h2.8ZM16.9 59.6a1.6 1.6 0 0 1-.5 1.1l-.5.4-.6.1-.6-.1a1.7 1.7 0 0 1-.9-.9 1.6 1.6 0 0 1 .4-1.7 1.6 1.6 0 0 1 1.1-.5l.6.1a1.6 1.6 0 0 1 1 1.5Zm0 3.1a49.3 49.3 0 0 0-.3 7.6v4.2h-2.4v-2.7a120.5 120.5 0 0 0-.3-9h3ZM25.7 68.6a49.5 49.5 0 0 1-.3 5.3h-2.3a68.8 68.8 0 0 0 0-8.3c-.2-.4-.4-.6-.8-.6l-.4.3-.3.5-.3 1V70a69.5 69.5 0 0 1 0 4.3H19a399.5 399.5 0 0 0 .2-9 98.3 98.3 0 0 0 0-2.7h2.3v1c.1-.4.3-.7.5-.9l.6-.5a1.5 1.5 0 0 1 .8-.1h.6c.2 0 .3.2.5.3l.5.7.3 1c.2-.5.4-1 .7-1.2l.8-.6.7-.2h.4c.4 0 .8 0 1 .4.4.2.6.6.8 1.2l.4 2a30 30 0 0 1-.4 8.6h-2.3a32.7 32.7 0 0 0 .2-8.4c0-.3-.2-.5-.3-.7a.7.7 0 0 0-.5-.2 1 1 0 0 0-.4.2 2 2 0 0 0-.4.5 3 3 0 0 0-.3.7v2.2ZM39.1 68.6a48.8 48.8 0 0 1-.3 5.3h-2.3a68.8 68.8 0 0 0 0-8.3c-.2-.4-.4-.6-.8-.6l-.4.3-.3.5c-.2.3-.3.6-.3 1V70a69.5 69.5 0 0 1 0 4.3h-2.3a399.5 399.5 0 0 0 .2-9 98.3 98.3 0 0 0 0-2.7h2.3l-.1 1 .6-.9.6-.5a1.5 1.5 0 0 1 .8-.1h.6c.2 0 .3.2.5.3l.5.7.3 1c.2-.5.4-1 .7-1.2l.8-.6.7-.2h.4c.4 0 .8 0 1 .4.4.2.6.6.8 1.2l.4 2a30 30 0 0 1-.4 8.6h-2.3a32.8 32.8 0 0 0 .2-8.4c0-.3-.2-.5-.3-.7a.7.7 0 0 0-.5-.2 1 1 0 0 0-.5.2 2 2 0 0 0-.3.5 3 3 0 0 0-.4.7l.1 2.2ZM59 58.6a161.2 161.2 0 0 0-.4 15.9h-2.4l.1-2c-.3.5-.5 1-.8 1.2l-.8.6-.8.3c-.4 0-.7-.1-1.1-.3-.4-.2-.7-.6-1-1l-.7-2a14.1 14.1 0 0 1 .3-6.8c.2-.4.3-.8.6-1.1l.7-.8.8-.4.8-.1.6.1a3.9 3.9 0 0 1 1.3.9c0-1.5 0-3-.2-4.5h3Zm-2.6 10.5a128.4 128.4 0 0 0-.3-4.3 2 2 0 0 0-.7-.6h-.3a1 1 0 0 0-.6.1l-.5.7c-.2.3-.3.8-.4 1.3a14.3 14.3 0 0 0 0 4l.2 1.1.4.7.5.1c.3 0 .5 0 .7-.2l.4-.7.4-.7.2-.7v-.8ZM63.9 59.6a1.6 1.6 0 0 1-.5 1.1l-.5.4-.6.1-.6-.1a1.7 1.7 0 0 1-.9-.9 1.6 1.6 0 0 1 .3-1.7 1.6 1.6 0 0 1 1.2-.5l.6.1a1.6 1.6 0 0 1 1 1.5Zm0 3.1a49.3 49.3 0 0 0-.4 7.6v4.2h-2.3v-2.7a120.5 120.5 0 0 0-.4-9h3ZM68.6 74.4l-2.7.2a75.5 75.5 0 0 0 .2-11.9h2.3a10.2 10.2 0 0 0 0 .8 3.2 3.2 0 0 1 1.5-1.3l.9-.3c.5 0 .9.1 1.2.3a2.2 2.2 0 0 1 1.4 1.4l.2.8-.1 1-.4.7-.5.6-1 .2c-.3 0-.6 0-.8-.2l-.4-.5-.2-.5v-.8l.1-.4.3-.4.3-.3a.8.8 0 0 0-.2 0c-.4 0-.7 0-1 .3l-.6.9-.5 1.3-.3 1.7a117.4 117.4 0 0 0 .3 6.4ZM87.8 71.8c0 .4-.1.8-.3 1.1a3 3 0 0 1-.7 1l-1.2.6a4 4 0 0 1-2.3 0c-.3 0-.6-.2-1-.4a4 4 0 0 1-.8-.8 5 5 0 0 1-.7-1.2 9 9 0 0 1-.4-1.7 13.8 13.8 0 0 1 0-4.4 8 8 0 0 1 .4-1.6l.7-1.2.8-.7a3 3 0 0 1 1-.4 3.8 3.8 0 0 1 2.2 0 3 3 0 0 1 1.8 1.8c.2.4.3.9.3 1.4l-.3 1.5a5 5 0 0 1-1 1.4c-.3.5-.8.9-1.4 1.3-.6.3-1.2.6-2 .8l.2 1.2.3.9.4.6.6.2a1.5 1.5 0 0 0 .7-.3l.3-.3a1 1 0 0 1-.4-.3l-.3-.4v-.4l.1-.8a1.6 1.6 0 0 1 1-.7l.5-.1h.4l.5.3.4.6.2 1Zm-2.6-6.5a3.3 3.3 0 0 0-.2-1.2 1 1 0 0 0-.3-.4.7.7 0 0 0-.5-.2c-.3 0-.5.2-.7.4l-.4 1-.2 1.5v2.5a5.2 5.2 0 0 0 1.7-1.5 3.8 3.8 0 0 0 .6-2ZM92.6 59.6a1.6 1.6 0 0 1-.5 1.1l-.5.4-.6.1-.6-.1a1.7 1.7 0 0 1-.9-.9 1.6 1.6 0 0 1 .4-1.7A1.6 1.6 0 0 1 91 58l.6.1a1.6 1.6 0 0 1 1 1.5Zm0 3.1a49.3 49.3 0 0 0-.3 7.6v4.2h-2.4v-2.7a121.4 121.4 0 0 0-.3-9h3ZM97.5 62.6l-.1.9.7-.9.7-.4a1.9 1.9 0 0 1 .8-.1c.5 0 1 0 1.3.3.4.2.7.6 1 1l.5 1.6.2 2.2a55.6 55.6 0 0 1-.7 7l-2.4-.3a35.5 35.5 0 0 0 .6-7.5 5 5 0 0 0-.2-1.2l-.4-.7a1 1 0 0 0-.7-.2c-.2 0-.4.1-.6.4a4 4 0 0 0-.5 1c-.2.4-.4 1-.5 1.7v6.9h-2.4a107.4 107.4 0 0 0 0-8v-3.7h2.7ZM118.4 63.9a5.5 5.5 0 0 1-1.8 4 5.5 5.5 0 0 1-3.7 1.5h-.2v1a105.6 105.6 0 0 0 .2 4.2 18.4 18.4 0 0 0-2 0h-.4a4 4 0 0 1-.5 0 142.9 142.9 0 0 0 .2-4.7v-1.4a193.3 193.3 0 0 0 0-9l1.5-.2a24 24 0 0 1 2.2 0 6.4 6.4 0 0 1 2.4.6 3.5 3.5 0 0 1 1.8 2c.2.6.3 1.2.3 2Zm-2.7 0-.1-1.3c-.2-.3-.3-.7-.6-.9-.2-.2-.5-.4-.9-.5-.3-.2-.8-.2-1.3-.3v3.9a182.7 182.7 0 0 0-.1 3 2.8 2.8 0 0 0 2.3-1.1l.5-1.2c.2-.5.2-1 .2-1.5ZM123.7 74.6c-.7 0-1.3-.2-1.8-.5s-.9-.7-1.2-1.2a6 6 0 0 1-.7-1.9l-.2-2.3c0-1 0-2 .3-2.8.1-.8.4-1.5.7-2 .4-.7.8-1.1 1.3-1.5.5-.3 1.1-.5 1.8-.5s1.2.2 1.7.4c.5.3.9.7 1.2 1.2.3.5.6 1.1.7 1.8a11.1 11.1 0 0 1 .2 3.8 11 11 0 0 1-.8 3c-.2.5-.4 1-.7 1.3l-1 .9a3 3 0 0 1-1.5.3Zm1.6-7.7v-1.4l-.3-1-.4-.7a.8.8 0 0 0-.6-.2c-.2 0-.5 0-.7.4l-.6 1-.3 1.9a19.2 19.2 0 0 0 0 4c0 .4 0 .8.2 1 0 .4.2.6.4.8.1.2.3.3.5.3.3 0 .5-.1.6-.3l.5-.8.3-1a12.2 12.2 0 0 0 .3-2.7V67ZM132.5 58.4a277 277 0 0 0-.4 9.3 10.8 10.8 0 0 0 2.3-3.8l.4-1.3 2.8.2A21 21 0 0 1 135 67l-.7.7a3.6 3.6 0 0 1 1.7 1.1l.3.7.2.9a25.9 25.9 0 0 1 .4 2l.4.9.5.9h-2.7a8.6 8.6 0 0 1-.5-2l-.2-1c0-.4-.2-.8-.3-1.1a2 2 0 0 0-.3-.5l-.4-.3-.5-.3a2 2 0 0 0-.7 0h-.1a310.8 310.8 0 0 0 0 5.4h-2.5A532.2 532.2 0 0 0 130 64a64.2 64.2 0 0 0-.2-5.6h2.7ZM146.5 71.8c0 .4 0 .8-.3 1.1a3 3 0 0 1-.7 1l-1.1.6a4 4 0 0 1-2.4 0c-.3 0-.6-.2-.9-.4a4 4 0 0 1-.8-.8 5 5 0 0 1-.7-1.2c-.2-.5-.4-1-.5-1.7a13.9 13.9 0 0 1 0-4.4 8 8 0 0 1 .5-1.6l.6-1.2.9-.7c.3-.2.6-.4.9-.4a3.8 3.8 0 0 1 2.2 0A3 3 0 0 1 146 64c.2.4.3.9.3 1.4 0 .5 0 1-.3 1.5a5 5 0 0 1-.9 1.4c-.4.5-.9.9-1.5 1.3-.5.3-1.2.6-2 .8l.2 1.2.3.9.4.6.6.2a1.5 1.5 0 0 0 .7-.3l.3-.3a1 1 0 0 1-.4-.3l-.2-.4-.1-.4c0-.4 0-.6.2-.8a1.6 1.6 0 0 1 1-.7l.4-.1h.4l.5.3.4.6.2 1Zm-2.5-6.5a3.2 3.2 0 0 0-.3-1.2 1 1 0 0 0-.3-.4.7.7 0 0 0-.4-.2c-.3 0-.6.2-.7.4l-.5 1-.2 1.5v2.5a5.2 5.2 0 0 0 1.7-1.5 3.8 3.8 0 0 0 .7-2ZM151 74.4l-2.7.2a74.9 74.9 0 0 0 .2-11.9h2.3a10 10 0 0 0 0 .8 3.2 3.2 0 0 1 1.5-1.3l.9-.3c.5 0 1 .1 1.3.3.3.1.6.3.8.6.3.2.4.5.5.8l.2.8-.1 1-.3.7-.6.6-.9.2c-.4 0-.6 0-.8-.2l-.5-.5-.2-.5v-.8l.1-.4.3-.4.4-.3a.8.8 0 0 0-.3 0c-.3 0-.6 0-1 .3l-.6.9-.5 1.3-.3 1.7a118.6 118.6 0 0 0 .4 6.4ZM165.5 58.6a161.6 161.6 0 0 0-.4 15.9h-2.3v-2a4.6 4.6 0 0 1-1.6 1.8l-.8.3c-.4 0-.7-.1-1-.3-.4-.2-.8-.6-1-1-.3-.5-.6-1.2-.8-2a14 14 0 0 1 .3-6.8l.6-1.1.7-.8.8-.4.8-.1.6.1a3.9 3.9 0 0 1 1.3.9l-.1-4.5h3ZM163 69.1a128.4 128.4 0 0 0-.3-4.3 2 2 0 0 0-.6-.6h-.4a1 1 0 0 0-.6.1l-.5.7c-.2.3-.3.8-.4 1.3l-.2 2 .1 2 .3 1.1.4.7.5.1c.3 0 .5 0 .7-.2l.4-.7.4-.7.2-.7v-.8ZM174.8 71.8c0 .4 0 .8-.3 1.1a3 3 0 0 1-.7 1l-1.1.6a4 4 0 0 1-2.3 0c-.4 0-.7-.2-1-.4a4 4 0 0 1-.8-.8 5 5 0 0 1-.7-1.2 9 9 0 0 1-.5-1.7 13.9 13.9 0 0 1 0-4.4 8 8 0 0 1 .5-1.6l.7-1.2.8-.7a3 3 0 0 1 1-.4 3.8 3.8 0 0 1 2.2 0 3 3 0 0 1 1.8 1.8l.2 1.4c0 .5 0 1-.3 1.5-.2.5-.5 1-.9 1.4-.4.5-.8.9-1.4 1.3l-2 .8.1 1.2.3.9.4.6.6.2a1.5 1.5 0 0 0 .7-.3l.3-.3a1 1 0 0 1-.4-.3l-.2-.4-.1-.4c0-.4 0-.6.2-.8a1.6 1.6 0 0 1 1-.7l.4-.1h.5l.4.3.4.6c.2.3.2.6.2 1Zm-2.5-6.5a3.2 3.2 0 0 0-.3-1.2 1 1 0 0 0-.3-.4.7.7 0 0 0-.4-.2c-.3 0-.5.2-.7.4l-.4 1c-.2.4-.2 1-.3 1.5v2.5a5.2 5.2 0 0 0 1.7-1.5 3.8 3.8 0 0 0 .7-2ZM184.3 65.3c0 .5 0 .8-.2 1.1-.1.3-.3.5-.5.6-.1.2-.3.3-.5.3a2 2 0 0 1-.4 0h-.5l-.4-.2-.4-.5a1.9 1.9 0 0 1 0-1.4c0-.1 0-.3.2-.4 0-.2.2-.3.4-.4a1.9 1.9 0 0 0-.7-1h-.5c-.3 0-.5 0-.7.3-.2.2-.4.5-.5 1a8 8 0 0 0-.3 1.5 15.5 15.5 0 0 0 0 3.9c0 .6 0 1.1.2 1.6 0 .5.2.8.4 1 .2.3.5.5.8.5.1 0 .3 0 .4-.2a1.7 1.7 0 0 0 .9-.8c-.2 0-.4-.2-.6-.4a2 2 0 0 1-.3-1c0-.4 0-.6.2-.9 0-.2.2-.3.4-.4l.6-.3h.8c.2 0 .4.2.5.3.2.1.3.3.4.6l.2 1c0 .4 0 .8-.3 1.2a4.2 4.2 0 0 1-2 2c-.4.3-.8.4-1.3.4l-1-.1-1-.5a4 4 0 0 1-.8-.8 5 5 0 0 1-.7-1.2 9 9 0 0 1-.4-1.7 13.8 13.8 0 0 1 0-4.5l.5-1.7c.2-.4.5-.8.8-1 .2-.4.5-.6.8-.8l1-.4h1c.5 0 1 0 1.3.2l1.1.7a3.3 3.3 0 0 1 1 2.4ZM189 58.4a277 277 0 0 0-.5 9.3 10.8 10.8 0 0 0 2.3-3.8l.5-1.3 2.7.2a21 21 0 0 1-2.6 4.1l-.6.7a3.6 3.6 0 0 1 1.7 1.1l.3.7.2.9a25.9 25.9 0 0 1 .4 2l.3.9.6.9h-2.7a8.8 8.8 0 0 1-.6-2l-.1-1c0-.4-.2-.8-.4-1.1a2 2 0 0 0-.3-.5l-.4-.3-.5-.3a2 2 0 0 0-.7 0 310.8 310.8 0 0 0 0 5.4h-2.5a532.2 532.2 0 0 0 .3-10.3 75.1 75.1 0 0 0-.2-5.6h2.7ZM53.4 101.1a148.3 148.3 0 0 1 0-1.5A3.3 3.3 0 0 1 52 101l-.8.3c-.5 0-1-.2-1.3-.4-.4-.3-.7-.6-1-1.1a6 6 0 0 1-.5-1.7l-.2-2.2a51 51 0 0 1 .5-6.4l2.6.3a36.4 36.4 0 0 0-.6 7l.2 1.1c.1.3.3.6.5.7.1.2.4.3.7.3.2 0 .4-.2.5-.5l.3-.3.3-.6a8 8 0 0 0 .5-3.2v-4.9l2.3.1a75 75 0 0 0 0 11.6h-2.6ZM61 89.6v.9c.2-.4.4-.7.7-.9l.7-.4a1.9 1.9 0 0 1 .8-.1c.5 0 1 0 1.3.3.4.2.7.6 1 1L66 92l.2 2.2a54.2 54.2 0 0 1-.7 7l-2.4-.3a35.5 35.5 0 0 0 .6-7.5 5 5 0 0 0-.2-1.2l-.4-.7a1 1 0 0 0-.8-.2c-.1 0-.3.1-.5.4a4 4 0 0 0-.5 1c-.2.4-.4 1-.5 1.7v6.9h-2.4a107.4 107.4 0 0 0 0-8v-3.7H61ZM76.3 85.6a161 161 0 0 0-.4 15.9h-2.4l.1-2-.8 1.2-.8.6-.9.3c-.3 0-.7-.1-1-.3-.4-.2-.7-.6-1-1-.3-.5-.5-1.2-.7-2a14.1 14.1 0 0 1 .3-6.8l.5-1.1.8-.8.8-.4.8-.1.6.1a3.9 3.9 0 0 1 1.3.9l-.2-4.5h3Zm-2.7 10.5a128.1 128.1 0 0 0-.3-4.3 2 2 0 0 0-.6-.6h-.3a1 1 0 0 0-.6.1l-.6.7-.3 1.3a14.3 14.3 0 0 0 0 4c0 .4 0 .8.2 1.1l.4.7.5.1c.2 0 .5 0 .6-.2l.5-.7.3-.7.2-.7v-.8ZM90.6 91.8a1.7 1.7 0 0 1-1.1 1.6H89a1.5 1.5 0 0 1-1-.3l-.3-.4a1.5 1.5 0 0 1 0-1.2c0-.2 0-.3.2-.4 0-.2.2-.3.4-.4a1.8 1.8 0 0 0-.7-.7H86.7l-.4.4a1.6 1.6 0 0 0-.4 1v.8l.3.6.5.7 1 .8a11.7 11.7 0 0 1 2 1.9l.4 1 .1.9a4 4 0 0 1-.7 2.2 2.9 2.9 0 0 1-1.5 1.1l-1.2.2a4 4 0 0 1-2.9-1 3 3 0 0 1-.7-1 2.1 2.1 0 0 1 0-1.5c0-.2 0-.4.2-.5l.5-.4.8-.2.7.1.5.4.3.5.2.7a1.4 1.4 0 0 1-.6 1c0 .2.2.2.2.3a1.7 1.7 0 0 0 .5 0h.4l.3-.3.3-.4v-1.1c0-.2 0-.4-.2-.6l-.5-.6-1-.9-.9-1a4.6 4.6 0 0 1-1.3-3.3 3.3 3.3 0 0 1 1-2.2c.3-.4.7-.6 1.2-.8a4 4 0 0 1 1.5-.3c.6 0 1 .1 1.5.3a2.8 2.8 0 0 1 1.6 1.7l.2 1.3ZM92.2 105.1a113.5 113.5 0 0 0 .4-15.2h2.3v1c.3-.5.6-1 1-1.3.4-.3.8-.5 1.2-.5.5 0 1 .1 1.4.4.4.2.7.5 1 1 .3.5.5 1.1.6 1.9a14.2 14.2 0 0 1 0 5.7c-.3.8-.5 1.4-.9 2a3 3 0 0 1-1 1l-1.3.3-.7-.1-.7-.4-.8-.7a149 149 0 0 0 .2 5h-2.7Zm2.5-7a6 6 0 0 0 .6.9l.4.3.4.1c.2 0 .4 0 .6-.2l.5-.8.4-1.4a12 12 0 0 0-.2-5c-.1-.3-.2-.5-.4-.6-.1-.2-.3-.3-.5-.3l-.4.2a2 2 0 0 0-.3.4l-.4.5a11.1 11.1 0 0 0-.6 1.5 251.5 251.5 0 0 0 0 4.3v.1ZM105.3 86.6a1.6 1.6 0 0 1-.5 1.1l-.5.4-.6.1-.6-.1a1.7 1.7 0 0 1-.9-.9 1.6 1.6 0 0 1 .4-1.7 1.6 1.6 0 0 1 1-.5l.7.1a1.6 1.6 0 0 1 1 1.5Zm0 3.1a48.5 48.5 0 0 0-.3 7.6v4.2h-2.4v-2.7a127 127 0 0 0-.3-9h3ZM114.8 98.8c0 .4-.1.8-.3 1.1a3 3 0 0 1-.8 1l-1 .6a4 4 0 0 1-2.4 0c-.3 0-.7-.2-1-.4a4 4 0 0 1-.8-.8 5 5 0 0 1-.7-1.2 9 9 0 0 1-.5-1.7 13.9 13.9 0 0 1 0-4.4 8 8 0 0 1 .5-1.6l.7-1.2.8-.7a3 3 0 0 1 1-.4 3.8 3.8 0 0 1 2.2 0 3 3 0 0 1 1.8 1.8c.2.4.3.9.3 1.4l-.3 1.5c-.2.5-.5 1-1 1.4-.3.5-.8.9-1.4 1.3l-2 .8c0 .5 0 .8.2 1.2l.3.9c0 .2.2.4.4.6l.5.2a1.5 1.5 0 0 0 .8-.3l.2-.3a1 1 0 0 1-.4-.3l-.2-.4v-.4l.1-.8a1.6 1.6 0 0 1 1-.7l.5-.1h.4l.5.3.4.6.2 1Zm-2.6-6.5a3.2 3.2 0 0 0-.2-1.2 1 1 0 0 0-.4-.4.7.7 0 0 0-.4-.2c-.3 0-.5.2-.7.4l-.4 1-.2 1.5-.1 1.7v.8a5.2 5.2 0 0 0 1.7-1.5 3.8 3.8 0 0 0 .7-2ZM119.4 85.2l-.1 2.3a415.6 415.6 0 0 0-.2 3.9v9.9h-2.4a118.6 118.6 0 0 0 0-13.3v-2.8h2.7ZM134.7 85.6a161.6 161.6 0 0 0-.5 15.9H132v-2c-.2.5-.5 1-.8 1.2-.3.3-.5.5-.8.6-.2.2-.5.3-.8.3-.3 0-.7-.1-1-.3-.4-.2-.7-.6-1-1-.3-.5-.5-1.2-.7-2a14.2 14.2 0 0 1 .2-6.8l.6-1.1.7-.8.8-.4.9-.1.6.1a4 4 0 0 1 1.3.9l-.2-4.5h3ZM132 96.1a128.4 128.4 0 0 0-.3-4.3 2 2 0 0 0-.6-.6h-.4a1 1 0 0 0-.5.1l-.6.7-.4 1.3a14.4 14.4 0 0 0 0 4c0 .4.2.8.3 1.1 0 .3.2.5.4.7l.5.1c.2 0 .4 0 .6-.2l.5-.7.3-.7.2-.7v-.8ZM139.5 86.6a1.6 1.6 0 0 1-.4 1.1l-.6.4-.6.1-.6-.1a1.7 1.7 0 0 1-.8-.9 1.6 1.6 0 0 1 .3-1.7 1.6 1.6 0 0 1 1.1-.5l.6.1a1.6 1.6 0 0 1 1 1.5Zm0 3.1a48.5 48.5 0 0 0-.3 7.6v4.2h-2.3v-2.7a127 127 0 0 0-.4-9h3ZM149 98.8c0 .4-.1.8-.3 1.1a3 3 0 0 1-.7 1l-1.1.6a4 4 0 0 1-2.4 0c-.3 0-.6-.2-1-.4a4 4 0 0 1-.8-.8 5 5 0 0 1-.7-1.2 9 9 0 0 1-.4-1.7 13.9 13.9 0 0 1 0-4.4 8 8 0 0 1 .4-1.6l.7-1.2.9-.7a3 3 0 0 1 .9-.4 3.8 3.8 0 0 1 2.2 0 3 3 0 0 1 1.8 1.8c.2.4.3.9.3 1.4 0 .5 0 1-.3 1.5-.2.5-.5 1-.9 1.4-.4.5-.9.9-1.5 1.3-.5.3-1.2.6-2 .8l.2 1.2.3.9.4.6.6.2a1.5 1.5 0 0 0 .7-.3l.3-.3a1 1 0 0 1-.4-.3l-.2-.4-.1-.4c0-.4 0-.6.2-.8a1.6 1.6 0 0 1 1-.7l.4-.1h.4l.5.3.4.6.2 1Zm-2.5-6.5a3.2 3.2 0 0 0-.3-1.2 1 1 0 0 0-.3-.4.7.7 0 0 0-.5-.2c-.2 0-.5.2-.6.4l-.5 1-.2 1.5v2.5a5.2 5.2 0 0 0 1.7-1.5 3.8 3.8 0 0 0 .7-2Z" stroke="#000" stroke-width="4.6" mask="url(#a)"/><mask id="b" maskUnits="userSpaceOnUse" x="17.8" y="110.7" width="162" height="25" fill="#000"><path fill="#fff" d="M17.8 110.7h162v25h-162z"/><path d="M29.4 129.5c0 .4 0 .9-.3 1.3l-.8 1c-.4.3-.8.6-1.3.7a4.6 4.6 0 0 1-2.7.1c-.3 0-.7-.2-1-.5-.4-.2-.7-.5-1-.9-.3-.4-.6-.8-.8-1.4l-.5-2a15.8 15.8 0 0 1 0-5l.5-1.8.8-1.3 1-.9 1-.4a4.4 4.4 0 0 1 2.6 0 3.5 3.5 0 0 1 2 2 4.5 4.5 0 0 1 0 3.4c-.2.6-.6 1.1-1 1.6-.5.5-1 1-1.7 1.4-.7.4-1.5.8-2.3 1 0 .5 0 1 .2 1.3 0 .4.2.8.3 1l.5.7c.2.2.4.2.6.2a1.7 1.7 0 0 0 .9-.2l.3-.4-.5-.4a2 2 0 0 1-.2-.4l-.1-.5c0-.4 0-.7.2-.9a1.8 1.8 0 0 1 1.1-.8l.5-.1h.5l.6.4.4.7c.2.2.2.6.2 1Zm-2.8-7.4a3.7 3.7 0 0 0-.4-1.5l-.3-.4a.7.7 0 0 0-.5-.2c-.3 0-.6.2-.8.5-.2.3-.4.6-.5 1.1l-.2 1.7-.1 2v.8a6 6 0 0 0 2-1.7 4.3 4.3 0 0 0 .8-2.3ZM40.5 132l-3.2.5a44.9 44.9 0 0 0-1.6-4 36.8 36.8 0 0 0-1.3 3.8L31 132a713.5 713.5 0 0 1 3.5-6.3 69.9 69.9 0 0 0-3.6-6.4l3.4-.2a62.5 62.5 0 0 0 1.5 4 29.2 29.2 0 0 0 1.4-3.8l3.3.3a70.5 70.5 0 0 0-3.5 6 69 69 0 0 0 3.6 6.4ZM46.5 114.2a86.1 86.1 0 0 0-.3 4.7 51.6 51.6 0 0 1 2 0v3a18.5 18.5 0 0 0-2.1-.3v3.9a177.2 177.2 0 0 0 .1 7h-3a261.4 261.4 0 0 0 .4-11 40.6 40.6 0 0 0-2 .1v-2.8a40.2 40.2 0 0 0 2 .1 114.9 114.9 0 0 0-.1-4.7h3ZM53.2 132.5l-3.1.2a86.4 86.4 0 0 0 .2-13.6l2.6-.1a11.8 11.8 0 0 0 0 1 3.7 3.7 0 0 1 1.7-1.5l1-.3c.6 0 1 .1 1.5.3l1 .7c.2.2.4.5.5.9.2.3.2.7.2 1v1l-.4.9a2 2 0 0 1-.7.6 2 2 0 0 1-1 .3c-.4 0-.8 0-1-.2l-.5-.6a2 2 0 0 1-.3-.6V121.6l.2-.5.3-.4.4-.4H55.5c-.4 0-.7.1-1 .4a3 3 0 0 0-.8 1l-.6 1.5a15 15 0 0 0-.3 2 133.6 133.6 0 0 0 .4 7.3ZM69 129.5c0 .4-.1.9-.3 1.3-.2.4-.5.7-.9 1-.3.3-.7.6-1.2.7a4.6 4.6 0 0 1-2.7.1c-.4 0-.7-.2-1-.5-.4-.2-.7-.5-1-.9-.3-.4-.6-.8-.8-1.4-.3-.5-.4-1.2-.6-2a15.8 15.8 0 0 1 0-5c.2-.6.3-1.3.6-1.8a4.3 4.3 0 0 1 1.7-2.2l1-.4a4.4 4.4 0 0 1 2.6 0 3.5 3.5 0 0 1 2 2c.3.5.4 1 .4 1.7 0 .5-.1 1.1-.4 1.7-.2.6-.5 1.1-1 1.6a8.8 8.8 0 0 1-4 2.4l.2 1.3c.1.4.2.8.4 1l.5.7c.1.2.4.2.6.2a1.7 1.7 0 0 0 .8-.2c.2-.1.3-.2.3-.4l-.4-.4a2 2 0 0 1-.3-.4v-.5c0-.4 0-.7.2-.9a1.8 1.8 0 0 1 1.1-.8l.5-.1h.5l.5.4.5.7.2 1Zm-2.9-7.4a3.7 3.7 0 0 0-.3-1.5l-.4-.4a.7.7 0 0 0-.5-.2c-.3 0-.5.2-.7.5-.2.3-.4.6-.5 1.1-.2.5-.2 1-.3 1.7v2.8a6 6 0 0 0 2-1.7 4.3 4.3 0 0 0 .7-2.3ZM78.9 125.9a55.6 55.6 0 0 1-.4 6H76a78.7 78.7 0 0 0 0-9.5c-.2-.5-.5-.7-1-.7a1 1 0 0 0-.4.3l-.4.7-.3 1.2v3.5a79 79 0 0 1 0 4.9h-2.7a449.4 449.4 0 0 0 .3-10.2 111.7 111.7 0 0 0 0-3.1H74v1.1c.2-.4.4-.8.7-1 .2-.3.4-.4.7-.5a1.7 1.7 0 0 1 .8-.3l.7.1.6.4.5.7.4 1.2c.2-.6.5-1 .8-1.4l1-.7.7-.2h.4c.5 0 1 .1 1.3.4.3.3.6.8.8 1.4a34.2 34.2 0 0 1 0 12.2l-2.6-.1a37.5 37.5 0 0 0 .3-9.6l-.4-.7a.8.8 0 0 0-.6-.3c-.2 0-.4.1-.5.3-.1 0-.3.2-.4.5-.2.2-.3.5-.4.9v2.5ZM94.9 129.5c0 .4-.1.9-.3 1.3-.2.4-.5.7-.9 1-.3.3-.8.6-1.2.7a4.6 4.6 0 0 1-2.7.1c-.4 0-.7-.2-1-.5-.4-.2-.7-.5-1-.9-.4-.4-.6-.8-.8-1.4-.3-.5-.4-1.2-.6-2a15.8 15.8 0 0 1 0-5c.2-.6.3-1.3.6-1.8a4.3 4.3 0 0 1 1.7-2.2l1-.4a4.4 4.4 0 0 1 2.6 0 3.5 3.5 0 0 1 2 2c.3.5.4 1 .4 1.7 0 .5-.1 1.1-.4 1.7-.2.6-.5 1.1-1 1.6a8.8 8.8 0 0 1-4 2.4l.2 1.3c.1.4.2.8.4 1l.5.7c.1.2.4.2.6.2a1.7 1.7 0 0 0 .8-.2c.2-.1.3-.2.3-.4l-.4-.4a2 2 0 0 1-.3-.4v-.5l.1-.9a1.8 1.8 0 0 1 1.2-.8l.5-.1h.5l.5.4.5.7.2 1ZM92 122a3.7 3.7 0 0 0-.3-1.5l-.4-.4a.7.7 0 0 0-.5-.2c-.3 0-.5.2-.7.5-.2.3-.4.6-.5 1.1-.2.5-.2 1-.3 1.7v2.8a6 6 0 0 0 2-1.7 4.3 4.3 0 0 0 .7-2.3ZM112.4 115.2a66.3 66.3 0 0 0-2.4 13l-.4 4.3-4.4-.3-.6-4.3a151.9 151.9 0 0 0-2.1-12.7h.4a10 10 0 0 0 1.7 0h1.3a122.8 122.8 0 0 0 1.5 14.4A102.2 102.2 0 0 0 109 115a13.3 13.3 0 0 0 3.5 0ZM122.2 129.5c0 .4 0 .9-.3 1.3l-.8 1c-.4.3-.8.6-1.3.7a4.6 4.6 0 0 1-2.7.1c-.3 0-.7-.2-1-.5-.4-.2-.7-.5-1-.9-.3-.4-.6-.8-.8-1.4l-.5-2a15.8 15.8 0 0 1 0-5c0-.6.3-1.3.5-1.8l.8-1.3 1-.9 1-.4a4.4 4.4 0 0 1 2.5 0 3.5 3.5 0 0 1 2.1 2 4.5 4.5 0 0 1 0 3.4l-1 1.6c-.5.5-1 1-1.7 1.4-.7.4-1.5.8-2.3 1 0 .5 0 1 .2 1.3 0 .4.2.8.3 1l.5.7c.2.2.4.2.6.2a1.7 1.7 0 0 0 .8-.2l.4-.4-.5-.4a1.5 1.5 0 0 1-.4-1c0-.3.1-.6.3-.8a1.8 1.8 0 0 1 1.1-.8l.5-.1h.5l.6.4.4.7c.2.2.2.6.2 1Zm-2.9-7.4a3.8 3.8 0 0 0-.3-1.5l-.3-.4a.7.7 0 0 0-.5-.2 1 1 0 0 0-.8.5c-.2.3-.4.6-.5 1.1l-.3 1.7v2.8a6 6 0 0 0 2-1.7 4.3 4.3 0 0 0 .7-2.3ZM127.5 132.5l-3.2.2a85.4 85.4 0 0 0 .2-13.6l2.6-.1a13.2 13.2 0 0 0 0 1 3.7 3.7 0 0 1 1.8-1.5c.3-.2.6-.3 1-.3.5 0 1 .1 1.4.3.4.2.8.4 1 .7.3.2.5.5.6.9l.2 1-.1 1-.4.9a2 2 0 0 1-.7.6 2 2 0 0 1-1 .3c-.4 0-.7 0-1-.2l-.5-.6-.2-.6V121.6c0-.2 0-.3.2-.5l.3-.4.4-.4H129.8c-.4 0-.8.1-1 .4a3 3 0 0 0-.9 1l-.5 1.5c-.2.6-.3 1.3-.3 2a134.8 134.8 0 0 0 .4 7.3ZM143 121.4a2 2 0 0 1-1.8 2h-.5l-.6-.3-.4-.6a1.8 1.8 0 0 1-.1-1.4l.2-.5.5-.4a2 2 0 0 0-.8-.7l-.3-.1-.7.1-.5.4a1.8 1.8 0 0 0-.4 1.2v.8l.3.7.6.8 1.2 1a13.4 13.4 0 0 1 2.2 2.1l.5 1 .2 1.1a4.5 4.5 0 0 1-.9 2.6 3.3 3.3 0 0 1-1.7 1.3l-1.4.2a4.6 4.6 0 0 1-3.3-1.2l-.7-1a2.4 2.4 0 0 1-.2-1.8l.4-.6.5-.5 1-.1h.7l.6.5.4.6.1.8a1.6 1.6 0 0 1-.7 1.2l.4.2a2 2 0 0 0 .5.1h.4l.4-.3.3-.5.1-.6v-.7l-.3-.7a19.9 19.9 0 0 0-1.6-1.7 17 17 0 0 1-1.1-1l-.9-1.2a5.2 5.2 0 0 1-.7-2.6 3.7 3.7 0 0 1 1.2-2.7 4 4 0 0 1 1.3-.8c.6-.3 1.1-.4 1.8-.4.6 0 1.2.1 1.7.3a3.2 3.2 0 0 1 1.8 2l.3 1.4ZM148.4 115.6a1.8 1.8 0 0 1-.5 1.2 1.8 1.8 0 0 1-1.3.5h-.7a2 2 0 0 1-1-1 1.8 1.8 0 0 1 1.7-2.6c.2 0 .5 0 .7.2a1.8 1.8 0 0 1 1.1 1.7Zm0 3.5a58.2 58.2 0 0 0-.4 8.6v4.8l-2.6.1v-3.1a134.8 134.8 0 0 0-.5-10.3h3.5ZM155 132.7c-.8 0-1.4-.2-2-.5-.5-.4-1-.8-1.4-1.4l-.8-2.2-.2-2.7c0-1.1 0-2.2.3-3.1.2-1 .5-1.8.9-2.4.4-.7.9-1.3 1.4-1.6.6-.4 1.3-.6 2-.6.8 0 1.5.2 2 .5.6.3 1 .7 1.4 1.3.4.6.6 1.3.8 2.1a12.7 12.7 0 0 1 .2 4.3 12.5 12.5 0 0 1-.9 3.4c-.2.6-.5 1-.8 1.5a4 4 0 0 1-1.2 1c-.5.2-1 .4-1.7.4Zm1.8-8.8v-1.6a5 5 0 0 0-.3-1.2l-.5-.8a.9.9 0 0 0-.6-.2c-.3 0-.6.1-.8.4a4 4 0 0 0-.7 1.3l-.4 2a21.9 21.9 0 0 0 0 4.6l.2 1.3.5.8.6.3c.3 0 .5-.1.7-.3l.5-.8.4-1.3a13.7 13.7 0 0 0 .4-3v-1.5ZM165 119v1c.2-.5.5-.8.8-1l.8-.5.6-.1h.3c.6 0 1.1 0 1.5.3.5.3.8.7 1 1.2.4.5.6 1.1.7 1.8.2.8.2 1.6.2 2.5a60.5 60.5 0 0 1-.8 8l-2.7-.3a41.3 41.3 0 0 0 .7-8.6c0-.5-.1-1-.3-1.3 0-.4-.3-.7-.5-.9l-.8-.2c-.2 0-.4.2-.6.4l-.6 1.1-.6 2.1v7.8H162a127.3 127.3 0 0 0 0-9.1V119h3ZM177 115.1a341.3 341.3 0 0 0-1 13H174a143.7 143.7 0 0 0-.8-13h3.7Zm-.4 15.8-.1.6a1.5 1.5 0 0 1-.8.8l-.6.1h-.6l-.5-.4-.4-.5v-1.2l.4-.5c.1-.1.3-.3.5-.3a1.4 1.4 0 0 1 1.2 0c.2 0 .3.2.5.3l.3.5.1.6Z"/></mask><path d="M29.4 129.5c0 .4 0 .9-.3 1.3l-.8 1c-.4.3-.8.6-1.3.7a4.6 4.6 0 0 1-2.7.1c-.3 0-.7-.2-1-.5-.4-.2-.7-.5-1-.9-.3-.4-.6-.8-.8-1.4l-.5-2a15.8 15.8 0 0 1 0-5l.5-1.8.8-1.3 1-.9 1-.4a4.4 4.4 0 0 1 2.6 0 3.5 3.5 0 0 1 2 2 4.5 4.5 0 0 1 0 3.4c-.2.6-.6 1.1-1 1.6-.5.5-1 1-1.7 1.4-.7.4-1.5.8-2.3 1 0 .5 0 1 .2 1.3 0 .4.2.8.3 1l.5.7c.2.2.4.2.6.2a1.7 1.7 0 0 0 .9-.2l.3-.4-.5-.4a2 2 0 0 1-.2-.4l-.1-.5c0-.4 0-.7.2-.9a1.8 1.8 0 0 1 1.1-.8l.5-.1h.5l.6.4.4.7c.2.2.2.6.2 1Zm-2.8-7.4a3.7 3.7 0 0 0-.4-1.5l-.3-.4a.7.7 0 0 0-.5-.2c-.3 0-.6.2-.8.5-.2.3-.4.6-.5 1.1l-.2 1.7-.1 2v.8a6 6 0 0 0 2-1.7 4.3 4.3 0 0 0 .8-2.3ZM40.5 132l-3.2.5a44.9 44.9 0 0 0-1.6-4 36.8 36.8 0 0 0-1.3 3.8L31 132a713.5 713.5 0 0 1 3.5-6.3 69.9 69.9 0 0 0-3.6-6.4l3.4-.2a62.5 62.5 0 0 0 1.5 4 29.2 29.2 0 0 0 1.4-3.8l3.3.3a70.5 70.5 0 0 0-3.5 6 69 69 0 0 0 3.6 6.4ZM46.5 114.2a86.1 86.1 0 0 0-.3 4.7 51.6 51.6 0 0 1 2 0v3a18.5 18.5 0 0 0-2.1-.3v3.9a177.2 177.2 0 0 0 .1 7h-3a261.4 261.4 0 0 0 .4-11 40.6 40.6 0 0 0-2 .1v-2.8a40.2 40.2 0 0 0 2 .1 114.9 114.9 0 0 0-.1-4.7h3ZM53.2 132.5l-3.1.2a86.4 86.4 0 0 0 .2-13.6l2.6-.1a11.8 11.8 0 0 0 0 1 3.7 3.7 0 0 1 1.7-1.5l1-.3c.6 0 1 .1 1.5.3l1 .7c.2.2.4.5.5.9.2.3.2.7.2 1v1l-.4.9a2 2 0 0 1-.7.6 2 2 0 0 1-1 .3c-.4 0-.8 0-1-.2l-.5-.6a2 2 0 0 1-.3-.6V121.6l.2-.5.3-.4.4-.4H55.5c-.4 0-.7.1-1 .4a3 3 0 0 0-.8 1l-.6 1.5a15 15 0 0 0-.3 2 133.6 133.6 0 0 0 .4 7.3ZM69 129.5c0 .4-.1.9-.3 1.3-.2.4-.5.7-.9 1-.3.3-.7.6-1.2.7a4.6 4.6 0 0 1-2.7.1c-.4 0-.7-.2-1-.5-.4-.2-.7-.5-1-.9-.3-.4-.6-.8-.8-1.4-.3-.5-.4-1.2-.6-2a15.8 15.8 0 0 1 0-5c.2-.6.3-1.3.6-1.8a4.3 4.3 0 0 1 1.7-2.2l1-.4a4.4 4.4 0 0 1 2.6 0 3.5 3.5 0 0 1 2 2c.3.5.4 1 .4 1.7 0 .5-.1 1.1-.4 1.7-.2.6-.5 1.1-1 1.6a8.8 8.8 0 0 1-4 2.4l.2 1.3c.1.4.2.8.4 1l.5.7c.1.2.4.2.6.2a1.7 1.7 0 0 0 .8-.2c.2-.1.3-.2.3-.4l-.4-.4a2 2 0 0 1-.3-.4v-.5c0-.4 0-.7.2-.9a1.8 1.8 0 0 1 1.1-.8l.5-.1h.5l.5.4.5.7.2 1Zm-2.9-7.4a3.7 3.7 0 0 0-.3-1.5l-.4-.4a.7.7 0 0 0-.5-.2c-.3 0-.5.2-.7.5-.2.3-.4.6-.5 1.1-.2.5-.2 1-.3 1.7v2.8a6 6 0 0 0 2-1.7 4.3 4.3 0 0 0 .7-2.3ZM78.9 125.9a55.6 55.6 0 0 1-.4 6H76a78.7 78.7 0 0 0 0-9.5c-.2-.5-.5-.7-1-.7a1 1 0 0 0-.4.3l-.4.7-.3 1.2v3.5a79 79 0 0 1 0 4.9h-2.7a449.4 449.4 0 0 0 .3-10.2 111.7 111.7 0 0 0 0-3.1H74v1.1c.2-.4.4-.8.7-1 .2-.3.4-.4.7-.5a1.7 1.7 0 0 1 .8-.3l.7.1.6.4.5.7.4 1.2c.2-.6.5-1 .8-1.4l1-.7.7-.2h.4c.5 0 1 .1 1.3.4.3.3.6.8.8 1.4a34.2 34.2 0 0 1 0 12.2l-2.6-.1a37.5 37.5 0 0 0 .3-9.6l-.4-.7a.8.8 0 0 0-.6-.3c-.2 0-.4.1-.5.3-.1 0-.3.2-.4.5-.2.2-.3.5-.4.9v2.5ZM94.9 129.5c0 .4-.1.9-.3 1.3-.2.4-.5.7-.9 1-.3.3-.8.6-1.2.7a4.6 4.6 0 0 1-2.7.1c-.4 0-.7-.2-1-.5-.4-.2-.7-.5-1-.9-.4-.4-.6-.8-.8-1.4-.3-.5-.4-1.2-.6-2a15.8 15.8 0 0 1 0-5c.2-.6.3-1.3.6-1.8a4.3 4.3 0 0 1 1.7-2.2l1-.4a4.4 4.4 0 0 1 2.6 0 3.5 3.5 0 0 1 2 2c.3.5.4 1 .4 1.7 0 .5-.1 1.1-.4 1.7-.2.6-.5 1.1-1 1.6a8.8 8.8 0 0 1-4 2.4l.2 1.3c.1.4.2.8.4 1l.5.7c.1.2.4.2.6.2a1.7 1.7 0 0 0 .8-.2c.2-.1.3-.2.3-.4l-.4-.4a2 2 0 0 1-.3-.4v-.5l.1-.9a1.8 1.8 0 0 1 1.2-.8l.5-.1h.5l.5.4.5.7.2 1ZM92 122a3.7 3.7 0 0 0-.3-1.5l-.4-.4a.7.7 0 0 0-.5-.2c-.3 0-.5.2-.7.5-.2.3-.4.6-.5 1.1-.2.5-.2 1-.3 1.7v2.8a6 6 0 0 0 2-1.7 4.3 4.3 0 0 0 .7-2.3ZM112.4 115.2a66.3 66.3 0 0 0-2.4 13l-.4 4.3-4.4-.3-.6-4.3a151.9 151.9 0 0 0-2.1-12.7h.4a10 10 0 0 0 1.7 0h1.3a122.8 122.8 0 0 0 1.5 14.4A102.2 102.2 0 0 0 109 115a13.3 13.3 0 0 0 3.5 0ZM122.2 129.5c0 .4 0 .9-.3 1.3l-.8 1c-.4.3-.8.6-1.3.7a4.6 4.6 0 0 1-2.7.1c-.3 0-.7-.2-1-.5-.4-.2-.7-.5-1-.9-.3-.4-.6-.8-.8-1.4l-.5-2a15.8 15.8 0 0 1 0-5c0-.6.3-1.3.5-1.8l.8-1.3 1-.9 1-.4a4.4 4.4 0 0 1 2.5 0 3.5 3.5 0 0 1 2.1 2 4.5 4.5 0 0 1 0 3.4l-1 1.6c-.5.5-1 1-1.7 1.4-.7.4-1.5.8-2.3 1 0 .5 0 1 .2 1.3 0 .4.2.8.3 1l.5.7c.2.2.4.2.6.2a1.7 1.7 0 0 0 .8-.2l.4-.4-.5-.4a1.5 1.5 0 0 1-.4-1c0-.3.1-.6.3-.8a1.8 1.8 0 0 1 1.1-.8l.5-.1h.5l.6.4.4.7c.2.2.2.6.2 1Zm-2.9-7.4a3.8 3.8 0 0 0-.3-1.5l-.3-.4a.7.7 0 0 0-.5-.2 1 1 0 0 0-.8.5c-.2.3-.4.6-.5 1.1l-.3 1.7v2.8a6 6 0 0 0 2-1.7 4.3 4.3 0 0 0 .7-2.3ZM127.5 132.5l-3.2.2a85.4 85.4 0 0 0 .2-13.6l2.6-.1a13.2 13.2 0 0 0 0 1 3.7 3.7 0 0 1 1.8-1.5c.3-.2.6-.3 1-.3.5 0 1 .1 1.4.3.4.2.8.4 1 .7.3.2.5.5.6.9l.2 1-.1 1-.4.9a2 2 0 0 1-.7.6 2 2 0 0 1-1 .3c-.4 0-.7 0-1-.2l-.5-.6-.2-.6V121.6c0-.2 0-.3.2-.5l.3-.4.4-.4H129.8c-.4 0-.8.1-1 .4a3 3 0 0 0-.9 1l-.5 1.5c-.2.6-.3 1.3-.3 2a134.8 134.8 0 0 0 .4 7.3ZM143 121.4a2 2 0 0 1-1.8 2h-.5l-.6-.3-.4-.6a1.8 1.8 0 0 1-.1-1.4l.2-.5.5-.4a2 2 0 0 0-.8-.7l-.3-.1-.7.1-.5.4a1.8 1.8 0 0 0-.4 1.2v.8l.3.7.6.8 1.2 1a13.4 13.4 0 0 1 2.2 2.1l.5 1 .2 1.1a4.5 4.5 0 0 1-.9 2.6 3.3 3.3 0 0 1-1.7 1.3l-1.4.2a4.6 4.6 0 0 1-3.3-1.2l-.7-1a2.4 2.4 0 0 1-.2-1.8l.4-.6.5-.5 1-.1h.7l.6.5.4.6.1.8a1.6 1.6 0 0 1-.7 1.2l.4.2a2 2 0 0 0 .5.1h.4l.4-.3.3-.5.1-.6v-.7l-.3-.7a19.9 19.9 0 0 0-1.6-1.7 17 17 0 0 1-1.1-1l-.9-1.2a5.2 5.2 0 0 1-.7-2.6 3.7 3.7 0 0 1 1.2-2.7 4 4 0 0 1 1.3-.8c.6-.3 1.1-.4 1.8-.4.6 0 1.2.1 1.7.3a3.2 3.2 0 0 1 1.8 2l.3 1.4ZM148.4 115.6a1.8 1.8 0 0 1-.5 1.2 1.8 1.8 0 0 1-1.3.5h-.7a2 2 0 0 1-1-1 1.8 1.8 0 0 1 1.7-2.6c.2 0 .5 0 .7.2a1.8 1.8 0 0 1 1.1 1.7Zm0 3.5a58.2 58.2 0 0 0-.4 8.6v4.8l-2.6.1v-3.1a134.8 134.8 0 0 0-.5-10.3h3.5ZM155 132.7c-.8 0-1.4-.2-2-.5-.5-.4-1-.8-1.4-1.4l-.8-2.2-.2-2.7c0-1.1 0-2.2.3-3.1.2-1 .5-1.8.9-2.4.4-.7.9-1.3 1.4-1.6.6-.4 1.3-.6 2-.6.8 0 1.5.2 2 .5.6.3 1 .7 1.4 1.3.4.6.6 1.3.8 2.1a12.7 12.7 0 0 1 .2 4.3 12.5 12.5 0 0 1-.9 3.4c-.2.6-.5 1-.8 1.5a4 4 0 0 1-1.2 1c-.5.2-1 .4-1.7.4Zm1.8-8.8v-1.6a5 5 0 0 0-.3-1.2l-.5-.8a.9.9 0 0 0-.6-.2c-.3 0-.6.1-.8.4a4 4 0 0 0-.7 1.3l-.4 2a21.9 21.9 0 0 0 0 4.6l.2 1.3.5.8.6.3c.3 0 .5-.1.7-.3l.5-.8.4-1.3a13.7 13.7 0 0 0 .4-3v-1.5ZM165 119v1c.2-.5.5-.8.8-1l.8-.5.6-.1h.3c.6 0 1.1 0 1.5.3.5.3.8.7 1 1.2.4.5.6 1.1.7 1.8.2.8.2 1.6.2 2.5a60.5 60.5 0 0 1-.8 8l-2.7-.3a41.3 41.3 0 0 0 .7-8.6c0-.5-.1-1-.3-1.3 0-.4-.3-.7-.5-.9l-.8-.2c-.2 0-.4.2-.6.4l-.6 1.1-.6 2.1v7.8H162a127.3 127.3 0 0 0 0-9.1V119h3ZM177 115.1a341.3 341.3 0 0 0-1 13H174a143.7 143.7 0 0 0-.8-13h3.7Zm-.4 15.8-.1.6a1.5 1.5 0 0 1-.8.8l-.6.1h-.6l-.5-.4-.4-.5v-1.2l.4-.5c.1-.1.3-.3.5-.3a1.4 1.4 0 0 1 1.2 0c.2 0 .3.2.5.3l.3.5.1.6Z" fill="#5E007E"/><path d="M29.4 129.5c0 .4 0 .9-.3 1.3l-.8 1c-.4.3-.8.6-1.3.7a4.6 4.6 0 0 1-2.7.1c-.3 0-.7-.2-1-.5-.4-.2-.7-.5-1-.9-.3-.4-.6-.8-.8-1.4l-.5-2a15.8 15.8 0 0 1 0-5l.5-1.8.8-1.3 1-.9 1-.4a4.4 4.4 0 0 1 2.6 0 3.5 3.5 0 0 1 2 2 4.5 4.5 0 0 1 0 3.4c-.2.6-.6 1.1-1 1.6-.5.5-1 1-1.7 1.4-.7.4-1.5.8-2.3 1 0 .5 0 1 .2 1.3 0 .4.2.8.3 1l.5.7c.2.2.4.2.6.2a1.7 1.7 0 0 0 .9-.2l.3-.4-.5-.4a2 2 0 0 1-.2-.4l-.1-.5c0-.4 0-.7.2-.9a1.8 1.8 0 0 1 1.1-.8l.5-.1h.5l.6.4.4.7c.2.2.2.6.2 1Zm-2.8-7.4a3.7 3.7 0 0 0-.4-1.5l-.3-.4a.7.7 0 0 0-.5-.2c-.3 0-.6.2-.8.5-.2.3-.4.6-.5 1.1l-.2 1.7-.1 2v.8a6 6 0 0 0 2-1.7 4.3 4.3 0 0 0 .8-2.3ZM40.5 132l-3.2.5a44.9 44.9 0 0 0-1.6-4 36.8 36.8 0 0 0-1.3 3.8L31 132a713.5 713.5 0 0 1 3.5-6.3 69.9 69.9 0 0 0-3.6-6.4l3.4-.2a62.5 62.5 0 0 0 1.5 4 29.2 29.2 0 0 0 1.4-3.8l3.3.3a70.5 70.5 0 0 0-3.5 6 69 69 0 0 0 3.6 6.4ZM46.5 114.2a86.1 86.1 0 0 0-.3 4.7 51.6 51.6 0 0 1 2 0v3a18.5 18.5 0 0 0-2.1-.3v3.9a177.2 177.2 0 0 0 .1 7h-3a261.4 261.4 0 0 0 .4-11 40.6 40.6 0 0 0-2 .1v-2.8a40.2 40.2 0 0 0 2 .1 114.9 114.9 0 0 0-.1-4.7h3ZM53.2 132.5l-3.1.2a86.4 86.4 0 0 0 .2-13.6l2.6-.1a11.8 11.8 0 0 0 0 1 3.7 3.7 0 0 1 1.7-1.5l1-.3c.6 0 1 .1 1.5.3l1 .7c.2.2.4.5.5.9.2.3.2.7.2 1v1l-.4.9a2 2 0 0 1-.7.6 2 2 0 0 1-1 .3c-.4 0-.8 0-1-.2l-.5-.6a2 2 0 0 1-.3-.6V121.6l.2-.5.3-.4.4-.4H55.5c-.4 0-.7.1-1 .4a3 3 0 0 0-.8 1l-.6 1.5a15 15 0 0 0-.3 2 133.6 133.6 0 0 0 .4 7.3ZM69 129.5c0 .4-.1.9-.3 1.3-.2.4-.5.7-.9 1-.3.3-.7.6-1.2.7a4.6 4.6 0 0 1-2.7.1c-.4 0-.7-.2-1-.5-.4-.2-.7-.5-1-.9-.3-.4-.6-.8-.8-1.4-.3-.5-.4-1.2-.6-2a15.8 15.8 0 0 1 0-5c.2-.6.3-1.3.6-1.8a4.3 4.3 0 0 1 1.7-2.2l1-.4a4.4 4.4 0 0 1 2.6 0 3.5 3.5 0 0 1 2 2c.3.5.4 1 .4 1.7 0 .5-.1 1.1-.4 1.7-.2.6-.5 1.1-1 1.6a8.8 8.8 0 0 1-4 2.4l.2 1.3c.1.4.2.8.4 1l.5.7c.1.2.4.2.6.2a1.7 1.7 0 0 0 .8-.2c.2-.1.3-.2.3-.4l-.4-.4a2 2 0 0 1-.3-.4v-.5c0-.4 0-.7.2-.9a1.8 1.8 0 0 1 1.1-.8l.5-.1h.5l.5.4.5.7.2 1Zm-2.9-7.4a3.7 3.7 0 0 0-.3-1.5l-.4-.4a.7.7 0 0 0-.5-.2c-.3 0-.5.2-.7.5-.2.3-.4.6-.5 1.1-.2.5-.2 1-.3 1.7v2.8a6 6 0 0 0 2-1.7 4.3 4.3 0 0 0 .7-2.3ZM78.9 125.9a55.6 55.6 0 0 1-.4 6H76a78.7 78.7 0 0 0 0-9.5c-.2-.5-.5-.7-1-.7a1 1 0 0 0-.4.3l-.4.7-.3 1.2v3.5a79 79 0 0 1 0 4.9h-2.7a449.4 449.4 0 0 0 .3-10.2 111.7 111.7 0 0 0 0-3.1H74v1.1c.2-.4.4-.8.7-1 .2-.3.4-.4.7-.5a1.7 1.7 0 0 1 .8-.3l.7.1.6.4.5.7.4 1.2c.2-.6.5-1 .8-1.4l1-.7.7-.2h.4c.5 0 1 .1 1.3.4.3.3.6.8.8 1.4a34.2 34.2 0 0 1 0 12.2l-2.6-.1a37.5 37.5 0 0 0 .3-9.6l-.4-.7a.8.8 0 0 0-.6-.3c-.2 0-.4.1-.5.3-.1 0-.3.2-.4.5-.2.2-.3.5-.4.9v2.5ZM94.9 129.5c0 .4-.1.9-.3 1.3-.2.4-.5.7-.9 1-.3.3-.8.6-1.2.7a4.6 4.6 0 0 1-2.7.1c-.4 0-.7-.2-1-.5-.4-.2-.7-.5-1-.9-.4-.4-.6-.8-.8-1.4-.3-.5-.4-1.2-.6-2a15.8 15.8 0 0 1 0-5c.2-.6.3-1.3.6-1.8a4.3 4.3 0 0 1 1.7-2.2l1-.4a4.4 4.4 0 0 1 2.6 0 3.5 3.5 0 0 1 2 2c.3.5.4 1 .4 1.7 0 .5-.1 1.1-.4 1.7-.2.6-.5 1.1-1 1.6a8.8 8.8 0 0 1-4 2.4l.2 1.3c.1.4.2.8.4 1l.5.7c.1.2.4.2.6.2a1.7 1.7 0 0 0 .8-.2c.2-.1.3-.2.3-.4l-.4-.4a2 2 0 0 1-.3-.4v-.5l.1-.9a1.8 1.8 0 0 1 1.2-.8l.5-.1h.5l.5.4.5.7.2 1ZM92 122a3.7 3.7 0 0 0-.3-1.5l-.4-.4a.7.7 0 0 0-.5-.2c-.3 0-.5.2-.7.5-.2.3-.4.6-.5 1.1-.2.5-.2 1-.3 1.7v2.8a6 6 0 0 0 2-1.7 4.3 4.3 0 0 0 .7-2.3ZM112.4 115.2a66.3 66.3 0 0 0-2.4 13l-.4 4.3-4.4-.3-.6-4.3a151.9 151.9 0 0 0-2.1-12.7h.4a10 10 0 0 0 1.7 0h1.3a122.8 122.8 0 0 0 1.5 14.4A102.2 102.2 0 0 0 109 115a13.3 13.3 0 0 0 3.5 0ZM122.2 129.5c0 .4 0 .9-.3 1.3l-.8 1c-.4.3-.8.6-1.3.7a4.6 4.6 0 0 1-2.7.1c-.3 0-.7-.2-1-.5-.4-.2-.7-.5-1-.9-.3-.4-.6-.8-.8-1.4l-.5-2a15.8 15.8 0 0 1 0-5c0-.6.3-1.3.5-1.8l.8-1.3 1-.9 1-.4a4.4 4.4 0 0 1 2.5 0 3.5 3.5 0 0 1 2.1 2 4.5 4.5 0 0 1 0 3.4l-1 1.6c-.5.5-1 1-1.7 1.4-.7.4-1.5.8-2.3 1 0 .5 0 1 .2 1.3 0 .4.2.8.3 1l.5.7c.2.2.4.2.6.2a1.7 1.7 0 0 0 .8-.2l.4-.4-.5-.4a1.5 1.5 0 0 1-.4-1c0-.3.1-.6.3-.8a1.8 1.8 0 0 1 1.1-.8l.5-.1h.5l.6.4.4.7c.2.2.2.6.2 1Zm-2.9-7.4a3.8 3.8 0 0 0-.3-1.5l-.3-.4a.7.7 0 0 0-.5-.2 1 1 0 0 0-.8.5c-.2.3-.4.6-.5 1.1l-.3 1.7v2.8a6 6 0 0 0 2-1.7 4.3 4.3 0 0 0 .7-2.3ZM127.5 132.5l-3.2.2a85.4 85.4 0 0 0 .2-13.6l2.6-.1a13.2 13.2 0 0 0 0 1 3.7 3.7 0 0 1 1.8-1.5c.3-.2.6-.3 1-.3.5 0 1 .1 1.4.3.4.2.8.4 1 .7.3.2.5.5.6.9l.2 1-.1 1-.4.9a2 2 0 0 1-.7.6 2 2 0 0 1-1 .3c-.4 0-.7 0-1-.2l-.5-.6-.2-.6V121.6c0-.2 0-.3.2-.5l.3-.4.4-.4H129.8c-.4 0-.8.1-1 .4a3 3 0 0 0-.9 1l-.5 1.5c-.2.6-.3 1.3-.3 2a134.8 134.8 0 0 0 .4 7.3ZM143 121.4a2 2 0 0 1-1.8 2h-.5l-.6-.3-.4-.6a1.8 1.8 0 0 1-.1-1.4l.2-.5.5-.4a2 2 0 0 0-.8-.7l-.3-.1-.7.1-.5.4a1.8 1.8 0 0 0-.4 1.2v.8l.3.7.6.8 1.2 1a13.4 13.4 0 0 1 2.2 2.1l.5 1 .2 1.1a4.5 4.5 0 0 1-.9 2.6 3.3 3.3 0 0 1-1.7 1.3l-1.4.2a4.6 4.6 0 0 1-3.3-1.2l-.7-1a2.4 2.4 0 0 1-.2-1.8l.4-.6.5-.5 1-.1h.7l.6.5.4.6.1.8a1.6 1.6 0 0 1-.7 1.2l.4.2a2 2 0 0 0 .5.1h.4l.4-.3.3-.5.1-.6v-.7l-.3-.7a19.9 19.9 0 0 0-1.6-1.7 17 17 0 0 1-1.1-1l-.9-1.2a5.2 5.2 0 0 1-.7-2.6 3.7 3.7 0 0 1 1.2-2.7 4 4 0 0 1 1.3-.8c.6-.3 1.1-.4 1.8-.4.6 0 1.2.1 1.7.3a3.2 3.2 0 0 1 1.8 2l.3 1.4ZM148.4 115.6a1.8 1.8 0 0 1-.5 1.2 1.8 1.8 0 0 1-1.3.5h-.7a2 2 0 0 1-1-1 1.8 1.8 0 0 1 1.7-2.6c.2 0 .5 0 .7.2a1.8 1.8 0 0 1 1.1 1.7Zm0 3.5a58.2 58.2 0 0 0-.4 8.6v4.8l-2.6.1v-3.1a134.8 134.8 0 0 0-.5-10.3h3.5ZM155 132.7c-.8 0-1.4-.2-2-.5-.5-.4-1-.8-1.4-1.4l-.8-2.2-.2-2.7c0-1.1 0-2.2.3-3.1.2-1 .5-1.8.9-2.4.4-.7.9-1.3 1.4-1.6.6-.4 1.3-.6 2-.6.8 0 1.5.2 2 .5.6.3 1 .7 1.4 1.3.4.6.6 1.3.8 2.1a12.7 12.7 0 0 1 .2 4.3 12.5 12.5 0 0 1-.9 3.4c-.2.6-.5 1-.8 1.5a4 4 0 0 1-1.2 1c-.5.2-1 .4-1.7.4Zm1.8-8.8v-1.6a5 5 0 0 0-.3-1.2l-.5-.8a.9.9 0 0 0-.6-.2c-.3 0-.6.1-.8.4a4 4 0 0 0-.7 1.3l-.4 2a21.9 21.9 0 0 0 0 4.6l.2 1.3.5.8.6.3c.3 0 .5-.1.7-.3l.5-.8.4-1.3a13.7 13.7 0 0 0 .4-3v-1.5ZM165 119v1c.2-.5.5-.8.8-1l.8-.5.6-.1h.3c.6 0 1.1 0 1.5.3.5.3.8.7 1 1.2.4.5.6 1.1.7 1.8.2.8.2 1.6.2 2.5a60.5 60.5 0 0 1-.8 8l-2.7-.3a41.3 41.3 0 0 0 .7-8.6c0-.5-.1-1-.3-1.3 0-.4-.3-.7-.5-.9l-.8-.2c-.2 0-.4.2-.6.4l-.6 1.1-.6 2.1v7.8H162a127.3 127.3 0 0 0 0-9.1V119h3ZM177 115.1a341.3 341.3 0 0 0-1 13H174a143.7 143.7 0 0 0-.8-13h3.7Zm-.4 15.8-.1.6a1.5 1.5 0 0 1-.8.8l-.6.1h-.6l-.5-.4-.4-.5v-1.2l.4-.5c.1-.1.3-.3.5-.3a1.4 1.4 0 0 1 1.2 0c.2 0 .3.2.5.3l.3.5.1.6Z" stroke="#fff" stroke-width="4.6" mask="url(#b)"/></svg>