<svg width="36" height="37" fill="none" xmlns="http://www.w3.org/2000/svg"><rect x="1.3" y="1.3" width="33" height="33" rx="2.9" fill="#2459BF" stroke="#616161" stroke-width="2.5"/><path d="M14.2 11.4h.1a10.7 10.7 0 0 1 1.4-.1l1.5-.1v3.5h1.5v2.7H17v2a40.1 40.1 0 0 1 1.7-.1v3h-1.8l-.1 2.3-2.6.2a15 15 0 0 1 0-1.4v-1h-1.7v2l-2.7.2v-2.1H7.5v-3h2.3v-1.7H7.4v-2.7h2.2v-3.5h3V15H14v-3.5Zm-1.6 6.3v1.8l1.6-.1a28.1 28.1 0 0 0 0-1.8h-1.6Zm15 9.9-3.6.3a119 119 0 0 0 .1-7.4v-7.6L23 14.8l-2.4-2a30.6 30.6 0 0 1 2-2.7l1.2-1.7 3.5-.2a1168.5 1168.5 0 0 0-.1 5.1v2.5a17.7 17.7 0 0 0 0 1.4 107.1 107.1 0 0 0 .4 10.4Z" fill="#fff"/></svg>