<svg width="36" height="37" viewBox="0 0 36 37" fill="none" xmlns="http://www.w3.org/2000/svg">
<rect x="1.25" y="1.25" width="32.952" height="32.952" rx="2.87233" fill="#2459BF" stroke="#616161" stroke-width="2.5"/>
<path d="M14.1648 11.3807C14.174 11.3807 14.2242 11.3807 14.3154 11.3807C14.4067 11.3716 14.5207 11.3625 14.6576 11.3534C14.8036 11.3442 14.9678 11.3351 15.1503 11.326C15.3328 11.3169 15.5199 11.3032 15.7115 11.2849C16.1495 11.2575 16.6514 11.2256 17.2171 11.1891L17.1076 14.7478L18.6817 14.6657V17.4306L16.9981 17.4853L16.9434 19.3468C17.4818 19.3286 17.9106 19.3194 18.23 19.3194C18.5494 19.3194 18.7091 19.3103 18.7091 19.2921L18.6543 22.2896L16.8613 22.3444L16.7655 24.6438L14.2196 24.7807C14.2105 24.58 14.2059 24.3564 14.2059 24.11C14.1968 23.9002 14.1922 23.6492 14.1922 23.3572C14.1922 23.0652 14.1922 22.7459 14.1922 22.3991L12.536 22.4265L12.5087 24.4385L9.82593 24.5891L9.78487 22.4812L7.49907 22.536L7.55382 19.5384C7.56295 19.5384 7.62226 19.5384 7.73176 19.5384C7.84126 19.5384 7.99182 19.5384 8.18344 19.5384C8.38419 19.5384 8.61688 19.5384 8.8815 19.5384C9.14612 19.5293 9.43812 19.5202 9.7575 19.5111L9.73012 17.7728L7.52645 17.8549V15.1311L9.70275 15.049L9.67537 11.5724L12.7003 11.6271L12.6455 14.9121L14.1375 14.8573V12.7769C14.1375 12.3389 14.1375 11.9967 14.1375 11.7503C14.1375 11.5039 14.1466 11.3807 14.1648 11.3807ZM12.5908 17.6633L12.5634 19.4563L14.1648 19.4016C14.1648 19.1096 14.1603 18.8176 14.1512 18.5256C14.142 18.2244 14.1375 17.9188 14.1375 17.6085L12.5908 17.6633ZM27.5911 27.5866L23.9776 27.9425C23.9959 27.3311 24.0096 26.7015 24.0187 26.0536C24.0369 25.3967 24.0506 24.7488 24.0598 24.11C24.0689 23.4622 24.078 22.8325 24.0871 22.2212C24.0963 21.6007 24.1008 21.0167 24.1008 20.4692C24.1099 19.1734 24.1145 17.9096 24.1145 16.6778L24.0598 12.9274L22.9921 14.8026L20.6105 12.7769C20.72 12.6217 20.8523 12.4392 21.0075 12.2294C21.1626 12.0195 21.3268 11.7959 21.5002 11.5587C21.6736 11.3214 21.8515 11.0796 22.034 10.8332C22.2165 10.5777 22.3944 10.3314 22.5678 10.0941C22.9693 9.5375 23.3891 8.95806 23.8271 8.35582L27.2763 8.19157C27.258 8.75731 27.2398 9.33675 27.2215 9.92987C27.2124 10.5139 27.2033 11.0933 27.1942 11.6682C27.185 12.2339 27.1759 12.7814 27.1668 13.3107C27.1668 13.8399 27.1668 14.3281 27.1668 14.7752C27.1668 15.1311 27.1668 15.455 27.1668 15.747C27.1668 16.039 27.1714 16.29 27.1805 16.4998C27.1805 16.7462 27.185 16.9652 27.1942 17.1568C27.1942 18.2153 27.2124 19.3286 27.2489 20.4966C27.258 20.9893 27.2717 21.5231 27.29 22.098C27.3174 22.6637 27.3447 23.2523 27.3721 23.8637C27.3995 24.4659 27.4314 25.0818 27.4679 25.7115C27.5044 26.3411 27.5455 26.9661 27.5911 27.5866Z" fill="white"/>
</svg>
