<svg width="389" height="547" viewBox="0 0 389 547" fill="none" xmlns="http://www.w3.org/2000/svg">
<g filter="url(#filter0_d_1679_9797)">
<path d="M179.256 151.218L209.863 150.938L215.983 404.049L196.108 523.669L175.842 402.516L179.256 151.218Z" fill="#C4C4C4" stroke="black" stroke-width="1.91787"/>
<path d="M179.525 16.0199L209.623 16.0356L209.623 144.052L179.525 144.037L179.525 16.0199Z" fill="#C4C4C4" stroke="black" stroke-width="1.91787"/>
<path d="M195.168 129.112L195.344 129.144L195.52 129.111L241.877 120.258L248.96 137.167L241.823 154.204L146.947 154.218L139.81 137.181L146.896 120.267L195.168 129.112Z" fill="#444444" stroke="black" stroke-width="1.91787"/>
<path d="M179.969 44.6621L179.916 38.8465L209.359 45.9405L209.416 52.1831L179.969 44.6621ZM179.979 58.4841L209.319 52.7515L209.574 57.8214L179.962 64.3688L179.979 58.4841ZM179.768 69.6072L179.951 64.9343L209.678 68.249L209.732 74.1823L179.768 69.6072ZM209.294 38.3017L179.916 38.3017L179.976 33.4502L209.349 32.752L209.294 38.3017ZM209.299 26.8108L209.348 32.1764L179.883 22.6852L179.843 18.2955L209.299 26.8108ZM179.743 91.8912L179.926 87.2184L209.652 90.5331L209.706 96.4664L179.743 91.8912ZM179.619 112.877L209.28 109.019L209.548 113.688L179.673 118.81L179.619 112.877ZM179.725 124.422L179.678 119.331L208.615 119.067L208.662 124.158L179.725 124.422ZM209.216 103.42L209.263 108.511L180.326 108.775L180.279 103.684L209.216 103.42ZM180.305 81.4002L209.242 81.1358L209.288 86.2269L180.351 86.4912L180.305 81.4002Z" fill="#8B5C29" stroke="black" stroke-width="0.479468"/>
<path d="M184.146 141.509L188.055 133.039L202.664 133.023L206.573 141.492L202.663 149.962L188.054 149.978L184.146 141.509Z" fill="#C62222" stroke="#780000" stroke-width="1.9112"/>
<path d="M196.014 518.985L194.597 154.897" stroke="black" stroke-width="1.9112"/>
<path d="M170.67 9.25003L175.746 1.35433L212.947 1.01858L218.305 8.81119L213.09 16.7161L175.889 17.0518L170.67 9.25003Z" fill="#444444" stroke="black" stroke-width="1.9112"/>
<path d="M208.145 403.797L200.758 155.213L209.211 155.212L215.199 403.797L197.045 512.05L208.145 403.797Z" fill="#939393"/>
</g>
<g filter="url(#filter1_d_1679_9797)">
<path d="M40.9165 173.246C190.339 183.801 257.734 184.391 350.836 173.6L321.179 207.915L345.842 240.149C237.099 250.978 173.733 248.602 43.7956 240.149L75.0019 207.915L40.9165 173.246Z" fill="#C62222"/>
<path d="M308.469 209.163L328.955 232.119C225.675 240.454 166.449 240.106 67.7505 231.915L93.2798 209.145L95.5313 207.137L93.2429 205.173L69.4337 184.74C164.654 192.879 223.884 193.378 327.924 184.882L308.513 205.602L306.863 207.363L308.469 209.163Z" fill="#C62222" stroke="#FFEF60" stroke-width="5.278"/>
<path d="M119.803 203.853V221.857C119.803 222.028 118.628 222.572 116.279 223.49C113.951 224.387 112.52 224.836 111.986 224.836C111.473 224.836 110.875 224.377 110.192 223.458C109.53 222.54 109.199 221.44 109.199 220.159V204.782C109.199 203.629 108.761 202.956 107.885 202.764V202.059L111.121 200.233C111.591 200.425 112.029 200.745 112.434 201.194C112.84 201.621 113.043 202.027 113.043 202.411L117.016 200.169C117.4 200.169 117.955 200.607 118.681 201.482C119.429 202.358 119.803 203.148 119.803 203.853ZM114.677 221.889C115.083 221.889 115.499 221.718 115.926 221.376V206.255C115.926 204.739 115.382 203.981 114.293 203.981C113.865 203.981 113.449 204.141 113.043 204.461V219.518C113.043 221.098 113.588 221.889 114.677 221.889ZM132.926 210.804V219.87C132.926 220.661 133.054 221.216 133.311 221.536C133.567 221.835 133.962 222.049 134.496 222.177V222.882L131.004 224.836C130.534 224.644 130.096 224.334 129.691 223.907C129.285 223.458 129.082 223.053 129.082 222.69L125.078 224.836C125.014 224.793 124.917 224.74 124.789 224.676C124.661 224.59 124.437 224.43 124.117 224.195C123.818 223.939 123.551 223.672 123.316 223.394C122.675 222.69 122.355 221.889 122.355 220.992V215.738C122.355 215.396 122.91 214.958 124.02 214.424C125.131 213.891 126.242 213.453 127.352 213.111L129.05 212.566C129.05 211.349 128.73 210.505 128.089 210.036C127.448 209.544 126.21 209.299 124.373 209.299V208.338C127.683 207.163 129.541 206.576 129.947 206.576C130.652 206.576 131.325 207.035 131.965 207.953C132.606 208.872 132.926 209.822 132.926 210.804ZM126.199 219.838C126.199 220.394 126.359 220.853 126.679 221.216C127.021 221.558 127.395 221.729 127.801 221.729C128.206 221.729 128.634 221.568 129.082 221.248V214.008C128.548 214.2 128.142 214.36 127.865 214.489C127.608 214.617 127.331 214.82 127.032 215.097C126.477 215.61 126.199 216.496 126.199 217.756V219.838ZM137.608 217.82C137.075 217.82 136.615 217.414 136.231 216.603C135.847 215.791 135.654 214.798 135.654 213.624V210.164C135.654 209.758 136.776 209.064 139.018 208.081C141.26 207.078 142.553 206.576 142.894 206.576C143.086 206.576 143.257 206.693 143.407 206.928C143.556 207.142 143.674 207.323 143.759 207.473C143.845 207.601 143.973 207.836 144.144 208.178C144.336 208.498 144.496 208.765 144.624 208.978C144.902 209.491 145.254 209.747 145.681 209.747V210.388C145.34 210.538 144.891 210.762 144.336 211.061C142.969 211.808 142.232 212.182 142.125 212.182C141.805 212.182 141.453 211.659 141.068 210.612C140.705 209.566 140.374 209.043 140.075 209.043C139.691 209.043 139.499 209.363 139.499 210.004V213.944C139.499 214.798 139.691 215.225 140.075 215.225C140.161 215.225 140.823 214.948 142.061 214.392C143.3 213.837 144.048 213.56 144.304 213.56C144.816 213.56 145.265 213.976 145.649 214.809C146.055 215.62 146.258 216.667 146.258 217.948V221.568C146.258 221.974 145.03 222.679 142.574 223.683C140.139 224.665 138.74 225.156 138.377 225.156C138.228 225.156 138.078 225.028 137.929 224.772C137.801 224.494 137.608 224.078 137.352 223.522C137.117 222.967 136.882 222.497 136.647 222.113C136.37 221.6 136.017 221.344 135.59 221.344V220.703C135.932 220.554 136.391 220.33 136.968 220.031C138.313 219.283 139.039 218.909 139.146 218.909C139.466 218.909 139.862 219.539 140.331 220.799C140.823 222.06 141.218 222.69 141.517 222.69C141.73 222.69 141.933 222.604 142.125 222.433C142.318 222.262 142.414 222.028 142.414 221.729V217.724C142.414 216.763 142.147 216.283 141.613 216.283C141.442 216.283 140.769 216.539 139.595 217.051C138.42 217.564 137.758 217.82 137.608 217.82ZM165.79 210.612C165.833 210.762 164.679 211.306 162.33 212.246C162.33 212.695 162.48 213.442 162.779 214.489C163.078 215.514 163.462 216.592 163.932 217.724C164.423 218.856 165.032 219.849 165.758 220.703C166.484 221.558 167.21 221.985 167.936 221.985V222.946C165.95 224.206 164.69 224.836 164.156 224.836C163.409 224.836 162.394 223.202 161.113 219.935C159.853 216.667 159.223 214.467 159.223 213.335L159.063 213.399V219.903C159.063 220.693 159.148 221.259 159.319 221.6C159.49 221.942 159.842 222.113 160.376 222.113V223.106L153.809 225.861L153.296 224.836C153.766 224.836 154.215 224.558 154.642 224.003C155.026 223.469 155.218 222.658 155.218 221.568V204.974C155.218 203.671 154.781 202.934 153.905 202.764V202.059L157.14 200.233C157.61 200.425 158.048 200.745 158.454 201.194C158.86 201.621 159.063 202.016 159.063 202.379V211.894C159.618 211.894 160.237 211.723 160.921 211.381C161.604 211.018 161.946 210.644 161.946 210.26V206.095C161.946 205.305 161.86 204.739 161.689 204.397C161.519 204.056 161.166 203.885 160.632 203.885V202.892L167.2 200.137L167.712 201.162C167.242 201.162 166.794 201.439 166.367 201.995C165.982 202.529 165.79 203.34 165.79 204.429V210.612ZM178.789 210.804V219.87C178.789 220.661 178.917 221.216 179.174 221.536C179.43 221.835 179.825 222.049 180.359 222.177V222.882L176.867 224.836C176.397 224.644 175.96 224.334 175.554 223.907C175.148 223.458 174.945 223.053 174.945 222.69L170.941 224.836C170.877 224.793 170.78 224.74 170.652 224.676C170.524 224.59 170.3 224.43 169.98 224.195C169.681 223.939 169.414 223.672 169.179 223.394C168.538 222.69 168.218 221.889 168.218 220.992V215.738C168.218 215.396 168.773 214.958 169.884 214.424C170.994 213.891 172.105 213.453 173.215 213.111L174.913 212.566C174.913 211.349 174.593 210.505 173.952 210.036C173.311 209.544 172.073 209.299 170.236 209.299V208.338C173.546 207.163 175.404 206.576 175.81 206.576C176.515 206.576 177.188 207.035 177.828 207.953C178.469 208.872 178.789 209.822 178.789 210.804ZM172.062 219.838C172.062 220.394 172.222 220.853 172.542 221.216C172.884 221.558 173.258 221.729 173.664 221.729C174.069 221.729 174.497 221.568 174.945 221.248V214.008C174.411 214.2 174.005 214.36 173.728 214.489C173.471 214.617 173.194 214.82 172.895 215.097C172.34 215.61 172.062 216.496 172.062 217.756V219.838ZM180.428 208.498L183.952 206.576C184.101 206.619 184.272 206.683 184.465 206.768C184.678 206.832 184.956 207.035 185.297 207.377C185.661 207.718 185.842 208.103 185.842 208.53C185.949 208.487 186.451 208.156 187.348 207.537C188.266 206.896 188.853 206.576 189.11 206.576C189.793 206.576 190.434 207.024 191.032 207.921C191.63 208.818 191.929 209.641 191.929 210.388V211.958L188.629 213.816L188.085 213.367C188.085 211.573 187.914 210.548 187.572 210.292C187.188 210.014 186.611 209.875 185.842 209.875V220.095C185.842 221.397 186.28 222.134 187.156 222.305V223.01L183.92 224.836C183.45 224.644 183.012 224.334 182.607 223.907C182.201 223.458 181.998 223.042 181.998 222.658V212.022C181.998 211.082 181.827 210.377 181.485 209.907C181.165 209.438 180.813 209.203 180.428 209.203V208.498ZM198.012 203.244V207.056H199.646L199.325 208.626H198.012V220.095C198.012 221.397 198.45 222.134 199.325 222.305V223.01L196.09 224.836C195.62 224.644 195.182 224.334 194.776 223.907C194.37 223.458 194.168 223.042 194.168 222.658V208.658H192.854L193.174 207.313C193.815 207.313 194.584 206.885 195.481 206.031C196.399 205.156 196.944 204.227 197.115 203.244H198.012ZM209.055 206.576C209.162 206.576 209.429 206.747 209.856 207.088C210.283 207.409 210.71 207.868 211.137 208.466C211.565 209.043 211.778 209.608 211.778 210.164V215.546C211.778 215.93 211.212 216.4 210.08 216.955C208.948 217.511 207.848 217.97 206.781 218.333C205.734 218.674 205.168 218.845 205.083 218.845C205.083 220.49 205.798 221.504 207.229 221.889C207.934 222.06 208.778 222.145 209.76 222.145V223.074C206.257 224.249 204.389 224.836 204.154 224.836C203.513 224.836 202.862 224.387 202.2 223.49C201.538 222.572 201.207 221.504 201.207 220.287V209.523C201.207 209.374 202.424 208.85 204.859 207.953C207.293 207.035 208.692 206.576 209.055 206.576ZM207.934 211.669C207.934 211.071 207.795 210.57 207.517 210.164C207.24 209.737 206.887 209.523 206.46 209.523C206.033 209.523 205.563 209.683 205.051 210.004V217.404C206.973 216.87 207.934 215.717 207.934 213.944V211.669ZM214.815 222.658V211.798C214.815 211.093 214.666 210.484 214.367 209.972C214.068 209.459 213.694 209.203 213.246 209.203V208.498C213.395 208.477 214.559 207.825 216.737 206.544C216.887 206.586 217.068 206.651 217.282 206.736C217.496 206.8 217.773 207.003 218.115 207.345C218.478 207.686 218.659 208.081 218.659 208.53C218.788 208.466 219.151 208.263 219.749 207.921C221.329 207.024 222.269 206.576 222.568 206.576C223.251 206.576 223.892 207.024 224.49 207.921C225.088 208.818 225.387 209.641 225.387 210.388V220.095C225.387 221.269 225.91 221.963 226.957 222.177V222.882L223.465 224.836C222.995 224.644 222.557 224.334 222.151 223.907C221.746 223.458 221.543 223.042 221.543 222.658V213.367C221.543 212.171 221.404 211.264 221.126 210.644C220.87 210.004 220.4 209.683 219.717 209.683L218.659 209.875V220.095C218.659 221.397 219.097 222.134 219.973 222.305V223.01L216.737 224.836C216.268 224.644 215.83 224.334 215.424 223.907C215.018 223.458 214.815 223.042 214.815 222.658ZM230.054 217.82C229.52 217.82 229.061 217.414 228.677 216.603C228.292 215.791 228.1 214.798 228.1 213.624V210.164C228.1 209.758 229.221 209.064 231.464 208.081C233.706 207.078 234.998 206.576 235.34 206.576C235.532 206.576 235.703 206.693 235.852 206.928C236.002 207.142 236.119 207.323 236.205 207.473C236.29 207.601 236.418 207.836 236.589 208.178C236.781 208.498 236.942 208.765 237.07 208.978C237.347 209.491 237.7 209.747 238.127 209.747V210.388C237.785 210.538 237.337 210.762 236.781 211.061C235.415 211.808 234.678 212.182 234.571 212.182C234.251 212.182 233.898 211.659 233.514 210.612C233.151 209.566 232.82 209.043 232.521 209.043C232.136 209.043 231.944 209.363 231.944 210.004V213.944C231.944 214.798 232.136 215.225 232.521 215.225C232.606 215.225 233.268 214.948 234.507 214.392C235.746 213.837 236.493 213.56 236.749 213.56C237.262 213.56 237.71 213.976 238.095 214.809C238.501 215.62 238.704 216.667 238.704 217.948V221.568C238.704 221.974 237.476 222.679 235.02 223.683C232.585 224.665 231.186 225.156 230.823 225.156C230.673 225.156 230.524 225.028 230.374 224.772C230.246 224.494 230.054 224.078 229.798 223.522C229.563 222.967 229.328 222.497 229.093 222.113C228.815 221.6 228.463 221.344 228.036 221.344V220.703C228.378 220.554 228.837 220.33 229.413 220.031C230.759 219.283 231.485 218.909 231.592 218.909C231.912 218.909 232.307 219.539 232.777 220.799C233.268 222.06 233.663 222.69 233.962 222.69C234.176 222.69 234.379 222.604 234.571 222.433C234.763 222.262 234.859 222.028 234.859 221.729V217.724C234.859 216.763 234.592 216.283 234.058 216.283C233.888 216.283 233.215 216.539 232.04 217.051C230.866 217.564 230.204 217.82 230.054 217.82ZM246.689 209.555C246.283 209.555 245.867 209.726 245.44 210.068V222.786C245.995 222.786 246.614 222.604 247.298 222.241C247.981 221.878 248.323 221.494 248.323 221.088V211.926C248.323 210.345 247.778 209.555 246.689 209.555ZM241.563 228.36V211.509C241.563 211.018 241.425 210.538 241.147 210.068C240.891 209.598 240.517 209.331 240.026 209.267V208.562C240.175 208.541 241.339 207.889 243.518 206.608C244.009 206.821 244.447 207.142 244.831 207.569C245.237 207.975 245.44 208.359 245.44 208.722C247.725 207.313 249.06 206.608 249.444 206.608C249.594 206.608 249.871 206.779 250.277 207.12C250.704 207.441 251.121 207.921 251.526 208.562C251.954 209.181 252.167 209.822 252.167 210.484V221.889C252.167 222.038 251.217 222.487 249.316 223.234C247.437 223.96 246.134 224.419 245.408 224.612V225.797C245.408 227.1 245.846 227.837 246.721 228.007V228.712L243.486 230.538C243.016 230.346 242.578 230.026 242.172 229.577C241.766 229.15 241.563 228.744 241.563 228.36ZM259.173 208.754V220.095C259.173 221.397 259.611 222.134 260.486 222.305V223.01L257.251 224.836C256.781 224.644 256.343 224.334 255.937 223.907C255.532 223.458 255.329 223.042 255.329 222.658V211.317C255.329 210.014 254.891 209.277 254.015 209.107V208.402L257.251 206.576C257.721 206.768 258.158 207.088 258.564 207.537C258.97 207.964 259.173 208.37 259.173 208.754ZM254.848 202.571V200.617C254.848 200.553 255.286 200.361 256.162 200.041C257.059 199.699 257.571 199.528 257.699 199.528C257.849 199.528 258.052 199.71 258.308 200.073C258.586 200.436 258.724 200.809 258.724 201.194V203.532C258.724 203.597 258.297 203.799 257.443 204.141C256.589 204.461 256.065 204.622 255.873 204.622C255.681 204.622 255.457 204.44 255.2 204.077C254.966 203.693 254.848 203.191 254.848 202.571ZM270.216 206.576C270.323 206.576 270.59 206.747 271.017 207.088C271.444 207.409 271.871 207.868 272.299 208.466C272.726 209.043 272.939 209.608 272.939 210.164V215.546C272.939 215.93 272.373 216.4 271.241 216.955C270.109 217.511 269.01 217.97 267.942 218.333C266.895 218.674 266.329 218.845 266.244 218.845C266.244 220.49 266.959 221.504 268.39 221.889C269.095 222.06 269.939 222.145 270.921 222.145V223.074C267.419 224.249 265.55 224.836 265.315 224.836C264.674 224.836 264.023 224.387 263.361 223.49C262.699 222.572 262.368 221.504 262.368 220.287V209.523C262.368 209.374 263.585 208.85 266.02 207.953C268.454 207.035 269.853 206.576 270.216 206.576ZM269.095 211.669C269.095 211.071 268.956 210.57 268.679 210.164C268.401 209.737 268.049 209.523 267.621 209.523C267.194 209.523 266.724 209.683 266.212 210.004V217.404C268.134 216.87 269.095 215.717 269.095 213.944V211.669ZM279.821 202.379V220.095C279.821 221.397 280.258 222.134 281.134 222.305V223.01L277.899 224.836C277.429 224.644 276.991 224.334 276.585 223.907C276.179 223.458 275.976 223.042 275.976 222.658V204.942C275.976 203.639 275.539 202.902 274.663 202.732V202.027L277.899 200.201C278.368 200.393 278.806 200.713 279.212 201.162C279.618 201.589 279.821 201.995 279.821 202.379Z" fill="white"/>
</g>
<g filter="url(#filter2_d_1679_9797)">
<mask id="path-12-outside-1_1679_9797" maskUnits="userSpaceOnUse" x="13.8552" y="77.8941" width="363.028" height="98.0924" fill="black">
<rect fill="white" x="13.8552" y="77.8941" width="363.028" height="98.0924"/>
<path d="M36.9042 165.435C34.1826 165.429 31.9772 165.439 30.2878 165.466C28.6297 165.525 27.3157 165.584 26.3457 165.644C25.2193 165.735 24.3901 165.811 23.8581 165.873C24.1135 164.123 24.338 162.264 24.5316 160.296C24.7252 158.296 24.9033 156.266 25.0658 154.203C25.2284 152.141 25.3596 150.095 25.4595 148.064C25.5593 146.033 25.6433 144.095 25.7113 142.252C25.8494 137.908 25.9405 133.565 25.9847 129.221C25.9663 124.877 25.9006 120.674 25.7875 116.611C25.73 114.892 25.6571 113.111 25.5687 111.267C25.4805 109.392 25.3764 107.563 25.2566 105.782C25.1367 104 24.9854 102.297 24.8025 100.671C24.6509 99.0457 24.4676 97.5765 24.2525 96.2634L27.3025 96.2708C28.9918 96.2749 30.4464 96.2628 31.6665 96.2346C32.8867 96.175 33.9036 96.115 34.7171 96.0545C35.6558 95.9942 36.4537 95.918 37.1109 95.8259C36.9452 98.9505 36.7951 102.091 36.6606 105.247C36.5574 108.403 36.4702 111.418 36.3991 114.293C36.3281 117.137 36.2735 119.746 36.2351 122.121C36.1968 124.496 36.1753 126.48 36.1705 128.074C37.1714 128.139 38.141 128.172 39.0795 128.175C40.018 128.177 40.9408 128.179 41.848 128.181C43.8188 128.186 45.555 128.159 47.0568 128.1C48.5899 128.01 49.8571 127.92 50.8584 127.828C50.8589 127.641 50.8453 126.969 50.8174 125.813C50.821 124.625 50.8097 123.141 50.7837 121.359C50.7578 119.578 50.7011 117.578 50.6139 115.359C50.5579 113.14 50.4707 110.89 50.3524 108.608C50.234 106.327 50.0842 104.123 49.9028 101.998C49.7215 99.8409 49.4925 97.9497 49.2158 96.324L52.2189 96.3313C53.8143 96.3352 55.1907 96.3229 56.3483 96.2944C57.5372 96.2348 58.5228 96.1747 59.305 96.1141C60.2124 96.0538 60.979 95.9776 61.6049 95.8853C61.5051 97.9164 61.4051 99.9786 61.305 102.072C61.2363 104.135 61.1677 106.181 61.0991 108.212C61.0619 110.212 61.0248 112.165 60.9878 114.072C60.951 115.946 60.9144 117.728 60.8781 119.415C60.8039 123.352 60.7613 127.149 60.7505 130.805C60.7397 134.43 60.76 138.118 60.8114 141.868C60.838 143.462 60.8643 145.15 60.8903 146.931C60.9163 148.681 60.9423 150.478 60.9681 152.322C61.0253 154.134 61.0825 155.947 61.1396 157.76C61.2281 159.573 61.3168 161.323 61.4056 163.011C58.7779 163.004 56.6506 163.03 55.0237 163.089C53.397 163.116 52.1299 163.16 51.2225 163.22C50.1586 163.311 49.3607 163.388 48.8287 163.449C49.1159 161.543 49.3566 159.512 49.5507 157.357C49.7448 155.201 49.9077 153.014 50.0394 150.795C50.2024 148.577 50.3184 146.39 50.3873 144.234C50.4876 142.078 50.5718 140.062 50.6399 138.187C49.1388 138.027 47.7001 137.93 46.3238 137.896C44.9476 137.83 43.6338 137.795 42.3825 137.792C41.0687 137.789 39.8799 137.802 38.8162 137.83C37.7838 137.859 36.8921 137.904 36.1411 137.965C36.1361 139.652 36.146 141.605 36.1707 143.824C36.1954 146.043 36.2354 148.371 36.2907 150.809C36.3774 153.215 36.4639 155.684 36.5502 158.216C36.6367 160.716 36.7546 163.123 36.9042 165.435Z"/>
<path d="M94.2678 166.606C91.1709 166.598 88.4982 165.92 86.2499 164.571C84.0328 163.222 82.1928 161.342 80.7296 158.932C79.2978 156.523 78.2427 153.661 77.5643 150.346C76.8859 147.032 76.5526 143.422 76.5642 139.516C76.5776 134.985 76.9966 130.829 77.8212 127.05C78.6458 123.271 79.8442 120.024 81.4163 117.309C83.0198 114.594 84.9812 112.489 87.3006 110.995C89.6513 109.469 92.3438 108.71 95.3782 108.717C98.4439 108.725 101.085 109.372 103.303 110.659C105.52 111.945 107.344 113.746 108.777 116.062C110.24 118.379 111.311 121.147 111.99 124.367C112.668 127.588 113.002 131.135 112.99 135.01C112.984 137.01 112.853 139.182 112.596 141.525C112.37 143.868 111.972 146.211 111.402 148.554C110.863 150.896 110.137 153.16 109.223 155.345C108.309 157.499 107.162 159.418 105.78 161.103C104.399 162.787 102.753 164.126 100.842 165.122C98.9616 166.117 96.7704 166.612 94.2678 166.606ZM101.692 131.514C101.699 129.139 101.596 127.014 101.383 125.138C101.169 123.232 100.814 121.621 100.318 120.308C99.8524 118.994 99.2453 117.993 98.4966 117.303C97.7792 116.583 96.9044 116.221 95.8721 116.219C94.7459 116.216 93.6962 116.807 92.7229 117.992C91.7497 119.177 90.8843 120.894 90.1268 123.142C89.4007 125.391 88.8138 128.139 88.3662 131.388C87.9499 134.606 87.7358 138.246 87.7237 142.309C87.7159 144.934 87.834 147.293 88.0781 149.388C88.3222 151.451 88.6924 153.217 89.1885 154.687C89.6848 156.126 90.2915 157.237 91.0087 158.02C91.7572 158.772 92.632 159.149 93.633 159.151C94.6341 159.154 95.5268 158.75 96.3113 157.939C97.0958 157.097 97.7717 155.974 98.339 154.569C98.9375 153.164 99.4429 151.54 99.855 149.697C100.299 147.823 100.648 145.871 100.905 143.841C101.161 141.779 101.355 139.685 101.486 137.561C101.618 135.436 101.686 133.42 101.692 131.514Z"/>
<path d="M159.817 97.483C159.813 98.7643 159.622 99.967 159.243 101.091C158.896 102.184 158.408 103.136 157.78 103.947C157.184 104.727 156.462 105.35 155.616 105.817C154.802 106.252 153.909 106.469 152.94 106.466C151.97 106.464 151.063 106.306 150.22 105.991C149.407 105.645 148.689 105.206 148.065 104.673C147.441 104.109 146.942 103.467 146.569 102.748C146.227 101.997 146.058 101.215 146.06 100.403C146.06 100.34 146.061 100.137 146.062 99.7934C146.094 99.4185 146.174 98.9656 146.3 98.4346C146.427 97.8724 146.601 97.2791 146.822 96.6546C147.074 95.999 147.436 95.3592 147.907 94.7354C146.374 94.7316 145.168 95.1037 144.29 95.8516C143.412 96.5995 142.752 97.6291 142.31 98.9406C141.9 100.221 141.629 101.751 141.499 103.532C141.4 105.282 141.347 107.157 141.342 109.157L141.331 112.579C143.208 112.584 145.085 112.541 146.963 112.452C148.871 112.332 150.795 112.196 152.735 112.044L152.139 123.199C150.357 122.976 148.559 122.815 146.744 122.717C144.93 122.619 143.116 122.537 141.302 122.47C141.291 126.063 141.296 129.642 141.317 133.204C141.338 136.767 141.359 140.173 141.381 143.423C141.402 146.673 141.409 149.705 141.4 152.517C141.423 155.298 141.432 157.72 141.426 159.783C141.451 161.814 141.462 163.408 141.459 164.564C141.455 165.752 141.453 166.345 141.453 166.345L130.753 166.882C130.916 164.632 131.033 162.133 131.104 159.383C131.175 156.602 131.215 153.664 131.224 150.57C131.231 148.289 131.222 145.961 131.198 143.586C131.173 141.18 131.134 138.789 131.078 136.414C131.023 134.007 130.967 131.648 130.911 129.335C130.856 127.022 130.815 124.788 130.791 122.632C129.821 122.692 128.866 122.768 127.928 122.859C127.02 122.919 126.081 123.011 125.111 123.133L124.675 111.976C125.645 112.072 126.63 112.168 127.631 112.264C128.631 112.329 129.632 112.394 130.633 112.459L130.649 107.209C130.658 104.178 130.963 101.429 131.565 98.9614C132.198 96.4629 133.174 94.3246 134.493 92.5465C135.844 90.7686 137.568 89.3977 139.667 88.4341C141.797 87.4392 144.364 86.9454 147.367 86.9527C149.431 86.9577 151.245 87.2746 152.807 87.9034C154.369 88.5322 155.665 89.3635 156.694 90.3973C157.724 91.3998 158.502 92.5267 159.031 93.778C159.559 95.0293 159.821 96.2643 159.817 97.483Z"/>
<path d="M197.404 121.95C197.399 123.387 197.13 124.605 196.595 125.604C196.06 126.603 195.417 127.413 194.664 128.037C193.911 128.66 193.128 129.111 192.314 129.39C191.5 129.67 190.811 129.809 190.248 129.807C189.685 129.806 189.013 129.71 188.231 129.521C187.45 129.3 186.7 128.924 185.982 128.391C185.295 127.858 184.703 127.153 184.205 126.277C183.707 125.369 183.461 124.228 183.465 122.853C183.498 122.103 183.641 121.369 183.894 120.651C184.114 120.027 184.445 119.387 184.885 118.732C185.356 118.045 186.015 117.437 186.861 116.908C186.3 116.094 185.739 115.468 185.177 115.029C184.615 114.59 184.116 114.261 183.679 114.041C183.147 113.79 182.663 113.632 182.225 113.569C181.256 113.566 180.379 113.767 179.596 114.172C178.813 114.545 178.139 115.059 177.573 115.714C177.04 116.338 176.615 117.071 176.3 117.914C176.016 118.757 175.873 119.632 175.87 120.538C175.866 121.694 175.942 122.741 176.095 123.679C176.249 124.617 176.606 125.571 177.166 126.541C177.726 127.511 178.568 128.56 179.69 129.688C180.813 130.816 182.342 132.132 184.277 133.637C186.212 135.141 187.897 136.614 189.332 138.055C190.767 139.465 191.951 140.858 192.886 142.236C193.82 143.613 194.52 145.005 194.985 146.413C195.45 147.789 195.68 149.227 195.676 150.727C195.673 151.727 195.56 152.82 195.338 154.007C195.147 155.163 194.799 156.35 194.295 157.567C193.822 158.754 193.177 159.908 192.361 161.031C191.575 162.123 190.587 163.105 189.396 163.977C188.236 164.85 186.857 165.534 185.26 166.03C183.695 166.557 181.895 166.819 179.862 166.814C176.796 166.806 174.185 166.347 172.03 165.435C169.874 164.524 168.094 163.426 166.69 162.141C165.318 160.825 164.305 159.448 163.652 158.009C163.031 156.57 162.722 155.303 162.725 154.209C162.729 153.053 162.873 151.975 163.157 150.976C163.442 149.977 163.882 149.103 164.479 148.354C165.107 147.606 165.89 147.03 166.83 146.626C167.801 146.19 168.959 145.974 170.304 145.978C171.43 145.98 172.447 146.155 173.353 146.501C174.29 146.847 175.086 147.364 175.741 148.053C176.428 148.711 176.957 149.525 177.329 150.495C177.702 151.464 177.886 152.559 177.883 153.777C177.85 154.309 177.739 154.855 177.549 155.417C177.392 155.886 177.124 156.401 176.747 156.962C176.37 157.524 175.852 158.054 175.194 158.552C175.631 158.897 176.052 159.164 176.458 159.352C176.896 159.509 177.287 159.62 177.631 159.683C178.006 159.778 178.381 159.826 178.756 159.826C179.163 159.827 179.633 159.719 180.165 159.502C180.729 159.253 181.262 158.879 181.764 158.381C182.266 157.882 182.69 157.274 183.036 156.556C183.382 155.838 183.557 154.979 183.56 153.979C183.563 152.979 183.472 152.072 183.286 151.259C183.133 150.415 182.775 149.555 182.215 148.679C181.686 147.771 180.907 146.785 179.877 145.72C178.848 144.655 177.491 143.37 175.807 141.866C174.122 140.362 172.625 138.905 171.315 137.496C170.005 136.055 168.899 134.568 167.997 133.034C167.125 131.501 166.457 129.89 165.993 128.201C165.529 126.513 165.3 124.653 165.306 122.622C165.312 120.622 165.709 118.685 166.496 116.812C167.315 114.939 168.462 113.285 169.936 111.851C171.411 110.386 173.198 109.234 175.296 108.396C177.394 107.526 179.742 107.094 182.338 107.1C184.966 107.107 187.233 107.518 189.139 108.336C191.044 109.153 192.605 110.25 193.821 111.628C195.037 112.975 195.94 114.54 196.529 116.322C197.118 118.105 197.41 119.981 197.404 121.95Z"/>
<path d="M228.11 93.0081C227.85 96.2263 227.638 99.3976 227.472 102.522C227.306 105.616 227.141 108.725 226.975 111.849C228.352 111.79 229.713 111.747 231.058 111.719C232.403 111.659 233.78 111.585 235.188 111.494L235.34 123.495C233.839 123.241 232.354 123.034 230.884 122.875C229.414 122.715 227.975 122.586 226.568 122.489C226.466 125.145 226.396 127.77 226.357 130.364C226.349 132.957 226.341 135.582 226.334 138.239C226.319 142.989 226.352 147.708 226.432 152.395C226.544 157.083 226.717 161.802 226.953 166.553L214.707 166.336C215.135 158.993 215.486 151.666 215.758 144.354C216.061 137.011 216.271 129.62 216.386 122.183C215.072 122.242 213.758 122.317 212.444 122.408C211.13 122.467 209.785 122.542 208.408 122.632L208.816 111.524C210.099 111.621 211.365 111.702 212.617 111.768C213.899 111.802 215.166 111.852 216.417 111.917C216.426 108.792 216.404 105.683 216.351 102.589C216.298 99.4639 216.244 96.3231 216.191 93.1667L228.11 93.0081Z"/>
<path d="M270.385 166.283C270.2 165.314 270.031 164.329 269.877 163.329C269.724 162.329 269.602 161.297 269.511 160.234C268.066 162.356 266.341 163.977 264.335 165.097C262.33 166.248 260.138 166.821 257.761 166.815C256.541 166.812 255.29 166.606 254.009 166.197C252.727 165.819 251.556 165.144 250.495 164.173C249.466 163.201 248.61 161.887 247.926 160.229C247.274 158.54 246.952 156.414 246.96 153.851C246.966 151.726 247.285 149.883 247.915 148.322C248.545 146.73 249.363 145.341 250.367 144.156C251.372 142.971 252.501 141.943 253.755 141.071C255.009 140.199 256.247 139.421 257.469 138.736C258.722 138.052 259.913 137.414 261.041 136.823C262.169 136.232 263.093 135.64 263.814 135.048C265.194 133.958 266.386 132.805 267.391 131.588C268.427 130.341 269.26 129.046 269.889 127.704C269.771 125.547 269.541 123.781 269.201 122.405C268.893 120.998 268.474 119.888 267.944 119.074C267.415 118.229 266.76 117.649 265.979 117.335C265.229 116.989 264.369 116.815 263.399 116.813C261.96 116.809 260.739 117.119 259.737 117.741C258.765 118.364 257.965 119.112 257.337 119.986C258.117 120.487 258.71 121.02 259.115 121.584C259.551 122.147 259.878 122.695 260.096 123.227C260.344 123.821 260.483 124.431 260.513 125.056C260.506 127.181 259.891 128.804 258.668 129.926C257.476 131.048 255.941 131.607 254.065 131.603C253.095 131.6 252.204 131.379 251.392 130.94C250.58 130.469 249.862 129.827 249.239 129.013C248.647 128.199 248.181 127.229 247.84 126.103C247.499 124.977 247.331 123.758 247.335 122.446C247.339 121.133 247.64 119.743 248.239 118.276C248.837 116.809 249.796 115.452 251.113 114.205C252.431 112.927 254.123 111.884 256.19 111.076C258.257 110.238 260.761 109.822 263.702 109.829C266.642 109.836 269.159 110.42 271.251 111.582C273.344 112.712 275.06 114.232 276.399 116.141C277.739 118.019 278.702 120.194 279.289 122.664C279.907 125.134 280.213 127.682 280.205 130.307C280.199 132.276 280.177 134.416 280.139 136.729C280.101 139.041 280.078 141.416 280.071 143.853C280.065 145.885 280.074 147.916 280.1 149.947C280.125 151.979 280.182 153.948 280.27 155.854C280.358 157.729 280.478 159.511 280.629 161.199C280.781 162.855 280.98 164.34 281.226 165.653L270.385 166.283ZM269.763 138.813C268.664 140.123 267.487 141.245 266.233 142.179C265.293 142.833 264.274 143.565 263.177 144.375C262.111 145.185 261.107 146.042 260.166 146.946C259.256 147.85 258.487 148.801 257.858 149.8C257.261 150.767 256.961 151.766 256.958 152.797C256.954 154.204 257.294 155.408 257.979 156.409C258.665 157.411 259.633 157.913 260.884 157.916C262.042 157.919 263.075 157.609 263.984 156.986C264.893 156.364 265.693 155.6 266.384 154.695C267.106 153.76 267.703 152.761 268.176 151.7C268.68 150.638 269.073 149.671 269.358 148.796L269.763 138.813Z"/>
<path d="M318.273 166.4C318.088 165.43 317.919 164.445 317.766 163.445C317.612 162.445 317.49 161.413 317.399 160.35C315.954 162.472 314.229 164.093 312.223 165.213C310.218 166.364 308.026 166.937 305.649 166.931C304.429 166.928 303.178 166.722 301.897 166.313C300.615 165.935 299.444 165.26 298.384 164.289C297.354 163.317 296.498 162.003 295.815 160.345C295.163 158.656 294.84 156.53 294.848 153.968C294.854 151.843 295.173 150 295.803 148.439C296.433 146.846 297.251 145.458 298.255 144.273C299.26 143.088 300.389 142.059 301.643 141.187C302.897 140.315 304.135 139.537 305.357 138.852C306.61 138.168 307.801 137.53 308.929 136.939C310.057 136.348 310.981 135.757 311.703 135.165C313.082 134.074 314.274 132.921 315.279 131.704C316.315 130.457 317.148 129.162 317.778 127.82C317.659 125.663 317.43 123.897 317.089 122.521C316.781 121.114 316.362 120.004 315.832 119.19C315.303 118.345 314.648 117.765 313.867 117.451C313.117 117.105 312.257 116.931 311.288 116.929C309.849 116.925 308.628 117.235 307.625 117.858C306.653 118.48 305.853 119.228 305.225 120.102C306.006 120.604 306.598 121.136 307.003 121.7C307.44 122.263 307.766 122.811 307.984 123.343C308.232 123.937 308.371 124.547 308.401 125.172C308.394 127.297 307.78 128.921 306.556 130.043C305.364 131.165 303.83 131.723 301.953 131.719C300.983 131.717 300.092 131.496 299.28 131.056C298.468 130.585 297.75 129.943 297.127 129.129C296.535 128.315 296.069 127.345 295.728 126.219C295.387 125.094 295.219 123.874 295.223 122.562C295.227 121.249 295.528 119.859 296.127 118.392C296.726 116.925 297.684 115.568 299.001 114.321C300.319 113.043 302.011 112 304.078 111.193C306.145 110.354 308.649 109.938 311.59 109.945C314.53 109.952 317.047 110.537 319.139 111.698C321.232 112.828 322.948 114.348 324.287 116.257C325.627 118.136 326.59 120.31 327.177 122.78C327.796 125.25 328.101 127.798 328.093 130.423C328.087 132.392 328.065 134.532 328.027 136.845C327.989 139.157 327.966 141.532 327.959 143.97C327.953 146.001 327.963 148.032 327.988 150.064C328.013 152.095 328.07 154.064 328.158 155.97C328.246 157.845 328.366 159.627 328.518 161.315C328.669 162.972 328.868 164.456 329.114 165.77L318.273 166.4ZM317.651 138.929C316.552 140.239 315.376 141.361 314.121 142.295C313.181 142.949 312.162 143.681 311.065 144.491C309.999 145.301 308.995 146.158 308.054 147.062C307.144 147.966 306.375 148.917 305.746 149.916C305.149 150.883 304.849 151.882 304.846 152.914C304.842 154.32 305.182 155.524 305.868 156.526C306.553 157.527 307.521 158.03 308.772 158.033C309.93 158.035 310.963 157.725 311.872 157.103C312.781 156.48 313.581 155.716 314.272 154.812C314.994 153.876 315.592 152.877 316.064 151.816C316.568 150.755 316.962 149.787 317.246 148.912L317.651 138.929Z"/>
<path d="M360.888 93.3303C360.629 96.5485 360.416 99.7199 360.25 102.844C360.085 105.938 359.919 109.047 359.753 112.172C361.13 112.112 362.491 112.069 363.836 112.041C365.181 111.982 366.558 111.907 367.966 111.816L368.118 123.817C366.617 123.563 365.132 123.357 363.662 123.197C362.192 123.037 360.754 122.908 359.346 122.811C359.245 125.467 359.174 128.092 359.135 130.686C359.127 133.28 359.12 135.905 359.112 138.561C359.098 143.311 359.131 148.03 359.211 152.717C359.322 157.405 359.495 162.124 359.732 166.875L347.485 166.658C347.914 159.315 348.264 151.988 348.536 144.676C348.839 137.333 349.049 129.943 349.165 122.505C347.851 122.565 346.537 122.64 345.222 122.73C343.908 122.789 342.563 122.864 341.186 122.955L341.595 111.846C342.877 111.943 344.144 112.024 345.395 112.09C346.677 112.124 347.944 112.174 349.195 112.24C349.204 109.115 349.182 106.005 349.129 102.911C349.076 99.7861 349.023 96.6453 348.969 93.4889L360.888 93.3303Z"/>
</mask>
<path d="M36.9042 165.435C34.1826 165.429 31.9772 165.439 30.2878 165.466C28.6297 165.525 27.3157 165.584 26.3457 165.644C25.2193 165.735 24.3901 165.811 23.8581 165.873C24.1135 164.123 24.338 162.264 24.5316 160.296C24.7252 158.296 24.9033 156.266 25.0658 154.203C25.2284 152.141 25.3596 150.095 25.4595 148.064C25.5593 146.033 25.6433 144.095 25.7113 142.252C25.8494 137.908 25.9405 133.565 25.9847 129.221C25.9663 124.877 25.9006 120.674 25.7875 116.611C25.73 114.892 25.6571 113.111 25.5687 111.267C25.4805 109.392 25.3764 107.563 25.2566 105.782C25.1367 104 24.9854 102.297 24.8025 100.671C24.6509 99.0457 24.4676 97.5765 24.2525 96.2634L27.3025 96.2708C28.9918 96.2749 30.4464 96.2628 31.6665 96.2346C32.8867 96.175 33.9036 96.115 34.7171 96.0545C35.6558 95.9942 36.4537 95.918 37.1109 95.8259C36.9452 98.9505 36.7951 102.091 36.6606 105.247C36.5574 108.403 36.4702 111.418 36.3991 114.293C36.3281 117.137 36.2735 119.746 36.2351 122.121C36.1968 124.496 36.1753 126.48 36.1705 128.074C37.1714 128.139 38.141 128.172 39.0795 128.175C40.018 128.177 40.9408 128.179 41.848 128.181C43.8188 128.186 45.555 128.159 47.0568 128.1C48.5899 128.01 49.8571 127.92 50.8584 127.828C50.8589 127.641 50.8453 126.969 50.8174 125.813C50.821 124.625 50.8097 123.141 50.7837 121.359C50.7578 119.578 50.7011 117.578 50.6139 115.359C50.5579 113.14 50.4707 110.89 50.3524 108.608C50.234 106.327 50.0842 104.123 49.9028 101.998C49.7215 99.8409 49.4925 97.9497 49.2158 96.324L52.2189 96.3313C53.8143 96.3352 55.1907 96.3229 56.3483 96.2944C57.5372 96.2348 58.5228 96.1747 59.305 96.1141C60.2124 96.0538 60.979 95.9776 61.6049 95.8853C61.5051 97.9164 61.4051 99.9786 61.305 102.072C61.2363 104.135 61.1677 106.181 61.0991 108.212C61.0619 110.212 61.0248 112.165 60.9878 114.072C60.951 115.946 60.9144 117.728 60.8781 119.415C60.8039 123.352 60.7613 127.149 60.7505 130.805C60.7397 134.43 60.76 138.118 60.8114 141.868C60.838 143.462 60.8643 145.15 60.8903 146.931C60.9163 148.681 60.9423 150.478 60.9681 152.322C61.0253 154.134 61.0825 155.947 61.1396 157.76C61.2281 159.573 61.3168 161.323 61.4056 163.011C58.7779 163.004 56.6506 163.03 55.0237 163.089C53.397 163.116 52.1299 163.16 51.2225 163.22C50.1586 163.311 49.3607 163.388 48.8287 163.449C49.1159 161.543 49.3566 159.512 49.5507 157.357C49.7448 155.201 49.9077 153.014 50.0394 150.795C50.2024 148.577 50.3184 146.39 50.3873 144.234C50.4876 142.078 50.5718 140.062 50.6399 138.187C49.1388 138.027 47.7001 137.93 46.3238 137.896C44.9476 137.83 43.6338 137.795 42.3825 137.792C41.0687 137.789 39.8799 137.802 38.8162 137.83C37.7838 137.859 36.8921 137.904 36.1411 137.965C36.1361 139.652 36.146 141.605 36.1707 143.824C36.1954 146.043 36.2354 148.371 36.2907 150.809C36.3774 153.215 36.4639 155.684 36.5502 158.216C36.6367 160.716 36.7546 163.123 36.9042 165.435Z" fill="white"/>
<path d="M94.2678 166.606C91.1709 166.598 88.4982 165.92 86.2499 164.571C84.0328 163.222 82.1928 161.342 80.7296 158.932C79.2978 156.523 78.2427 153.661 77.5643 150.346C76.8859 147.032 76.5526 143.422 76.5642 139.516C76.5776 134.985 76.9966 130.829 77.8212 127.05C78.6458 123.271 79.8442 120.024 81.4163 117.309C83.0198 114.594 84.9812 112.489 87.3006 110.995C89.6513 109.469 92.3438 108.71 95.3782 108.717C98.4439 108.725 101.085 109.372 103.303 110.659C105.52 111.945 107.344 113.746 108.777 116.062C110.24 118.379 111.311 121.147 111.99 124.367C112.668 127.588 113.002 131.135 112.99 135.01C112.984 137.01 112.853 139.182 112.596 141.525C112.37 143.868 111.972 146.211 111.402 148.554C110.863 150.896 110.137 153.16 109.223 155.345C108.309 157.499 107.162 159.418 105.78 161.103C104.399 162.787 102.753 164.126 100.842 165.122C98.9616 166.117 96.7704 166.612 94.2678 166.606ZM101.692 131.514C101.699 129.139 101.596 127.014 101.383 125.138C101.169 123.232 100.814 121.621 100.318 120.308C99.8524 118.994 99.2453 117.993 98.4966 117.303C97.7792 116.583 96.9044 116.221 95.8721 116.219C94.7459 116.216 93.6962 116.807 92.7229 117.992C91.7497 119.177 90.8843 120.894 90.1268 123.142C89.4007 125.391 88.8138 128.139 88.3662 131.388C87.9499 134.606 87.7358 138.246 87.7237 142.309C87.7159 144.934 87.834 147.293 88.0781 149.388C88.3222 151.451 88.6924 153.217 89.1885 154.687C89.6848 156.126 90.2915 157.237 91.0087 158.02C91.7572 158.772 92.632 159.149 93.633 159.151C94.6341 159.154 95.5268 158.75 96.3113 157.939C97.0958 157.097 97.7717 155.974 98.339 154.569C98.9375 153.164 99.4429 151.54 99.855 149.697C100.299 147.823 100.648 145.871 100.905 143.841C101.161 141.779 101.355 139.685 101.486 137.561C101.618 135.436 101.686 133.42 101.692 131.514Z" fill="white"/>
<path d="M159.817 97.483C159.813 98.7643 159.622 99.967 159.243 101.091C158.896 102.184 158.408 103.136 157.78 103.947C157.184 104.727 156.462 105.35 155.616 105.817C154.802 106.252 153.909 106.469 152.94 106.466C151.97 106.464 151.063 106.306 150.22 105.991C149.407 105.645 148.689 105.206 148.065 104.673C147.441 104.109 146.942 103.467 146.569 102.748C146.227 101.997 146.058 101.215 146.06 100.403C146.06 100.34 146.061 100.137 146.062 99.7934C146.094 99.4185 146.174 98.9656 146.3 98.4346C146.427 97.8724 146.601 97.2791 146.822 96.6546C147.074 95.999 147.436 95.3592 147.907 94.7354C146.374 94.7316 145.168 95.1037 144.29 95.8516C143.412 96.5995 142.752 97.6291 142.31 98.9406C141.9 100.221 141.629 101.751 141.499 103.532C141.4 105.282 141.347 107.157 141.342 109.157L141.331 112.579C143.208 112.584 145.085 112.541 146.963 112.452C148.871 112.332 150.795 112.196 152.735 112.044L152.139 123.199C150.357 122.976 148.559 122.815 146.744 122.717C144.93 122.619 143.116 122.537 141.302 122.47C141.291 126.063 141.296 129.642 141.317 133.204C141.338 136.767 141.359 140.173 141.381 143.423C141.402 146.673 141.409 149.705 141.4 152.517C141.423 155.298 141.432 157.72 141.426 159.783C141.451 161.814 141.462 163.408 141.459 164.564C141.455 165.752 141.453 166.345 141.453 166.345L130.753 166.882C130.916 164.632 131.033 162.133 131.104 159.383C131.175 156.602 131.215 153.664 131.224 150.57C131.231 148.289 131.222 145.961 131.198 143.586C131.173 141.18 131.134 138.789 131.078 136.414C131.023 134.007 130.967 131.648 130.911 129.335C130.856 127.022 130.815 124.788 130.791 122.632C129.821 122.692 128.866 122.768 127.928 122.859C127.02 122.919 126.081 123.011 125.111 123.133L124.675 111.976C125.645 112.072 126.63 112.168 127.631 112.264C128.631 112.329 129.632 112.394 130.633 112.459L130.649 107.209C130.658 104.178 130.963 101.429 131.565 98.9614C132.198 96.4629 133.174 94.3246 134.493 92.5465C135.844 90.7686 137.568 89.3977 139.667 88.4341C141.797 87.4392 144.364 86.9454 147.367 86.9527C149.431 86.9577 151.245 87.2746 152.807 87.9034C154.369 88.5322 155.665 89.3635 156.694 90.3973C157.724 91.3998 158.502 92.5267 159.031 93.778C159.559 95.0293 159.821 96.2643 159.817 97.483Z" fill="white"/>
<path d="M197.404 121.95C197.399 123.387 197.13 124.605 196.595 125.604C196.06 126.603 195.417 127.413 194.664 128.037C193.911 128.66 193.128 129.111 192.314 129.39C191.5 129.67 190.811 129.809 190.248 129.807C189.685 129.806 189.013 129.71 188.231 129.521C187.45 129.3 186.7 128.924 185.982 128.391C185.295 127.858 184.703 127.153 184.205 126.277C183.707 125.369 183.461 124.228 183.465 122.853C183.498 122.103 183.641 121.369 183.894 120.651C184.114 120.027 184.445 119.387 184.885 118.732C185.356 118.045 186.015 117.437 186.861 116.908C186.3 116.094 185.739 115.468 185.177 115.029C184.615 114.59 184.116 114.261 183.679 114.041C183.147 113.79 182.663 113.632 182.225 113.569C181.256 113.566 180.379 113.767 179.596 114.172C178.813 114.545 178.139 115.059 177.573 115.714C177.04 116.338 176.615 117.071 176.3 117.914C176.016 118.757 175.873 119.632 175.87 120.538C175.866 121.694 175.942 122.741 176.095 123.679C176.249 124.617 176.606 125.571 177.166 126.541C177.726 127.511 178.568 128.56 179.69 129.688C180.813 130.816 182.342 132.132 184.277 133.637C186.212 135.141 187.897 136.614 189.332 138.055C190.767 139.465 191.951 140.858 192.886 142.236C193.82 143.613 194.52 145.005 194.985 146.413C195.45 147.789 195.68 149.227 195.676 150.727C195.673 151.727 195.56 152.82 195.338 154.007C195.147 155.163 194.799 156.35 194.295 157.567C193.822 158.754 193.177 159.908 192.361 161.031C191.575 162.123 190.587 163.105 189.396 163.977C188.236 164.85 186.857 165.534 185.26 166.03C183.695 166.557 181.895 166.819 179.862 166.814C176.796 166.806 174.185 166.347 172.03 165.435C169.874 164.524 168.094 163.426 166.69 162.141C165.318 160.825 164.305 159.448 163.652 158.009C163.031 156.57 162.722 155.303 162.725 154.209C162.729 153.053 162.873 151.975 163.157 150.976C163.442 149.977 163.882 149.103 164.479 148.354C165.107 147.606 165.89 147.03 166.83 146.626C167.801 146.19 168.959 145.974 170.304 145.978C171.43 145.98 172.447 146.155 173.353 146.501C174.29 146.847 175.086 147.364 175.741 148.053C176.428 148.711 176.957 149.525 177.329 150.495C177.702 151.464 177.886 152.559 177.883 153.777C177.85 154.309 177.739 154.855 177.549 155.417C177.392 155.886 177.124 156.401 176.747 156.962C176.37 157.524 175.852 158.054 175.194 158.552C175.631 158.897 176.052 159.164 176.458 159.352C176.896 159.509 177.287 159.62 177.631 159.683C178.006 159.778 178.381 159.826 178.756 159.826C179.163 159.827 179.633 159.719 180.165 159.502C180.729 159.253 181.262 158.879 181.764 158.381C182.266 157.882 182.69 157.274 183.036 156.556C183.382 155.838 183.557 154.979 183.56 153.979C183.563 152.979 183.472 152.072 183.286 151.259C183.133 150.415 182.775 149.555 182.215 148.679C181.686 147.771 180.907 146.785 179.877 145.72C178.848 144.655 177.491 143.37 175.807 141.866C174.122 140.362 172.625 138.905 171.315 137.496C170.005 136.055 168.899 134.568 167.997 133.034C167.125 131.501 166.457 129.89 165.993 128.201C165.529 126.513 165.3 124.653 165.306 122.622C165.312 120.622 165.709 118.685 166.496 116.812C167.315 114.939 168.462 113.285 169.936 111.851C171.411 110.386 173.198 109.234 175.296 108.396C177.394 107.526 179.742 107.094 182.338 107.1C184.966 107.107 187.233 107.518 189.139 108.336C191.044 109.153 192.605 110.25 193.821 111.628C195.037 112.975 195.94 114.54 196.529 116.322C197.118 118.105 197.41 119.981 197.404 121.95Z" fill="white"/>
<path d="M228.11 93.0081C227.85 96.2263 227.638 99.3976 227.472 102.522C227.306 105.616 227.141 108.725 226.975 111.849C228.352 111.79 229.713 111.747 231.058 111.719C232.403 111.659 233.78 111.585 235.188 111.494L235.34 123.495C233.839 123.241 232.354 123.034 230.884 122.875C229.414 122.715 227.975 122.586 226.568 122.489C226.466 125.145 226.396 127.77 226.357 130.364C226.349 132.957 226.341 135.582 226.334 138.239C226.319 142.989 226.352 147.708 226.432 152.395C226.544 157.083 226.717 161.802 226.953 166.553L214.707 166.336C215.135 158.993 215.486 151.666 215.758 144.354C216.061 137.011 216.271 129.62 216.386 122.183C215.072 122.242 213.758 122.317 212.444 122.408C211.13 122.467 209.785 122.542 208.408 122.632L208.816 111.524C210.099 111.621 211.365 111.702 212.617 111.768C213.899 111.802 215.166 111.852 216.417 111.917C216.426 108.792 216.404 105.683 216.351 102.589C216.298 99.4639 216.244 96.3231 216.191 93.1667L228.11 93.0081Z" fill="white"/>
<path d="M270.385 166.283C270.2 165.314 270.031 164.329 269.877 163.329C269.724 162.329 269.602 161.297 269.511 160.234C268.066 162.356 266.341 163.977 264.335 165.097C262.33 166.248 260.138 166.821 257.761 166.815C256.541 166.812 255.29 166.606 254.009 166.197C252.727 165.819 251.556 165.144 250.495 164.173C249.466 163.201 248.61 161.887 247.926 160.229C247.274 158.54 246.952 156.414 246.96 153.851C246.966 151.726 247.285 149.883 247.915 148.322C248.545 146.73 249.363 145.341 250.367 144.156C251.372 142.971 252.501 141.943 253.755 141.071C255.009 140.199 256.247 139.421 257.469 138.736C258.722 138.052 259.913 137.414 261.041 136.823C262.169 136.232 263.093 135.64 263.814 135.048C265.194 133.958 266.386 132.805 267.391 131.588C268.427 130.341 269.26 129.046 269.889 127.704C269.771 125.547 269.541 123.781 269.201 122.405C268.893 120.998 268.474 119.888 267.944 119.074C267.415 118.229 266.76 117.649 265.979 117.335C265.229 116.989 264.369 116.815 263.399 116.813C261.96 116.809 260.739 117.119 259.737 117.741C258.765 118.364 257.965 119.112 257.337 119.986C258.117 120.487 258.71 121.02 259.115 121.584C259.551 122.147 259.878 122.695 260.096 123.227C260.344 123.821 260.483 124.431 260.513 125.056C260.506 127.181 259.891 128.804 258.668 129.926C257.476 131.048 255.941 131.607 254.065 131.603C253.095 131.6 252.204 131.379 251.392 130.94C250.58 130.469 249.862 129.827 249.239 129.013C248.647 128.199 248.181 127.229 247.84 126.103C247.499 124.977 247.331 123.758 247.335 122.446C247.339 121.133 247.64 119.743 248.239 118.276C248.837 116.809 249.796 115.452 251.113 114.205C252.431 112.927 254.123 111.884 256.19 111.076C258.257 110.238 260.761 109.822 263.702 109.829C266.642 109.836 269.159 110.42 271.251 111.582C273.344 112.712 275.06 114.232 276.399 116.141C277.739 118.019 278.702 120.194 279.289 122.664C279.907 125.134 280.213 127.682 280.205 130.307C280.199 132.276 280.177 134.416 280.139 136.729C280.101 139.041 280.078 141.416 280.071 143.853C280.065 145.885 280.074 147.916 280.1 149.947C280.125 151.979 280.182 153.948 280.27 155.854C280.358 157.729 280.478 159.511 280.629 161.199C280.781 162.855 280.98 164.34 281.226 165.653L270.385 166.283ZM269.763 138.813C268.664 140.123 267.487 141.245 266.233 142.179C265.293 142.833 264.274 143.565 263.177 144.375C262.111 145.185 261.107 146.042 260.166 146.946C259.256 147.85 258.487 148.801 257.858 149.8C257.261 150.767 256.961 151.766 256.958 152.797C256.954 154.204 257.294 155.408 257.979 156.409C258.665 157.411 259.633 157.913 260.884 157.916C262.042 157.919 263.075 157.609 263.984 156.986C264.893 156.364 265.693 155.6 266.384 154.695C267.106 153.76 267.703 152.761 268.176 151.7C268.68 150.638 269.073 149.671 269.358 148.796L269.763 138.813Z" fill="white"/>
<path d="M318.273 166.4C318.088 165.43 317.919 164.445 317.766 163.445C317.612 162.445 317.49 161.413 317.399 160.35C315.954 162.472 314.229 164.093 312.223 165.213C310.218 166.364 308.026 166.937 305.649 166.931C304.429 166.928 303.178 166.722 301.897 166.313C300.615 165.935 299.444 165.26 298.384 164.289C297.354 163.317 296.498 162.003 295.815 160.345C295.163 158.656 294.84 156.53 294.848 153.968C294.854 151.843 295.173 150 295.803 148.439C296.433 146.846 297.251 145.458 298.255 144.273C299.26 143.088 300.389 142.059 301.643 141.187C302.897 140.315 304.135 139.537 305.357 138.852C306.61 138.168 307.801 137.53 308.929 136.939C310.057 136.348 310.981 135.757 311.703 135.165C313.082 134.074 314.274 132.921 315.279 131.704C316.315 130.457 317.148 129.162 317.778 127.82C317.659 125.663 317.43 123.897 317.089 122.521C316.781 121.114 316.362 120.004 315.832 119.19C315.303 118.345 314.648 117.765 313.867 117.451C313.117 117.105 312.257 116.931 311.288 116.929C309.849 116.925 308.628 117.235 307.625 117.858C306.653 118.48 305.853 119.228 305.225 120.102C306.006 120.604 306.598 121.136 307.003 121.7C307.44 122.263 307.766 122.811 307.984 123.343C308.232 123.937 308.371 124.547 308.401 125.172C308.394 127.297 307.78 128.921 306.556 130.043C305.364 131.165 303.83 131.723 301.953 131.719C300.983 131.717 300.092 131.496 299.28 131.056C298.468 130.585 297.75 129.943 297.127 129.129C296.535 128.315 296.069 127.345 295.728 126.219C295.387 125.094 295.219 123.874 295.223 122.562C295.227 121.249 295.528 119.859 296.127 118.392C296.726 116.925 297.684 115.568 299.001 114.321C300.319 113.043 302.011 112 304.078 111.193C306.145 110.354 308.649 109.938 311.59 109.945C314.53 109.952 317.047 110.537 319.139 111.698C321.232 112.828 322.948 114.348 324.287 116.257C325.627 118.136 326.59 120.31 327.177 122.78C327.796 125.25 328.101 127.798 328.093 130.423C328.087 132.392 328.065 134.532 328.027 136.845C327.989 139.157 327.966 141.532 327.959 143.97C327.953 146.001 327.963 148.032 327.988 150.064C328.013 152.095 328.07 154.064 328.158 155.97C328.246 157.845 328.366 159.627 328.518 161.315C328.669 162.972 328.868 164.456 329.114 165.77L318.273 166.4ZM317.651 138.929C316.552 140.239 315.376 141.361 314.121 142.295C313.181 142.949 312.162 143.681 311.065 144.491C309.999 145.301 308.995 146.158 308.054 147.062C307.144 147.966 306.375 148.917 305.746 149.916C305.149 150.883 304.849 151.882 304.846 152.914C304.842 154.32 305.182 155.524 305.868 156.526C306.553 157.527 307.521 158.03 308.772 158.033C309.93 158.035 310.963 157.725 311.872 157.103C312.781 156.48 313.581 155.716 314.272 154.812C314.994 153.876 315.592 152.877 316.064 151.816C316.568 150.755 316.962 149.787 317.246 148.912L317.651 138.929Z" fill="white"/>
<path d="M360.888 93.3303C360.629 96.5485 360.416 99.7199 360.25 102.844C360.085 105.938 359.919 109.047 359.753 112.172C361.13 112.112 362.491 112.069 363.836 112.041C365.181 111.982 366.558 111.907 367.966 111.816L368.118 123.817C366.617 123.563 365.132 123.357 363.662 123.197C362.192 123.037 360.754 122.908 359.346 122.811C359.245 125.467 359.174 128.092 359.135 130.686C359.127 133.28 359.12 135.905 359.112 138.561C359.098 143.311 359.131 148.03 359.211 152.717C359.322 157.405 359.495 162.124 359.732 166.875L347.485 166.658C347.914 159.315 348.264 151.988 348.536 144.676C348.839 137.333 349.049 129.943 349.165 122.505C347.851 122.565 346.537 122.64 345.222 122.73C343.908 122.789 342.563 122.864 341.186 122.955L341.595 111.846C342.877 111.943 344.144 112.024 345.395 112.09C346.677 112.124 347.944 112.174 349.195 112.24C349.204 109.115 349.182 106.005 349.129 102.911C349.076 99.7861 349.023 96.6453 348.969 93.4889L360.888 93.3303Z" fill="white"/>
<path d="M36.9042 165.435C34.1826 165.429 31.9772 165.439 30.2878 165.466C28.6297 165.525 27.3157 165.584 26.3457 165.644C25.2193 165.735 24.3901 165.811 23.8581 165.873C24.1135 164.123 24.338 162.264 24.5316 160.296C24.7252 158.296 24.9033 156.266 25.0658 154.203C25.2284 152.141 25.3596 150.095 25.4595 148.064C25.5593 146.033 25.6433 144.095 25.7113 142.252C25.8494 137.908 25.9405 133.565 25.9847 129.221C25.9663 124.877 25.9006 120.674 25.7875 116.611C25.73 114.892 25.6571 113.111 25.5687 111.267C25.4805 109.392 25.3764 107.563 25.2566 105.782C25.1367 104 24.9854 102.297 24.8025 100.671C24.6509 99.0457 24.4676 97.5765 24.2525 96.2634L27.3025 96.2708C28.9918 96.2749 30.4464 96.2628 31.6665 96.2346C32.8867 96.175 33.9036 96.115 34.7171 96.0545C35.6558 95.9942 36.4537 95.918 37.1109 95.8259C36.9452 98.9505 36.7951 102.091 36.6606 105.247C36.5574 108.403 36.4702 111.418 36.3991 114.293C36.3281 117.137 36.2735 119.746 36.2351 122.121C36.1968 124.496 36.1753 126.48 36.1705 128.074C37.1714 128.139 38.141 128.172 39.0795 128.175C40.018 128.177 40.9408 128.179 41.848 128.181C43.8188 128.186 45.555 128.159 47.0568 128.1C48.5899 128.01 49.8571 127.92 50.8584 127.828C50.8589 127.641 50.8453 126.969 50.8174 125.813C50.821 124.625 50.8097 123.141 50.7837 121.359C50.7578 119.578 50.7011 117.578 50.6139 115.359C50.5579 113.14 50.4707 110.89 50.3524 108.608C50.234 106.327 50.0842 104.123 49.9028 101.998C49.7215 99.8409 49.4925 97.9497 49.2158 96.324L52.2189 96.3313C53.8143 96.3352 55.1907 96.3229 56.3483 96.2944C57.5372 96.2348 58.5228 96.1747 59.305 96.1141C60.2124 96.0538 60.979 95.9776 61.6049 95.8853C61.5051 97.9164 61.4051 99.9786 61.305 102.072C61.2363 104.135 61.1677 106.181 61.0991 108.212C61.0619 110.212 61.0248 112.165 60.9878 114.072C60.951 115.946 60.9144 117.728 60.8781 119.415C60.8039 123.352 60.7613 127.149 60.7505 130.805C60.7397 134.43 60.76 138.118 60.8114 141.868C60.838 143.462 60.8643 145.15 60.8903 146.931C60.9163 148.681 60.9423 150.478 60.9681 152.322C61.0253 154.134 61.0825 155.947 61.1396 157.76C61.2281 159.573 61.3168 161.323 61.4056 163.011C58.7779 163.004 56.6506 163.03 55.0237 163.089C53.397 163.116 52.1299 163.16 51.2225 163.22C50.1586 163.311 49.3607 163.388 48.8287 163.449C49.1159 161.543 49.3566 159.512 49.5507 157.357C49.7448 155.201 49.9077 153.014 50.0394 150.795C50.2024 148.577 50.3184 146.39 50.3873 144.234C50.4876 142.078 50.5718 140.062 50.6399 138.187C49.1388 138.027 47.7001 137.93 46.3238 137.896C44.9476 137.83 43.6338 137.795 42.3825 137.792C41.0687 137.789 39.8799 137.802 38.8162 137.83C37.7838 137.859 36.8921 137.904 36.1411 137.965C36.1361 139.652 36.146 141.605 36.1707 143.824C36.1954 146.043 36.2354 148.371 36.2907 150.809C36.3774 153.215 36.4639 155.684 36.5502 158.216C36.6367 160.716 36.7546 163.123 36.9042 165.435Z" stroke="black" stroke-width="16.0176" mask="url(#path-12-outside-1_1679_9797)"/>
<path d="M94.2678 166.606C91.1709 166.598 88.4982 165.92 86.2499 164.571C84.0328 163.222 82.1928 161.342 80.7296 158.932C79.2978 156.523 78.2427 153.661 77.5643 150.346C76.8859 147.032 76.5526 143.422 76.5642 139.516C76.5776 134.985 76.9966 130.829 77.8212 127.05C78.6458 123.271 79.8442 120.024 81.4163 117.309C83.0198 114.594 84.9812 112.489 87.3006 110.995C89.6513 109.469 92.3438 108.71 95.3782 108.717C98.4439 108.725 101.085 109.372 103.303 110.659C105.52 111.945 107.344 113.746 108.777 116.062C110.24 118.379 111.311 121.147 111.99 124.367C112.668 127.588 113.002 131.135 112.99 135.01C112.984 137.01 112.853 139.182 112.596 141.525C112.37 143.868 111.972 146.211 111.402 148.554C110.863 150.896 110.137 153.16 109.223 155.345C108.309 157.499 107.162 159.418 105.78 161.103C104.399 162.787 102.753 164.126 100.842 165.122C98.9616 166.117 96.7704 166.612 94.2678 166.606ZM101.692 131.514C101.699 129.139 101.596 127.014 101.383 125.138C101.169 123.232 100.814 121.621 100.318 120.308C99.8524 118.994 99.2453 117.993 98.4966 117.303C97.7792 116.583 96.9044 116.221 95.8721 116.219C94.7459 116.216 93.6962 116.807 92.7229 117.992C91.7497 119.177 90.8843 120.894 90.1268 123.142C89.4007 125.391 88.8138 128.139 88.3662 131.388C87.9499 134.606 87.7358 138.246 87.7237 142.309C87.7159 144.934 87.834 147.293 88.0781 149.388C88.3222 151.451 88.6924 153.217 89.1885 154.687C89.6848 156.126 90.2915 157.237 91.0087 158.02C91.7572 158.772 92.632 159.149 93.633 159.151C94.6341 159.154 95.5268 158.75 96.3113 157.939C97.0958 157.097 97.7717 155.974 98.339 154.569C98.9375 153.164 99.4429 151.54 99.855 149.697C100.299 147.823 100.648 145.871 100.905 143.841C101.161 141.779 101.355 139.685 101.486 137.561C101.618 135.436 101.686 133.42 101.692 131.514Z" stroke="black" stroke-width="16.0176" mask="url(#path-12-outside-1_1679_9797)"/>
<path d="M159.817 97.483C159.813 98.7643 159.622 99.967 159.243 101.091C158.896 102.184 158.408 103.136 157.78 103.947C157.184 104.727 156.462 105.35 155.616 105.817C154.802 106.252 153.909 106.469 152.94 106.466C151.97 106.464 151.063 106.306 150.22 105.991C149.407 105.645 148.689 105.206 148.065 104.673C147.441 104.109 146.942 103.467 146.569 102.748C146.227 101.997 146.058 101.215 146.06 100.403C146.06 100.34 146.061 100.137 146.062 99.7934C146.094 99.4185 146.174 98.9656 146.3 98.4346C146.427 97.8724 146.601 97.2791 146.822 96.6546C147.074 95.999 147.436 95.3592 147.907 94.7354C146.374 94.7316 145.168 95.1037 144.29 95.8516C143.412 96.5995 142.752 97.6291 142.31 98.9406C141.9 100.221 141.629 101.751 141.499 103.532C141.4 105.282 141.347 107.157 141.342 109.157L141.331 112.579C143.208 112.584 145.085 112.541 146.963 112.452C148.871 112.332 150.795 112.196 152.735 112.044L152.139 123.199C150.357 122.976 148.559 122.815 146.744 122.717C144.93 122.619 143.116 122.537 141.302 122.47C141.291 126.063 141.296 129.642 141.317 133.204C141.338 136.767 141.359 140.173 141.381 143.423C141.402 146.673 141.409 149.705 141.4 152.517C141.423 155.298 141.432 157.72 141.426 159.783C141.451 161.814 141.462 163.408 141.459 164.564C141.455 165.752 141.453 166.345 141.453 166.345L130.753 166.882C130.916 164.632 131.033 162.133 131.104 159.383C131.175 156.602 131.215 153.664 131.224 150.57C131.231 148.289 131.222 145.961 131.198 143.586C131.173 141.18 131.134 138.789 131.078 136.414C131.023 134.007 130.967 131.648 130.911 129.335C130.856 127.022 130.815 124.788 130.791 122.632C129.821 122.692 128.866 122.768 127.928 122.859C127.02 122.919 126.081 123.011 125.111 123.133L124.675 111.976C125.645 112.072 126.63 112.168 127.631 112.264C128.631 112.329 129.632 112.394 130.633 112.459L130.649 107.209C130.658 104.178 130.963 101.429 131.565 98.9614C132.198 96.4629 133.174 94.3246 134.493 92.5465C135.844 90.7686 137.568 89.3977 139.667 88.4341C141.797 87.4392 144.364 86.9454 147.367 86.9527C149.431 86.9577 151.245 87.2746 152.807 87.9034C154.369 88.5322 155.665 89.3635 156.694 90.3973C157.724 91.3998 158.502 92.5267 159.031 93.778C159.559 95.0293 159.821 96.2643 159.817 97.483Z" stroke="black" stroke-width="16.0176" mask="url(#path-12-outside-1_1679_9797)"/>
<path d="M197.404 121.95C197.399 123.387 197.13 124.605 196.595 125.604C196.06 126.603 195.417 127.413 194.664 128.037C193.911 128.66 193.128 129.111 192.314 129.39C191.5 129.67 190.811 129.809 190.248 129.807C189.685 129.806 189.013 129.71 188.231 129.521C187.45 129.3 186.7 128.924 185.982 128.391C185.295 127.858 184.703 127.153 184.205 126.277C183.707 125.369 183.461 124.228 183.465 122.853C183.498 122.103 183.641 121.369 183.894 120.651C184.114 120.027 184.445 119.387 184.885 118.732C185.356 118.045 186.015 117.437 186.861 116.908C186.3 116.094 185.739 115.468 185.177 115.029C184.615 114.59 184.116 114.261 183.679 114.041C183.147 113.79 182.663 113.632 182.225 113.569C181.256 113.566 180.379 113.767 179.596 114.172C178.813 114.545 178.139 115.059 177.573 115.714C177.04 116.338 176.615 117.071 176.3 117.914C176.016 118.757 175.873 119.632 175.87 120.538C175.866 121.694 175.942 122.741 176.095 123.679C176.249 124.617 176.606 125.571 177.166 126.541C177.726 127.511 178.568 128.56 179.69 129.688C180.813 130.816 182.342 132.132 184.277 133.637C186.212 135.141 187.897 136.614 189.332 138.055C190.767 139.465 191.951 140.858 192.886 142.236C193.82 143.613 194.52 145.005 194.985 146.413C195.45 147.789 195.68 149.227 195.676 150.727C195.673 151.727 195.56 152.82 195.338 154.007C195.147 155.163 194.799 156.35 194.295 157.567C193.822 158.754 193.177 159.908 192.361 161.031C191.575 162.123 190.587 163.105 189.396 163.977C188.236 164.85 186.857 165.534 185.26 166.03C183.695 166.557 181.895 166.819 179.862 166.814C176.796 166.806 174.185 166.347 172.03 165.435C169.874 164.524 168.094 163.426 166.69 162.141C165.318 160.825 164.305 159.448 163.652 158.009C163.031 156.57 162.722 155.303 162.725 154.209C162.729 153.053 162.873 151.975 163.157 150.976C163.442 149.977 163.882 149.103 164.479 148.354C165.107 147.606 165.89 147.03 166.83 146.626C167.801 146.19 168.959 145.974 170.304 145.978C171.43 145.98 172.447 146.155 173.353 146.501C174.29 146.847 175.086 147.364 175.741 148.053C176.428 148.711 176.957 149.525 177.329 150.495C177.702 151.464 177.886 152.559 177.883 153.777C177.85 154.309 177.739 154.855 177.549 155.417C177.392 155.886 177.124 156.401 176.747 156.962C176.37 157.524 175.852 158.054 175.194 158.552C175.631 158.897 176.052 159.164 176.458 159.352C176.896 159.509 177.287 159.62 177.631 159.683C178.006 159.778 178.381 159.826 178.756 159.826C179.163 159.827 179.633 159.719 180.165 159.502C180.729 159.253 181.262 158.879 181.764 158.381C182.266 157.882 182.69 157.274 183.036 156.556C183.382 155.838 183.557 154.979 183.56 153.979C183.563 152.979 183.472 152.072 183.286 151.259C183.133 150.415 182.775 149.555 182.215 148.679C181.686 147.771 180.907 146.785 179.877 145.72C178.848 144.655 177.491 143.37 175.807 141.866C174.122 140.362 172.625 138.905 171.315 137.496C170.005 136.055 168.899 134.568 167.997 133.034C167.125 131.501 166.457 129.89 165.993 128.201C165.529 126.513 165.3 124.653 165.306 122.622C165.312 120.622 165.709 118.685 166.496 116.812C167.315 114.939 168.462 113.285 169.936 111.851C171.411 110.386 173.198 109.234 175.296 108.396C177.394 107.526 179.742 107.094 182.338 107.1C184.966 107.107 187.233 107.518 189.139 108.336C191.044 109.153 192.605 110.25 193.821 111.628C195.037 112.975 195.94 114.54 196.529 116.322C197.118 118.105 197.41 119.981 197.404 121.95Z" stroke="black" stroke-width="16.0176" mask="url(#path-12-outside-1_1679_9797)"/>
<path d="M228.11 93.0081C227.85 96.2263 227.638 99.3976 227.472 102.522C227.306 105.616 227.141 108.725 226.975 111.849C228.352 111.79 229.713 111.747 231.058 111.719C232.403 111.659 233.78 111.585 235.188 111.494L235.34 123.495C233.839 123.241 232.354 123.034 230.884 122.875C229.414 122.715 227.975 122.586 226.568 122.489C226.466 125.145 226.396 127.77 226.357 130.364C226.349 132.957 226.341 135.582 226.334 138.239C226.319 142.989 226.352 147.708 226.432 152.395C226.544 157.083 226.717 161.802 226.953 166.553L214.707 166.336C215.135 158.993 215.486 151.666 215.758 144.354C216.061 137.011 216.271 129.62 216.386 122.183C215.072 122.242 213.758 122.317 212.444 122.408C211.13 122.467 209.785 122.542 208.408 122.632L208.816 111.524C210.099 111.621 211.365 111.702 212.617 111.768C213.899 111.802 215.166 111.852 216.417 111.917C216.426 108.792 216.404 105.683 216.351 102.589C216.298 99.4639 216.244 96.3231 216.191 93.1667L228.11 93.0081Z" stroke="black" stroke-width="16.0176" mask="url(#path-12-outside-1_1679_9797)"/>
<path d="M270.385 166.283C270.2 165.314 270.031 164.329 269.877 163.329C269.724 162.329 269.602 161.297 269.511 160.234C268.066 162.356 266.341 163.977 264.335 165.097C262.33 166.248 260.138 166.821 257.761 166.815C256.541 166.812 255.29 166.606 254.009 166.197C252.727 165.819 251.556 165.144 250.495 164.173C249.466 163.201 248.61 161.887 247.926 160.229C247.274 158.54 246.952 156.414 246.96 153.851C246.966 151.726 247.285 149.883 247.915 148.322C248.545 146.73 249.363 145.341 250.367 144.156C251.372 142.971 252.501 141.943 253.755 141.071C255.009 140.199 256.247 139.421 257.469 138.736C258.722 138.052 259.913 137.414 261.041 136.823C262.169 136.232 263.093 135.64 263.814 135.048C265.194 133.958 266.386 132.805 267.391 131.588C268.427 130.341 269.26 129.046 269.889 127.704C269.771 125.547 269.541 123.781 269.201 122.405C268.893 120.998 268.474 119.888 267.944 119.074C267.415 118.229 266.76 117.649 265.979 117.335C265.229 116.989 264.369 116.815 263.399 116.813C261.96 116.809 260.739 117.119 259.737 117.741C258.765 118.364 257.965 119.112 257.337 119.986C258.117 120.487 258.71 121.02 259.115 121.584C259.551 122.147 259.878 122.695 260.096 123.227C260.344 123.821 260.483 124.431 260.513 125.056C260.506 127.181 259.891 128.804 258.668 129.926C257.476 131.048 255.941 131.607 254.065 131.603C253.095 131.6 252.204 131.379 251.392 130.94C250.58 130.469 249.862 129.827 249.239 129.013C248.647 128.199 248.181 127.229 247.84 126.103C247.499 124.977 247.331 123.758 247.335 122.446C247.339 121.133 247.64 119.743 248.239 118.276C248.837 116.809 249.796 115.452 251.113 114.205C252.431 112.927 254.123 111.884 256.19 111.076C258.257 110.238 260.761 109.822 263.702 109.829C266.642 109.836 269.159 110.42 271.251 111.582C273.344 112.712 275.06 114.232 276.399 116.141C277.739 118.019 278.702 120.194 279.289 122.664C279.907 125.134 280.213 127.682 280.205 130.307C280.199 132.276 280.177 134.416 280.139 136.729C280.101 139.041 280.078 141.416 280.071 143.853C280.065 145.885 280.074 147.916 280.1 149.947C280.125 151.979 280.182 153.948 280.27 155.854C280.358 157.729 280.478 159.511 280.629 161.199C280.781 162.855 280.98 164.34 281.226 165.653L270.385 166.283ZM269.763 138.813C268.664 140.123 267.487 141.245 266.233 142.179C265.293 142.833 264.274 143.565 263.177 144.375C262.111 145.185 261.107 146.042 260.166 146.946C259.256 147.85 258.487 148.801 257.858 149.8C257.261 150.767 256.961 151.766 256.958 152.797C256.954 154.204 257.294 155.408 257.979 156.409C258.665 157.411 259.633 157.913 260.884 157.916C262.042 157.919 263.075 157.609 263.984 156.986C264.893 156.364 265.693 155.6 266.384 154.695C267.106 153.76 267.703 152.761 268.176 151.7C268.68 150.638 269.073 149.671 269.358 148.796L269.763 138.813Z" stroke="black" stroke-width="16.0176" mask="url(#path-12-outside-1_1679_9797)"/>
<path d="M318.273 166.4C318.088 165.43 317.919 164.445 317.766 163.445C317.612 162.445 317.49 161.413 317.399 160.35C315.954 162.472 314.229 164.093 312.223 165.213C310.218 166.364 308.026 166.937 305.649 166.931C304.429 166.928 303.178 166.722 301.897 166.313C300.615 165.935 299.444 165.26 298.384 164.289C297.354 163.317 296.498 162.003 295.815 160.345C295.163 158.656 294.84 156.53 294.848 153.968C294.854 151.843 295.173 150 295.803 148.439C296.433 146.846 297.251 145.458 298.255 144.273C299.26 143.088 300.389 142.059 301.643 141.187C302.897 140.315 304.135 139.537 305.357 138.852C306.61 138.168 307.801 137.53 308.929 136.939C310.057 136.348 310.981 135.757 311.703 135.165C313.082 134.074 314.274 132.921 315.279 131.704C316.315 130.457 317.148 129.162 317.778 127.82C317.659 125.663 317.43 123.897 317.089 122.521C316.781 121.114 316.362 120.004 315.832 119.19C315.303 118.345 314.648 117.765 313.867 117.451C313.117 117.105 312.257 116.931 311.288 116.929C309.849 116.925 308.628 117.235 307.625 117.858C306.653 118.48 305.853 119.228 305.225 120.102C306.006 120.604 306.598 121.136 307.003 121.7C307.44 122.263 307.766 122.811 307.984 123.343C308.232 123.937 308.371 124.547 308.401 125.172C308.394 127.297 307.78 128.921 306.556 130.043C305.364 131.165 303.83 131.723 301.953 131.719C300.983 131.717 300.092 131.496 299.28 131.056C298.468 130.585 297.75 129.943 297.127 129.129C296.535 128.315 296.069 127.345 295.728 126.219C295.387 125.094 295.219 123.874 295.223 122.562C295.227 121.249 295.528 119.859 296.127 118.392C296.726 116.925 297.684 115.568 299.001 114.321C300.319 113.043 302.011 112 304.078 111.193C306.145 110.354 308.649 109.938 311.59 109.945C314.53 109.952 317.047 110.537 319.139 111.698C321.232 112.828 322.948 114.348 324.287 116.257C325.627 118.136 326.59 120.31 327.177 122.78C327.796 125.25 328.101 127.798 328.093 130.423C328.087 132.392 328.065 134.532 328.027 136.845C327.989 139.157 327.966 141.532 327.959 143.97C327.953 146.001 327.963 148.032 327.988 150.064C328.013 152.095 328.07 154.064 328.158 155.97C328.246 157.845 328.366 159.627 328.518 161.315C328.669 162.972 328.868 164.456 329.114 165.77L318.273 166.4ZM317.651 138.929C316.552 140.239 315.376 141.361 314.121 142.295C313.181 142.949 312.162 143.681 311.065 144.491C309.999 145.301 308.995 146.158 308.054 147.062C307.144 147.966 306.375 148.917 305.746 149.916C305.149 150.883 304.849 151.882 304.846 152.914C304.842 154.32 305.182 155.524 305.868 156.526C306.553 157.527 307.521 158.03 308.772 158.033C309.93 158.035 310.963 157.725 311.872 157.103C312.781 156.48 313.581 155.716 314.272 154.812C314.994 153.876 315.592 152.877 316.064 151.816C316.568 150.755 316.962 149.787 317.246 148.912L317.651 138.929Z" stroke="black" stroke-width="16.0176" mask="url(#path-12-outside-1_1679_9797)"/>
<path d="M360.888 93.3303C360.629 96.5485 360.416 99.7199 360.25 102.844C360.085 105.938 359.919 109.047 359.753 112.172C361.13 112.112 362.491 112.069 363.836 112.041C365.181 111.982 366.558 111.907 367.966 111.816L368.118 123.817C366.617 123.563 365.132 123.357 363.662 123.197C362.192 123.037 360.754 122.908 359.346 122.811C359.245 125.467 359.174 128.092 359.135 130.686C359.127 133.28 359.12 135.905 359.112 138.561C359.098 143.311 359.131 148.03 359.211 152.717C359.322 157.405 359.495 162.124 359.732 166.875L347.485 166.658C347.914 159.315 348.264 151.988 348.536 144.676C348.839 137.333 349.049 129.943 349.165 122.505C347.851 122.565 346.537 122.64 345.222 122.73C343.908 122.789 342.563 122.864 341.186 122.955L341.595 111.846C342.877 111.943 344.144 112.024 345.395 112.09C346.677 112.124 347.944 112.174 349.195 112.24C349.204 109.115 349.182 106.005 349.129 102.911C349.076 99.7861 349.023 96.6453 348.969 93.4889L360.888 93.3303Z" stroke="black" stroke-width="16.0176" mask="url(#path-12-outside-1_1679_9797)"/>
</g>
<g filter="url(#filter3_d_1679_9797)">
<path d="M6.26123 41.3294L24.0936 23.497L41.9259 41.3294L24.0936 59.1617L6.26123 41.3294Z" fill="#C62222"/>
<path d="M253.197 58.8029C245.69 51.8618 241.912 47.5016 237.258 37.4546C236.658 33.4101 237.506 29.2368 243.465 27.2796C252.549 27.2795 253.197 34.3525 253.197 34.3525C253.197 34.3525 253.845 27.2794 262.929 27.2795C268.888 29.2367 269.736 33.41 269.136 37.4545C264.482 47.5015 260.703 51.8618 253.197 58.8029Z" fill="#C62222"/>
<path d="M364.654 22.236L380.079 41.7799C380.076 47.5233 378.952 49.7086 374.52 51.3706C369.224 52.7132 364.654 47.0434 364.654 47.0434C364.654 47.0434 360.084 52.7133 354.789 51.3707C350.357 49.7087 349.233 47.5234 349.23 41.78L364.654 22.236Z" fill="black"/>
<path d="M359.224 60.7159C362.492 56.0802 363.587 53.0586 364.664 47.1654C365.742 53.0586 366.837 56.0802 370.105 60.7159H359.224Z" fill="black"/>
<path d="M148.85 58.8032H130.201C137.619 54.3008 138.934 50.6529 139.526 43.4532L127.092 49.5932C120.292 44.8847 119.935 42.2006 127.092 37.3133L139.526 43.4532L133.308 28.1037C137.246 20.1327 141.079 20.429 145.742 28.1037L139.526 43.4532L153.513 37.3133C158.965 42.1094 157.759 44.7972 153.513 49.5932L139.526 43.4532C140.656 50.6541 142.269 54.2188 148.85 58.8032Z" fill="black"/>
<path d="M139.526 43.4532C138.934 50.6529 137.619 54.3008 130.201 58.8032H148.85C142.269 54.2188 140.656 50.6541 139.526 43.4532ZM139.526 43.4532L127.092 49.5932C120.292 44.8847 119.935 42.2006 127.092 37.3133L139.526 43.4532ZM139.526 43.4532L145.742 28.1037C141.079 20.429 137.246 20.1327 133.308 28.1037L139.526 43.4532ZM139.526 43.4532L153.513 37.3133C158.965 42.1094 157.759 44.7972 153.513 49.5932L139.526 43.4532Z" stroke="black" stroke-width="2.28824"/>
</g>
<defs>
<filter id="filter0_d_1679_9797" x="130.365" y="0.0584106" width="128.039" height="546.251" filterUnits="userSpaceOnUse" color-interpolation-filters="sRGB">
<feFlood flood-opacity="0" result="BackgroundImageFix"/>
<feColorMatrix in="SourceAlpha" type="matrix" values="0 0 0 0 0 0 0 0 0 0 0 0 0 0 0 0 0 0 127 0" result="hardAlpha"/>
<feOffset dy="8.40476"/>
<feGaussianBlur stdDeviation="4.20238"/>
<feColorMatrix type="matrix" values="0 0 0 0 0 0 0 0 0 0 0 0 0 0 0 0 0 0 0.25 0"/>
<feBlend mode="normal" in2="BackgroundImageFix" result="effect1_dropShadow_1679_9797"/>
<feBlend mode="normal" in="SourceGraphic" in2="effect1_dropShadow_1679_9797" result="shape"/>
</filter>
<filter id="filter1_d_1679_9797" x="28.0723" y="164.978" width="331.031" height="95.2726" filterUnits="userSpaceOnUse" color-interpolation-filters="sRGB">
<feFlood flood-opacity="0" result="BackgroundImageFix"/>
<feColorMatrix in="SourceAlpha" type="matrix" values="0 0 0 0 0 0 0 0 0 0 0 0 0 0 0 0 0 0 127 0" result="hardAlpha"/>
<feOffset dx="-2.28824" dy="2.28824"/>
<feGaussianBlur stdDeviation="5.278"/>
<feColorMatrix type="matrix" values="0 0 0 0 0 0 0 0 0 0 0 0 0 0 0 0 0 0 0.25 0"/>
<feBlend mode="normal" in2="BackgroundImageFix" result="effect1_dropShadow_1679_9797"/>
<feBlend mode="normal" in="SourceGraphic" in2="effect1_dropShadow_1679_9797" result="shape"/>
</filter>
<filter id="filter2_d_1679_9797" x="5.27626" y="78.9438" width="380.125" height="114.696" filterUnits="userSpaceOnUse" color-interpolation-filters="sRGB">
<feFlood flood-opacity="0" result="BackgroundImageFix"/>
<feColorMatrix in="SourceAlpha" type="matrix" values="0 0 0 0 0 0 0 0 0 0 0 0 0 0 0 0 0 0 127 0" result="hardAlpha"/>
<feOffset dy="9.15294"/>
<feGaussianBlur stdDeviation="4.57647"/>
<feColorMatrix type="matrix" values="0 0 0 0 0 0 0 0 0 0 0 0 0 0 0 0 0 0 0.25 0"/>
<feBlend mode="normal" in2="BackgroundImageFix" result="effect1_dropShadow_1679_9797"/>
<feBlend mode="normal" in="SourceGraphic" in2="effect1_dropShadow_1679_9797" result="shape"/>
</filter>
<filter id="filter3_d_1679_9797" x="6.26123" y="21.0919" width="373.818" height="41.9123" filterUnits="userSpaceOnUse" color-interpolation-filters="sRGB">
<feFlood flood-opacity="0" result="BackgroundImageFix"/>
<feColorMatrix in="SourceAlpha" type="matrix" values="0 0 0 0 0 0 0 0 0 0 0 0 0 0 0 0 0 0 127 0" result="hardAlpha"/>
<feOffset dy="2.28824"/>
<feColorMatrix type="matrix" values="0 0 0 0 0 0 0 0 0 0 0 0 0 0 0 0 0 0 0.25 0"/>
<feBlend mode="normal" in2="BackgroundImageFix" result="effect1_dropShadow_1679_9797"/>
<feBlend mode="normal" in="SourceGraphic" in2="effect1_dropShadow_1679_9797" result="shape"/>
</filter>
</defs>
</svg>
