<svg width="340" height="22" fill="none" xmlns="http://www.w3.org/2000/svg"><path d="M331.55 19.37c3.82-3.53 5.74-5.75 8.11-10.87.3-2.06-.13-4.18-3.16-5.18-4.62 0-4.95 3.6-4.95 3.6s-.33-3.6-4.95-3.6c-3.04 1-3.47 3.12-3.16 5.18 2.37 5.12 4.29 7.34 8.1 10.87Z" fill="#fff"/><path d="m310.97 1.58-7.85 9.95c0 2.92.57 4.03 2.83 4.88 2.7.68 5.02-2.2 5.02-2.2s2.33 2.88 5.02 2.2c2.26-.85 2.83-1.96 2.83-4.88l-7.85-9.95Z" fill="#958E7C"/><path d="M313.74 21.17c-1.67-2.36-2.23-3.9-2.77-6.9-.55 3-1.11 4.54-2.77 6.9h5.54Z" fill="#958E7C"/><path d="m0 10.14 9.08-9.08 9.07 9.08-9.07 9.07L0 10.14Z" fill="#fff"/><path d="M36.54 19.61h-9.5c3.78-2.3 4.45-4.15 4.75-7.81l-6.32 3.12c-3.47-2.4-3.65-3.76 0-6.25l6.32 3.13-3.16-7.81c2-4.06 3.95-3.91 6.33 0l-3.17 7.8 7.12-3.12c2.78 2.44 2.16 3.81 0 6.25L31.8 11.8c.58 3.66 1.4 5.48 4.75 7.81Z" fill="#958E7C"/><path d="M31.8 11.8c-.3 3.66-.98 5.52-4.75 7.81h9.49c-3.35-2.33-4.17-4.15-4.75-7.81Zm0 0-6.33 3.12c-3.47-2.4-3.65-3.76 0-6.25l6.32 3.13Zm0 0 3.16-7.81c-2.38-3.91-4.33-4.06-6.33 0l3.16 7.8Zm0 0 7.11-3.13c2.78 2.44 2.16 3.81 0 6.25L31.8 11.8Z" stroke="#958E7C" stroke-width="1.16"/></svg>