<svg width="253" height="52" viewBox="0 0 253 52" fill="none" xmlns="http://www.w3.org/2000/svg">
<g filter="url(#filter0_d_1587_9426)">
<path d="M0.285645 3.95836C43.8956 0.790488 69.6036 0.124144 120.286 3.95836C168.612 9.70892 195.174 9.25945 240.286 3.95836L224 25.3527L240.286 45.1012C195.531 48.4404 165.422 50.1842 120.286 46.2856C72.7312 39.4147 50.3855 40.6714 0.285645 45.1012L15.7142 25.3527L0.285645 3.95836Z" fill="#C62222"/>
</g>
<path d="M22.2357 24.3955L10.3694 8.34221C51.5293 5.35481 74.9076 5.57314 119.28 9.42182L119.289 9.42254L119.297 9.42317C165.62 12.9911 189.372 14.3211 227.73 11.4564L216.769 24.3017L215.796 25.4424L216.797 26.5589L229.797 41.0586C190.23 43.593 162.142 44.1562 120.468 40.8354C77.2534 35.0545 58.4535 34.7323 13.3627 38.2752L22.229 26.4424L22.994 25.4214L22.2357 24.3955Z" stroke="#FFEF60" stroke-width="3.42857"/>
<path d="M77.5709 28.4766C76.8912 28.4766 76.3404 28.4805 75.9185 28.4883C75.5044 28.5039 75.1762 28.5196 74.934 28.5352C74.6527 28.5586 74.4457 28.5782 74.3129 28.5938C74.3754 28.1563 74.4301 27.6914 74.4769 27.1992C74.5238 26.6991 74.5668 26.1913 74.6059 25.6756C74.6449 25.1599 74.6762 24.6482 74.6996 24.1403C74.723 23.6325 74.7426 23.1481 74.7582 22.6871C74.7895 21.6011 74.809 20.515 74.8168 19.429C74.809 18.343 74.7895 17.2921 74.7582 16.2764C74.7426 15.8467 74.723 15.4014 74.6996 14.9404C74.6762 14.4716 74.6488 14.0145 74.6176 13.5692C74.5863 13.1238 74.5473 12.698 74.5004 12.2917C74.4613 11.8855 74.4144 11.5182 74.3597 11.1901H75.1215C75.5434 11.1901 75.9067 11.1862 76.2114 11.1784C76.5162 11.1627 76.7701 11.1471 76.9732 11.1315C77.2076 11.1159 77.4069 11.0963 77.5709 11.0729C77.5319 11.8542 77.4967 12.6394 77.4655 13.4285C77.442 14.2177 77.4225 14.9716 77.4069 15.6904C77.3912 16.4014 77.3795 17.0538 77.3717 17.6476C77.3639 18.2414 77.36 18.7376 77.36 19.136C77.61 19.1516 77.8522 19.1595 78.0866 19.1595C78.321 19.1595 78.5515 19.1595 78.7781 19.1595C79.2703 19.1595 79.7039 19.1516 80.0789 19.136C80.4618 19.1126 80.7782 19.0891 81.0282 19.0657C81.0282 19.0188 81.0243 18.8508 81.0165 18.5618C81.0165 18.2649 81.0126 17.8937 81.0048 17.4484C80.997 17.003 80.9813 16.503 80.9579 15.9483C80.9423 15.3935 80.9188 14.831 80.8876 14.2606C80.8563 13.6903 80.8173 13.1395 80.7704 12.6082C80.7235 12.0691 80.6649 11.5964 80.5946 11.1901H81.3447C81.7431 11.1901 82.0869 11.1862 82.376 11.1784C82.6729 11.1627 82.919 11.1471 83.1143 11.1315C83.3409 11.1159 83.5323 11.0963 83.6886 11.0729C83.6652 11.5807 83.6417 12.0964 83.6183 12.6199C83.6026 13.1356 83.587 13.6473 83.5714 14.1552C83.5636 14.6552 83.5558 15.1435 83.548 15.6201C83.5401 16.0889 83.5323 16.5343 83.5245 16.9562C83.5089 17.9406 83.5011 18.8899 83.5011 19.804C83.5011 20.7104 83.5089 21.6323 83.5245 22.5699C83.5323 22.9684 83.5401 23.3903 83.548 23.8356C83.5558 24.2731 83.5636 24.7224 83.5714 25.1834C83.587 25.6365 83.6026 26.0897 83.6183 26.5429C83.6417 26.996 83.6652 27.4335 83.6886 27.8555C83.0323 27.8555 82.501 27.8633 82.0947 27.8789C81.6884 27.8867 81.372 27.8984 81.1454 27.9141C80.8798 27.9375 80.6805 27.957 80.5477 27.9726C80.618 27.496 80.6766 26.9882 80.7235 26.4491C80.7704 25.91 80.8095 25.3631 80.8407 24.8083C80.8798 24.2536 80.9071 23.7067 80.9228 23.1676C80.9462 22.6285 80.9657 22.1245 80.9813 21.6558C80.6063 21.6167 80.2469 21.5932 79.9031 21.5854C79.5594 21.5698 79.2312 21.562 78.9187 21.562C78.5905 21.562 78.2936 21.5659 78.028 21.5737C77.7702 21.5815 77.5475 21.5932 77.36 21.6089C77.36 22.0308 77.3639 22.5191 77.3717 23.0738C77.3795 23.6286 77.3912 24.2106 77.4069 24.8201C77.4303 25.4217 77.4537 26.0389 77.4772 26.6718C77.5006 27.2968 77.5319 27.8984 77.5709 28.4766Z" fill="white"/>
<path d="M91.4121 29.4727C90.6386 29.4727 89.9706 29.3047 89.408 28.9688C88.8533 28.6328 88.3923 28.164 88.0251 27.5624C87.6657 26.9608 87.4001 26.2459 87.2282 25.4177C87.0563 24.5895 86.9703 23.6871 86.9703 22.7105C86.9703 21.5776 87.0719 20.5384 87.2751 19.593C87.4782 18.6476 87.7751 17.8351 88.1658 17.1553C88.5642 16.4756 89.0525 15.9482 89.6307 15.5732C90.2167 15.1903 90.8886 14.9989 91.6465 14.9989C92.4122 14.9989 93.0724 15.1591 93.6271 15.4794C94.1818 15.7998 94.6389 16.249 94.9983 16.8272C95.3655 17.4054 95.6351 18.0968 95.807 18.9016C95.9789 19.7063 96.0648 20.5931 96.0648 21.5619C96.0648 22.062 96.0336 22.605 95.9711 23.191C95.9164 23.777 95.8187 24.3629 95.6781 24.9489C95.5452 25.5349 95.3655 26.1014 95.139 26.6483C94.9124 27.1874 94.6272 27.6679 94.2834 28.0898C93.9396 28.5117 93.5295 28.8477 93.0529 29.0977C92.5841 29.3477 92.0372 29.4727 91.4121 29.4727ZM93.2404 20.6947C93.2404 20.1009 93.213 19.5696 93.1583 19.1008C93.1036 18.6242 93.0138 18.2218 92.8888 17.8937C92.7716 17.5655 92.6192 17.3155 92.4317 17.1436C92.252 16.9639 92.0332 16.8741 91.7754 16.8741C91.4941 16.8741 91.2324 17.0225 90.9902 17.3194C90.748 17.6163 90.5331 18.046 90.3456 18.6086C90.1659 19.1711 90.0214 19.8587 89.912 20.6712C89.8104 21.476 89.7596 22.3862 89.7596 23.4019C89.7596 24.0582 89.7909 24.6481 89.8534 25.1716C89.9159 25.6873 90.0096 26.1287 90.1347 26.4959C90.2597 26.8553 90.412 27.1327 90.5917 27.328C90.7792 27.5155 90.998 27.6093 91.248 27.6093C91.498 27.6093 91.7207 27.5077 91.916 27.3046C92.1114 27.0936 92.2794 26.8123 92.42 26.4608C92.5684 26.1092 92.6935 25.7029 92.795 25.2419C92.9044 24.7731 92.9903 24.2848 93.0529 23.777C93.1154 23.2613 93.1622 22.7378 93.1935 22.2065C93.2247 21.6752 93.2404 21.1713 93.2404 20.6947Z" fill="white"/>
<path d="M106.415 13.8654C106.415 14.1857 106.368 14.4865 106.275 14.7678C106.189 15.0413 106.068 15.2796 105.911 15.4827C105.763 15.678 105.583 15.8343 105.372 15.9515C105.169 16.0609 104.946 16.1156 104.704 16.1156C104.462 16.1156 104.235 16.0765 104.024 15.9984C103.821 15.9124 103.642 15.8031 103.485 15.6702C103.329 15.5296 103.204 15.3694 103.11 15.1897C103.024 15.0022 102.981 14.8069 102.981 14.6037C102.981 14.5881 102.981 14.5373 102.981 14.4514C102.989 14.3576 103.009 14.2443 103.04 14.1115C103.071 13.9709 103.114 13.8224 103.169 13.6662C103.231 13.5021 103.321 13.3419 103.438 13.1857C103.056 13.1857 102.755 13.2794 102.536 13.4669C102.317 13.6544 102.153 13.9123 102.044 14.2404C101.942 14.5608 101.876 14.9436 101.845 15.389C101.821 15.8265 101.809 16.2953 101.809 16.7953V17.6509C102.278 17.6509 102.747 17.6391 103.216 17.6157C103.692 17.5844 104.173 17.5493 104.657 17.5102L104.517 20.2995C104.071 20.2448 103.622 20.2057 103.169 20.1823C102.716 20.1589 102.263 20.1393 101.809 20.1237C101.809 21.0222 101.813 21.9168 101.821 22.8075C101.829 23.6982 101.837 24.5498 101.845 25.3624C101.852 26.175 101.856 26.9328 101.856 27.636C101.864 28.3314 101.868 28.9369 101.868 29.4526C101.876 29.9604 101.88 30.3589 101.88 30.648C101.88 30.9449 101.88 31.0933 101.88 31.0933L99.2076 31.2339C99.2467 30.6714 99.274 30.0463 99.2897 29.3588C99.3053 28.6634 99.3131 27.929 99.3131 27.1555C99.3131 26.5851 99.3092 26.0031 99.3014 25.4093C99.2936 24.8077 99.2818 24.21 99.2662 23.6162C99.2506 23.0146 99.235 22.4247 99.2193 21.8465C99.2037 21.2683 99.192 20.7097 99.1842 20.1706C98.942 20.1862 98.7037 20.2057 98.4693 20.2292C98.2427 20.2448 98.0083 20.2682 97.7661 20.2995L97.6489 17.5102C97.8911 17.5337 98.1372 17.5571 98.3872 17.5805C98.6373 17.5962 98.8873 17.6118 99.1373 17.6274V16.3148C99.1373 15.5569 99.2115 14.8694 99.36 14.2522C99.5162 13.6271 99.7584 13.0919 100.087 12.6466C100.423 12.2012 100.852 11.8574 101.376 11.6152C101.907 11.3652 102.548 11.2402 103.298 11.2402C103.813 11.2402 104.267 11.3183 104.657 11.4746C105.048 11.6309 105.372 11.8379 105.63 12.0957C105.888 12.3458 106.083 12.627 106.216 12.9395C106.349 13.2521 106.415 13.5607 106.415 13.8654Z" fill="white"/>
<path d="M110.856 14.4425C110.777 15.6144 110.711 16.6809 110.656 17.6419C110.602 18.5951 110.555 19.4897 110.516 20.3257C110.485 21.1617 110.461 21.9626 110.445 22.7283C110.43 23.4939 110.422 24.2714 110.422 25.0605C110.797 24.6464 111.145 24.2049 111.465 23.7362C111.785 23.2596 112.074 22.7712 112.332 22.2712C112.598 21.7633 112.828 21.2477 113.024 20.7242C113.227 20.2007 113.399 19.6851 113.539 19.1772L116.715 19.4585C116.356 20.2163 116.001 20.8883 115.649 21.4743C115.297 22.0602 114.958 22.5759 114.629 23.0213C114.309 23.4588 114.008 23.8299 113.727 24.1346C113.453 24.4393 113.207 24.6894 112.989 24.8847C113.317 24.9941 113.602 25.123 113.844 25.2714C114.086 25.4199 114.286 25.5605 114.442 25.6933C114.629 25.8496 114.786 26.0137 114.911 26.1856C115.059 26.4278 115.176 26.7051 115.262 27.0177C115.356 27.3224 115.434 27.6466 115.497 27.9904C115.567 28.3342 115.633 28.6936 115.696 29.0686C115.766 29.4358 115.852 29.8069 115.954 30.182C116.055 30.557 116.188 30.9281 116.352 31.2953C116.516 31.6547 116.731 31.9985 116.997 32.3267H113.879C113.723 31.9282 113.594 31.5258 113.493 31.1195C113.399 30.7133 113.321 30.346 113.258 30.0179C113.188 29.6351 113.137 29.26 113.106 28.8928C113.035 28.4162 112.899 27.9904 112.696 27.6154C112.61 27.4513 112.5 27.295 112.367 27.1466C112.242 26.9903 112.09 26.8536 111.91 26.7364C111.739 26.6114 111.539 26.5137 111.313 26.4434C111.086 26.3653 110.828 26.3262 110.539 26.3262H110.422C110.422 27.2091 110.426 28.1506 110.434 29.1506C110.449 30.1507 110.477 31.2758 110.516 32.5259L107.609 32.4673C107.68 31.3657 107.742 30.3617 107.797 29.4554C107.851 28.549 107.894 27.7013 107.926 26.9122C107.965 26.1152 107.992 25.3574 108.008 24.6386C108.031 23.9198 108.043 23.1931 108.043 22.4587C108.043 21.904 108.039 21.3336 108.031 20.7476C108.023 20.1538 108.008 19.5327 107.984 18.8842C107.969 18.2279 107.945 17.5325 107.914 16.7981C107.883 16.0559 107.848 15.255 107.809 14.3956L110.856 14.4425Z" fill="white"/>
<path d="M124.046 33.6368C123.999 33.3945 123.956 33.1484 123.917 32.8984C123.878 32.6484 123.847 32.3906 123.823 32.1249C123.464 32.6562 123.034 33.0625 122.534 33.3438C122.034 33.6328 121.487 33.7774 120.893 33.7774C120.589 33.7774 120.276 33.7266 119.956 33.625C119.636 33.5313 119.343 33.3633 119.077 33.1211C118.819 32.8789 118.604 32.5507 118.432 32.1366C118.268 31.7147 118.186 31.1834 118.186 30.5428C118.186 30.0115 118.264 29.5505 118.421 29.1598C118.577 28.7614 118.78 28.4137 119.03 28.1168C119.28 27.8199 119.561 27.5621 119.874 27.3433C120.186 27.1245 120.495 26.9292 120.8 26.7573C121.112 26.5854 121.409 26.4253 121.69 26.2768C121.972 26.1284 122.202 25.9799 122.382 25.8315C122.726 25.558 123.022 25.2689 123.273 24.9642C123.53 24.6517 123.737 24.3274 123.894 23.9915C123.862 23.4524 123.804 23.0109 123.718 22.6672C123.64 22.3156 123.534 22.0382 123.401 21.8351C123.269 21.6241 123.105 21.4796 122.909 21.4014C122.722 21.3155 122.507 21.2725 122.265 21.2725C121.905 21.2725 121.601 21.3506 121.35 21.5069C121.108 21.6632 120.909 21.8507 120.753 22.0694C120.948 22.1945 121.097 22.3273 121.198 22.4679C121.308 22.6086 121.39 22.7453 121.444 22.8781C121.507 23.0266 121.542 23.1789 121.55 23.3352C121.55 23.8665 121.397 24.2727 121.093 24.554C120.796 24.8353 120.413 24.9759 119.944 24.9759C119.702 24.9759 119.479 24.9212 119.276 24.8119C119.073 24.6947 118.893 24.5345 118.737 24.3313C118.589 24.1282 118.471 23.886 118.385 23.6047C118.299 23.3235 118.257 23.0187 118.257 22.6906C118.257 22.3624 118.331 22.0148 118.479 21.6475C118.628 21.2803 118.866 20.9405 119.194 20.6279C119.522 20.3076 119.944 20.0459 120.46 19.8427C120.975 19.6318 121.601 19.5263 122.335 19.5263C123.069 19.5263 123.698 19.6708 124.222 19.9599C124.745 20.2412 125.175 20.6201 125.511 21.0967C125.847 21.5655 126.089 22.1085 126.238 22.7258C126.394 23.343 126.472 23.9798 126.472 24.6361C126.472 25.1283 126.468 25.6635 126.46 26.2416C126.452 26.8198 126.449 27.4136 126.449 28.023C126.449 28.5309 126.452 29.0387 126.46 29.5466C126.468 30.0544 126.484 30.5467 126.507 31.0233C126.531 31.4921 126.562 31.9374 126.601 32.3593C126.64 32.7734 126.691 33.1445 126.753 33.4727L124.046 33.6368ZM123.87 26.769C123.597 27.0972 123.304 27.3785 122.991 27.6128C122.757 27.7769 122.503 27.9605 122.229 28.1637C121.964 28.3668 121.714 28.5817 121.479 28.8083C121.253 29.0348 121.061 29.2731 120.905 29.5232C120.757 29.7654 120.682 30.0154 120.682 30.2732C120.682 30.6248 120.768 30.9256 120.94 31.1756C121.112 31.4256 121.354 31.5507 121.667 31.5507C121.956 31.5507 122.214 31.4725 122.44 31.3163C122.667 31.16 122.866 30.9686 123.038 30.742C123.218 30.5076 123.366 30.2576 123.483 29.9919C123.608 29.7263 123.706 29.4841 123.776 29.2653L123.87 26.769Z" fill="white"/>
<path d="M133.573 34.4283L130.444 34.6627C130.569 33.2641 130.659 31.9163 130.714 30.6194C130.776 29.3146 130.807 28.0098 130.807 26.705C130.807 25.7831 130.792 24.8611 130.76 23.9392C130.737 23.0094 130.69 22.0562 130.62 21.0796L133.257 20.9389C133.241 21.1108 133.229 21.2788 133.222 21.4429C133.214 21.6069 133.21 21.7671 133.21 21.9234C133.483 21.5015 133.78 21.1733 134.101 20.9389C134.429 20.6967 134.733 20.5209 135.015 20.4115C135.335 20.2787 135.659 20.1967 135.987 20.1654C136.558 20.1654 137.046 20.2553 137.452 20.435C137.859 20.6069 138.191 20.8335 138.449 21.1147C138.706 21.3882 138.894 21.6968 139.011 22.0406C139.128 22.3765 139.187 22.7047 139.187 23.025C139.187 23.3532 139.152 23.6852 139.081 24.0212C139.011 24.3572 138.89 24.6619 138.718 24.9353C138.554 25.201 138.331 25.4197 138.05 25.5916C137.777 25.7557 137.437 25.8377 137.03 25.8377C136.624 25.8377 136.304 25.7635 136.069 25.6151C135.835 25.4666 135.655 25.2908 135.53 25.0877C135.413 24.8767 135.335 24.6619 135.296 24.4431C135.265 24.2165 135.249 24.0251 135.249 23.8688C135.249 23.7595 135.269 23.6384 135.308 23.5055C135.347 23.3649 135.405 23.2243 135.483 23.0836C135.562 22.943 135.659 22.8063 135.776 22.6734C135.894 22.5328 136.03 22.4039 136.187 22.2867C136.14 22.2711 136.089 22.2593 136.034 22.2515C135.987 22.2437 135.941 22.2398 135.894 22.2398C135.503 22.2398 135.155 22.3648 134.851 22.6148C134.546 22.857 134.28 23.1969 134.054 23.6345C133.835 24.072 133.651 24.5876 133.503 25.1814C133.362 25.7752 133.257 26.4237 133.186 27.1269C133.225 28.3379 133.28 29.5373 133.35 30.7248C133.421 31.9124 133.495 33.1469 133.573 34.4283Z" fill="white"/>
<path d="M145.743 17.8482C145.68 18.653 145.629 19.446 145.59 20.2273C145.551 21.0008 145.512 21.7782 145.473 22.5595C145.817 22.5439 146.157 22.5322 146.493 22.5244C146.829 22.5087 147.172 22.4892 147.524 22.4658L147.571 25.466C147.196 25.4035 146.825 25.3527 146.457 25.3136C146.09 25.2746 145.731 25.2433 145.379 25.2199C145.356 25.884 145.34 26.5403 145.332 27.1888C145.332 27.8373 145.332 28.4936 145.332 29.1577C145.332 30.3453 145.344 31.5251 145.368 32.697C145.399 33.869 145.446 35.0488 145.508 36.2364L142.449 36.1895C142.551 34.3534 142.633 32.5212 142.695 30.693C142.766 28.8569 142.813 27.0091 142.836 25.1496C142.508 25.1652 142.18 25.1847 141.852 25.2082C141.523 25.2238 141.188 25.2433 140.844 25.2668L140.937 22.4892C141.258 22.5126 141.574 22.5322 141.887 22.5478C142.207 22.5556 142.524 22.5673 142.836 22.583C142.836 21.8017 142.828 21.0243 142.813 20.2508C142.797 19.4694 142.781 18.6842 142.766 17.8951L145.743 17.8482Z" fill="white"/>
<path d="M157.751 33.1424C157.751 33.6034 157.645 34.037 157.434 34.4433C157.223 34.8495 156.938 35.2011 156.579 35.498C156.219 35.7949 155.798 36.0293 155.313 36.2012C154.829 36.3731 154.313 36.459 153.766 36.459C153.399 36.459 153.028 36.4083 152.653 36.3067C152.278 36.2051 151.918 36.0371 151.575 35.8027C151.231 35.5684 150.907 35.2597 150.602 34.8769C150.297 34.494 150.031 34.0253 149.805 33.4705C149.586 32.9158 149.41 32.2673 149.278 31.5251C149.153 30.775 149.09 29.9156 149.09 28.9467C149.09 28.0326 149.153 27.224 149.278 26.5208C149.41 25.8176 149.586 25.2043 149.805 24.6808C150.031 24.1573 150.293 23.7198 150.59 23.3682C150.887 23.0088 151.203 22.7197 151.539 22.5009C151.883 22.2743 152.235 22.1142 152.594 22.0204C152.961 21.9267 153.321 21.8798 153.672 21.8798C154.196 21.8798 154.692 21.9657 155.161 22.1376C155.63 22.3017 156.04 22.5478 156.391 22.876C156.743 23.2041 157.02 23.6104 157.223 24.0948C157.434 24.5714 157.54 25.1222 157.54 25.7473C157.54 26.3098 157.423 26.8802 157.188 27.4583C156.962 28.0287 156.622 28.5717 156.169 29.0874C155.716 29.5952 155.153 30.0601 154.481 30.482C153.817 30.8961 153.051 31.2243 152.184 31.4665C152.231 31.9509 152.297 32.3923 152.383 32.7908C152.477 33.1893 152.59 33.5291 152.723 33.8104C152.864 34.0917 153.024 34.3104 153.204 34.4667C153.391 34.623 153.606 34.7011 153.848 34.7011C154.004 34.6933 154.153 34.6659 154.294 34.6191C154.419 34.58 154.544 34.5175 154.669 34.4315C154.801 34.3456 154.911 34.2206 154.997 34.0565C154.794 33.9628 154.637 33.8417 154.528 33.6932C154.419 33.5448 154.337 33.4041 154.282 33.2713C154.219 33.115 154.184 32.951 154.176 32.7791C154.176 32.404 154.251 32.0993 154.399 31.8649C154.547 31.6305 154.723 31.4469 154.926 31.3141C155.13 31.1813 155.337 31.0914 155.548 31.0446C155.758 30.9899 155.926 30.9625 156.051 30.9625C156.184 30.9625 156.344 30.9899 156.532 31.0446C156.727 31.0993 156.915 31.2047 157.095 31.361C157.274 31.5173 157.427 31.7399 157.552 32.029C157.684 32.3103 157.751 32.6814 157.751 33.1424ZM154.856 25.7707C154.856 25.4894 154.829 25.2238 154.774 24.9738C154.727 24.7159 154.653 24.4933 154.551 24.3058C154.458 24.1182 154.337 23.9698 154.188 23.8604C154.047 23.7432 153.883 23.6846 153.696 23.6846C153.375 23.6846 153.114 23.8331 152.911 24.13C152.707 24.419 152.543 24.8058 152.418 25.2902C152.293 25.7746 152.207 26.3333 152.161 26.9661C152.114 27.599 152.09 28.2592 152.09 28.9467V29.8023C152.489 29.5913 152.856 29.3413 153.192 29.0522C153.536 28.7631 153.829 28.4467 154.071 28.1029C154.321 27.7513 154.512 27.3802 154.645 26.9896C154.786 26.5989 154.856 26.1926 154.856 25.7707Z" fill="white"/>
<path d="M163.632 22.6767L163.561 23.6377C163.819 23.208 164.093 22.8799 164.382 22.6533C164.679 22.4267 164.952 22.2665 165.202 22.1728C165.452 22.079 165.659 22.0282 165.823 22.0204C165.995 22.0126 166.089 22.0087 166.105 22.0087C166.683 22.0087 167.187 22.1415 167.616 22.4072C168.046 22.6728 168.402 23.0596 168.683 23.5674C168.964 24.0675 169.171 24.6808 169.304 25.4074C169.445 26.1262 169.515 26.9427 169.515 27.8568C169.515 28.5287 169.503 29.2163 169.48 29.9195C169.464 30.6148 169.425 31.3102 169.363 32.0056C169.308 32.6931 169.23 33.3651 169.128 34.0214C169.034 34.6777 168.906 35.3027 168.742 35.8965L166.011 35.5684C166.191 34.6386 166.331 33.7713 166.433 32.9666C166.534 32.1618 166.609 31.4587 166.655 30.857C166.71 30.1539 166.741 29.5093 166.749 28.9233C166.749 28.1811 166.726 27.5365 166.679 26.9896C166.632 26.4348 166.546 25.9778 166.421 25.6184C166.304 25.2511 166.14 24.9777 165.929 24.798C165.718 24.6183 165.448 24.5284 165.12 24.5284C164.901 24.5753 164.683 24.7316 164.464 24.9972C164.276 25.2238 164.077 25.5871 163.866 26.0871C163.655 26.5794 163.472 27.2747 163.315 28.1732C163.292 28.7827 163.276 29.3882 163.268 29.9898C163.268 30.5836 163.268 31.2165 163.268 31.8884C163.268 32.4587 163.268 33.0721 163.268 33.7284C163.268 34.3847 163.276 35.1269 163.292 35.9551L160.631 35.8965C160.655 35.0996 160.671 34.2557 160.678 33.3651C160.694 32.4665 160.702 31.4704 160.702 30.3765C160.702 29.2905 160.694 28.1146 160.678 26.8489C160.663 25.5832 160.631 24.1768 160.585 22.6298L163.632 22.6767Z" fill="white"/>
<defs>
<filter id="filter0_d_1587_9426" x="0.285645" y="1.32666" width="252" height="50.6166" filterUnits="userSpaceOnUse" color-interpolation-filters="sRGB">
<feFlood flood-opacity="0" result="BackgroundImageFix"/>
<feColorMatrix in="SourceAlpha" type="matrix" values="0 0 0 0 0 0 0 0 0 0 0 0 0 0 0 0 0 0 127 0" result="hardAlpha"/>
<feOffset dx="12" dy="3.42857"/>
<feColorMatrix type="matrix" values="0 0 0 0 0 0 0 0 0 0 0 0 0 0 0 0 0 0 0.18 0"/>
<feBlend mode="normal" in2="BackgroundImageFix" result="effect1_dropShadow_1587_9426"/>
<feBlend mode="normal" in="SourceGraphic" in2="effect1_dropShadow_1587_9426" result="shape"/>
</filter>
</defs>
</svg>
