<svg width="253" height="52" fill="none" xmlns="http://www.w3.org/2000/svg"><g filter="url(#a)"><path d="M.29 3.96c43.6-3.17 69.31-3.84 120 0 48.32 5.75 74.88 5.3 120 0L224 25.36l16.29 19.74c-44.76 3.34-74.87 5.08-120 1.19-47.56-6.88-69.9-5.62-120-1.19L15.7 25.35.3 3.95Z" fill="#C62222"/></g><path d="M22.24 24.4 10.37 8.34C51.53 5.35 74.9 5.57 119.28 9.42h.02c46.32 3.57 70.07 4.9 108.43 2.04L216.77 24.3l-.97 1.14 1 1.12 13 14.5c-39.57 2.53-67.66 3.1-109.33-.22-43.22-5.79-62.02-6.1-107.1-2.56l8.86-11.84.76-1.02-.75-1.02Z" stroke="#FFEF60" stroke-width="3.43"/><path d="M77.57 28.48h-1.65a38.91 38.91 0 0 0-1.6.11 85.75 85.75 0 0 0 .45-5.9l.05-3.26a133.59 133.59 0 0 0-.12-4.49 68.44 68.44 0 0 0-.2-2.65c-.04-.4-.09-.77-.14-1.1h.76a43.44 43.44 0 0 0 1.85-.06c.24-.01.44-.03.6-.06a227.66 227.66 0 0 0-.16 4.62 220.11 220.11 0 0 0-.05 3.45l.73.02h.69a31.7 31.7 0 0 0 2.25-.1l-.01-.5a65.56 65.56 0 0 0-.13-4.3c-.03-.57-.07-1.12-.12-1.65-.05-.54-.1-1.01-.18-1.42h.75a38.98 38.98 0 0 0 1.77-.06c.23-.01.42-.03.58-.06a1121.54 1121.54 0 0 0-.12 3.09 1914.15 1914.15 0 0 1-.05 2.8 179.91 179.91 0 0 0 .05 8.22l.05 1.36.07 1.32a43.36 43.36 0 0 0-3.14.11 53.76 53.76 0 0 0 .38-4.8l.05-1.51a21.75 21.75 0 0 0-3.62-.05 105.66 105.66 0 0 0 .21 6.87ZM91.41 29.47c-.77 0-1.44-.17-2-.5a4.11 4.11 0 0 1-1.38-1.4 6.88 6.88 0 0 1-.8-2.15 14.85 14.85 0 0 1 .05-5.82c.2-.95.5-1.76.89-2.44.4-.68.88-1.21 1.46-1.59a3.6 3.6 0 0 1 2.02-.57c.76 0 1.42.16 1.98.48A3.9 3.9 0 0 1 95 16.83c.37.58.64 1.27.8 2.07a12.75 12.75 0 0 1 .17 4.3 12.51 12.51 0 0 1-.83 3.45 5.86 5.86 0 0 1-.86 1.44c-.34.42-.75.76-1.23 1-.47.26-1.01.38-1.64.38Zm1.83-8.78c0-.59-.03-1.12-.08-1.59a5.04 5.04 0 0 0-.27-1.2 1.83 1.83 0 0 0-.46-.76.9.9 0 0 0-.65-.27c-.29 0-.55.15-.79.45-.24.3-.46.73-.64 1.29s-.33 1.25-.44 2.06a21.98 21.98 0 0 0-.06 4.5c.07.52.16.96.28 1.33.13.36.28.63.46.83a.9.9 0 0 0 1.32-.02c.2-.22.37-.5.51-.85.15-.35.27-.76.38-1.22.1-.47.19-.96.25-1.46a25.53 25.53 0 0 0 .19-3.09ZM106.42 13.87a2.86 2.86 0 0 1-.5 1.61c-.16.2-.34.35-.55.47-.2.11-.42.17-.67.17-.24 0-.47-.04-.68-.12a1.71 1.71 0 0 1-.91-.8 1.39 1.39 0 0 1-.13-.6v-.15c0-.1.03-.2.06-.34s.07-.29.13-.44c.06-.17.15-.33.27-.48-.38 0-.69.09-.9.28a1.7 1.7 0 0 0-.5.77c-.1.32-.16.7-.2 1.15-.02.44-.03.9-.03 1.4v.86a28.23 28.23 0 0 0 2.85-.14l-.14 2.79c-.45-.06-.9-.1-1.35-.12l-1.36-.06a298.82 298.82 0 0 0 .03 5.24 265.95 265.95 0 0 1 .03 4.1l.01 1.19v.44l-2.67.14a98.44 98.44 0 0 0 .06-7.62 1451.03 1451.03 0 0 0-.09-3.44 20.15 20.15 0 0 0-1.41.13l-.12-2.79.74.07.75.05V16.3c0-.75.07-1.44.22-2.06.16-.62.4-1.16.73-1.6.33-.45.76-.8 1.29-1.03a4.49 4.49 0 0 1 1.92-.38c.51 0 .97.08 1.36.23a2.85 2.85 0 0 1 1.56 1.47c.13.31.2.62.2.93ZM110.86 14.44a316.53 316.53 0 0 0-.34 5.89 149.02 149.02 0 0 0-.1 4.73 12.32 12.32 0 0 0 1.91-2.79 16.16 16.16 0 0 0 1.2-3.1l3.19.29a23.34 23.34 0 0 1-2.1 3.56 12.8 12.8 0 0 1-1.63 1.86 4.14 4.14 0 0 1 1.92 1.3c.15.25.27.53.35.84.1.3.17.63.24.97l.2 1.08c.07.37.15.74.25 1.11.1.38.24.75.4 1.12.17.35.38.7.65 1.03h-3.12c-.16-.4-.29-.8-.39-1.21-.1-.4-.17-.77-.23-1.1-.07-.38-.12-.76-.15-1.13-.08-.47-.21-.9-.41-1.27-.09-.17-.2-.32-.33-.47-.13-.16-.28-.3-.46-.41a2.37 2.37 0 0 0-1.37-.41h-.12l.01 2.82.09 3.38-2.91-.06a796.5 796.5 0 0 0 .32-5.56 85.5 85.5 0 0 0 .1-6.16 108.52 108.52 0 0 0-.12-3.95l-.1-2.4 3.05.04ZM124.05 33.64a20.35 20.35 0 0 1-.23-1.52c-.36.54-.79.94-1.29 1.22a3.22 3.22 0 0 1-2.57.28c-.32-.09-.62-.26-.88-.5a2.8 2.8 0 0 1-.65-.98 4.44 4.44 0 0 1-.24-1.6 3.7 3.7 0 0 1 1.68-3.2c.32-.22.63-.41.93-.58l.89-.48a5.92 5.92 0 0 0 1.58-1.31c.26-.32.47-.64.62-.98a7.44 7.44 0 0 0-.17-1.32 2.53 2.53 0 0 0-.32-.83c-.13-.22-.3-.36-.5-.44-.18-.08-.4-.13-.64-.13-.36 0-.66.08-.91.24-.24.15-.44.34-.6.56a1.74 1.74 0 0 1 .7.8c.06.16.1.3.1.47 0 .53-.15.93-.46 1.21-.3.29-.68.43-1.15.43-.24 0-.46-.06-.66-.17-.2-.12-.39-.28-.54-.48-.15-.2-.27-.44-.35-.73a2.8 2.8 0 0 1 .1-1.96c.14-.36.38-.7.7-1.01.33-.32.75-.58 1.27-.79a4.95 4.95 0 0 1 1.88-.31 3.7 3.7 0 0 1 3.18 1.57c.33.47.57 1 .72 1.63.15.61.23 1.25.23 1.9l-.01 1.61a129.1 129.1 0 0 0 .05 4.78c.02.47.05.92.1 1.34.03.41.08.78.14 1.11l-2.7.17Zm-.18-6.87a5.2 5.2 0 0 1-.88.84l-.76.55c-.27.2-.52.42-.75.65-.23.22-.42.46-.58.71a1.55 1.55 0 0 0 .03 1.65c.18.26.42.38.74.38.29 0 .54-.08.77-.23.23-.16.43-.35.6-.58a6.09 6.09 0 0 0 .74-1.48l.09-2.5ZM133.57 34.43l-3.13.23a86.77 86.77 0 0 0 .18-13.58l2.64-.14a10.08 10.08 0 0 0-.05.98 3.66 3.66 0 0 1 1.8-1.5c.33-.14.65-.22.98-.25.57 0 1.06.09 1.46.26.4.18.74.4 1 .68s.44.59.56.93c.12.34.18.66.18.98 0 .33-.04.67-.1 1-.08.34-.2.64-.37.92a2 2 0 0 1-.67.65c-.27.17-.61.25-1.02.25-.4 0-.73-.08-.96-.22a1.66 1.66 0 0 1-.54-.53c-.12-.21-.2-.43-.23-.65a4.36 4.36 0 0 1-.05-.57 1.94 1.94 0 0 1 .23-.79c.08-.14.18-.27.3-.4.11-.15.25-.28.4-.4a.88.88 0 0 0-.29-.04c-.39 0-.73.12-1.04.37-.3.25-.57.59-.8 1.02-.22.44-.4.96-.55 1.55-.14.6-.24 1.24-.31 1.95.03 1.2.09 2.4.16 3.6l.22 3.7ZM145.74 17.85l-.15 2.38-.12 2.33 1.02-.04 1.03-.05.05 3a18.96 18.96 0 0 0-2.2-.25l-.04 1.97v1.97a137.77 137.77 0 0 0 .18 7.08l-3.06-.05a254.78 254.78 0 0 0 .39-11.04l-.99.06-1 .06.09-2.78a41.4 41.4 0 0 0 1.9.1 120.27 120.27 0 0 0-.07-4.7l2.97-.04ZM157.75 33.14c0 .46-.1.9-.32 1.3-.2.41-.5.76-.85 1.06a4.59 4.59 0 0 1-3.93.8c-.37-.1-.73-.26-1.08-.5a4.49 4.49 0 0 1-.97-.92c-.3-.39-.57-.85-.8-1.41-.21-.55-.39-1.2-.52-1.94a15.82 15.82 0 0 1 0-5c.13-.71.3-1.33.53-1.85.22-.52.48-.96.78-1.31.3-.36.61-.65.95-.87.34-.23.7-.39 1.05-.48a4.35 4.35 0 0 1 2.57.12 3.44 3.44 0 0 1 2.06 1.95 4.52 4.52 0 0 1-.04 3.36 5.6 5.6 0 0 1-1.01 1.64 7.8 7.8 0 0 1-1.69 1.4c-.66.4-1.43.73-2.3.98.05.48.12.92.2 1.32.1.4.21.74.34 1.02.14.28.3.5.48.66.2.15.4.23.65.23.15 0 .3-.03.44-.08.13-.04.25-.1.38-.19a.98.98 0 0 0 .33-.37c-.2-.1-.36-.22-.47-.37a1.5 1.5 0 0 1-.35-.91c0-.38.07-.68.22-.92a1.78 1.78 0 0 1 1.15-.82c.2-.05.38-.08.5-.08.13 0 .3.03.48.08.2.06.38.16.56.32.18.16.34.38.46.67.13.28.2.65.2 1.11Zm-2.9-7.37a3.7 3.7 0 0 0-.3-1.46 1.2 1.2 0 0 0-.36-.45.75.75 0 0 0-.5-.18c-.31 0-.58.15-.78.45-.2.29-.37.68-.5 1.16a9.51 9.51 0 0 0-.25 1.68c-.05.63-.07 1.29-.07 1.98v.85a5.94 5.94 0 0 0 1.98-1.7 4.31 4.31 0 0 0 .79-2.33ZM163.63 22.68l-.07.96c.26-.43.53-.76.82-.99.3-.22.57-.38.82-.48a2.14 2.14 0 0 1 .9-.16c.58 0 1.09.13 1.52.4.43.26.78.65 1.06 1.16.28.5.5 1.11.62 1.84.14.72.21 1.53.21 2.45a63.14 63.14 0 0 1-.15 4.15 27.3 27.3 0 0 1-.23 2.01c-.1.66-.22 1.28-.39 1.88l-2.73-.33a40.6 40.6 0 0 0 .74-6.65c0-.74-.02-1.38-.07-1.93a5.72 5.72 0 0 0-.26-1.37 1.74 1.74 0 0 0-.5-.82 1.2 1.2 0 0 0-.8-.27c-.22.05-.44.2-.66.47-.18.22-.38.59-.6 1.09a9.8 9.8 0 0 0-.55 2.08l-.04 1.82v3.74c0 .65 0 1.4.02 2.23l-2.66-.06a169.08 169.08 0 0 0 .05-9.05c-.02-1.27-.05-2.67-.1-4.22l3.05.05Z" fill="#fff"/><defs><filter id="a" x=".29" y="1.33" width="252" height="50.62" filterUnits="userSpaceOnUse" color-interpolation-filters="sRGB"><feFlood flood-opacity="0" result="BackgroundImageFix"/><feColorMatrix in="SourceAlpha" values="0 0 0 0 0 0 0 0 0 0 0 0 0 0 0 0 0 0 127 0" result="hardAlpha"/><feOffset dx="12" dy="3.43"/><feColorMatrix values="0 0 0 0 0 0 0 0 0 0 0 0 0 0 0 0 0 0 0.18 0"/><feBlend in2="BackgroundImageFix" result="effect1_dropShadow_1587_9426"/><feBlend in="SourceGraphic" in2="effect1_dropShadow_1587_9426" result="shape"/></filter></defs></svg>