<svg width="42" height="21" viewBox="0 0 42 21" fill="none" xmlns="http://www.w3.org/2000/svg">
<path d="M0.256348 10.0501L9.33217 0.974274L18.408 10.0501L9.33217 19.1259L0.256348 10.0501Z" fill="white"/>
<path d="M36.7956 19.5247H27.3037C31.0793 17.2332 31.7484 15.3767 32.0496 11.7124L25.7217 14.8373C22.2607 12.4409 22.079 11.0748 25.7217 8.5874L32.0496 11.7124L28.8854 3.90016C30.8895 -0.156706 32.8401 -0.00591624 35.2133 3.90015L32.0496 11.7124L39.1685 8.5874C41.9436 11.0284 41.3293 12.3964 39.1685 14.8373L32.0496 11.7124C32.6251 15.3773 33.4461 17.1915 36.7956 19.5247Z" fill="#958E7C"/>
<path d="M32.0496 11.7124C31.7484 15.3767 31.0793 17.2332 27.3037 19.5247H36.7956C33.4461 17.1915 32.6251 15.3773 32.0496 11.7124ZM32.0496 11.7124L25.7217 14.8373C22.2607 12.4409 22.079 11.0748 25.7217 8.5874L32.0496 11.7124ZM32.0496 11.7124L35.2133 3.90015C32.8401 -0.00591622 30.8895 -0.156706 28.8854 3.90016L32.0496 11.7124ZM32.0496 11.7124L39.1685 8.5874C41.9436 11.0284 41.3293 12.3964 39.1685 14.8373L32.0496 11.7124Z" stroke="#958E7C" stroke-width="1.1646"/>
</svg>
