<svg width="62" height="65" fill="none" xmlns="http://www.w3.org/2000/svg"><g filter="url(#a)"><mask id="b" fill="#fff"><path fill-rule="evenodd" clip-rule="evenodd" d="M30.15 25.02a12.76 12.76 0 0 0 4.07-9.45c0-6.86-5.2-12.93-11.63-12.93-6.43 0-11.64 6.07-11.64 12.93 0 3.75 1.56 7.11 4.02 9.39A17 17 0 0 0 5.5 40.2v14.94h34V40.2a17 17 0 0 0-9.35-15.18Z"/></mask><path fill-rule="evenodd" clip-rule="evenodd" d="M30.15 25.02a12.76 12.76 0 0 0 4.07-9.45c0-6.86-5.2-12.93-11.63-12.93-6.43 0-11.64 6.07-11.64 12.93 0 3.75 1.56 7.11 4.02 9.39A17 17 0 0 0 5.5 40.2v14.94h34V40.2a17 17 0 0 0-9.35-15.18Z" fill="#3076FF"/><path d="m30.15 25.02-1.05-1.15-1.66 1.52 2 1 .7-1.37Zm-15.18-.06.68 1.39 2.02-1-1.65-1.53-1.05 1.14ZM5.5 55.14H3.95v1.55H5.5v-1.55Zm34 0v1.55h1.55v-1.55H39.5Zm-6.82-39.57c0 3.35-1.4 6.32-3.58 8.3l2.1 2.29a14.3 14.3 0 0 0 4.57-10.6h-3.1ZM22.58 4.19c5.41 0 10.1 5.2 10.1 11.38h3.1c0-7.54-5.74-14.48-13.2-14.48v3.1ZM12.5 15.57c0-6.19 4.68-11.38 10.09-11.38V1.1C15.14 1.1 9.4 8.03 9.4 15.57h3.1Zm3.52 8.25a11.22 11.22 0 0 1-3.52-8.25H9.4c0 4.18 1.74 7.95 4.51 10.53l2.1-2.28ZM7.05 40.2c0-6.07 3.5-11.33 8.6-13.85l-1.37-2.78A18.55 18.55 0 0 0 3.95 40.2h3.1Zm0 14.94V40.2h-3.1v14.94h3.1ZM39.5 53.6h-34v3.1h34v-3.1ZM37.95 40.2v14.94h3.1V40.2h-3.1Zm-8.5-13.8a15.45 15.45 0 0 1 8.5 13.8h3.1c0-7.24-4.16-13.51-10.2-16.57l-1.4 2.77Z" fill="#000" mask="url(#b)"/><mask id="c" fill="#fff"><path fill-rule="evenodd" clip-rule="evenodd" d="M47.15 26.02a12.76 12.76 0 0 0 4.07-9.45c0-6.86-5.2-12.93-11.63-12.93-6.43 0-11.64 6.07-11.64 12.93 0 3.75 1.56 7.11 4.02 9.39A17 17 0 0 0 22.5 41.2v14.94h34V41.2a17 17 0 0 0-9.35-15.18Z"/></mask><path fill-rule="evenodd" clip-rule="evenodd" d="M47.15 26.02a12.76 12.76 0 0 0 4.07-9.45c0-6.86-5.2-12.93-11.63-12.93-6.43 0-11.64 6.07-11.64 12.93 0 3.75 1.56 7.11 4.02 9.39A17 17 0 0 0 22.5 41.2v14.94h34V41.2a17 17 0 0 0-9.35-15.18Z" fill="#3076FF"/><path d="m47.15 26.02-1.05-1.15-1.66 1.52 2.01 1 .7-1.37Zm-15.18-.06.68 1.39 2.02-1-1.65-1.53-1.05 1.14ZM22.5 56.14h-1.55v1.55h1.55v-1.55Zm34 0v1.55h1.55v-1.55H56.5Zm-6.82-39.57c0 3.35-1.4 6.32-3.58 8.3l2.1 2.29a14.3 14.3 0 0 0 4.57-10.6h-3.1ZM39.58 5.19c5.41 0 10.1 5.2 10.1 11.38h3.1c0-7.54-5.74-14.48-13.2-14.48v3.1ZM29.5 16.57c0-6.19 4.69-11.38 10.09-11.38V2.1c-7.45 0-13.19 6.94-13.19 14.48h3.1Zm3.52 8.25a11.22 11.22 0 0 1-3.52-8.25h-3.1c0 4.18 1.74 7.95 4.51 10.53l2.1-2.28ZM24.05 41.2c0-6.07 3.5-11.33 8.6-13.85l-1.37-2.78A18.55 18.55 0 0 0 20.95 41.2h3.1Zm0 14.94V41.2h-3.1v14.94h3.1ZM56.5 54.6h-34v3.1h34v-3.1ZM54.95 41.2v14.94h3.1V41.2h-3.1Zm-8.5-13.8a15.45 15.45 0 0 1 8.5 13.8h3.1c0-7.24-4.16-13.51-10.2-16.57l-1.4 2.77Z" fill="#000" mask="url(#c)"/></g><defs><filter id="a" x="0" y="0" width="61.6" height="64.14" filterUnits="userSpaceOnUse" color-interpolation-filters="sRGB"><feFlood flood-opacity="0" result="BackgroundImageFix"/><feColorMatrix in="SourceAlpha" values="0 0 0 0 0 0 0 0 0 0 0 0 0 0 0 0 0 0 127 0" result="hardAlpha"/><feOffset dy="4"/><feGaussianBlur stdDeviation="2"/><feComposite in2="hardAlpha" operator="out"/><feColorMatrix values="0 0 0 0 0 0 0 0 0 0 0 0 0 0 0 0 0 0 0.25 0"/><feBlend in2="BackgroundImageFix" result="effect1_dropShadow_1421_12530"/><feBlend in="SourceGraphic" in2="effect1_dropShadow_1421_12530" result="shape"/></filter></defs></svg>