<svg width="243" height="54" viewBox="0 0 243 54" fill="none" xmlns="http://www.w3.org/2000/svg">
<mask id="path-1-outside-1_1484_8929" maskUnits="userSpaceOnUse" x="-0.289062" y="0.0544891" width="244" height="34" fill="black">
<rect fill="white" x="-0.289062" y="0.0544891" width="244" height="34"/>
<path d="M8.61164 27.0205C7.58351 26.9999 6.69567 26.7588 5.9481 26.2971C5.21092 25.8357 4.59842 25.2002 4.11061 24.3906C3.63318 23.5812 3.28043 22.6237 3.05235 21.5181C2.82428 20.4125 2.71047 19.2105 2.71094 17.9121C2.71148 16.4059 2.84698 15.0272 3.11745 13.7757C3.38791 12.5243 3.78294 11.4519 4.30252 10.5586C4.83248 9.66555 5.48181 8.97742 6.25048 8.49423C7.02955 8.00086 7.92276 7.76426 8.93012 7.78444C9.94786 7.80483 10.8253 8.03535 11.5625 8.47599C12.2997 8.91664 12.907 9.52607 13.3845 10.3043C13.8723 11.0827 14.2302 12.0092 14.4583 13.0836C14.6864 14.1581 14.8002 15.3393 14.7998 16.6273C14.7995 17.2921 14.7577 18.0132 14.6744 18.7906C14.6014 19.5681 14.4713 20.3446 14.2841 21.1199C14.1072 21.8954 13.8681 22.6437 13.5667 23.3647C13.2653 24.0754 12.886 24.7066 12.4288 25.2584C11.9717 25.8102 11.4263 26.2459 10.7927 26.5656C10.1695 26.8855 9.44245 27.0371 8.61164 27.0205ZM11.046 15.3991C11.0462 14.6097 11.0101 13.9027 10.9377 13.278C10.8652 12.6429 10.746 12.1056 10.58 11.666C10.4243 11.2266 10.222 10.8901 9.9728 10.6566C9.73402 10.4129 9.44328 10.2877 9.10057 10.2808C8.72671 10.2733 8.37874 10.4637 8.05666 10.852C7.73458 11.2402 7.44878 11.8058 7.19927 12.5487C6.96014 13.2918 6.76769 14.202 6.62191 15.2794C6.48652 16.3465 6.41858 17.5553 6.41809 18.9056C6.41778 19.7782 6.45904 20.5632 6.54187 21.2608C6.6247 21.948 6.74911 22.5374 6.9151 23.0289C7.08109 23.5101 7.28347 23.8829 7.52223 24.1474C7.77138 24.4016 8.06212 24.5321 8.39444 24.5388C8.72677 24.5454 9.02279 24.4163 9.28252 24.1515C9.54225 23.8762 9.76566 23.5067 9.95276 23.0431C10.1502 22.5796 10.3166 22.0428 10.4518 21.4326C10.5974 20.8123 10.7119 20.1654 10.7952 19.4919C10.8786 18.808 10.9411 18.1133 10.9829 17.4078C11.0247 16.7023 11.0457 16.0328 11.046 15.3991Z"/>
<path d="M31.6529 3.207C31.4129 6.23527 31.2301 9.24392 31.1044 12.2329C30.9787 15.2116 30.9153 18.2174 30.9142 21.2505C30.9135 23.276 30.9439 25.3073 31.0055 27.3444L27.4538 27.3356L27.5639 24.2528C27.1483 25.0235 26.7223 25.6122 26.2859 26.019C25.8496 26.4257 25.4497 26.7294 25.0861 26.9298C24.6602 27.1602 24.2396 27.292 23.8242 27.3252C23.2945 27.3146 22.7597 27.1533 22.2198 26.8412C21.6799 26.5292 21.192 26.0001 20.7561 25.2538C20.3202 24.5076 19.9622 23.5188 19.6823 22.2875C19.4023 21.0458 19.2627 19.4953 19.2634 17.636C19.2638 16.4103 19.3369 15.3315 19.4826 14.3996C19.6283 13.4573 19.826 12.6406 20.0755 11.9497C20.3249 11.2587 20.6159 10.6829 20.9484 10.2221C21.2913 9.75116 21.6549 9.37411 22.0393 9.09097C22.434 8.80803 22.8443 8.60851 23.2701 8.49239C23.696 8.37627 24.1166 8.32237 24.532 8.3307C24.8124 8.35709 25.1135 8.43064 25.4354 8.55134C25.7054 8.66063 26.0117 8.82257 26.3543 9.03718C26.7074 9.24161 27.0656 9.54482 27.4289 9.94682C27.3674 7.63961 27.2748 5.34217 27.151 3.05449L31.6529 3.207ZM27.6281 19.0501C27.6288 17.0453 27.5984 15.0348 27.5368 13.0184C27.4227 12.8499 27.2981 12.676 27.1631 12.4968C27.0386 12.3177 26.8984 12.1539 26.7427 12.0053C26.587 11.8464 26.4209 11.7184 26.2444 11.6214C26.0679 11.5244 25.8809 11.4739 25.6836 11.4699C25.3928 11.4641 25.0968 11.5621 24.7956 11.7638C24.5047 11.9553 24.2398 12.298 24.0008 12.7918C23.7617 13.2752 23.5642 13.9256 23.4081 14.7431C23.2624 15.5608 23.1893 16.5928 23.1889 17.8393C23.1885 18.9923 23.2401 19.9489 23.3436 20.7093C23.4472 21.4696 23.5872 22.0801 23.7636 22.5407C23.94 22.9909 24.1424 23.3117 24.3708 23.5033C24.5992 23.6844 24.8432 23.7776 25.1028 23.7828C25.4975 23.7907 25.835 23.6676 26.1155 23.4136C26.4064 23.1493 26.6454 22.8321 26.8324 22.4619C27.0299 22.0919 27.191 21.7108 27.3158 21.3186C27.4405 20.916 27.5445 20.5753 27.6277 20.2965L27.6281 19.0501Z"/>
<path d="M47.5436 23.5624C47.5434 24.1752 47.403 24.7489 47.1224 25.2834C46.8418 25.8179 46.4626 26.2778 45.9847 26.6629C45.5069 27.048 44.946 27.3484 44.302 27.564C43.6581 27.7797 42.9726 27.8802 42.2456 27.8656C41.7575 27.8559 41.2643 27.7785 40.7658 27.6334C40.2674 27.4884 39.7898 27.2555 39.3329 26.9348C38.8761 26.614 38.4453 26.1951 38.0404 25.678C37.6356 25.1609 37.2827 24.5306 36.9818 23.7871C36.6913 23.0437 36.4579 22.1769 36.2817 21.1866C36.1159 20.1861 36.0333 19.0418 36.0337 17.7538C36.0342 16.5385 36.1176 15.4651 36.2841 14.5336C36.461 13.6023 36.695 12.7916 36.986 12.1015C37.2874 11.4116 37.6355 10.8368 38.0303 10.3773C38.4252 9.90742 38.8459 9.53151 39.2926 9.24962C39.7496 8.95754 40.217 8.75397 40.6948 8.63889C41.1829 8.52402 41.6607 8.47127 42.128 8.48063C42.8238 8.49457 43.4832 8.62204 44.1062 8.86304C44.7293 9.09365 45.2744 9.43177 45.7415 9.8774C46.2087 10.323 46.5772 10.8705 46.847 11.52C47.1271 12.1592 47.2671 12.8943 47.2668 13.7253C47.2665 14.4731 47.1104 15.2283 46.7986 15.9907C46.4972 16.7429 46.0452 17.4558 45.4426 18.1293C44.84 18.7924 44.0921 19.3954 43.1987 19.9385C42.3158 20.4713 41.2979 20.8872 40.145 21.1861C40.2071 21.8313 40.2952 22.42 40.4092 22.952C40.5337 23.4843 40.6841 23.9391 40.8605 24.3166C41.0473 24.6943 41.2601 24.9894 41.4989 25.2019C41.748 25.4147 42.0336 25.5243 42.3555 25.5307C42.5632 25.5245 42.7606 25.4921 42.9475 25.4335C43.1137 25.3849 43.2799 25.3051 43.4461 25.1942C43.6227 25.0835 43.7681 24.9202 43.8824 24.7043C43.6125 24.5743 43.4048 24.4091 43.2595 24.2089C43.1142 24.0086 43.0052 23.8194 42.9326 23.6414C42.8496 23.432 42.8029 23.2129 42.7926 22.9842C42.7928 22.4856 42.8916 22.0825 43.089 21.7748C43.2865 21.4672 43.5202 21.2277 43.7903 21.0566C44.0604 20.8854 44.3356 20.7714 44.616 20.7147C44.8965 20.6476 45.1197 20.6158 45.2859 20.6191C45.4625 20.6226 45.6753 20.6633 45.9246 20.741C46.1842 20.8189 46.4333 20.9641 46.6721 21.1766C46.9109 21.3891 47.1133 21.6892 47.2793 22.0769C47.4558 22.4544 47.5438 22.9495 47.5436 23.5624ZM43.6995 13.685C43.6996 13.311 43.6634 12.9571 43.5908 12.6233C43.5286 12.2793 43.4301 11.9813 43.2952 11.7293C43.1706 11.4775 43.0097 11.2769 42.8125 11.1275C42.6256 10.968 42.4075 10.8857 42.1583 10.8807C41.7325 10.8722 41.3845 11.0626 41.1144 11.4519C40.8442 11.8308 40.6259 12.3406 40.4595 12.9813C40.2932 13.6219 40.1786 14.3623 40.116 15.2024C40.0534 16.0426 40.022 16.9196 40.0216 17.8337L40.0212 18.9711C40.551 18.7013 41.0392 18.3787 41.4859 18.0033C41.943 17.6281 42.3325 17.2152 42.6547 16.7646C42.9871 16.3039 43.2418 15.8156 43.4185 15.2998C43.6056 14.7841 43.6993 14.2459 43.6995 13.685Z"/>
<path d="M56.2433 27.7254L52.0839 27.9537C52.2507 26.0977 52.3708 24.3083 52.4441 22.5855C52.5278 20.8525 52.57 19.1186 52.5706 17.384C52.5711 16.1583 52.5507 14.9322 52.5096 13.7057C52.4789 12.4689 52.4171 11.2005 52.3241 9.90019L55.8291 9.78343C55.8083 10.0115 55.7926 10.2345 55.7821 10.4525C55.7717 10.6704 55.7664 10.8832 55.7663 11.091C56.13 10.5373 56.5248 10.109 56.9507 9.8059C57.387 9.49264 57.7921 9.26704 58.166 9.12911C58.5919 8.96105 59.0229 8.86062 59.4591 8.82781C60.2172 8.843 60.8662 8.97545 61.4062 9.22518C61.9461 9.46451 62.3874 9.77458 62.7299 10.1554C63.0725 10.5258 63.3216 10.9411 63.4772 11.4012C63.6328 11.851 63.7106 12.2888 63.7104 12.7147C63.7103 13.151 63.6634 13.5915 63.5697 14.0363C63.4761 14.4811 63.315 14.8829 63.0864 15.2419C62.8682 15.5907 62.5721 15.8756 62.1982 16.0966C61.8346 16.3075 61.3828 16.4075 60.8428 16.3967C60.3028 16.3859 59.877 16.2787 59.5655 16.0751C59.254 15.8715 59.0153 15.633 58.8492 15.3596C58.6935 15.076 58.5898 14.7883 58.538 14.4964C58.4965 14.1943 58.4758 13.9394 58.4759 13.7317C58.476 13.5863 58.502 13.4258 58.554 13.2502C58.606 13.0643 58.6839 12.8789 58.7878 12.694C58.8918 12.5091 59.0216 12.3299 59.1775 12.1565C59.3333 11.9726 59.5151 11.8049 59.7229 11.6532C59.6606 11.6312 59.5931 11.6143 59.5204 11.6024C59.4581 11.5908 59.3958 11.5844 59.3335 11.5831C58.8142 11.5727 58.352 11.7297 57.9469 12.0539C57.5417 12.3678 57.1885 12.8126 56.8871 13.3882C56.5961 13.9641 56.3518 14.6448 56.1542 15.4302C55.967 16.2159 55.8265 17.0752 55.7327 18.0082C55.784 19.6193 55.8562 21.2152 55.9491 22.7959C56.042 24.3766 56.14 26.0198 56.2433 27.7254Z"/>
<path d="M83.21 28.5149C82.1819 28.4943 81.294 28.2531 80.5464 27.7915C79.8093 27.3301 79.1968 26.6946 78.709 25.885C78.2315 25.0756 77.8788 24.1181 77.6507 23.0125C77.4226 21.9069 77.3088 20.7049 77.3093 19.4065C77.3098 17.9003 77.4453 16.5215 77.7158 15.2701C77.9863 14.0186 78.3813 12.9463 78.9009 12.053C79.4308 11.1599 80.0801 10.4718 80.8488 9.9886C81.6279 9.49523 82.5211 9.25863 83.5285 9.27881C84.5462 9.2992 85.4237 9.52972 86.1609 9.97036C86.898 10.411 87.5054 11.0204 87.9828 11.7987C88.4706 12.5771 88.8286 13.5035 89.0567 14.578C89.2848 15.6525 89.3986 16.8337 89.3981 18.1217C89.3979 18.7865 89.3561 19.5076 89.2727 20.2849C89.1997 21.0625 89.0696 21.839 88.8824 22.6143C88.7056 23.3898 88.4665 24.138 88.165 24.8591C87.8636 25.5698 87.4843 26.201 87.0272 26.7528C86.57 27.3045 86.0246 27.7403 85.391 28.06C84.7678 28.3799 84.0408 28.5315 83.21 28.5149ZM85.6443 16.8935C85.6446 16.1041 85.6085 15.397 85.536 14.7723C85.4636 14.1373 85.3443 13.5999 85.1783 13.1603C85.0227 12.721 84.8203 12.3845 84.5711 12.151C84.3324 11.9073 84.0416 11.782 83.6989 11.7752C83.325 11.7677 82.9771 11.9581 82.655 12.3463C82.3329 12.7346 82.0471 13.3002 81.7976 14.0431C81.5585 14.7862 81.366 15.6964 81.2203 16.7737C81.0849 17.8409 81.0169 19.0497 81.0164 20.4C81.0161 21.2725 81.0574 22.0576 81.1402 22.7552C81.223 23.4424 81.3475 24.0318 81.5134 24.5233C81.6794 25.0045 81.8818 25.3773 82.1206 25.6417C82.3697 25.896 82.6605 26.0265 82.9928 26.0331C83.3251 26.0398 83.6211 25.9107 83.8809 25.6458C84.1406 25.3706 84.364 25.0011 84.5511 24.5374C84.7486 24.074 84.9149 23.5371 85.0502 22.927C85.1958 22.3067 85.3103 21.6598 85.3936 20.9863C85.4769 20.3024 85.5395 19.6077 85.5813 18.9022C85.6231 18.1967 85.6441 17.5271 85.6443 16.8935Z"/>
<path d="M98.3044 10.6655L98.2105 11.9412C98.5534 11.3768 98.917 10.9478 99.3014 10.6543C99.6961 10.361 100.06 10.1553 100.392 10.0373C100.724 9.91932 101 9.85732 101.218 9.8513C101.446 9.84549 101.571 9.84279 101.592 9.84321C102.36 9.85861 103.03 10.0486 103.601 10.4132C104.172 10.7778 104.644 11.3015 105.018 11.9841C105.392 12.6564 105.667 13.4773 105.843 14.4468C106.029 15.4062 106.122 16.4935 106.122 17.7088C106.122 18.6021 106.106 19.5159 106.074 20.4501C106.053 21.3742 106.001 22.2976 105.917 23.2204C105.844 24.133 105.74 25.0242 105.605 25.894C105.48 26.7641 105.308 27.5916 105.09 28.3767L101.461 27.8677C101.7 26.6364 101.887 25.4872 102.023 24.42C102.158 23.3528 102.257 22.4199 102.32 21.6214C102.393 20.688 102.434 19.8319 102.445 19.053C102.445 18.0663 102.415 17.2087 102.353 16.4803C102.291 15.7416 102.176 15.1317 102.01 14.6505C101.855 14.1592 101.637 13.7913 101.357 13.5468C101.076 13.3022 100.718 13.1756 100.282 13.1669C99.9911 13.2234 99.7002 13.4253 99.4093 13.7726C99.16 14.0689 98.895 14.5466 98.6143 15.2057C98.3337 15.8545 98.0893 16.7741 97.8812 17.9644C97.8497 18.774 97.8287 19.5786 97.818 20.3782C97.8177 21.1676 97.8174 22.009 97.8171 22.9023C97.8168 23.6606 97.8165 24.476 97.8162 25.3485C97.8159 26.221 97.8259 27.208 97.8463 28.3095L94.3102 28.1607C94.3417 27.1019 94.3629 25.9805 94.3737 24.7965C94.3949 23.6024 94.4058 22.2782 94.4063 20.824C94.4068 19.3802 94.397 17.8167 94.3768 16.1336C94.3567 14.4505 94.3158 12.5799 94.2542 10.522L98.3044 10.6655Z"/>
<path d="M115.202 4.30417C115.139 5.57016 115.081 6.74277 115.029 7.822C114.977 8.90123 114.93 9.91824 114.888 10.873C114.856 11.828 114.83 12.7364 114.809 13.5981C114.788 14.4598 114.767 15.3112 114.746 16.1521C114.735 16.9933 114.724 17.8396 114.714 18.6912C114.713 19.5429 114.713 20.4362 114.713 21.371C114.712 22.4098 114.712 23.5212 114.711 24.7053C114.711 25.8895 114.721 27.2037 114.741 28.6479L111.205 28.4992C111.268 26.9319 111.31 25.3903 111.331 23.8742C111.353 22.3477 111.364 20.7846 111.364 19.185C111.365 18.1151 111.36 17.0191 111.35 15.8971C111.34 14.7647 111.325 13.5854 111.304 12.3593C111.284 11.1228 111.259 9.82392 111.228 8.46258C111.208 7.10144 111.182 5.6571 111.152 4.12955L115.202 4.30417Z"/>
<path d="M124.525 6.59437C124.525 6.92676 124.463 7.24232 124.338 7.54105C124.213 7.82939 124.042 8.08045 123.824 8.29421C123.605 8.50797 123.346 8.67935 123.044 8.80835C122.754 8.92718 122.442 8.98326 122.11 8.9766C121.777 8.96994 121.461 8.90127 121.16 8.7706C120.869 8.62974 120.614 8.44806 120.396 8.22556C120.178 8.00306 120.002 7.74503 119.867 7.45149C119.743 7.14776 119.68 6.82971 119.681 6.49732C119.681 6.16493 119.743 5.85456 119.868 5.56621C120.003 5.26769 120.18 5.01155 120.398 4.79778C120.616 4.58402 120.87 4.41773 121.161 4.29891C121.462 4.16991 121.779 4.10874 122.111 4.11539C122.444 4.12205 122.755 4.19581 123.046 4.33667C123.347 4.46735 123.607 4.64394 123.825 4.86644C124.043 5.08894 124.214 5.35205 124.339 5.65577C124.463 5.94911 124.525 6.26197 124.525 6.59437ZM124.523 11.3153C124.44 12.1343 124.367 13.0209 124.304 13.9753C124.252 14.9195 124.205 15.8898 124.163 16.8861C124.132 17.8826 124.105 18.8845 124.084 19.8916C124.063 20.8988 124.047 21.8593 124.036 22.7731C124.026 23.687 124.015 24.5437 124.004 25.3433C124.004 26.1328 124.004 26.8131 124.004 27.3844L124.003 29.1451L120.467 29.1989C120.488 28.4826 120.498 27.7868 120.499 27.1117C120.499 26.4365 120.499 25.7613 120.499 25.0862C120.5 23.9124 120.49 22.7696 120.47 21.6578C120.449 20.5355 120.413 19.413 120.362 18.2901C120.321 17.1675 120.264 16.0289 120.192 14.8745C120.119 13.7201 120.031 12.5238 119.928 11.2856L124.523 11.3153Z"/>
<path d="M133.661 11.3737L133.567 12.6495C133.91 12.0851 134.273 11.6561 134.658 11.3625C135.052 11.0692 135.416 10.8636 135.748 10.7456C136.081 10.6276 136.356 10.5656 136.574 10.5596C136.803 10.5538 136.927 10.5511 136.948 10.5515C137.716 10.5669 138.386 10.7569 138.957 11.1215C139.528 11.4861 140.001 12.0097 140.374 12.6924C140.748 13.3646 141.023 14.1856 141.199 15.1551C141.386 16.1145 141.479 17.2018 141.478 18.4171C141.478 19.3104 141.462 20.2242 141.431 21.1584C141.409 22.0824 141.357 23.0058 141.274 23.9286C141.201 24.8413 141.097 25.7325 140.961 26.6023C140.836 27.4723 140.665 28.2999 140.446 29.0849L136.817 28.576C137.056 27.3447 137.243 26.1954 137.379 25.1283C137.514 24.0611 137.613 23.1282 137.676 22.3296C137.749 21.3963 137.791 20.5401 137.801 19.7613C137.802 18.7745 137.771 17.917 137.709 17.1886C137.647 16.4499 137.533 15.8399 137.367 15.3588C137.211 14.8675 136.993 14.4995 136.713 14.255C136.433 14.0105 136.074 13.8839 135.638 13.8751C135.347 13.9316 135.057 14.1336 134.766 14.4809C134.516 14.7771 134.251 15.2548 133.971 15.914C133.69 16.5628 133.446 17.4823 133.238 18.6727C133.206 19.4823 133.185 20.2869 133.174 21.0865C133.174 21.8759 133.174 22.7173 133.173 23.6106C133.173 24.3688 133.173 25.1842 133.173 26.0568C133.172 26.9293 133.182 27.9163 133.203 29.0177L129.667 28.869C129.698 27.8101 129.719 26.6887 129.73 25.5048C129.751 24.3107 129.762 22.9865 129.763 21.5323C129.763 20.0885 129.753 18.525 129.733 16.8419C129.713 15.1587 129.672 13.2882 129.611 11.2303L133.661 11.3737Z"/>
<path d="M157.623 25.7675C157.623 26.3803 157.482 26.954 157.202 27.4885C156.921 28.0231 156.542 28.4829 156.064 28.868C155.586 29.2532 155.025 29.5536 154.381 29.7692C153.737 29.9848 153.052 30.0853 152.325 30.0708C151.837 30.061 151.344 29.9836 150.845 29.8386C150.347 29.6936 149.869 29.4607 149.412 29.1399C148.955 28.8191 148.525 28.4002 148.12 27.8831C147.715 27.366 147.362 26.7357 147.061 25.9922C146.771 25.2489 146.537 24.3821 146.361 23.3917C146.195 22.3912 146.113 21.247 146.113 19.959C146.113 18.7437 146.197 17.6703 146.363 16.7387C146.54 15.8074 146.774 14.9967 147.065 14.3066C147.367 13.6167 147.715 13.042 148.11 12.5825C148.504 12.1126 148.925 11.7366 149.372 11.4548C149.829 11.1627 150.296 10.9591 150.774 10.844C151.262 10.7292 151.74 10.6764 152.207 10.6858C152.903 10.6997 153.562 10.8272 154.186 11.0682C154.809 11.2988 155.354 11.6369 155.821 12.0825C156.288 12.5282 156.656 13.0757 156.926 13.7251C157.206 14.3643 157.346 15.0994 157.346 15.9304C157.346 16.6783 157.19 17.4334 156.878 18.1958C156.576 18.9481 156.124 19.6609 155.522 20.3344C154.919 20.9975 154.171 21.6006 153.278 22.1436C152.395 22.6764 151.377 23.0923 150.224 23.3912C150.286 24.0365 150.374 24.6251 150.489 25.1572C150.613 25.6894 150.763 26.1443 150.94 26.5217C151.127 26.8994 151.339 27.1945 151.578 27.4071C151.827 27.6198 152.113 27.7294 152.435 27.7358C152.643 27.7296 152.84 27.6972 153.027 27.6386C153.193 27.59 153.359 27.5103 153.525 27.3993C153.702 27.2886 153.847 27.1253 153.962 26.9095C153.692 26.7794 153.484 26.6143 153.339 26.414C153.193 26.2137 153.084 26.0246 153.012 25.8465C152.929 25.6371 152.882 25.418 152.872 25.1893C152.872 24.6907 152.971 24.2876 153.168 23.9799C153.366 23.6723 153.599 23.4329 153.87 23.2617C154.14 23.0905 154.415 22.9766 154.695 22.9199C154.976 22.8528 155.199 22.8209 155.365 22.8242C155.542 22.8278 155.755 22.8684 156.004 22.9461C156.263 23.024 156.513 23.1692 156.751 23.3817C156.99 23.5943 157.193 23.8944 157.359 24.282C157.535 24.6595 157.623 25.1547 157.623 25.7675ZM153.779 15.8901C153.779 15.5162 153.743 15.1623 153.67 14.8284C153.608 14.4844 153.509 14.1864 153.374 13.9344C153.25 13.6826 153.089 13.482 152.892 13.3327C152.705 13.1731 152.487 13.0908 152.238 13.0858C151.812 13.0773 151.464 13.2677 151.194 13.657C150.923 14.0359 150.705 14.5457 150.539 15.1864C150.372 15.8271 150.258 16.5675 150.195 17.4076C150.133 18.2477 150.101 19.1248 150.101 20.0389L150.1 21.1763C150.63 20.9064 151.118 20.5838 151.565 20.2084C152.022 19.8332 152.412 19.4204 152.734 18.9698C153.066 18.509 153.321 18.0207 153.498 17.5049C153.685 16.9893 153.779 16.451 153.779 15.8901Z"/>
<path d="M176.123 5.52456C176.06 6.79055 176.003 7.96316 175.95 9.04239C175.898 10.1216 175.851 11.1386 175.809 12.0934C175.777 13.0484 175.751 13.9568 175.73 14.8185C175.709 15.6802 175.688 16.5315 175.667 17.3725C175.656 18.2137 175.646 19.06 175.635 19.9115C175.635 20.7633 175.634 21.6566 175.634 22.5914C175.633 23.6302 175.633 24.7416 175.633 25.9257C175.632 27.1099 175.642 28.4241 175.662 29.8683L172.126 29.7196C172.189 28.1523 172.231 26.6107 172.253 25.0946C172.274 23.5681 172.285 22.005 172.285 20.4054C172.286 19.3355 172.281 18.2395 172.271 17.1175C172.261 15.9851 172.246 14.8058 172.226 13.5797C172.205 12.3432 172.18 11.0443 172.149 9.68296C172.129 8.32182 172.103 6.87748 172.073 5.34994L176.123 5.52456Z"/>
<path d="M192.2 26.4602C192.2 27.073 192.06 27.6467 191.779 28.1812C191.499 28.7157 191.119 29.1756 190.641 29.5607C190.164 29.9458 189.603 30.2462 188.959 30.4618C188.315 30.6775 187.629 30.778 186.902 30.7634C186.414 30.7537 185.921 30.6763 185.423 30.5312C184.924 30.3862 184.446 30.1533 183.99 29.8326C183.533 29.5118 183.102 29.0929 182.697 28.5758C182.292 28.0587 181.939 27.4284 181.639 26.6849C181.348 25.9415 181.115 25.0747 180.938 24.0844C180.773 23.0839 180.69 21.9396 180.69 20.6516C180.691 19.4363 180.774 18.3629 180.941 17.4314C181.118 16.5001 181.352 15.6894 181.643 14.9993C181.944 14.3094 182.292 13.7346 182.687 13.2751C183.082 12.8052 183.503 12.4293 183.949 12.1474C184.406 11.8553 184.874 11.6518 185.352 11.5367C185.84 11.4218 186.317 11.3691 186.785 11.3784C187.481 11.3924 188.14 11.5198 188.763 11.7608C189.386 11.9915 189.931 12.3296 190.398 12.7752C190.865 13.2208 191.234 13.7683 191.504 14.4178C191.784 15.057 191.924 15.7921 191.923 16.6231C191.923 17.3709 191.767 18.1261 191.455 18.8885C191.154 19.6407 190.702 20.3536 190.099 21.0271C189.497 21.6902 188.749 22.2932 187.855 22.8363C186.973 23.3691 185.955 23.785 184.802 24.0839C184.864 24.7291 184.952 25.3178 185.066 25.8498C185.19 26.3821 185.341 26.8369 185.517 27.2144C185.704 27.5921 185.917 27.8872 186.156 28.0997C186.405 28.3125 186.69 28.4221 187.012 28.4285C187.22 28.4223 187.417 28.3899 187.604 28.3313C187.77 28.2827 187.937 28.2029 188.103 28.092C188.279 27.9813 188.425 27.818 188.539 27.6021C188.269 27.4721 188.062 27.3069 187.916 27.1066C187.771 26.9064 187.662 26.7172 187.589 26.5392C187.506 26.3298 187.46 26.1107 187.449 25.882C187.45 25.3834 187.548 24.9803 187.746 24.6726C187.943 24.3649 188.177 24.1255 188.447 23.9544C188.717 23.7832 188.992 23.6692 189.273 23.6125C189.553 23.5454 189.776 23.5136 189.943 23.5169C190.119 23.5204 190.332 23.561 190.581 23.6388C190.841 23.7167 191.09 23.8619 191.329 24.0744C191.568 24.2869 191.77 24.587 191.936 24.9747C192.112 25.3522 192.201 25.8473 192.2 26.4602ZM188.356 16.5828C188.356 16.2088 188.32 15.8549 188.248 15.5211C188.185 15.1771 188.087 14.8791 187.952 14.6271C187.827 14.3753 187.666 14.1747 187.469 14.0253C187.282 13.8658 187.064 13.7835 186.815 13.7785C186.389 13.77 186.041 13.9604 185.771 14.3497C185.501 14.7286 185.283 15.2384 185.116 15.8791C184.95 16.5197 184.835 17.2601 184.773 18.1002C184.71 18.9404 184.679 19.8174 184.678 20.7315L184.678 21.8689C185.208 21.5991 185.696 21.2765 186.143 20.9011C186.6 20.5259 186.989 20.113 187.311 19.6624C187.644 19.2017 187.898 18.7134 188.075 18.1976C188.262 17.6819 188.356 17.1437 188.356 16.5828Z"/>
<path d="M207.666 16.0815C207.666 16.5593 207.577 16.9626 207.401 17.2915C207.224 17.6203 207.011 17.8861 206.762 18.0889C206.512 18.2916 206.253 18.437 205.983 18.5251C205.713 18.6132 205.484 18.6554 205.297 18.6516C205.11 18.6479 204.887 18.6122 204.627 18.5447C204.368 18.4668 204.119 18.3372 203.88 18.1558C203.651 17.9746 203.454 17.737 203.288 17.4428C203.122 17.1382 203.039 16.7574 203.039 16.3004C203.05 16.0513 203.097 15.8082 203.18 15.5709C203.253 15.3646 203.362 15.1539 203.507 14.9387C203.663 14.7133 203.881 14.5151 204.162 14.3441C203.975 14.0703 203.788 13.8588 203.601 13.7097C203.414 13.5605 203.248 13.4481 203.103 13.3725C202.926 13.2858 202.765 13.2307 202.62 13.207C202.298 13.2005 202.007 13.2622 201.747 13.3921C201.488 13.5115 201.264 13.6784 201.077 13.8928C200.901 14.097 200.76 14.3383 200.656 14.6167C200.563 14.8953 200.516 15.1852 200.516 15.4864C200.516 15.8707 200.542 16.2192 200.594 16.5319C200.645 16.8445 200.765 17.1637 200.951 17.4895C201.138 17.8152 201.419 18.1688 201.792 18.5502C202.166 18.9317 202.675 19.3781 203.318 19.8896C203.962 20.4011 204.523 20.9005 205 21.3879C205.478 21.8649 205.872 22.335 206.184 22.7983C206.495 23.2616 206.729 23.7285 206.884 24.199C207.04 24.6592 207.117 25.1386 207.117 25.6372C207.117 25.9696 207.081 26.3324 207.008 26.7256C206.945 27.1087 206.831 27.5011 206.665 27.9029C206.509 28.2945 206.296 28.6746 206.026 29.0431C205.766 29.4014 205.439 29.7221 205.044 30.005C204.66 30.2882 204.203 30.5075 203.673 30.6631C203.154 30.8293 202.556 30.9056 201.881 30.8921C200.864 30.8717 199.996 30.7037 199.28 30.3881C198.564 30.0726 197.972 29.6972 197.505 29.2619C197.048 28.8165 196.71 28.3527 196.492 27.8705C196.285 27.3886 196.181 26.9658 196.181 26.6022C196.182 26.2179 196.228 25.8605 196.322 25.53C196.416 25.1995 196.561 24.9115 196.758 24.6662C196.966 24.4211 197.226 24.2341 197.538 24.1053C197.86 23.9663 198.244 23.9013 198.69 23.9103C199.064 23.9178 199.402 23.9816 199.703 24.1019C200.014 24.2224 200.279 24.3991 200.497 24.632C200.726 24.8547 200.902 25.1283 201.026 25.4528C201.151 25.7773 201.213 26.1421 201.213 26.5472C201.203 26.7236 201.166 26.9046 201.104 27.0904C201.052 27.2451 200.963 27.4148 200.839 27.5992C200.714 27.7837 200.543 27.9569 200.325 28.1187C200.47 28.2359 200.61 28.327 200.745 28.392C200.89 28.4468 201.02 28.4858 201.134 28.5088C201.259 28.5425 201.384 28.5606 201.508 28.5631C201.643 28.5658 201.799 28.5325 201.976 28.4634C202.163 28.384 202.339 28.2629 202.505 28.1C202.672 27.9372 202.812 27.7374 202.926 27.5008C203.041 27.2642 203.098 26.9797 203.098 26.6473C203.098 26.3149 203.067 26.0131 203.005 25.7417C202.953 25.4603 202.834 25.1722 202.647 24.8776C202.47 24.5729 202.211 24.2405 201.868 23.8804C201.526 23.5204 201.074 23.0855 200.513 22.5757C199.953 22.0658 199.455 21.5729 199.019 21.0967C198.583 20.6101 198.214 20.1094 197.913 19.5944C197.622 19.0796 197.399 18.5401 197.244 17.9761C197.088 17.4121 197.011 16.7925 197.011 16.1173C197.011 15.4525 197.141 14.8111 197.401 14.1931C197.671 13.5753 198.05 13.0324 198.539 12.5643C199.027 12.0859 199.619 11.7134 200.315 11.4469C201.011 11.17 201.79 11.0402 202.652 11.0575C203.524 11.0749 204.277 11.2251 204.91 11.5078C205.544 11.7906 206.063 12.1645 206.468 12.6297C206.873 13.0844 207.174 13.6098 207.371 14.2059C207.568 14.8019 207.666 15.4271 207.666 16.0815Z"/>
<path d="M223.404 27.0853C223.404 27.6981 223.264 28.2718 222.983 28.8063C222.702 29.3408 222.323 29.8006 221.845 30.1858C221.368 30.5709 220.807 30.8713 220.163 31.0869C219.519 31.3026 218.833 31.4031 218.106 31.3885C217.618 31.3787 217.125 31.3013 216.626 31.1563C216.128 31.0113 215.65 30.7784 215.194 30.4576C214.737 30.1369 214.306 29.7179 213.901 29.2009C213.496 28.6838 213.143 28.0535 212.842 27.3099C212.552 26.5666 212.319 25.6998 212.142 24.7095C211.977 23.709 211.894 22.5647 211.894 21.2767C211.895 20.0614 211.978 18.988 212.145 18.0565C212.322 17.1252 212.556 16.3145 212.847 15.6243C213.148 14.9344 213.496 14.3597 213.891 13.9002C214.286 13.4303 214.707 13.0544 215.153 12.7725C215.61 12.4804 216.078 12.2769 216.555 12.1618C217.044 12.0469 217.521 11.9942 217.989 12.0035C218.684 12.0175 219.344 12.1449 219.967 12.3859C220.59 12.6165 221.135 12.9547 221.602 13.4003C222.069 13.8459 222.438 14.3934 222.708 15.0428C222.988 15.6821 223.128 16.4172 223.127 17.2482C223.127 17.996 222.971 18.7512 222.659 19.5136C222.358 20.2658 221.906 20.9787 221.303 21.6522C220.701 22.3153 219.953 22.9183 219.059 23.4613C218.176 23.9942 217.159 24.4101 216.006 24.709C216.068 25.3542 216.156 25.9429 216.27 26.4749C216.394 27.0072 216.545 27.462 216.721 27.8395C216.908 28.2172 217.121 28.5123 217.36 28.7248C217.609 28.9375 217.894 29.0471 218.216 29.0536C218.424 29.0474 218.621 29.015 218.808 28.9564C218.974 28.9078 219.141 28.828 219.307 28.7171C219.483 28.6063 219.629 28.4431 219.743 28.2272C219.473 28.0972 219.265 27.932 219.12 27.7317C218.975 27.5315 218.866 27.3423 218.793 27.1643C218.71 26.9549 218.664 26.7358 218.653 26.5071C218.653 26.0085 218.752 25.6054 218.95 25.2977C219.147 24.99 219.381 24.7506 219.651 24.5794C219.921 24.4083 220.196 24.2943 220.477 24.2376C220.757 24.1705 220.98 24.1386 221.147 24.142C221.323 24.1455 221.536 24.1861 221.785 24.2638C222.045 24.3417 222.294 24.487 222.533 24.6995C222.772 24.912 222.974 25.2121 223.14 25.5998C223.316 25.9772 223.405 26.4724 223.404 27.0853ZM219.56 17.2079C219.56 16.8339 219.524 16.48 219.451 16.1462C219.389 15.8022 219.291 15.5041 219.156 15.2521C219.031 15.0004 218.87 14.7998 218.673 14.6504C218.486 14.4908 218.268 14.4086 218.019 14.4036C217.593 14.3951 217.245 14.5854 216.975 14.9747C216.705 15.3537 216.487 15.8635 216.32 16.5041C216.154 17.1448 216.039 17.8852 215.977 18.7253C215.914 19.5654 215.883 20.4425 215.882 21.3566L215.882 22.494C216.412 22.2242 216.9 21.9015 217.347 21.5262C217.804 21.151 218.193 20.7381 218.515 20.2875C218.848 19.8268 219.102 19.3385 219.279 18.8226C219.466 18.307 219.56 17.7688 219.56 17.2079Z"/>
<path d="M232.235 13.3484L232.141 14.6242C232.484 14.0597 232.848 13.6307 233.232 13.3372C233.627 13.0439 233.99 12.8382 234.323 12.7202C234.655 12.6023 234.93 12.5403 235.148 12.5342C235.377 12.5284 235.501 12.5257 235.522 12.5261C236.291 12.5415 236.96 12.7315 237.532 13.0961C238.103 13.4607 238.575 13.9844 238.949 14.667C239.322 15.3393 239.597 16.1602 239.773 17.1298C239.96 18.0891 240.053 19.1765 240.053 20.3918C240.052 21.2851 240.036 22.1988 240.005 23.133C239.984 24.0571 239.931 24.9805 239.848 25.9033C239.775 26.8159 239.671 27.7071 239.535 28.577C239.411 29.447 239.239 30.2745 239.021 31.0596L235.391 30.5506C235.63 29.3193 235.818 28.1701 235.953 27.1029C236.089 26.0357 236.188 25.1029 236.25 24.3043C236.323 23.3709 236.365 22.5148 236.376 21.736C236.376 20.7492 236.345 19.8916 236.283 19.1633C236.221 18.4245 236.107 17.8146 235.941 17.3335C235.785 16.8421 235.568 16.4742 235.287 16.2297C235.007 15.9852 234.649 15.8585 234.212 15.8498C233.922 15.9063 233.631 16.1082 233.34 16.4556C233.091 16.7518 232.826 17.2295 232.545 17.8887C232.264 18.5374 232.02 19.457 231.812 20.6474C231.78 21.4569 231.759 22.2615 231.749 23.0611C231.748 23.8506 231.748 24.6919 231.748 25.5852C231.747 26.3435 231.747 27.1589 231.747 28.0314C231.746 28.9039 231.757 29.8909 231.777 30.9924L228.241 30.8437C228.272 29.7848 228.293 28.6634 228.304 27.4794C228.326 26.2853 228.336 24.9612 228.337 23.507C228.337 22.0631 228.328 20.4997 228.307 18.8165C228.287 17.1334 228.246 15.2629 228.185 13.2049L232.235 13.3484Z"/>
</mask>
<path d="M8.61164 27.0205C7.58351 26.9999 6.69567 26.7588 5.9481 26.2971C5.21092 25.8357 4.59842 25.2002 4.11061 24.3906C3.63318 23.5812 3.28043 22.6237 3.05235 21.5181C2.82428 20.4125 2.71047 19.2105 2.71094 17.9121C2.71148 16.4059 2.84698 15.0272 3.11745 13.7757C3.38791 12.5243 3.78294 11.4519 4.30252 10.5586C4.83248 9.66555 5.48181 8.97742 6.25048 8.49423C7.02955 8.00086 7.92276 7.76426 8.93012 7.78444C9.94786 7.80483 10.8253 8.03535 11.5625 8.47599C12.2997 8.91664 12.907 9.52607 13.3845 10.3043C13.8723 11.0827 14.2302 12.0092 14.4583 13.0836C14.6864 14.1581 14.8002 15.3393 14.7998 16.6273C14.7995 17.2921 14.7577 18.0132 14.6744 18.7906C14.6014 19.5681 14.4713 20.3446 14.2841 21.1199C14.1072 21.8954 13.8681 22.6437 13.5667 23.3647C13.2653 24.0754 12.886 24.7066 12.4288 25.2584C11.9717 25.8102 11.4263 26.2459 10.7927 26.5656C10.1695 26.8855 9.44245 27.0371 8.61164 27.0205ZM11.046 15.3991C11.0462 14.6097 11.0101 13.9027 10.9377 13.278C10.8652 12.6429 10.746 12.1056 10.58 11.666C10.4243 11.2266 10.222 10.8901 9.9728 10.6566C9.73402 10.4129 9.44328 10.2877 9.10057 10.2808C8.72671 10.2733 8.37874 10.4637 8.05666 10.852C7.73458 11.2402 7.44878 11.8058 7.19927 12.5487C6.96014 13.2918 6.76769 14.202 6.62191 15.2794C6.48652 16.3465 6.41858 17.5553 6.41809 18.9056C6.41778 19.7782 6.45904 20.5632 6.54187 21.2608C6.6247 21.948 6.74911 22.5374 6.9151 23.0289C7.08109 23.5101 7.28347 23.8829 7.52223 24.1474C7.77138 24.4016 8.06212 24.5321 8.39444 24.5388C8.72677 24.5454 9.02279 24.4163 9.28252 24.1515C9.54225 23.8762 9.76566 23.5067 9.95276 23.0431C10.1502 22.5796 10.3166 22.0428 10.4518 21.4326C10.5974 20.8123 10.7119 20.1654 10.7952 19.4919C10.8786 18.808 10.9411 18.1133 10.9829 17.4078C11.0247 16.7023 11.0457 16.0328 11.046 15.3991Z" fill="white"/>
<path d="M31.6529 3.207C31.4129 6.23527 31.2301 9.24392 31.1044 12.2329C30.9787 15.2116 30.9153 18.2174 30.9142 21.2505C30.9135 23.276 30.9439 25.3073 31.0055 27.3444L27.4538 27.3356L27.5639 24.2528C27.1483 25.0235 26.7223 25.6122 26.2859 26.019C25.8496 26.4257 25.4497 26.7294 25.0861 26.9298C24.6602 27.1602 24.2396 27.292 23.8242 27.3252C23.2945 27.3146 22.7597 27.1533 22.2198 26.8412C21.6799 26.5292 21.192 26.0001 20.7561 25.2538C20.3202 24.5076 19.9622 23.5188 19.6823 22.2875C19.4023 21.0458 19.2627 19.4953 19.2634 17.636C19.2638 16.4103 19.3369 15.3315 19.4826 14.3996C19.6283 13.4573 19.826 12.6406 20.0755 11.9497C20.3249 11.2587 20.6159 10.6829 20.9484 10.2221C21.2913 9.75116 21.6549 9.37411 22.0393 9.09097C22.434 8.80803 22.8443 8.60851 23.2701 8.49239C23.696 8.37627 24.1166 8.32237 24.532 8.3307C24.8124 8.35709 25.1135 8.43064 25.4354 8.55134C25.7054 8.66063 26.0117 8.82257 26.3543 9.03718C26.7074 9.24161 27.0656 9.54482 27.4289 9.94682C27.3674 7.63961 27.2748 5.34217 27.151 3.05449L31.6529 3.207ZM27.6281 19.0501C27.6288 17.0453 27.5984 15.0348 27.5368 13.0184C27.4227 12.8499 27.2981 12.676 27.1631 12.4968C27.0386 12.3177 26.8984 12.1539 26.7427 12.0053C26.587 11.8464 26.4209 11.7184 26.2444 11.6214C26.0679 11.5244 25.8809 11.4739 25.6836 11.4699C25.3928 11.4641 25.0968 11.5621 24.7956 11.7638C24.5047 11.9553 24.2398 12.298 24.0008 12.7918C23.7617 13.2752 23.5642 13.9256 23.4081 14.7431C23.2624 15.5608 23.1893 16.5928 23.1889 17.8393C23.1885 18.9923 23.2401 19.9489 23.3436 20.7093C23.4472 21.4696 23.5872 22.0801 23.7636 22.5407C23.94 22.9909 24.1424 23.3117 24.3708 23.5033C24.5992 23.6844 24.8432 23.7776 25.1028 23.7828C25.4975 23.7907 25.835 23.6676 26.1155 23.4136C26.4064 23.1493 26.6454 22.8321 26.8324 22.4619C27.0299 22.0919 27.191 21.7108 27.3158 21.3186C27.4405 20.916 27.5445 20.5753 27.6277 20.2965L27.6281 19.0501Z" fill="white"/>
<path d="M47.5436 23.5624C47.5434 24.1752 47.403 24.7489 47.1224 25.2834C46.8418 25.8179 46.4626 26.2778 45.9847 26.6629C45.5069 27.048 44.946 27.3484 44.302 27.564C43.6581 27.7797 42.9726 27.8802 42.2456 27.8656C41.7575 27.8559 41.2643 27.7785 40.7658 27.6334C40.2674 27.4884 39.7898 27.2555 39.3329 26.9348C38.8761 26.614 38.4453 26.1951 38.0404 25.678C37.6356 25.1609 37.2827 24.5306 36.9818 23.7871C36.6913 23.0437 36.4579 22.1769 36.2817 21.1866C36.1159 20.1861 36.0333 19.0418 36.0337 17.7538C36.0342 16.5385 36.1176 15.4651 36.2841 14.5336C36.461 13.6023 36.695 12.7916 36.986 12.1015C37.2874 11.4116 37.6355 10.8368 38.0303 10.3773C38.4252 9.90742 38.8459 9.53151 39.2926 9.24962C39.7496 8.95754 40.217 8.75397 40.6948 8.63889C41.1829 8.52402 41.6607 8.47127 42.128 8.48063C42.8238 8.49457 43.4832 8.62204 44.1062 8.86304C44.7293 9.09365 45.2744 9.43177 45.7415 9.8774C46.2087 10.323 46.5772 10.8705 46.847 11.52C47.1271 12.1592 47.2671 12.8943 47.2668 13.7253C47.2665 14.4731 47.1104 15.2283 46.7986 15.9907C46.4972 16.7429 46.0452 17.4558 45.4426 18.1293C44.84 18.7924 44.0921 19.3954 43.1987 19.9385C42.3158 20.4713 41.2979 20.8872 40.145 21.1861C40.2071 21.8313 40.2952 22.42 40.4092 22.952C40.5337 23.4843 40.6841 23.9391 40.8605 24.3166C41.0473 24.6943 41.2601 24.9894 41.4989 25.2019C41.748 25.4147 42.0336 25.5243 42.3555 25.5307C42.5632 25.5245 42.7606 25.4921 42.9475 25.4335C43.1137 25.3849 43.2799 25.3051 43.4461 25.1942C43.6227 25.0835 43.7681 24.9202 43.8824 24.7043C43.6125 24.5743 43.4048 24.4091 43.2595 24.2089C43.1142 24.0086 43.0052 23.8194 42.9326 23.6414C42.8496 23.432 42.8029 23.2129 42.7926 22.9842C42.7928 22.4856 42.8916 22.0825 43.089 21.7748C43.2865 21.4672 43.5202 21.2277 43.7903 21.0566C44.0604 20.8854 44.3356 20.7714 44.616 20.7147C44.8965 20.6476 45.1197 20.6158 45.2859 20.6191C45.4625 20.6226 45.6753 20.6633 45.9246 20.741C46.1842 20.8189 46.4333 20.9641 46.6721 21.1766C46.9109 21.3891 47.1133 21.6892 47.2793 22.0769C47.4558 22.4544 47.5438 22.9495 47.5436 23.5624ZM43.6995 13.685C43.6996 13.311 43.6634 12.9571 43.5908 12.6233C43.5286 12.2793 43.4301 11.9813 43.2952 11.7293C43.1706 11.4775 43.0097 11.2769 42.8125 11.1275C42.6256 10.968 42.4075 10.8857 42.1583 10.8807C41.7325 10.8722 41.3845 11.0626 41.1144 11.4519C40.8442 11.8308 40.6259 12.3406 40.4595 12.9813C40.2932 13.6219 40.1786 14.3623 40.116 15.2024C40.0534 16.0426 40.022 16.9196 40.0216 17.8337L40.0212 18.9711C40.551 18.7013 41.0392 18.3787 41.4859 18.0033C41.943 17.6281 42.3325 17.2152 42.6547 16.7646C42.9871 16.3039 43.2418 15.8156 43.4185 15.2998C43.6056 14.7841 43.6993 14.2459 43.6995 13.685Z" fill="white"/>
<path d="M56.2433 27.7254L52.0839 27.9537C52.2507 26.0977 52.3708 24.3083 52.4441 22.5855C52.5278 20.8525 52.57 19.1186 52.5706 17.384C52.5711 16.1583 52.5507 14.9322 52.5096 13.7057C52.4789 12.4689 52.4171 11.2005 52.3241 9.90019L55.8291 9.78343C55.8083 10.0115 55.7926 10.2345 55.7821 10.4525C55.7717 10.6704 55.7664 10.8832 55.7663 11.091C56.13 10.5373 56.5248 10.109 56.9507 9.8059C57.387 9.49264 57.7921 9.26704 58.166 9.12911C58.5919 8.96105 59.0229 8.86062 59.4591 8.82781C60.2172 8.843 60.8662 8.97545 61.4062 9.22518C61.9461 9.46451 62.3874 9.77458 62.7299 10.1554C63.0725 10.5258 63.3216 10.9411 63.4772 11.4012C63.6328 11.851 63.7106 12.2888 63.7104 12.7147C63.7103 13.151 63.6634 13.5915 63.5697 14.0363C63.4761 14.4811 63.315 14.8829 63.0864 15.2419C62.8682 15.5907 62.5721 15.8756 62.1982 16.0966C61.8346 16.3075 61.3828 16.4075 60.8428 16.3967C60.3028 16.3859 59.877 16.2787 59.5655 16.0751C59.254 15.8715 59.0153 15.633 58.8492 15.3596C58.6935 15.076 58.5898 14.7883 58.538 14.4964C58.4965 14.1943 58.4758 13.9394 58.4759 13.7317C58.476 13.5863 58.502 13.4258 58.554 13.2502C58.606 13.0643 58.6839 12.8789 58.7878 12.694C58.8918 12.5091 59.0216 12.3299 59.1775 12.1565C59.3333 11.9726 59.5151 11.8049 59.7229 11.6532C59.6606 11.6312 59.5931 11.6143 59.5204 11.6024C59.4581 11.5908 59.3958 11.5844 59.3335 11.5831C58.8142 11.5727 58.352 11.7297 57.9469 12.0539C57.5417 12.3678 57.1885 12.8126 56.8871 13.3882C56.5961 13.9641 56.3518 14.6448 56.1542 15.4302C55.967 16.2159 55.8265 17.0752 55.7327 18.0082C55.784 19.6193 55.8562 21.2152 55.9491 22.7959C56.042 24.3766 56.14 26.0198 56.2433 27.7254Z" fill="white"/>
<path d="M83.21 28.5149C82.1819 28.4943 81.294 28.2531 80.5464 27.7915C79.8093 27.3301 79.1968 26.6946 78.709 25.885C78.2315 25.0756 77.8788 24.1181 77.6507 23.0125C77.4226 21.9069 77.3088 20.7049 77.3093 19.4065C77.3098 17.9003 77.4453 16.5215 77.7158 15.2701C77.9863 14.0186 78.3813 12.9463 78.9009 12.053C79.4308 11.1599 80.0801 10.4718 80.8488 9.9886C81.6279 9.49523 82.5211 9.25863 83.5285 9.27881C84.5462 9.2992 85.4237 9.52972 86.1609 9.97036C86.898 10.411 87.5054 11.0204 87.9828 11.7987C88.4706 12.5771 88.8286 13.5035 89.0567 14.578C89.2848 15.6525 89.3986 16.8337 89.3981 18.1217C89.3979 18.7865 89.3561 19.5076 89.2727 20.2849C89.1997 21.0625 89.0696 21.839 88.8824 22.6143C88.7056 23.3898 88.4665 24.138 88.165 24.8591C87.8636 25.5698 87.4843 26.201 87.0272 26.7528C86.57 27.3045 86.0246 27.7403 85.391 28.06C84.7678 28.3799 84.0408 28.5315 83.21 28.5149ZM85.6443 16.8935C85.6446 16.1041 85.6085 15.397 85.536 14.7723C85.4636 14.1373 85.3443 13.5999 85.1783 13.1603C85.0227 12.721 84.8203 12.3845 84.5711 12.151C84.3324 11.9073 84.0416 11.782 83.6989 11.7752C83.325 11.7677 82.9771 11.9581 82.655 12.3463C82.3329 12.7346 82.0471 13.3002 81.7976 14.0431C81.5585 14.7862 81.366 15.6964 81.2203 16.7737C81.0849 17.8409 81.0169 19.0497 81.0164 20.4C81.0161 21.2725 81.0574 22.0576 81.1402 22.7552C81.223 23.4424 81.3475 24.0318 81.5134 24.5233C81.6794 25.0045 81.8818 25.3773 82.1206 25.6417C82.3697 25.896 82.6605 26.0265 82.9928 26.0331C83.3251 26.0398 83.6211 25.9107 83.8809 25.6458C84.1406 25.3706 84.364 25.0011 84.5511 24.5374C84.7486 24.074 84.9149 23.5371 85.0502 22.927C85.1958 22.3067 85.3103 21.6598 85.3936 20.9863C85.4769 20.3024 85.5395 19.6077 85.5813 18.9022C85.6231 18.1967 85.6441 17.5271 85.6443 16.8935Z" fill="white"/>
<path d="M98.3044 10.6655L98.2105 11.9412C98.5534 11.3768 98.917 10.9478 99.3014 10.6543C99.6961 10.361 100.06 10.1553 100.392 10.0373C100.724 9.91932 101 9.85732 101.218 9.8513C101.446 9.84549 101.571 9.84279 101.592 9.84321C102.36 9.85861 103.03 10.0486 103.601 10.4132C104.172 10.7778 104.644 11.3015 105.018 11.9841C105.392 12.6564 105.667 13.4773 105.843 14.4468C106.029 15.4062 106.122 16.4935 106.122 17.7088C106.122 18.6021 106.106 19.5159 106.074 20.4501C106.053 21.3742 106.001 22.2976 105.917 23.2204C105.844 24.133 105.74 25.0242 105.605 25.894C105.48 26.7641 105.308 27.5916 105.09 28.3767L101.461 27.8677C101.7 26.6364 101.887 25.4872 102.023 24.42C102.158 23.3528 102.257 22.4199 102.32 21.6214C102.393 20.688 102.434 19.8319 102.445 19.053C102.445 18.0663 102.415 17.2087 102.353 16.4803C102.291 15.7416 102.176 15.1317 102.01 14.6505C101.855 14.1592 101.637 13.7913 101.357 13.5468C101.076 13.3022 100.718 13.1756 100.282 13.1669C99.9911 13.2234 99.7002 13.4253 99.4093 13.7726C99.16 14.0689 98.895 14.5466 98.6143 15.2057C98.3337 15.8545 98.0893 16.7741 97.8812 17.9644C97.8497 18.774 97.8287 19.5786 97.818 20.3782C97.8177 21.1676 97.8174 22.009 97.8171 22.9023C97.8168 23.6606 97.8165 24.476 97.8162 25.3485C97.8159 26.221 97.8259 27.208 97.8463 28.3095L94.3102 28.1607C94.3417 27.1019 94.3629 25.9805 94.3737 24.7965C94.3949 23.6024 94.4058 22.2782 94.4063 20.824C94.4068 19.3802 94.397 17.8167 94.3768 16.1336C94.3567 14.4505 94.3158 12.5799 94.2542 10.522L98.3044 10.6655Z" fill="white"/>
<path d="M115.202 4.30417C115.139 5.57016 115.081 6.74277 115.029 7.822C114.977 8.90123 114.93 9.91824 114.888 10.873C114.856 11.828 114.83 12.7364 114.809 13.5981C114.788 14.4598 114.767 15.3112 114.746 16.1521C114.735 16.9933 114.724 17.8396 114.714 18.6912C114.713 19.5429 114.713 20.4362 114.713 21.371C114.712 22.4098 114.712 23.5212 114.711 24.7053C114.711 25.8895 114.721 27.2037 114.741 28.6479L111.205 28.4992C111.268 26.9319 111.31 25.3903 111.331 23.8742C111.353 22.3477 111.364 20.7846 111.364 19.185C111.365 18.1151 111.36 17.0191 111.35 15.8971C111.34 14.7647 111.325 13.5854 111.304 12.3593C111.284 11.1228 111.259 9.82392 111.228 8.46258C111.208 7.10144 111.182 5.6571 111.152 4.12955L115.202 4.30417Z" fill="white"/>
<path d="M124.525 6.59437C124.525 6.92676 124.463 7.24232 124.338 7.54105C124.213 7.82939 124.042 8.08045 123.824 8.29421C123.605 8.50797 123.346 8.67935 123.044 8.80835C122.754 8.92718 122.442 8.98326 122.11 8.9766C121.777 8.96994 121.461 8.90127 121.16 8.7706C120.869 8.62974 120.614 8.44806 120.396 8.22556C120.178 8.00306 120.002 7.74503 119.867 7.45149C119.743 7.14776 119.68 6.82971 119.681 6.49732C119.681 6.16493 119.743 5.85456 119.868 5.56621C120.003 5.26769 120.18 5.01155 120.398 4.79778C120.616 4.58402 120.87 4.41773 121.161 4.29891C121.462 4.16991 121.779 4.10874 122.111 4.11539C122.444 4.12205 122.755 4.19581 123.046 4.33667C123.347 4.46735 123.607 4.64394 123.825 4.86644C124.043 5.08894 124.214 5.35205 124.339 5.65577C124.463 5.94911 124.525 6.26197 124.525 6.59437ZM124.523 11.3153C124.44 12.1343 124.367 13.0209 124.304 13.9753C124.252 14.9195 124.205 15.8898 124.163 16.8861C124.132 17.8826 124.105 18.8845 124.084 19.8916C124.063 20.8988 124.047 21.8593 124.036 22.7731C124.026 23.687 124.015 24.5437 124.004 25.3433C124.004 26.1328 124.004 26.8131 124.004 27.3844L124.003 29.1451L120.467 29.1989C120.488 28.4826 120.498 27.7868 120.499 27.1117C120.499 26.4365 120.499 25.7613 120.499 25.0862C120.5 23.9124 120.49 22.7696 120.47 21.6578C120.449 20.5355 120.413 19.413 120.362 18.2901C120.321 17.1675 120.264 16.0289 120.192 14.8745C120.119 13.7201 120.031 12.5238 119.928 11.2856L124.523 11.3153Z" fill="white"/>
<path d="M133.661 11.3737L133.567 12.6495C133.91 12.0851 134.273 11.6561 134.658 11.3625C135.052 11.0692 135.416 10.8636 135.748 10.7456C136.081 10.6276 136.356 10.5656 136.574 10.5596C136.803 10.5538 136.927 10.5511 136.948 10.5515C137.716 10.5669 138.386 10.7569 138.957 11.1215C139.528 11.4861 140.001 12.0097 140.374 12.6924C140.748 13.3646 141.023 14.1856 141.199 15.1551C141.386 16.1145 141.479 17.2018 141.478 18.4171C141.478 19.3104 141.462 20.2242 141.431 21.1584C141.409 22.0824 141.357 23.0058 141.274 23.9286C141.201 24.8413 141.097 25.7325 140.961 26.6023C140.836 27.4723 140.665 28.2999 140.446 29.0849L136.817 28.576C137.056 27.3447 137.243 26.1954 137.379 25.1283C137.514 24.0611 137.613 23.1282 137.676 22.3296C137.749 21.3963 137.791 20.5401 137.801 19.7613C137.802 18.7745 137.771 17.917 137.709 17.1886C137.647 16.4499 137.533 15.8399 137.367 15.3588C137.211 14.8675 136.993 14.4995 136.713 14.255C136.433 14.0105 136.074 13.8839 135.638 13.8751C135.347 13.9316 135.057 14.1336 134.766 14.4809C134.516 14.7771 134.251 15.2548 133.971 15.914C133.69 16.5628 133.446 17.4823 133.238 18.6727C133.206 19.4823 133.185 20.2869 133.174 21.0865C133.174 21.8759 133.174 22.7173 133.173 23.6106C133.173 24.3688 133.173 25.1842 133.173 26.0568C133.172 26.9293 133.182 27.9163 133.203 29.0177L129.667 28.869C129.698 27.8101 129.719 26.6887 129.73 25.5048C129.751 24.3107 129.762 22.9865 129.763 21.5323C129.763 20.0885 129.753 18.525 129.733 16.8419C129.713 15.1587 129.672 13.2882 129.611 11.2303L133.661 11.3737Z" fill="white"/>
<path d="M157.623 25.7675C157.623 26.3803 157.482 26.954 157.202 27.4885C156.921 28.0231 156.542 28.4829 156.064 28.868C155.586 29.2532 155.025 29.5536 154.381 29.7692C153.737 29.9848 153.052 30.0853 152.325 30.0708C151.837 30.061 151.344 29.9836 150.845 29.8386C150.347 29.6936 149.869 29.4607 149.412 29.1399C148.955 28.8191 148.525 28.4002 148.12 27.8831C147.715 27.366 147.362 26.7357 147.061 25.9922C146.771 25.2489 146.537 24.3821 146.361 23.3917C146.195 22.3912 146.113 21.247 146.113 19.959C146.113 18.7437 146.197 17.6703 146.363 16.7387C146.54 15.8074 146.774 14.9967 147.065 14.3066C147.367 13.6167 147.715 13.042 148.11 12.5825C148.504 12.1126 148.925 11.7366 149.372 11.4548C149.829 11.1627 150.296 10.9591 150.774 10.844C151.262 10.7292 151.74 10.6764 152.207 10.6858C152.903 10.6997 153.562 10.8272 154.186 11.0682C154.809 11.2988 155.354 11.6369 155.821 12.0825C156.288 12.5282 156.656 13.0757 156.926 13.7251C157.206 14.3643 157.346 15.0994 157.346 15.9304C157.346 16.6783 157.19 17.4334 156.878 18.1958C156.576 18.9481 156.124 19.6609 155.522 20.3344C154.919 20.9975 154.171 21.6006 153.278 22.1436C152.395 22.6764 151.377 23.0923 150.224 23.3912C150.286 24.0365 150.374 24.6251 150.489 25.1572C150.613 25.6894 150.763 26.1443 150.94 26.5217C151.127 26.8994 151.339 27.1945 151.578 27.4071C151.827 27.6198 152.113 27.7294 152.435 27.7358C152.643 27.7296 152.84 27.6972 153.027 27.6386C153.193 27.59 153.359 27.5103 153.525 27.3993C153.702 27.2886 153.847 27.1253 153.962 26.9095C153.692 26.7794 153.484 26.6143 153.339 26.414C153.193 26.2137 153.084 26.0246 153.012 25.8465C152.929 25.6371 152.882 25.418 152.872 25.1893C152.872 24.6907 152.971 24.2876 153.168 23.9799C153.366 23.6723 153.599 23.4329 153.87 23.2617C154.14 23.0905 154.415 22.9766 154.695 22.9199C154.976 22.8528 155.199 22.8209 155.365 22.8242C155.542 22.8278 155.755 22.8684 156.004 22.9461C156.263 23.024 156.513 23.1692 156.751 23.3817C156.99 23.5943 157.193 23.8944 157.359 24.282C157.535 24.6595 157.623 25.1547 157.623 25.7675ZM153.779 15.8901C153.779 15.5162 153.743 15.1623 153.67 14.8284C153.608 14.4844 153.509 14.1864 153.374 13.9344C153.25 13.6826 153.089 13.482 152.892 13.3327C152.705 13.1731 152.487 13.0908 152.238 13.0858C151.812 13.0773 151.464 13.2677 151.194 13.657C150.923 14.0359 150.705 14.5457 150.539 15.1864C150.372 15.8271 150.258 16.5675 150.195 17.4076C150.133 18.2477 150.101 19.1248 150.101 20.0389L150.1 21.1763C150.63 20.9064 151.118 20.5838 151.565 20.2084C152.022 19.8332 152.412 19.4204 152.734 18.9698C153.066 18.509 153.321 18.0207 153.498 17.5049C153.685 16.9893 153.779 16.451 153.779 15.8901Z" fill="white"/>
<path d="M176.123 5.52456C176.06 6.79055 176.003 7.96316 175.95 9.04239C175.898 10.1216 175.851 11.1386 175.809 12.0934C175.777 13.0484 175.751 13.9568 175.73 14.8185C175.709 15.6802 175.688 16.5315 175.667 17.3725C175.656 18.2137 175.646 19.06 175.635 19.9115C175.635 20.7633 175.634 21.6566 175.634 22.5914C175.633 23.6302 175.633 24.7416 175.633 25.9257C175.632 27.1099 175.642 28.4241 175.662 29.8683L172.126 29.7196C172.189 28.1523 172.231 26.6107 172.253 25.0946C172.274 23.5681 172.285 22.005 172.285 20.4054C172.286 19.3355 172.281 18.2395 172.271 17.1175C172.261 15.9851 172.246 14.8058 172.226 13.5797C172.205 12.3432 172.18 11.0443 172.149 9.68296C172.129 8.32182 172.103 6.87748 172.073 5.34994L176.123 5.52456Z" fill="white"/>
<path d="M192.2 26.4602C192.2 27.073 192.06 27.6467 191.779 28.1812C191.499 28.7157 191.119 29.1756 190.641 29.5607C190.164 29.9458 189.603 30.2462 188.959 30.4618C188.315 30.6775 187.629 30.778 186.902 30.7634C186.414 30.7537 185.921 30.6763 185.423 30.5312C184.924 30.3862 184.446 30.1533 183.99 29.8326C183.533 29.5118 183.102 29.0929 182.697 28.5758C182.292 28.0587 181.939 27.4284 181.639 26.6849C181.348 25.9415 181.115 25.0747 180.938 24.0844C180.773 23.0839 180.69 21.9396 180.69 20.6516C180.691 19.4363 180.774 18.3629 180.941 17.4314C181.118 16.5001 181.352 15.6894 181.643 14.9993C181.944 14.3094 182.292 13.7346 182.687 13.2751C183.082 12.8052 183.503 12.4293 183.949 12.1474C184.406 11.8553 184.874 11.6518 185.352 11.5367C185.84 11.4218 186.317 11.3691 186.785 11.3784C187.481 11.3924 188.14 11.5198 188.763 11.7608C189.386 11.9915 189.931 12.3296 190.398 12.7752C190.865 13.2208 191.234 13.7683 191.504 14.4178C191.784 15.057 191.924 15.7921 191.923 16.6231C191.923 17.3709 191.767 18.1261 191.455 18.8885C191.154 19.6407 190.702 20.3536 190.099 21.0271C189.497 21.6902 188.749 22.2932 187.855 22.8363C186.973 23.3691 185.955 23.785 184.802 24.0839C184.864 24.7291 184.952 25.3178 185.066 25.8498C185.19 26.3821 185.341 26.8369 185.517 27.2144C185.704 27.5921 185.917 27.8872 186.156 28.0997C186.405 28.3125 186.69 28.4221 187.012 28.4285C187.22 28.4223 187.417 28.3899 187.604 28.3313C187.77 28.2827 187.937 28.2029 188.103 28.092C188.279 27.9813 188.425 27.818 188.539 27.6021C188.269 27.4721 188.062 27.3069 187.916 27.1066C187.771 26.9064 187.662 26.7172 187.589 26.5392C187.506 26.3298 187.46 26.1107 187.449 25.882C187.45 25.3834 187.548 24.9803 187.746 24.6726C187.943 24.3649 188.177 24.1255 188.447 23.9544C188.717 23.7832 188.992 23.6692 189.273 23.6125C189.553 23.5454 189.776 23.5136 189.943 23.5169C190.119 23.5204 190.332 23.561 190.581 23.6388C190.841 23.7167 191.09 23.8619 191.329 24.0744C191.568 24.2869 191.77 24.587 191.936 24.9747C192.112 25.3522 192.201 25.8473 192.2 26.4602ZM188.356 16.5828C188.356 16.2088 188.32 15.8549 188.248 15.5211C188.185 15.1771 188.087 14.8791 187.952 14.6271C187.827 14.3753 187.666 14.1747 187.469 14.0253C187.282 13.8658 187.064 13.7835 186.815 13.7785C186.389 13.77 186.041 13.9604 185.771 14.3497C185.501 14.7286 185.283 15.2384 185.116 15.8791C184.95 16.5197 184.835 17.2601 184.773 18.1002C184.71 18.9404 184.679 19.8174 184.678 20.7315L184.678 21.8689C185.208 21.5991 185.696 21.2765 186.143 20.9011C186.6 20.5259 186.989 20.113 187.311 19.6624C187.644 19.2017 187.898 18.7134 188.075 18.1976C188.262 17.6819 188.356 17.1437 188.356 16.5828Z" fill="white"/>
<path d="M207.666 16.0815C207.666 16.5593 207.577 16.9626 207.401 17.2915C207.224 17.6203 207.011 17.8861 206.762 18.0889C206.512 18.2916 206.253 18.437 205.983 18.5251C205.713 18.6132 205.484 18.6554 205.297 18.6516C205.11 18.6479 204.887 18.6122 204.627 18.5447C204.368 18.4668 204.119 18.3372 203.88 18.1558C203.651 17.9746 203.454 17.737 203.288 17.4428C203.122 17.1382 203.039 16.7574 203.039 16.3004C203.05 16.0513 203.097 15.8082 203.18 15.5709C203.253 15.3646 203.362 15.1539 203.507 14.9387C203.663 14.7133 203.881 14.5151 204.162 14.3441C203.975 14.0703 203.788 13.8588 203.601 13.7097C203.414 13.5605 203.248 13.4481 203.103 13.3725C202.926 13.2858 202.765 13.2307 202.62 13.207C202.298 13.2005 202.007 13.2622 201.747 13.3921C201.488 13.5115 201.264 13.6784 201.077 13.8928C200.901 14.097 200.76 14.3383 200.656 14.6167C200.563 14.8953 200.516 15.1852 200.516 15.4864C200.516 15.8707 200.542 16.2192 200.594 16.5319C200.645 16.8445 200.765 17.1637 200.951 17.4895C201.138 17.8152 201.419 18.1688 201.792 18.5502C202.166 18.9317 202.675 19.3781 203.318 19.8896C203.962 20.4011 204.523 20.9005 205 21.3879C205.478 21.8649 205.872 22.335 206.184 22.7983C206.495 23.2616 206.729 23.7285 206.884 24.199C207.04 24.6592 207.117 25.1386 207.117 25.6372C207.117 25.9696 207.081 26.3324 207.008 26.7256C206.945 27.1087 206.831 27.5011 206.665 27.9029C206.509 28.2945 206.296 28.6746 206.026 29.0431C205.766 29.4014 205.439 29.7221 205.044 30.005C204.66 30.2882 204.203 30.5075 203.673 30.6631C203.154 30.8293 202.556 30.9056 201.881 30.8921C200.864 30.8717 199.996 30.7037 199.28 30.3881C198.564 30.0726 197.972 29.6972 197.505 29.2619C197.048 28.8165 196.71 28.3527 196.492 27.8705C196.285 27.3886 196.181 26.9658 196.181 26.6022C196.182 26.2179 196.228 25.8605 196.322 25.53C196.416 25.1995 196.561 24.9115 196.758 24.6662C196.966 24.4211 197.226 24.2341 197.538 24.1053C197.86 23.9663 198.244 23.9013 198.69 23.9103C199.064 23.9178 199.402 23.9816 199.703 24.1019C200.014 24.2224 200.279 24.3991 200.497 24.632C200.726 24.8547 200.902 25.1283 201.026 25.4528C201.151 25.7773 201.213 26.1421 201.213 26.5472C201.203 26.7236 201.166 26.9046 201.104 27.0904C201.052 27.2451 200.963 27.4148 200.839 27.5992C200.714 27.7837 200.543 27.9569 200.325 28.1187C200.47 28.2359 200.61 28.327 200.745 28.392C200.89 28.4468 201.02 28.4858 201.134 28.5088C201.259 28.5425 201.384 28.5606 201.508 28.5631C201.643 28.5658 201.799 28.5325 201.976 28.4634C202.163 28.384 202.339 28.2629 202.505 28.1C202.672 27.9372 202.812 27.7374 202.926 27.5008C203.041 27.2642 203.098 26.9797 203.098 26.6473C203.098 26.3149 203.067 26.0131 203.005 25.7417C202.953 25.4603 202.834 25.1722 202.647 24.8776C202.47 24.5729 202.211 24.2405 201.868 23.8804C201.526 23.5204 201.074 23.0855 200.513 22.5757C199.953 22.0658 199.455 21.5729 199.019 21.0967C198.583 20.6101 198.214 20.1094 197.913 19.5944C197.622 19.0796 197.399 18.5401 197.244 17.9761C197.088 17.4121 197.011 16.7925 197.011 16.1173C197.011 15.4525 197.141 14.8111 197.401 14.1931C197.671 13.5753 198.05 13.0324 198.539 12.5643C199.027 12.0859 199.619 11.7134 200.315 11.4469C201.011 11.17 201.79 11.0402 202.652 11.0575C203.524 11.0749 204.277 11.2251 204.91 11.5078C205.544 11.7906 206.063 12.1645 206.468 12.6297C206.873 13.0844 207.174 13.6098 207.371 14.2059C207.568 14.8019 207.666 15.4271 207.666 16.0815Z" fill="white"/>
<path d="M223.404 27.0853C223.404 27.6981 223.264 28.2718 222.983 28.8063C222.702 29.3408 222.323 29.8006 221.845 30.1858C221.368 30.5709 220.807 30.8713 220.163 31.0869C219.519 31.3026 218.833 31.4031 218.106 31.3885C217.618 31.3787 217.125 31.3013 216.626 31.1563C216.128 31.0113 215.65 30.7784 215.194 30.4576C214.737 30.1369 214.306 29.7179 213.901 29.2009C213.496 28.6838 213.143 28.0535 212.842 27.3099C212.552 26.5666 212.319 25.6998 212.142 24.7095C211.977 23.709 211.894 22.5647 211.894 21.2767C211.895 20.0614 211.978 18.988 212.145 18.0565C212.322 17.1252 212.556 16.3145 212.847 15.6243C213.148 14.9344 213.496 14.3597 213.891 13.9002C214.286 13.4303 214.707 13.0544 215.153 12.7725C215.61 12.4804 216.078 12.2769 216.555 12.1618C217.044 12.0469 217.521 11.9942 217.989 12.0035C218.684 12.0175 219.344 12.1449 219.967 12.3859C220.59 12.6165 221.135 12.9547 221.602 13.4003C222.069 13.8459 222.438 14.3934 222.708 15.0428C222.988 15.6821 223.128 16.4172 223.127 17.2482C223.127 17.996 222.971 18.7512 222.659 19.5136C222.358 20.2658 221.906 20.9787 221.303 21.6522C220.701 22.3153 219.953 22.9183 219.059 23.4613C218.176 23.9942 217.159 24.4101 216.006 24.709C216.068 25.3542 216.156 25.9429 216.27 26.4749C216.394 27.0072 216.545 27.462 216.721 27.8395C216.908 28.2172 217.121 28.5123 217.36 28.7248C217.609 28.9375 217.894 29.0471 218.216 29.0536C218.424 29.0474 218.621 29.015 218.808 28.9564C218.974 28.9078 219.141 28.828 219.307 28.7171C219.483 28.6063 219.629 28.4431 219.743 28.2272C219.473 28.0972 219.265 27.932 219.12 27.7317C218.975 27.5315 218.866 27.3423 218.793 27.1643C218.71 26.9549 218.664 26.7358 218.653 26.5071C218.653 26.0085 218.752 25.6054 218.95 25.2977C219.147 24.99 219.381 24.7506 219.651 24.5794C219.921 24.4083 220.196 24.2943 220.477 24.2376C220.757 24.1705 220.98 24.1386 221.147 24.142C221.323 24.1455 221.536 24.1861 221.785 24.2638C222.045 24.3417 222.294 24.487 222.533 24.6995C222.772 24.912 222.974 25.2121 223.14 25.5998C223.316 25.9772 223.405 26.4724 223.404 27.0853ZM219.56 17.2079C219.56 16.8339 219.524 16.48 219.451 16.1462C219.389 15.8022 219.291 15.5041 219.156 15.2521C219.031 15.0004 218.87 14.7998 218.673 14.6504C218.486 14.4908 218.268 14.4086 218.019 14.4036C217.593 14.3951 217.245 14.5854 216.975 14.9747C216.705 15.3537 216.487 15.8635 216.32 16.5041C216.154 17.1448 216.039 17.8852 215.977 18.7253C215.914 19.5654 215.883 20.4425 215.882 21.3566L215.882 22.494C216.412 22.2242 216.9 21.9015 217.347 21.5262C217.804 21.151 218.193 20.7381 218.515 20.2875C218.848 19.8268 219.102 19.3385 219.279 18.8226C219.466 18.307 219.56 17.7688 219.56 17.2079Z" fill="white"/>
<path d="M232.235 13.3484L232.141 14.6242C232.484 14.0597 232.848 13.6307 233.232 13.3372C233.627 13.0439 233.99 12.8382 234.323 12.7202C234.655 12.6023 234.93 12.5403 235.148 12.5342C235.377 12.5284 235.501 12.5257 235.522 12.5261C236.291 12.5415 236.96 12.7315 237.532 13.0961C238.103 13.4607 238.575 13.9844 238.949 14.667C239.322 15.3393 239.597 16.1602 239.773 17.1298C239.96 18.0891 240.053 19.1765 240.053 20.3918C240.052 21.2851 240.036 22.1988 240.005 23.133C239.984 24.0571 239.931 24.9805 239.848 25.9033C239.775 26.8159 239.671 27.7071 239.535 28.577C239.411 29.447 239.239 30.2745 239.021 31.0596L235.391 30.5506C235.63 29.3193 235.818 28.1701 235.953 27.1029C236.089 26.0357 236.188 25.1029 236.25 24.3043C236.323 23.3709 236.365 22.5148 236.376 21.736C236.376 20.7492 236.345 19.8916 236.283 19.1633C236.221 18.4245 236.107 17.8146 235.941 17.3335C235.785 16.8421 235.568 16.4742 235.287 16.2297C235.007 15.9852 234.649 15.8585 234.212 15.8498C233.922 15.9063 233.631 16.1082 233.34 16.4556C233.091 16.7518 232.826 17.2295 232.545 17.8887C232.264 18.5374 232.02 19.457 231.812 20.6474C231.78 21.4569 231.759 22.2615 231.749 23.0611C231.748 23.8506 231.748 24.6919 231.748 25.5852C231.747 26.3435 231.747 27.1589 231.747 28.0314C231.746 28.9039 231.757 29.8909 231.777 30.9924L228.241 30.8437C228.272 29.7848 228.293 28.6634 228.304 27.4794C228.326 26.2853 228.336 24.9612 228.337 23.507C228.337 22.0631 228.328 20.4997 228.307 18.8165C228.287 17.1334 228.246 15.2629 228.185 13.2049L232.235 13.3484Z" fill="white"/>
<path d="M8.61164 27.0205C7.58351 26.9999 6.69567 26.7588 5.9481 26.2971C5.21092 25.8357 4.59842 25.2002 4.11061 24.3906C3.63318 23.5812 3.28043 22.6237 3.05235 21.5181C2.82428 20.4125 2.71047 19.2105 2.71094 17.9121C2.71148 16.4059 2.84698 15.0272 3.11745 13.7757C3.38791 12.5243 3.78294 11.4519 4.30252 10.5586C4.83248 9.66555 5.48181 8.97742 6.25048 8.49423C7.02955 8.00086 7.92276 7.76426 8.93012 7.78444C9.94786 7.80483 10.8253 8.03535 11.5625 8.47599C12.2997 8.91664 12.907 9.52607 13.3845 10.3043C13.8723 11.0827 14.2302 12.0092 14.4583 13.0836C14.6864 14.1581 14.8002 15.3393 14.7998 16.6273C14.7995 17.2921 14.7577 18.0132 14.6744 18.7906C14.6014 19.5681 14.4713 20.3446 14.2841 21.1199C14.1072 21.8954 13.8681 22.6437 13.5667 23.3647C13.2653 24.0754 12.886 24.7066 12.4288 25.2584C11.9717 25.8102 11.4263 26.2459 10.7927 26.5656C10.1695 26.8855 9.44245 27.0371 8.61164 27.0205ZM11.046 15.3991C11.0462 14.6097 11.0101 13.9027 10.9377 13.278C10.8652 12.6429 10.746 12.1056 10.58 11.666C10.4243 11.2266 10.222 10.8901 9.9728 10.6566C9.73402 10.4129 9.44328 10.2877 9.10057 10.2808C8.72671 10.2733 8.37874 10.4637 8.05666 10.852C7.73458 11.2402 7.44878 11.8058 7.19927 12.5487C6.96014 13.2918 6.76769 14.202 6.62191 15.2794C6.48652 16.3465 6.41858 17.5553 6.41809 18.9056C6.41778 19.7782 6.45904 20.5632 6.54187 21.2608C6.6247 21.948 6.74911 22.5374 6.9151 23.0289C7.08109 23.5101 7.28347 23.8829 7.52223 24.1474C7.77138 24.4016 8.06212 24.5321 8.39444 24.5388C8.72677 24.5454 9.02279 24.4163 9.28252 24.1515C9.54225 23.8762 9.76566 23.5067 9.95276 23.0431C10.1502 22.5796 10.3166 22.0428 10.4518 21.4326C10.5974 20.8123 10.7119 20.1654 10.7952 19.4919C10.8786 18.808 10.9411 18.1133 10.9829 17.4078C11.0247 16.7023 11.0457 16.0328 11.046 15.3991Z" stroke="black" stroke-width="5.31824" stroke-linejoin="round" mask="url(#path-1-outside-1_1484_8929)"/>
<path d="M31.6529 3.207C31.4129 6.23527 31.2301 9.24392 31.1044 12.2329C30.9787 15.2116 30.9153 18.2174 30.9142 21.2505C30.9135 23.276 30.9439 25.3073 31.0055 27.3444L27.4538 27.3356L27.5639 24.2528C27.1483 25.0235 26.7223 25.6122 26.2859 26.019C25.8496 26.4257 25.4497 26.7294 25.0861 26.9298C24.6602 27.1602 24.2396 27.292 23.8242 27.3252C23.2945 27.3146 22.7597 27.1533 22.2198 26.8412C21.6799 26.5292 21.192 26.0001 20.7561 25.2538C20.3202 24.5076 19.9622 23.5188 19.6823 22.2875C19.4023 21.0458 19.2627 19.4953 19.2634 17.636C19.2638 16.4103 19.3369 15.3315 19.4826 14.3996C19.6283 13.4573 19.826 12.6406 20.0755 11.9497C20.3249 11.2587 20.6159 10.6829 20.9484 10.2221C21.2913 9.75116 21.6549 9.37411 22.0393 9.09097C22.434 8.80803 22.8443 8.60851 23.2701 8.49239C23.696 8.37627 24.1166 8.32237 24.532 8.3307C24.8124 8.35709 25.1135 8.43064 25.4354 8.55134C25.7054 8.66063 26.0117 8.82257 26.3543 9.03718C26.7074 9.24161 27.0656 9.54482 27.4289 9.94682C27.3674 7.63961 27.2748 5.34217 27.151 3.05449L31.6529 3.207ZM27.6281 19.0501C27.6288 17.0453 27.5984 15.0348 27.5368 13.0184C27.4227 12.8499 27.2981 12.676 27.1631 12.4968C27.0386 12.3177 26.8984 12.1539 26.7427 12.0053C26.587 11.8464 26.4209 11.7184 26.2444 11.6214C26.0679 11.5244 25.8809 11.4739 25.6836 11.4699C25.3928 11.4641 25.0968 11.5621 24.7956 11.7638C24.5047 11.9553 24.2398 12.298 24.0008 12.7918C23.7617 13.2752 23.5642 13.9256 23.4081 14.7431C23.2624 15.5608 23.1893 16.5928 23.1889 17.8393C23.1885 18.9923 23.2401 19.9489 23.3436 20.7093C23.4472 21.4696 23.5872 22.0801 23.7636 22.5407C23.94 22.9909 24.1424 23.3117 24.3708 23.5033C24.5992 23.6844 24.8432 23.7776 25.1028 23.7828C25.4975 23.7907 25.835 23.6676 26.1155 23.4136C26.4064 23.1493 26.6454 22.8321 26.8324 22.4619C27.0299 22.0919 27.191 21.7108 27.3158 21.3186C27.4405 20.916 27.5445 20.5753 27.6277 20.2965L27.6281 19.0501Z" stroke="black" stroke-width="5.31824" stroke-linejoin="round" mask="url(#path-1-outside-1_1484_8929)"/>
<path d="M47.5436 23.5624C47.5434 24.1752 47.403 24.7489 47.1224 25.2834C46.8418 25.8179 46.4626 26.2778 45.9847 26.6629C45.5069 27.048 44.946 27.3484 44.302 27.564C43.6581 27.7797 42.9726 27.8802 42.2456 27.8656C41.7575 27.8559 41.2643 27.7785 40.7658 27.6334C40.2674 27.4884 39.7898 27.2555 39.3329 26.9348C38.8761 26.614 38.4453 26.1951 38.0404 25.678C37.6356 25.1609 37.2827 24.5306 36.9818 23.7871C36.6913 23.0437 36.4579 22.1769 36.2817 21.1866C36.1159 20.1861 36.0333 19.0418 36.0337 17.7538C36.0342 16.5385 36.1176 15.4651 36.2841 14.5336C36.461 13.6023 36.695 12.7916 36.986 12.1015C37.2874 11.4116 37.6355 10.8368 38.0303 10.3773C38.4252 9.90742 38.8459 9.53151 39.2926 9.24962C39.7496 8.95754 40.217 8.75397 40.6948 8.63889C41.1829 8.52402 41.6607 8.47127 42.128 8.48063C42.8238 8.49457 43.4832 8.62204 44.1062 8.86304C44.7293 9.09365 45.2744 9.43177 45.7415 9.8774C46.2087 10.323 46.5772 10.8705 46.847 11.52C47.1271 12.1592 47.2671 12.8943 47.2668 13.7253C47.2665 14.4731 47.1104 15.2283 46.7986 15.9907C46.4972 16.7429 46.0452 17.4558 45.4426 18.1293C44.84 18.7924 44.0921 19.3954 43.1987 19.9385C42.3158 20.4713 41.2979 20.8872 40.145 21.1861C40.2071 21.8313 40.2952 22.42 40.4092 22.952C40.5337 23.4843 40.6841 23.9391 40.8605 24.3166C41.0473 24.6943 41.2601 24.9894 41.4989 25.2019C41.748 25.4147 42.0336 25.5243 42.3555 25.5307C42.5632 25.5245 42.7606 25.4921 42.9475 25.4335C43.1137 25.3849 43.2799 25.3051 43.4461 25.1942C43.6227 25.0835 43.7681 24.9202 43.8824 24.7043C43.6125 24.5743 43.4048 24.4091 43.2595 24.2089C43.1142 24.0086 43.0052 23.8194 42.9326 23.6414C42.8496 23.432 42.8029 23.2129 42.7926 22.9842C42.7928 22.4856 42.8916 22.0825 43.089 21.7748C43.2865 21.4672 43.5202 21.2277 43.7903 21.0566C44.0604 20.8854 44.3356 20.7714 44.616 20.7147C44.8965 20.6476 45.1197 20.6158 45.2859 20.6191C45.4625 20.6226 45.6753 20.6633 45.9246 20.741C46.1842 20.8189 46.4333 20.9641 46.6721 21.1766C46.9109 21.3891 47.1133 21.6892 47.2793 22.0769C47.4558 22.4544 47.5438 22.9495 47.5436 23.5624ZM43.6995 13.685C43.6996 13.311 43.6634 12.9571 43.5908 12.6233C43.5286 12.2793 43.4301 11.9813 43.2952 11.7293C43.1706 11.4775 43.0097 11.2769 42.8125 11.1275C42.6256 10.968 42.4075 10.8857 42.1583 10.8807C41.7325 10.8722 41.3845 11.0626 41.1144 11.4519C40.8442 11.8308 40.6259 12.3406 40.4595 12.9813C40.2932 13.6219 40.1786 14.3623 40.116 15.2024C40.0534 16.0426 40.022 16.9196 40.0216 17.8337L40.0212 18.9711C40.551 18.7013 41.0392 18.3787 41.4859 18.0033C41.943 17.6281 42.3325 17.2152 42.6547 16.7646C42.9871 16.3039 43.2418 15.8156 43.4185 15.2998C43.6056 14.7841 43.6993 14.2459 43.6995 13.685Z" stroke="black" stroke-width="5.31824" stroke-linejoin="round" mask="url(#path-1-outside-1_1484_8929)"/>
<path d="M56.2433 27.7254L52.0839 27.9537C52.2507 26.0977 52.3708 24.3083 52.4441 22.5855C52.5278 20.8525 52.57 19.1186 52.5706 17.384C52.5711 16.1583 52.5507 14.9322 52.5096 13.7057C52.4789 12.4689 52.4171 11.2005 52.3241 9.90019L55.8291 9.78343C55.8083 10.0115 55.7926 10.2345 55.7821 10.4525C55.7717 10.6704 55.7664 10.8832 55.7663 11.091C56.13 10.5373 56.5248 10.109 56.9507 9.8059C57.387 9.49264 57.7921 9.26704 58.166 9.12911C58.5919 8.96105 59.0229 8.86062 59.4591 8.82781C60.2172 8.843 60.8662 8.97545 61.4062 9.22518C61.9461 9.46451 62.3874 9.77458 62.7299 10.1554C63.0725 10.5258 63.3216 10.9411 63.4772 11.4012C63.6328 11.851 63.7106 12.2888 63.7104 12.7147C63.7103 13.151 63.6634 13.5915 63.5697 14.0363C63.4761 14.4811 63.315 14.8829 63.0864 15.2419C62.8682 15.5907 62.5721 15.8756 62.1982 16.0966C61.8346 16.3075 61.3828 16.4075 60.8428 16.3967C60.3028 16.3859 59.877 16.2787 59.5655 16.0751C59.254 15.8715 59.0153 15.633 58.8492 15.3596C58.6935 15.076 58.5898 14.7883 58.538 14.4964C58.4965 14.1943 58.4758 13.9394 58.4759 13.7317C58.476 13.5863 58.502 13.4258 58.554 13.2502C58.606 13.0643 58.6839 12.8789 58.7878 12.694C58.8918 12.5091 59.0216 12.3299 59.1775 12.1565C59.3333 11.9726 59.5151 11.8049 59.7229 11.6532C59.6606 11.6312 59.5931 11.6143 59.5204 11.6024C59.4581 11.5908 59.3958 11.5844 59.3335 11.5831C58.8142 11.5727 58.352 11.7297 57.9469 12.0539C57.5417 12.3678 57.1885 12.8126 56.8871 13.3882C56.5961 13.9641 56.3518 14.6448 56.1542 15.4302C55.967 16.2159 55.8265 17.0752 55.7327 18.0082C55.784 19.6193 55.8562 21.2152 55.9491 22.7959C56.042 24.3766 56.14 26.0198 56.2433 27.7254Z" stroke="black" stroke-width="5.31824" stroke-linejoin="round" mask="url(#path-1-outside-1_1484_8929)"/>
<path d="M83.21 28.5149C82.1819 28.4943 81.294 28.2531 80.5464 27.7915C79.8093 27.3301 79.1968 26.6946 78.709 25.885C78.2315 25.0756 77.8788 24.1181 77.6507 23.0125C77.4226 21.9069 77.3088 20.7049 77.3093 19.4065C77.3098 17.9003 77.4453 16.5215 77.7158 15.2701C77.9863 14.0186 78.3813 12.9463 78.9009 12.053C79.4308 11.1599 80.0801 10.4718 80.8488 9.9886C81.6279 9.49523 82.5211 9.25863 83.5285 9.27881C84.5462 9.2992 85.4237 9.52972 86.1609 9.97036C86.898 10.411 87.5054 11.0204 87.9828 11.7987C88.4706 12.5771 88.8286 13.5035 89.0567 14.578C89.2848 15.6525 89.3986 16.8337 89.3981 18.1217C89.3979 18.7865 89.3561 19.5076 89.2727 20.2849C89.1997 21.0625 89.0696 21.839 88.8824 22.6143C88.7056 23.3898 88.4665 24.138 88.165 24.8591C87.8636 25.5698 87.4843 26.201 87.0272 26.7528C86.57 27.3045 86.0246 27.7403 85.391 28.06C84.7678 28.3799 84.0408 28.5315 83.21 28.5149ZM85.6443 16.8935C85.6446 16.1041 85.6085 15.397 85.536 14.7723C85.4636 14.1373 85.3443 13.5999 85.1783 13.1603C85.0227 12.721 84.8203 12.3845 84.5711 12.151C84.3324 11.9073 84.0416 11.782 83.6989 11.7752C83.325 11.7677 82.9771 11.9581 82.655 12.3463C82.3329 12.7346 82.0471 13.3002 81.7976 14.0431C81.5585 14.7862 81.366 15.6964 81.2203 16.7737C81.0849 17.8409 81.0169 19.0497 81.0164 20.4C81.0161 21.2725 81.0574 22.0576 81.1402 22.7552C81.223 23.4424 81.3475 24.0318 81.5134 24.5233C81.6794 25.0045 81.8818 25.3773 82.1206 25.6417C82.3697 25.896 82.6605 26.0265 82.9928 26.0331C83.3251 26.0398 83.6211 25.9107 83.8809 25.6458C84.1406 25.3706 84.364 25.0011 84.5511 24.5374C84.7486 24.074 84.9149 23.5371 85.0502 22.927C85.1958 22.3067 85.3103 21.6598 85.3936 20.9863C85.4769 20.3024 85.5395 19.6077 85.5813 18.9022C85.6231 18.1967 85.6441 17.5271 85.6443 16.8935Z" stroke="black" stroke-width="5.31824" stroke-linejoin="round" mask="url(#path-1-outside-1_1484_8929)"/>
<path d="M98.3044 10.6655L98.2105 11.9412C98.5534 11.3768 98.917 10.9478 99.3014 10.6543C99.6961 10.361 100.06 10.1553 100.392 10.0373C100.724 9.91932 101 9.85732 101.218 9.8513C101.446 9.84549 101.571 9.84279 101.592 9.84321C102.36 9.85861 103.03 10.0486 103.601 10.4132C104.172 10.7778 104.644 11.3015 105.018 11.9841C105.392 12.6564 105.667 13.4773 105.843 14.4468C106.029 15.4062 106.122 16.4935 106.122 17.7088C106.122 18.6021 106.106 19.5159 106.074 20.4501C106.053 21.3742 106.001 22.2976 105.917 23.2204C105.844 24.133 105.74 25.0242 105.605 25.894C105.48 26.7641 105.308 27.5916 105.09 28.3767L101.461 27.8677C101.7 26.6364 101.887 25.4872 102.023 24.42C102.158 23.3528 102.257 22.4199 102.32 21.6214C102.393 20.688 102.434 19.8319 102.445 19.053C102.445 18.0663 102.415 17.2087 102.353 16.4803C102.291 15.7416 102.176 15.1317 102.01 14.6505C101.855 14.1592 101.637 13.7913 101.357 13.5468C101.076 13.3022 100.718 13.1756 100.282 13.1669C99.9911 13.2234 99.7002 13.4253 99.4093 13.7726C99.16 14.0689 98.895 14.5466 98.6143 15.2057C98.3337 15.8545 98.0893 16.7741 97.8812 17.9644C97.8497 18.774 97.8287 19.5786 97.818 20.3782C97.8177 21.1676 97.8174 22.009 97.8171 22.9023C97.8168 23.6606 97.8165 24.476 97.8162 25.3485C97.8159 26.221 97.8259 27.208 97.8463 28.3095L94.3102 28.1607C94.3417 27.1019 94.3629 25.9805 94.3737 24.7965C94.3949 23.6024 94.4058 22.2782 94.4063 20.824C94.4068 19.3802 94.397 17.8167 94.3768 16.1336C94.3567 14.4505 94.3158 12.5799 94.2542 10.522L98.3044 10.6655Z" stroke="black" stroke-width="5.31824" stroke-linejoin="round" mask="url(#path-1-outside-1_1484_8929)"/>
<path d="M115.202 4.30417C115.139 5.57016 115.081 6.74277 115.029 7.822C114.977 8.90123 114.93 9.91824 114.888 10.873C114.856 11.828 114.83 12.7364 114.809 13.5981C114.788 14.4598 114.767 15.3112 114.746 16.1521C114.735 16.9933 114.724 17.8396 114.714 18.6912C114.713 19.5429 114.713 20.4362 114.713 21.371C114.712 22.4098 114.712 23.5212 114.711 24.7053C114.711 25.8895 114.721 27.2037 114.741 28.6479L111.205 28.4992C111.268 26.9319 111.31 25.3903 111.331 23.8742C111.353 22.3477 111.364 20.7846 111.364 19.185C111.365 18.1151 111.36 17.0191 111.35 15.8971C111.34 14.7647 111.325 13.5854 111.304 12.3593C111.284 11.1228 111.259 9.82392 111.228 8.46258C111.208 7.10144 111.182 5.6571 111.152 4.12955L115.202 4.30417Z" stroke="black" stroke-width="5.31824" stroke-linejoin="round" mask="url(#path-1-outside-1_1484_8929)"/>
<path d="M124.525 6.59437C124.525 6.92676 124.463 7.24232 124.338 7.54105C124.213 7.82939 124.042 8.08045 123.824 8.29421C123.605 8.50797 123.346 8.67935 123.044 8.80835C122.754 8.92718 122.442 8.98326 122.11 8.9766C121.777 8.96994 121.461 8.90127 121.16 8.7706C120.869 8.62974 120.614 8.44806 120.396 8.22556C120.178 8.00306 120.002 7.74503 119.867 7.45149C119.743 7.14776 119.68 6.82971 119.681 6.49732C119.681 6.16493 119.743 5.85456 119.868 5.56621C120.003 5.26769 120.18 5.01155 120.398 4.79778C120.616 4.58402 120.87 4.41773 121.161 4.29891C121.462 4.16991 121.779 4.10874 122.111 4.11539C122.444 4.12205 122.755 4.19581 123.046 4.33667C123.347 4.46735 123.607 4.64394 123.825 4.86644C124.043 5.08894 124.214 5.35205 124.339 5.65577C124.463 5.94911 124.525 6.26197 124.525 6.59437ZM124.523 11.3153C124.44 12.1343 124.367 13.0209 124.304 13.9753C124.252 14.9195 124.205 15.8898 124.163 16.8861C124.132 17.8826 124.105 18.8845 124.084 19.8916C124.063 20.8988 124.047 21.8593 124.036 22.7731C124.026 23.687 124.015 24.5437 124.004 25.3433C124.004 26.1328 124.004 26.8131 124.004 27.3844L124.003 29.1451L120.467 29.1989C120.488 28.4826 120.498 27.7868 120.499 27.1117C120.499 26.4365 120.499 25.7613 120.499 25.0862C120.5 23.9124 120.49 22.7696 120.47 21.6578C120.449 20.5355 120.413 19.413 120.362 18.2901C120.321 17.1675 120.264 16.0289 120.192 14.8745C120.119 13.7201 120.031 12.5238 119.928 11.2856L124.523 11.3153Z" stroke="black" stroke-width="5.31824" stroke-linejoin="round" mask="url(#path-1-outside-1_1484_8929)"/>
<path d="M133.661 11.3737L133.567 12.6495C133.91 12.0851 134.273 11.6561 134.658 11.3625C135.052 11.0692 135.416 10.8636 135.748 10.7456C136.081 10.6276 136.356 10.5656 136.574 10.5596C136.803 10.5538 136.927 10.5511 136.948 10.5515C137.716 10.5669 138.386 10.7569 138.957 11.1215C139.528 11.4861 140.001 12.0097 140.374 12.6924C140.748 13.3646 141.023 14.1856 141.199 15.1551C141.386 16.1145 141.479 17.2018 141.478 18.4171C141.478 19.3104 141.462 20.2242 141.431 21.1584C141.409 22.0824 141.357 23.0058 141.274 23.9286C141.201 24.8413 141.097 25.7325 140.961 26.6023C140.836 27.4723 140.665 28.2999 140.446 29.0849L136.817 28.576C137.056 27.3447 137.243 26.1954 137.379 25.1283C137.514 24.0611 137.613 23.1282 137.676 22.3296C137.749 21.3963 137.791 20.5401 137.801 19.7613C137.802 18.7745 137.771 17.917 137.709 17.1886C137.647 16.4499 137.533 15.8399 137.367 15.3588C137.211 14.8675 136.993 14.4995 136.713 14.255C136.433 14.0105 136.074 13.8839 135.638 13.8751C135.347 13.9316 135.057 14.1336 134.766 14.4809C134.516 14.7771 134.251 15.2548 133.971 15.914C133.69 16.5628 133.446 17.4823 133.238 18.6727C133.206 19.4823 133.185 20.2869 133.174 21.0865C133.174 21.8759 133.174 22.7173 133.173 23.6106C133.173 24.3688 133.173 25.1842 133.173 26.0568C133.172 26.9293 133.182 27.9163 133.203 29.0177L129.667 28.869C129.698 27.8101 129.719 26.6887 129.73 25.5048C129.751 24.3107 129.762 22.9865 129.763 21.5323C129.763 20.0885 129.753 18.525 129.733 16.8419C129.713 15.1587 129.672 13.2882 129.611 11.2303L133.661 11.3737Z" stroke="black" stroke-width="5.31824" stroke-linejoin="round" mask="url(#path-1-outside-1_1484_8929)"/>
<path d="M157.623 25.7675C157.623 26.3803 157.482 26.954 157.202 27.4885C156.921 28.0231 156.542 28.4829 156.064 28.868C155.586 29.2532 155.025 29.5536 154.381 29.7692C153.737 29.9848 153.052 30.0853 152.325 30.0708C151.837 30.061 151.344 29.9836 150.845 29.8386C150.347 29.6936 149.869 29.4607 149.412 29.1399C148.955 28.8191 148.525 28.4002 148.12 27.8831C147.715 27.366 147.362 26.7357 147.061 25.9922C146.771 25.2489 146.537 24.3821 146.361 23.3917C146.195 22.3912 146.113 21.247 146.113 19.959C146.113 18.7437 146.197 17.6703 146.363 16.7387C146.54 15.8074 146.774 14.9967 147.065 14.3066C147.367 13.6167 147.715 13.042 148.11 12.5825C148.504 12.1126 148.925 11.7366 149.372 11.4548C149.829 11.1627 150.296 10.9591 150.774 10.844C151.262 10.7292 151.74 10.6764 152.207 10.6858C152.903 10.6997 153.562 10.8272 154.186 11.0682C154.809 11.2988 155.354 11.6369 155.821 12.0825C156.288 12.5282 156.656 13.0757 156.926 13.7251C157.206 14.3643 157.346 15.0994 157.346 15.9304C157.346 16.6783 157.19 17.4334 156.878 18.1958C156.576 18.9481 156.124 19.6609 155.522 20.3344C154.919 20.9975 154.171 21.6006 153.278 22.1436C152.395 22.6764 151.377 23.0923 150.224 23.3912C150.286 24.0365 150.374 24.6251 150.489 25.1572C150.613 25.6894 150.763 26.1443 150.94 26.5217C151.127 26.8994 151.339 27.1945 151.578 27.4071C151.827 27.6198 152.113 27.7294 152.435 27.7358C152.643 27.7296 152.84 27.6972 153.027 27.6386C153.193 27.59 153.359 27.5103 153.525 27.3993C153.702 27.2886 153.847 27.1253 153.962 26.9095C153.692 26.7794 153.484 26.6143 153.339 26.414C153.193 26.2137 153.084 26.0246 153.012 25.8465C152.929 25.6371 152.882 25.418 152.872 25.1893C152.872 24.6907 152.971 24.2876 153.168 23.9799C153.366 23.6723 153.599 23.4329 153.87 23.2617C154.14 23.0905 154.415 22.9766 154.695 22.9199C154.976 22.8528 155.199 22.8209 155.365 22.8242C155.542 22.8278 155.755 22.8684 156.004 22.9461C156.263 23.024 156.513 23.1692 156.751 23.3817C156.99 23.5943 157.193 23.8944 157.359 24.282C157.535 24.6595 157.623 25.1547 157.623 25.7675ZM153.779 15.8901C153.779 15.5162 153.743 15.1623 153.67 14.8284C153.608 14.4844 153.509 14.1864 153.374 13.9344C153.25 13.6826 153.089 13.482 152.892 13.3327C152.705 13.1731 152.487 13.0908 152.238 13.0858C151.812 13.0773 151.464 13.2677 151.194 13.657C150.923 14.0359 150.705 14.5457 150.539 15.1864C150.372 15.8271 150.258 16.5675 150.195 17.4076C150.133 18.2477 150.101 19.1248 150.101 20.0389L150.1 21.1763C150.63 20.9064 151.118 20.5838 151.565 20.2084C152.022 19.8332 152.412 19.4204 152.734 18.9698C153.066 18.509 153.321 18.0207 153.498 17.5049C153.685 16.9893 153.779 16.451 153.779 15.8901Z" stroke="black" stroke-width="5.31824" stroke-linejoin="round" mask="url(#path-1-outside-1_1484_8929)"/>
<path d="M176.123 5.52456C176.06 6.79055 176.003 7.96316 175.95 9.04239C175.898 10.1216 175.851 11.1386 175.809 12.0934C175.777 13.0484 175.751 13.9568 175.73 14.8185C175.709 15.6802 175.688 16.5315 175.667 17.3725C175.656 18.2137 175.646 19.06 175.635 19.9115C175.635 20.7633 175.634 21.6566 175.634 22.5914C175.633 23.6302 175.633 24.7416 175.633 25.9257C175.632 27.1099 175.642 28.4241 175.662 29.8683L172.126 29.7196C172.189 28.1523 172.231 26.6107 172.253 25.0946C172.274 23.5681 172.285 22.005 172.285 20.4054C172.286 19.3355 172.281 18.2395 172.271 17.1175C172.261 15.9851 172.246 14.8058 172.226 13.5797C172.205 12.3432 172.18 11.0443 172.149 9.68296C172.129 8.32182 172.103 6.87748 172.073 5.34994L176.123 5.52456Z" stroke="black" stroke-width="5.31824" stroke-linejoin="round" mask="url(#path-1-outside-1_1484_8929)"/>
<path d="M192.2 26.4602C192.2 27.073 192.06 27.6467 191.779 28.1812C191.499 28.7157 191.119 29.1756 190.641 29.5607C190.164 29.9458 189.603 30.2462 188.959 30.4618C188.315 30.6775 187.629 30.778 186.902 30.7634C186.414 30.7537 185.921 30.6763 185.423 30.5312C184.924 30.3862 184.446 30.1533 183.99 29.8326C183.533 29.5118 183.102 29.0929 182.697 28.5758C182.292 28.0587 181.939 27.4284 181.639 26.6849C181.348 25.9415 181.115 25.0747 180.938 24.0844C180.773 23.0839 180.69 21.9396 180.69 20.6516C180.691 19.4363 180.774 18.3629 180.941 17.4314C181.118 16.5001 181.352 15.6894 181.643 14.9993C181.944 14.3094 182.292 13.7346 182.687 13.2751C183.082 12.8052 183.503 12.4293 183.949 12.1474C184.406 11.8553 184.874 11.6518 185.352 11.5367C185.84 11.4218 186.317 11.3691 186.785 11.3784C187.481 11.3924 188.14 11.5198 188.763 11.7608C189.386 11.9915 189.931 12.3296 190.398 12.7752C190.865 13.2208 191.234 13.7683 191.504 14.4178C191.784 15.057 191.924 15.7921 191.923 16.6231C191.923 17.3709 191.767 18.1261 191.455 18.8885C191.154 19.6407 190.702 20.3536 190.099 21.0271C189.497 21.6902 188.749 22.2932 187.855 22.8363C186.973 23.3691 185.955 23.785 184.802 24.0839C184.864 24.7291 184.952 25.3178 185.066 25.8498C185.19 26.3821 185.341 26.8369 185.517 27.2144C185.704 27.5921 185.917 27.8872 186.156 28.0997C186.405 28.3125 186.69 28.4221 187.012 28.4285C187.22 28.4223 187.417 28.3899 187.604 28.3313C187.77 28.2827 187.937 28.2029 188.103 28.092C188.279 27.9813 188.425 27.818 188.539 27.6021C188.269 27.4721 188.062 27.3069 187.916 27.1066C187.771 26.9064 187.662 26.7172 187.589 26.5392C187.506 26.3298 187.46 26.1107 187.449 25.882C187.45 25.3834 187.548 24.9803 187.746 24.6726C187.943 24.3649 188.177 24.1255 188.447 23.9544C188.717 23.7832 188.992 23.6692 189.273 23.6125C189.553 23.5454 189.776 23.5136 189.943 23.5169C190.119 23.5204 190.332 23.561 190.581 23.6388C190.841 23.7167 191.09 23.8619 191.329 24.0744C191.568 24.2869 191.77 24.587 191.936 24.9747C192.112 25.3522 192.201 25.8473 192.2 26.4602ZM188.356 16.5828C188.356 16.2088 188.32 15.8549 188.248 15.5211C188.185 15.1771 188.087 14.8791 187.952 14.6271C187.827 14.3753 187.666 14.1747 187.469 14.0253C187.282 13.8658 187.064 13.7835 186.815 13.7785C186.389 13.77 186.041 13.9604 185.771 14.3497C185.501 14.7286 185.283 15.2384 185.116 15.8791C184.95 16.5197 184.835 17.2601 184.773 18.1002C184.71 18.9404 184.679 19.8174 184.678 20.7315L184.678 21.8689C185.208 21.5991 185.696 21.2765 186.143 20.9011C186.6 20.5259 186.989 20.113 187.311 19.6624C187.644 19.2017 187.898 18.7134 188.075 18.1976C188.262 17.6819 188.356 17.1437 188.356 16.5828Z" stroke="black" stroke-width="5.31824" stroke-linejoin="round" mask="url(#path-1-outside-1_1484_8929)"/>
<path d="M207.666 16.0815C207.666 16.5593 207.577 16.9626 207.401 17.2915C207.224 17.6203 207.011 17.8861 206.762 18.0889C206.512 18.2916 206.253 18.437 205.983 18.5251C205.713 18.6132 205.484 18.6554 205.297 18.6516C205.11 18.6479 204.887 18.6122 204.627 18.5447C204.368 18.4668 204.119 18.3372 203.88 18.1558C203.651 17.9746 203.454 17.737 203.288 17.4428C203.122 17.1382 203.039 16.7574 203.039 16.3004C203.05 16.0513 203.097 15.8082 203.18 15.5709C203.253 15.3646 203.362 15.1539 203.507 14.9387C203.663 14.7133 203.881 14.5151 204.162 14.3441C203.975 14.0703 203.788 13.8588 203.601 13.7097C203.414 13.5605 203.248 13.4481 203.103 13.3725C202.926 13.2858 202.765 13.2307 202.62 13.207C202.298 13.2005 202.007 13.2622 201.747 13.3921C201.488 13.5115 201.264 13.6784 201.077 13.8928C200.901 14.097 200.76 14.3383 200.656 14.6167C200.563 14.8953 200.516 15.1852 200.516 15.4864C200.516 15.8707 200.542 16.2192 200.594 16.5319C200.645 16.8445 200.765 17.1637 200.951 17.4895C201.138 17.8152 201.419 18.1688 201.792 18.5502C202.166 18.9317 202.675 19.3781 203.318 19.8896C203.962 20.4011 204.523 20.9005 205 21.3879C205.478 21.8649 205.872 22.335 206.184 22.7983C206.495 23.2616 206.729 23.7285 206.884 24.199C207.04 24.6592 207.117 25.1386 207.117 25.6372C207.117 25.9696 207.081 26.3324 207.008 26.7256C206.945 27.1087 206.831 27.5011 206.665 27.9029C206.509 28.2945 206.296 28.6746 206.026 29.0431C205.766 29.4014 205.439 29.7221 205.044 30.005C204.66 30.2882 204.203 30.5075 203.673 30.6631C203.154 30.8293 202.556 30.9056 201.881 30.8921C200.864 30.8717 199.996 30.7037 199.28 30.3881C198.564 30.0726 197.972 29.6972 197.505 29.2619C197.048 28.8165 196.71 28.3527 196.492 27.8705C196.285 27.3886 196.181 26.9658 196.181 26.6022C196.182 26.2179 196.228 25.8605 196.322 25.53C196.416 25.1995 196.561 24.9115 196.758 24.6662C196.966 24.4211 197.226 24.2341 197.538 24.1053C197.86 23.9663 198.244 23.9013 198.69 23.9103C199.064 23.9178 199.402 23.9816 199.703 24.1019C200.014 24.2224 200.279 24.3991 200.497 24.632C200.726 24.8547 200.902 25.1283 201.026 25.4528C201.151 25.7773 201.213 26.1421 201.213 26.5472C201.203 26.7236 201.166 26.9046 201.104 27.0904C201.052 27.2451 200.963 27.4148 200.839 27.5992C200.714 27.7837 200.543 27.9569 200.325 28.1187C200.47 28.2359 200.61 28.327 200.745 28.392C200.89 28.4468 201.02 28.4858 201.134 28.5088C201.259 28.5425 201.384 28.5606 201.508 28.5631C201.643 28.5658 201.799 28.5325 201.976 28.4634C202.163 28.384 202.339 28.2629 202.505 28.1C202.672 27.9372 202.812 27.7374 202.926 27.5008C203.041 27.2642 203.098 26.9797 203.098 26.6473C203.098 26.3149 203.067 26.0131 203.005 25.7417C202.953 25.4603 202.834 25.1722 202.647 24.8776C202.47 24.5729 202.211 24.2405 201.868 23.8804C201.526 23.5204 201.074 23.0855 200.513 22.5757C199.953 22.0658 199.455 21.5729 199.019 21.0967C198.583 20.6101 198.214 20.1094 197.913 19.5944C197.622 19.0796 197.399 18.5401 197.244 17.9761C197.088 17.4121 197.011 16.7925 197.011 16.1173C197.011 15.4525 197.141 14.8111 197.401 14.1931C197.671 13.5753 198.05 13.0324 198.539 12.5643C199.027 12.0859 199.619 11.7134 200.315 11.4469C201.011 11.17 201.79 11.0402 202.652 11.0575C203.524 11.0749 204.277 11.2251 204.91 11.5078C205.544 11.7906 206.063 12.1645 206.468 12.6297C206.873 13.0844 207.174 13.6098 207.371 14.2059C207.568 14.8019 207.666 15.4271 207.666 16.0815Z" stroke="black" stroke-width="5.31824" stroke-linejoin="round" mask="url(#path-1-outside-1_1484_8929)"/>
<path d="M223.404 27.0853C223.404 27.6981 223.264 28.2718 222.983 28.8063C222.702 29.3408 222.323 29.8006 221.845 30.1858C221.368 30.5709 220.807 30.8713 220.163 31.0869C219.519 31.3026 218.833 31.4031 218.106 31.3885C217.618 31.3787 217.125 31.3013 216.626 31.1563C216.128 31.0113 215.65 30.7784 215.194 30.4576C214.737 30.1369 214.306 29.7179 213.901 29.2009C213.496 28.6838 213.143 28.0535 212.842 27.3099C212.552 26.5666 212.319 25.6998 212.142 24.7095C211.977 23.709 211.894 22.5647 211.894 21.2767C211.895 20.0614 211.978 18.988 212.145 18.0565C212.322 17.1252 212.556 16.3145 212.847 15.6243C213.148 14.9344 213.496 14.3597 213.891 13.9002C214.286 13.4303 214.707 13.0544 215.153 12.7725C215.61 12.4804 216.078 12.2769 216.555 12.1618C217.044 12.0469 217.521 11.9942 217.989 12.0035C218.684 12.0175 219.344 12.1449 219.967 12.3859C220.59 12.6165 221.135 12.9547 221.602 13.4003C222.069 13.8459 222.438 14.3934 222.708 15.0428C222.988 15.6821 223.128 16.4172 223.127 17.2482C223.127 17.996 222.971 18.7512 222.659 19.5136C222.358 20.2658 221.906 20.9787 221.303 21.6522C220.701 22.3153 219.953 22.9183 219.059 23.4613C218.176 23.9942 217.159 24.4101 216.006 24.709C216.068 25.3542 216.156 25.9429 216.27 26.4749C216.394 27.0072 216.545 27.462 216.721 27.8395C216.908 28.2172 217.121 28.5123 217.36 28.7248C217.609 28.9375 217.894 29.0471 218.216 29.0536C218.424 29.0474 218.621 29.015 218.808 28.9564C218.974 28.9078 219.141 28.828 219.307 28.7171C219.483 28.6063 219.629 28.4431 219.743 28.2272C219.473 28.0972 219.265 27.932 219.12 27.7317C218.975 27.5315 218.866 27.3423 218.793 27.1643C218.71 26.9549 218.664 26.7358 218.653 26.5071C218.653 26.0085 218.752 25.6054 218.95 25.2977C219.147 24.99 219.381 24.7506 219.651 24.5794C219.921 24.4083 220.196 24.2943 220.477 24.2376C220.757 24.1705 220.98 24.1386 221.147 24.142C221.323 24.1455 221.536 24.1861 221.785 24.2638C222.045 24.3417 222.294 24.487 222.533 24.6995C222.772 24.912 222.974 25.2121 223.14 25.5998C223.316 25.9772 223.405 26.4724 223.404 27.0853ZM219.56 17.2079C219.56 16.8339 219.524 16.48 219.451 16.1462C219.389 15.8022 219.291 15.5041 219.156 15.2521C219.031 15.0004 218.87 14.7998 218.673 14.6504C218.486 14.4908 218.268 14.4086 218.019 14.4036C217.593 14.3951 217.245 14.5854 216.975 14.9747C216.705 15.3537 216.487 15.8635 216.32 16.5041C216.154 17.1448 216.039 17.8852 215.977 18.7253C215.914 19.5654 215.883 20.4425 215.882 21.3566L215.882 22.494C216.412 22.2242 216.9 21.9015 217.347 21.5262C217.804 21.151 218.193 20.7381 218.515 20.2875C218.848 19.8268 219.102 19.3385 219.279 18.8226C219.466 18.307 219.56 17.7688 219.56 17.2079Z" stroke="black" stroke-width="5.31824" stroke-linejoin="round" mask="url(#path-1-outside-1_1484_8929)"/>
<path d="M232.235 13.3484L232.141 14.6242C232.484 14.0597 232.848 13.6307 233.232 13.3372C233.627 13.0439 233.99 12.8382 234.323 12.7202C234.655 12.6023 234.93 12.5403 235.148 12.5342C235.377 12.5284 235.501 12.5257 235.522 12.5261C236.291 12.5415 236.96 12.7315 237.532 13.0961C238.103 13.4607 238.575 13.9844 238.949 14.667C239.322 15.3393 239.597 16.1602 239.773 17.1298C239.96 18.0891 240.053 19.1765 240.053 20.3918C240.052 21.2851 240.036 22.1988 240.005 23.133C239.984 24.0571 239.931 24.9805 239.848 25.9033C239.775 26.8159 239.671 27.7071 239.535 28.577C239.411 29.447 239.239 30.2745 239.021 31.0596L235.391 30.5506C235.63 29.3193 235.818 28.1701 235.953 27.1029C236.089 26.0357 236.188 25.1029 236.25 24.3043C236.323 23.3709 236.365 22.5148 236.376 21.736C236.376 20.7492 236.345 19.8916 236.283 19.1633C236.221 18.4245 236.107 17.8146 235.941 17.3335C235.785 16.8421 235.568 16.4742 235.287 16.2297C235.007 15.9852 234.649 15.8585 234.212 15.8498C233.922 15.9063 233.631 16.1082 233.34 16.4556C233.091 16.7518 232.826 17.2295 232.545 17.8887C232.264 18.5374 232.02 19.457 231.812 20.6474C231.78 21.4569 231.759 22.2615 231.749 23.0611C231.748 23.8506 231.748 24.6919 231.748 25.5852C231.747 26.3435 231.747 27.1589 231.747 28.0314C231.746 28.9039 231.757 29.8909 231.777 30.9924L228.241 30.8437C228.272 29.7848 228.293 28.6634 228.304 27.4794C228.326 26.2853 228.336 24.9612 228.337 23.507C228.337 22.0631 228.328 20.4997 228.307 18.8165C228.287 17.1334 228.246 15.2629 228.185 13.2049L232.235 13.3484Z" stroke="black" stroke-width="5.31824" stroke-linejoin="round" mask="url(#path-1-outside-1_1484_8929)"/>
<path fill-rule="evenodd" clip-rule="evenodd" d="M132.746 42.6899L122.718 52.7174C122.103 53.3328 121.105 53.3328 120.49 52.7174L110.463 42.6899C109.847 42.0745 109.847 41.0768 110.463 40.4615C111.078 39.8462 112.076 39.8462 112.691 40.4615L121.604 49.3749L130.518 40.4615C131.133 39.8462 132.131 39.8462 132.746 40.4615C133.361 41.0768 133.361 42.0745 132.746 42.6899Z" fill="black"/>
</svg>
