<svg width="243" height="54" fill="none" xmlns="http://www.w3.org/2000/svg"><mask id="a" maskUnits="userSpaceOnUse" x="-.3" y=".1" width="244" height="34" fill="#000"><path fill="#fff" d="M-.3.1h244v34H-.3z"/><path d="M8.6 27c-1 0-1.9-.2-2.7-.7a5.6 5.6 0 0 1-1.8-2c-.5-.7-.8-1.7-1-2.8a19.6 19.6 0 0 1 0-7.7 11 11 0 0 1 1.2-3.2 6 6 0 0 1 2-2.1c.7-.5 1.6-.7 2.6-.7s2 .2 2.7.7c.7.4 1.3 1 1.8 1.8s.8 1.7 1 2.8a17 17 0 0 1 .3 5.7 16.5 16.5 0 0 1-1.1 4.6c-.3.7-.7 1.3-1.2 1.9A4.5 4.5 0 0 1 8.6 27ZM11 15.4v-2.1l-.4-1.6-.6-1c-.3-.3-.6-.4-.9-.4-.4 0-.7.2-1 .6-.4.3-.7 1-.9 1.6l-.6 2.8a29.1 29.1 0 0 0 0 6c0 .6.1 1.2.3 1.7l.6 1.1c.3.3.6.4.9.4.3 0 .6 0 .9-.3L10 23l.5-1.6a18.3 18.3 0 0 0 .5-4v-2ZM31.7 3.2a244 244 0 0 0-.7 24.1h-3.5v-3L26.4 26 25 27c-.4.2-.9.3-1.3.3-.5 0-1-.1-1.6-.5-.5-.3-1-.8-1.4-1.5-.5-.8-.8-1.8-1.1-3a21.6 21.6 0 0 1 .4-10.4 7 7 0 0 1 .8-1.7L22 9.1c.4-.3.8-.5 1.3-.6l1.2-.2 1 .3a6 6 0 0 1 2 1.3l-.3-6.8 4.5.1Zm-4 15.9-.2-6a12.8 12.8 0 0 0-.8-1c-.1-.3-.3-.4-.5-.5l-.5-.1c-.3 0-.6 0-.9.3-.3.2-.6.5-.8 1l-.6 2-.2 3 .1 3c.1.7.3 1.3.5 1.7.1.5.3.8.6 1 .2.2.4.3.7.3.4 0 .7-.1 1-.4l.7-1 .5-1 .3-1.1v-1.2ZM47.5 23.6c0 .6-.1 1.1-.4 1.7-.3.5-.6 1-1.1 1.4l-1.7.9a6 6 0 0 1-3.5 0c-.5-.1-1-.3-1.5-.7L38 25.7a13.8 13.8 0 0 1-1.8-4.5 21.1 21.1 0 0 1 0-6.7l.8-2.4c.3-.7.6-1.3 1-1.7.4-.5.8-.9 1.3-1.2l1.4-.6A5.7 5.7 0 0 1 44 9a4.7 4.7 0 0 1 2.7 2.6c.3.7.5 1.4.5 2.2a6 6 0 0 1-.5 2.3c-.3.7-.8 1.5-1.4 2.1a11.4 11.4 0 0 1-5.3 3l.3 1.9.5 1.3c.1.4.4.7.6.9.2.2.5.3.9.3h.5l.5-.3.5-.5c-.3-.1-.5-.3-.6-.5l-.4-.6a2.2 2.2 0 0 1 .2-1.9 2.3 2.3 0 0 1 1.5-1H46l.8.5.6.9c.2.4.2.8.2 1.5Zm-3.8-10a5 5 0 0 0-.4-1.9l-.5-.6a1 1 0 0 0-.6-.2c-.5 0-.8.2-1 .6-.4.3-.6.8-.7 1.5l-.4 2.2V19a7.7 7.7 0 0 0 2.6-2.2 5.6 5.6 0 0 0 1-3.1ZM56.2 27.7l-4.1.3a114.3 114.3 0 0 0 .2-18.1l3.5-.1a15.7 15.7 0 0 0 0 1.3 4.7 4.7 0 0 1 2.4-2l1.3-.3c.7 0 1.4.2 2 .4.4.3.9.6 1.2 1 .4.3.6.7.8 1.2l.2 1.3-.1 1.3-.5 1.2c-.2.4-.5.7-.9.9-.4.2-.8.3-1.4.3-.5 0-1-.1-1.2-.3l-.8-.7-.3-.9V13.3l.3-.6c0-.2.2-.4.4-.5l.5-.5a1.2 1.2 0 0 0-.4-.1 2 2 0 0 0-1.4.5 4 4 0 0 0-1 1.3l-.7 2-.5 2.6a178.3 178.3 0 0 0 .5 9.7ZM83.2 28.5c-1 0-2-.2-2.7-.7a5.6 5.6 0 0 1-1.8-2c-.5-.7-.8-1.7-1-2.8a19.6 19.6 0 0 1 0-7.7A11 11 0 0 1 79 12a6 6 0 0 1 2-2.1c.7-.5 1.6-.7 2.6-.7s2 .2 2.7.7c.7.4 1.3 1 1.8 1.8s.8 1.7 1 2.8a17 17 0 0 1 .3 5.7 16.5 16.5 0 0 1-1.1 4.6c-.3.7-.7 1.3-1.2 1.9a4.5 4.5 0 0 1-3.8 1.8ZM85.6 17v-2.1l-.4-1.6-.6-1c-.3-.3-.6-.4-.9-.4-.4 0-.7.2-1 .5-.4.4-.7 1-.9 1.7l-.6 2.8a29.1 29.1 0 0 0 0 6c0 .6.1 1.2.3 1.7l.6 1.1c.3.3.6.4.9.4.3 0 .6 0 .9-.4l.7-1 .5-1.7a18.3 18.3 0 0 0 .5-4v-2ZM98.3 10.7v1.2c.3-.5.6-1 1-1.2l1-.7a2.8 2.8 0 0 1 1.3-.2A3.8 3.8 0 0 1 105 12c.4.7.7 1.5.8 2.4a80.1 80.1 0 0 1-.2 11.4l-.5 2.6-3.6-.5a54 54 0 0 0 .9-11.4c-.1-.8-.2-1.4-.4-1.8-.1-.5-.4-1-.6-1.2-.3-.2-.7-.3-1.1-.3-.3 0-.6.2-.9.6a6 6 0 0 0-.8 1.4c-.3.7-.5 1.6-.7 2.8a94.7 94.7 0 0 0 0 10.3l-3.6-.1a163.5 163.5 0 0 0 0-12v-5.7l4 .2ZM115.2 4.3a2276.7 2276.7 0 0 0-.5 14.4v10l-3.5-.2a175.8 175.8 0 0 0 .1-16.1 591 591 0 0 0-.1-8.3l4 .2ZM124.5 6.6c0 .3 0 .6-.2 1a2.4 2.4 0 0 1-2.2 1.4l-1-.2a2.7 2.7 0 0 1-1.2-1.3 2.5 2.5 0 0 1 0-2l.5-.7.8-.5a2.3 2.3 0 0 1 1.8 0 2.4 2.4 0 0 1 1.5 2.3Zm0 4.7a76.4 76.4 0 0 0-.5 11.5V29l-3.5.1v-4.1a182 182 0 0 0-.6-13.8h4.6ZM133.7 11.4l-.1 1.2c.3-.5.7-1 1-1.2l1.1-.7a2.8 2.8 0 0 1 1.2-.1 3.8 3.8 0 0 1 3.5 2c.3.8.6 1.6.8 2.6a82.7 82.7 0 0 1-.2 11.4c-.2.9-.3 1.7-.6 2.5l-3.6-.5a54 54 0 0 0 1-11.4l-.4-1.8c-.2-.5-.4-.9-.7-1.1-.3-.3-.6-.4-1-.4s-.6.2-1 .6l-.7 1.4c-.3.7-.6 1.6-.8 2.8V29l-3.5-.2a168.8 168.8 0 0 0 0-12v-5.7l4 .2ZM157.6 25.8c0 .6-.1 1.2-.4 1.7l-1.1 1.4a6 6 0 0 1-5.2 1 6.1 6.1 0 0 1-2.7-2c-.5-.5-.8-1.2-1.1-2-.3-.7-.6-1.5-.7-2.5a21.2 21.2 0 0 1 0-6.7c.1-.9.4-1.7.7-2.4.3-.7.6-1.3 1-1.7.4-.5.8-.9 1.3-1.1l1.4-.7a5.7 5.7 0 0 1 3.4.3 4.7 4.7 0 0 1 2.7 2.6 6 6 0 0 1 0 4.5c-.3.7-.8 1.5-1.4 2.1a11.4 11.4 0 0 1-5.3 3c0 .7.2 1.3.3 1.9l.4 1.3.7 1 .8.2h.6l.5-.3.5-.5-.7-.5-.3-.6a2.2 2.2 0 0 1 .2-1.9 2.3 2.3 0 0 1 1.5-1H156l.8.5.6.9.2 1.5Zm-3.8-10a5 5 0 0 0-.4-1.9l-.5-.6a1 1 0 0 0-.7-.2c-.4 0-.7.2-1 .6-.3.3-.5.8-.7 1.5l-.3 2.2-.1 2.6v1.2a7.7 7.7 0 0 0 2.6-2.2 5.6 5.6 0 0 0 1-3.1ZM176.1 5.5 176 9a731.7 731.7 0 0 0-.2 8.4v12.5l-3.6-.2a180.3 180.3 0 0 0 .1-16.1 672 672 0 0 0-.1-8.3l4 .2ZM192.2 26.5c0 .6-.1 1.1-.4 1.7-.3.5-.7 1-1.2 1.4l-1.6.9a6 6 0 0 1-3.6 0c-.5-.1-1-.3-1.4-.7-.5-.3-.9-.7-1.3-1.2s-.8-1.2-1-2c-.4-.7-.6-1.5-.8-2.5a21.3 21.3 0 0 1 0-6.7l.7-2.4 1-1.7L184 12l1.5-.6a5.7 5.7 0 0 1 3.4.3 4.7 4.7 0 0 1 2.7 2.6 6 6 0 0 1 0 4.5c-.3.7-.8 1.5-1.4 2.1a11.4 11.4 0 0 1-5.3 3c0 .7.2 1.3.3 1.8 0 .6.2 1 .4 1.4.2.4.4.7.7.9.2.2.5.3.8.3h.6l.5-.3.4-.5-.6-.5-.3-.6a2.2 2.2 0 0 1 .2-1.9 2.3 2.3 0 0 1 1.5-1H190.6l.7.5c.3.2.5.5.6.9.2.4.3.8.3 1.5Zm-3.8-10a5 5 0 0 0-.4-1.9l-.5-.6a1 1 0 0 0-.7-.2c-.4 0-.8.2-1 .5-.3.4-.5 1-.7 1.6a35.8 35.8 0 0 0-.4 4.9v1a7.7 7.7 0 0 0 2.6-2.1 5.6 5.6 0 0 0 1-3.1ZM207.7 16a2.5 2.5 0 0 1-1 2 2.4 2.4 0 0 1-1.4.7 2.4 2.4 0 0 1-1.4-.5l-.6-.8a2.4 2.4 0 0 1-.1-1.8l.3-.7.7-.6a2.9 2.9 0 0 0-1.1-1h-1.4a2 2 0 0 0-.6.6 2.4 2.4 0 0 0-.6 1.6v1l.5 1c.1.3.4.7.8 1l1.5 1.4a18.1 18.1 0 0 1 2.9 2.9l.7 1.4.2 1.4a6 6 0 0 1-1 3.4 4.3 4.3 0 0 1-2.4 1.7l-1.8.2a6.3 6.3 0 0 1-4.4-1.6c-.5-.5-.8-1-1-1.4a3.3 3.3 0 0 1-.2-2.4l.5-.8c.2-.3.4-.5.7-.6l1.2-.2c.4 0 .7 0 1 .2l.8.5c.2.3.4.5.5.9.2.3.2.6.2 1a2 2 0 0 1-.9 1.6l.4.3a2.5 2.5 0 0 0 .8.2l.5-.1.5-.4.4-.6.2-.9v-.9l-.5-.8-.7-1-1.4-1.3L199 21c-.4-.5-.8-1-1-1.5a7.1 7.1 0 0 1-1-3.5 5 5 0 0 1 3.3-4.7 6 6 0 0 1 2.4-.3c.8 0 1.6.1 2.2.4a4.4 4.4 0 0 1 2.5 2.7c.2.6.3 1.2.3 1.9ZM223.4 27c0 .7-.1 1.3-.4 1.8-.3.5-.7 1-1.2 1.4-.4.4-1 .7-1.6.9a6 6 0 0 1-3.6 0c-.5 0-1-.3-1.4-.6l-1.3-1.3c-.4-.5-.8-1.1-1-1.9a14 14 0 0 1-.8-2.6 21.3 21.3 0 0 1 0-6.6l.7-2.5 1-1.7 1.4-1.1c.4-.3.9-.5 1.4-.6a5.7 5.7 0 0 1 3.4.2 4.7 4.7 0 0 1 2.7 2.6 6 6 0 0 1 0 4.5c-.3.8-.8 1.5-1.4 2.2a11.4 11.4 0 0 1-5.3 3c0 .7.2 1.2.3 1.8 0 .5.2 1 .4 1.3l.7 1 .8.3.6-.1c.2 0 .3-.2.5-.3.2 0 .3-.3.4-.5l-.6-.5-.3-.5a2.2 2.2 0 0 1 .2-1.9 2.3 2.3 0 0 1 1.5-1l.6-.2c.2 0 .4 0 .7.2l.7.4c.3.2.5.5.6.9.2.4.3.9.3 1.5Zm-3.8-9.8a5 5 0 0 0-.4-2l-.5-.5a1 1 0 0 0-.7-.3c-.4 0-.8.2-1 .6-.3.4-.5.9-.7 1.5-.1.6-.3 1.4-.3 2.2l-.1 2.7v1a7.7 7.7 0 0 0 2.6-2.1 5.6 5.6 0 0 0 1-3ZM232.2 13.3v1.3c.3-.5.6-1 1-1.3l1.1-.6a2.8 2.8 0 0 1 1.2-.2 3.8 3.8 0 0 1 3.4 2.2c.4.6.7 1.5.9 2.4a85.6 85.6 0 0 1-.2 11.4l-.6 2.6-3.6-.5a53.3 53.3 0 0 0 .9-11.4c0-.8-.2-1.4-.4-1.9-.1-.5-.3-.8-.6-1-.3-.3-.7-.4-1-.5-.4.1-.7.3-1 .7a6 6 0 0 0-.8 1.4l-.7 2.7V31l-3.6-.2a168.8 168.8 0 0 0 .1-12l-.1-5.6 4 .1Z"/></mask><path d="M8.6 27c-1 0-1.9-.2-2.7-.7a5.6 5.6 0 0 1-1.8-2c-.5-.7-.8-1.7-1-2.8a19.6 19.6 0 0 1 0-7.7 11 11 0 0 1 1.2-3.2 6 6 0 0 1 2-2.1c.7-.5 1.6-.7 2.6-.7s2 .2 2.7.7c.7.4 1.3 1 1.8 1.8s.8 1.7 1 2.8a17 17 0 0 1 .3 5.7 16.5 16.5 0 0 1-1.1 4.6c-.3.7-.7 1.3-1.2 1.9A4.5 4.5 0 0 1 8.6 27ZM11 15.4v-2.1l-.4-1.6-.6-1c-.3-.3-.6-.4-.9-.4-.4 0-.7.2-1 .6-.4.3-.7 1-.9 1.6l-.6 2.8a29.1 29.1 0 0 0 0 6c0 .6.1 1.2.3 1.7l.6 1.1c.3.3.6.4.9.4.3 0 .6 0 .9-.3L10 23l.5-1.6a18.3 18.3 0 0 0 .5-4v-2ZM31.7 3.2a244 244 0 0 0-.7 24.1h-3.5v-3L26.4 26 25 27c-.4.2-.9.3-1.3.3-.5 0-1-.1-1.6-.5-.5-.3-1-.8-1.4-1.5-.5-.8-.8-1.8-1.1-3a21.6 21.6 0 0 1 .4-10.4 7 7 0 0 1 .8-1.7L22 9.1c.4-.3.8-.5 1.3-.6l1.2-.2 1 .3a6 6 0 0 1 2 1.3l-.3-6.8 4.5.1Zm-4 15.9-.2-6a12.8 12.8 0 0 0-.8-1c-.1-.3-.3-.4-.5-.5l-.5-.1c-.3 0-.6 0-.9.3-.3.2-.6.5-.8 1l-.6 2-.2 3 .1 3c.1.7.3 1.3.5 1.7.1.5.3.8.6 1 .2.2.4.3.7.3.4 0 .7-.1 1-.4l.7-1 .5-1 .3-1.1v-1.2ZM47.5 23.6c0 .6-.1 1.1-.4 1.7-.3.5-.6 1-1.1 1.4l-1.7.9a6 6 0 0 1-3.5 0c-.5-.1-1-.3-1.5-.7L38 25.7a13.8 13.8 0 0 1-1.8-4.5 21.1 21.1 0 0 1 0-6.7l.8-2.4c.3-.7.6-1.3 1-1.7.4-.5.8-.9 1.3-1.2l1.4-.6A5.7 5.7 0 0 1 44 9a4.7 4.7 0 0 1 2.7 2.6c.3.7.5 1.4.5 2.2a6 6 0 0 1-.5 2.3c-.3.7-.8 1.5-1.4 2.1a11.4 11.4 0 0 1-5.3 3l.3 1.9.5 1.3c.1.4.4.7.6.9.2.2.5.3.9.3h.5l.5-.3.5-.5c-.3-.1-.5-.3-.6-.5l-.4-.6a2.2 2.2 0 0 1 .2-1.9 2.3 2.3 0 0 1 1.5-1H46l.8.5.6.9c.2.4.2.8.2 1.5Zm-3.8-10a5 5 0 0 0-.4-1.9l-.5-.6a1 1 0 0 0-.6-.2c-.5 0-.8.2-1 .6-.4.3-.6.8-.7 1.5l-.4 2.2V19a7.7 7.7 0 0 0 2.6-2.2 5.6 5.6 0 0 0 1-3.1ZM56.2 27.7l-4.1.3a114.3 114.3 0 0 0 .2-18.1l3.5-.1a15.7 15.7 0 0 0 0 1.3 4.7 4.7 0 0 1 2.4-2l1.3-.3c.7 0 1.4.2 2 .4.4.3.9.6 1.2 1 .4.3.6.7.8 1.2l.2 1.3-.1 1.3-.5 1.2c-.2.4-.5.7-.9.9-.4.2-.8.3-1.4.3-.5 0-1-.1-1.2-.3l-.8-.7-.3-.9V13.3l.3-.6c0-.2.2-.4.4-.5l.5-.5a1.2 1.2 0 0 0-.4-.1 2 2 0 0 0-1.4.5 4 4 0 0 0-1 1.3l-.7 2-.5 2.6a178.3 178.3 0 0 0 .5 9.7ZM83.2 28.5c-1 0-2-.2-2.7-.7a5.6 5.6 0 0 1-1.8-2c-.5-.7-.8-1.7-1-2.8a19.6 19.6 0 0 1 0-7.7A11 11 0 0 1 79 12a6 6 0 0 1 2-2.1c.7-.5 1.6-.7 2.6-.7s2 .2 2.7.7c.7.4 1.3 1 1.8 1.8s.8 1.7 1 2.8a17 17 0 0 1 .3 5.7 16.5 16.5 0 0 1-1.1 4.6c-.3.7-.7 1.3-1.2 1.9a4.5 4.5 0 0 1-3.8 1.8ZM85.6 17v-2.1l-.4-1.6-.6-1c-.3-.3-.6-.4-.9-.4-.4 0-.7.2-1 .5-.4.4-.7 1-.9 1.7l-.6 2.8a29.1 29.1 0 0 0 0 6c0 .6.1 1.2.3 1.7l.6 1.1c.3.3.6.4.9.4.3 0 .6 0 .9-.4l.7-1 .5-1.7a18.3 18.3 0 0 0 .5-4v-2ZM98.3 10.7v1.2c.3-.5.6-1 1-1.2l1-.7a2.8 2.8 0 0 1 1.3-.2A3.8 3.8 0 0 1 105 12c.4.7.7 1.5.8 2.4a80.1 80.1 0 0 1-.2 11.4l-.5 2.6-3.6-.5a54 54 0 0 0 .9-11.4c-.1-.8-.2-1.4-.4-1.8-.1-.5-.4-1-.6-1.2-.3-.2-.7-.3-1.1-.3-.3 0-.6.2-.9.6a6 6 0 0 0-.8 1.4c-.3.7-.5 1.6-.7 2.8a94.7 94.7 0 0 0 0 10.3l-3.6-.1a163.5 163.5 0 0 0 0-12v-5.7l4 .2ZM115.2 4.3a2276.7 2276.7 0 0 0-.5 14.4v10l-3.5-.2a175.8 175.8 0 0 0 .1-16.1 591 591 0 0 0-.1-8.3l4 .2ZM124.5 6.6c0 .3 0 .6-.2 1a2.4 2.4 0 0 1-2.2 1.4l-1-.2a2.7 2.7 0 0 1-1.2-1.3 2.5 2.5 0 0 1 0-2l.5-.7.8-.5a2.3 2.3 0 0 1 1.8 0 2.4 2.4 0 0 1 1.5 2.3Zm0 4.7a76.4 76.4 0 0 0-.5 11.5V29l-3.5.1v-4.1a182 182 0 0 0-.6-13.8h4.6ZM133.7 11.4l-.1 1.2c.3-.5.7-1 1-1.2l1.1-.7a2.8 2.8 0 0 1 1.2-.1 3.8 3.8 0 0 1 3.5 2c.3.8.6 1.6.8 2.6a82.7 82.7 0 0 1-.2 11.4c-.2.9-.3 1.7-.6 2.5l-3.6-.5a54 54 0 0 0 1-11.4l-.4-1.8c-.2-.5-.4-.9-.7-1.1-.3-.3-.6-.4-1-.4s-.6.2-1 .6l-.7 1.4c-.3.7-.6 1.6-.8 2.8V29l-3.5-.2a168.8 168.8 0 0 0 0-12v-5.7l4 .2ZM157.6 25.8c0 .6-.1 1.2-.4 1.7l-1.1 1.4a6 6 0 0 1-5.2 1 6.1 6.1 0 0 1-2.7-2c-.5-.5-.8-1.2-1.1-2-.3-.7-.6-1.5-.7-2.5a21.2 21.2 0 0 1 0-6.7c.1-.9.4-1.7.7-2.4.3-.7.6-1.3 1-1.7.4-.5.8-.9 1.3-1.1l1.4-.7a5.7 5.7 0 0 1 3.4.3 4.7 4.7 0 0 1 2.7 2.6 6 6 0 0 1 0 4.5c-.3.7-.8 1.5-1.4 2.1a11.4 11.4 0 0 1-5.3 3c0 .7.2 1.3.3 1.9l.4 1.3.7 1 .8.2h.6l.5-.3.5-.5-.7-.5-.3-.6a2.2 2.2 0 0 1 .2-1.9 2.3 2.3 0 0 1 1.5-1H156l.8.5.6.9.2 1.5Zm-3.8-10a5 5 0 0 0-.4-1.9l-.5-.6a1 1 0 0 0-.7-.2c-.4 0-.7.2-1 .6-.3.3-.5.8-.7 1.5l-.3 2.2-.1 2.6v1.2a7.7 7.7 0 0 0 2.6-2.2 5.6 5.6 0 0 0 1-3.1ZM176.1 5.5 176 9a731.7 731.7 0 0 0-.2 8.4v12.5l-3.6-.2a180.3 180.3 0 0 0 .1-16.1 672 672 0 0 0-.1-8.3l4 .2ZM192.2 26.5c0 .6-.1 1.1-.4 1.7-.3.5-.7 1-1.2 1.4l-1.6.9a6 6 0 0 1-3.6 0c-.5-.1-1-.3-1.4-.7-.5-.3-.9-.7-1.3-1.2s-.8-1.2-1-2c-.4-.7-.6-1.5-.8-2.5a21.3 21.3 0 0 1 0-6.7l.7-2.4 1-1.7L184 12l1.5-.6a5.7 5.7 0 0 1 3.4.3 4.7 4.7 0 0 1 2.7 2.6 6 6 0 0 1 0 4.5c-.3.7-.8 1.5-1.4 2.1a11.4 11.4 0 0 1-5.3 3c0 .7.2 1.3.3 1.8 0 .6.2 1 .4 1.4.2.4.4.7.7.9.2.2.5.3.8.3h.6l.5-.3.4-.5-.6-.5-.3-.6a2.2 2.2 0 0 1 .2-1.9 2.3 2.3 0 0 1 1.5-1H190.6l.7.5c.3.2.5.5.6.9.2.4.3.8.3 1.5Zm-3.8-10a5 5 0 0 0-.4-1.9l-.5-.6a1 1 0 0 0-.7-.2c-.4 0-.8.2-1 .5-.3.4-.5 1-.7 1.6a35.8 35.8 0 0 0-.4 4.9v1a7.7 7.7 0 0 0 2.6-2.1 5.6 5.6 0 0 0 1-3.1ZM207.7 16a2.5 2.5 0 0 1-1 2 2.4 2.4 0 0 1-1.4.7 2.4 2.4 0 0 1-1.4-.5l-.6-.8a2.4 2.4 0 0 1-.1-1.8l.3-.7.7-.6a2.9 2.9 0 0 0-1.1-1h-1.4a2 2 0 0 0-.6.6 2.4 2.4 0 0 0-.6 1.6v1l.5 1c.1.3.4.7.8 1l1.5 1.4a18.1 18.1 0 0 1 2.9 2.9l.7 1.4.2 1.4a6 6 0 0 1-1 3.4 4.3 4.3 0 0 1-2.4 1.7l-1.8.2a6.3 6.3 0 0 1-4.4-1.6c-.5-.5-.8-1-1-1.4a3.3 3.3 0 0 1-.2-2.4l.5-.8c.2-.3.4-.5.7-.6l1.2-.2c.4 0 .7 0 1 .2l.8.5c.2.3.4.5.5.9.2.3.2.6.2 1a2 2 0 0 1-.9 1.6l.4.3a2.5 2.5 0 0 0 .8.2l.5-.1.5-.4.4-.6.2-.9v-.9l-.5-.8-.7-1-1.4-1.3L199 21c-.4-.5-.8-1-1-1.5a7.1 7.1 0 0 1-1-3.5 5 5 0 0 1 3.3-4.7 6 6 0 0 1 2.4-.3c.8 0 1.6.1 2.2.4a4.4 4.4 0 0 1 2.5 2.7c.2.6.3 1.2.3 1.9ZM223.4 27c0 .7-.1 1.3-.4 1.8-.3.5-.7 1-1.2 1.4-.4.4-1 .7-1.6.9a6 6 0 0 1-3.6 0c-.5 0-1-.3-1.4-.6l-1.3-1.3c-.4-.5-.8-1.1-1-1.9a14 14 0 0 1-.8-2.6 21.3 21.3 0 0 1 0-6.6l.7-2.5 1-1.7 1.4-1.1c.4-.3.9-.5 1.4-.6a5.7 5.7 0 0 1 3.4.2 4.7 4.7 0 0 1 2.7 2.6 6 6 0 0 1 0 4.5c-.3.8-.8 1.5-1.4 2.2a11.4 11.4 0 0 1-5.3 3c0 .7.2 1.2.3 1.8 0 .5.2 1 .4 1.3l.7 1 .8.3.6-.1c.2 0 .3-.2.5-.3.2 0 .3-.3.4-.5l-.6-.5-.3-.5a2.2 2.2 0 0 1 .2-1.9 2.3 2.3 0 0 1 1.5-1l.6-.2c.2 0 .4 0 .7.2l.7.4c.3.2.5.5.6.9.2.4.3.9.3 1.5Zm-3.8-9.8a5 5 0 0 0-.4-2l-.5-.5a1 1 0 0 0-.7-.3c-.4 0-.8.2-1 .6-.3.4-.5.9-.7 1.5-.1.6-.3 1.4-.3 2.2l-.1 2.7v1a7.7 7.7 0 0 0 2.6-2.1 5.6 5.6 0 0 0 1-3ZM232.2 13.3v1.3c.3-.5.6-1 1-1.3l1.1-.6a2.8 2.8 0 0 1 1.2-.2 3.8 3.8 0 0 1 3.4 2.2c.4.6.7 1.5.9 2.4a85.6 85.6 0 0 1-.2 11.4l-.6 2.6-3.6-.5a53.3 53.3 0 0 0 .9-11.4c0-.8-.2-1.4-.4-1.9-.1-.5-.3-.8-.6-1-.3-.3-.7-.4-1-.5-.4.1-.7.3-1 .7a6 6 0 0 0-.8 1.4l-.7 2.7V31l-3.6-.2a168.8 168.8 0 0 0 .1-12l-.1-5.6 4 .1Z" fill="#fff"/><path d="M8.6 27c-1 0-1.9-.2-2.7-.7a5.6 5.6 0 0 1-1.8-2c-.5-.7-.8-1.7-1-2.8a19.6 19.6 0 0 1 0-7.7 11 11 0 0 1 1.2-3.2 6 6 0 0 1 2-2.1c.7-.5 1.6-.7 2.6-.7s2 .2 2.7.7c.7.4 1.3 1 1.8 1.8s.8 1.7 1 2.8a17 17 0 0 1 .3 5.7 16.5 16.5 0 0 1-1.1 4.6c-.3.7-.7 1.3-1.2 1.9A4.5 4.5 0 0 1 8.6 27ZM11 15.4v-2.1l-.4-1.6-.6-1c-.3-.3-.6-.4-.9-.4-.4 0-.7.2-1 .6-.4.3-.7 1-.9 1.6l-.6 2.8a29.1 29.1 0 0 0 0 6c0 .6.1 1.2.3 1.7l.6 1.1c.3.3.6.4.9.4.3 0 .6 0 .9-.3L10 23l.5-1.6a18.3 18.3 0 0 0 .5-4v-2ZM31.7 3.2a244 244 0 0 0-.7 24.1h-3.5v-3L26.4 26 25 27c-.4.2-.9.3-1.3.3-.5 0-1-.1-1.6-.5-.5-.3-1-.8-1.4-1.5-.5-.8-.8-1.8-1.1-3a21.6 21.6 0 0 1 .4-10.4 7 7 0 0 1 .8-1.7L22 9.1c.4-.3.8-.5 1.3-.6l1.2-.2 1 .3a6 6 0 0 1 2 1.3l-.3-6.8 4.5.1Zm-4 15.9-.2-6a12.8 12.8 0 0 0-.8-1c-.1-.3-.3-.4-.5-.5l-.5-.1c-.3 0-.6 0-.9.3-.3.2-.6.5-.8 1l-.6 2-.2 3 .1 3c.1.7.3 1.3.5 1.7.1.5.3.8.6 1 .2.2.4.3.7.3.4 0 .7-.1 1-.4l.7-1 .5-1 .3-1.1v-1.2ZM47.5 23.6c0 .6-.1 1.1-.4 1.7-.3.5-.6 1-1.1 1.4l-1.7.9a6 6 0 0 1-3.5 0c-.5-.1-1-.3-1.5-.7L38 25.7a13.8 13.8 0 0 1-1.8-4.5 21.1 21.1 0 0 1 0-6.7l.8-2.4c.3-.7.6-1.3 1-1.7.4-.5.8-.9 1.3-1.2l1.4-.6A5.7 5.7 0 0 1 44 9a4.7 4.7 0 0 1 2.7 2.6c.3.7.5 1.4.5 2.2a6 6 0 0 1-.5 2.3c-.3.7-.8 1.5-1.4 2.1a11.4 11.4 0 0 1-5.3 3l.3 1.9.5 1.3c.1.4.4.7.6.9.2.2.5.3.9.3h.5l.5-.3.5-.5c-.3-.1-.5-.3-.6-.5l-.4-.6a2.2 2.2 0 0 1 .2-1.9 2.3 2.3 0 0 1 1.5-1H46l.8.5.6.9c.2.4.2.8.2 1.5Zm-3.8-10a5 5 0 0 0-.4-1.9l-.5-.6a1 1 0 0 0-.6-.2c-.5 0-.8.2-1 .6-.4.3-.6.8-.7 1.5l-.4 2.2V19a7.7 7.7 0 0 0 2.6-2.2 5.6 5.6 0 0 0 1-3.1ZM56.2 27.7l-4.1.3a114.3 114.3 0 0 0 .2-18.1l3.5-.1a15.7 15.7 0 0 0 0 1.3 4.7 4.7 0 0 1 2.4-2l1.3-.3c.7 0 1.4.2 2 .4.4.3.9.6 1.2 1 .4.3.6.7.8 1.2l.2 1.3-.1 1.3-.5 1.2c-.2.4-.5.7-.9.9-.4.2-.8.3-1.4.3-.5 0-1-.1-1.2-.3l-.8-.7-.3-.9V13.3l.3-.6c0-.2.2-.4.4-.5l.5-.5a1.2 1.2 0 0 0-.4-.1 2 2 0 0 0-1.4.5 4 4 0 0 0-1 1.3l-.7 2-.5 2.6a178.3 178.3 0 0 0 .5 9.7ZM83.2 28.5c-1 0-2-.2-2.7-.7a5.6 5.6 0 0 1-1.8-2c-.5-.7-.8-1.7-1-2.8a19.6 19.6 0 0 1 0-7.7A11 11 0 0 1 79 12a6 6 0 0 1 2-2.1c.7-.5 1.6-.7 2.6-.7s2 .2 2.7.7c.7.4 1.3 1 1.8 1.8s.8 1.7 1 2.8a17 17 0 0 1 .3 5.7 16.5 16.5 0 0 1-1.1 4.6c-.3.7-.7 1.3-1.2 1.9a4.5 4.5 0 0 1-3.8 1.8ZM85.6 17v-2.1l-.4-1.6-.6-1c-.3-.3-.6-.4-.9-.4-.4 0-.7.2-1 .5-.4.4-.7 1-.9 1.7l-.6 2.8a29.1 29.1 0 0 0 0 6c0 .6.1 1.2.3 1.7l.6 1.1c.3.3.6.4.9.4.3 0 .6 0 .9-.4l.7-1 .5-1.7a18.3 18.3 0 0 0 .5-4v-2ZM98.3 10.7v1.2c.3-.5.6-1 1-1.2l1-.7a2.8 2.8 0 0 1 1.3-.2A3.8 3.8 0 0 1 105 12c.4.7.7 1.5.8 2.4a80.1 80.1 0 0 1-.2 11.4l-.5 2.6-3.6-.5a54 54 0 0 0 .9-11.4c-.1-.8-.2-1.4-.4-1.8-.1-.5-.4-1-.6-1.2-.3-.2-.7-.3-1.1-.3-.3 0-.6.2-.9.6a6 6 0 0 0-.8 1.4c-.3.7-.5 1.6-.7 2.8a94.7 94.7 0 0 0 0 10.3l-3.6-.1a163.5 163.5 0 0 0 0-12v-5.7l4 .2ZM115.2 4.3a2276.7 2276.7 0 0 0-.5 14.4v10l-3.5-.2a175.8 175.8 0 0 0 .1-16.1 591 591 0 0 0-.1-8.3l4 .2ZM124.5 6.6c0 .3 0 .6-.2 1a2.4 2.4 0 0 1-2.2 1.4l-1-.2a2.7 2.7 0 0 1-1.2-1.3 2.5 2.5 0 0 1 0-2l.5-.7.8-.5a2.3 2.3 0 0 1 1.8 0 2.4 2.4 0 0 1 1.5 2.3Zm0 4.7a76.4 76.4 0 0 0-.5 11.5V29l-3.5.1v-4.1a182 182 0 0 0-.6-13.8h4.6ZM133.7 11.4l-.1 1.2c.3-.5.7-1 1-1.2l1.1-.7a2.8 2.8 0 0 1 1.2-.1 3.8 3.8 0 0 1 3.5 2c.3.8.6 1.6.8 2.6a82.7 82.7 0 0 1-.2 11.4c-.2.9-.3 1.7-.6 2.5l-3.6-.5a54 54 0 0 0 1-11.4l-.4-1.8c-.2-.5-.4-.9-.7-1.1-.3-.3-.6-.4-1-.4s-.6.2-1 .6l-.7 1.4c-.3.7-.6 1.6-.8 2.8V29l-3.5-.2a168.8 168.8 0 0 0 0-12v-5.7l4 .2ZM157.6 25.8c0 .6-.1 1.2-.4 1.7l-1.1 1.4a6 6 0 0 1-5.2 1 6.1 6.1 0 0 1-2.7-2c-.5-.5-.8-1.2-1.1-2-.3-.7-.6-1.5-.7-2.5a21.2 21.2 0 0 1 0-6.7c.1-.9.4-1.7.7-2.4.3-.7.6-1.3 1-1.7.4-.5.8-.9 1.3-1.1l1.4-.7a5.7 5.7 0 0 1 3.4.3 4.7 4.7 0 0 1 2.7 2.6 6 6 0 0 1 0 4.5c-.3.7-.8 1.5-1.4 2.1a11.4 11.4 0 0 1-5.3 3c0 .7.2 1.3.3 1.9l.4 1.3.7 1 .8.2h.6l.5-.3.5-.5-.7-.5-.3-.6a2.2 2.2 0 0 1 .2-1.9 2.3 2.3 0 0 1 1.5-1H156l.8.5.6.9.2 1.5Zm-3.8-10a5 5 0 0 0-.4-1.9l-.5-.6a1 1 0 0 0-.7-.2c-.4 0-.7.2-1 .6-.3.3-.5.8-.7 1.5l-.3 2.2-.1 2.6v1.2a7.7 7.7 0 0 0 2.6-2.2 5.6 5.6 0 0 0 1-3.1ZM176.1 5.5 176 9a731.7 731.7 0 0 0-.2 8.4v12.5l-3.6-.2a180.3 180.3 0 0 0 .1-16.1 672 672 0 0 0-.1-8.3l4 .2ZM192.2 26.5c0 .6-.1 1.1-.4 1.7-.3.5-.7 1-1.2 1.4l-1.6.9a6 6 0 0 1-3.6 0c-.5-.1-1-.3-1.4-.7-.5-.3-.9-.7-1.3-1.2s-.8-1.2-1-2c-.4-.7-.6-1.5-.8-2.5a21.3 21.3 0 0 1 0-6.7l.7-2.4 1-1.7L184 12l1.5-.6a5.7 5.7 0 0 1 3.4.3 4.7 4.7 0 0 1 2.7 2.6 6 6 0 0 1 0 4.5c-.3.7-.8 1.5-1.4 2.1a11.4 11.4 0 0 1-5.3 3c0 .7.2 1.3.3 1.8 0 .6.2 1 .4 1.4.2.4.4.7.7.9.2.2.5.3.8.3h.6l.5-.3.4-.5-.6-.5-.3-.6a2.2 2.2 0 0 1 .2-1.9 2.3 2.3 0 0 1 1.5-1H190.6l.7.5c.3.2.5.5.6.9.2.4.3.8.3 1.5Zm-3.8-10a5 5 0 0 0-.4-1.9l-.5-.6a1 1 0 0 0-.7-.2c-.4 0-.8.2-1 .5-.3.4-.5 1-.7 1.6a35.8 35.8 0 0 0-.4 4.9v1a7.7 7.7 0 0 0 2.6-2.1 5.6 5.6 0 0 0 1-3.1ZM207.7 16a2.5 2.5 0 0 1-1 2 2.4 2.4 0 0 1-1.4.7 2.4 2.4 0 0 1-1.4-.5l-.6-.8a2.4 2.4 0 0 1-.1-1.8l.3-.7.7-.6a2.9 2.9 0 0 0-1.1-1h-1.4a2 2 0 0 0-.6.6 2.4 2.4 0 0 0-.6 1.6v1l.5 1c.1.3.4.7.8 1l1.5 1.4a18.1 18.1 0 0 1 2.9 2.9l.7 1.4.2 1.4a6 6 0 0 1-1 3.4 4.3 4.3 0 0 1-2.4 1.7l-1.8.2a6.3 6.3 0 0 1-4.4-1.6c-.5-.5-.8-1-1-1.4a3.3 3.3 0 0 1-.2-2.4l.5-.8c.2-.3.4-.5.7-.6l1.2-.2c.4 0 .7 0 1 .2l.8.5c.2.3.4.5.5.9.2.3.2.6.2 1a2 2 0 0 1-.9 1.6l.4.3a2.5 2.5 0 0 0 .8.2l.5-.1.5-.4.4-.6.2-.9v-.9l-.5-.8-.7-1-1.4-1.3L199 21c-.4-.5-.8-1-1-1.5a7.1 7.1 0 0 1-1-3.5 5 5 0 0 1 3.3-4.7 6 6 0 0 1 2.4-.3c.8 0 1.6.1 2.2.4a4.4 4.4 0 0 1 2.5 2.7c.2.6.3 1.2.3 1.9ZM223.4 27c0 .7-.1 1.3-.4 1.8-.3.5-.7 1-1.2 1.4-.4.4-1 .7-1.6.9a6 6 0 0 1-3.6 0c-.5 0-1-.3-1.4-.6l-1.3-1.3c-.4-.5-.8-1.1-1-1.9a14 14 0 0 1-.8-2.6 21.3 21.3 0 0 1 0-6.6l.7-2.5 1-1.7 1.4-1.1c.4-.3.9-.5 1.4-.6a5.7 5.7 0 0 1 3.4.2 4.7 4.7 0 0 1 2.7 2.6 6 6 0 0 1 0 4.5c-.3.8-.8 1.5-1.4 2.2a11.4 11.4 0 0 1-5.3 3c0 .7.2 1.2.3 1.8 0 .5.2 1 .4 1.3l.7 1 .8.3.6-.1c.2 0 .3-.2.5-.3.2 0 .3-.3.4-.5l-.6-.5-.3-.5a2.2 2.2 0 0 1 .2-1.9 2.3 2.3 0 0 1 1.5-1l.6-.2c.2 0 .4 0 .7.2l.7.4c.3.2.5.5.6.9.2.4.3.9.3 1.5Zm-3.8-9.8a5 5 0 0 0-.4-2l-.5-.5a1 1 0 0 0-.7-.3c-.4 0-.8.2-1 .6-.3.4-.5.9-.7 1.5-.1.6-.3 1.4-.3 2.2l-.1 2.7v1a7.7 7.7 0 0 0 2.6-2.1 5.6 5.6 0 0 0 1-3ZM232.2 13.3v1.3c.3-.5.6-1 1-1.3l1.1-.6a2.8 2.8 0 0 1 1.2-.2 3.8 3.8 0 0 1 3.4 2.2c.4.6.7 1.5.9 2.4a85.6 85.6 0 0 1-.2 11.4l-.6 2.6-3.6-.5a53.3 53.3 0 0 0 .9-11.4c0-.8-.2-1.4-.4-1.9-.1-.5-.3-.8-.6-1-.3-.3-.7-.4-1-.5-.4.1-.7.3-1 .7a6 6 0 0 0-.8 1.4l-.7 2.7V31l-3.6-.2a168.8 168.8 0 0 0 .1-12l-.1-5.6 4 .1Z" stroke="#000" stroke-width="5.3" stroke-linejoin="round" mask="url(#a)"/><path fill-rule="evenodd" clip-rule="evenodd" d="m132.7 42.7-10 10c-.6.6-1.6.6-2.2 0l-10-10a1.6 1.6 0 1 1 2.2-2.2l8.9 8.9 9-9a1.6 1.6 0 1 1 2.1 2.3Z" fill="#000"/></svg>