<svg width="37" height="21" viewBox="0 0 37 21" fill="none" xmlns="http://www.w3.org/2000/svg">
<path d="M28.8051 18.2825C32.6256 14.7498 34.5486 12.5307 36.9173 7.41722C37.2227 5.35874 36.7909 3.23473 33.7582 2.23861C29.135 2.23859 28.805 5.8384 28.805 5.8384C28.805 5.8384 28.4751 2.23854 23.8519 2.23856C20.8192 3.23468 20.3874 5.35869 20.6928 7.41717C23.0615 12.5306 24.9846 14.7498 28.8051 18.2825Z" fill="white"/>
<path d="M8.22779 0.494934L0.377477 10.4419C0.378873 13.365 0.951097 14.4772 3.20653 15.323C5.90191 16.0064 8.22779 13.1207 8.22779 13.1207C8.22779 13.1207 10.5537 16.0064 13.2491 15.3231C15.5045 14.4772 16.0767 13.365 16.0781 10.4419L8.22779 0.494934Z" fill="#958E7C"/>
<path d="M10.9918 20.0794C9.32863 17.72 8.77106 16.1822 8.2227 13.1828C7.67433 16.1822 7.11676 17.72 5.45361 20.0794H10.9918Z" fill="#958E7C"/>
</svg>
