<svg width="253" height="52" viewBox="0 0 253 52" fill="none" xmlns="http://www.w3.org/2000/svg">
<g filter="url(#filter0_d_1587_9441)">
<path d="M0.285645 3.95885C43.8956 0.790976 69.6036 0.124632 120.286 3.95885C168.612 9.70941 195.174 9.25994 240.286 3.95885L224 25.3531L240.286 45.1017C195.531 48.4409 165.422 50.1847 120.286 46.2861C72.7312 39.4152 50.3855 40.6719 0.285645 45.1017L15.7142 25.3531L0.285645 3.95885Z" fill="#C62222"/>
</g>
<path d="M22.2357 24.396L10.3694 8.3427C51.5293 5.3553 74.9076 5.57363 119.28 9.42231L119.289 9.42303L119.297 9.42366C165.62 12.9916 189.372 14.3216 227.73 11.4569L216.769 24.3022L215.796 25.4429L216.797 26.5593L229.797 41.059C190.23 43.5935 162.142 44.1567 120.468 40.8359C77.2534 35.055 58.4535 34.7328 13.3627 38.2757L22.229 26.4429L22.994 25.4219L22.2357 24.396Z" stroke="#FFEF60" stroke-width="3.42857"/>
<path d="M72.3095 24.3205C72.2313 25.2034 72.0282 25.9378 71.7 26.5238C71.3797 27.102 70.9851 27.5668 70.5163 27.9184C70.0476 28.2622 69.528 28.5044 68.9576 28.645C68.3951 28.7857 67.8325 28.856 67.27 28.856C66.684 28.856 66.1176 28.774 65.5707 28.6099C65.0315 28.4536 64.5549 28.2153 64.1409 27.895C63.7268 27.5746 63.3947 27.1723 63.1447 26.6879C62.9025 26.2034 62.7814 25.637 62.7814 24.9885C62.7814 24.4885 62.8556 24.0705 63.004 23.7345C63.1603 23.3985 63.3517 23.129 63.5783 22.9258C63.8049 22.7227 64.0471 22.5821 64.3049 22.5039C64.5628 22.418 64.8011 22.375 65.0198 22.375C65.2464 22.375 65.4808 22.4102 65.723 22.4805C65.9652 22.5508 66.1879 22.668 66.391 22.8321C66.5942 22.9962 66.7582 23.2188 66.8833 23.5001C67.0161 23.7736 67.0825 24.1173 67.0825 24.5314C67.0825 24.5393 67.0747 24.6135 67.059 24.7541C67.0512 24.8869 67.0083 25.0432 66.9301 25.2229C66.852 25.3948 66.7309 25.5667 66.5668 25.7386C66.4106 25.9026 66.1801 26.0198 65.8754 26.0902C66.0941 26.3636 66.3481 26.5707 66.6371 26.7113C66.934 26.8441 67.1841 26.9105 67.3872 26.9105C67.5903 26.9105 67.8208 26.8754 68.0787 26.8051C68.3443 26.7347 68.5904 26.6175 68.817 26.4535C69.0514 26.2816 69.2467 26.0589 69.403 25.7854C69.5671 25.5042 69.6491 25.1526 69.6491 24.7307C69.6491 24.2384 69.5631 23.8009 69.3913 23.4181C69.2272 23.0352 69.0123 22.6993 68.7467 22.4102C68.4888 22.1133 68.1959 21.8555 67.8677 21.6367C67.5474 21.4101 67.2348 21.207 66.9301 21.0273C66.727 20.9101 66.4848 20.7733 66.2035 20.6171C65.9222 20.453 65.6292 20.2616 65.3245 20.0428C65.0198 19.8162 64.719 19.5623 64.4221 19.281C64.1252 18.9919 63.8557 18.6677 63.6135 18.3083C63.3791 17.9411 63.1877 17.5348 63.0392 17.0895C62.8986 16.6441 62.8282 16.1519 62.8282 15.6128C62.8282 14.808 62.9689 14.1048 63.2502 13.5032C63.5314 12.8938 63.8947 12.386 64.3401 11.9797C64.7932 11.5734 65.305 11.2687 65.8754 11.0655C66.4457 10.8624 67.0239 10.7608 67.6099 10.7608C68.1959 10.7608 68.7545 10.8429 69.2858 11.0069C69.8171 11.1632 70.282 11.3937 70.6804 11.6984C71.0867 11.9953 71.407 12.3547 71.6414 12.7766C71.8836 13.1907 72.0047 13.6556 72.0047 14.1713C72.0047 14.6947 71.9188 15.1088 71.7469 15.4135C71.575 15.7183 71.368 15.9487 71.1258 16.105C70.8914 16.2613 70.6492 16.3628 70.3992 16.4097C70.1569 16.4488 69.9616 16.4683 69.8132 16.4683C69.6257 16.4683 69.4303 16.4332 69.2272 16.3628C69.024 16.2925 68.8365 16.187 68.6646 16.0464C68.5006 15.9058 68.3638 15.7339 68.2545 15.5307C68.1451 15.3276 68.0904 15.0893 68.0904 14.8158C68.0982 14.644 68.1177 14.4721 68.149 14.3002C68.1802 14.1517 68.2271 13.9916 68.2896 13.8197C68.3521 13.6478 68.4459 13.4837 68.5709 13.3274C68.4459 13.2181 68.3248 13.1321 68.2076 13.0696C68.0904 13.0071 67.981 12.9602 67.8794 12.929C67.7622 12.8977 67.6489 12.8782 67.5396 12.8704C67.3208 12.8704 67.0981 12.9094 66.8715 12.9876C66.6528 13.0657 66.4496 13.1829 66.2621 13.3392C66.0824 13.4954 65.934 13.6947 65.8168 13.9369C65.6996 14.1713 65.641 14.4486 65.641 14.769C65.641 15.144 65.6996 15.4839 65.8168 15.7886C65.934 16.0855 66.1176 16.3746 66.3676 16.6558C66.6176 16.9371 66.934 17.2223 67.3169 17.5114C67.7075 17.8004 68.1724 18.1169 68.7115 18.4607C69.3444 18.8591 69.8874 19.2576 70.3406 19.6561C70.8015 20.0545 71.1766 20.4647 71.4656 20.8866C71.7625 21.3085 71.9813 21.7539 72.1219 22.2227C72.2626 22.6836 72.3329 23.1837 72.3329 23.7228C72.3329 23.8165 72.3329 23.9142 72.3329 24.0158C72.3329 24.1095 72.3251 24.2111 72.3095 24.3205Z" fill="white"/>
<path d="M74.0018 33.0516C74.0956 31.9265 74.1737 30.821 74.2362 29.735C74.3065 28.6489 74.3651 27.5746 74.412 26.5121C74.4589 25.4417 74.4941 24.3752 74.5175 23.3126C74.5409 22.25 74.5527 21.1757 74.5527 20.0897C74.5527 18.6443 74.5292 17.152 74.4823 15.6128L77.1427 15.5776L77.0724 16.8785C77.4083 16.2222 77.799 15.7104 78.2443 15.3432C78.6897 14.976 79.1546 14.7924 79.639 14.7924C80.225 14.7924 80.7445 14.9213 81.1977 15.1791C81.6587 15.4292 82.0454 15.8276 82.3579 16.3746C82.6705 16.9215 82.9088 17.6207 83.0728 18.4724C83.2369 19.3162 83.319 20.3358 83.319 21.5312C83.319 22.8985 83.2057 24.0509 82.9791 24.9885C82.7525 25.9183 82.4517 26.6722 82.0767 27.2504C81.7016 27.8208 81.2758 28.2309 80.7992 28.481C80.3304 28.731 79.8499 28.856 79.3577 28.856C79.0999 28.8326 78.8342 28.7701 78.5608 28.6685C78.3264 28.5825 78.0646 28.4458 77.7756 28.2583C77.4943 28.063 77.213 27.7895 76.9317 27.4379C76.9474 28.3677 76.9708 29.3013 77.0021 30.2389C77.0333 31.1765 77.0802 32.1336 77.1427 33.1102L74.0018 33.0516ZM76.9083 25.0823C76.9864 25.2307 77.0802 25.3909 77.1896 25.5628C77.299 25.7268 77.4162 25.8831 77.5412 26.0316C77.674 26.1722 77.8146 26.2894 77.9631 26.3831C78.1115 26.4769 78.2717 26.5238 78.4436 26.5238C78.678 26.5238 78.9085 26.43 79.135 26.2425C79.3694 26.0472 79.5765 25.7464 79.7562 25.3401C79.9359 24.926 80.0804 24.3947 80.1898 23.7462C80.307 23.0899 80.3656 22.3047 80.3656 21.3906C80.3656 20.6405 80.3265 19.9959 80.2484 19.4568C80.1781 18.9099 80.0804 18.4607 79.9554 18.1091C79.8304 17.7497 79.682 17.4879 79.5101 17.3238C79.3382 17.152 79.1585 17.066 78.971 17.066C78.8147 17.066 78.6623 17.1246 78.5139 17.2418C78.3655 17.3512 78.2209 17.4957 78.0803 17.6754C77.9475 17.8473 77.8224 18.0466 77.7052 18.2731C77.588 18.4919 77.4787 18.7107 77.3771 18.9294C77.2833 19.1404 77.2013 19.3396 77.131 19.5271C77.0607 19.7147 77.0099 19.8631 76.9786 19.9725C76.9552 20.8085 76.9357 21.6289 76.92 22.4336C76.9122 23.2384 76.9083 24.0509 76.9083 24.8713V25.0823Z" fill="white"/>
<path d="M93.7936 28.285C93.7936 28.7459 93.6881 29.1796 93.4771 29.5858C93.2662 29.9921 92.981 30.3437 92.6216 30.6406C92.2622 30.9375 91.8403 31.1719 91.3559 31.3438C90.8715 31.5157 90.3558 31.6016 89.8089 31.6016C89.4417 31.6016 89.0705 31.5508 88.6955 31.4493C88.3205 31.3477 87.9611 31.1797 87.6173 30.9453C87.2735 30.7109 86.9493 30.4023 86.6446 30.0195C86.3398 29.6366 86.0742 29.1678 85.8476 28.6131C85.6289 28.0584 85.4531 27.4099 85.3202 26.6676C85.1952 25.9176 85.1327 25.0581 85.1327 24.0893C85.1327 23.1752 85.1952 22.3665 85.3202 21.6634C85.4531 20.9602 85.6289 20.3468 85.8476 19.8234C86.0742 19.2999 86.3359 18.8624 86.6328 18.5108C86.9297 18.1514 87.2462 17.8623 87.5821 17.6435C87.9259 17.4169 88.2775 17.2568 88.6369 17.163C89.0041 17.0692 89.3635 17.0224 89.7151 17.0224C90.2386 17.0224 90.7347 17.1083 91.2035 17.2802C91.6723 17.4443 92.0825 17.6904 92.4341 18.0185C92.7857 18.3467 93.063 18.753 93.2662 19.2374C93.4771 19.714 93.5826 20.2648 93.5826 20.8899C93.5826 21.4524 93.4654 22.0228 93.231 22.6009C93.0044 23.1713 92.6646 23.7143 92.2114 24.23C91.7582 24.7378 91.1957 25.2027 90.5238 25.6246C89.8597 26.0387 89.094 26.3668 88.2267 26.609C88.2736 27.0935 88.34 27.5349 88.4259 27.9334C88.5197 28.3318 88.633 28.6717 88.7658 28.953C88.9065 29.2343 89.0666 29.453 89.2463 29.6093C89.4338 29.7655 89.6487 29.8437 89.8909 29.8437C90.0472 29.8359 90.1956 29.8085 90.3363 29.7616C90.4613 29.7226 90.5863 29.6601 90.7113 29.5741C90.8441 29.4882 90.9535 29.3632 91.0394 29.1991C90.8363 29.1053 90.68 28.9842 90.5706 28.8358C90.4613 28.6873 90.3792 28.5467 90.3245 28.4139C90.262 28.2576 90.2269 28.0935 90.2191 27.9217C90.2191 27.5466 90.2933 27.2419 90.4417 27.0075C90.5902 26.7731 90.766 26.5895 90.9691 26.4567C91.1723 26.3239 91.3793 26.234 91.5903 26.1871C91.8012 26.1324 91.9692 26.1051 92.0942 26.1051C92.227 26.1051 92.3872 26.1324 92.5747 26.1871C92.77 26.2418 92.9576 26.3473 93.1373 26.5036C93.317 26.6598 93.4693 26.8825 93.5943 27.1716C93.7271 27.4529 93.7936 27.824 93.7936 28.285ZM90.8988 20.9133C90.8988 20.632 90.8715 20.3664 90.8168 20.1164C90.7699 19.8585 90.6957 19.6358 90.5941 19.4483C90.5003 19.2608 90.3792 19.1124 90.2308 19.003C90.0901 18.8858 89.9261 18.8272 89.7385 18.8272C89.4182 18.8272 89.1565 18.9756 88.9533 19.2725C88.7502 19.5616 88.5861 19.9484 88.4611 20.4328C88.3361 20.9172 88.2502 21.4758 88.2033 22.1087C88.1564 22.7416 88.133 23.4018 88.133 24.0893V24.9449C88.5314 24.7339 88.8986 24.4839 89.2346 24.1948C89.5784 23.9057 89.8714 23.5893 90.1136 23.2455C90.3636 22.8939 90.555 22.5228 90.6878 22.1321C90.8285 21.7415 90.8988 21.3352 90.8988 20.9133Z" fill="white"/>
<path d="M104.01 20.1046C103.51 20.8391 103.049 21.5696 102.627 22.2962C102.205 23.015 101.811 23.7377 101.444 24.4643C101.076 25.191 100.733 25.9215 100.412 26.6559C100.092 27.3825 99.7873 28.1248 99.4982 28.8827C100.248 28.8436 101.002 28.7889 101.76 28.7186C102.518 28.6483 103.276 28.5584 104.034 28.449L104.104 31.2149C103.143 31.168 102.182 31.1446 101.221 31.1446C100.393 31.1446 99.5647 31.1602 98.7365 31.1914C97.9083 31.2227 97.0723 31.2696 96.2285 31.3321L96.1581 29.0819C96.6582 28.3397 97.127 27.6052 97.5645 26.8786C98.002 26.1442 98.4122 25.4136 98.7951 24.687C99.1857 23.9526 99.549 23.2182 99.885 22.4837C100.229 21.7415 100.561 20.9875 100.881 20.2218C100.108 20.2375 99.3615 20.2882 98.6427 20.3742C97.9317 20.4601 97.1817 20.5773 96.3925 20.7258L96.2519 17.9131C96.58 17.9287 96.9043 17.9365 97.2246 17.9365C97.545 17.9365 97.8692 17.9365 98.1974 17.9365C99.1506 17.9365 100.088 17.9209 101.01 17.8896C101.932 17.8506 102.881 17.788 103.858 17.7021L104.01 20.1046Z" fill="white"/>
<path d="M110.128 16.0764C110.128 16.3264 110.081 16.5647 109.987 16.7913C109.893 17.01 109.765 17.2014 109.6 17.3655C109.436 17.5296 109.241 17.6624 109.014 17.764C108.796 17.8577 108.561 17.9046 108.311 17.9046C108.061 17.9046 107.823 17.8577 107.596 17.764C107.378 17.6624 107.186 17.5296 107.022 17.3655C106.858 17.2014 106.725 17.01 106.624 16.7913C106.53 16.5647 106.483 16.3264 106.483 16.0764C106.483 15.8263 106.53 15.5919 106.624 15.3732C106.725 15.1466 106.858 14.9513 107.022 14.7872C107.186 14.6231 107.378 14.4942 107.596 14.4004C107.823 14.2989 108.061 14.2481 108.311 14.2481C108.561 14.2481 108.796 14.2989 109.014 14.4004C109.241 14.4942 109.436 14.6231 109.6 14.7872C109.765 14.9513 109.893 15.1466 109.987 15.3732C110.081 15.5919 110.128 15.8263 110.128 16.0764ZM110.128 19.6274C110.065 20.2446 110.011 20.9127 109.964 21.6315C109.925 22.3425 109.89 23.073 109.858 23.8231C109.835 24.5731 109.815 25.3271 109.8 26.0849C109.784 26.8428 109.772 27.5655 109.765 28.2531C109.757 28.9406 109.749 29.5852 109.741 30.1868C109.741 30.7806 109.741 31.2924 109.741 31.7221V33.0464L107.081 33.1402C107.096 32.6011 107.104 32.0776 107.104 31.5698C107.104 31.0619 107.104 30.554 107.104 30.0462C107.104 29.1633 107.096 28.3039 107.081 27.4679C107.065 26.6241 107.038 25.7802 106.999 24.9364C106.967 24.0926 106.924 23.2371 106.87 22.3698C106.815 21.5026 106.749 20.6041 106.671 19.6743L110.128 19.6274Z" fill="white"/>
<path d="M118.506 32.9995C118.459 32.7573 118.416 32.5112 118.377 32.2612C118.338 32.0112 118.307 31.7534 118.284 31.4877C117.924 32.019 117.494 32.4253 116.994 32.7066C116.494 32.9956 115.947 33.1402 115.354 33.1402C115.049 33.1402 114.736 33.0894 114.416 32.9878C114.096 32.8941 113.803 32.7261 113.537 32.4839C113.279 32.2417 113.064 31.9135 112.893 31.4994C112.728 31.0775 112.646 30.5462 112.646 29.9056C112.646 29.3743 112.725 28.9133 112.881 28.5226C113.037 28.1242 113.24 27.7765 113.49 27.4796C113.74 27.1827 114.021 26.9249 114.334 26.7061C114.647 26.4873 114.955 26.292 115.26 26.1201C115.572 25.9482 115.869 25.7881 116.151 25.6396C116.432 25.4912 116.662 25.3427 116.842 25.1943C117.186 24.9208 117.483 24.6317 117.733 24.327C117.991 24.0145 118.198 23.6902 118.354 23.3543C118.323 22.8152 118.264 22.3737 118.178 22.0299C118.1 21.6784 117.994 21.401 117.862 21.1978C117.729 20.9869 117.565 20.8424 117.369 20.7642C117.182 20.6783 116.967 20.6353 116.725 20.6353C116.365 20.6353 116.061 20.7134 115.811 20.8697C115.568 21.026 115.369 21.2135 115.213 21.4322C115.408 21.5573 115.557 21.6901 115.658 21.8307C115.768 21.9713 115.85 22.1081 115.904 22.2409C115.967 22.3893 116.002 22.5417 116.01 22.698C116.01 23.2293 115.858 23.6355 115.553 23.9168C115.256 24.1981 114.873 24.3387 114.404 24.3387C114.162 24.3387 113.939 24.284 113.736 24.1746C113.533 24.0574 113.353 23.8973 113.197 23.6941C113.049 23.491 112.932 23.2488 112.846 22.9675C112.76 22.6862 112.717 22.3815 112.717 22.0534C112.717 21.7252 112.791 21.3776 112.939 21.0103C113.088 20.6431 113.326 20.3032 113.654 19.9907C113.982 19.6704 114.404 19.4086 114.92 19.2055C115.436 18.9946 116.061 18.8891 116.795 18.8891C117.53 18.8891 118.159 19.0336 118.682 19.3227C119.205 19.604 119.635 19.9829 119.971 20.4595C120.307 20.9283 120.549 21.4713 120.698 22.0885C120.854 22.7058 120.932 23.3425 120.932 23.9988C120.932 24.4911 120.928 25.0263 120.92 25.6044C120.913 26.1826 120.909 26.7764 120.909 27.3858C120.909 27.8937 120.913 28.4015 120.92 28.9094C120.928 29.4172 120.944 29.9095 120.967 30.3861C120.991 30.8549 121.022 31.3002 121.061 31.7221C121.1 32.1362 121.151 32.5073 121.213 32.8355L118.506 32.9995ZM118.33 26.1318C118.057 26.46 117.764 26.7412 117.451 26.9756C117.217 27.1397 116.963 27.3233 116.69 27.5265C116.424 27.7296 116.174 27.9445 115.94 28.171C115.713 28.3976 115.522 28.6359 115.365 28.8859C115.217 29.1282 115.143 29.3782 115.143 29.636C115.143 29.9876 115.229 30.2884 115.401 30.5384C115.572 30.7884 115.815 30.9134 116.127 30.9134C116.416 30.9134 116.674 30.8353 116.901 30.6791C117.127 30.5228 117.326 30.3314 117.498 30.1048C117.678 29.8704 117.826 29.6204 117.944 29.3547C118.069 29.0891 118.166 28.8469 118.237 28.6281L118.33 26.1318Z" fill="white"/>
<path d="M127.177 16.2086C127.13 17.1618 127.087 18.0446 127.048 18.8572C127.009 19.6698 126.974 20.4354 126.942 21.1543C126.919 21.8731 126.9 22.5567 126.884 23.2052C126.868 23.8537 126.853 24.4944 126.837 25.1272C126.829 25.7601 126.821 26.3969 126.814 27.0375C126.814 27.6782 126.814 28.3501 126.814 29.0533C126.814 29.8346 126.814 30.6706 126.814 31.5613C126.814 32.452 126.821 33.4404 126.837 34.5264L124.177 34.4678C124.224 33.288 124.255 32.1278 124.27 30.9871C124.286 29.8385 124.294 28.6627 124.294 27.4594C124.294 26.6547 124.29 25.8304 124.282 24.9866C124.274 24.135 124.263 23.2482 124.247 22.3262C124.231 21.3965 124.212 20.4198 124.188 19.3963C124.173 18.3728 124.153 17.2868 124.13 16.1382L127.177 16.2086Z" fill="white"/>
<path d="M133.536 18.1573C133.457 19.3293 133.391 20.3958 133.336 21.3568C133.282 22.31 133.235 23.2046 133.196 24.0406C133.164 24.8766 133.141 25.6774 133.125 26.4431C133.11 27.2088 133.102 27.9862 133.102 28.7753C133.477 28.3612 133.825 27.9198 134.145 27.451C134.465 26.9744 134.754 26.4861 135.012 25.986C135.278 25.4782 135.508 24.9625 135.704 24.439C135.907 23.9156 136.079 23.3999 136.219 22.892L139.395 23.1733C139.036 23.9312 138.68 24.6031 138.329 25.1891C137.977 25.7751 137.637 26.2908 137.309 26.7361C136.989 27.1736 136.688 27.5448 136.407 27.8495C136.133 28.1542 135.887 28.4042 135.669 28.5995C135.997 28.7089 136.282 28.8378 136.524 28.9863C136.766 29.1347 136.966 29.2754 137.122 29.4082C137.309 29.5644 137.466 29.7285 137.591 29.9004C137.739 30.1426 137.856 30.42 137.942 30.7325C138.036 31.0372 138.114 31.3615 138.177 31.7052C138.247 32.049 138.313 32.4084 138.376 32.7834C138.446 33.1507 138.532 33.5218 138.634 33.8968C138.735 34.2718 138.868 34.643 139.032 35.0102C139.196 35.3696 139.411 35.7134 139.677 36.0415H136.559C136.403 35.643 136.274 35.2407 136.172 34.8344C136.079 34.4281 136.001 34.0609 135.938 33.7327C135.868 33.3499 135.817 32.9749 135.786 32.6077C135.715 32.1311 135.579 31.7052 135.376 31.3302C135.29 31.1661 135.18 31.0099 135.047 30.8614C134.922 30.7052 134.77 30.5684 134.59 30.4512C134.418 30.3262 134.219 30.2286 133.993 30.1582C133.766 30.0801 133.508 30.041 133.219 30.041H133.102C133.102 30.9239 133.106 31.8654 133.114 32.8655C133.129 33.8656 133.157 34.9906 133.196 36.2407L130.289 36.1821C130.36 35.0805 130.422 34.0765 130.477 33.1702C130.531 32.2639 130.574 31.4162 130.606 30.627C130.645 29.8301 130.672 29.0722 130.688 28.3534C130.711 27.6346 130.723 26.908 130.723 26.1736C130.723 25.6188 130.719 25.0485 130.711 24.4625C130.703 23.8687 130.688 23.2475 130.664 22.5991C130.649 21.9428 130.625 21.2474 130.594 20.513C130.563 19.7707 130.528 18.9699 130.488 18.1104L133.536 18.1573Z" fill="white"/>
<path d="M147.649 36.4283C147.602 36.1861 147.559 35.9399 147.52 35.6899C147.481 35.4399 147.45 35.1821 147.426 34.9164C147.067 35.4477 146.637 35.854 146.137 36.1353C145.637 36.4244 145.09 36.5689 144.496 36.5689C144.192 36.5689 143.879 36.5181 143.559 36.4165C143.239 36.3228 142.946 36.1548 142.68 35.9126C142.422 35.6704 142.207 35.3422 142.035 34.9281C141.871 34.5062 141.789 33.9749 141.789 33.3343C141.789 32.803 141.867 32.342 142.024 31.9513C142.18 31.5529 142.383 31.2052 142.633 30.9083C142.883 30.6114 143.164 30.3536 143.477 30.1348C143.789 29.916 144.098 29.7207 144.403 29.5488C144.715 29.3769 145.012 29.2168 145.293 29.0683C145.575 28.9199 145.805 28.7714 145.985 28.623C146.329 28.3495 146.626 28.0604 146.876 27.7557C147.133 27.4432 147.34 27.1189 147.497 26.783C147.465 26.2439 147.407 25.8024 147.321 25.4587C147.243 25.1071 147.137 24.8297 147.004 24.6266C146.872 24.4156 146.708 24.2711 146.512 24.1929C146.325 24.107 146.11 24.064 145.868 24.064C145.508 24.064 145.204 24.1421 144.954 24.2984C144.711 24.4547 144.512 24.6422 144.356 24.861C144.551 24.986 144.7 25.1188 144.801 25.2594C144.911 25.4001 144.993 25.5368 145.047 25.6696C145.11 25.8181 145.145 25.9704 145.153 26.1267C145.153 26.658 145 27.0642 144.696 27.3455C144.399 27.6268 144.016 27.7674 143.547 27.7674C143.305 27.7674 143.082 27.7127 142.879 27.6034C142.676 27.4862 142.496 27.326 142.34 27.1228C142.192 26.9197 142.074 26.6775 141.988 26.3962C141.903 26.115 141.86 25.8102 141.86 25.4821C141.86 25.1539 141.934 24.8063 142.082 24.439C142.231 24.0718 142.469 23.732 142.797 23.4194C143.125 23.0991 143.547 22.8374 144.063 22.6342C144.578 22.4233 145.204 22.3178 145.938 22.3178C146.672 22.3178 147.301 22.4623 147.825 22.7514C148.348 23.0327 148.778 23.4116 149.114 23.8882C149.45 24.357 149.692 24.9 149.841 25.5173C149.997 26.1345 150.075 26.7713 150.075 27.4276C150.075 27.9198 150.071 28.455 150.063 29.0332C150.055 29.6113 150.052 30.2051 150.052 30.8145C150.052 31.3224 150.055 31.8302 150.063 32.3381C150.071 32.8459 150.087 33.3382 150.11 33.8148C150.134 34.2836 150.165 34.7289 150.204 35.1508C150.243 35.5649 150.294 35.936 150.356 36.2642L147.649 36.4283ZM147.473 29.5605C147.2 29.8887 146.907 30.17 146.594 30.4044C146.36 30.5684 146.106 30.752 145.832 30.9552C145.567 31.1583 145.317 31.3732 145.082 31.5998C144.856 31.8263 144.664 32.0646 144.508 32.3147C144.36 32.5569 144.286 32.8069 144.286 33.0647C144.286 33.4163 144.371 33.7171 144.543 33.9671C144.715 34.2172 144.957 34.3422 145.27 34.3422C145.559 34.3422 145.817 34.264 146.043 34.1078C146.27 33.9515 146.469 33.7601 146.641 33.5335C146.821 33.2991 146.969 33.0491 147.087 32.7834C147.212 32.5178 147.309 32.2756 147.379 32.0568L147.473 29.5605Z" fill="white"/>
<path d="M156.253 37.3516L153.124 37.586C153.249 36.1874 153.339 34.8397 153.394 33.5427C153.456 32.2379 153.487 30.9331 153.487 29.6283C153.487 28.7064 153.472 27.7844 153.44 26.8625C153.417 25.9327 153.37 24.9795 153.3 24.0029L155.937 23.8623C155.921 24.0342 155.909 24.2021 155.902 24.3662C155.894 24.5303 155.89 24.6905 155.89 24.8467C156.163 24.4248 156.46 24.0967 156.78 23.8623C157.109 23.6201 157.413 23.4443 157.695 23.3349C158.015 23.2021 158.339 23.12 158.667 23.0888C159.238 23.0888 159.726 23.1786 160.132 23.3583C160.539 23.5302 160.871 23.7568 161.128 24.0381C161.386 24.3115 161.574 24.6201 161.691 24.9639C161.808 25.2999 161.867 25.628 161.867 25.9484C161.867 26.2765 161.832 26.6086 161.761 26.9445C161.691 27.2805 161.57 27.5852 161.398 27.8587C161.234 28.1243 161.011 28.3431 160.73 28.515C160.457 28.679 160.117 28.7611 159.71 28.7611C159.304 28.7611 158.984 28.6869 158.749 28.5384C158.515 28.39 158.335 28.2142 158.21 28.011C158.093 27.8001 158.015 27.5852 157.976 27.3664C157.945 27.1399 157.929 26.9484 157.929 26.7922C157.929 26.6828 157.949 26.5617 157.988 26.4289C158.027 26.2882 158.085 26.1476 158.163 26.007C158.242 25.8663 158.339 25.7296 158.456 25.5968C158.574 25.4561 158.71 25.3272 158.867 25.21C158.82 25.1944 158.769 25.1827 158.714 25.1749C158.667 25.1671 158.62 25.1632 158.574 25.1632C158.183 25.1632 157.835 25.2882 157.531 25.5382C157.226 25.7804 156.96 26.1203 156.734 26.5578C156.515 26.9953 156.331 27.511 156.183 28.1048C156.042 28.6986 155.937 29.3471 155.866 30.0503C155.905 31.2613 155.96 32.4606 156.03 33.6482C156.101 34.8358 156.175 36.0703 156.253 37.3516Z" fill="white"/>
<path d="M168.423 19.8482C168.36 20.653 168.31 21.446 168.271 22.2273C168.232 23.0008 168.192 23.7782 168.153 24.5595C168.497 24.5439 168.837 24.5322 169.173 24.5244C169.509 24.5087 169.853 24.4892 170.204 24.4658L170.251 27.466C169.876 27.4035 169.505 27.3527 169.138 27.3136C168.771 27.2746 168.411 27.2433 168.06 27.2199C168.036 27.884 168.021 28.5403 168.013 29.1888C168.013 29.8373 168.013 30.4936 168.013 31.1577C168.013 32.3453 168.025 33.5251 168.048 34.697C168.079 35.869 168.126 37.0488 168.189 38.2364L165.13 38.1895C165.231 36.3534 165.313 34.5212 165.376 32.693C165.446 30.8569 165.493 29.0091 165.516 27.1496C165.188 27.1652 164.86 27.1847 164.532 27.2082C164.204 27.2238 163.868 27.2433 163.524 27.2668L163.618 24.4892C163.938 24.5126 164.255 24.5322 164.567 24.5478C164.888 24.5556 165.204 24.5673 165.516 24.583C165.516 23.8017 165.509 23.0243 165.493 22.2508C165.477 21.4694 165.462 20.6842 165.446 19.8951L168.423 19.8482Z" fill="white"/>
<path d="M180.563 35.1424C180.563 35.6034 180.458 36.037 180.247 36.4433C180.036 36.8495 179.751 37.2011 179.391 37.498C179.032 37.7949 178.61 38.0293 178.125 38.2012C177.641 38.3731 177.125 38.459 176.578 38.459C176.211 38.459 175.84 38.4083 175.465 38.3067C175.09 38.2051 174.731 38.0371 174.387 37.8027C174.043 37.5684 173.719 37.2597 173.414 36.8769C173.109 36.494 172.844 36.0253 172.617 35.4705C172.398 34.9158 172.223 34.2673 172.09 33.5251C171.965 32.775 171.902 31.9156 171.902 30.9467C171.902 30.0326 171.965 29.224 172.09 28.5208C172.223 27.8176 172.398 27.2043 172.617 26.6808C172.844 26.1573 173.105 25.7198 173.402 25.3682C173.699 25.0088 174.016 24.7197 174.352 24.5009C174.695 24.2743 175.047 24.1142 175.406 24.0204C175.774 23.9267 176.133 23.8798 176.485 23.8798C177.008 23.8798 177.504 23.9657 177.973 24.1376C178.442 24.3017 178.852 24.5478 179.204 24.876C179.555 25.2041 179.833 25.6104 180.036 26.0948C180.247 26.5714 180.352 27.1222 180.352 27.7473C180.352 28.3098 180.235 28.8802 180.001 29.4583C179.774 30.0287 179.434 30.5717 178.981 31.0874C178.528 31.5952 177.965 32.0601 177.293 32.482C176.629 32.8961 175.863 33.2243 174.996 33.4665C175.043 33.9509 175.11 34.3923 175.195 34.7908C175.289 35.1893 175.403 35.5291 175.535 35.8104C175.676 36.0917 175.836 36.3104 176.016 36.4667C176.203 36.623 176.418 36.7011 176.66 36.7011C176.817 36.6933 176.965 36.6659 177.106 36.6191C177.231 36.58 177.356 36.5175 177.481 36.4315C177.614 36.3456 177.723 36.2206 177.809 36.0565C177.606 35.9628 177.45 35.8417 177.34 35.6932C177.231 35.5448 177.149 35.4041 177.094 35.2713C177.032 35.115 176.996 34.951 176.989 34.7791C176.989 34.404 177.063 34.0993 177.211 33.8649C177.36 33.6305 177.536 33.4469 177.739 33.3141C177.942 33.1813 178.149 33.0914 178.36 33.0446C178.571 32.9899 178.739 32.9625 178.864 32.9625C178.997 32.9625 179.157 32.9899 179.344 33.0446C179.54 33.0993 179.727 33.2047 179.907 33.361C180.086 33.5173 180.239 33.7399 180.364 34.029C180.497 34.3103 180.563 34.6814 180.563 35.1424ZM177.668 27.7707C177.668 27.4894 177.641 27.2238 177.586 26.9738C177.539 26.7159 177.465 26.4933 177.364 26.3058C177.27 26.1182 177.149 25.9698 177 25.8604C176.86 25.7432 176.696 25.6846 176.508 25.6846C176.188 25.6846 175.926 25.8331 175.723 26.13C175.52 26.419 175.356 26.8058 175.231 27.2902C175.106 27.7746 175.02 28.3333 174.973 28.9661C174.926 29.599 174.902 30.2592 174.902 30.9467V31.8023C175.301 31.5913 175.668 31.3413 176.004 31.0522C176.348 30.7631 176.641 30.4467 176.883 30.1029C177.133 29.7513 177.325 29.3802 177.457 28.9896C177.598 28.5989 177.668 28.1926 177.668 27.7707Z" fill="white"/>
<defs>
<filter id="filter0_d_1587_9441" x="0.285645" y="1.32715" width="252" height="50.6166" filterUnits="userSpaceOnUse" color-interpolation-filters="sRGB">
<feFlood flood-opacity="0" result="BackgroundImageFix"/>
<feColorMatrix in="SourceAlpha" type="matrix" values="0 0 0 0 0 0 0 0 0 0 0 0 0 0 0 0 0 0 127 0" result="hardAlpha"/>
<feOffset dx="12" dy="3.42857"/>
<feColorMatrix type="matrix" values="0 0 0 0 0 0 0 0 0 0 0 0 0 0 0 0 0 0 0.18 0"/>
<feBlend mode="normal" in2="BackgroundImageFix" result="effect1_dropShadow_1587_9441"/>
<feBlend mode="normal" in="SourceGraphic" in2="effect1_dropShadow_1587_9441" result="shape"/>
</filter>
</defs>
</svg>
