<svg width="253" height="52" fill="none" xmlns="http://www.w3.org/2000/svg"><g filter="url(#a)"><path d="M.3 4C43.9.8 69.6 0 120.3 4c48.3 5.7 74.9 5.3 120 0L224 25.4 240.3 45c-44.8 3.3-74.9 5-120 1.2-47.6-6.9-70-5.6-120-1.2l15.4-19.7L.3 4Z" fill="#C62222"/></g><path d="m22.2 24.4-11.8-16c41.1-3 64.5-2.8 108.9 1 46.3 3.6 70 5 108.4 2l-11 12.9-.9 1.1 1 1.2 13 14.5a682 682 0 0 1-109.3-.3c-43.2-5.7-62-6-107.1-2.5l8.8-11.9.8-1-.8-1Z" stroke="#FFEF60" stroke-width="3.4"/><path d="M72.3 24.3c0 .9-.3 1.6-.6 2.2-.3.6-.7 1-1.2 1.4-.5.4-1 .6-1.5.7a7 7 0 0 1-1.7.3c-.6 0-1.2-.1-1.7-.3-.6-.1-1-.4-1.5-.7-.4-.3-.7-.7-1-1.2-.2-.5-.3-1-.3-1.7 0-.5 0-1 .2-1.3l.6-.8.7-.4a2.3 2.3 0 0 1 1.4 0c.3 0 .5.2.7.3l.5.7a2.4 2.4 0 0 1 .2 1.3l-.2.4c0 .2-.2.4-.3.5l-.7.4c.2.3.4.5.7.6l.8.2a2.7 2.7 0 0 0 1.4-.4l.6-.7c.2-.3.2-.6.2-1 0-.6 0-1-.2-1.4l-.7-1-.8-.8a13.5 13.5 0 0 0-1.7-1 11.1 11.1 0 0 1-1.8-1.3l-.8-1-.6-1.2-.2-1.5a5 5 0 0 1 1.5-3.6l1.6-1 1.7-.2c.6 0 1.2 0 1.7.2l1.4.7 1 1 .3 1.5c0 .5 0 1-.3 1.2a2 2 0 0 1-1.3 1h-1.2l-.5-.4c-.2 0-.3-.3-.4-.5-.2-.2-.2-.4-.2-.7v-.5l.2-.5c0-.2.1-.3.3-.5a2 2 0 0 0-.7-.4h-.4a2 2 0 0 0-1.2.4 1.8 1.8 0 0 0-.7 1.5l.2 1 .6.9 1 .8 1.3 1 1.6 1.2 1.2 1.2a4.6 4.6 0 0 1 .8 2.8v.6ZM74 33a129.4 129.4 0 0 0 .5-17.4H77v1.3c.3-.7.7-1.2 1.1-1.6.5-.3 1-.5 1.4-.5a3 3 0 0 1 2.7 1.6c.4.5.6 1.2.8 2A16.3 16.3 0 0 1 83 25c-.2 1-.5 1.7-1 2.3-.3.5-.7 1-1.2 1.2a3 3 0 0 1-1.4.4 3 3 0 0 1-.8-.2 4 4 0 0 1-.8-.4l-.9-.9a170 170 0 0 0 .2 5.7H74Zm3-8a6.8 6.8 0 0 0 .5 1l.5.4.4.1c.3 0 .5 0 .7-.3.3-.2.5-.5.7-.9l.4-1.6a13.6 13.6 0 0 0-.2-5.6 2 2 0 0 0-.5-.8l-.5-.2-.5.1-.4.5A12.9 12.9 0 0 0 77 20a290.5 290.5 0 0 0 0 4.9v.2ZM93.8 28.3c0 .4-.1.9-.3 1.3-.2.4-.5.7-.9 1-.3.3-.8.6-1.2.7a4.6 4.6 0 0 1-2.7.1c-.4 0-.7-.2-1-.5-.4-.2-.8-.5-1-.9-.4-.4-.6-.8-.9-1.4l-.5-2a15.8 15.8 0 0 1 0-5l.5-1.8.8-1.3 1-.9 1-.4a4.3 4.3 0 0 1 2.6 0 3.5 3.5 0 0 1 2 2c.3.5.4 1 .4 1.7 0 .6-.1 1.1-.4 1.7-.2.6-.5 1.1-1 1.6a8.8 8.8 0 0 1-4 2.4l.2 1.3c.1.4.2.8.4 1l.4.7c.2.2.4.2.7.2a1.7 1.7 0 0 0 .8-.2c.1-.1.3-.2.3-.4-.2 0-.3-.2-.4-.4a1.5 1.5 0 0 1-.4-1c0-.3 0-.6.2-.8a1.8 1.8 0 0 1 1.2-.8h1c.2 0 .4.1.5.3l.5.7.2 1Zm-2.9-7.4a3.7 3.7 0 0 0-.3-1.5l-.4-.4a.7.7 0 0 0-.5-.2 1 1 0 0 0-.7.5c-.2.3-.4.6-.5 1.1-.2.5-.2 1-.3 1.7V25a6 6 0 0 0 2-1.7 4.3 4.3 0 0 0 .7-2.3ZM104 20.1a36.3 36.3 0 0 0-4.5 8.8 56.2 56.2 0 0 0 4.5-.5l.1 2.8a59.1 59.1 0 0 0-7.9.1v-2.2a51.3 51.3 0 0 0 4.7-8.9 22.7 22.7 0 0 0-4.5.5l-.1-2.8h1.9a82.9 82.9 0 0 0 5.7-.2l.1 2.4ZM110.1 16a1.8 1.8 0 0 1-.5 1.4 1.8 1.8 0 0 1-1.3.5l-.7-.1a2 2 0 0 1-1-1 1.8 1.8 0 0 1 .4-2 1.8 1.8 0 0 1 3.1 1.3Zm0 3.6a55.5 55.5 0 0 0-.3 8.7V33l-2.7.1V30a143.7 143.7 0 0 0-.4-10.3h3.4ZM118.5 33a20.3 20.3 0 0 1-.2-1.5c-.4.5-.8 1-1.3 1.2a3.2 3.2 0 0 1-2.6.3l-.9-.5-.6-1c-.2-.4-.3-1-.3-1.6a3.7 3.7 0 0 1 1.7-3.2 11.3 11.3 0 0 1 1.9-1l.6-.5 1-.9.6-1-.2-1.3-.3-.8a1 1 0 0 0-.5-.4l-.7-.2-.9.3-.6.5.5.4.2.4.1.5c0 .5-.1 1-.4 1.2-.3.3-.7.4-1.2.4l-.7-.1-.5-.5-.4-.7v-1l.1-1c.2-.4.4-.7.8-1 .3-.3.7-.6 1.2-.8a5 5 0 0 1 1.9-.3c.7 0 1.4.1 1.9.4.5.3 1 .7 1.3 1.2.3.4.5 1 .7 1.6.2.6.2 1.2.2 1.9a116.6 116.6 0 0 1 0 6.4 32.7 32.7 0 0 0 .3 2.4l-2.7.2Zm-.2-6.9c-.2.4-.5.6-.8.9a33.4 33.4 0 0 0-1.6 1.2 4 4 0 0 0-.5.7c-.2.2-.3.5-.3.7 0 .4.1.7.3 1 .2.2.4.3.7.3.3 0 .6 0 .8-.2l.6-.6.4-.7.3-.8.1-2.5ZM127.2 16.2a2033.7 2033.7 0 0 0-.3 7v11.4l-2.7-.1a130.6 130.6 0 0 0 0-12.2 468.2 468.2 0 0 0 0-6.2l3 .1ZM133.5 18.2a316.7 316.7 0 0 0-.4 10.6 12.3 12.3 0 0 0 2.6-4.4l.5-1.5 3.2.3a23.6 23.6 0 0 1-3 4.6l-.7.8a4.1 4.1 0 0 1 1.9 1.3c.1.2.3.5.3.8l.3 1a32 32 0 0 1 .4 2.2l.4 1.1.7 1h-3.1a10 10 0 0 1-.7-2.3l-.1-1c0-.6-.2-1-.4-1.4l-.4-.4a2 2 0 0 0-.4-.4 2.4 2.4 0 0 0-1.4-.4h-.1a354.1 354.1 0 0 0 .1 6.1h-3a796.5 796.5 0 0 0 .5-11.7 79.2 79.2 0 0 0-.2-6.4h3ZM147.6 36.4a20.3 20.3 0 0 1-.2-1.5c-.3.5-.8 1-1.3 1.2a3.2 3.2 0 0 1-2.5.3c-.4 0-.7-.2-1-.5l-.6-1-.2-1.6a3.7 3.7 0 0 1 1.7-3.2 11.2 11.2 0 0 1 1.8-1l.7-.5.9-.8.6-1c0-.6 0-1-.2-1.3 0-.4-.2-.7-.3-.9a1 1 0 0 0-.5-.4l-.6-.1c-.4 0-.7 0-1 .2-.2.2-.4.3-.5.6.2 0 .3.2.4.4l.2.4.2.4c0 .6-.2 1-.5 1.2-.3.3-.7.5-1.2.5-.2 0-.4 0-.6-.2l-.6-.5-.3-.7-.1-1c0-.2 0-.6.2-1l.7-1c.3-.3.7-.6 1.3-.8a5 5 0 0 1 1.8-.3c.8 0 1.4.2 2 .5.4.2.9.6 1.2 1 .3.6.6 1.1.7 1.7.2.6.3 1.3.3 2a116.6 116.6 0 0 1 0 6.3 32.7 32.7 0 0 0 .3 2.5l-2.8.1Zm-.1-6.8-1 .8a35.3 35.3 0 0 0-1.4 1.2 4 4 0 0 0-.6.7l-.2.8c0 .3 0 .6.2.9.2.2.5.3.8.3.3 0 .5 0 .7-.2.3-.1.5-.3.6-.6l.5-.7.3-.7v-2.5ZM156.3 37.4l-3.2.2a86.8 86.8 0 0 0 .2-13.6l2.6-.1a10 10 0 0 0 0 1 3.7 3.7 0 0 1 1.8-1.6l1-.2c.5 0 1 0 1.4.3.4.1.8.4 1 .6.3.3.5.6.6 1l.2 1-.1 1-.4.9a2 2 0 0 1-.7.6 2 2 0 0 1-1 .3c-.4 0-.7-.1-1-.3l-.5-.5a2 2 0 0 1-.2-.6v-1c0-.1 0-.3.2-.4l.3-.4.4-.4a.9.9 0 0 0-.3 0c-.4 0-.8 0-1 .3a3 3 0 0 0-.9 1l-.5 1.6a15 15 0 0 0-.3 2 135 135 0 0 0 .4 7.3ZM168.4 19.8l-.1 2.4-.1 2.4a46.2 46.2 0 0 1 2-.1v3a19 19 0 0 0-2.1-.3v4a180.4 180.4 0 0 0 0 7h-3a268.3 268.3 0 0 0 .4-11 41 41 0 0 0-2 0l.1-2.7a41.3 41.3 0 0 0 2 0l-.1-2.2v-2.4h3ZM180.6 35.1c0 .5-.1 1-.4 1.3-.2.4-.4.8-.8 1.1l-1.3.7a4.6 4.6 0 0 1-2.6.1c-.4 0-.8-.3-1.1-.5-.4-.2-.7-.5-1-1l-.8-1.3-.5-2a15.8 15.8 0 0 1 0-5l.5-1.8.8-1.3c.3-.4.6-.7 1-.9l1-.5a4.4 4.4 0 0 1 2.6.1 3.5 3.5 0 0 1 2 2c.2.5.4 1 .4 1.6 0 .6-.2 1.2-.4 1.8l-1 1.6c-.5.5-1 1-1.7 1.4l-2.3 1 .2 1.3c0 .4.2.7.3 1l.5.7.7.2a1.7 1.7 0 0 0 .8-.3l.3-.3-.5-.4a2 2 0 0 1-.2-.4l-.1-.5c0-.4 0-.7.2-1a1.8 1.8 0 0 1 1.2-.8h.9l.6.4.5.6.2 1.1Zm-3-7.3a3.7 3.7 0 0 0-.2-1.5l-.4-.4a.7.7 0 0 0-.5-.2 1 1 0 0 0-.8.4l-.5 1.2-.2 1.7-.1 2v.8a6 6 0 0 0 2-1.7 4.3 4.3 0 0 0 .8-2.3Z" fill="#fff"/><defs><filter id="a" x=".3" y="1.3" width="252" height="50.6" filterUnits="userSpaceOnUse" color-interpolation-filters="sRGB"><feFlood flood-opacity="0" result="BackgroundImageFix"/><feColorMatrix in="SourceAlpha" values="0 0 0 0 0 0 0 0 0 0 0 0 0 0 0 0 0 0 127 0" result="hardAlpha"/><feOffset dx="12" dy="3.4"/><feColorMatrix values="0 0 0 0 0 0 0 0 0 0 0 0 0 0 0 0 0 0 0.18 0"/><feBlend in2="BackgroundImageFix" result="effect1_dropShadow_1587_9441"/><feBlend in="SourceGraphic" in2="effect1_dropShadow_1587_9441" result="shape"/></filter></defs></svg>