<svg width="34" height="83" fill="none" xmlns="http://www.w3.org/2000/svg"><g filter="url(#a)"><path d="m19.1 15.7-8.8 1.6a84.2 84.2 0 0 0 .2-7.7l-.1-1.1-.4-.8.7-1 1.5-1.4L14.7 7h.1l.1.1h.1l.5.6 1.2 2c.8 1.6 1.7 3.6 2.4 6ZM10 7.9Z" fill="#FCA21B" stroke="red" stroke-width="2.1"/><path d="M25.6 73.3A1288 1288 0 0 0 9.1 19.6c3.6-1.7 5.8-2.3 10.3-2.1l9.3 54.8-3 1Z" fill="#6A5A50"/><path d="M9.1 19.6c2-1.4 7.2-3.7 11.4-2.1M9 19.5c1.2-7.9.6-11-3.1-14.4.7-.7 3.1-.4 7.2 6.2L9.1 2c1.7.7 5.6 3.7 7.2 10.3-1-1-2.7-2-1 2.1m-6.2 5.2 4.6 15m6.8-17.1L22.7 32m-2.2-14.5c-1-7.2-4.9-12.7-6.2-12.4M22.7 32h5v11.3h-3.3M22.7 32l-9 2.6m9-2.6 1.7 11.3m-10.7-8.7 3.4 10.8m0 0 8.5 28 3.1-1.1-4.3-29M17 45.4l7.3-2" stroke="#000" stroke-width="2.1"/></g><defs><filter id="a" x=".5" y=".1" width="33.4" height="82.5" filterUnits="userSpaceOnUse" color-interpolation-filters="sRGB"><feFlood flood-opacity="0" result="BackgroundImageFix"/><feColorMatrix in="SourceAlpha" values="0 0 0 0 0 0 0 0 0 0 0 0 0 0 0 0 0 0 127 0" result="hardAlpha"/><feOffset dy="4"/><feGaussianBlur stdDeviation="2"/><feComposite in2="hardAlpha" operator="out"/><feColorMatrix values="0 0 0 0 0 0 0 0 0 0 0 0 0 0 0 0 0 0 0.25 0"/><feBlend in2="BackgroundImageFix" result="effect1_dropShadow_1617_9662"/><feBlend in="SourceGraphic" in2="effect1_dropShadow_1617_9662" result="shape"/></filter></defs></svg>