<svg width="142" height="62" viewBox="0 0 142 62" fill="none" xmlns="http://www.w3.org/2000/svg">
<path d="M141.308 25.8871C141.797 25.219 141.653 24.2803 140.985 23.7905L130.097 15.8087C129.429 15.3188 128.49 15.4634 128.001 16.1315C127.511 16.7996 127.655 17.7383 128.323 18.2281L138.001 25.3231L130.906 35.001C130.416 35.6691 130.561 36.6078 131.229 37.0976C131.897 37.5874 132.836 37.4428 133.326 36.7747L141.308 25.8871ZM109.228 31.2716L140.326 26.4828L139.87 23.5177L108.771 28.3065L109.228 31.2716Z" fill="#C62222"/>
<rect x="1.85094" y="0.282232" width="21.4519" height="36.4631" transform="matrix(0.837591 -0.546298 0.636713 0.771101 41.0701 26.7823)" fill="white" stroke="black" stroke-width="2.51093"/>
<rect x="1.65672" y="0.799975" width="22.0906" height="35.3153" transform="matrix(0.955728 -0.294252 0.36388 0.931446 55.7315 15.9442)" fill="white" stroke="black" stroke-width="2.51093"/>
<rect x="1.00165" y="1.42553" width="22.2904" height="34.9347" transform="matrix(0.988113 0.153731 -0.190282 0.98173 77.3576 9.81566)" fill="white" stroke="black" stroke-width="2.51093"/>
<g filter="url(#filter0_d_1570_9271)">
<rect width="26.6448" height="40.1553" transform="matrix(0.90804 0.418884 -0.504816 0.863227 102.22 6.38159)" fill="#89C6A7"/>
<rect x="0.554532" y="1.76322" width="23.8943" height="37.4048" transform="matrix(0.90804 0.418884 -0.504816 0.863227 103.161 6.39047)" stroke="black" stroke-width="2.75049"/>
</g>
<path d="M21.1677 41.9866C21.1677 41.4724 20.7779 41.0421 20.2663 40.9914C20.0781 40.9728 19.8959 41.0078 19.7359 41.0845C19.7294 41.0861 19.7223 41.0878 19.7146 41.0897C19.5915 41.1188 19.3889 41.1601 19.0959 41.2141C18.5316 41.318 17.7424 41.4323 16.7193 41.5563C15.7011 41.6798 14.5008 41.8037 13.1173 41.9281C12.2137 42.0093 11.2647 42.0739 10.2703 42.1218C10.4492 41.7543 10.6567 41.3553 10.8941 40.9241C11.4515 39.9242 12.2608 38.8603 13.3422 37.7338L13.3423 37.7338L13.3468 37.729C14.1838 36.8455 15.0759 35.9301 16.0233 34.9827C17.036 33.97 17.9647 32.8535 18.8099 31.6345L18.8133 31.6294C19.678 30.3656 20.387 28.9528 20.9442 27.3965C21.5382 25.766 21.824 23.9207 21.824 21.8772C21.824 20.1529 21.5226 18.5974 20.8872 17.2372C20.2742 15.9098 19.4635 14.7813 18.4478 13.8699C17.4594 12.9689 16.3296 12.2916 15.0657 11.8414C13.8225 11.3986 12.5608 11.1741 11.2849 11.1741C10.0207 11.1741 8.80587 11.3509 7.64471 11.7088C6.48111 12.0518 5.43648 12.5626 4.52211 13.2481C3.61844 13.9217 2.88549 14.7428 2.33172 15.7075L2.33171 15.7074L2.32872 15.7127C1.76788 16.7035 1.49585 17.8054 1.49585 18.9944C1.49585 20.1344 1.68036 21.1544 2.1405 21.9701C2.54314 22.6839 3.04823 23.2754 3.67552 23.6936C4.23913 24.0694 4.83803 24.3304 5.46989 24.4527C5.48173 24.455 5.49362 24.4571 5.50554 24.459C6.0264 24.5403 6.48313 24.5881 6.85522 24.5881C7.36781 24.5881 7.87672 24.4956 8.37765 24.3222C8.89953 24.1415 9.37347 23.8699 9.7942 23.5111C10.239 23.1452 10.5999 22.7007 10.8763 22.1872C11.1869 21.6105 11.324 20.9652 11.324 20.2834C11.324 20.2683 11.3236 20.2532 11.3229 20.238C11.3046 19.8335 11.2494 19.4308 11.1585 19.0306C11.156 19.0196 11.1533 19.0086 11.1504 18.9977C11.0606 18.6563 10.9385 18.3 10.788 17.9302C10.7476 17.8208 10.703 17.713 10.6545 17.607C10.7878 17.5462 10.9023 17.502 10.9989 17.4713C11.1551 17.4308 11.3085 17.405 11.4597 17.393C11.8673 17.3965 12.227 17.4641 12.5474 17.5856C12.5602 17.5905 12.573 17.595 12.5859 17.5993C12.8672 17.6931 13.1227 17.8629 13.3575 18.1403C13.3664 18.1509 13.3756 18.1613 13.3849 18.1714C13.6111 18.4173 13.8313 18.8051 14.0056 19.3949L14.0056 19.3949L14.0074 19.401C14.1722 19.9462 14.2693 20.6916 14.2693 21.6663C14.2693 22.8452 14.1165 23.9178 13.8204 24.8907L13.8204 24.8907L13.8177 24.8997C13.5289 25.8818 13.1254 26.8036 12.6071 27.6674C12.0776 28.5499 11.4585 29.3906 10.7484 30.1894C10.0191 31.0099 9.23537 31.8166 8.39678 32.6096C6.89487 34.0149 5.67908 35.4472 4.76504 36.9097L4.76501 36.9097L4.76071 36.9167C3.88843 38.3382 3.21414 39.7062 2.74861 41.0197L2.74859 41.0197L2.74618 41.0266C2.30859 42.2908 2.01509 43.4529 1.87907 44.507C1.75232 45.4894 1.68335 46.2894 1.68335 46.885V46.8857V46.8865V46.8872V46.8879V46.8887V46.8894V46.8901V46.8909V46.8916V46.8923V46.893V46.8938V46.8945V46.8952V46.896V46.8967V46.8974V46.8981V46.8989V46.8996V46.9003V46.901V46.9018V46.9025V46.9032V46.9039V46.9047V46.9054V46.9061V46.9068V46.9075V46.9083V46.909V46.9097V46.9104V46.9111V46.9119V46.9126V46.9133V46.914V46.9147V46.9155V46.9162V46.9169V46.9176V46.9183V46.919V46.9198V46.9205V46.9212V46.9219V46.9226V46.9233V46.924V46.9248V46.9255V46.9262V46.9269V46.9276V46.9283V46.929V46.9297V46.9304V46.9312V46.9319V46.9326V46.9333V46.934V46.9347V46.9354V46.9361V46.9368V46.9375V46.9382V46.9389V46.9396V46.9403V46.9411V46.9418V46.9425V46.9432V46.9439V46.9446V46.9453V46.946V46.9467V46.9474V46.9481V46.9488V46.9495V46.9502V46.9509V46.9516V46.9523V46.953V46.9537V46.9544V46.9551V46.9558V46.9565V46.9572V46.9579V46.9586V46.9592V46.9599V46.9606V46.9613V46.962V46.9627V46.9634V46.9641V46.9648V46.9655V46.9662V46.9669V46.9676V46.9683V46.9689V46.9696V46.9703V46.971V46.9717V46.9724V46.9731V46.9738V46.9745V46.9751V46.9758V46.9765V46.9772V46.9779V46.9786V46.9793V46.9799V46.9806V46.9813V46.982V46.9827V46.9834V46.984V46.9847V46.9854V46.9861V46.9868V46.9874V46.9881V46.9888V46.9895V46.9902V46.9908V46.9915V46.9922V46.9929V46.9936V46.9942V46.9949V46.9956V46.9963V46.9969V46.9976V46.9983V46.999V46.9996V47.0003V47.001V47.0017V47.0023V47.003V47.0037V47.0044V47.005V47.0057V47.0064V47.007V47.0077V47.0084V47.009V47.0097V47.0104V47.0111V47.0117V47.0124V47.0131V47.0137V47.0144V47.0151V47.0157V47.0164V47.0171V47.0177V47.0184V47.019V47.0197V47.0204V47.021V47.0217V47.0224V47.023V47.0237V47.0243V47.025V47.0257V47.0263V47.027V47.0276V47.0283V47.029V47.0296V47.0303V47.0309V47.0316V47.0322V47.0329V47.0336V47.0342V47.0349V47.0355V47.0362V47.0368V47.0375V47.0381V47.0388V47.0394V47.0401V47.0408V47.0414V47.0421V47.0427V47.0434V47.044V47.0447V47.0453V47.046V47.0466V47.0473V47.0479V47.0485V47.0492V47.0498V47.0505V47.0511V47.0518V47.0524V47.0531V47.0537V47.0544V47.055V47.0557V47.0563V47.0569V47.0576V47.0582V47.0589V47.0595V47.0602V47.0608V47.0614V47.0621V47.0627V47.0634V47.064V47.0646V47.0653V47.0659V47.0665V47.0672V47.0678V47.0685V47.0691V47.0697V47.0704V47.071V47.0716V47.0723V47.0729V47.0735V47.0742V47.0748V47.0754V47.0761V47.0767V47.0773V47.078V47.0786V47.0792V47.0799V47.0805V47.0811V47.0817V47.0824V47.083V47.0836V47.0843V47.0849V47.0855V47.0861V47.0868V47.0874V47.088V47.0886V47.0893V47.0899V47.0905V47.0911V47.0918V47.0924V47.093V47.0936V47.0943V47.0949V47.0955V47.0961V47.0967V47.0974V47.098V47.0986V47.0992V47.0998V47.1005V47.1011V47.1017V47.1023V47.1029V47.1035V47.1042V47.1048V47.1054V47.106V47.1066V47.1072V47.1078V47.1085V47.1091V47.1097V47.1103V47.1109V47.1115V47.1121V47.1128V47.1134V47.114V47.1146V47.1152V47.1158V47.1164V47.117V47.1176V47.1182V47.1188V47.1195V47.1201V47.1207V47.1213V47.1219V47.1225V47.1231V47.1237V47.1243V47.1249V47.1255V47.1261V47.1267V47.1273V47.1279V47.1285V47.1291V47.1297V47.1303V47.1309V47.1315V47.1321V47.1327V47.1333V47.1339V47.1345V47.1351V47.1357V47.1363V47.1369V47.1375V47.1381V47.1387V47.1393V47.1399V47.1405V47.1411V47.1417V47.1423V47.1429V47.1435V47.1441V47.1446V47.1452V47.1458V47.1464V47.147V47.1476V47.1482V47.1488V47.1494V47.15V47.1505V47.1511V47.1517V47.1523V47.1529V47.1535V47.1541V47.1547V47.1552V47.1558V47.1564V47.157V47.1576V47.1582V47.1588V47.1593V47.1599V47.1605V47.1611V47.1617V47.1622V47.1628V47.1634V47.164V47.1646V47.1651V47.1657V47.1663V47.1669V47.1675V47.168V47.1686V47.1692V47.1698V47.1704V47.1709V47.1715V47.1721V47.1727V47.1732V47.1738V47.1744V47.175V47.1755V47.1761V47.1767V47.1772V47.1778V47.1784V47.179V47.1795V47.1801V47.1807V47.1812V47.1818V47.1824V47.1829V47.1835V47.1841V47.1847V47.1852V47.1858V47.1864V47.1869V47.1875V47.1881V47.1886V47.1892V47.1897V47.1903V47.1909V47.1914V47.192V47.1926V47.1931V47.1937V47.1943V47.1948V47.1954V47.1959V47.1965V47.1971V47.1976V47.1982V47.1987V47.1993V47.1998V47.2004V47.201V47.2015V47.2021V47.2026V47.2032V47.2037V47.2043V47.2049V47.2054V47.206V47.2065V47.2071V47.2076V47.2082V47.2087V47.2093V47.2098V47.2104V47.2109V47.2115V47.212V47.2126V47.2131C1.68335 47.3185 1.68946 47.4372 1.70986 47.5604C1.71631 47.6746 1.73474 47.8108 1.78154 47.9512C1.92581 48.384 2.34471 48.6643 2.79982 48.6326C3.45951 48.5866 4.30059 48.5402 5.32521 48.4936C6.20936 48.4626 7.33594 48.4315 8.70607 48.4004C10.0711 48.3694 11.7271 48.3538 13.6755 48.3538H13.6813H13.6871H13.6928H13.6986H13.7044H13.7102H13.7159H13.7217H13.7275H13.7333H13.7391H13.7449H13.7506H13.7564H13.7622H13.768H13.7738H13.7796H13.7854H13.7912H13.797H13.8028H13.8086H13.8144H13.8202H13.826H13.8318H13.8376H13.8434H13.8492H13.855H13.8608H13.8667H13.8725H13.8783H13.8841H13.8899H13.8957H13.9016H13.9074H13.9132H13.919H13.9249H13.9307H13.9365H13.9424H13.9482H13.954H13.9599H13.9657H13.9716H13.9774H13.9832H13.9891H13.9949H14.0008H14.0066H14.0125H14.0183H14.0242H14.03H14.0359H14.0417H14.0476H14.0535H14.0593H14.0652H14.0711H14.0769H14.0828H14.0887H14.0945H14.1004H14.1063H14.1121H14.118H14.1239H14.1298H14.1357H14.1415H14.1474H14.1533H14.1592H14.1651H14.171H14.1769H14.1828H14.1886H14.1945H14.2004H14.2063H14.2122H14.2181H14.224H14.2299H14.2358H14.2417H14.2477H14.2536H14.2595H14.2654H14.2713H14.2772H14.2831H14.289H14.295H14.3009H14.3068H14.3127H14.3187H14.3246H14.3305H14.3364H14.3424H14.3483H14.3542H14.3602H14.3661H14.372H14.378H14.3839H14.3899H14.3958H14.4017H14.4077H14.4136H14.4196H14.4255H14.4315H14.4374H14.4434H14.4494H14.4553H14.4613H14.4672H14.4732H14.4792H14.4851H14.4911H14.4971H14.503H14.509H14.515H14.5209H14.5269H14.5329H14.5389H14.5448H14.5508H14.5568H14.5628H14.5688H14.5748H14.5807H14.5867H14.5927H14.5987H14.6047H14.6107H14.6167H14.6227H14.6287H14.6347H14.6407H14.6467H14.6527H14.6587H14.6647H14.6707H14.6767H14.6827H14.6888H14.6948H14.7008H14.7068H14.7128H14.7189H14.7249H14.7309H14.7369H14.7429H14.749H14.755H14.761H14.7671H14.7731H14.7791H14.7852H14.7912H14.7972H14.8033H14.8093H14.8154H14.8214H14.8275H14.8335H14.8396H14.8456H14.8517H14.8577H14.8638H14.8698H14.8759H14.8819H14.888H14.8941H14.9001H14.9062H14.9123H14.9183H14.9244H14.9305H14.9365H14.9426H14.9487H14.9548H14.9608H14.9669H14.973H14.9791H14.9852H14.9912H14.9973H15.0034H15.0095H15.0156H15.0217H15.0278H15.0339H15.04H15.0461H15.0522H15.0583H15.0644H15.0705H15.0766H15.0827H15.0888H15.0949H15.101H15.1071H15.1132H15.1194H15.1255H15.1316H15.1377H15.1438H15.1499H15.1561H15.1622H15.1683H15.1744H15.1806H15.1867H15.1928H15.199H15.2051H15.2112H15.2174H15.2235H15.2297H15.2358H15.2419H15.2481H15.2542H15.2604H15.2665H15.2727H15.2788H15.285H15.2911H15.2973H15.3035H15.3096H15.3158H15.3219H15.3281H15.3343H15.3404H15.3466H15.3528H15.3589H15.3651H15.3713H15.3775H15.3836H15.3898H15.396H15.4022H15.4084H15.4145H15.4207H15.4269H15.4331H15.4393H15.4455H15.4517H15.4579H15.4641H15.4703H15.4765H15.4827H15.4889H15.4951H15.5013H15.5075H15.5137H15.5199H15.5261H15.5323H15.5385H15.5447H15.5509H15.5572H15.5634H15.5696H15.5758H15.582H15.5883H15.5945H15.6007H15.6069H15.6132H15.6194H15.6256H15.6319H15.6381H15.6443H15.6506H15.6568H15.6631H15.6693H15.6755H15.6818H15.688H15.6943H15.7005H15.7068H15.713H15.7193H15.7255H15.7318H15.738H15.7443H15.7506H15.7568H15.7631H15.7694H15.7756H15.7819H15.7882H15.7944H15.8007H15.807H15.8133H15.8195H15.8258H15.8321H15.8384H15.8447H15.8509H15.8572H15.8635H15.8698H15.8761H15.8824H15.8887H15.895H15.9013H15.9075H15.9138H15.9201H15.9264H15.9327H15.9391H15.9454H15.9517H15.958H15.9643H15.9706H15.9769H15.9832H15.9895H15.9958H16.0022H16.0085H16.0148H16.0211H16.0275H16.0338H16.0401H16.0464H16.0528H16.0591H16.0654H16.0718H16.0781H16.0844H16.0908H16.0971H16.1034H16.1098H16.1161H16.1225H16.1288H16.1352H16.1415H16.1479H16.1542H16.1606H16.1669H16.1733H16.1796H16.186H16.1924H16.1987H16.2051H16.2115H16.2178H16.2242H16.2306H16.2369H16.2433H16.2497H16.2561H16.2624H16.2688H16.2752H16.2816H16.288H16.2943H16.3007H16.3071H16.3135H16.3199H16.3263H16.3327H16.3391H16.3455H16.3519H16.3583H16.3646H16.3711H16.3775H16.3839H16.3903H16.3967H16.4031H16.4095H16.4159H16.4223H16.4287H16.4351H16.4416H16.448H16.4544H16.4608H16.4672H16.4737H16.4801H16.4865H16.4929H16.4994H16.5058H16.5122H16.5187H16.5251H16.5315H16.538H16.5444H16.5509H16.5573H16.5637H16.5702H16.5766H16.5831H16.5895H16.596H16.6024H16.6089H16.6153H16.6218H16.6283H16.6347H16.6412H16.6476H16.6541H16.6606H16.667H16.6735H16.68H16.6864H16.6929H16.6994H16.7059H16.7123H16.7188H16.7253H16.7318H16.7383H16.7447H16.7512H16.7577H16.7642H16.7707H16.7772H16.7837H16.7902H16.7967H16.8032H16.8097H16.8162C17.9163 48.3538 19.1034 48.3693 20.3777 48.4003C20.6681 48.4074 20.9471 48.2879 21.1424 48.0729C21.3377 47.8579 21.4298 47.5686 21.3948 47.2803C21.2718 46.2653 21.1966 45.4099 21.1668 44.7097C21.1358 43.9651 21.1208 43.3955 21.1208 42.9944V42.9934V42.9924V42.9914V42.9904V42.9894V42.9884V42.9873V42.9863V42.9853V42.9843V42.9833V42.9823V42.9813V42.9803V42.9793V42.9783V42.9773V42.9763V42.9753V42.9743V42.9734V42.9724V42.9714V42.9704V42.9694V42.9684V42.9674V42.9664V42.9654V42.9644V42.9634V42.9624V42.9614V42.9605V42.9595V42.9585V42.9575V42.9565V42.9555V42.9545V42.9535V42.9526V42.9516V42.9506V42.9496V42.9486V42.9476V42.9467V42.9457V42.9447V42.9437V42.9427V42.9418V42.9408V42.9398V42.9388V42.9379V42.9369V42.9359V42.9349V42.934V42.933V42.932V42.931V42.9301V42.9291V42.9281V42.9271V42.9262V42.9252V42.9242V42.9233V42.9223V42.9213V42.9204V42.9194V42.9184V42.9175V42.9165V42.9155V42.9146V42.9136V42.9126V42.9117V42.9107V42.9098V42.9088V42.9078V42.9069V42.9059V42.905V42.904V42.903V42.9021V42.9011V42.9002V42.8992V42.8983V42.8973V42.8964V42.8954V42.8945V42.8935V42.8925V42.8916V42.8906V42.8897V42.8887V42.8878V42.8869V42.8859V42.885V42.884V42.8831V42.8821V42.8812V42.8802V42.8793V42.8783V42.8774V42.8765V42.8755V42.8746V42.8736V42.8727V42.8718V42.8708V42.8699V42.8689V42.868V42.8671V42.8661V42.8652V42.8643V42.8633V42.8624V42.8614V42.8605V42.8596V42.8587V42.8577V42.8568V42.8559V42.8549V42.854V42.8531V42.8521V42.8512V42.8503V42.8494V42.8484V42.8475V42.8466V42.8457V42.8447V42.8438V42.8429V42.842V42.841V42.8401V42.8392V42.8383V42.8374V42.8364V42.8355V42.8346V42.8337V42.8328V42.8318V42.8309V42.83V42.8291V42.8282V42.8273V42.8264V42.8254V42.8245V42.8236V42.8227V42.8218V42.8209V42.82V42.8191V42.8182V42.8173V42.8163V42.8154V42.8145V42.8136V42.8127V42.8118V42.8109V42.81V42.8091V42.8082V42.8073V42.8064V42.8055V42.8046V42.8037V42.8028V42.8019V42.801V42.8001V42.7992V42.7983V42.7974V42.7965V42.7956V42.7947V42.7938V42.7929V42.792V42.7912V42.7903V42.7894V42.7885V42.7876V42.7867V42.7858V42.7849V42.784V42.7831V42.7823V42.7814V42.7805V42.7796V42.7787V42.7778V42.7769V42.7761V42.7752V42.7743V42.7734V42.7725V42.7717V42.7708V42.7699V42.769V42.7681V42.7673V42.7664V42.7655V42.7646V42.7638V42.7629V42.762V42.7611V42.7603V42.7594V42.7585V42.7576V42.7568V42.7559V42.755V42.7542V42.7533V42.7524V42.7515V42.7507V42.7498V42.7489V42.7481V42.7472V42.7463V42.7455V42.7446V42.7438V42.7429V42.742V42.7412V42.7403V42.7394V42.7386V42.7377V42.7369V42.736V42.7351V42.7343V42.7334V42.7326V42.7317V42.7309V42.73V42.7292V42.7283V42.7274V42.7266V42.7257V42.7249V42.724V42.7232V42.7223V42.7215V42.7206V42.7198V42.7189V42.7181V42.7172V42.7164V42.7156V42.7147V42.7139V42.713V42.7122V42.7113V42.7105V42.7096V42.7088V42.708V42.7071V42.7063V42.7054V42.7046V42.7038V42.7029V42.7021V42.7013V42.7004V42.6996V42.6987V42.6979V42.6971V42.6962V42.6954V42.6946V42.6938V42.6929V42.6921V42.6913V42.6904V42.6896V42.6888V42.6879V42.6871V42.6863V42.6855V42.6846V42.6838V42.683V42.6822V42.6813V42.6805V42.6797V42.6789V42.678V42.6772V42.6764V42.6756V42.6748V42.6739V42.6731V42.6723V42.6715V42.6707V42.6699V42.669V42.6682V42.6674V42.6666V42.6658V42.665V42.6642V42.6633V42.6625V42.6617V42.6609V42.6601V42.6593V42.6585V42.6577V42.6569V42.6561V42.6553V42.6544V42.6536V42.6528V42.652V42.6512V42.6504V42.6496V42.6488V42.648V42.6472V42.6464V42.6456V42.6448V42.644V42.6432V42.6424V42.6416V42.6408V42.64V42.6392V42.6384V42.6376V42.6368V42.6361V42.6353V42.6345V42.6337V42.6329V42.6321V42.6313V42.6305V42.6297V42.6289V42.6281V42.6274V42.6266V42.6258V42.625V42.6242V42.6234V42.6226V42.6219V42.6211V42.6203V42.6195V42.6187V42.6179V42.6172V42.6164V42.6156V42.6148V42.614V42.6133V42.6125V42.6117V42.6109V42.6102V42.6094V42.6086V42.6078V42.6071V42.6063V42.6055V42.6047V42.604V42.6032V42.6024V42.6017V42.6009V42.6001V42.5993V42.5986V42.5978V42.597V42.5963V42.5955V42.5947V42.594V42.5932V42.5925V42.5917V42.5909V42.5902V42.5894V42.5886V42.5879V42.5871V42.5864V42.5856V42.5848V42.5841V42.5833V42.5826V42.5818V42.5811V42.5803V42.5796V42.5788V42.578V42.5773V42.5765V42.5758V42.575V42.5743V42.5735V42.5728V42.572V42.5713V42.5705V42.5698V42.569V42.5683V42.5676V42.5668V42.5661V42.5653V42.5646V42.5638V42.5631V42.5623V42.5616V42.5609V42.5601V42.5594V42.5586V42.5579V42.5572V42.5564V42.5557V42.5549V42.5542V42.5535V42.5527V42.552V42.5513V42.5505V42.5498V42.5491C21.1208 42.5067 21.1222 42.4762 21.1238 42.4558C21.1246 42.4449 21.1254 42.4386 21.1257 42.4365C21.1381 42.3732 21.1443 42.3089 21.1443 42.2444C21.1443 42.219 21.1457 42.202 21.1469 42.1923C21.16 42.129 21.1677 42.0604 21.1677 41.9866ZM19.1811 41.8219C19.1851 41.7981 19.1898 41.775 19.1952 41.7527C19.2037 41.7174 19.2138 41.6839 19.2252 41.6523C19.2135 41.6851 19.2035 41.7189 19.1953 41.7534C19.1924 41.7656 19.1896 41.778 19.1871 41.7905C19.185 41.8009 19.183 41.8114 19.1811 41.8219ZM24.3465 46.7306C24.3494 46.7376 24.3524 46.7445 24.3555 46.7514C24.3594 46.7601 24.3633 46.7688 24.3675 46.7774C24.5882 47.2389 24.8806 47.6525 25.2422 48.014C25.6155 48.3873 26.0508 48.6773 26.54 48.8824C27.0533 49.1069 27.5935 49.2209 28.1524 49.2209C28.7089 49.2209 29.2443 49.1078 29.7484 48.8795C30.2351 48.6743 30.6649 48.383 31.0257 48.0041C31.3873 47.6401 31.6732 47.2219 31.8781 46.7536C32.1085 46.2475 32.2227 45.7097 32.2227 45.1506C32.2227 44.5842 32.1117 44.0402 31.8813 43.5313C31.6781 43.0492 31.3925 42.6197 31.0257 42.2504C30.665 41.8714 30.2351 41.5801 29.7484 41.3749C29.2443 41.1466 28.7089 41.0334 28.1524 41.0334C27.5935 41.0334 27.0533 41.1476 26.5399 41.372C26.0507 41.5772 25.6155 41.8671 25.2422 42.2404C24.8738 42.6088 24.5801 43.0362 24.3605 43.5152C24.3557 43.5258 24.351 43.5365 24.3465 43.5473C24.1357 44.0533 24.0352 44.5914 24.0352 45.1506C24.0352 45.6994 24.1375 46.229 24.3465 46.7306Z" fill="white" stroke="black" stroke-width="2" stroke-linejoin="round"/>
<defs>
<filter id="filter0_d_1570_9271" x="77.5673" y="6.38159" width="53.2288" height="54.5875" filterUnits="userSpaceOnUse" color-interpolation-filters="sRGB">
<feFlood flood-opacity="0" result="BackgroundImageFix"/>
<feColorMatrix in="SourceAlpha" type="matrix" values="0 0 0 0 0 0 0 0 0 0 0 0 0 0 0 0 0 0 127 0" result="hardAlpha"/>
<feOffset dy="4.38163"/>
<feGaussianBlur stdDeviation="2.19081"/>
<feComposite in2="hardAlpha" operator="out"/>
<feColorMatrix type="matrix" values="0 0 0 0 0 0 0 0 0 0 0 0 0 0 0 0 0 0 0.25 0"/>
<feBlend mode="normal" in2="BackgroundImageFix" result="effect1_dropShadow_1570_9271"/>
<feBlend mode="normal" in="SourceGraphic" in2="effect1_dropShadow_1570_9271" result="shape"/>
</filter>
</defs>
</svg>
