<svg width="99" height="64" viewBox="0 0 99 64" fill="none" xmlns="http://www.w3.org/2000/svg">
<path d="M15.1936 47.3132L9.0061 47.9226C9.03735 46.8757 9.06079 45.7976 9.07642 44.6882C9.10767 43.5632 9.1311 42.4539 9.14673 41.3601C9.16235 40.2507 9.17798 39.1726 9.1936 38.1257C9.20923 37.0632 9.21704 36.0632 9.21704 35.1257C9.23267 32.907 9.24048 30.7429 9.24048 28.6335L9.14673 22.2117L7.3186 25.4226L3.24048 21.9539C3.42798 21.6882 3.65454 21.3757 3.92017 21.0164C4.18579 20.657 4.46704 20.2742 4.76392 19.8679C5.06079 19.4617 5.36548 19.0476 5.67798 18.6257C5.99048 18.1882 6.29517 17.7664 6.59204 17.3601C7.27954 16.407 7.99829 15.4148 8.74829 14.3835L14.6545 14.1023C14.6233 15.071 14.592 16.0632 14.5608 17.0789C14.5452 18.0789 14.5295 19.071 14.5139 20.0554C14.4983 21.0242 14.4827 21.9617 14.467 22.8679C14.467 23.7742 14.467 24.6101 14.467 25.3757C14.467 25.9851 14.467 26.5398 14.467 27.0398C14.467 27.5398 14.4749 27.9695 14.4905 28.3289C14.4905 28.7507 14.4983 29.1257 14.5139 29.4539C14.5139 31.2664 14.5452 33.1726 14.6077 35.1726C14.6233 36.0164 14.6467 36.9304 14.678 37.9148C14.7249 38.8835 14.7717 39.8914 14.8186 40.9382C14.8655 41.9695 14.9202 43.0242 14.9827 44.1023C15.0452 45.1804 15.1155 46.2507 15.1936 47.3132Z" fill="white"/>
<path d="M26.2252 45.3445C26.2252 45.7664 26.1392 46.1648 25.9674 46.5398C25.8111 46.8992 25.5924 47.2195 25.3111 47.5007C25.0455 47.782 24.7252 48.0007 24.3502 48.157C23.9752 48.3289 23.5767 48.4148 23.1549 48.4148C22.733 48.4148 22.3267 48.3289 21.9361 48.157C21.5611 48.0007 21.233 47.782 20.9517 47.5007C20.6705 47.2195 20.4439 46.8992 20.272 46.5398C20.1158 46.1648 20.0377 45.7664 20.0377 45.3445C20.0377 44.907 20.1158 44.5007 20.272 44.1257C20.4439 43.7507 20.6705 43.4226 20.9517 43.1414C21.233 42.8601 21.5611 42.6414 21.9361 42.4851C22.3267 42.3132 22.733 42.2273 23.1549 42.2273C23.5767 42.2273 23.9752 42.3132 24.3502 42.4851C24.7252 42.6414 25.0455 42.8601 25.3111 43.1414C25.5924 43.4226 25.8111 43.7507 25.9674 44.1257C26.1392 44.5007 26.2252 44.907 26.2252 45.3445Z" fill="white"/>
<path fill-rule="evenodd" clip-rule="evenodd" d="M15.4212 49.6243C16.6752 49.5008 17.6018 48.3997 17.5094 47.1431C17.4322 46.0927 17.3627 45.0343 17.3009 43.968C17.2389 42.8992 17.1847 41.8543 17.1383 40.8332L16.9983 37.822C16.9676 36.8536 16.9447 35.9563 16.9294 35.1297L16.9286 35.1002C16.8668 33.1219 16.836 31.24 16.836 29.454C16.836 29.4171 16.8351 29.3803 16.8334 29.3435C16.8199 29.0608 16.8126 28.7238 16.8126 28.329C16.8126 28.2953 16.8118 28.2617 16.8104 28.2281C16.7966 27.9124 16.7891 27.5182 16.7891 27.0399V22.8881C16.8047 21.9871 16.8202 21.0554 16.8357 20.093C16.8512 19.1142 16.8668 18.1271 16.8823 17.1329C16.9134 16.1245 16.9444 15.1393 16.9754 14.1773C16.9963 13.5296 16.7456 12.9026 16.2839 12.4479C15.8221 11.9932 15.1914 11.7521 14.544 11.7829L8.63779 12.0642C7.9345 12.0976 7.28438 12.4484 6.87025 13.0178C6.12014 14.0492 5.40101 15.0419 4.71287 15.9959C4.4158 16.4025 4.11152 16.8238 3.80004 17.2597C3.48886 17.6799 3.18517 18.0926 2.889 18.4979C2.5943 18.9012 2.31555 19.2806 2.05271 19.6362C1.78046 20.0046 1.54341 20.3314 1.34332 20.6148C0.650463 21.5964 0.820738 22.9444 1.73592 23.7228L5.81404 27.1915C6.1294 27.4598 6.5065 27.6355 6.90453 27.7077L6.9183 28.6506C6.91826 30.7489 6.91046 32.9019 6.89492 35.1095L6.89486 35.1258C6.89486 36.0504 6.88716 37.0388 6.87168 38.0912L6.82478 41.3275C6.80931 42.4104 6.78609 43.5092 6.75513 44.6239L6.75447 44.6556C6.739 45.7535 6.71582 46.8194 6.68496 47.8534C6.66504 48.5207 6.93323 49.1642 7.4211 49.6198C7.90897 50.0755 8.56932 50.2991 9.23365 50.2337L15.4212 49.6243ZM9.07637 44.6883C9.07213 44.9891 9.06732 45.2876 9.06194 45.5839C9.04746 46.3801 9.02883 47.1597 9.00606 47.9227L15.1936 47.3133C15.1572 46.8193 15.1226 46.3235 15.0896 45.826C15.0517 45.2537 15.0161 44.6792 14.9826 44.1024C14.9201 43.0243 14.8654 41.9696 14.8186 40.9383C14.7717 39.8915 14.7248 38.8837 14.6779 37.9149L14.6769 37.8837C14.6462 36.9112 14.6231 36.0075 14.6076 35.1727C14.5451 33.1727 14.5139 31.2665 14.5139 29.454C14.4982 29.1258 14.4904 28.7508 14.4904 28.329C14.4748 27.9696 14.467 27.5399 14.467 27.0399V22.868C14.4826 21.9618 14.4982 21.0243 14.5139 20.0555C14.5295 19.0712 14.5451 18.079 14.5607 17.079L14.5808 16.4307C14.6054 15.6401 14.6299 14.864 14.6545 14.1024L8.74824 14.3837C7.99824 15.4149 7.27949 16.4071 6.59199 17.3602C6.29512 17.7665 5.99043 18.1883 5.67793 18.6258C5.36543 19.0477 5.06074 19.4618 4.76387 19.868C4.46699 20.2743 4.18574 20.6571 3.92012 21.0165C3.65449 21.3758 3.42793 21.6883 3.24043 21.954L7.31856 25.4227L9.14668 22.2118L9.24043 28.6337C9.24043 30.743 9.23262 32.9071 9.21699 35.1258C9.21699 36.0349 9.20965 37.0028 9.19496 38.0294L9.19356 38.1258C9.17793 39.1727 9.16231 40.2508 9.14668 41.3602C9.1409 41.7647 9.13406 42.1714 9.12614 42.5801C9.11265 43.2767 9.09606 43.9794 9.07637 44.6883Z" fill="black"/>
<path fill-rule="evenodd" clip-rule="evenodd" d="M19.3097 49.1428C19.8046 49.6378 20.3815 50.0219 21.0219 50.2918C21.6976 50.5858 22.4148 50.737 23.1548 50.737C23.8892 50.737 24.6056 50.5879 25.2803 50.285C25.9156 50.0148 26.4899 49.6276 26.976 49.1198C27.444 48.6463 27.8186 48.0988 28.0878 47.4865C28.3956 46.807 28.5473 46.085 28.5473 45.3446C28.5473 44.6073 28.403 43.8816 28.0953 43.1958C27.83 42.5717 27.4559 42.0083 26.9761 41.5227C26.49 41.0148 25.9156 40.6276 25.2803 40.3573C24.6056 40.0545 23.8892 39.9053 23.1548 39.9053C22.4148 39.9053 21.6976 40.0566 21.0219 40.3505C20.3815 40.6205 19.8046 41.0045 19.3097 41.4995C18.8261 41.9831 18.4436 42.5419 18.161 43.1583C18.1497 43.1829 18.1389 43.2077 18.1285 43.2327C17.8455 43.9119 17.7155 44.6243 17.7155 45.3446C17.7155 46.061 17.8498 46.7641 18.1285 47.433C18.1438 47.4697 18.16 47.506 18.1771 47.5418C18.4624 48.1383 18.842 48.6751 19.3097 49.1428ZM20.0376 45.3446C20.0376 45.7665 20.1157 46.1649 20.272 46.5399C20.4439 46.8993 20.6704 47.2196 20.9517 47.5008C21.2329 47.7821 21.5611 48.0008 21.9361 48.1571C22.3267 48.329 22.7329 48.4149 23.1548 48.4149C23.5767 48.4149 23.9751 48.329 24.3501 48.1571C24.7251 48.0008 25.0454 47.7821 25.3111 47.5008C25.5923 47.2196 25.8111 46.8993 25.9673 46.5399C26.1392 46.1649 26.2251 45.7665 26.2251 45.3446C26.2251 44.9071 26.1392 44.5008 25.9673 44.1258C25.8111 43.7508 25.5923 43.4227 25.3111 43.1415C25.0454 42.8602 24.7251 42.6415 24.3501 42.4852C23.9751 42.3133 23.5767 42.2274 23.1548 42.2274C22.7329 42.2274 22.3267 42.3133 21.9361 42.4852C21.5611 42.6415 21.2329 42.8602 20.9517 43.1415C20.6704 43.4227 20.4439 43.7508 20.272 44.1258C20.1157 44.5008 20.0376 44.9071 20.0376 45.3446Z" fill="black"/>
<rect x="1.18161" y="1.31062" width="22.369" height="34.793" transform="matrix(0.99896 0.0456033 -0.0577839 0.998329 66.0157 9.78937)" fill="white" stroke="black" stroke-width="2.51093"/>
<rect x="1.18161" y="1.31062" width="22.369" height="34.793" transform="matrix(0.99896 0.0456033 -0.0577839 0.998329 70.2205 9.73663)" fill="white" stroke="black" stroke-width="2.51093"/>
<rect x="1.18161" y="1.31062" width="22.369" height="34.793" transform="matrix(0.99896 0.0456033 -0.0577839 0.998329 73.2205 9.73663)" fill="white" stroke="black" stroke-width="2.51093"/>
<g filter="url(#filter0_d_1571_9902)">
<rect width="24.7045" height="37.6343" transform="matrix(0.972657 -0.232245 0.290355 0.956919 44.0974 13.8025)" fill="#89C6A7"/>
<rect x="1.58567" y="0.909804" width="22.1936" height="35.1234" transform="matrix(0.972657 -0.232245 0.290355 0.956919 43.8766 14.2099)" stroke="black" stroke-width="2.51093"/>
</g>
<path d="M34.6628 44.6467C34.4637 45.4508 34.9541 46.2642 35.7583 46.4633L48.8625 49.7082C49.6666 49.9073 50.4799 49.4169 50.679 48.6127C50.8782 47.8086 50.3877 46.9953 49.5836 46.7962L37.9354 43.9118L40.8198 32.2636C41.0189 31.4595 40.5284 30.6461 39.7243 30.447C38.9201 30.2479 38.1068 30.7384 37.9077 31.5425L34.6628 44.6467ZM62.2886 27.474L35.3442 43.7227L36.8934 46.2918L63.8379 30.0431L62.2886 27.474Z" fill="#C62222"/>
<defs>
<filter id="filter0_d_1571_9902" x="40.0974" y="8.06494" width="42.9563" height="49.7505" filterUnits="userSpaceOnUse" color-interpolation-filters="sRGB">
<feFlood flood-opacity="0" result="BackgroundImageFix"/>
<feColorMatrix in="SourceAlpha" type="matrix" values="0 0 0 0 0 0 0 0 0 0 0 0 0 0 0 0 0 0 127 0" result="hardAlpha"/>
<feOffset dy="4"/>
<feGaussianBlur stdDeviation="2"/>
<feComposite in2="hardAlpha" operator="out"/>
<feColorMatrix type="matrix" values="0 0 0 0 0 0 0 0 0 0 0 0 0 0 0 0 0 0 0.25 0"/>
<feBlend mode="normal" in2="BackgroundImageFix" result="effect1_dropShadow_1571_9902"/>
<feBlend mode="normal" in="SourceGraphic" in2="effect1_dropShadow_1571_9902" result="shape"/>
</filter>
</defs>
</svg>
