<svg width="99" height="64" fill="none" xmlns="http://www.w3.org/2000/svg"><path d="M15.2 47.3 9 48a205.5 205.5 0 0 0 .2-12.8V22.2l-1.9 3.2-4-3.4a53.4 53.4 0 0 1 3.3-4.6l2.1-3 6-.3a1998.9 1998.9 0 0 0-.2 8.8V27a30.3 30.3 0 0 0 0 2.5 183.4 183.4 0 0 0 .7 17.8ZM26.2 45.3c0 .5 0 .9-.2 1.2a3 3 0 0 1-1.6 1.7l-1.2.2a3 3 0 0 1-1.3-.2 3 3 0 0 1-1-.7c-.2-.3-.5-.6-.6-1a3.1 3.1 0 0 1 0-2.4l.7-1a3 3 0 0 1 1-.6 3 3 0 0 1 3.3.6l.7 1 .2 1.2Z" fill="#fff"/><path fill-rule="evenodd" clip-rule="evenodd" d="M15.4 49.6a2.3 2.3 0 0 0 2.1-2.5 205.7 205.7 0 0 1-.4-6.3l-.1-3v-2.7a181.2 181.2 0 0 1-.2-8v-4.2a2318 2318 0 0 0 .2-8.7 2.3 2.3 0 0 0-2.5-2.4l-5.9.3c-.7 0-1.3.3-1.7 1a943 943 0 0 0-5.6 7.5c-.6 1-.5 2.3.4 3.1l4.1 3.5c.3.3.7.4 1.1.5V41.3l-.1 3.3-.1 3.3a2.3 2.3 0 0 0 2.5 2.3l6.2-.6Zm-6.3-5A220.6 220.6 0 0 1 9 48l6-.6a203.8 203.8 0 0 1-.4-9.4 209.6 209.6 0 0 1-.2-10.9V23a2793.8 2793.8 0 0 0 0-5.8v-.7l.2-2.3-6 .3A938.5 938.5 0 0 0 3.2 22l4.1 3.4 1.8-3.2.1 6.4a922 922 0 0 1 0 9.4v.1a3849.8 3849.8 0 0 0-.1 6.6Z" fill="#000"/><path fill-rule="evenodd" clip-rule="evenodd" d="M19.3 49.1c.5.5 1 1 1.7 1.2a5.3 5.3 0 0 0 6-1.2 5.4 5.4 0 1 0-7.7 0Zm.7-3.8c0 .5.1.9.3 1.2.1.4.4.7.7 1 .2.3.6.5 1 .7a3 3 0 0 0 3.3-.7 3 3 0 0 0 1-2.2l-.3-1.2a3 3 0 0 0-1.6-1.6l-1.2-.3a3 3 0 0 0-1.3.3 3 3 0 0 0-1 .6l-.6 1-.3 1.2Z" fill="#000"/><path transform="matrix(.99896 .0456 -.05778 .99833 66 9.8)" fill="#fff" stroke="#000" stroke-width="2.5" d="M1.2 1.3h22.4v34.8H1.2z"/><path transform="matrix(.99896 .0456 -.05778 .99833 70.2 9.7)" fill="#fff" stroke="#000" stroke-width="2.5" d="M1.2 1.3h22.4v34.8H1.2z"/><path transform="matrix(.99896 .0456 -.05778 .99833 73.2 9.7)" fill="#fff" stroke="#000" stroke-width="2.5" d="M1.2 1.3h22.4v34.8H1.2z"/><g filter="url(#a)"><path fill="#89C6A7" d="m44.1 13.8 24-5.7 11 36-24 5.7z"/><path transform="matrix(.97266 -.23225 .29035 .95692 43.9 14.2)" stroke="#000" stroke-width="2.5" d="M1.6.9h22.2V36H1.6z"/></g><path d="M34.7 44.6c-.2.9.3 1.7 1 1.9L49 49.7a1.5 1.5 0 0 0 .7-2.9l-11.7-2.9 3-11.6a1.5 1.5 0 0 0-3-.8l-3.2 13.1Zm27.6-17.1-27 16.2 1.6 2.6 27-16.3-1.6-2.5Z" fill="#C62222"/><defs><filter id="a" x="40.1" y="8.1" width="43" height="49.8" filterUnits="userSpaceOnUse" color-interpolation-filters="sRGB"><feFlood flood-opacity="0" result="BackgroundImageFix"/><feColorMatrix in="SourceAlpha" values="0 0 0 0 0 0 0 0 0 0 0 0 0 0 0 0 0 0 127 0" result="hardAlpha"/><feOffset dy="4"/><feGaussianBlur stdDeviation="2"/><feComposite in2="hardAlpha" operator="out"/><feColorMatrix values="0 0 0 0 0 0 0 0 0 0 0 0 0 0 0 0 0 0 0.25 0"/><feBlend in2="BackgroundImageFix" result="effect1_dropShadow_1571_9902"/><feBlend in="SourceGraphic" in2="effect1_dropShadow_1571_9902" result="shape"/></filter></defs></svg>