<svg width="142" height="62" fill="none" xmlns="http://www.w3.org/2000/svg"><path d="M141.3 25.9c.5-.7.4-1.6-.3-2.1l-10.9-8a1.5 1.5 0 1 0-1.8 2.4l9.7 7.1-7 9.7a1.5 1.5 0 1 0 2.3 1.8l8-11Zm-32 5.4 31-4.8-.4-3-31.1 4.8.4 3Z" fill="#C62222"/><path transform="matrix(.8376 -.5463 .63671 .7711 41 26.8)" fill="#fff" stroke="#000" stroke-width="2.5" d="M1.9.3h21.5v36.5H1.9z"/><path transform="matrix(.95573 -.29425 .36388 .93145 55.7 16)" fill="#fff" stroke="#000" stroke-width="2.5" d="M1.7.8h22.1v35.3H1.7z"/><path transform="matrix(.98811 .15373 -.19028 .98173 77.4 9.8)" fill="#fff" stroke="#000" stroke-width="2.5" d="M1 1.4h22.3v34.9H1z"/><g filter="url(#a)"><path fill="#89C6A7" d="m102.2 6.4 24.2 11.1L106 52.2 81.9 41.1z"/><path transform="matrix(.90804 .41888 -.50482 .86323 103.2 6.4)" stroke="#000" stroke-width="2.8" d="M.6 1.8h23.9v37.4H.6z"/></g><path d="M21.2 42a1 1 0 0 0-1.5-1l-.6.2a41.4 41.4 0 0 1-6 .7l-2.8.2.6-1.2c.6-1 1.4-2 2.4-3.2L16 35c1-1 2-2.1 2.8-3.4.9-1.2 1.6-2.6 2.1-4.2.6-1.6 1-3.5 1-5.5 0-1.7-.4-3.3-1-4.7a10.2 10.2 0 0 0-9.6-6c-1.3 0-2.5.2-3.7.5-1.1.4-2.2.9-3 1.5a8 8 0 0 0-2.3 2.5c-.5 1-.8 2.1-.8 3.3a6 6 0 0 0 .6 3 5 5 0 0 0 3.4 2.5H7a4.6 4.6 0 0 0 4-2.3 4 4 0 0 0 .4-2 6.8 6.8 0 0 0-.6-2.6l.3-.1.5-.1a3.1 3.1 0 0 1 1 .2 1.7 1.7 0 0 1 .9.6l.6 1.2a11 11 0 0 1-.2 5.5c-.3 1-.7 1.9-1.2 2.8a39 39 0 0 1-4.2 5A22 22 0 0 0 2.8 41a17.7 17.7 0 0 0-1.1 5.8V48c.2.4.6.7 1.1.6a108.3 108.3 0 0 1 10.9-.2H20.5a1 1 0 0 0 1-1.1A33.9 33.9 0 0 1 21 43v-.4a1.2 1.2 0 0 1 0-.2 1 1 0 0 0 0-.2V42Zm-2-.2Zm5.1 5c.3.4.6.9 1 1.2.3.4.8.7 1.2.9A4 4 0 0 0 31 48a4 4 0 0 0-2.8-7 4 4 0 0 0-1.7.4 4 4 0 0 0-1.3.8 4.4 4.4 0 0 0-.9 1.3 4.1 4.1 0 0 0 0 3.2Z" fill="#fff" stroke="#000" stroke-width="2" stroke-linejoin="round"/><defs><filter id="a" x="77.6" y="6.4" width="53.2" height="54.6" filterUnits="userSpaceOnUse" color-interpolation-filters="sRGB"><feFlood flood-opacity="0" result="BackgroundImageFix"/><feColorMatrix in="SourceAlpha" values="0 0 0 0 0 0 0 0 0 0 0 0 0 0 0 0 0 0 127 0" result="hardAlpha"/><feOffset dy="4.4"/><feGaussianBlur stdDeviation="2.2"/><feComposite in2="hardAlpha" operator="out"/><feColorMatrix values="0 0 0 0 0 0 0 0 0 0 0 0 0 0 0 0 0 0 0.25 0"/><feBlend in2="BackgroundImageFix" result="effect1_dropShadow_1570_9271"/><feBlend in="SourceGraphic" in2="effect1_dropShadow_1570_9271" result="shape"/></filter></defs></svg>