<svg width="163" height="106" viewBox="0 0 163 106" fill="none" xmlns="http://www.w3.org/2000/svg">
<g clip-path="url(#clip0_1602_9551)">
<rect x="-28.528" y="26.8743" width="39.6912" height="25.6339" fill="#424242" stroke="black" stroke-width="0.8269"/>
<rect x="-28.528" y="79.7959" width="39.6912" height="25.6339" fill="#424242" stroke="black" stroke-width="0.8269"/>
<rect x="0.41345" y="0.41345" width="39.6912" height="25.6339" fill="#424242" stroke="black" stroke-width="0.8269"/>
<rect x="11.9901" y="26.8743" width="39.6912" height="25.6339" fill="#424242" stroke="black" stroke-width="0.8269"/>
<rect x="0.41345" y="53.3351" width="39.6912" height="25.6339" fill="#424242" stroke="black" stroke-width="0.8269"/>
<rect x="11.9901" y="79.7959" width="39.6912" height="25.6339" fill="#424242" stroke="black" stroke-width="0.8269"/>
<rect x="40.9316" y="0.41345" width="39.6912" height="25.6339" fill="#424242" stroke="black" stroke-width="0.8269"/>
<rect x="52.5082" y="26.8743" width="39.6912" height="25.6339" fill="#424242" stroke="black" stroke-width="0.8269"/>
<rect x="40.9316" y="53.3351" width="39.6912" height="25.6339" fill="#424242" stroke="black" stroke-width="0.8269"/>
<rect x="52.5082" y="79.7959" width="39.6912" height="25.6339" fill="#424242" stroke="black" stroke-width="0.8269"/>
<rect x="81.4497" y="0.41345" width="39.6912" height="25.6339" fill="#424242" stroke="black" stroke-width="0.8269"/>
<rect x="93.0262" y="26.8743" width="39.6912" height="25.6339" fill="#424242" stroke="black" stroke-width="0.8269"/>
<rect x="81.4497" y="53.3351" width="39.6912" height="25.6339" fill="#424242" stroke="black" stroke-width="0.8269"/>
<rect x="93.0262" y="79.7959" width="39.6912" height="25.6339" fill="#424242" stroke="black" stroke-width="0.8269"/>
<rect x="121.968" y="0.41345" width="39.6912" height="25.6339" fill="#424242" stroke="black" stroke-width="0.8269"/>
<rect x="133.544" y="26.8743" width="39.6912" height="25.6339" fill="#424242" stroke="black" stroke-width="0.8269"/>
<rect x="121.968" y="53.3351" width="39.6912" height="25.6339" fill="#424242" stroke="black" stroke-width="0.8269"/>
<rect x="133.544" y="79.7959" width="39.6912" height="25.6339" fill="#424242" stroke="black" stroke-width="0.8269"/>
</g>
<defs>
<clipPath id="clip0_1602_9551">
<rect width="162.072" height="105.843" fill="white"/>
</clipPath>
</defs>
</svg>
