<svg width="169" height="208" fill="none" xmlns="http://www.w3.org/2000/svg"><g filter="url(#a)"><rect x="118.74" y="202.14" width="84.27" height="126.4" rx="5.98" transform="rotate(-157.56 118.74 202.14)" fill="#fff"/><mask id="b" style="mask-type:alpha" maskUnits="userSpaceOnUse" x="46" y="62" width="117" height="133"><path d="M105.83 193.37 50.6 170.55a5.23 5.23 0 0 1-2.83-6.84l33.02-79.93a2.4 2.4 0 0 1 3.12-1.3c1.7.7 3.64.12 4.68-1.38l8.5-12.27a3 3 0 0 0-.06-3.5c-.9-1.22.35-2.86 1.76-2.3l59.33 23.07a5.23 5.23 0 0 1 2.86 7.03l-34.6 76.28a4.2 4.2 0 0 1-5.43 2.14 5.7 5.7 0 0 0-7.43 3.1l-4.56 11.04c-.51 1.23-.41 2.62.27 3.77a2.73 2.73 0 0 1-3.39 3.9Z" fill="#C4C4C4" stroke="#000" stroke-width="1.49"/></mask><g mask="url(#b)"><rect x="114.07" y="192.38" width="69.81" height="111.94" rx="5.23" transform="rotate(-157.56 114.07 192.38)" stroke="#000" stroke-width="1.49"/></g><path d="m135.38 140.63-64.4-26.6" stroke="#000" stroke-width="1.49"/><path d="m107.5 169.44 6.33 2.61c-3.13.44-4.07 1.45-5.25 3.72l5.06-.26c1.67 2.5 1.42 3.42-1.67 4.02l-3.39-3.75.04 5.9c-2.42 2.06-3.68 1.42-4.22-1.75l4.18-4.16-5.57.06c-1.2-2.34-.43-3.05 1.66-4.03l3.91 3.97c.6-2.51.53-3.9-1.08-6.33Z" fill="#000"/><path d="M108.58 175.78c1.18-2.28 2.12-3.3 5.25-3.73l-6.33-2.61c1.61 2.42 1.68 3.82 1.08 6.34Zm0 0 5.06-.27c1.67 2.5 1.42 3.42-1.67 4.02l-3.39-3.75Zm0 0-4.18 4.15c.54 3.17 1.8 3.8 4.22 1.75l-.04-5.9Zm0 0-5.57.05c-1.2-2.34-.43-3.05 1.66-4.03l3.91 3.97Z" stroke="#000" stroke-width="1.49"/><path d="m100.36 85.84-6.33-2.62c3.13-.43 4.07-1.44 5.24-3.72l-5.05.27c-1.67-2.5-1.42-3.43 1.67-4.02l3.38 3.75-.03-5.9c2.42-2.06 3.68-1.43 4.22 1.74l-4.19 4.16 5.58-.05c1.2 2.34.43 3.05-1.66 4.02l-3.92-3.97c-.59 2.52-.52 3.91 1.1 6.34Z" fill="#000"/><path d="M99.27 79.5c-1.17 2.28-2.11 3.29-5.24 3.72l6.33 2.62c-1.61-2.43-1.68-3.82-1.09-6.34Zm0 0-5.05.27c-1.67-2.5-1.42-3.43 1.67-4.02l3.38 3.75Zm0 0 4.2-4.16c-.55-3.17-1.81-3.8-4.23-1.74l.03 5.9Zm0 0 5.58-.05c1.2 2.34.43 3.05-1.66 4.02l-3.92-3.97Z" stroke="#000" stroke-width="1.49"/><path d="M122.45 176.82a9.55 9.55 0 0 1 .76.34 26.45 26.45 0 0 0 1.8.66 76.1 76.1 0 0 0-2.27 4.66 65.55 65.55 0 0 0-3.12 8.3l-.67-.3-.6-.25a232.01 232.01 0 0 1-.9-.35l-.33-.12a74.69 74.69 0 0 0 1.86-3.97c.29-.64.55-1.26.8-1.85l.22-.54a11.87 11.87 0 0 0-3.03 2.3c-.44.47-.84.96-1.2 1.48a8.55 8.55 0 0 0-.87 1.6l-.12.28-2.87-1.5a206.2 206.2 0 0 0 5.95-4.83 2.96 2.96 0 0 1-.8-.88 2.4 2.4 0 0 1-.33-.93c-.04-.31-.03-.64.05-.97.06-.33.14-.67.24-1.01l.3-1.03a6.35 6.35 0 0 0 .26-1.7c0-.2-.03-.43-.06-.69-.04-.26-.11-.53-.2-.82l2.49.97c.07.19.11.41.1.67a5.38 5.38 0 0 1-.28 1.58c-.1.34-.21.66-.32.97a10.83 10.83 0 0 0-.5 1.7c-.04.26-.03.5.03.71.06.23.18.43.36.61a2.17 2.17 0 0 0 .95.55l.21.06.92-2.43c.36-.97.75-2.06 1.17-3.27ZM85.17 79.03a9.42 9.42 0 0 1-.76-.34 27.88 27.88 0 0 0-1.8-.66 75.68 75.68 0 0 0 2.27-4.66 65.59 65.59 0 0 0 3.12-8.3 17.04 17.04 0 0 0 1.27.55l.5.21a25.41 25.41 0 0 0 .73.26 76.95 76.95 0 0 0-1.86 3.97l-.8 1.85-.21.54a11.89 11.89 0 0 0 3.02-2.3c.45-.47.84-.96 1.2-1.48.35-.52.64-1.05.87-1.6l.12-.28 2.87 1.5a182.76 182.76 0 0 0-5.95 4.83c.37.29.64.58.8.88.18.3.3.6.33.93.04.31.03.64-.04.97-.06.33-.14.67-.24 1.01-.1.34-.2.69-.32 1.03a6.46 6.46 0 0 0-.25 1.7 4.94 4.94 0 0 0 .27 1.52l-2.5-.98a1.68 1.68 0 0 1-.1-.67 5.3 5.3 0 0 1 .28-1.59c.1-.33.21-.65.33-.96a10.88 10.88 0 0 0 .5-1.7c.03-.26.02-.5-.04-.71a1.37 1.37 0 0 0-.35-.61 2.19 2.19 0 0 0-.96-.55 2.88 2.88 0 0 0-.21-.06l-.92 2.43c-.36.97-.75 2.06-1.17 3.27Z" fill="#000"/><path d="m98.24 92.46-.58-.05c-1.74.51-2 7.06-1.02 8.16 1.7 1.92-.48 13.07-1.7 16.83 6.9 4.38 10.41 6.82 13.88 10.99l-22.03-8.22c-.55-4.32-.57-14.37.68-20.76 1.5-7.55 7.33-7.22 10.19-7a.85.85 0 0 1 .58.05Z" fill="#B02929"/><path d="M132.83 133.93c.62-1.5 1.55-3.75-4.7-9.84l-6.58 9.56c3.65.34 9.7 4.1 11.28.28Z" fill="#B02929" stroke="#000" stroke-width="1.49"/><path d="M113.75 131.3c-1.34-.55-10.44-8.69-17.3-13.28.04-4.36 1.64-12.47-.38-20.32-.1-1.44.49-3.3 2.17-5.24l7.18 3.84c-.23 6.92-1 21.5 3.75 26.98 4.06.8 8.74 1.83 15.3-9.46 3.8-6.5 4.18-5.34 4.84-3.31l.02.05c.45 1.38.15 8.83-.9 12.78l-7.2 11.06c-2.55-.18-5.23-2.17-7.48-3.1Z" fill="#3076FF"/><path d="M106.9 119.52c-2-2.33-1.56-15.67-1.09-22.05l27.62 9.53c-.33.8-4.91 1.41-6.41 2.05-1.86 2.99-6.21 9.64-8.8 12.33-2.6 2.68-7.17 2.36-9.13 1.86.1-.27-.17-1.38-2.18-3.72Z" fill="#6A5A50" stroke="#000" stroke-width="1.49"/><path d="m143.28 104.68-.1.1c-6.23 6.11-6.59 6.46-10.85 17.04l-3.52.77c-.35.55.3 1.15 1.25 1.68 1.13.48 2.34.9 3.75 1.52 0 0-2.24-.68-3.75-1.52-.94-.53-1.6-1.13-1.25-1.68l-.77-3.51c6.62-7.62 7.04-7.92 10.95-17.14l8.53-8.63-4.24 11.37Z" fill="#6E86C4"/><path d="m128.81 122.6 3.52-.78c4.29-10.64 4.62-10.93 10.95-17.14l4.24-11.37-8.53 8.63c-3.91 9.22-4.33 9.52-10.95 17.14l.78 3.51Zm0 0c-.9 1.42 5 3.19 5 3.19-4.03-1.76-6.42-1.96-10-6.4m4.55 3.92-.91 1.42-5.48 8.57" stroke="#B7B7B7" stroke-width="1.49"/><path d="m147.73 93.62-3.9 11.54c-6.48 6.18-8.28 10.16-10.72 17.48l-2.87.57 3.75 1.55-.62 1.5" stroke="#767676" stroke-width=".75" stroke-linejoin="round"/><path d="M110.42 76.36c-.82-.46-1.22-.76-.61-.51.2.08.4.26.61.5 1.31.74 3.71 1.86 4.88 1.77 1.9-.15 4.33-3.82 4.66-4.62.33-.8 3.72 4.34 5.62 4.19 1.16.17 4.09-.56 5.24-1.57.34 1.33 4.02 6.95 7.28 6.08a31.23 31.23 0 0 1-4.1 1.77c-1.35.73-2.26 1.5-1.77 2.08-9.22-5.06-12.81-4.6-18.91-3.14-.18-.6-.43-1.36-.73-2.17-.61-1.65-1.42-3.48-2.17-4.38Z" fill="#FFDC22"/><path d="M112.59 80.74c.3.8.55 1.58.73 2.17 6.1-1.47 9.69-1.92 18.91 3.14-.99-1.16 3.75-3.13 6.24-3.97-3.35 1.42-7.3-4.58-7.65-5.96-1.15 1.01-4.08 1.74-5.24 1.57-1.9.15-5.29-4.99-5.62-4.2-.33.8-2.76 4.48-4.66 4.63-1.9.15-7.06-2.92-5.5-2.27.91.37 2 2.78 2.79 4.89Zm0 0c3.54-1.34 12.8-2.57 21.42 3.24M100.89 91.8c-.88-.04-2.48.35-1.8 2.2.66 1.84 2.59 2.38 3.47 2.42.76.31 2.43.6 2.98-.73.7-1.68-.96 4.5 1.26 3.46l4.44-2.1M110.97 97.72c-.28 1.4-.5 4.32.74 4.83 1.57.65.78.33 1.83 0 1.05-.32-.28 2.9 3.64 2.26 3.93-.64-.96 1.3 3.13 1.3 1.83 0 1.3 1.28 3.4.64 1.82 0 2.09-.64 2.34.97l1.3 1.29M120.39 96.13l2.25.93m-11.67.66 7.5-3.3c3.2-1.41 6.2-.17 6.63.92.43 1.09 2.88 5.75 3.63 6.06" stroke="#000" stroke-width="1.49"/><path d="m130.62 103.2.94-17.14-4.62-3.66-7.36-1.29-5.73 1.14-4.38 14.85 21.15 6.1Z" fill="#FFDBB0"/><path d="M104.14 88.76c-.16 1.07-2.89 1.62-4.23 1.76-.06.85-.09 2.77.26 3.62.44 1.05 1.94 1.67 3.59 1.48 1.65-.2-.28-1 1.5-1.4 1.8-.42.9 2.4 1.34 3.45.44 1.06 1.81-.13 2.12-.88.3-.75 2.42-1.63 2.73-2.38.31-.75-.28-1.42-1.18-1.36-.9.05 1.85-4.5 2.47-6 .5-1.2.53-2.7.49-3.3-.19.5-.63 1.67-.93 2.25-.37.72-2.55-.18-3.3-.5-.75-.3-1.04 2.2-1.35 2.96-.31.75-3.3-1.03-3.5.3Z" fill="#0F0000"/><path d="M97.25 104.63H98h-.75Zm2.46-12.71.22.71.8-.24-.33-.76-.69.29Zm2.88-2.47.49.56-.49-.56Zm1.77-2.02.04.74-.05-.74Zm4.78-2.6.05.75-.05-.75Zm3.03-.58-.74.06.74-.06Zm1.76-2.02.05.75h.08l.07-.02-.2-.73ZM131.9 86l.7.29.22-.54-.48-.35-.44.6Zm-.65 1.57-.69-.29-.03.09-.02.09.74.1Zm-.5 3.45-.73-.1v.05l.74.05Zm-.17 2.67-.74-.05.74.05Zm1.24 6-.69.3.69-.3Zm-.65 1.57-.69.29.7-.3Zm2.06 1.76-.75.06.75-.06Zm-33.3-12.49-.09-.74-.62.06-.04.63.74.05Zm4.22-1.76.74.12-.73-.12ZM112.3 86l-.66-.35.66.35Zm.93-2.25.74-.05-1.44-.2.7.25Zm-2.96 9.3.04.74-.04-.74Zm-3.67 4.62.7-.29-.7.29Zm-1.33-3.46.17.73-.17-.73Zm-5.1-.07.7-.29-.7.29Zm-3.74 23.71c.82-4.24 1.54-8.58 1.57-13.22h-1.5c-.02 4.48-.72 8.71-1.54 12.94l1.47.28ZM98 104.63c0-.96-.26-2.16-.52-3.33-.27-1.21-.55-2.46-.64-3.64a5.73 5.73 0 0 1 .46-3.08c.43-.8 1.2-1.51 2.63-1.95l-.43-1.43a5.54 5.54 0 0 0-3.52 2.7 7.19 7.19 0 0 0-.63 3.87c.1 1.31.4 2.67.67 3.86.27 1.23.49 2.24.48 3H98Zm2.4-13c-.23-.55-.53-1.33-.69-1.92-.09-.32-.1-.5-.1-.56 0-.05 0 .14-.18.32a.6.6 0 0 1-.62.14l.57-1.38a.9.9 0 0 0-.97.15c-.27.25-.3.58-.3.7-.01.31.07.7.16 1.02.19.7.52 1.54.76 2.1l1.37-.57Zm-1.59-2.02c.12.05.28.15.56.33.25.16.58.37.95.52.37.15.81.26 1.3.21.5-.05 1-.26 1.46-.66l-.97-1.13c-.26.22-.47.3-.64.3-.17.03-.36-.01-.58-.1-.23-.1-.46-.24-.71-.4-.22-.14-.52-.34-.8-.45l-.57 1.38Zm4.27.4c.44-.37.7-.75.83-1.13.13-.36.13-.7.13-.8.01-.14.02.05-.14.16-.04.03.02-.03.5-.07l-.1-1.49c-.47.03-.92.1-1.25.33-.44.3-.48.75-.5.96-.01.23 0 .3-.05.41-.03.1-.11.26-.4.5l.98 1.13Zm1.32-1.84c.86-.05 1.2.15 1.83.25.3.04.72.05 1.1-.23.35-.25.57-.64.74-1.06l-1.38-.57c-.15.37-.23.42-.22.41.06-.04.12-.01-.02-.03-.24-.04-1.09-.33-2.14-.26l.1 1.5Zm3.67-1.04c.19-.45.27-.82.33-1.1l.05-.33.02-.09v-.02s-.01.04-.05.08a3.42 3.42 0 0 1 .77-.09l-.1-1.5c-.47.04-.88.09-1.19.2a1.26 1.26 0 0 0-.8.74c-.06.14-.1.29-.11.4l-.06.34c-.04.22-.1.48-.24.8l1.38.57Zm1.12-1.55c.38-.03.74.02 1.09.1l.5.13c.16.05.34.1.5.13.26.05.86.15 1.29-.3.2-.21.29-.47.33-.7.04-.23.04-.48.02-.75l-1.5.12c.02.2.01.32 0 .38 0 .06 0 0 .07-.08.18-.19.37-.08.09-.14l-.4-.1c-.17-.04-.36-.1-.57-.14-.42-.1-.94-.18-1.52-.14l.1 1.49Zm3.73-1.39c-.04-.5.13-.76.32-.92.23-.19.54-.28.74-.29l-.1-1.5c-.43.04-1.06.2-1.59.64-.56.46-.94 1.19-.86 2.19l1.49-.12Zm1.2-1.23c2.99-.8 10.72-1.22 17.33 3.64l.88-1.21c-7.07-5.2-15.3-4.76-18.6-3.88l.4 1.45Zm17.08 2.75-.65 1.56 1.38.57.65-1.56-1.38-.57Zm-.7 1.74-.5 3.45 1.49.22.5-3.46-1.49-.21Zm-.5 3.51-.17 2.67 1.49.1.17-2.67-1.49-.1Zm-.17 2.67c-.2 2.87.82 5.23 1.29 6.35l1.38-.59a12.28 12.28 0 0 1-1.18-5.66l-1.5-.1Zm1.29 6.35c.08.19-.03.05.1-.16.05-.07.1-.1.1-.1l-.12.05-.29.14c-.11.07-.27.18-.4.37-.28.42-.2.9-.03 1.26l1.37-.58c-.08-.2.04-.05-.1.15-.05.07-.1.1-.1.1l.12-.05c.06-.03.17-.07.29-.14.12-.06.28-.18.4-.36.28-.43.2-.9.04-1.27l-1.38.59Zm-.65 1.56c.21.5.56.76.95.9.17.05.33.08.46.1l.32.04a.75.75 0 0 1 .17.04v.01c.01.01.03.03.04.07.02.06.05.18.06.37l1.5-.11a2.15 2.15 0 0 0-.53-1.39 1.71 1.71 0 0 0-1.01-.47l-.35-.04a.9.9 0 0 1-.18-.04c-.02 0-.02 0-.05-.06l-1.38.58Zm2 1.53c.07.83-.11 1.78-.28 2.78-.08.48-.16.98-.19 1.43-.02.44 0 .94.18 1.37l1.38-.58a1.7 1.7 0 0 1-.07-.7c.02-.36.09-.78.17-1.26.16-.92.39-2.1.3-3.16l-1.49.12ZM100 91.27c.7-.08 1.78-.26 2.71-.57.47-.15.94-.35 1.32-.61.37-.25.77-.64.86-1.21l-1.47-.23c0-.04 0 .04-.23.2-.22.15-.54.3-.95.43-.8.27-1.76.43-2.4.5l.16 1.49Zm4.9-2.39s-.02.05-.08.1c-.05.04-.07.03 0 .02.18-.02.47.03.88.12.36.08.84.2 1.22.25.19.03.43.04.67-.01.27-.06.6-.23.76-.62l-1.38-.57c.08-.2.25-.26.29-.27h-.16c-.28-.04-.61-.13-1.07-.24-.39-.09-.9-.2-1.36-.14-.24.02-.53.1-.78.3a1.3 1.3 0 0 0-.47.83l1.47.23Zm3.45-.14c.1-.25.19-.6.27-.92l.26-1.02c.1-.33.2-.55.26-.65.04-.05.02 0-.06.03a.45.45 0 0 1-.36.02l.57-1.38c-.3-.12-.6-.11-.88.03-.24.12-.4.31-.5.46-.21.3-.35.71-.46 1.06l-.28 1.09c-.09.35-.15.59-.2.71l1.38.57Zm.37-2.54c.37.15 1.15.47 1.9.66.36.1.78.17 1.16.15.35-.01.91-.12 1.2-.67l-1.33-.69c.1-.18.25-.14.06-.13-.16 0-.4-.02-.73-.1-.62-.16-1.3-.45-1.69-.6l-.57 1.38Zm4.26.14c.32-.63.78-1.83.96-2.34l-1.4-.5a23.8 23.8 0 0 1-.9 2.15l1.34.7Zm-.49-2.54c.04.55 0 1.92-.43 2.97l1.38.57c.56-1.35.6-2.98.54-3.64l-1.49.1Zm-.43 2.97c-.14.34-.41.87-.75 1.52-.32.63-.7 1.34-1.03 2.01-.33.66-.63 1.32-.8 1.82-.07.23-.15.53-.13.8.02.15.06.4.26.6.22.23.5.29.71.27l-.1-1.49a.6.6 0 0 1 .62.5c0 .04 0-.02.07-.23.12-.38.38-.94.7-1.6l1.03-2a24 24 0 0 0 .8-1.63l-1.38-.57Zm-1.74 7.02c.26-.01.4.08.44.13.03.03.03.05.04.07 0 .02 0 .07-.03.14l1.38.57c.27-.63.15-1.29-.26-1.76a2 2 0 0 0-1.66-.64l.1 1.5Zm.45.34s-.05.1-.29.28c-.22.18-.49.36-.8.57-.3.2-.63.42-.9.65-.26.2-.59.5-.74.88l1.38.57s.05-.1.3-.29c.21-.17.48-.36.8-.57.29-.2.62-.42.9-.64.25-.2.58-.5.73-.88l-1.38-.57Zm-2.73 2.38a1.95 1.95 0 0 1-.7.76c-.16.09-.2.07-.16.07.04 0 .08.03.12.05.03.03.02.04 0 0l-1.38.57c.2.46.56.8 1.07.86.43.06.83-.1 1.11-.27.56-.33 1.1-.94 1.32-1.47l-1.38-.58Zm-.74.87a2.48 2.48 0 0 1-.08-.77c0-.35 0-.86-.02-1.27a2.5 2.5 0 0 0-.43-1.37c-.18-.23-.43-.41-.75-.5-.3-.07-.6-.06-.9.01l.33 1.46c.14-.03.2-.02.19-.02l-.03-.01-.01-.01c.02.02.08.16.1.54.03.37.02.73.02 1.2.01.39.03.9.2 1.32l1.38-.58Zm-2.19-3.9c-.48.11-.93.3-1.2.67-.3.42-.2.86-.17.99l.01.07c0-.04.01-.16.1-.27.07-.1.15-.13.12-.12-.03.01-.11.04-.29.06l.18 1.48c.23-.03.45-.07.64-.14.19-.08.4-.2.55-.4.17-.23.2-.47.2-.64 0-.14-.04-.29-.05-.32-.02-.15.03 0-.07.15-.07.1-.1.03.32-.07l-.34-1.46Zm-1.43 1.4a3.8 3.8 0 0 1-1.87-.22c-.51-.21-.81-.52-.94-.81l-1.38.57c.32.77.99 1.3 1.75 1.62a5.3 5.3 0 0 0 2.62.32l-.18-1.48Zm-2.8-1.03c-.13-.29-.2-.86-.23-1.55-.03-.66-.01-1.32.02-1.73l-1.5-.1c-.02.45-.05 1.17-.02 1.9.03.68.11 1.5.34 2.05l1.38-.57Z" fill="#000"/><path d="M129.87 102.9c-.75-.31.3-.75.18-2.56-.1-1.45.2-4.01.35-5.11.28 2.16.98 6.54 1.58 6.79.75.3.13 1.8-.18 2.55-.3.75.13 1.81-.18 2.56-.3.75-2.86.57-3.6.26-.76-.31-.45-1.06-1.2-1.37a7.59 7.59 0 0 0-2.55-.18c-3.62.26-5.25-2.16-6.3-1.72-1.06.44-4.5-1.86-6-2.48-1.5-.62-.13-1.8-.56-2.86-.44-1.06 1.67-1.94 3.48-2.07 1.8-.13 1.06-.44 2.55.18 1.5.62 2.56.18 4.8 1.1 2.26.93.45 1.06 1.95 1.68 1.5.62.74.31 2.68 1.99 1.94 1.67 3.75 1.55 3 1.24Z" fill="#000"/><path d="M130.4 95.23Zm0 0c-.16 1.1-.46 3.66-.35 5.11.13 1.8-.93 2.25-.18 2.56.75.3-1.06.43-3-1.24-1.94-1.68-1.19-1.37-2.69-1.99-1.5-.62.31-.75-1.93-1.67-2.25-.93-3.3-.5-4.8-1.11-1.5-.62-.75-.31-2.56-.18-1.8.13-3.92 1-3.48 2.07.44 1.05-.93 2.24.56 2.86 1.5.62 4.94 2.92 6 2.48 1.05-.44 2.68 1.98 6.3 1.72.6-.04 1.95-.07 2.55.18.75.31.44 1.06 1.2 1.37.74.3 3.3.49 3.6-.26.31-.75-.13-1.8.18-2.56.31-.75.93-2.24.18-2.55-.6-.25-1.3-4.63-1.58-6.8ZM113.85 82.25c.25.1.65.97.26 3.62-.49 3.3-2.6 4.18-2.48 5.99.13 1.8.44 1.06.88 2.11.44 1.06-2.11.88-2.3 3.44" stroke="#000" stroke-width="1.49"/><path d="M124.29 85.58c.34-.84.1-2.5-3.6-2.47m6.3 2.6c.91.06 2.8.38 3.16 1.31m-19.18 10.7c2.99-2.03 9.29-5.96 10.55-5.44 1.58.65 3.15 1.3 3.6 2.46l2.2 5.82" stroke="#000" stroke-width="1.49"/><path d="M124.77 87.64c-.23.56-.93 2.25.16 3.99" stroke="#000" stroke-width=".75"/><path d="m121.78 86.4.75.31m3.74 1.55.75.31M129.2 108.76c.52.86 1.55 4.73-.1 8.72" stroke="#000" stroke-width="1.49"/><path d="M131.1 128.99c-.88-1.13-2.99-2.83-3.6-3.4l-.05-.02-5.9 8.08c1.2.5 4.27 1.57 3.97.68-.31-.89-1.35-1.51-1.83-1.7 1.2.49 3.82 1.38 4.66.96.85-.41-2.08-2.45-3.65-3.42 1.44.6 4.54 1.68 5.39 1.27.84-.42-2.08-2.45-3.65-3.42 1.92.8 5.54 2.1 4.66.97Z" fill="#AA702C" stroke="#000" stroke-width="1.49"/><path d="m123.97 132.02-1.67 1.94M97.48 92.15c-2.25-.93-3.64.28-5.48.52-3.68.48-5.81 11.7-5.81 16.18 0 1.9.56 10.47.6 11.32M95.26 116.65c1.62 2.43 6.35 5.4 7.58 5.96 1.74.8 2.24 2.84 1.17 4.67" stroke="#000" stroke-width="1.49"/><path d="M104.5 123.98c1.5.62 6.05 5.3 7 6.4m-6.87-4.6c1 .42 3.02 1.6 3.13 3.05" stroke="#000" stroke-width="1.49"/><path d="M111.36 103.14c-.97 1.64-2.4 4.97-.36 5.11m0 0c1.02.07 1.59-3.14 1.1-4.8m-1.1 4.8c-1.23 2.2.9 6.3 1.76 4.23.3-.74-.26-3.61-1.76-4.23Zm14.58.77c-1.9.38-5.02 1.14-4.54 2.5.76 2.15 3.22-.08 4.54-2.5Z" stroke="#B0B0B0" stroke-width="1.49"/><path d="M121.04 111.52c-1.6-.36-5.24.82-4.54 2.51.7 1.7 4.36.05 4.54-2.5Z" stroke="#B0B0B0" stroke-width="1.49"/><path d="M112.76 112.48c1.44-.32 4.41.2 3.74 1.55-1.16 2.35-3.64.58-3.74-1.55Z" stroke="#B0B0B0" stroke-width="1.49"/><path d="m113.42 112.76 3.16 1.3c-1.56.22-2.03.73-2.62 1.87l2.53-.14c.83 1.25.71 1.71-.83 2.01l-1.7-1.87.02 2.95c-1.21 1.03-1.84.71-2.11-.88l2.1-2.07-2.8.02c-.6-1.17-.21-1.52.83-2.01l1.96 1.99c.3-1.26.27-1.96-.54-3.17Z" fill="#000"/><path d="M113.96 115.93c.59-1.14 1.06-1.65 2.62-1.87l-3.16-1.3c.8 1.21.84 1.9.54 3.17Zm0 0 2.53-.14c.83 1.25.71 1.71-.83 2.01l-1.7-1.87Zm0 0-2.1 2.07c.28 1.59.91 1.9 2.12.88l-.02-2.95Zm0 0-2.79.02c-.6-1.17-.21-1.52.83-2.01l1.96 1.99Z" stroke="#000" stroke-width="1.49" stroke-linejoin="bevel"/><path d="M131.12 85c-.8 4.06-.98 3.05-1.28 7.36-.24 3.41-.67 5.86.03 10.54" stroke="#FFCB8D" stroke-opacity=".46" stroke-width="1.49" style="mix-blend-mode:multiply"/><path d="m121.24 94.07 1.5.62" stroke="#000" stroke-width=".75"/><circle cx="128.74" cy="122.59" transform="rotate(22.44 128.74 122.6)" fill="#6E86C4" r="1.62"/><path d="m86.04 119.86 35.2 14.54" stroke="#000" stroke-width="1.49"/><path d="M107.9 162.6c.17 0 .37.02.58.04 1.73-.51 2-7.05 1.02-8.16-1.7-1.92.47-13.07 1.69-16.83-6.9-4.38-10.4-6.82-13.87-10.99l22.03 8.22c.55 4.32.57 14.37-.69 20.76-1.48 7.55-7.32 7.22-10.18 7a.85.85 0 0 1-.58-.05Z" fill="#B02929"/><path d="M73.3 121.13c-.61 1.5-1.54 3.74 4.71 9.83l6.58-9.56c-3.66-.34-9.7-4.1-11.28-.28Z" fill="#B02929" stroke="#000" stroke-width="1.49"/><path d="M92.39 123.75c1.34.55 10.43 8.69 17.3 13.28-.05 4.37-1.64 12.47.38 20.32.1 1.44-.5 3.3-2.17 5.24l-7.18-3.84c.23-6.92 1-21.5-3.76-26.98-4.05-.8-8.73-1.83-15.3 9.46-3.79 6.5-4.17 5.34-4.84 3.31l-.01-.05c-.46-1.38-.16-8.83.9-12.78l7.19-11.06c2.55.18 5.24 2.17 7.49 3.1Z" fill="#3076FF"/><path d="M99.23 135.53c2 2.33 1.57 15.67 1.1 22.05l-27.63-9.53c.34-.8 4.92-1.41 6.42-2.05 1.85-2.99 6.21-9.64 8.8-12.32 2.6-2.69 7.17-2.37 9.13-1.87-.11.27.17 1.38 2.18 3.72Z" fill="#6A5A50" stroke="#000" stroke-width="1.49"/><path d="m62.86 150.37.1-.1c6.23-6.11 6.58-6.46 10.85-17.04l3.51-.77c.35-.55-.3-1.15-1.24-1.68-1.13-.48-2.35-.9-3.76-1.52 0 0 2.25.68 3.76 1.53.94.52 1.6 1.12 1.24 1.67l.77 3.51c-6.62 7.62-7.03 7.93-10.95 17.14l-8.53 8.63 4.25-11.37Z" fill="#6E86C4"/><path d="m77.32 132.46-3.51.77c-4.29 10.64-4.62 10.93-10.95 17.14l-4.25 11.37 8.53-8.63c3.92-9.22 4.33-9.52 10.95-17.14l-.77-3.51Zm0 0c.91-1.43-5-3.2-5-3.2 4.03 1.76 6.43 1.96 10 6.4m-4.54-3.91.91-1.43 5.48-8.57" stroke="#B7B7B7" stroke-width="1.49"/><path d="m58.41 161.43 3.9-11.54c6.48-6.18 8.28-10.16 10.72-17.48l2.87-.57-3.75-1.55.62-1.5" stroke="#767676" stroke-width=".75" stroke-linejoin="round"/><path d="M95.71 178.7c.83.45 1.22.75.62.5-.2-.08-.4-.26-.62-.5-1.3-.74-3.7-1.86-4.87-1.77-1.9.15-4.34 3.82-4.67 4.62-.33.8-3.72-4.34-5.62-4.19-1.15-.17-4.08.56-5.24 1.57-.33-1.33-4.01-6.95-7.27-6.08l-.37.12a29.99 29.99 0 0 0 4.47-1.9c1.34-.72 2.25-1.5 1.76-2.07 9.23 5.06 12.82 4.6 18.92 3.14.18.6.43 1.36.73 2.17.61 1.65 1.41 3.48 2.16 4.38Z" fill="#FFDC22"/><path d="M93.55 174.31c-.3-.8-.55-1.58-.73-2.17-6.1 1.47-9.7 1.92-18.92-3.14 1 1.16-3.74 3.13-6.23 3.97 3.34-1.42 7.3 4.58 7.64 5.97 1.16-1.02 4.09-1.75 5.24-1.58 1.9-.15 5.3 4.99 5.62 4.2.33-.8 2.77-4.48 4.67-4.63 1.9-.15 7.06 2.92 5.49 2.27-.9-.37-2-2.78-2.78-4.89Zm0 0c-3.55 1.34-12.8 2.57-21.42-3.24M105.25 163.25c.88.04 2.47-.35 1.8-2.2-.67-1.84-2.6-2.38-3.47-2.41-.77-.32-2.43-.62-2.99.72-.69 1.68.97-4.5-1.25-3.46L94.9 158M95.17 157.33c.27-1.4.5-4.32-.75-4.83-1.56-.65-.78-.33-1.83 0-1.04.32.29-2.9-3.64-2.26-3.92.64.97-1.3-3.12-1.3-1.83 0-1.3-1.28-3.4-.64-1.82 0-2.09.64-2.34-.97l-1.3-1.29" stroke="#000" stroke-width="1.49"/><path d="m85.75 158.92-2.25-.93m11.67-.66-7.5 3.3c-3.21 1.41-6.2.17-6.63-.92-.43-1.09-2.89-5.75-3.63-6.06" stroke="#000" stroke-width="1.49"/><path d="M75.52 151.84 74.58 169l4.62 3.66 7.36 1.29 5.73-1.14 4.38-14.85-21.15-6.1Z" fill="#FFDBB0"/><path d="M102 166.29c.16-1.07 2.88-1.62 4.22-1.76.06-.85.1-2.77-.26-3.62-.44-1.05-1.93-1.67-3.58-1.48-1.65.2.28 1-1.51 1.4-1.8.42-.9-2.4-1.34-3.45-.44-1.06-1.8.13-2.11.88-.31.75-2.43 1.63-2.74 2.38-.3.75.29 1.42 1.19 1.37.9-.06-1.86 4.49-2.48 5.99-.49 1.2-.53 2.7-.48 3.3.18-.5.62-1.67.92-2.25.38-.72 2.56.18 3.3.5.76.3 1.05-2.2 1.36-2.96.3-.75 3.3 1.03 3.5-.3Z" fill="#0F0000"/><path d="M108.89 150.42h-.75.75Zm-2.47 12.71-.22-.71-.79.24.32.77.7-.3Zm-2.88 2.47-.48-.56.48.56Zm-1.76 2.02-.05-.74.05.74Zm-4.79 2.6-.05-.75.05.75Zm-3.02.58.74-.06-.74.06Zm-1.77 2.02-.05-.75h-.07l-.07.02.2.73Zm-17.95-3.76-.7-.29-.22.54.47.35.45-.6Zm.64-1.56.7.28.03-.09.01-.09-.74-.1Zm.5-3.46.74.1v-.05l-.74-.05Zm.17-2.67.75.05-.75-.05Zm-1.23-6 .69-.3-.7.3Zm.64-1.57.7-.29-.7.3Zm-2.05-1.76.74-.06-.74.06Zm33.3 12.49.08.74.63-.06.04-.63-.75-.05Zm-4.23 1.76-.74-.12.74.12Zm-8.16 2.76.67.35-.67-.35Zm-.92 2.25-.75.05 1.45.2-.7-.25Zm2.96-9.3-.05-.74.05.75Zm3.66-4.62-.69.29.7-.29Zm1.34 3.46-.17-.73.17.73Zm5.1.07-.7.3.7-.3Zm3.74-23.71c-.82 4.25-1.54 8.58-1.57 13.22h1.5c.02-4.48.72-8.71 1.53-12.94l-1.46-.28Zm-1.57 13.22c0 .96.26 2.16.52 3.33.27 1.21.54 2.46.63 3.64a5.72 5.72 0 0 1-.46 3.08c-.42.8-1.2 1.51-2.63 1.95l.44 1.43a5.54 5.54 0 0 0 3.52-2.7c.62-1.18.72-2.55.62-3.87-.1-1.31-.4-2.67-.66-3.85a15.35 15.35 0 0 1-.49-3l-1.5-.01Zm-2.4 13c.22.55.52 1.33.69 1.92.08.32.1.5.1.56 0 .05-.01-.14.17-.32a.6.6 0 0 1 .63-.14l-.58 1.38c.2.09.63.18.98-.15.26-.25.29-.58.3-.7 0-.31-.08-.7-.16-1.02-.2-.69-.52-1.54-.76-2.1l-1.38.58Zm1.59 2.02c-.12-.05-.28-.15-.57-.33a6.11 6.11 0 0 0-.94-.52 2.7 2.7 0 0 0-1.31-.21c-.5.05-1 .26-1.45.66l.97 1.13c.26-.22.47-.29.63-.3.17-.03.36.01.59.1.23.1.46.24.7.4.23.14.53.34.8.45l.58-1.38Zm-4.27-.4c-.44.38-.7.75-.84 1.14-.12.35-.12.7-.13.8 0 .13-.01-.06.14-.17.05-.03-.02.03-.5.07l.1 1.49c.48-.03.93-.1 1.25-.33.45-.3.5-.75.5-.96.02-.23.01-.3.05-.4.04-.1.12-.27.4-.5l-.97-1.14Zm-1.33 1.84c-.85.05-1.2-.15-1.82-.25-.3-.04-.72-.05-1.11.23-.35.25-.56.64-.74 1.06l1.39.57c.14-.37.23-.42.22-.41-.07.04-.12.01.01.03.25.04 1.1.33 2.15.26l-.1-1.5Zm-3.67 1.04a5.3 5.3 0 0 0-.32 1.1l-.06.33-.02.09v.02l.06-.08c.03-.03.05-.03.01-.01-.1.03-.3.07-.79.1l.1 1.5a4.6 4.6 0 0 0 1.2-.2 1.25 1.25 0 0 0 .8-.74c.06-.14.09-.29.11-.4l.06-.34c.04-.22.1-.48.24-.8l-1.39-.57Zm-1.12 1.55c-.38.03-.74-.02-1.08-.1l-.5-.13c-.17-.05-.34-.1-.5-.13-.26-.05-.86-.15-1.3.3-.2.21-.28.47-.32.7-.04.23-.04.48-.02.75l1.49-.12c-.02-.2 0-.32 0-.38.01-.06.01 0-.06.08-.18.19-.37.08-.09.14l.4.1c.16.04.36.1.57.14.42.1.94.18 1.51.14l-.1-1.49Zm-3.72 1.39c.04.5-.14.76-.33.92-.23.19-.54.28-.74.29l.1 1.5c.44-.04 1.07-.2 1.6-.63.55-.47.94-1.2.86-2.2l-1.49.12Zm-1.21 1.23c-2.98.8-10.71 1.22-17.32-3.63l-.89 1.2c7.08 5.2 15.3 4.76 18.6 3.88l-.39-1.45Zm-17.07-2.75.64-1.56-1.38-.57-.64 1.56 1.38.57Zm.7-1.74.49-3.45-1.48-.22-.5 3.46 1.48.21Zm.5-3.51.17-2.67-1.5-.1-.17 2.67 1.5.1Zm.17-2.67c.19-2.87-.82-5.23-1.3-6.35l-1.37.59c.47 1.1 1.34 3.18 1.18 5.66l1.49.1Zm-1.3-6.35c-.07-.19.04-.04-.1.16-.04.07-.1.1-.09.1l.11-.05c.06-.03.18-.07.3-.14.11-.07.27-.18.4-.36.28-.43.19-.9.03-1.27l-1.37.58c.08.2-.04.05.1-.15.04-.07.1-.1.1-.1l-.12.05c-.06.03-.18.07-.3.14-.1.06-.27.18-.4.36-.28.43-.19.9-.03 1.27l1.38-.59Zm.65-1.56c-.2-.49-.56-.76-.94-.9a2.5 2.5 0 0 0-.46-.1l-.32-.04a.72.72 0 0 1-.16-.03h-.01l-.01-.02a1.47 1.47 0 0 1-.1-.44l-1.49.11c.04.56.2 1.04.53 1.39.34.34.75.43 1.01.47l.34.05c.1 0 .15.02.18.03.02 0 .03 0 .06.06l1.37-.58Zm-2-1.53c-.06-.83.12-1.78.29-2.78.08-.48.16-.98.18-1.43.03-.44 0-.94-.18-1.37l-1.37.58c.05.12.08.34.06.7-.02.36-.08.78-.16 1.26-.16.93-.4 2.1-.3 3.16l1.48-.12Zm32.48 11.8c-.7.08-1.77.26-2.7.57-.47.16-.94.35-1.33.61-.36.25-.77.64-.86 1.21l1.48.23c0 .04-.01-.04.22-.2.22-.15.55-.3.95-.43.8-.27 1.77-.43 2.4-.5l-.16-1.49Zm-4.89 2.39s.01-.05.08-.1c.05-.04.07-.03 0-.02-.18.02-.47-.03-.89-.12-.35-.08-.83-.2-1.21-.25a1.95 1.95 0 0 0-.68.01c-.26.06-.6.23-.75.62l1.38.57a.45.45 0 0 1-.3.27h.17c.27.04.6.13 1.06.24.4.09.91.2 1.37.15.23-.03.52-.1.78-.3.27-.21.42-.51.47-.84l-1.48-.23Zm-3.45.14c-.1.25-.2.6-.27.93-.09.34-.17.7-.27 1-.1.34-.19.56-.26.66-.03.05-.02 0 .06-.03a.45.45 0 0 1 .36-.02l-.57 1.38c.3.12.61.11.89-.03.24-.12.4-.31.5-.46.2-.3.35-.71.45-1.06.11-.36.2-.76.29-1.09.09-.35.15-.59.2-.71l-1.38-.57Zm-.38 2.54a14.5 14.5 0 0 0-1.89-.66c-.37-.1-.78-.17-1.16-.15-.35.01-.92.12-1.2.67l1.33.69c-.1.18-.25.14-.06.13.16 0 .4.03.72.1.63.16 1.31.45 1.7.6l.56-1.38Zm-4.25-.14c-.33.63-.78 1.83-.97 2.34l1.4.5c.2-.5.62-1.62.9-2.15l-1.33-.7Zm.48 2.54c-.04-.55 0-1.92.44-2.97l-1.39-.57a8.99 8.99 0 0 0-.54 3.64l1.5-.1Zm.44-2.97c.13-.34.4-.87.74-1.52.33-.63.71-1.34 1.04-2.01.33-.66.63-1.31.8-1.82.07-.23.14-.53.12-.8a.9.9 0 0 0-.97-.87l.1 1.49a.6.6 0 0 1-.62-.5c0-.04 0 .02-.06.23-.12.38-.38.95-.7 1.6l-1.03 2c-.33.62-.64 1.22-.8 1.63l1.38.57Zm1.73-7.02c-.26.02-.39-.07-.44-.13a.15.15 0 0 1-.03-.07l.02-.14-1.38-.57c-.26.63-.15 1.29.27 1.77a2 2 0 0 0 1.66.63l-.1-1.5Zm-.45-.34s.06-.09.3-.28c.21-.18.48-.36.8-.57.3-.2.62-.42.9-.65.26-.2.58-.5.74-.87l-1.38-.58s-.06.1-.3.3c-.21.16-.49.35-.8.56-.3.2-.63.42-.9.64-.26.2-.58.5-.74.88l1.38.57Zm2.74-2.37a1.93 1.93 0 0 1 .7-.76c.15-.1.2-.08.15-.08a.24.24 0 0 1-.11-.05c-.03-.03-.03-.04 0 0l1.37-.56c-.19-.47-.55-.8-1.06-.87-.44-.06-.84.1-1.12.27-.56.33-1.1.94-1.31 1.47l1.38.58Zm.73-.88c.05.11.08.35.09.77 0 .35-.01.86.02 1.27.03.4.1.96.43 1.37.18.23.43.41.74.5.3.07.61.06.91-.01l-.33-1.46c-.15.03-.2.02-.2.02l.03.01.02.01c-.02-.02-.08-.16-.11-.54-.03-.37-.01-.73-.02-1.2 0-.39-.03-.9-.2-1.31l-1.38.57Zm2.2 3.9c.48-.11.93-.3 1.2-.66.3-.42.2-.87.17-1l-.02-.07c0 .04 0 .16-.09.28-.07.1-.15.12-.12.11.03-.01.1-.03.28-.05l-.17-1.49a2.7 2.7 0 0 0-.64.14c-.2.08-.4.2-.56.4-.16.23-.2.47-.2.64.01.14.04.29.05.32.03.15-.03 0 .08-.15.07-.1.1-.03-.32.07l.33 1.46Zm1.42-1.4a3.8 3.8 0 0 1 1.88.22c.5.22.81.52.93.81l1.38-.57a3.1 3.1 0 0 0-1.74-1.62 5.29 5.29 0 0 0-2.62-.32l.17 1.49Zm2.81 1.03c.12.29.2.86.23 1.55.03.66 0 1.32-.02 1.73l1.49.1a18 18 0 0 0 .02-1.9c-.02-.68-.1-1.5-.34-2.05l-1.38.57Z" fill="#000"/><path d="M76.27 152.16c.75.3-.31.74-.18 2.55.1 1.45-.2 4.01-.36 5.11-.28-2.16-.98-6.54-1.58-6.79-.75-.3-.13-1.8.18-2.55.31-.75-.13-1.8.18-2.56.31-.75 2.87-.57 3.62-.26.74.31.43 1.06 1.18 1.37.6.25 1.96.22 2.56.18 3.61-.26 5.24 2.16 6.3 1.72 1.06-.44 4.5 1.86 6 2.48 1.49.62.12 1.8.56 2.86.44 1.06-1.68 1.94-3.48 2.07-1.81.13-1.06.44-2.56-.18s-2.56-.18-4.8-1.1c-2.25-.93-.44-1.06-1.94-1.68-1.5-.62-.75-.31-2.69-1.99-1.93-1.67-3.74-1.54-3-1.23Z" fill="#000"/><path d="M75.73 159.82Zm0 0c.16-1.1.46-3.66.36-5.1-.13-1.82.93-2.26.18-2.56-.75-.31 1.06-.44 3 1.23 1.93 1.68 1.18 1.37 2.68 1.99 1.5.62-.3.75 1.94 1.68 2.24.92 3.3.48 4.8 1.1 1.5.62.75.31 2.56.18 1.8-.13 3.92-1 3.48-2.07-.44-1.05.93-2.24-.57-2.86-1.5-.62-4.93-2.91-5.99-2.48-1.06.44-2.69-1.98-6.3-1.72-.6.04-1.96.07-2.56-.18-.75-.31-.44-1.06-1.18-1.37-.75-.3-3.31-.49-3.62.26-.3.75.13 1.8-.18 2.56-.3.75-.93 2.24-.18 2.55.6.25 1.3 4.63 1.58 6.8ZM92.29 172.8c-.25-.1-.65-.97-.26-3.62.49-3.3 2.6-4.18 2.47-5.99-.13-1.8-.44-1.06-.88-2.11-.44-1.06 2.12-.88 2.3-3.44" stroke="#000" stroke-width="1.49"/><path d="M81.85 169.47c-.35.84-.11 2.5 3.6 2.47m-6.31-2.6c-.9-.06-2.8-.38-3.15-1.31m19.18-10.7c-3 2.03-9.3 5.96-10.55 5.44-1.58-.65-3.16-1.3-3.6-2.46l-2.21-5.82" stroke="#000" stroke-width="1.49"/><path d="M81.36 167.4c.23-.55.93-2.24-.15-3.97" stroke="#000" stroke-width=".75"/><path d="m84.36 168.65-.75-.31m-3.74-1.55-.75-.3M76.94 146.3c-.52-.87-1.56-4.74.1-8.73" stroke="#000" stroke-width="1.49"/><path d="M75.04 126.06c.88 1.13 2.98 2.83 3.6 3.4l.05.02 5.9-8.08c-1.2-.5-4.28-1.57-3.97-.68.3.89 1.34 1.51 1.82 1.7-1.2-.49-3.81-1.38-4.66-.96-.84.42 2.08 2.45 3.65 3.42-1.44-.6-4.53-1.68-5.38-1.27-.85.42 2.08 2.46 3.65 3.42-1.92-.8-5.55-2.1-4.66-.97Z" fill="#AA702C" stroke="#000" stroke-width="1.49"/><path d="m82.16 123.03 1.68-1.94M108.66 162.9c2.25.93 3.64-.28 5.48-.52 3.67-.48 5.81-11.7 5.8-16.18 0-1.9-.55-10.47-.6-11.32M110.88 138.4c-1.63-2.43-6.36-5.39-7.58-5.96-1.74-.8-2.24-2.84-1.18-4.67M101.63 131.07c-1.5-.62-6.05-5.3-7-6.4m6.87 4.6c-1-.42-3.02-1.6-3.12-3.05" stroke="#000" stroke-width="1.49"/><path d="M94.78 151.91c.97-1.64 2.4-4.97.36-5.11m0 0c-1.03-.07-1.6 3.14-1.1 4.8m1.1-4.8c1.23-2.2-.9-6.3-1.76-4.23-.31.75.26 3.61 1.76 4.23Zm-14.59-.77c1.91-.38 5.03-1.14 4.54-2.5-.76-2.15-3.21.08-4.54 2.5ZM85.1 143.53c1.6.37 5.24-.82 4.54-2.51-.7-1.7-4.37-.05-4.55 2.5Z" stroke="#B0B0B0" stroke-width="1.49"/><path d="M93.38 142.57c-1.45.32-4.42-.2-3.74-1.55 1.16-2.35 3.64-.58 3.74 1.55Z" stroke="#B0B0B0" stroke-width="1.49"/><path d="m92.72 142.3-3.17-1.31c1.57-.22 2.04-.73 2.62-1.87l-2.52.14c-.84-1.25-.72-1.71.83-2.01l1.7 1.87-.02-2.95c1.2-1.03 1.84-.7 2.1.88l-2.09 2.07 2.8-.02c.6 1.17.2 1.52-.84 2.01l-1.96-1.99c-.3 1.26-.26 1.96.55 3.17Z" fill="#000"/><path d="M92.17 139.12c-.58 1.14-1.05 1.65-2.62 1.87l3.17 1.3c-.8-1.21-.84-1.9-.55-3.17Zm0 0-2.52.14c-.84-1.25-.72-1.71.83-2.01l1.7 1.87Zm0 0 2.1-2.08c-.27-1.58-.9-1.9-2.11-.87l.01 2.95Zm0 0 2.8-.02c.6 1.17.2 1.52-.84 2.01l-1.96-1.99Z" stroke="#000" stroke-width="1.49" stroke-linejoin="bevel"/><path d="M75.01 170.05c.8-4.06.99-3.05 1.3-7.36.23-3.41.66-5.86-.04-10.54" stroke="#FFCB8D" stroke-opacity=".46" stroke-width="1.49" style="mix-blend-mode:multiply"/><path d="m84.9 160.98-1.5-.62" stroke="#000" stroke-width=".75"/><circle cx="77.39" cy="132.46" transform="rotate(-157.56 77.4 132.46)" fill="#6E86C4" r="1.62"/><path d="m120.1 135.2-35.2-14.55" stroke="#000" stroke-width="1.49"/><rect y="74.44" width="84.27" height="126.4" rx="5.98" transform="rotate(-9.15 0 74.44)" fill="#fff"/><path d="m16.45 135.8 68.8-11.08" stroke="#000" stroke-width="1.49"/><mask id="c" style="mask-type:alpha" maskUnits="userSpaceOnUse" x="9" y="64" width="86" height="131"><path d="m14.79 75.27 59-9.5a5.23 5.23 0 0 1 6 4.33l13.76 85.39a2.4 2.4 0 0 1-1.98 2.74c-1.8.3-3.17 1.8-3.27 3.63l-.8 14.9a3 3 0 0 0 1.88 2.95c1.4.56 1.2 2.61-.3 2.89l-62.61 11.43a5.23 5.23 0 0 1-6.13-4.5l-10.49-83.1a4.2 4.2 0 0 1 3.5-4.66 5.7 5.7 0 0 0 4.71-6.53l-1.9-11.8a4.22 4.22 0 0 0-2.2-3.06 2.73 2.73 0 0 1 .83-5.1Z" fill="#C4C4C4" stroke="#000" stroke-width="1.49"/></mask><g mask="url(#c)"><rect x="8.29" y="80.42" width="69.81" height="111.94" rx="5.23" transform="rotate(-9.15 8.29 80.42)" stroke="#000" stroke-width="1.49"/></g><path d="M14.19 96.2a2.12 2.12 0 0 1 .1.33 1.55 1.55 0 0 1-.39 1.3c-.15.17-.35.32-.6.45a2.84 2.84 0 0 1-2.73-.1 2.4 2.4 0 0 1-.7-.68c-.2-.27-.33-.6-.4-.96l-.04-.5c-.01-.23 0-.48.07-.76-.66 0-1.25-.15-1.8-.48a5.1 5.1 0 0 1-1.44-1.38 8.87 8.87 0 0 1-1.08-2.09c-.29-.8-.51-1.68-.66-2.61-.16-1-.22-1.94-.19-2.84.04-.9.19-1.71.45-2.42.25-.7.63-1.3 1.12-1.76.48-.47 1.1-.76 1.83-.88a3.4 3.4 0 0 1 2.06.25c.62.29 1.16.73 1.62 1.32.46.6.84 1.31 1.15 2.16a14.97 14.97 0 0 1 .89 5.12 9.5 9.5 0 0 1-.24 2.1 5.94 5.94 0 0 1-.67 1.73c-.3.5-.67.9-1.11 1.19-.18.17-.32.38-.43.61-.1.25-.13.55-.08.91l.02.12.07.2.12.24c.05.1.12.19.2.28a1.9 1.9 0 0 1 .32-1.2c.11-.16.25-.3.42-.4.17-.1.36-.18.58-.21.31-.06.6-.02.88.13.27.15.5.43.66.82Zm-3.38-8.5c-.12-.77-.27-1.5-.44-2.16a9.44 9.44 0 0 0-.6-1.74 3.2 3.2 0 0 0-.8-1.11c-.28-.26-.61-.36-.98-.3-.36.06-.63.26-.83.59-.2.33-.33.77-.4 1.3a9.9 9.9 0 0 0-.04 1.84 22.06 22.06 0 0 0 .71 4.39c.18.67.38 1.25.62 1.73.23.48.5.85.8 1.11.28.26.6.36.95.3.34-.05.61-.25.81-.58.2-.34.33-.77.4-1.3.08-.54.1-1.16.05-1.85-.04-.7-.12-1.44-.25-2.22ZM89.1 164.07a2.24 2.24 0 0 1-.08-.34 1.54 1.54 0 0 1 .37-1.3c.16-.17.36-.33.6-.45a2.79 2.79 0 0 1 1.8-.24c.34.06.65.18.93.35a2.24 2.24 0 0 1 1.1 1.63l.05.5c.01.23-.01.48-.07.76.65 0 1.25.15 1.8.48.54.34 1.02.8 1.44 1.38.42.6.78 1.3 1.08 2.09.29.8.5 1.67.66 2.61.16 1 .22 1.94.19 2.84-.04.9-.2 1.71-.45 2.42-.26.7-.63 1.3-1.12 1.76-.49.47-1.1.76-1.84.88-.76.12-1.44.04-2.06-.25a4.36 4.36 0 0 1-1.61-1.32 7.9 7.9 0 0 1-1.16-2.16 14.96 14.96 0 0 1-.88-5.12c0-.76.09-1.46.24-2.1.15-.65.37-1.23.66-1.73.3-.5.67-.9 1.12-1.19.18-.17.32-.38.43-.61.1-.25.13-.55.07-.91 0-.03 0-.07-.02-.12a2.9 2.9 0 0 0-.19-.44c-.05-.1-.11-.19-.2-.28a1.9 1.9 0 0 1-.3 1.2c-.12.16-.26.3-.43.4-.17.1-.37.18-.58.21-.31.06-.6.02-.88-.13-.27-.15-.5-.43-.66-.82Zm3.38 8.49c.13.77.28 1.5.45 2.16.17.68.38 1.26.6 1.74.23.49.5.86.8 1.11.28.26.61.36.98.3.36-.06.63-.26.83-.59.2-.33.33-.77.4-1.3a9.9 9.9 0 0 0 .03-1.84 22.04 22.04 0 0 0-.7-4.39c-.18-.67-.39-1.25-.62-1.73-.24-.48-.5-.86-.8-1.12a1.13 1.13 0 0 0-1.76.29c-.2.34-.33.77-.4 1.3a9.53 9.53 0 0 0-.06 1.85c.05.7.13 1.44.25 2.22Z" fill="#000"/><path d="m46.02 149.52-17.04-3.88c18.51-10.06 33.43-7.6 38.57-5.11l-9.62 8.18-1.27 5.73c1 1.68 2.89 7.05 2.43 15.09-.46 8.03-5.08 13.71-7.34 15.55-2.96-.26-8.84-3.22-8.66-12.98.23-12.2 1.12-13.44 3.97-16.11l-1.04-6.47Z" fill="#FFDBB0"/><path d="m47.06 155.99-1.04-6.47-17.04-3.88c18.51-10.06 33.43-7.6 38.57-5.11l-9.62 8.18-1.27 5.73c1 1.68 2.89 7.05 2.43 15.09-.46 8.03-5.08 13.71-7.34 15.55m-4.69-29.1c-2.85 2.68-3.74 3.93-3.97 16.12-.18 9.76 5.7 12.72 8.66 12.98m-4.69-29.1c1.07-.16 3.45-.32 4.44.4m.25 28.7c-3.8 1.35-1.61 3.58 5.68 1.3C68.2 183 70.1 169.96 67.8 169.23l-1.47-19.3" stroke="#000" stroke-width="1.49" stroke-linejoin="bevel"/><path d="M52.16 184.21c-3.6-.47-7.04-4.34-7.95-8.56-.72-3.34-.02-6.44.88-14.92.6-2.06 2.06-4.08 5.21-3.3" stroke="#FFCB8D" stroke-opacity=".46" stroke-width="1.49" style="mix-blend-mode:multiply"/><path d="M48.1 171.74c-.22-1.36-.93-4.23-2.02-4.9m4.14-4.83a6.78 6.78 0 0 0-4.8.77" stroke="#000" stroke-width=".75"/><path d="M51.52 173.46c.47.69 2.2 1.47 5.33-.86m-9.6 1.55c-.23.8-1.2 2.02-3.2.51m.71-2.39 1.07-.17m7.46-1.2 1.07-.17" stroke="#000" stroke-width="1.49"/><path d="M67.6 168.03c-3.1-9.13-2-20.54-2.3-24.5l-6.56 5.15-1.65 4.64 2.54 9.43-1.9 13.43c-3.62 10-6.98 10.72-5.99 10.56 16-2.58 15.83-14.7 15.86-18.72Z" fill="#000" stroke="#000" stroke-width="1.49"/><path d="m68.65 172.46 6.45 6.42-5.22.21.15 5.15-4.84-1.76.15 5.15-4.84-1.77-2.3 3.95-4-6.91 14.45-10.44Z" fill="#FFDC22" stroke="#000" stroke-width="1.49" stroke-linejoin="round"/><path d="m28.98 145.64-4-11.21 53.07-8.55c-1.65 10.29-5.55 16.48-11.72 24.04l-.36-7.32 1.34-1.86c-4.6-2.57-18.73-5.2-38.33 4.9Z" fill="#742B8E" stroke="#000" stroke-width="1.49" stroke-linejoin="bevel"/><path d="m57.28 110.73 17.04 3.9c-18.52 10.05-33.43 7.59-38.57 5.1l9.62-8.18 1.27-5.73c-1-1.68-2.89-7.05-2.43-15.09.45-8.03 5.08-13.71 7.34-15.55 2.96.26 8.84 3.22 8.66 12.98-.23 12.2-1.12 13.44-3.97 16.11l1.04 6.47Z" fill="#FFDBB0"/><path d="m56.24 104.27 1.04 6.47 17.04 3.88c-18.52 10.06-33.43 7.6-38.57 5.11l9.62-8.18 1.27-5.73c-1-1.68-2.89-7.05-2.43-15.09.45-8.03 5.08-13.71 7.34-15.55m4.69 29.09c2.85-2.67 3.74-3.92 3.97-16.11.17-9.76-5.7-12.72-8.66-12.98m4.69 29.09c-1.07.17-3.45.34-4.44-.39m-.25-28.7c3.8-1.35 1.61-3.58-5.68-1.3C35.1 77.25 33.19 90.3 35.5 91.03l1.47 19.3" stroke="#000" stroke-width="1.49" stroke-linejoin="bevel"/><path d="M51.14 76.05c3.59.47 7.03 4.34 7.95 8.56.72 3.34.01 6.44-.88 14.92-.6 2.06-2.06 4.08-5.21 3.3" stroke="#FFCB8D" stroke-opacity=".46" stroke-width="1.49" style="mix-blend-mode:multiply"/><path d="M55.2 88.52c.22 1.36.93 4.23 2.02 4.9m-4.14 4.83c.85.21 3.01.35 4.8-.77" stroke="#000" stroke-width=".75"/><path d="M51.78 86.8c-.47-.69-2.2-1.47-5.33.86m9.6-1.55c.23-.8 1.2-2.02 3.2-.52m-.71 2.4-1.07.17M50 89.36l-1.06.17" stroke="#000" stroke-width="1.49"/><path d="M35.7 92.23c3.1 9.13 2 20.55 2.3 24.5l6.56-5.15 1.64-4.64-2.53-9.43 1.9-13.43c3.62-10 6.98-10.72 5.99-10.56-16 2.57-15.83 14.7-15.86 18.71Z" fill="#000" stroke="#000" stroke-width="1.49"/><path d="m34.65 87.8-6.45-6.42 5.22-.21-.15-5.15 4.84 1.76-.15-5.15 4.84 1.77 2.3-3.95 4 6.91L34.66 87.8Z" fill="#FFDC22" stroke="#000" stroke-width="1.49" stroke-linejoin="round"/><path d="m74.32 114.62 4 11.21-53.07 8.55c1.65-10.29 5.55-16.48 11.72-24.04l.36 7.32-1.34 1.86c4.6 2.57 18.73 5.19 38.33-4.9Z" fill="#742A8E" stroke="#000" stroke-width="1.49" stroke-linejoin="bevel"/><path d="m21.29 83.32 6.93 6.37c.35 2.14.06 3.02-1.5 3.91-1.89.82-3.94-1.02-3.94-1.02s-1.36 2.39-3.42 2.2c-1.75-.35-2.3-1.1-2.65-3.24l4.58-8.22Z" fill="#000"/><path d="M21.58 98a10.92 10.92 0 0 0 1.21-5.38c.76 2.14 1.35 3.2 2.85 4.73l-4.06.66ZM81.65 177.79l4.58-8.23c-.35-2.14-.9-2.89-2.65-3.24-2.06-.19-3.42 2.2-3.42 2.2s-2.05-1.84-3.95-1.02c-1.55.89-1.84 1.77-1.5 3.92l6.94 6.37Z" fill="#000"/><path d="M77.3 163.75c1.5 1.53 2.1 2.6 2.85 4.73.05-2.27.28-3.46 1.22-5.39l-4.06.66Z" fill="#000"/><g filter="url(#d)"><path d="M91.93 47.85s6.85-3.35 13.36-1.88c2.96 1.97 8.49 4.36 6.11 15.2-3.15 5.45-11.82 13.82-30.56 24.7-10.87-21.85-12.26-29.04-11.77-37.05 2.47-8.47 6.18-10.5 11.5-10.06 7.17 2.1 11.36 9.1 11.36 9.1Z" fill="#C62222"/></g><g filter="url(#e)"><path d="M112.41 26.58s2.73-1.33 5.32-.75c1.18.78 3.38 1.74 2.43 6.05-1.25 2.17-4.7 5.5-12.16 9.84-4.33-8.7-4.89-11.56-4.7-14.75 1-3.38 2.47-4.19 4.59-4.01 2.85.83 4.52 3.62 4.52 3.62Z" fill="#C62222"/></g><g filter="url(#f)"><path d="M146.52 24.98s1.03-.5 2.01-.29c.45.3 1.28.66.93 2.3-.48.81-1.78 2.08-4.61 3.72-1.64-3.3-1.85-4.38-1.77-5.59.37-1.27.93-1.58 1.73-1.51 1.08.31 1.71 1.37 1.71 1.37Z" fill="#C62222"/></g><g filter="url(#g)"><path d="M133.44 27.96s1.7-.84 3.33-.47c.74.5 2.12 1.09 1.53 3.8-.79 1.36-2.95 3.45-7.63 6.16-2.71-5.45-3.06-7.25-2.94-9.25.62-2.11 1.54-2.62 2.87-2.5a5.57 5.57 0 0 1 2.84 2.26Z" fill="#C62222"/></g><g filter="url(#h)"><path d="M126.88 46.37s2.73-1.34 5.32-.75c1.18.78 3.38 1.73 2.43 6.05-1.25 2.17-4.7 5.5-12.16 9.84-4.33-8.7-4.89-11.57-4.7-14.76 1-3.37 2.47-4.18 4.59-4 2.85.83 4.52 3.62 4.52 3.62Z" fill="#C62222"/></g></g><rect x="71" y="144" width="39.44" height="59.16" rx="2.8" fill="#fff"/><mask id="i" style="mask-type:alpha" maskUnits="userSpaceOnUse" x="71" y="145" width="38" height="57"><path d="M78.15 145.49h27.97c1.36 0 2.45 1.1 2.45 2.45v40.48c0 .62-.5 1.12-1.12 1.12-.85 0-1.6.6-1.78 1.43l-1.48 6.82c-.13.6.14 1.2.65 1.5.61.37.36 1.3-.35 1.32l-29.78.62a2.45 2.45 0 0 1-2.5-2.53l1.34-39.18c.03-1.06.9-1.9 1.96-1.9 1.47 0 2.67-1.19 2.67-2.66v-5.6c0-.62-.3-1.2-.8-1.58-.97-.73-.45-2.3.77-2.3Z" fill="#C4C4C4" stroke="#000" stroke-width=".7"/></mask><g mask="url(#i)"><rect x="74.76" y="147.38" width="32.67" height="52.39" rx="2.45" stroke="#000" stroke-width=".7"/></g><path d="M74.8 173.58h32.6" stroke="#000" stroke-width=".7"/><path d="M81.7 156.14h-3.2c1.28-.75 1.5-1.36 1.6-2.55l-2.13 1.02c-1.17-.78-1.23-1.23 0-2.04l2.13 1.02-1.06-2.55c.67-1.32 1.33-1.27 2.13 0l-1.07 2.55 2.4-1.02c.95.8.74 1.24 0 2.04l-2.4-1.02c.2 1.2.48 1.78 1.6 2.55Z" fill="#000"/><path d="M80.1 153.59c-.1 1.2-.32 1.8-1.6 2.55h3.2c-1.12-.76-1.4-1.36-1.6-2.55Zm0 0-2.13 1.02c-1.17-.78-1.23-1.23 0-2.04l2.13 1.02Zm0 0 1.07-2.55c-.8-1.27-1.46-1.32-2.13 0l1.06 2.55Zm0 0 2.4-1.02c.95.8.74 1.24 0 2.04l-2.4-1.02Z" stroke="#000" stroke-width=".7"/><path d="M99.73 191.03h3.2c-1.27.74-1.5 1.35-1.6 2.54l2.14-1.02c1.17.78 1.23 1.23 0 2.04l-2.13-1.02 1.06 2.55c-.67 1.32-1.33 1.27-2.13 0l1.07-2.55-2.4 1.02c-.94-.8-.74-1.24 0-2.04l2.4 1.02c-.2-1.2-.48-1.78-1.6-2.54Z" fill="#000"/><path d="M101.34 193.57c.1-1.2.32-1.8 1.6-2.54h-3.2c1.12.75 1.4 1.35 1.6 2.54Zm0 0 2.13-1.02c1.17.78 1.23 1.23 0 2.04l-2.13-1.02Zm0 0-1.07 2.55c.8 1.27 1.46 1.32 2.13 0l-1.06-2.55Zm0 0-2.4 1.02c-.94-.8-.74-1.24 0-2.04l2.4 1.02Z" stroke="#000" stroke-width=".7"/><path d="M75.41 148.14a69.7 69.7 0 0 0-.1 2 18.57 18.57 0 0 0 .02 1.22 22.18 22.18 0 0 1 .03 1.16c0 .3-.03.58-.1.86a2.1 2.1 0 0 1-.3.73c-.14.21-.33.38-.57.5-.24.14-.54.2-.9.2-.21 0-.4-.03-.57-.08a1.36 1.36 0 0 1-.74-.5 1.83 1.83 0 0 1-.34-1.15c0-.17.02-.3.08-.42a.74.74 0 0 1 .67-.44c.06 0 .13.02.22.05a.7.7 0 0 1 .25.12.72.72 0 0 1 .29.6.85.85 0 0 1-.24.55.64.64 0 0 1-.33.16c.05.09.11.16.18.2a.92.92 0 0 0 .56.2c.16 0 .28-.04.38-.1.1-.07.16-.16.21-.27.05-.11.09-.25.1-.4.02-.15.03-.32.03-.5a162.29 162.29 0 0 0-.06-3.53c-.02-.38-.06-.76-.1-1.14a2.05 2.05 0 0 0 .5.03 8.6 8.6 0 0 0 .83-.05ZM106.03 198.26a68.07 68.07 0 0 0 .1-2 18.07 18.07 0 0 0-.02-1.21 21.75 21.75 0 0 1-.03-1.17c0-.3.03-.58.1-.86.05-.27.15-.52.3-.73.14-.21.33-.38.57-.5.24-.13.54-.2.9-.2.21 0 .4.03.57.08a1.37 1.37 0 0 1 .74.5 1.85 1.85 0 0 1 .34 1.15.83.83 0 0 1-.28.67.77.77 0 0 1-.46.19.8.8 0 0 1-.23-.04.72.72 0 0 1-.25-.13.71.71 0 0 1-.28-.6c0-.1.02-.21.07-.3.03-.08.09-.16.16-.24a.63.63 0 0 1 .33-.17.85.85 0 0 0-.18-.2.92.92 0 0 0-.56-.19.68.68 0 0 0-.38.1.63.63 0 0 0-.21.26c-.05.12-.09.25-.1.4a4.3 4.3 0 0 0-.03.5 156.7 156.7 0 0 0 .06 3.53c.02.38.06.76.1 1.14a2 2 0 0 0-.5-.03 8.57 8.57 0 0 0-.83.05Z" fill="#000"/><path d="M96.4 184.58c0 1.56.39-1.9 2.66-.76 2.06 1.03-.76 1.52-1.13 4.17-.94 1.97-2.2 5.27-2.66 5.69l-5.69-.38 3.04-6.45 2.27-3.03c1.52-.76 1.52 0 1.52.76Z" fill="#FFDC22"/><path d="m102.86 179.65-3.42 4.17c-.6-1.21-1.77-.25-2.27.38 0-.13-.23-.46-1.14-.76-.91-.3-1.9.38-2.28.76l-5.3-7.96-4.94 6.44-4.17-3.03-.38-6.83h24.28l-.38 6.83Z" fill="#D1B167"/><path d="m92.62 187.23-3.42 6.45-5.3-.38.37-3.03-1.13-2.28 1.13-.76.38-1.13v-2.66c.38.13 1.52.3 3.04 0 1.51-.3 2.9.88 3.4 1.52v1.13c.83.04 1.13.35 1.53 1.14Z" fill="#FFDBB0"/><path d="m84.65 183.44 3.8-4.93L93 186.1l-.76.75c-2.28-2.65-2.66-3.97-7.59-3.41Z" fill="#3076FF"/><path d="m93.37 185.72.76-1.14-5.69-8.34-4.55 6.44.76.76 4.17-4.93 4.55 7.2Z" fill="#B02929"/><path d="M85.67 192.6c.13.18.9.34 2.96-.45" stroke="#000" stroke-width=".7"/><path d="M85.32 187c.47-.32 1.51-.95 1.9-.95.47 0 1.41.94.47 1.42-.76.38-.95-.16-.95-.48" stroke="#000" stroke-width=".35"/><path d="M86.26 190.79h.95" stroke="#000" stroke-width=".7"/><path d="m96.22 196.47-.48-3.31c-2.68.63-8.81 1.51-11.85 0 0 3.31-2.84 2.37 0 3.79 2.28 1.14 9.17.16 12.33-.48Z" fill="#000" stroke="#000" stroke-width=".7" stroke-linejoin="bevel"/><path d="M103.61 173.2H78.58" stroke="#000" stroke-width=".7" stroke-linejoin="bevel"/><path d="M85.32 187.36c-.48 0-2.37 0-2.37.48 0 .38.94 1.73 1.42 2.37l-.48 2.84c.92.55 2.98.68 5.22.61m-4.74-6.3c-.21-.63-.04-1.1.24-1.42m.7-.47c-.2.07-.48.22-.7.47m0 0v-2.37m0 0c.74-.02 2.54-.06 4.02 0a3.5 3.5 0 0 1 2.85 1.9m-6.87-1.9-1.1-.7m1.1.7 4.02-5.06 4.68 7.43m-14.35-12.36.38 6.2 4.17 3.1m13.18 5.9c-1.15-.11-1.9-.47-1.42-1.42.86-1.72 2.04-1.11 2.57-.47m0 0c.15.17.24.34.27.47.38.76-1.42 4.11-2.37 5.7-1.63.24-4.23.53-6.63.6m8.73-6.77.75-.95c.9-.26 1.4-1.16.95-1.9m0 0c-.1-.17-.26-.33-.48-.47-.37-.35-2.26.34-1.9 1m2.38-.53 3.31-4.26.39-6.2M89.1 193.66l2.37-4.88c.44-.31.84-.76 1.03-1.2m-1.98.26c-.79-.8-.43-2.24.95-1.9 1.13.28 1.3.96 1.03 1.63m.86-1.63.95-1.9c.95-.94 3.32-.94 1.9 1.43m-2.85 3.31c.8-.31 2.3-1.47.95-2.37-.89-.59-1.68.3-1.81 1.16m-9-4.7 5.12-6.63 5.12 8.34" stroke="#000" stroke-width=".7"/><path d="M84.27 192.92c.35-1.08.68-2.44.38-3.03a6.66 6.66 0 0 0-1.51-1.9m1.51-.76c.05-.87-.1-1.12.38-1.51v-1.9" stroke="#FFCB8D" stroke-opacity=".46" stroke-width=".7" style="mix-blend-mode:multiply"/><path d="M85.79 162.2c0-1.56-.38 1.9-2.65.76-2.06-1.03.75-1.52 1.13-4.17.94-1.97 2.2-5.27 2.66-5.69l5.69.38-3.04 6.45-2.27 3.03c-1.52.76-1.52 0-1.52-.76Z" fill="#FFDC22"/><path d="m79.34 167.13 3.42-4.17c.6 1.22 1.77.25 2.27-.38 0 .13.23.46 1.14.76.9.3 1.9-.38 2.27-.76l5.31 7.97 4.93-6.45 4.17 3.03.39 6.83H78.95l.38-6.83Z" fill="#D1B167"/><path d="M89.58 159.55 93 153.1l5.3.38-.37 3.03 1.13 2.28-1.13.76-.38 1.14v2.65a6.65 6.65 0 0 0-3.04 0c-1.51.3-2.9-.88-3.41-1.52v-1.13c-.82-.04-1.12-.35-1.52-1.14Z" fill="#FFDBB0"/><path d="m97.55 163.34-3.8 4.93-4.55-7.58.76-.76c2.28 2.65 2.66 3.97 7.59 3.41Z" fill="#3076FF"/><path d="m88.82 161.06-.75 1.14 5.68 8.35 4.55-6.45-.75-.76-4.18 4.93-4.55-7.2Z" fill="#B02929"/><path d="M96.53 154.18c-.13-.18-.9-.34-2.97.45" stroke="#000" stroke-width=".7"/><path d="M96.88 159.79c-.47.31-1.51.95-1.9.95-.47 0-1.42-.95-.47-1.43.76-.38.95.16.95.48" stroke="#000" stroke-width=".35"/><path d="M95.93 156H95" stroke="#000" stroke-width=".7"/><path d="m85.98 150.3.47 3.32c2.69-.63 8.82-1.51 11.85 0 0-3.31 2.85-2.37 0-3.79-2.27-1.14-9.16-.16-12.32.48Z" fill="#000" stroke="#000" stroke-width=".7" stroke-linejoin="bevel"/><path d="M78.58 173.58h25.03" stroke="#000" stroke-width=".7" stroke-linejoin="bevel"/><path d="M96.88 159.42c.48 0 2.37 0 2.37-.48 0-.38-.95-1.73-1.42-2.37l.47-2.84c-.91-.55-2.97-.68-5.21-.61m4.74 6.3c.21.64.04 1.1-.24 1.42m-.7.47c.2-.06.48-.22.7-.47m0 0v2.37m0 0c-.74.03-2.54.06-4.03 0a3.5 3.5 0 0 1-2.84-1.9m6.87 1.9 1.1.7m-1.1-.7-4.03 5.06-4.67-7.43m14.34 12.36-.38-6.2-4.17-3.1M85.51 158c1.15.12 1.9.47 1.42 1.42-.86 1.72-2.04 1.11-2.58.47m0 0a1.3 1.3 0 0 1-.27-.47c-.38-.76 1.43-4.11 2.37-5.69 1.64-.24 4.24-.54 6.64-.61m-8.74 6.77-.74.95c-.9.26-1.4 1.16-.95 1.9m0 0c.1.17.26.33.48.47.37.35 2.25-.34 1.9-1m-2.38.53L79.34 167l-.38 6.2m14.13-20.08L90.72 158c-.44.31-.84.76-1.03 1.21m1.98-.27c.79.8.43 2.25-.95 1.9-1.13-.28-1.3-.96-1.03-1.63m-.87 1.63-.94 1.9c-.95.94-3.32.94-1.9-1.43m2.84-3.31c-.79.31-2.28 1.48-.94 2.37.89.59 1.68-.3 1.81-1.16m9 4.7-5.13 6.64-5.12-8.35" stroke="#000" stroke-width=".7"/><path d="M97.93 153.86c-.35 1.09-.68 2.44-.38 3.03.38.76.75 1.14 1.51 1.9m-1.51.76c-.06.87.09 1.13-.38 1.51v1.9" stroke="#FFCB8D" stroke-opacity=".46" stroke-width=".7" style="mix-blend-mode:multiply"/><defs><filter id="a" x="0" y="22.94" width="168.5" height="180.69" filterUnits="userSpaceOnUse" color-interpolation-filters="sRGB"><feFlood flood-opacity="0" result="BackgroundImageFix"/><feColorMatrix in="SourceAlpha" values="0 0 0 0 0 0 0 0 0 0 0 0 0 0 0 0 0 0 127 0" result="hardAlpha"/><feOffset dx="1.49" dy="1.49"/><feColorMatrix values="0 0 0 0 0 0 0 0 0 0 0 0 0 0 0 0 0 0 0.25 0"/><feBlend in2="BackgroundImageFix" result="effect1_dropShadow_1570_9741"/><feBlend in="SourceGraphic" in2="effect1_dropShadow_1570_9741" result="shape"/></filter><filter id="d" x="68.99" y="38.71" width="42.99" height="47.17" filterUnits="userSpaceOnUse" color-interpolation-filters="sRGB"><feFlood flood-opacity="0" result="BackgroundImageFix"/><feBlend in="SourceGraphic" in2="BackgroundImageFix" result="shape"/><feColorMatrix in="SourceAlpha" values="0 0 0 0 0 0 0 0 0 0 0 0 0 0 0 0 0 0 127 0" result="hardAlpha"/><feOffset dy="-4.48"/><feComposite in2="hardAlpha" operator="arithmetic" k2="-1" k3="1"/><feColorMatrix values="0 0 0 0 0 0 0 0 0 0 0 0 0 0 0 0 0 0 0.25 0"/><feBlend in2="shape" result="effect1_innerShadow_1570_9741"/></filter><filter id="e" x="103.28" y="22.94" width="17.12" height="18.78" filterUnits="userSpaceOnUse" color-interpolation-filters="sRGB"><feFlood flood-opacity="0" result="BackgroundImageFix"/><feBlend in="SourceGraphic" in2="BackgroundImageFix" result="shape"/><feColorMatrix in="SourceAlpha" values="0 0 0 0 0 0 0 0 0 0 0 0 0 0 0 0 0 0 127 0" result="hardAlpha"/><feOffset dy="-4.48"/><feComposite in2="hardAlpha" operator="arithmetic" k2="-1" k3="1"/><feColorMatrix values="0 0 0 0 0 0 0 0 0 0 0 0 0 0 0 0 0 0 0.25 0"/><feBlend in2="shape" result="effect1_innerShadow_1570_9741"/></filter><filter id="f" x="143.06" y="23.6" width="6.48" height="7.11" filterUnits="userSpaceOnUse" color-interpolation-filters="sRGB"><feFlood flood-opacity="0" result="BackgroundImageFix"/><feBlend in="SourceGraphic" in2="BackgroundImageFix" result="shape"/><feColorMatrix in="SourceAlpha" values="0 0 0 0 0 0 0 0 0 0 0 0 0 0 0 0 0 0 127 0" result="hardAlpha"/><feOffset dy="-4.48"/><feComposite in2="hardAlpha" operator="arithmetic" k2="-1" k3="1"/><feColorMatrix values="0 0 0 0 0 0 0 0 0 0 0 0 0 0 0 0 0 0 0.25 0"/><feBlend in2="shape" result="effect1_innerShadow_1570_9741"/></filter><filter id="g" x="127.71" y="25.68" width="10.73" height="11.78" filterUnits="userSpaceOnUse" color-interpolation-filters="sRGB"><feFlood flood-opacity="0" result="BackgroundImageFix"/><feBlend in="SourceGraphic" in2="BackgroundImageFix" result="shape"/><feColorMatrix in="SourceAlpha" values="0 0 0 0 0 0 0 0 0 0 0 0 0 0 0 0 0 0 127 0" result="hardAlpha"/><feOffset dy="-4.48"/><feComposite in2="hardAlpha" operator="arithmetic" k2="-1" k3="1"/><feColorMatrix values="0 0 0 0 0 0 0 0 0 0 0 0 0 0 0 0 0 0 0.25 0"/><feBlend in2="shape" result="effect1_innerShadow_1570_9741"/></filter><filter id="h" x="117.75" y="42.73" width="17.12" height="18.78" filterUnits="userSpaceOnUse" color-interpolation-filters="sRGB"><feFlood flood-opacity="0" result="BackgroundImageFix"/><feBlend in="SourceGraphic" in2="BackgroundImageFix" result="shape"/><feColorMatrix in="SourceAlpha" values="0 0 0 0 0 0 0 0 0 0 0 0 0 0 0 0 0 0 127 0" result="hardAlpha"/><feOffset dy="-4.48"/><feComposite in2="hardAlpha" operator="arithmetic" k2="-1" k3="1"/><feColorMatrix values="0 0 0 0 0 0 0 0 0 0 0 0 0 0 0 0 0 0 0.25 0"/><feBlend in2="shape" result="effect1_innerShadow_1570_9741"/></filter></defs></svg>