<svg width="169" height="208" viewBox="0 0 169 208" fill="none" xmlns="http://www.w3.org/2000/svg">
<g filter="url(#filter0_d_1570_9741)">
<rect x="118.742" y="202.136" width="84.2658" height="126.399" rx="5.97832" transform="rotate(-157.555 118.742 202.136)" fill="white"/>
<mask id="mask0_1570_9741" style="mask-type:alpha" maskUnits="userSpaceOnUse" x="46" y="62" width="117" height="133">
<path d="M105.834 193.365L50.5939 170.546C47.9237 169.443 46.6533 166.384 47.7563 163.714L80.7778 83.7756C81.2824 82.5539 82.6819 81.9727 83.9035 82.4773C85.5939 83.1756 87.5424 82.6013 88.5838 81.0978L97.0801 68.832C97.8135 67.7732 97.7904 66.3647 97.0226 65.3305C96.1197 64.1145 97.3703 62.4747 98.7819 63.0237L158.107 86.0957C160.905 87.1838 162.215 90.3984 160.975 93.1322L126.37 169.409C125.435 171.469 123.036 172.418 120.945 171.554C118.039 170.354 114.711 171.736 113.511 174.642L108.947 185.691C108.44 186.918 108.54 188.313 109.218 189.455C110.554 191.708 108.254 194.365 105.834 193.365Z" fill="#C4C4C4" stroke="black" stroke-width="1.49458"/>
</mask>
<g mask="url(#mask0_1570_9741)">
<rect x="114.072" y="192.385" width="69.8072" height="111.94" rx="5.23103" transform="rotate(-157.555 114.072 192.385)" stroke="black" stroke-width="1.49458"/>
</g>
<path d="M135.382 140.631L70.9795 114.027" stroke="black" stroke-width="1.49458"/>
<path d="M107.498 169.438L113.828 172.053C110.701 172.488 109.761 173.499 108.585 175.775L113.636 175.506C115.306 178.002 115.064 178.932 111.974 179.53L108.585 175.775L108.618 181.676C106.202 183.736 104.942 183.102 104.398 179.933L108.585 175.775L103.007 175.826C101.806 173.49 102.579 172.779 104.669 171.802L108.585 175.775C109.176 173.257 109.111 171.863 107.498 169.438Z" fill="black"/>
<path d="M108.585 175.775C109.761 173.499 110.701 172.488 113.828 172.053L107.498 169.438C109.111 171.863 109.176 173.257 108.585 175.775ZM108.585 175.775L113.636 175.506C115.306 178.002 115.064 178.932 111.974 179.53L108.585 175.775ZM108.585 175.775L104.398 179.933C104.942 183.102 106.202 183.736 108.618 181.676L108.585 175.775ZM108.585 175.775L103.007 175.826C101.806 173.49 102.579 172.779 104.669 171.802L108.585 175.775Z" stroke="black" stroke-width="1.49458"/>
<path d="M100.361 85.8376L94.0318 83.2231C97.1588 82.7878 98.0987 81.7768 99.2741 79.5006L94.2235 79.7695C92.553 77.2734 92.7952 76.3438 95.8857 75.7458L99.2741 79.5006L99.2418 73.5995C101.657 71.5397 102.918 72.1741 103.461 75.3425L99.2741 79.5006L104.852 79.4496C106.053 81.7856 105.28 82.4971 103.19 83.4734L99.2741 79.5006C98.6832 82.0187 98.7481 83.4128 100.361 85.8376Z" fill="black"/>
<path d="M99.2741 79.5006C98.0987 81.7768 97.1588 82.7878 94.0318 83.2231L100.361 85.8376C98.7481 83.4128 98.6832 82.0187 99.2741 79.5006ZM99.2741 79.5006L94.2235 79.7695C92.553 77.2734 92.7952 76.3438 95.8857 75.7458L99.2741 79.5006ZM99.2741 79.5006L103.461 75.3425C102.918 72.1741 101.657 71.5397 99.2418 73.5995L99.2741 79.5006ZM99.2741 79.5006L104.852 79.4496C106.053 81.7856 105.28 82.4971 103.19 83.4734L99.2741 79.5006Z" stroke="black" stroke-width="1.49458"/>
<path d="M122.449 176.819C122.584 176.875 122.714 176.932 122.84 176.991C122.96 177.048 123.085 177.102 123.214 177.155C123.459 177.257 123.691 177.349 123.91 177.433C124.129 177.516 124.319 177.585 124.482 177.638C124.68 177.706 124.857 177.766 125.014 177.817C124.57 178.66 124.153 179.487 123.763 180.298C123.374 181.108 123.032 181.836 122.738 182.481C122.401 183.232 122.088 183.948 121.799 184.629C121.524 185.295 121.255 185.981 120.991 186.687C120.879 186.99 120.765 187.308 120.647 187.643C120.521 187.981 120.4 188.324 120.283 188.673C120.158 189.025 120.042 189.381 119.934 189.74C119.821 190.097 119.715 190.447 119.614 190.789C119.376 190.67 119.153 190.564 118.945 190.471C118.734 190.384 118.539 190.303 118.357 190.228C118.17 190.151 118.001 190.081 117.849 190.018C117.694 189.961 117.563 189.914 117.456 189.876C117.331 189.831 117.22 189.793 117.124 189.76C117.479 189.051 117.815 188.352 118.134 187.662C118.453 186.973 118.735 186.35 118.978 185.794C119.266 185.146 119.532 184.527 119.776 183.937L119.997 183.402C119.451 183.697 118.923 184.039 118.412 184.431C117.895 184.82 117.416 185.244 116.972 185.704C116.527 186.17 116.128 186.663 115.777 187.181C115.42 187.698 115.128 188.23 114.901 188.78L114.785 189.061L111.913 187.566C112.801 186.872 113.579 186.256 114.247 185.718C114.912 185.185 115.485 184.724 115.968 184.335C116.444 183.943 116.836 183.616 117.143 183.352C117.45 183.089 117.691 182.88 117.864 182.726C117.495 182.444 117.225 182.151 117.056 181.849C116.879 181.549 116.77 181.241 116.73 180.923C116.69 180.606 116.705 180.28 116.775 179.946C116.836 179.616 116.916 179.279 117.017 178.938C117.117 178.596 117.221 178.252 117.329 177.907C117.432 177.559 117.505 177.209 117.547 176.858C117.575 176.657 117.586 176.442 117.578 176.213C117.572 176.012 117.551 175.781 117.515 175.52C117.477 175.265 117.409 174.99 117.311 174.697L119.805 175.665C119.884 175.855 119.922 176.08 119.918 176.338C119.908 176.594 119.881 176.84 119.839 177.075C119.793 177.351 119.725 177.634 119.632 177.924C119.528 178.258 119.42 178.579 119.306 178.888C119.184 179.2 119.08 179.499 118.996 179.786C118.906 180.07 118.843 180.339 118.807 180.591C118.769 180.849 118.781 181.086 118.842 181.303C118.9 181.526 119.018 181.728 119.196 181.911C119.368 182.092 119.62 182.251 119.954 182.388C120.018 182.415 120.083 182.439 120.15 182.459C120.217 182.48 120.288 182.499 120.363 182.516C120.606 181.878 120.912 181.07 121.281 180.094C121.642 179.12 122.032 178.029 122.449 176.819Z" fill="black"/>
<path d="M85.1733 79.0298C85.0389 78.9742 84.9085 78.917 84.7824 78.858C84.662 78.8014 84.5375 78.7466 84.4089 78.6935C84.1634 78.5921 83.9313 78.4996 83.7126 78.4161C83.4939 78.3326 83.3032 78.2641 83.1406 78.2106C82.9428 78.1426 82.7656 78.083 82.6087 78.032C83.0528 77.1889 83.4696 76.362 83.8593 75.5513C84.249 74.7405 84.5907 74.0126 84.8845 73.3675C85.2218 72.6173 85.5347 71.9014 85.823 71.2199C86.0983 70.5535 86.368 69.8676 86.6319 69.1623C86.7434 68.8594 86.858 68.5406 86.9756 68.206C87.1016 67.868 87.2229 67.5246 87.3396 67.1759C87.4645 66.8238 87.5807 66.468 87.6881 66.1086C87.8013 65.7517 87.908 65.4023 88.0082 65.0604C88.2464 65.1794 88.4696 65.2852 88.6776 65.378C88.8881 65.4649 89.0839 65.5458 89.2651 65.6207C89.4522 65.698 89.6217 65.768 89.7737 65.8308C89.9281 65.8877 90.0591 65.935 90.1667 65.9726C90.2919 66.0175 90.4024 66.0563 90.4984 66.0891C90.1439 66.7981 89.8072 67.4973 89.4882 68.1867C89.1692 68.8761 88.888 69.4989 88.6445 70.0553C88.3565 70.7027 88.0905 71.3217 87.8466 71.9121L87.6257 72.447C88.1716 72.1524 88.6999 71.8095 89.2106 71.4182C89.727 71.0294 90.2069 70.6049 90.6502 70.1447C91.0959 69.6788 91.4943 69.1864 91.8454 68.6677C92.2024 68.1514 92.4944 67.6185 92.7214 67.069L92.8373 66.7884L95.7099 68.283C94.8212 68.9765 94.0432 69.5926 93.3759 70.1313C92.7109 70.6641 92.1373 71.1252 91.6549 71.5144C91.1783 71.906 90.7864 72.2334 90.4793 72.4966C90.1721 72.7598 89.9319 72.9685 89.7587 73.1228C90.1279 73.4053 90.3971 73.6978 90.5663 74.0004C90.7439 74.2996 90.8526 74.6079 90.8925 74.9255C90.9324 75.2431 90.9175 75.5689 90.848 75.9028C90.7867 76.2334 90.706 76.5696 90.6059 76.9114C90.5057 77.2532 90.4015 77.5968 90.293 77.9421C90.1905 78.2898 90.1178 78.6395 90.0751 78.9914C90.047 79.192 90.037 79.4068 90.045 79.6359C90.0509 79.8368 90.0718 80.0679 90.1077 80.329C90.1459 80.5843 90.2139 80.8588 90.3116 81.1523L87.8172 80.1835C87.7383 79.9935 87.7009 79.7693 87.7049 79.511C87.7149 79.255 87.7411 79.0093 87.7837 78.7737C87.8291 78.4981 87.898 78.2153 87.9905 77.925C88.0941 77.5914 88.2028 77.2702 88.3167 76.9614C88.4389 76.6492 88.5421 76.3497 88.6263 76.0629C88.7164 75.7785 88.7793 75.5102 88.8151 75.2581C88.8532 75.0001 88.8418 74.7627 88.7808 74.5459C88.7222 74.3233 88.6041 74.1205 88.4264 73.9376C88.2546 73.7572 88.0021 73.5981 87.6689 73.4605C87.6046 73.4339 87.5391 73.4103 87.4724 73.3896C87.4057 73.3688 87.3348 73.3498 87.2599 73.3326C87.0166 73.9711 86.7104 74.7787 86.3412 75.7553C85.9802 76.7285 85.5909 77.82 85.1733 79.0298Z" fill="black"/>
<path d="M98.2355 92.4596C98.0609 92.4473 97.8672 92.4314 97.6576 92.4148C95.9234 92.9248 95.6655 99.4659 96.6398 100.567C98.3446 102.494 96.1643 113.638 94.946 117.4C101.839 121.782 105.353 124.217 108.816 128.39L86.7897 120.168C86.2363 115.848 86.2162 105.802 87.4742 99.4108C88.9608 91.8575 94.7995 92.1893 97.6576 92.4148C97.8347 92.3627 98.0273 92.3736 98.2355 92.4596Z" fill="#B02929"/>
<path d="M132.829 133.926C133.448 132.428 134.376 130.182 128.124 124.093L121.547 133.649C125.204 133.991 131.251 137.744 132.829 133.926Z" fill="#B02929" stroke="black" stroke-width="1.49458"/>
<path d="M113.749 131.304C112.409 130.751 103.314 122.61 96.4437 118.019C96.4927 113.656 98.0885 105.549 96.0702 97.7018C95.966 96.2561 96.5586 94.3969 98.2355 92.4597L105.415 96.302C105.187 103.221 104.421 117.808 109.175 123.278C113.228 124.076 117.907 125.112 124.478 113.82C128.264 107.314 128.647 108.484 129.311 110.509L129.33 110.564C129.782 111.941 129.481 119.393 128.434 123.344L121.238 134.398C118.682 134.219 115.995 132.232 113.749 131.304Z" fill="#3076FF"/>
<path d="M106.909 119.524C104.902 117.192 105.34 103.848 105.81 97.4668L133.432 106.999C133.101 107.801 128.517 108.412 127.017 109.045C125.163 112.036 120.806 118.69 118.211 121.375C115.617 124.06 111.047 123.738 109.086 123.241C109.197 122.974 108.916 121.856 106.909 119.524Z" fill="#6A5A50" stroke="black" stroke-width="1.49458"/>
<path d="M143.278 104.679L143.172 104.783C136.946 110.894 136.592 111.242 132.326 121.818L128.815 122.591C128.464 123.139 129.119 123.737 130.059 124.266C131.19 124.747 132.401 125.171 133.813 125.785C133.813 125.785 131.568 125.115 130.059 124.266C129.119 123.737 128.464 123.139 128.815 122.591L128.041 119.08C134.662 111.462 135.077 111.156 138.993 101.941L147.524 93.3119L143.278 104.679Z" fill="#6E86C4"/>
<path d="M128.815 122.591L132.326 121.818C136.616 111.182 136.95 110.89 143.278 104.679L147.524 93.3119L138.993 101.941C135.077 111.156 134.662 111.462 128.041 119.08L128.815 122.591ZM128.815 122.591C127.902 124.019 133.813 125.785 133.813 125.785C129.783 124.031 127.389 123.834 123.816 119.397M128.358 123.305L127.446 124.733L121.97 133.303" stroke="#B7B7B7" stroke-width="1.49458"/>
<path d="M147.727 93.6174L143.835 105.16C137.347 111.338 135.547 115.322 133.106 122.644L130.241 123.214L133.985 124.761L133.366 126.258" stroke="#767676" stroke-width="0.74729" stroke-linejoin="round"/>
<path d="M110.421 76.3588C109.597 75.9014 109.202 75.5989 109.807 75.8489C110.005 75.9305 110.211 76.1085 110.421 76.3588C111.734 77.0878 114.133 78.2104 115.3 78.1179C117.199 77.9674 119.634 74.2976 119.964 73.4989C120.294 72.7001 123.682 77.8402 125.582 77.6897C126.738 77.8556 129.669 77.134 130.825 76.1152C131.157 77.454 134.841 83.0718 138.1 82.2037C138.227 82.1592 138.349 82.117 138.467 82.0773C138.346 82.129 138.223 82.1709 138.1 82.2037C136.87 82.6362 135.246 83.2872 133.998 83.9691C132.653 84.7045 131.743 85.4758 132.234 86.0481C123.01 80.9898 119.415 81.4439 113.32 82.9107C113.14 82.3171 112.886 81.5487 112.586 80.7373C111.976 79.0863 111.175 77.257 110.421 76.3588Z" fill="#FFDC22"/>
<path d="M112.586 80.7373C112.886 81.5487 113.14 82.3171 113.32 82.9107C119.415 81.4439 123.01 80.9898 132.234 86.0481C131.242 84.8904 135.976 82.9185 138.467 82.0773C135.123 83.5012 131.17 77.5045 130.825 76.1152C129.669 77.134 126.738 77.8556 125.582 77.6897C123.682 77.8402 120.294 72.7001 119.964 73.4989C119.634 74.2976 117.199 77.9674 115.3 78.1179C113.4 78.2684 108.237 75.2005 109.807 75.8489C110.714 76.2235 111.806 78.6262 112.586 80.7373ZM112.586 80.7373C116.133 79.3972 125.384 78.1689 134.008 83.9759" stroke="black" stroke-width="1.49458"/>
<path d="M100.886 91.8012C100.006 91.7648 98.4143 92.1533 99.0833 93.9988C99.7523 95.8443 101.679 96.3785 102.558 96.415C103.323 96.7307 104.989 97.0269 105.543 95.6865C106.235 94.011 104.577 100.191 106.798 99.1468C108.574 98.3115 110.498 97.4066 111.239 97.0586" stroke="black" stroke-width="1.49458"/>
<path d="M110.966 97.7183C110.694 99.1149 110.463 102.037 111.713 102.554C113.276 103.199 112.494 102.877 113.542 102.555C114.59 102.233 113.258 105.456 117.183 104.813C121.107 104.171 116.219 106.102 120.309 106.105C122.138 106.106 121.605 107.395 123.701 106.751C125.53 106.752 125.796 106.108 126.045 107.72L127.341 109.01" stroke="black" stroke-width="1.49458"/>
<path d="M120.389 96.1306L122.635 97.0586M110.966 97.7184C114.18 96.3057 117.608 94.799 118.465 94.4223C121.678 93.0096 124.674 94.247 125.1 95.3366C125.527 96.4262 127.982 101.094 128.731 101.403" stroke="black" stroke-width="1.49458"/>
<path d="M130.616 103.205L131.561 86.0627L126.937 82.3995L119.579 81.1131L113.848 82.2525L109.468 97.0997L130.616 103.205Z" fill="#FFDBB0"/>
<path d="M104.145 88.7641C103.977 89.8321 101.253 90.3812 99.9123 90.5222C99.8526 91.3742 99.8211 93.2898 100.173 94.1364C100.612 95.1946 102.11 95.8133 103.759 95.618C105.409 95.4227 103.478 94.6249 105.269 94.2122C107.061 93.7995 106.164 96.6112 106.603 97.6694C107.043 98.7276 108.41 97.5392 108.72 96.7903C109.029 96.0415 111.145 95.1624 111.455 94.4135C111.764 93.6647 111.167 92.9883 110.266 93.046C109.366 93.1037 112.122 88.5528 112.741 87.055C113.236 85.8568 113.273 84.3526 113.23 83.7502C113.045 84.2585 112.602 85.4195 112.302 85.9968C111.926 86.7184 109.746 85.8176 108.997 85.5083C108.248 85.1989 107.956 87.7082 107.646 88.4571C107.337 89.206 104.355 87.4292 104.145 88.7641Z" fill="#0F0000"/>
<path d="M97.251 104.626L97.9982 104.631L97.9982 104.631L97.251 104.626ZM99.7138 91.9174L99.9315 92.6323L100.726 92.3903L100.402 91.6255L99.7138 91.9174ZM102.593 89.4464L103.079 90.0134L103.079 90.0134L102.593 89.4464ZM104.355 87.4292L104.404 88.1748L104.404 88.1748L104.355 87.4292ZM109.144 84.832L109.193 85.5777L109.193 85.5777L109.144 84.832ZM112.171 84.2522L111.426 84.3104L111.426 84.3104L112.171 84.2522ZM113.933 82.2349L113.982 82.9806L114.055 82.9757L114.126 82.9567L113.933 82.2349ZM131.89 85.9926L132.581 86.2779L132.805 85.7367L132.332 85.3901L131.89 85.9926ZM131.244 87.556L130.554 87.2707L130.518 87.357L130.505 87.4494L131.244 87.556ZM130.746 91.0106L130.007 90.904L130.003 90.9327L130.001 90.9617L130.746 91.0106ZM130.571 93.6835L129.826 93.6346L129.826 93.6346L130.571 93.6835ZM131.808 99.6849L131.12 99.9768L131.12 99.9768L131.808 99.6849ZM131.163 101.248L130.475 101.54L130.475 101.54L131.163 101.248ZM133.22 103.013L132.475 103.072L132.475 103.072L133.22 103.013ZM99.9123 90.5222L99.8342 89.779L99.2107 89.8446L99.1669 90.4699L99.9123 90.5222ZM104.145 88.7641L104.883 88.8801L104.883 88.8801L104.145 88.7641ZM112.302 85.9968L111.639 85.6519L111.639 85.6519L112.302 85.9968ZM113.23 83.7502L113.975 83.6965L112.527 83.4956L113.23 83.7502ZM110.266 93.046L110.314 93.7917L110.314 93.7917L110.266 93.046ZM106.603 97.6694L107.293 97.3827L107.293 97.3827L106.603 97.6694ZM105.269 94.2122L105.437 94.9404L105.437 94.9404L105.269 94.2122ZM100.173 94.1364L100.863 93.8497L100.863 93.8497L100.173 94.1364ZM96.4285 117.852C97.2513 113.606 97.9706 109.267 97.9982 104.631L96.5037 104.622C96.4769 109.114 95.7802 113.341 94.9612 117.568L96.4285 117.852ZM97.9982 104.631C98.004 103.669 97.7369 102.473 97.4774 101.302C97.2085 100.089 96.9315 98.8449 96.8443 97.6565C96.757 96.467 96.8683 95.4219 97.3047 94.5842C97.7259 93.7756 98.4978 93.0689 99.9315 92.6323L99.4961 91.2025C97.7418 91.7368 96.6143 92.6745 95.9792 93.8938C95.3592 95.084 95.2572 96.4504 95.3537 97.7659C95.4504 99.0823 95.7545 100.436 96.0182 101.625C96.2912 102.857 96.5082 103.866 96.5037 104.622L97.9982 104.631ZM100.402 91.6255C100.172 91.0833 99.8733 90.3033 99.7111 89.7066C99.6239 89.3861 99.6018 89.2076 99.6043 89.154C99.607 89.0982 99.6191 89.2945 99.4307 89.4707C99.1586 89.7251 98.8531 89.6253 98.81 89.6075L99.3806 88.2261C99.1787 88.1427 98.7587 88.0528 98.4098 88.3791C98.1445 88.6272 98.1173 88.9574 98.1114 89.084C98.0968 89.395 98.1808 89.7751 98.2688 90.0987C98.4569 90.7906 98.7852 91.642 99.0259 92.2093L100.402 91.6255ZM98.81 89.6075C98.9303 89.6572 99.086 89.7586 99.3715 89.9412C99.6243 90.1028 99.9512 90.3077 100.316 90.4585C100.687 90.6117 101.132 90.7246 101.626 90.6745C102.129 90.6233 102.618 90.4093 103.079 90.0134L102.106 88.8794C101.847 89.1013 101.638 89.1709 101.475 89.1875C101.302 89.2051 101.112 89.1699 100.887 89.0772C100.657 88.9822 100.429 88.8435 100.177 88.682C99.957 88.5415 99.657 88.3403 99.3806 88.2261L98.81 89.6075ZM103.079 90.0134C103.519 89.6357 103.777 89.2584 103.912 88.8757C104.038 88.5156 104.036 88.1779 104.043 88.0706C104.051 87.9443 104.06 88.1287 103.901 88.2382C103.857 88.269 103.923 88.2066 104.404 88.1748L104.306 86.6835C103.831 86.7148 103.38 86.7816 103.051 87.0093C102.608 87.3159 102.565 87.765 102.552 87.9729C102.537 88.1997 102.542 88.2654 102.502 88.3796C102.469 88.4714 102.385 88.6394 102.106 88.8794L103.079 90.0134ZM104.404 88.1748C105.258 88.1185 105.603 88.322 106.23 88.4171C106.535 88.4632 106.946 88.4705 107.339 88.1896C107.682 87.9446 107.899 87.5547 108.072 87.1346L106.691 86.564C106.542 86.9255 106.457 86.9832 106.47 86.9738C106.534 86.9285 106.587 86.9594 106.454 86.9394C106.208 86.902 105.362 86.6138 104.306 86.6835L104.404 88.1748ZM108.072 87.1346C108.26 86.6806 108.343 86.3128 108.396 86.0269C108.429 85.8436 108.43 85.8179 108.453 85.697C108.461 85.6574 108.467 85.6303 108.472 85.6108C108.477 85.5915 108.48 85.5852 108.479 85.587C108.475 85.5968 108.457 85.6324 108.42 85.6664C108.387 85.6966 108.369 85.6971 108.405 85.6844C108.501 85.65 108.716 85.6092 109.193 85.5777L109.095 84.0864C108.617 84.1179 108.215 84.1653 107.902 84.2767C107.734 84.3369 107.564 84.4247 107.414 84.5606C107.261 84.7002 107.163 84.8599 107.098 85.0163C107.038 85.1616 107.006 85.3064 106.985 85.4175C106.971 85.492 106.938 85.6883 106.926 85.7576C106.886 85.9768 106.826 86.2362 106.691 86.564L108.072 87.1346ZM109.193 85.5777C109.572 85.5527 109.932 85.6043 110.278 85.6829C110.452 85.7226 110.616 85.7674 110.784 85.8129C110.943 85.8562 111.119 85.9041 111.283 85.9368C111.536 85.9875 112.135 86.0919 112.568 85.6399C112.772 85.4273 112.859 85.1671 112.898 84.9403C112.937 84.7131 112.936 84.4603 112.916 84.1939L111.426 84.3104C111.442 84.5168 111.434 84.6328 111.425 84.6895C111.415 84.7465 111.413 84.6853 111.489 84.6059C111.667 84.4202 111.858 84.5278 111.575 84.4712C111.471 84.4504 111.347 84.4171 111.176 84.3708C111.014 84.3266 110.819 84.2733 110.609 84.2255C110.185 84.1292 109.671 84.0484 109.095 84.0864L109.193 85.5777ZM112.916 84.1939C112.876 83.6836 113.054 83.4255 113.244 83.2684C113.472 83.0803 113.781 82.9938 113.982 82.9806L113.884 81.4892C113.448 81.518 112.817 81.6837 112.293 82.1154C111.732 82.5782 111.347 83.3077 111.426 84.3104L112.916 84.1939ZM114.126 82.9567C117.107 82.1575 124.836 81.7415 131.448 86.595L132.332 85.3901C125.258 80.1972 117.027 80.6315 113.739 81.5131L114.126 82.9567ZM131.2 85.7073L130.554 87.2707L131.935 87.8413L132.581 86.2779L131.2 85.7073ZM130.505 87.4494L130.007 90.904L131.486 91.1172L131.984 87.6626L130.505 87.4494ZM130.001 90.9617L129.826 93.6346L131.317 93.7323L131.492 91.0594L130.001 90.9617ZM129.826 93.6346C129.638 96.4992 130.648 98.862 131.12 99.9768L132.496 99.3931C132.028 98.2888 131.155 96.2135 131.317 93.7323L129.826 93.6346ZM131.12 99.9768C131.2 100.165 131.085 100.025 131.22 99.8242C131.27 99.7501 131.322 99.7224 131.316 99.7257C131.305 99.7318 131.284 99.742 131.204 99.7743C131.144 99.7987 131.026 99.8453 130.914 99.9096C130.796 99.9769 130.636 100.089 130.511 100.275C130.226 100.699 130.319 101.174 130.475 101.54L131.851 100.956C131.771 100.768 131.886 100.908 131.751 101.109C131.701 101.183 131.649 101.211 131.655 101.207C131.666 101.201 131.687 101.191 131.767 101.159C131.827 101.134 131.945 101.088 132.057 101.024C132.175 100.956 132.335 100.844 132.46 100.658C132.745 100.234 132.652 99.7595 132.496 99.3931L131.12 99.9768ZM130.475 101.54C130.683 102.031 131.034 102.301 131.42 102.433C131.59 102.491 131.754 102.519 131.88 102.536C132.055 102.56 132.077 102.558 132.201 102.577C132.286 102.589 132.329 102.602 132.354 102.611C132.364 102.616 132.369 102.618 132.369 102.618C132.369 102.619 132.369 102.618 132.368 102.618C132.368 102.618 132.367 102.617 132.367 102.617C132.367 102.617 132.368 102.618 132.37 102.62C132.371 102.622 132.374 102.625 132.377 102.631C132.384 102.642 132.395 102.662 132.407 102.696C132.432 102.765 132.461 102.883 132.475 103.072L133.966 102.955C133.922 102.397 133.773 101.918 133.438 101.574C133.1 101.227 132.688 101.139 132.425 101.099C132.33 101.085 132.128 101.062 132.083 101.055C131.99 101.043 131.938 101.031 131.904 101.019C131.883 101.012 131.878 101.021 131.851 100.956L130.475 101.54ZM132.475 103.072C132.54 103.902 132.36 104.851 132.188 105.853C132.106 106.332 132.026 106.827 132.001 107.281C131.977 107.724 131.998 108.216 132.182 108.651L133.558 108.067C133.508 107.948 133.473 107.73 133.493 107.363C133.513 107.006 133.578 106.589 133.661 106.106C133.819 105.185 134.048 104.016 133.966 102.955L132.475 103.072ZM99.9905 91.2654C100.695 91.1913 101.768 91.0106 102.704 90.7001C103.169 90.5457 103.641 90.3466 104.022 90.0876C104.386 89.8397 104.794 89.4505 104.883 88.8801L103.407 88.6481C103.413 88.6117 103.417 88.6916 103.182 88.8515C102.963 89.0002 102.638 89.1474 102.233 89.2814C101.431 89.5477 100.471 89.7121 99.8342 89.779L99.9905 91.2654ZM104.883 88.8801C104.885 88.8726 104.871 88.9334 104.806 88.9851C104.758 89.0228 104.739 89.0094 104.815 89.0015C104.989 88.9833 105.277 89.0252 105.693 89.1196C106.048 89.2001 106.531 89.3284 106.907 89.3749C107.097 89.3985 107.343 89.4141 107.583 89.3588C107.848 89.2979 108.178 89.1282 108.337 88.7424L106.956 88.1718C107.038 87.9733 107.207 87.9118 107.248 87.9023C107.265 87.8984 107.226 87.9085 107.09 87.8917C106.813 87.8574 106.479 87.7653 106.024 87.662C105.63 87.5727 105.113 87.4676 104.659 87.515C104.421 87.54 104.133 87.6126 103.88 87.8116C103.61 88.0246 103.458 88.3219 103.407 88.6481L104.883 88.8801ZM108.337 88.7424C108.441 88.4918 108.53 88.1327 108.608 87.8154C108.693 87.4696 108.777 87.1192 108.872 86.8012C108.973 86.4677 109.063 86.2543 109.132 86.1517C109.166 86.1015 109.153 86.1421 109.073 86.1827C108.958 86.2408 108.817 86.2426 108.711 86.199L109.282 84.8176C108.989 84.6966 108.676 84.7092 108.4 84.8482C108.159 84.9697 107.998 85.1615 107.894 85.3147C107.689 85.619 107.546 86.0217 107.441 86.3705C107.332 86.7348 107.237 87.1328 107.157 87.4584C107.07 87.8126 107.007 88.048 106.956 88.1718L108.337 88.7424ZM108.711 86.199C109.08 86.3512 109.86 86.6747 110.606 86.8636C110.973 86.9565 111.388 87.0321 111.766 87.0149C112.116 86.9991 112.681 86.8866 112.965 86.3417L111.639 85.6519C111.734 85.4678 111.886 85.5134 111.698 85.5219C111.539 85.5291 111.291 85.4954 110.973 85.4147C110.347 85.2563 109.662 84.9748 109.282 84.8176L108.711 86.199ZM112.965 86.3417C113.291 85.7142 113.75 84.5081 113.932 84.0048L112.527 83.4956C112.341 84.009 111.913 85.1249 111.639 85.6519L112.965 86.3417ZM112.484 83.8039C112.523 84.3483 112.483 85.7218 112.05 86.7697L113.432 87.3403C113.989 85.9918 114.023 84.3568 113.975 83.6965L112.484 83.8039ZM112.05 86.7697C111.911 87.1074 111.64 87.6411 111.304 88.2859C110.976 88.9157 110.596 89.6341 110.265 90.3016C109.938 90.9601 109.635 91.6156 109.474 92.117C109.401 92.347 109.322 92.6466 109.344 92.9252C109.355 93.07 109.401 93.3143 109.598 93.5205C109.819 93.7518 110.101 93.8054 110.314 93.7917L110.219 92.3002C110.319 92.2938 110.517 92.3185 110.68 92.4888C110.818 92.634 110.832 92.7849 110.834 92.8079C110.836 92.8428 110.83 92.7846 110.898 92.5727C111.02 92.1902 111.276 91.6252 111.603 90.966C111.926 90.3157 112.295 89.6192 112.63 88.9762C112.957 88.3483 113.262 87.7515 113.432 87.3403L112.05 86.7697ZM110.314 93.7917C110.571 93.7753 110.705 93.866 110.751 93.919C110.775 93.9455 110.784 93.9699 110.788 93.9926C110.792 94.0148 110.793 94.0586 110.764 94.1282L112.145 94.6989C112.406 94.0689 112.292 93.4103 111.877 92.9356C111.477 92.4776 110.862 92.259 110.219 92.3002L110.314 93.7917ZM110.764 94.1282C110.765 94.1266 110.71 94.2208 110.471 94.4143C110.255 94.5888 109.981 94.7729 109.671 94.9814C109.375 95.1799 109.042 95.4027 108.764 95.6271C108.51 95.8324 108.184 96.1289 108.029 96.505L109.41 97.0756C109.41 97.0773 109.464 96.9831 109.704 96.7895C109.92 96.6151 110.193 96.4309 110.504 96.2225C110.799 96.024 111.132 95.8011 111.41 95.5767C111.664 95.3714 111.99 95.075 112.145 94.6989L110.764 94.1282ZM108.029 96.505C107.993 96.5917 107.904 96.7359 107.763 96.895C107.624 97.0506 107.468 97.1825 107.329 97.2649C107.174 97.357 107.128 97.3368 107.173 97.3429C107.21 97.3477 107.254 97.3651 107.289 97.3942C107.319 97.4196 107.313 97.4296 107.293 97.3827L105.913 97.956C106.105 98.4172 106.47 98.7576 106.978 98.8246C107.414 98.8821 107.811 98.7164 108.092 98.5502C108.652 98.2174 109.188 97.6137 109.41 97.0756L108.029 96.505ZM107.293 97.3827C107.246 97.2681 107.214 97.0317 107.208 96.6142C107.204 96.2629 107.218 95.754 107.189 95.3372C107.161 94.9341 107.085 94.3824 106.759 93.9674C106.578 93.7369 106.329 93.5604 106.015 93.4769C105.716 93.3969 105.404 93.4142 105.101 93.484L105.437 94.9404C105.582 94.9071 105.634 94.922 105.63 94.9209C105.627 94.92 105.616 94.9163 105.603 94.9076C105.597 94.9037 105.593 94.8998 105.589 94.8965C105.586 94.8933 105.584 94.8914 105.584 94.8915C105.607 94.9207 105.671 95.0607 105.698 95.4412C105.723 95.808 105.708 96.1747 105.714 96.6352C105.72 97.0296 105.741 97.5415 105.913 97.956L107.293 97.3827ZM105.101 93.484C104.62 93.5948 104.166 93.7724 103.9 94.1453C103.601 94.5656 103.703 95.0114 103.727 95.137C103.746 95.2368 103.743 95.2263 103.742 95.2095C103.742 95.1653 103.751 95.0502 103.834 94.9351C103.909 94.8318 103.986 94.8095 103.958 94.82C103.93 94.8309 103.847 94.8551 103.671 94.8759L103.847 96.3601C104.084 96.332 104.302 96.2886 104.49 96.2168C104.679 96.1448 104.89 96.0248 105.044 95.8129C105.206 95.5891 105.24 95.3541 105.237 95.1829C105.234 95.039 105.202 94.8941 105.195 94.8562C105.166 94.7063 105.224 94.8631 105.118 95.0117C105.046 95.1129 105.022 95.036 105.437 94.9404L105.101 93.484ZM103.671 94.8759C102.959 94.9602 102.303 94.8652 101.798 94.6566C101.287 94.4455 100.985 94.1446 100.863 93.8497L99.4825 94.423C99.7996 95.1864 100.467 95.7239 101.227 96.0379C101.993 96.3543 102.91 96.4711 103.847 96.3601L103.671 94.8759ZM100.863 93.8497C100.743 93.5616 100.664 92.9919 100.635 92.3004C100.608 91.6412 100.63 90.9774 100.658 90.5745L99.1669 90.4699C99.1354 90.919 99.1117 91.639 99.1416 92.3622C99.1702 93.0532 99.2506 93.8646 99.4825 94.423L100.863 93.8497Z" fill="black"/>
<path d="M129.867 102.896C129.118 102.586 130.176 102.147 130.046 100.34C129.942 98.8942 130.242 96.3296 130.404 95.228C130.681 97.3878 131.384 101.769 131.983 102.017C132.732 102.326 132.113 103.824 131.804 104.573C131.495 105.322 131.934 106.38 131.625 107.129C131.316 107.878 128.76 107.698 128.011 107.389C127.262 107.08 127.571 106.331 126.822 106.022C126.223 105.774 124.869 105.799 124.266 105.842C120.652 106.103 119.024 103.677 117.966 104.116C116.908 104.556 113.473 102.26 111.975 101.642C110.477 101.023 111.845 99.8345 111.405 98.7763C110.966 97.7181 113.082 96.8391 114.889 96.7089C116.697 96.5787 115.948 96.2694 117.445 96.8881C118.943 97.5068 120.001 97.0672 122.248 97.9953C124.495 98.9233 122.687 99.0535 124.185 99.6722C125.683 100.291 124.934 99.9815 126.871 101.658C128.809 103.335 130.616 103.205 129.867 102.896Z" fill="black"/>
<path d="M130.404 95.228C130.404 95.228 130.404 95.228 130.404 95.228ZM130.404 95.228C130.242 96.3296 129.942 98.8942 130.046 100.34C130.176 102.147 129.118 102.586 129.867 102.896C130.616 103.205 128.809 103.335 126.871 101.658C124.934 99.9815 125.683 100.291 124.185 99.6722C122.687 99.0535 124.495 98.9233 122.248 97.9953C120.001 97.0672 118.943 97.5068 117.445 96.8881C115.948 96.2694 116.697 96.5787 114.889 96.7089C113.082 96.8391 110.966 97.7181 111.405 98.7763C111.845 99.8345 110.477 101.023 111.975 101.642C113.473 102.26 116.908 104.556 117.966 104.116C119.024 103.677 120.652 106.103 124.266 105.842C124.869 105.799 126.223 105.774 126.822 106.022C127.571 106.331 127.262 107.08 128.011 107.389C128.76 107.698 131.316 107.878 131.625 107.129C131.934 106.38 131.495 105.322 131.804 104.573C132.113 103.824 132.732 102.326 131.983 102.017C131.384 101.769 130.681 97.3878 130.404 95.228Z" stroke="black" stroke-width="1.49458"/>
<path d="M113.848 82.2527C114.098 82.3558 114.499 83.223 114.108 85.8669C113.62 89.1717 111.504 90.0507 111.634 91.8578C111.764 93.6649 112.073 92.916 112.513 93.9743C112.952 95.0325 110.396 94.8533 110.217 97.4093" stroke="black" stroke-width="1.49458"/>
<path d="M124.286 85.5795C124.632 84.7423 124.397 83.0772 120.69 83.1142M126.996 85.7193C127.9 85.7659 129.796 86.0916 130.15 87.0218M110.966 97.7185C113.958 95.6877 120.258 91.7562 121.519 92.2772C123.096 92.9285 124.672 93.5797 125.115 94.7425C125.469 95.6728 126.737 99.0063 127.327 100.557" stroke="black" stroke-width="1.49458"/>
<path d="M124.772 87.6416C124.541 88.1997 123.844 89.8882 124.925 91.6253" stroke="black" stroke-width="0.74729"/>
<path d="M121.776 86.4043L122.525 86.7136M126.27 88.2604L127.018 88.5697" stroke="black" stroke-width="1.49458"/>
<path d="M129.199 108.757C129.719 109.621 130.751 113.489 129.101 117.483" stroke="black" stroke-width="1.49458"/>
<path d="M131.098 128.987C130.215 127.857 128.114 126.16 127.505 125.59L127.449 125.567L121.547 133.649C122.748 134.145 125.822 135.224 125.516 134.332C125.209 133.44 124.172 132.82 123.691 132.622C124.892 133.118 127.506 134.007 128.353 133.591C129.2 133.176 126.273 131.138 124.704 130.171C126.145 130.767 129.24 131.854 130.086 131.438C130.933 131.023 128.006 128.985 126.437 128.018C128.359 128.812 131.982 130.117 131.098 128.987Z" fill="#AA702C" stroke="black" stroke-width="1.49458"/>
<path d="M123.972 132.021L122.295 133.958" stroke="black" stroke-width="1.49458"/>
<path d="M97.4775 92.1467C95.2287 91.2177 93.8407 92.4257 91.9964 92.6692C88.3249 93.154 86.186 104.372 86.1903 108.849C86.1922 110.752 86.7473 119.319 86.7893 120.168" stroke="black" stroke-width="1.49458"/>
<path d="M95.2551 116.652C96.883 119.077 101.613 122.041 102.84 122.61C104.58 123.416 105.076 125.449 104.013 127.283" stroke="black" stroke-width="1.49458"/>
<path d="M104.502 123.978C106 124.596 110.551 129.282 111.502 130.376M104.632 125.785C105.631 126.197 107.654 127.384 107.758 128.829" stroke="black" stroke-width="1.49458"/>
<path d="M111.357 103.14C110.385 104.784 108.953 108.108 110.998 108.252M110.998 108.252C112.024 108.324 112.588 105.11 112.105 103.449M110.998 108.252C109.768 110.442 111.906 114.544 112.756 112.484C113.066 111.736 112.496 108.87 110.998 108.252ZM125.585 109.017C123.675 109.397 120.559 110.158 121.043 111.524C121.802 113.665 124.26 111.441 125.585 109.017Z" stroke="#B0B0B0" stroke-width="1.49458"/>
<path d="M121.043 111.524C119.442 111.155 115.797 112.338 116.501 114.031C117.204 115.724 120.864 114.08 121.043 111.524Z" stroke="#B0B0B0" stroke-width="1.49458"/>
<path d="M112.756 112.484C114.204 112.16 117.175 112.672 116.501 114.031C115.337 116.377 112.858 114.605 112.756 112.484Z" stroke="#B0B0B0" stroke-width="1.49458"/>
<path d="M113.418 112.758L116.583 114.065C115.019 114.283 114.549 114.788 113.962 115.926L116.487 115.792C117.322 117.04 117.201 117.505 115.656 117.804L113.962 115.926L113.978 118.877C112.77 119.907 112.14 119.59 111.868 118.005L113.962 115.926L111.173 115.952C110.572 114.784 110.959 114.428 112.004 113.94L113.962 115.926C114.257 114.667 114.225 113.97 113.418 112.758Z" fill="black"/>
<path d="M113.962 115.926C114.549 114.788 115.019 114.283 116.583 114.065L113.418 112.758C114.225 113.97 114.257 114.667 113.962 115.926ZM113.962 115.926L116.487 115.792C117.322 117.04 117.201 117.505 115.656 117.804L113.962 115.926ZM113.962 115.926L111.868 118.005C112.14 119.59 112.77 119.907 113.978 118.877L113.962 115.926ZM113.962 115.926L111.173 115.952C110.572 114.784 110.959 114.428 112.004 113.94L113.962 115.926Z" stroke="black" stroke-width="1.49458" stroke-linejoin="bevel"/>
<g style="mix-blend-mode:multiply">
<path d="M131.121 85.0046C130.323 89.0583 130.137 88.0479 129.835 92.3632C129.596 95.7711 129.167 98.224 129.867 102.896" stroke="#FFCB8D" stroke-opacity="0.46" stroke-width="1.49458"/>
</g>
<path d="M121.239 94.072L122.737 94.6907" stroke="black" stroke-width="0.74729"/>
<ellipse cx="128.743" cy="122.595" rx="1.6205" ry="1.6205" transform="rotate(22.4448 128.743 122.595)" fill="#6E86C4"/>
<path d="M86.0408 119.858L121.238 134.398" stroke="black" stroke-width="1.49458"/>
<path d="M107.9 162.591C108.075 162.603 108.269 162.619 108.478 162.636C110.213 162.126 110.471 155.585 109.496 154.484C107.791 152.557 109.972 141.413 111.19 137.65C104.297 133.269 100.783 130.834 97.3198 126.661L119.346 134.883C119.9 139.203 119.92 149.248 118.662 155.64C117.175 163.193 111.336 162.861 108.478 162.636C108.301 162.688 108.109 162.677 107.9 162.591Z" fill="#B02929"/>
<path d="M73.3071 121.125C72.6884 122.622 71.7604 124.869 78.0117 130.958L84.5892 121.402C80.9316 121.06 74.8845 117.306 73.3071 121.125Z" fill="#B02929" stroke="black" stroke-width="1.49458"/>
<path d="M92.3871 123.746C93.7268 124.3 102.822 132.44 109.692 137.032C109.643 141.395 108.047 149.502 110.066 157.349C110.17 158.795 109.577 160.654 107.901 162.591L100.721 158.749C100.949 151.83 101.715 137.243 96.9614 131.773C92.9077 130.975 88.2286 129.938 81.6579 141.231C77.8724 147.736 77.4888 146.567 76.8246 144.542L76.8064 144.487C76.3543 143.109 76.6548 135.657 77.7023 131.707L84.8984 120.653C87.4544 120.832 90.1405 122.818 92.3871 123.746Z" fill="#3076FF"/>
<path d="M99.2271 135.526C101.234 137.858 100.796 151.203 100.326 157.584L72.7038 148.052C73.0352 147.25 77.6194 146.639 79.1185 146.005C80.9729 143.014 85.3303 136.361 87.9248 133.675C90.5192 130.99 95.0891 131.312 97.0497 131.809C96.9392 132.077 97.22 133.195 99.2271 135.526Z" fill="#6A5A50" stroke="black" stroke-width="1.49458"/>
<path d="M62.8585 150.372L62.9644 150.268C69.1896 144.157 69.5441 143.809 73.8101 133.233L77.3214 132.459C77.6716 131.911 77.017 131.314 76.0771 130.785C74.9457 130.303 73.7345 129.88 72.3225 129.265C72.3225 129.265 74.5677 129.936 76.0771 130.785C77.017 131.314 77.6716 131.911 77.3214 132.459L78.0948 135.971C71.4741 143.588 71.0595 143.895 67.1432 153.11L58.6124 161.739L62.8585 150.372Z" fill="#6E86C4"/>
<path d="M77.3214 132.459L73.8101 133.233C69.5201 143.868 69.1857 144.16 62.8585 150.372L58.6124 161.739L67.1432 153.11C71.0595 143.895 71.4741 143.588 78.0948 135.971L77.3214 132.459ZM77.3214 132.459C78.234 131.031 72.3225 129.265 72.3225 129.265C76.3529 131.02 78.747 131.216 82.3203 135.654M77.7777 131.745L78.6904 130.317L84.1661 121.748" stroke="#B7B7B7" stroke-width="1.49458"/>
<path d="M58.4095 161.433L62.3009 149.891C68.7886 143.713 70.589 139.729 73.03 132.407L75.8954 131.837L72.151 130.29L72.7697 128.792" stroke="#767676" stroke-width="0.74729" stroke-linejoin="round"/>
<path d="M95.7149 178.692C96.5385 179.149 96.9343 179.452 96.3291 179.202C96.1315 179.12 95.925 178.942 95.7149 178.692C94.4024 177.963 92.0032 176.84 90.8362 176.933C88.9368 177.083 86.5022 180.753 86.1722 181.552C85.8422 182.35 82.4538 177.21 80.5544 177.361C79.3982 177.195 76.4667 177.917 75.311 178.935C74.9787 177.597 71.2954 171.979 68.0355 172.847C67.9089 172.891 67.7865 172.934 67.669 172.973C67.7905 172.922 67.9127 172.88 68.0355 172.847C69.2664 172.414 70.8898 171.763 72.1378 171.081C73.4835 170.346 74.3926 169.575 73.9024 169.002C83.1264 174.061 86.7205 173.607 92.816 172.14C92.9959 172.733 93.2499 173.502 93.5499 174.313C94.1603 175.964 94.9611 177.794 95.7149 178.692Z" fill="#FFDC22"/>
<path d="M93.5499 174.313C93.2499 173.502 92.9959 172.733 92.816 172.14C86.7205 173.607 83.1264 174.061 73.9024 169.002C74.894 170.16 70.16 172.132 67.669 172.973C71.0131 171.549 74.9662 177.546 75.311 178.935C76.4667 177.917 79.3982 177.195 80.5544 177.361C82.4538 177.21 85.8422 182.35 86.1722 181.552C86.5022 180.753 88.9368 177.083 90.8362 176.933C92.7355 176.782 97.8986 179.85 96.3291 179.202C95.4222 178.827 94.3305 176.424 93.5499 174.313ZM93.5499 174.313C90.0028 175.653 80.7524 176.882 72.1278 171.075" stroke="black" stroke-width="1.49458"/>
<path d="M105.25 163.25C106.13 163.286 107.722 162.897 107.053 161.052C106.384 159.206 104.457 158.672 103.578 158.636C102.813 158.32 101.147 158.024 100.593 159.364C99.9008 161.04 101.559 154.86 99.3385 155.904C97.562 156.739 95.6375 157.644 94.8974 157.992" stroke="black" stroke-width="1.49458"/>
<path d="M95.1699 157.332C95.4419 155.936 95.6734 153.013 94.4231 152.497C92.8603 151.851 93.6417 152.174 92.594 152.496C91.5463 152.817 92.8776 149.595 88.9531 150.237C85.0287 150.88 89.9174 148.948 85.8274 148.946C83.9983 148.945 84.5308 147.656 82.4354 148.299C80.6063 148.298 80.3401 148.943 80.0911 147.331L78.7945 146.041" stroke="black" stroke-width="1.49458"/>
<path d="M85.7474 158.92L83.5008 157.992M95.1699 157.332C91.9564 158.745 88.5286 160.252 87.6717 160.628C84.4582 162.041 81.4627 160.804 81.0361 159.714C80.6096 158.624 78.1544 153.957 77.4056 153.647" stroke="black" stroke-width="1.49458"/>
<path d="M75.5201 151.845L74.5752 168.988L79.1986 172.651L86.5571 173.937L92.2877 172.798L96.6676 157.951L75.5201 151.845Z" fill="#FFDBB0"/>
<path d="M101.991 166.286C102.159 165.218 104.883 164.669 106.224 164.528C106.283 163.676 106.315 161.761 105.963 160.914C105.524 159.856 104.026 159.237 102.377 159.433C100.727 159.628 102.658 160.426 100.867 160.838C99.0753 161.251 99.9724 158.439 99.5328 157.381C99.0933 156.323 97.7257 157.511 97.4164 158.26C97.1071 159.009 94.9906 159.888 94.6813 160.637C94.3719 161.386 94.9692 162.062 95.8697 162.005C96.7701 161.947 94.0136 166.498 93.3949 167.996C92.8999 169.194 92.863 170.698 92.9064 171.3C93.0906 170.792 93.5341 169.631 93.8344 169.054C94.2098 168.332 96.3904 169.233 97.1392 169.542C97.8881 169.852 98.1802 167.342 98.4895 166.593C98.7989 165.845 101.781 167.621 101.991 166.286Z" fill="#0F0000"/>
<path d="M108.885 150.424L108.138 150.42L108.138 150.42L108.885 150.424ZM106.422 163.133L106.204 162.418L105.41 162.66L105.734 163.425L106.422 163.133ZM103.543 165.604L103.057 165.037L103.057 165.037L103.543 165.604ZM101.781 167.621L101.732 166.876L101.732 166.876L101.781 167.621ZM96.9921 170.218L96.9429 169.473L96.9429 169.473L96.9921 170.218ZM93.9654 170.798L94.7105 170.74L94.7105 170.74L93.9654 170.798ZM92.2031 172.816L92.1539 172.07L92.0806 172.075L92.0096 172.094L92.2031 172.816ZM74.2457 169.058L73.555 168.773L73.3314 169.314L73.8035 169.66L74.2457 169.058ZM74.8915 167.495L75.5822 167.78L75.6178 167.694L75.6311 167.601L74.8915 167.495ZM75.3895 164.04L76.1292 164.147L76.1333 164.118L76.1352 164.089L75.3895 164.04ZM75.5646 161.367L76.3103 161.416L76.3103 161.416L75.5646 161.367ZM74.3276 155.366L75.0155 155.074L75.0155 155.074L74.3276 155.366ZM74.9734 153.802L75.6613 153.51L75.6613 153.51L74.9734 153.802ZM72.9155 152.037L73.6605 151.979L73.6605 151.979L72.9155 152.037ZM106.224 164.528L106.302 165.272L106.925 165.206L106.969 164.581L106.224 164.528ZM101.991 166.286L101.253 166.17L101.253 166.17L101.991 166.286ZM93.8344 169.054L94.4974 169.399L94.4974 169.399L93.8344 169.054ZM92.9064 171.3L92.161 171.354L93.6089 171.555L92.9064 171.3ZM95.8697 162.005L95.8219 161.259L95.8219 161.259L95.8697 162.005ZM99.5328 157.381L98.8427 157.668L98.8427 157.668L99.5328 157.381ZM100.867 160.838L100.699 160.11L100.699 160.11L100.867 160.838ZM105.963 160.914L105.273 161.201L105.273 161.201L105.963 160.914ZM109.708 137.199C108.885 141.445 108.165 145.784 108.138 150.42L109.632 150.429C109.659 145.937 110.356 141.709 111.175 137.483L109.708 137.199ZM108.138 150.42C108.132 151.382 108.399 152.578 108.659 153.749C108.927 154.961 109.204 156.206 109.292 157.394C109.379 158.584 109.268 159.629 108.831 160.466C108.41 161.275 107.638 161.982 106.204 162.418L106.64 163.848C108.394 163.314 109.522 162.376 110.157 161.157C110.777 159.967 110.879 158.6 110.782 157.285C110.686 155.968 110.381 154.614 110.118 153.425C109.845 152.194 109.628 151.185 109.632 150.429L108.138 150.42ZM105.734 163.425C105.964 163.967 106.263 164.747 106.425 165.344C106.512 165.664 106.534 165.843 106.532 165.897C106.529 165.952 106.517 165.756 106.705 165.58C106.977 165.325 107.283 165.425 107.326 165.443L106.755 166.824C106.957 166.908 107.377 166.998 107.726 166.671C107.991 166.423 108.019 166.093 108.025 165.967C108.039 165.656 107.955 165.275 107.867 164.952C107.679 164.26 107.351 163.409 107.11 162.841L105.734 163.425ZM107.326 165.443C107.206 165.393 107.05 165.292 106.764 165.109C106.512 164.948 106.185 164.743 105.82 164.592C105.449 164.439 105.004 164.326 104.51 164.376C104.007 164.427 103.518 164.641 103.057 165.037L104.03 166.171C104.289 165.949 104.498 165.88 104.661 165.863C104.834 165.845 105.024 165.881 105.249 165.973C105.479 166.068 105.707 166.207 105.959 166.369C106.179 166.509 106.479 166.71 106.755 166.824L107.326 165.443ZM103.057 165.037C102.617 165.415 102.359 165.792 102.224 166.175C102.098 166.535 102.1 166.873 102.093 166.98C102.085 167.106 102.076 166.922 102.235 166.812C102.279 166.782 102.213 166.844 101.732 166.876L101.83 168.367C102.305 168.336 102.756 168.269 103.085 168.041C103.528 167.735 103.571 167.286 103.584 167.078C103.599 166.851 103.594 166.785 103.634 166.671C103.667 166.579 103.751 166.411 104.03 166.171L103.057 165.037ZM101.732 166.876C100.878 166.932 100.533 166.729 99.9055 166.633C99.6009 166.587 99.1895 166.58 98.7966 166.861C98.4538 167.106 98.2373 167.496 98.0637 167.916L99.4451 168.487C99.5944 168.125 99.679 168.067 99.6657 168.077C99.6024 168.122 99.5491 168.091 99.6817 168.111C99.9282 168.149 100.774 168.437 101.83 168.367L101.732 166.876ZM98.0637 167.916C97.8762 168.37 97.7925 168.738 97.7401 169.024C97.7066 169.207 97.7056 169.233 97.6825 169.354C97.675 169.393 97.6689 169.42 97.6638 169.44C97.6587 169.459 97.656 169.465 97.6567 169.464C97.6607 169.454 97.6787 169.418 97.7161 169.384C97.7493 169.354 97.7669 169.353 97.7314 169.366C97.6351 169.4 97.4205 169.441 96.9429 169.473L97.0413 170.964C97.5188 170.933 97.9213 170.885 98.2336 170.774C98.4023 170.714 98.5721 170.626 98.7215 170.49C98.8752 170.35 98.9734 170.191 99.038 170.034C99.098 169.889 99.1296 169.744 99.1507 169.633C99.1649 169.559 99.1976 169.362 99.2103 169.293C99.2504 169.074 99.3097 168.814 99.4451 168.487L98.0637 167.916ZM96.9429 169.473C96.5638 169.498 96.2042 169.446 95.8582 169.368C95.6837 169.328 95.5195 169.283 95.3522 169.238C95.1933 169.194 95.0174 169.146 94.8535 169.114C94.6 169.063 94.0009 168.959 93.5678 169.411C93.3641 169.623 93.2766 169.883 93.238 170.11C93.1993 170.337 93.1996 170.59 93.2204 170.857L94.7105 170.74C94.6943 170.534 94.7018 170.418 94.7114 170.361C94.7211 170.304 94.7231 170.365 94.647 170.445C94.4691 170.63 94.2778 170.523 94.5606 170.579C94.6649 170.6 94.7893 170.633 94.9599 170.68C95.1221 170.724 95.3166 170.777 95.5269 170.825C95.9506 170.921 96.4653 171.002 97.0413 170.964L96.9429 169.473ZM93.2204 170.857C93.2603 171.367 93.0823 171.625 92.8919 171.782C92.6638 171.97 92.3546 172.057 92.1539 172.07L92.2523 173.561C92.6883 173.533 93.3194 173.367 93.8429 172.935C94.404 172.472 94.7888 171.743 94.7105 170.74L93.2204 170.857ZM92.0096 172.094C89.0289 172.893 81.3003 173.309 74.6879 168.456L73.8035 169.66C80.8784 174.853 89.1087 174.419 92.3967 173.537L92.0096 172.094ZM74.9364 169.343L75.5822 167.78L74.2008 167.209L73.555 168.773L74.9364 169.343ZM75.6311 167.601L76.1292 164.147L74.6499 163.933L74.1519 167.388L75.6311 167.601ZM76.1352 164.089L76.3103 161.416L74.8189 161.318L74.6438 163.991L76.1352 164.089ZM76.3103 161.416C76.498 158.551 75.4885 156.189 75.0155 155.074L73.6397 155.657C74.1082 156.762 74.9815 158.837 74.8189 161.318L76.3103 161.416ZM75.0155 155.074C74.9356 154.885 75.0511 155.026 74.9162 155.226C74.8664 155.3 74.8141 155.328 74.8198 155.325C74.8306 155.319 74.8523 155.309 74.9319 155.276C74.9919 155.252 75.1097 155.205 75.2224 155.141C75.3402 155.074 75.4999 154.962 75.625 154.776C75.9104 154.351 75.8168 153.877 75.6613 153.51L74.2854 154.094C74.3654 154.282 74.2499 154.142 74.3848 153.942C74.4346 153.868 74.4869 153.84 74.4812 153.843C74.4704 153.849 74.4486 153.859 74.3691 153.892C74.3091 153.916 74.1913 153.963 74.0786 154.027C73.9608 154.094 73.8011 154.206 73.676 154.392C73.3906 154.817 73.4842 155.291 73.6397 155.657L75.0155 155.074ZM75.6613 153.51C75.4533 153.02 75.1017 152.749 74.7164 152.617C74.5464 152.559 74.3822 152.532 74.2556 152.514C74.0812 152.491 74.0593 152.493 73.9353 152.474C73.8505 152.461 73.8066 152.449 73.7821 152.439C73.7716 152.435 73.7674 152.432 73.7671 152.432C73.7669 152.432 73.7672 152.432 73.7677 152.433C73.7682 152.433 73.7686 152.433 73.7686 152.433C73.7685 152.433 73.7678 152.432 73.7663 152.431C73.7648 152.429 73.7622 152.425 73.7589 152.42C73.7522 152.409 73.7414 152.388 73.7292 152.355C73.704 152.285 73.6753 152.168 73.6605 151.979L72.1705 152.095C72.2141 152.654 72.3628 153.132 72.6978 153.476C73.0359 153.823 73.4485 153.912 73.7115 153.952C73.806 153.966 74.0077 153.989 74.0532 153.995C74.1464 154.008 74.1983 154.02 74.2317 154.031C74.2533 154.039 74.2581 154.03 74.2854 154.094L75.6613 153.51ZM73.6605 151.979C73.5956 151.148 73.7764 150.199 73.9482 149.197C74.0303 148.719 74.11 148.223 74.1349 147.77C74.1593 147.326 74.1383 146.835 73.9536 146.399L72.5778 146.983C72.6285 147.103 72.6628 147.32 72.6426 147.688C72.623 148.045 72.558 148.462 72.4751 148.945C72.3172 149.866 72.0876 151.034 72.1705 152.095L73.6605 151.979ZM106.145 163.785C105.441 163.859 104.368 164.04 103.432 164.35C102.967 164.505 102.495 164.704 102.114 164.963C101.75 165.211 101.342 165.6 101.253 166.17L102.729 166.402C102.723 166.439 102.719 166.359 102.954 166.199C103.173 166.05 103.498 165.903 103.902 165.769C104.705 165.503 105.665 165.338 106.302 165.272L106.145 163.785ZM101.253 166.17C101.251 166.178 101.264 166.117 101.33 166.065C101.378 166.028 101.397 166.041 101.321 166.049C101.147 166.067 100.859 166.025 100.443 165.931C100.088 165.85 99.6052 165.722 99.2295 165.676C99.0391 165.652 98.7926 165.636 98.5525 165.692C98.2882 165.753 97.9582 165.922 97.7989 166.308L99.1802 166.879C99.0982 167.077 98.9291 167.139 98.8879 167.148C98.871 167.152 98.9098 167.142 99.0458 167.159C99.3228 167.193 99.6566 167.285 100.112 167.388C100.506 167.478 101.023 167.583 101.477 167.535C101.715 167.511 102.003 167.438 102.256 167.239C102.526 167.026 102.678 166.729 102.729 166.402L101.253 166.17ZM97.7989 166.308C97.6954 166.559 97.6058 166.918 97.5277 167.235C97.4426 167.581 97.3593 167.931 97.2636 168.249C97.1633 168.583 97.0729 168.796 97.0035 168.899C96.9696 168.949 96.9826 168.908 97.0631 168.868C97.1783 168.81 97.3188 168.808 97.4245 168.852L96.8539 170.233C97.1468 170.354 97.4603 170.341 97.736 170.202C97.977 170.081 98.1382 169.889 98.2417 169.736C98.4474 169.432 98.5898 169.029 98.6948 168.68C98.8044 168.316 98.8989 167.918 98.979 167.592C99.0661 167.238 99.1291 167.003 99.1802 166.879L97.7989 166.308ZM97.4245 168.852C97.0561 168.699 96.2759 168.376 95.5302 168.187C95.1632 168.094 94.7482 168.018 94.37 168.036C94.0201 168.051 93.4549 168.164 93.1714 168.709L94.4974 169.399C94.4016 169.583 94.2497 169.537 94.4377 169.529C94.5973 169.521 94.8447 169.555 95.1633 169.636C95.789 169.794 96.4735 170.076 96.8539 170.233L97.4245 168.852ZM93.1714 168.709C92.845 169.336 92.3862 170.542 92.2038 171.046L93.6089 171.555C93.795 171.042 94.2232 169.926 94.4974 169.399L93.1714 168.709ZM93.6517 171.247C93.6125 170.702 93.6527 169.329 94.0856 168.281L92.7042 167.71C92.1472 169.059 92.1134 170.694 92.161 171.354L93.6517 171.247ZM94.0856 168.281C94.225 167.943 94.4962 167.409 94.832 166.765C95.16 166.135 95.5401 165.416 95.8714 164.749C96.1982 164.09 96.5011 163.435 96.6616 162.934C96.7352 162.704 96.8142 162.404 96.7922 162.125C96.7808 161.98 96.7345 161.736 96.5378 161.53C96.317 161.299 96.0351 161.245 95.8219 161.259L95.9174 162.75C95.8167 162.757 95.6188 162.732 95.4564 162.562C95.3179 162.417 95.3041 162.266 95.3023 162.243C95.2995 162.208 95.306 162.266 95.2382 162.478C95.1157 162.86 94.8597 163.425 94.5326 164.085C94.2099 164.735 93.8412 165.431 93.5064 166.074C93.1794 166.702 92.8741 167.299 92.7042 167.71L94.0856 168.281ZM95.8219 161.259C95.5646 161.275 95.4308 161.185 95.3846 161.132C95.3614 161.105 95.3515 161.081 95.3479 161.058C95.3444 161.036 95.3432 160.992 95.3719 160.922L93.9906 160.352C93.7304 160.982 93.8444 161.64 94.259 162.115C94.6591 162.573 95.2742 162.792 95.9174 162.75L95.8219 161.259ZM95.3719 160.922C95.3713 160.924 95.4259 160.83 95.6654 160.636C95.8812 160.462 96.1546 160.278 96.4653 160.069C96.761 159.871 97.0941 159.648 97.3718 159.423C97.6258 159.218 97.9517 158.922 98.1071 158.546L96.7257 157.975C96.7264 157.973 96.6718 158.067 96.4323 158.261C96.2165 158.435 95.9431 158.62 95.6324 158.828C95.3367 159.027 95.0036 159.249 94.7259 159.474C94.4719 159.679 94.146 159.976 93.9906 160.352L95.3719 160.922ZM98.1071 158.546C98.1429 158.459 98.2316 158.315 98.3734 158.156C98.5123 158 98.6684 157.868 98.8072 157.786C98.9625 157.694 99.0084 157.714 98.9625 157.708C98.9262 157.703 98.8821 157.685 98.8475 157.656C98.8172 157.631 98.8233 157.621 98.8427 157.668L100.223 157.095C100.031 156.633 99.6664 156.293 99.1579 156.226C98.7224 156.168 98.3246 156.334 98.0444 156.5C97.4837 156.833 96.948 157.437 96.7257 157.975L98.1071 158.546ZM98.8427 157.668C98.8903 157.782 98.9217 158.019 98.9275 158.436C98.9325 158.788 98.9183 159.297 98.9474 159.713C98.9755 160.116 99.0507 160.668 99.3771 161.083C99.5584 161.314 99.8074 161.49 100.12 161.574C100.42 161.654 100.732 161.636 101.035 161.567L100.699 160.11C100.554 160.143 100.502 160.129 100.506 160.13C100.509 160.131 100.52 160.134 100.533 160.143C100.539 160.147 100.543 160.151 100.547 160.154C100.55 160.157 100.552 160.159 100.552 160.159C100.529 160.13 100.465 159.99 100.438 159.609C100.413 159.243 100.428 158.876 100.422 158.415C100.416 158.021 100.395 157.509 100.223 157.095L98.8427 157.668ZM101.035 161.567C101.516 161.456 101.97 161.278 102.236 160.905C102.535 160.485 102.433 160.039 102.409 159.914C102.39 159.814 102.393 159.824 102.394 159.841C102.394 159.885 102.385 160 102.302 160.115C102.227 160.219 102.15 160.241 102.177 160.231C102.206 160.22 102.289 160.195 102.465 160.175L102.289 158.69C102.052 158.718 101.834 158.762 101.646 158.834C101.456 158.906 101.246 159.026 101.092 159.238C100.93 159.461 100.896 159.696 100.899 159.868C100.902 160.012 100.934 160.156 100.941 160.194C100.97 160.344 100.912 160.187 101.018 160.039C101.09 159.938 101.114 160.015 100.699 160.11L101.035 161.567ZM102.465 160.175C103.177 160.09 103.833 160.185 104.338 160.394C104.849 160.605 105.151 160.906 105.273 161.201L106.653 160.628C106.336 159.864 105.669 159.327 104.909 159.013C104.143 158.696 103.226 158.579 102.289 158.69L102.465 160.175ZM105.273 161.201C105.393 161.489 105.472 162.059 105.501 162.75C105.528 163.409 105.506 164.073 105.478 164.476L106.969 164.581C107.001 164.132 107.024 163.412 106.994 162.688C106.966 161.997 106.885 161.186 106.653 160.628L105.273 161.201Z" fill="black"/>
<path d="M76.2691 152.155C77.018 152.464 75.9598 152.904 76.09 154.711C76.1941 156.156 75.8945 158.721 75.7316 159.823C75.4549 157.663 74.7518 153.281 74.1527 153.034C73.4038 152.724 74.0225 151.227 74.3319 150.478C74.6412 149.729 74.2017 148.671 74.5111 147.922C74.8204 147.173 77.3764 147.352 78.1252 147.661C78.8741 147.971 78.5647 148.72 79.3136 149.029C79.9127 149.277 81.2672 149.252 81.8696 149.208C85.4837 148.948 87.1117 151.374 88.1699 150.934C89.2281 150.495 92.6631 152.79 94.1608 153.409C95.6586 154.028 94.291 155.216 94.7305 156.274C95.1701 157.332 93.0536 158.211 91.2465 158.342C89.4394 158.472 90.1883 158.781 88.6906 158.162C87.1928 157.544 86.1346 157.983 83.888 157.055C81.6414 156.127 83.4485 155.997 81.9508 155.378C80.453 154.76 81.2019 155.069 79.2646 153.392C77.3274 151.715 75.5203 151.845 76.2691 152.155Z" fill="black"/>
<path d="M75.7316 159.823C75.7316 159.823 75.7316 159.823 75.7316 159.823ZM75.7316 159.823C75.8945 158.721 76.1941 156.156 76.09 154.711C75.9598 152.904 77.018 152.464 76.2691 152.155C75.5203 151.845 77.3274 151.715 79.2646 153.392C81.2019 155.069 80.453 154.76 81.9508 155.378C83.4485 155.997 81.6414 156.127 83.888 157.055C86.1346 157.983 87.1928 157.544 88.6906 158.162C90.1883 158.781 89.4394 158.472 91.2465 158.342C93.0536 158.211 95.1701 157.332 94.7305 156.274C94.291 155.216 95.6586 154.028 94.1608 153.409C92.6631 152.79 89.2281 150.495 88.1699 150.934C87.1117 151.374 85.4837 148.948 81.8696 149.208C81.2672 149.252 79.9127 149.277 79.3136 149.029C78.5647 148.72 78.8741 147.971 78.1252 147.661C77.3764 147.352 74.8204 147.173 74.5111 147.922C74.2017 148.671 74.6412 149.729 74.3319 150.478C74.0225 151.227 73.4038 152.724 74.1527 153.034C74.7518 153.281 75.4549 157.663 75.7316 159.823Z" stroke="black" stroke-width="1.49458"/>
<path d="M92.2878 172.798C92.0382 172.695 91.6367 171.828 92.0275 169.184C92.516 165.879 94.6324 165 94.5023 163.193C94.3721 161.386 94.0627 162.135 93.6232 161.077C93.1837 160.018 95.7397 160.197 95.9188 157.642" stroke="black" stroke-width="1.49458"/>
<path d="M81.8503 169.471C81.5044 170.308 81.7394 171.974 85.4459 171.937M79.1396 169.332C78.2361 169.285 76.3405 168.959 75.9865 168.029M95.1699 157.332C92.1778 159.363 85.8782 163.295 84.617 162.774C83.0404 162.122 81.4639 161.471 81.0214 160.308C80.6674 159.378 79.3991 156.045 78.8092 154.494" stroke="black" stroke-width="1.49458"/>
<path d="M81.3643 167.409C81.5948 166.851 82.2923 165.162 81.2105 163.425" stroke="black" stroke-width="0.74729"/>
<path d="M84.3596 168.646L83.6107 168.337M79.8664 166.79L79.1175 166.481" stroke="black" stroke-width="1.49458"/>
<path d="M76.9368 146.294C76.417 145.43 75.3849 141.562 77.0348 137.568" stroke="black" stroke-width="1.49458"/>
<path d="M75.0375 126.063C75.9207 127.193 78.0224 128.89 78.6306 129.46L78.6869 129.483L84.5894 121.402C83.3882 120.906 80.3135 119.827 80.6201 120.718C80.9267 121.61 81.9644 122.23 82.4448 122.429C81.2436 121.932 78.6296 121.044 77.783 121.459C76.9365 121.875 79.8632 123.912 81.4324 124.879C79.991 124.284 76.8965 123.197 76.0499 123.612C75.2034 124.028 78.1301 126.066 79.6993 127.033C77.7774 126.239 74.1543 124.933 75.0375 126.063Z" fill="#AA702C" stroke="black" stroke-width="1.49458"/>
<path d="M82.1632 123.03L83.8402 121.092" stroke="black" stroke-width="1.49458"/>
<path d="M108.658 162.904C110.907 163.833 112.295 162.625 114.14 162.381C117.811 161.897 119.95 150.678 119.946 146.202C119.944 144.298 119.389 135.731 119.347 134.883" stroke="black" stroke-width="1.49458"/>
<path d="M110.881 138.399C109.253 135.973 104.523 133.01 103.296 132.441C101.556 131.635 101.059 129.601 102.123 127.768" stroke="black" stroke-width="1.49458"/>
<path d="M101.634 131.073C100.137 130.454 95.5848 125.769 94.6341 124.674M101.504 129.266C100.506 128.853 98.4826 127.667 98.3785 126.221" stroke="black" stroke-width="1.49458"/>
<path d="M94.7794 151.911C95.7508 150.267 97.1825 146.942 95.1377 146.799M95.1377 146.799C94.1122 146.727 93.5476 149.941 94.0305 151.602M95.1377 146.799C96.3676 144.609 94.2305 140.507 93.3797 142.566C93.0703 143.315 93.64 146.18 95.1377 146.799ZM80.5509 146.033C82.4611 145.654 85.5774 144.893 85.0931 143.527C84.334 141.385 81.8759 143.61 80.5509 146.033Z" stroke="#B0B0B0" stroke-width="1.49458"/>
<path d="M85.0931 143.526C86.6939 143.895 90.3386 142.712 89.6354 141.019C88.9321 139.326 85.2723 140.97 85.0931 143.526Z" stroke="#B0B0B0" stroke-width="1.49458"/>
<path d="M93.3795 142.566C91.9324 142.891 88.9611 142.378 89.6351 141.02C90.7986 138.674 93.2782 140.445 93.3795 142.566Z" stroke="#B0B0B0" stroke-width="1.49458"/>
<path d="M92.7178 142.293L89.5533 140.985C91.1168 140.768 91.5867 140.262 92.1744 139.124L89.6491 139.259C88.8139 138.011 88.935 137.546 90.4802 137.247L92.1744 139.124L92.1583 136.174C93.3659 135.144 93.9962 135.461 94.268 137.045L92.1744 139.124L94.9634 139.099C95.564 140.267 95.1773 140.622 94.1323 141.111L92.1744 139.124C91.8789 140.383 91.9114 141.08 92.7178 142.293Z" fill="black"/>
<path d="M92.1744 139.124C91.5867 140.262 91.1168 140.768 89.5533 140.985L92.7178 142.293C91.9114 141.08 91.8789 140.383 92.1744 139.124ZM92.1744 139.124L89.6491 139.259C88.8139 138.011 88.935 137.546 90.4802 137.247L92.1744 139.124ZM92.1744 139.124L94.268 137.045C93.9962 135.461 93.3659 135.144 92.1583 136.174L92.1744 139.124ZM92.1744 139.124L94.9634 139.099C95.564 140.267 95.1773 140.622 94.1323 141.111L92.1744 139.124Z" stroke="black" stroke-width="1.49458" stroke-linejoin="bevel"/>
<g style="mix-blend-mode:multiply">
<path d="M75.0149 170.046C75.8128 165.992 75.9988 167.003 76.3013 162.688C76.5402 159.28 76.969 156.827 76.2691 152.154" stroke="#FFCB8D" stroke-opacity="0.46" stroke-width="1.49458"/>
</g>
<path d="M84.8972 160.979L83.3995 160.36" stroke="black" stroke-width="0.74729"/>
<ellipse cx="77.3932" cy="132.456" rx="1.6205" ry="1.6205" transform="rotate(-157.555 77.3932 132.456)" fill="#6E86C4"/>
<path d="M120.095 135.192L84.8983 120.653" stroke="black" stroke-width="1.49458"/>
<rect y="74.4368" width="84.2658" height="126.399" rx="5.97832" transform="rotate(-9.15246 0 74.4368)" fill="white"/>
<path d="M16.4521 135.8L85.2463 124.717" stroke="black" stroke-width="1.49458"/>
<mask id="mask1_1570_9741" style="mask-type:alpha" maskUnits="userSpaceOnUse" x="9" y="64" width="86" height="131">
<path d="M14.79 75.273L73.7965 65.7663C76.6488 65.3067 79.3335 67.2464 79.793 70.0986L93.5504 155.488C93.7606 156.793 92.8732 158.021 91.5682 158.231C89.7626 158.522 88.4038 160.032 88.3045 161.859L87.4944 176.758C87.4245 178.044 88.1822 179.231 89.378 179.71C90.7842 180.273 90.5782 182.324 89.0882 182.596L26.4692 194.028C23.516 194.567 20.7159 192.516 20.3399 189.537L9.85024 106.437C9.56692 104.193 11.1134 102.128 13.3468 101.768C16.4503 101.268 18.5609 98.3465 18.0609 95.243L16.1593 83.4404C15.948 82.1291 15.1317 80.9938 13.9559 80.376C11.6375 79.1579 12.2044 75.6896 14.79 75.273Z" fill="#C4C4C4" stroke="black" stroke-width="1.49458"/>
</mask>
<g mask="url(#mask1_1570_9741)">
<rect x="8.28731" y="80.4243" width="69.8072" height="111.94" rx="5.23103" transform="rotate(-9.15246 8.28731 80.4243)" stroke="black" stroke-width="1.49458"/>
</g>
<path d="M14.1893 96.1929C14.2118 96.2533 14.2308 96.3111 14.2461 96.3663C14.2614 96.4215 14.2735 96.4772 14.2826 96.5334C14.3218 96.7769 14.3081 97.0097 14.2414 97.2319C14.1747 97.454 14.0623 97.6515 13.9044 97.8243C13.7475 98.0033 13.5475 98.1541 13.3046 98.2765C13.0679 98.3979 12.7935 98.4838 12.4812 98.5341C12.1565 98.5864 11.829 98.5815 11.4987 98.5194C11.1684 98.4573 10.8613 98.3402 10.5773 98.1682C10.3006 98.0013 10.0631 97.7801 9.86497 97.5046C9.66682 97.229 9.53807 96.907 9.47871 96.5386C9.46161 96.4324 9.44432 96.2654 9.42683 96.0376C9.41559 95.8088 9.4388 95.5552 9.49645 95.2769C8.84446 95.2858 8.24536 95.1261 7.69916 94.7977C7.15821 94.462 6.67719 94.0014 6.25613 93.4158C5.83405 92.824 5.47544 92.129 5.1803 91.3309C4.89039 90.5256 4.66999 89.6546 4.51908 88.718C4.35913 87.7252 4.29614 86.7776 4.33014 85.8752C4.37038 84.9718 4.51927 84.1663 4.7768 83.4585C5.03434 82.7508 5.40767 82.1653 5.8968 81.7022C6.38492 81.2327 6.99739 80.9387 7.73421 80.82C8.496 80.6972 9.18232 80.782 9.79318 81.0744C10.4093 81.3595 10.9476 81.7981 11.4081 82.3902C11.8687 82.9822 12.2537 83.7017 12.5631 84.5488C12.8726 85.3958 13.1072 86.3157 13.2672 87.3086C13.399 88.1265 13.4587 88.9145 13.4463 89.6724C13.4401 90.4294 13.3609 91.1308 13.2087 91.7767C13.0628 92.4217 12.8413 92.9955 12.5443 93.4982C12.2464 93.9946 11.8746 94.3908 11.429 94.6869C11.2523 94.8627 11.1093 95.0683 10.9999 95.3037C10.8914 95.5454 10.8664 95.8473 10.9248 96.2095C10.9288 96.2345 10.9353 96.2751 10.9444 96.3313C10.9597 96.3865 10.9827 96.45 11.0135 96.5219C11.0453 96.6001 11.0844 96.6835 11.1307 96.7721C11.1843 96.866 11.2503 96.9578 11.3289 97.0477C11.3124 96.8261 11.3323 96.6115 11.3885 96.4039C11.4457 96.2024 11.5315 96.0189 11.6457 95.8531C11.7609 95.6936 11.9026 95.5587 12.0706 95.4483C12.2396 95.3442 12.4334 95.2746 12.6519 95.2394C12.9621 95.1766 13.2541 95.2192 13.5278 95.3673C13.8025 95.5217 14.023 95.7968 14.1893 96.1929ZM10.8132 87.7039C10.6885 86.9296 10.5401 86.2072 10.368 85.5367C10.1949 84.8599 9.99264 84.2806 9.76129 83.799C9.53518 83.3101 9.2736 82.9391 8.97655 82.6858C8.68574 82.4316 8.35613 82.3341 7.98772 82.3935C7.63181 82.4508 7.35573 82.6459 7.15948 82.9786C6.96324 83.3113 6.83144 83.7457 6.76407 84.2819C6.6957 84.8118 6.6825 85.4257 6.72448 86.1237C6.76545 86.8154 6.84831 87.5483 6.97305 88.3226C7.09881 89.1031 7.25136 89.8313 7.43071 90.5071C7.60905 91.1767 7.8144 91.7554 8.04675 92.2432C8.28435 92.7239 8.54905 93.0944 8.84086 93.3549C9.13167 93.6092 9.45191 93.7081 9.80158 93.6518C10.145 93.5965 10.4149 93.4024 10.6111 93.0697C10.8063 92.7308 10.9413 92.2958 11.0159 91.7649C11.0895 91.2277 11.1058 90.6133 11.0648 89.9216C11.0229 89.2237 10.939 88.4844 10.8132 87.7039Z" fill="black"/>
<path d="M89.1088 164.067C89.0863 164.006 89.0673 163.948 89.052 163.893C89.0367 163.838 89.0246 163.782 89.0155 163.726C88.9763 163.483 88.99 163.25 89.0567 163.028C89.1234 162.805 89.2358 162.608 89.3937 162.435C89.5506 162.256 89.7506 162.105 89.9935 161.983C90.2302 161.862 90.5046 161.776 90.8169 161.725C91.1416 161.673 91.4691 161.678 91.7994 161.74C92.1297 161.802 92.4368 161.919 92.7208 162.091C92.9975 162.258 93.235 162.479 93.4331 162.755C93.6313 163.031 93.76 163.353 93.8194 163.721C93.8365 163.827 93.8538 163.994 93.8713 164.222C93.8825 164.451 93.8593 164.704 93.8016 164.983C94.4536 164.974 95.0527 165.133 95.5989 165.462C96.1399 165.797 96.6209 166.258 97.042 166.844C97.464 167.436 97.8227 168.131 98.1178 168.929C98.4077 169.734 98.6281 170.605 98.779 171.542C98.939 172.534 99.002 173.482 98.968 174.384C98.9277 175.288 98.7788 176.093 98.5213 176.801C98.2638 177.509 97.8904 178.094 97.4013 178.557C96.9132 179.027 96.3007 179.321 95.5639 179.44C94.8021 179.562 94.1158 179.477 93.5049 179.185C92.8888 178.9 92.3505 178.461 91.89 177.869C91.4294 177.277 91.0444 176.558 90.735 175.711C90.4255 174.864 90.1908 173.944 90.0309 172.951C89.8991 172.133 89.8394 171.345 89.8518 170.587C89.858 169.83 89.9372 169.129 90.0894 168.483C90.2353 167.838 90.4568 167.264 90.7537 166.761C91.0517 166.265 91.4235 165.869 91.8691 165.573C92.0458 165.397 92.1888 165.191 92.2982 164.956C92.4067 164.714 92.4317 164.412 92.3733 164.05C92.3693 164.025 92.3628 163.984 92.3537 163.928C92.3384 163.873 92.3154 163.81 92.2846 163.738C92.2527 163.659 92.2137 163.576 92.1674 163.487C92.1138 163.394 92.0478 163.302 91.9692 163.212C91.9857 163.433 91.9658 163.648 91.9096 163.856C91.8524 164.057 91.7666 164.241 91.6524 164.406C91.5371 164.566 91.3955 164.701 91.2275 164.811C91.0585 164.915 90.8647 164.985 90.6462 165.02C90.336 165.083 90.044 165.04 89.7703 164.892C89.4956 164.738 89.2751 164.463 89.1088 164.067ZM92.4849 172.556C92.6096 173.33 92.758 174.052 92.9301 174.723C93.1032 175.4 93.3055 175.979 93.5368 176.461C93.7629 176.949 94.0245 177.32 94.3215 177.574C94.6124 177.828 94.942 177.925 95.3104 177.866C95.6663 177.809 95.9424 177.614 96.1386 177.281C96.3349 176.948 96.4667 176.514 96.534 175.978C96.6024 175.448 96.6156 174.834 96.5736 174.136C96.5326 173.444 96.4498 172.711 96.325 171.937C96.1993 171.156 96.0467 170.428 95.8674 169.752C95.689 169.083 95.4837 168.504 95.2513 168.016C95.0138 167.536 94.749 167.165 94.4572 166.905C94.1664 166.65 93.8462 166.551 93.4965 166.608C93.1531 166.663 92.8832 166.857 92.687 167.19C92.4918 167.529 92.3568 167.964 92.2822 168.495C92.2086 169.032 92.1923 169.646 92.2333 170.338C92.2752 171.036 92.3591 171.775 92.4849 172.556Z" fill="black"/>
<path d="M46.0199 149.524L28.9798 145.637C47.4938 135.58 62.4075 138.041 67.5501 140.529L57.9259 148.712L56.6607 154.443C57.661 156.124 59.5476 161.494 59.0909 169.527C58.6343 177.559 54.0057 183.243 51.7484 185.08C48.7885 184.82 42.9134 181.861 43.0923 172.104C43.316 159.909 44.2089 158.66 47.0615 155.989L46.0199 149.524Z" fill="#FFDBB0"/>
<path d="M47.0615 155.989L46.0199 149.524L28.9798 145.637C47.4938 135.58 62.4075 138.041 67.5501 140.529L57.9259 148.712L56.6607 154.443C57.661 156.124 59.5476 161.494 59.0909 169.527C58.6343 177.559 54.0057 183.243 51.7484 185.08M47.0615 155.989C44.2089 158.66 43.316 159.909 43.0923 172.104C42.9134 181.861 48.7885 184.82 51.7484 185.08M47.0615 155.989C48.1281 155.817 50.5093 155.655 51.5014 156.379M51.7484 185.08C47.9534 186.429 50.1361 188.656 57.4285 186.376C68.1957 183.009 70.1039 169.963 67.7972 169.23L66.3281 149.924" stroke="black" stroke-width="1.49458" stroke-linejoin="bevel"/>
<g style="mix-blend-mode:multiply">
<path d="M52.1561 184.214C48.5683 183.742 45.1243 179.874 44.2101 175.646C43.4895 172.313 44.1933 169.213 45.09 160.731C45.6923 158.67 47.1452 156.651 50.3029 157.429" stroke="#FFCB8D" stroke-opacity="0.46" stroke-width="1.49458"/>
</g>
<path d="M48.0939 171.737C47.8755 170.382 47.166 167.506 46.075 166.847M50.2194 162.007C49.3649 161.797 47.2086 161.658 45.4198 162.78" stroke="black" stroke-width="0.74729"/>
<path d="M51.5182 173.463C51.9929 174.145 53.7241 174.929 56.8511 172.603M47.2519 174.15C47.0156 174.947 46.0448 176.166 44.0522 174.665M44.7612 172.274L45.8278 172.102M53.2938 170.9L54.3604 170.728" stroke="black" stroke-width="1.49458"/>
<path d="M67.603 168.025C64.5054 158.903 65.5959 147.485 65.297 143.524L58.742 148.684L57.0937 153.319L59.6306 162.75L57.7237 176.176C54.1134 186.176 50.7509 186.903 51.7427 186.743C67.7413 184.165 67.5713 172.039 67.603 168.025Z" fill="black" stroke="black" stroke-width="1.49458"/>
<path d="M68.6522 172.456L75.0961 178.877L69.8756 179.091L70.0285 184.243L65.186 182.477L65.3389 187.629L60.4964 185.863L58.1952 189.807L54.1927 182.896L68.6522 172.456Z" fill="#FFDC22" stroke="black" stroke-width="1.49458" stroke-linejoin="round"/>
<path d="M28.9798 145.637L24.985 134.426L78.0471 125.877C76.3974 136.166 72.4965 142.364 66.3282 149.924L65.9682 142.595L67.3103 140.738C62.7015 138.168 48.5832 135.549 28.9798 145.637Z" fill="#742B8E" stroke="black" stroke-width="1.49458" stroke-linejoin="bevel"/>
<path d="M57.2784 110.735L74.3186 114.622C55.8046 124.68 40.8909 122.219 35.7482 119.731L45.3725 111.548L46.6377 105.817C45.6373 104.136 43.7507 98.7652 44.2074 90.7327C44.6641 82.7001 49.2927 77.0168 51.5499 75.1793C54.5098 75.4394 60.385 78.3986 60.206 88.1551C59.9824 100.351 59.0894 101.6 56.2369 104.27L57.2784 110.735Z" fill="#FFDBB0"/>
<path d="M56.2369 104.27L57.2784 110.735L74.3186 114.622C55.8046 124.68 40.8909 122.219 35.7482 119.731L45.3725 111.548L46.6377 105.817C45.6373 104.136 43.7507 98.7652 44.2074 90.7327C44.6641 82.7001 49.2927 77.0168 51.5499 75.1793M56.2369 104.27C59.0894 101.6 59.9824 100.351 60.206 88.1551C60.385 78.3986 54.5098 75.4394 51.5499 75.1793M56.2369 104.27C55.1703 104.442 52.7891 104.605 51.7969 103.88M51.5499 75.1793C55.345 73.8309 53.1623 71.6033 45.8698 73.8836C35.1026 77.2505 33.1944 90.2962 35.5012 91.0299L36.9702 110.336" stroke="black" stroke-width="1.49458" stroke-linejoin="bevel"/>
<g style="mix-blend-mode:multiply">
<path d="M51.1422 76.0457C54.73 76.5172 58.174 80.3857 59.0882 84.6139C59.8088 87.9466 59.105 91.0461 58.2083 99.5282C57.606 101.589 56.1532 103.609 52.9955 102.83" stroke="#FFCB8D" stroke-opacity="0.46" stroke-width="1.49458"/>
</g>
<path d="M55.2044 88.5223C55.4228 89.8779 56.1324 92.7537 57.2233 93.4124M53.0789 98.2524C53.9335 98.4624 56.0897 98.6018 57.8785 97.4791" stroke="black" stroke-width="0.74729"/>
<path d="M51.7801 86.797C51.3054 86.1144 49.5742 85.3308 46.4473 87.6562M56.0464 86.1096C56.2828 85.3125 57.2536 84.0935 59.2462 85.5941M58.5372 87.9853L57.4706 88.1571M50.0046 89.36L48.938 89.5318" stroke="black" stroke-width="1.49458"/>
<path d="M35.6953 92.2346C38.793 101.356 37.7024 112.775 38.0014 116.735L44.5563 111.576L46.2047 106.94L43.6678 97.5095L45.5747 84.0833C49.185 74.084 52.5474 73.357 51.5557 73.5168C35.557 76.0944 35.727 88.2209 35.6953 92.2346Z" fill="black" stroke="black" stroke-width="1.49458"/>
<path d="M34.6461 87.8036L28.2022 81.3829L33.4227 81.1687L33.2698 76.0164L38.1123 77.7827L37.9594 72.6304L42.8019 74.3967L45.1032 70.453L49.1057 77.3634L34.6461 87.8036Z" fill="#FFDC22" stroke="black" stroke-width="1.49458" stroke-linejoin="round"/>
<path d="M74.3185 114.622L78.3134 125.834L25.2512 134.383C26.9009 124.094 30.8018 117.895 36.9702 110.336L37.3302 117.664L35.9881 119.522C40.5968 122.092 54.7152 124.71 74.3185 114.622Z" fill="#742A8E" stroke="black" stroke-width="1.49458" stroke-linejoin="bevel"/>
<path d="M21.2904 83.3172L28.224 89.6854C28.5684 91.8297 28.2802 92.7131 26.7258 93.6001C24.8295 94.4198 22.7824 92.5781 22.7824 92.5781C22.7824 92.5781 21.4174 94.9696 19.3596 94.7869C17.6053 94.433 17.0542 93.6848 16.7077 91.5409L21.2904 83.3172Z" fill="black"/>
<path d="M21.5774 98.0089C22.5185 96.0817 22.7458 94.8879 22.7935 92.623C23.5502 94.7583 24.1409 95.8204 25.6396 97.3544L21.5774 98.0089Z" fill="black"/>
<path d="M81.6485 177.786L86.2312 169.563C85.8848 167.419 85.3336 166.671 83.5793 166.317C81.5215 166.134 80.1565 168.525 80.1565 168.525C80.1565 168.525 78.1094 166.684 76.2131 167.503C74.6588 168.39 74.3705 169.274 74.7149 171.418L81.6485 177.786Z" fill="black"/>
<path d="M77.3068 163.748C78.8055 165.282 79.3962 166.344 80.1529 168.479C80.2007 166.214 80.4279 165.021 81.369 163.093L77.3068 163.748Z" fill="black"/>
<g filter="url(#filter1_i_1570_9741)">
<path d="M91.9295 47.8512C91.9295 47.8512 98.7803 44.5026 105.291 45.9726C108.25 47.9396 113.78 50.3307 111.4 61.1644C108.252 66.6219 99.5838 74.9922 80.8425 85.8741C69.9732 64.023 68.5823 56.8342 69.0725 48.8222C71.5429 40.3499 75.2493 38.317 80.5679 38.7637C87.7421 40.8556 91.9295 47.8512 91.9295 47.8512Z" fill="#C62222"/>
</g>
<g filter="url(#filter2_i_1570_9741)">
<path d="M112.411 26.5792C112.411 26.5792 115.139 25.2457 117.732 25.8311C118.91 26.6144 121.112 27.5665 120.164 31.8806C118.911 34.0538 115.459 37.3869 107.996 41.7202C103.668 33.0189 103.114 30.1563 103.309 26.9658C104.293 23.592 105.769 22.7825 107.887 22.9604C110.744 23.7934 112.411 26.5792 112.411 26.5792Z" fill="#C62222"/>
</g>
<g filter="url(#filter3_i_1570_9741)">
<path d="M146.521 24.9756C146.521 24.9756 147.553 24.471 148.534 24.6926C148.98 24.989 149.814 25.3493 149.455 26.9817C148.981 27.8041 147.675 29.0654 144.85 30.7051C143.213 27.4125 143.003 26.3292 143.077 25.1219C143.449 23.8453 144.008 23.539 144.809 23.6063C145.89 23.9215 146.521 24.9756 146.521 24.9756Z" fill="#C62222"/>
</g>
<g filter="url(#filter4_i_1570_9741)">
<path d="M133.438 27.9597C133.438 27.9597 135.149 27.1236 136.774 27.4906C137.513 27.9817 138.894 28.5787 138.3 31.2836C137.514 32.6461 135.35 34.736 130.67 37.4529C127.957 31.9973 127.609 30.2024 127.732 28.2021C128.349 26.0868 129.274 25.5792 130.602 25.6908C132.393 26.213 133.438 27.9597 133.438 27.9597Z" fill="#C62222"/>
</g>
<g filter="url(#filter5_i_1570_9741)">
<path d="M126.88 46.3667C126.88 46.3667 129.608 45.0333 132.201 45.6186C133.379 46.4019 135.581 47.3541 134.633 51.6681C133.38 53.8414 129.928 57.1745 122.465 61.5077C118.137 52.8064 117.583 49.9438 117.778 46.7534C118.762 43.3796 120.238 42.5701 122.356 42.748C125.213 43.581 126.88 46.3667 126.88 46.3667Z" fill="#C62222"/>
</g>
</g>
<rect x="71" y="144" width="39.44" height="59.16" rx="2.79811" fill="white"/>
<mask id="mask2_1570_9741" style="mask-type:alpha" maskUnits="userSpaceOnUse" x="71" y="145" width="38" height="57">
<path d="M78.1513 145.487H106.125C107.477 145.487 108.573 146.584 108.573 147.936V188.417C108.573 189.036 108.072 189.537 107.453 189.537C106.597 189.537 105.857 190.134 105.675 190.97L104.192 197.795C104.063 198.384 104.325 198.989 104.842 199.299C105.45 199.664 105.202 200.597 104.493 200.611L74.707 201.232C73.3023 201.261 72.1611 200.105 72.2091 198.7L73.5486 159.52C73.5848 158.462 74.4531 157.623 75.512 157.623C76.9833 157.623 78.176 156.43 78.176 154.959V149.363C78.176 148.742 77.8833 148.156 77.386 147.783C76.4054 147.048 76.9255 145.487 78.1513 145.487Z" fill="#C4C4C4" stroke="black" stroke-width="0.699528"/>
</mask>
<g mask="url(#mask2_1570_9741)">
<rect x="74.7628" y="147.384" width="32.6728" height="52.3928" rx="2.44835" stroke="black" stroke-width="0.699528"/>
</g>
<path d="M74.7922 173.58H107.406" stroke="black" stroke-width="0.699528"/>
<path d="M81.7069 156.136H78.5017C79.7767 155.388 80.0026 154.783 80.1043 153.589L77.9675 154.607C76.7988 153.826 76.7375 153.381 77.9675 152.57L80.1043 153.589L79.0358 151.042C79.7126 149.719 80.3712 149.768 81.1726 151.042L80.1043 153.589L82.5081 152.57C83.4452 153.366 83.2378 153.812 82.5081 154.607L80.1043 153.589C80.2986 154.783 80.5759 155.375 81.7069 156.136Z" fill="black"/>
<path d="M80.1043 153.589C80.0026 154.783 79.7767 155.388 78.5017 156.136H81.7069C80.5759 155.375 80.2986 154.783 80.1043 153.589ZM80.1043 153.589L77.9675 154.607C76.7988 153.826 76.7375 153.381 77.9675 152.57L80.1043 153.589ZM80.1043 153.589L81.1726 151.042C80.3712 149.768 79.7126 149.719 79.0358 151.042L80.1043 153.589ZM80.1043 153.589L82.5081 152.57C83.4452 153.366 83.2378 153.812 82.5081 154.607L80.1043 153.589Z" stroke="black" stroke-width="0.699528"/>
<path d="M99.7333 191.025L102.938 191.025C101.664 191.772 101.438 192.377 101.336 193.572L103.473 192.553C104.641 193.334 104.703 193.78 103.473 194.59L101.336 193.572L102.404 196.119C101.728 197.441 101.069 197.392 100.268 196.119L101.336 193.572L98.932 194.59C97.995 193.795 98.2024 193.349 98.932 192.553L101.336 193.572C101.142 192.377 100.864 191.785 99.7333 191.025Z" fill="black"/>
<path d="M101.336 193.572C101.438 192.377 101.664 191.772 102.938 191.025L99.7333 191.025C100.864 191.785 101.142 192.377 101.336 193.572ZM101.336 193.572L103.473 192.553C104.641 193.334 104.703 193.78 103.473 194.59L101.336 193.572ZM101.336 193.572L100.268 196.119C101.069 197.392 101.728 197.441 102.404 196.119L101.336 193.572ZM101.336 193.572L98.932 194.59C97.995 193.795 98.2024 193.349 98.932 192.553L101.336 193.572Z" stroke="black" stroke-width="0.699528"/>
<path d="M75.4104 148.14C75.3867 148.463 75.3674 148.746 75.3526 148.989C75.3378 149.231 75.326 149.447 75.3171 149.637C75.3112 149.823 75.3068 149.989 75.3038 150.134C75.3038 150.279 75.3053 150.417 75.3082 150.547C75.3112 150.677 75.3156 150.808 75.3216 150.938C75.3275 151.065 75.3319 151.204 75.3349 151.355C75.3408 151.506 75.3452 151.676 75.3482 151.866C75.3541 152.052 75.3571 152.272 75.3571 152.523C75.3571 152.819 75.3275 153.105 75.2683 153.38C75.2091 153.655 75.1084 153.9 74.9663 154.113C74.8242 154.323 74.6333 154.492 74.3935 154.619C74.1537 154.746 73.8533 154.81 73.4921 154.81C73.279 154.81 73.0895 154.785 72.9238 154.734C72.7609 154.684 72.6174 154.616 72.493 154.53C72.3717 154.444 72.2681 154.344 72.1822 154.228C72.0993 154.113 72.0312 153.991 71.978 153.864C71.9276 153.734 71.8906 153.602 71.867 153.469C71.8462 153.333 71.8359 153.202 71.8359 153.078C71.8359 152.912 71.8625 152.775 71.9158 152.665C71.972 152.556 72.0386 152.468 72.1156 152.403C72.1955 152.338 72.2769 152.292 72.3598 152.266C72.4457 152.239 72.5197 152.226 72.5818 152.226C72.647 152.226 72.7225 152.239 72.8083 152.266C72.8971 152.289 72.9815 152.332 73.0614 152.394C73.1413 152.454 73.2079 152.532 73.2612 152.63C73.3175 152.727 73.3456 152.847 73.3456 152.989C73.3397 153.099 73.316 153.201 73.2745 153.296C73.239 153.376 73.1828 153.456 73.1058 153.536C73.0318 153.612 72.9238 153.667 72.7817 153.7C72.8349 153.786 72.8942 153.855 72.9593 153.909C73.0274 153.959 73.0955 153.997 73.1635 154.024C73.2346 154.051 73.3012 154.068 73.3634 154.077C73.4255 154.086 73.4773 154.091 73.5188 154.091C73.6757 154.091 73.8015 154.059 73.8962 153.997C73.9909 153.932 74.0634 153.843 74.1138 153.731C74.1641 153.615 74.1967 153.482 74.2115 153.331C74.2292 153.177 74.2381 153.012 74.2381 152.834C74.2381 152.431 74.2366 152.033 74.2337 151.639C74.2337 151.243 74.2292 150.851 74.2203 150.463C74.2115 150.075 74.1967 149.689 74.1759 149.304C74.1552 148.919 74.1241 148.537 74.0827 148.158C74.1153 148.164 74.1567 148.17 74.207 148.176C74.2869 148.185 74.4098 148.189 74.5756 148.189C74.6792 148.189 74.8005 148.186 74.9397 148.18C75.0788 148.175 75.2357 148.161 75.4104 148.14Z" fill="black"/>
<path d="M106.03 198.261C106.054 197.938 106.073 197.656 106.088 197.413C106.102 197.17 106.114 196.954 106.123 196.764C106.129 196.578 106.133 196.412 106.136 196.267C106.136 196.122 106.135 195.984 106.132 195.854C106.129 195.724 106.125 195.594 106.119 195.463C106.113 195.336 106.108 195.197 106.105 195.046C106.099 194.895 106.095 194.725 106.092 194.535C106.086 194.349 106.083 194.13 106.083 193.878C106.083 193.582 106.113 193.297 106.172 193.021C106.231 192.746 106.332 192.502 106.474 192.289C106.616 192.078 106.807 191.91 107.047 191.782C107.286 191.655 107.587 191.591 107.948 191.591C108.161 191.591 108.351 191.617 108.516 191.667C108.679 191.717 108.823 191.785 108.947 191.871C109.069 191.957 109.172 192.058 109.258 192.173C109.341 192.289 109.409 192.41 109.462 192.537C109.513 192.668 109.55 192.799 109.573 192.932C109.594 193.069 109.604 193.199 109.604 193.323C109.604 193.489 109.578 193.627 109.524 193.736C109.468 193.846 109.402 193.933 109.325 193.998C109.245 194.063 109.163 194.109 109.08 194.136C108.995 194.162 108.921 194.176 108.858 194.176C108.793 194.176 108.718 194.162 108.632 194.136C108.543 194.112 108.459 194.069 108.379 194.007C108.299 193.948 108.232 193.869 108.179 193.772C108.123 193.674 108.095 193.554 108.095 193.412C108.101 193.302 108.124 193.2 108.166 193.106C108.201 193.026 108.257 192.946 108.334 192.866C108.408 192.789 108.516 192.734 108.659 192.702C108.605 192.616 108.546 192.546 108.481 192.493C108.413 192.443 108.345 192.404 108.277 192.377C108.206 192.351 108.139 192.333 108.077 192.324C108.015 192.315 107.963 192.311 107.921 192.311C107.765 192.311 107.639 192.342 107.544 192.404C107.449 192.469 107.377 192.558 107.326 192.67C107.276 192.786 107.244 192.919 107.229 193.07C107.211 193.224 107.202 193.39 107.202 193.567C107.202 193.97 107.204 194.368 107.207 194.762C107.207 195.159 107.211 195.551 107.22 195.939C107.229 196.326 107.244 196.713 107.264 197.098C107.285 197.482 107.316 197.864 107.357 198.243C107.325 198.237 107.283 198.231 107.233 198.225C107.153 198.216 107.03 198.212 106.865 198.212C106.761 198.212 106.64 198.215 106.501 198.221C106.361 198.227 106.204 198.24 106.03 198.261Z" fill="black"/>
<path d="M96.4083 184.578C96.4083 186.141 96.7874 182.682 99.063 183.819C101.117 184.846 98.3046 185.336 97.9257 187.991C96.9915 189.965 95.735 193.26 95.2711 193.679L89.5826 193.3L92.6164 186.853L94.8914 183.819C96.4083 183.061 96.4083 183.819 96.4083 184.578Z" fill="#FFDC22"/>
<path d="M102.855 179.648L99.4423 183.819C98.8355 182.606 97.6726 183.566 97.1669 184.198C97.1669 184.072 96.9394 183.743 96.0292 183.44C95.1191 183.137 94.1331 183.819 93.7539 184.198L88.4446 176.235L83.5146 182.682L79.3431 179.648L78.9639 172.822L103.235 172.822L102.855 179.648Z" fill="#D1B167"/>
<path d="M92.6162 187.232L89.2031 193.679L83.8939 193.3L84.2731 190.266L83.1354 187.991L84.2731 187.232L84.6524 186.095L84.6524 183.44C85.0316 183.566 86.1693 183.743 87.6862 183.44C89.2031 183.137 90.5936 184.325 91.0993 184.957L91.0993 186.095C91.9192 186.132 92.2182 186.44 92.6162 187.232Z" fill="#FFDBB0"/>
<path d="M84.6523 183.44L88.4446 178.51L92.9954 186.095L92.2369 186.853C89.9615 184.198 89.5755 182.88 84.6523 183.44Z" fill="#3076FF"/>
<path d="M93.3746 185.715L94.1331 184.578L88.4446 176.235L83.8938 182.681L84.6523 183.44L88.8238 178.51L93.3746 185.715Z" fill="#B02929"/>
<path d="M85.6719 192.598C85.8012 192.779 86.5746 192.943 88.6343 192.149" stroke="black" stroke-width="0.699528"/>
<path d="M85.3159 186.994C85.79 186.678 86.8329 186.046 87.2121 186.046C87.6861 186.046 88.6342 186.994 87.6861 187.468C86.9277 187.847 86.7381 187.31 86.7381 186.994" stroke="black" stroke-width="0.349764"/>
<path d="M86.2641 190.786L87.2122 190.786" stroke="black" stroke-width="0.699528"/>
<path d="M96.2188 196.474L95.7447 193.156C93.0585 193.788 86.9276 194.673 83.8937 193.156C83.8937 196.474 81.0495 195.526 83.8937 196.948C86.1691 198.086 93.0585 197.106 96.2188 196.474Z" fill="black" stroke="black" stroke-width="0.699528" stroke-linejoin="bevel"/>
<path d="M103.614 173.201L78.5845 173.201" stroke="black" stroke-width="0.699528" stroke-linejoin="bevel"/>
<path d="M85.316 187.363C84.842 187.363 82.9458 187.363 82.9458 187.837C82.9458 188.216 83.8939 189.575 84.3679 190.207L83.8939 193.051C84.8097 193.601 86.8684 193.73 89.1083 193.663M84.3679 187.363C84.1556 186.726 84.3295 186.257 84.6069 185.94M85.316 185.466C85.1073 185.536 84.8251 185.691 84.6069 185.94M84.6069 185.94L84.6069 183.57M84.6069 183.57C85.3457 183.546 87.1473 183.509 88.6342 183.57C90.1965 183.634 91.1624 184.834 91.4785 185.466M84.6069 183.57L83.5146 182.871M84.6069 183.57L88.6342 178.51L93.305 185.94M78.9639 173.58L79.3431 179.778L83.5146 182.871M96.6929 188.785C95.5359 188.666 94.7968 188.311 95.2708 187.363C96.1294 185.645 97.3094 186.248 97.844 186.889M97.844 186.889C97.9856 187.058 98.0819 187.23 98.115 187.363C98.4943 188.121 96.6929 191.471 95.7448 193.051C94.111 193.296 91.5058 193.592 89.1083 193.663M97.844 186.889L98.5891 185.94C99.4874 185.684 99.9897 184.781 99.5371 184.044M99.5371 184.044C99.4325 183.874 99.2768 183.713 99.0631 183.57C98.6895 183.218 96.8049 183.915 97.1669 184.578M99.5371 184.044L102.855 179.778L103.235 173.58M89.1083 193.663L91.4785 188.785C91.9235 188.467 92.3173 188.021 92.5057 187.571M90.5304 187.837C89.7403 187.047 90.0988 185.596 91.4785 185.94C92.6117 186.224 92.7855 186.902 92.5057 187.571M93.3746 185.94L94.3227 184.044C95.2708 183.096 97.641 183.096 96.2189 185.466M93.3746 188.785C94.1647 188.469 95.6626 187.305 94.3227 186.414C93.4332 185.823 92.6373 186.711 92.5057 187.571M83.5146 182.871L88.6342 176.235L93.7539 184.578" stroke="black" stroke-width="0.699528"/>
<g style="mix-blend-mode:multiply">
<path d="M84.273 192.921C84.623 191.835 84.9506 190.484 84.6523 189.887C84.273 189.129 83.8938 188.749 83.1353 187.991M84.6523 187.232C84.7038 186.359 84.5588 186.106 85.0315 185.716L85.0315 183.819" stroke="#FFCB8D" stroke-opacity="0.46" stroke-width="0.699528"/>
</g>
<path d="M85.7899 162.203C85.7899 160.64 85.4108 164.099 83.1353 162.962C81.0817 161.935 83.8936 161.445 84.2725 158.79C85.2068 156.816 86.4632 153.521 86.9272 153.102L92.6157 153.481L89.5818 159.928L87.3068 162.962C85.7899 163.72 85.7899 162.962 85.7899 162.203Z" fill="#FFDC22"/>
<path d="M79.3431 167.133L82.7562 162.962C83.3629 164.175 84.5259 163.215 85.0316 162.583C85.0316 162.709 85.2591 163.038 86.1693 163.341C87.0794 163.644 88.0654 162.962 88.4446 162.583L93.7539 170.546L98.6839 164.099L102.855 167.133L103.235 173.959H78.9639L79.3431 167.133Z" fill="#D1B167"/>
<path d="M89.5823 159.548L92.9954 153.102L98.3046 153.481L97.9254 156.515L99.063 158.79L97.9254 159.548L97.5461 160.686V163.341C97.1669 163.214 96.0292 163.037 94.5123 163.341C92.9954 163.644 91.6048 162.456 91.0992 161.824V160.686C90.2793 160.649 89.9803 160.34 89.5823 159.548Z" fill="#FFDBB0"/>
<path d="M97.5462 163.341L93.7539 168.271L89.2031 160.686L89.9616 159.928C92.237 162.582 92.623 163.901 97.5462 163.341Z" fill="#3076FF"/>
<path d="M88.8239 161.065L88.0654 162.203L93.7539 170.546L98.3047 164.099L97.5462 163.341L93.3747 168.271L88.8239 161.065Z" fill="#B02929"/>
<path d="M96.5266 154.183C96.3973 154.002 95.6239 153.837 93.5642 154.632" stroke="black" stroke-width="0.699528"/>
<path d="M96.8825 159.787C96.4085 160.103 95.3656 160.735 94.9864 160.735C94.5124 160.735 93.5643 159.787 94.5124 159.313C95.2708 158.934 95.4604 159.471 95.4604 159.787" stroke="black" stroke-width="0.349764"/>
<path d="M95.9344 155.995H94.9863" stroke="black" stroke-width="0.699528"/>
<path d="M85.9795 150.307L86.4535 153.625C89.1397 152.993 95.2706 152.108 98.3045 153.625C98.3045 150.307 101.149 151.255 98.3045 149.833C96.0291 148.695 89.1397 149.675 85.9795 150.307Z" fill="black" stroke="black" stroke-width="0.699528" stroke-linejoin="bevel"/>
<path d="M78.5847 173.58H103.614" stroke="black" stroke-width="0.699528" stroke-linejoin="bevel"/>
<path d="M96.8825 159.418C97.3565 159.418 99.2527 159.418 99.2527 158.944C99.2527 158.565 98.3046 157.206 97.8306 156.574L98.3046 153.73C97.3887 153.18 95.3301 153.051 93.0902 153.118M97.8306 159.418C98.0428 160.055 97.8689 160.524 97.5915 160.84M96.8825 161.314C97.0912 161.245 97.3734 161.089 97.5915 160.84M97.5915 160.84V163.211M97.5915 163.211C96.8528 163.235 95.0512 163.272 93.5643 163.211C92.002 163.146 91.036 161.946 90.72 161.314M97.5915 163.211L98.6839 163.909M97.5915 163.211L93.5643 168.271L88.8935 160.84M103.235 173.201L102.855 167.003L98.6839 163.909M85.5056 157.996C86.6626 158.115 87.4017 158.47 86.9277 159.418C86.0691 161.135 84.8891 160.532 84.3545 159.892M84.3545 159.892C84.2129 159.723 84.1165 159.551 84.0834 159.418C83.7042 158.66 85.5056 155.31 86.4536 153.73C88.0875 153.485 90.6927 153.189 93.0902 153.118M84.3545 159.892L83.6094 160.84C82.7111 161.097 82.2088 162 82.6614 162.736M82.6614 162.736C82.766 162.907 82.9217 163.068 83.1354 163.211C83.509 163.563 85.3936 162.866 85.0316 162.203M82.6614 162.736L79.3431 167.003L78.9639 173.201M93.0902 153.118L90.72 157.996C90.275 158.314 89.8811 158.76 89.6928 159.21M91.6681 158.944C92.4582 159.734 92.0997 161.185 90.72 160.84C89.5867 160.557 89.413 159.879 89.6928 159.21M88.8239 160.84L87.8758 162.736C86.9277 163.685 84.5575 163.685 85.9796 161.314M88.8239 157.996C88.0338 158.312 86.5359 159.476 87.8758 160.366C88.7653 160.958 89.5612 160.069 89.6928 159.21M98.6839 163.909L93.5643 170.546L88.4446 162.203" stroke="black" stroke-width="0.699528"/>
<g style="mix-blend-mode:multiply">
<path d="M97.9255 153.86C97.5754 154.946 97.2479 156.297 97.5462 156.894C97.9255 157.652 98.3047 158.032 99.0631 158.79M97.5462 159.549C97.4947 160.422 97.6397 160.675 97.167 161.065V162.962" stroke="#FFCB8D" stroke-opacity="0.46" stroke-width="0.699528"/>
</g>
<defs>
<filter id="filter0_d_1570_9741" x="0" y="22.9375" width="168.495" height="180.693" filterUnits="userSpaceOnUse" color-interpolation-filters="sRGB">
<feFlood flood-opacity="0" result="BackgroundImageFix"/>
<feColorMatrix in="SourceAlpha" type="matrix" values="0 0 0 0 0 0 0 0 0 0 0 0 0 0 0 0 0 0 127 0" result="hardAlpha"/>
<feOffset dx="1.49458" dy="1.49458"/>
<feColorMatrix type="matrix" values="0 0 0 0 0 0 0 0 0 0 0 0 0 0 0 0 0 0 0.25 0"/>
<feBlend mode="normal" in2="BackgroundImageFix" result="effect1_dropShadow_1570_9741"/>
<feBlend mode="normal" in="SourceGraphic" in2="effect1_dropShadow_1570_9741" result="shape"/>
</filter>
<filter id="filter1_i_1570_9741" x="68.989" y="38.7061" width="42.9907" height="47.168" filterUnits="userSpaceOnUse" color-interpolation-filters="sRGB">
<feFlood flood-opacity="0" result="BackgroundImageFix"/>
<feBlend mode="normal" in="SourceGraphic" in2="BackgroundImageFix" result="shape"/>
<feColorMatrix in="SourceAlpha" type="matrix" values="0 0 0 0 0 0 0 0 0 0 0 0 0 0 0 0 0 0 127 0" result="hardAlpha"/>
<feOffset dy="-4.48374"/>
<feComposite in2="hardAlpha" operator="arithmetic" k2="-1" k3="1"/>
<feColorMatrix type="matrix" values="0 0 0 0 0 0 0 0 0 0 0 0 0 0 0 0 0 0 0.25 0"/>
<feBlend mode="normal" in2="shape" result="effect1_innerShadow_1570_9741"/>
</filter>
<filter id="filter2_i_1570_9741" x="103.276" y="22.9375" width="17.1194" height="18.7827" filterUnits="userSpaceOnUse" color-interpolation-filters="sRGB">
<feFlood flood-opacity="0" result="BackgroundImageFix"/>
<feBlend mode="normal" in="SourceGraphic" in2="BackgroundImageFix" result="shape"/>
<feColorMatrix in="SourceAlpha" type="matrix" values="0 0 0 0 0 0 0 0 0 0 0 0 0 0 0 0 0 0 127 0" result="hardAlpha"/>
<feOffset dy="-4.48374"/>
<feComposite in2="hardAlpha" operator="arithmetic" k2="-1" k3="1"/>
<feColorMatrix type="matrix" values="0 0 0 0 0 0 0 0 0 0 0 0 0 0 0 0 0 0 0.25 0"/>
<feBlend mode="normal" in2="shape" result="effect1_innerShadow_1570_9741"/>
</filter>
<filter id="filter3_i_1570_9741" x="143.064" y="23.5977" width="6.47803" height="7.10742" filterUnits="userSpaceOnUse" color-interpolation-filters="sRGB">
<feFlood flood-opacity="0" result="BackgroundImageFix"/>
<feBlend mode="normal" in="SourceGraphic" in2="BackgroundImageFix" result="shape"/>
<feColorMatrix in="SourceAlpha" type="matrix" values="0 0 0 0 0 0 0 0 0 0 0 0 0 0 0 0 0 0 127 0" result="hardAlpha"/>
<feOffset dy="-4.48374"/>
<feComposite in2="hardAlpha" operator="arithmetic" k2="-1" k3="1"/>
<feColorMatrix type="matrix" values="0 0 0 0 0 0 0 0 0 0 0 0 0 0 0 0 0 0 0.25 0"/>
<feBlend mode="normal" in2="shape" result="effect1_innerShadow_1570_9741"/>
</filter>
<filter id="filter4_i_1570_9741" x="127.711" y="25.6763" width="10.7334" height="11.7766" filterUnits="userSpaceOnUse" color-interpolation-filters="sRGB">
<feFlood flood-opacity="0" result="BackgroundImageFix"/>
<feBlend mode="normal" in="SourceGraphic" in2="BackgroundImageFix" result="shape"/>
<feColorMatrix in="SourceAlpha" type="matrix" values="0 0 0 0 0 0 0 0 0 0 0 0 0 0 0 0 0 0 127 0" result="hardAlpha"/>
<feOffset dy="-4.48374"/>
<feComposite in2="hardAlpha" operator="arithmetic" k2="-1" k3="1"/>
<feColorMatrix type="matrix" values="0 0 0 0 0 0 0 0 0 0 0 0 0 0 0 0 0 0 0.25 0"/>
<feBlend mode="normal" in2="shape" result="effect1_innerShadow_1570_9741"/>
</filter>
<filter id="filter5_i_1570_9741" x="117.745" y="42.7251" width="17.1194" height="18.7827" filterUnits="userSpaceOnUse" color-interpolation-filters="sRGB">
<feFlood flood-opacity="0" result="BackgroundImageFix"/>
<feBlend mode="normal" in="SourceGraphic" in2="BackgroundImageFix" result="shape"/>
<feColorMatrix in="SourceAlpha" type="matrix" values="0 0 0 0 0 0 0 0 0 0 0 0 0 0 0 0 0 0 127 0" result="hardAlpha"/>
<feOffset dy="-4.48374"/>
<feComposite in2="hardAlpha" operator="arithmetic" k2="-1" k3="1"/>
<feColorMatrix type="matrix" values="0 0 0 0 0 0 0 0 0 0 0 0 0 0 0 0 0 0 0.25 0"/>
<feBlend mode="normal" in2="shape" result="effect1_innerShadow_1570_9741"/>
</filter>
</defs>
</svg>
